<?xml version="1.0" encoding="iso-8859-1"?>
<!-- Generator: Adobe Illustrator 15.0.2, SVG Export Plug-In . SVG Version: 6.00 Build 0)  -->
<!DOCTYPE svg PUBLIC "-//W3C//DTD SVG 1.1//EN" "http://www.w3.org/Graphics/SVG/1.1/DTD/svg11.dtd">
<svg version="1.1" xmlns="http://www.w3.org/2000/svg" xmlns:xlink="http://www.w3.org/1999/xlink" x="0px" y="0px" width="300px"
	 height="300px" viewBox="0 0 300 300" style="enable-background:new 0 0 300 300;" xml:space="preserve">
<g id="color__x28_change_this_x29_">
	<path style="fill:#A6A8AB;" d="M174.946,276.972l-0.09,0.02c-0.28-1.109-0.46-2.27-0.5-3.449c-0.04-0.74-0.01-1.48,0.08-2.23
		c-0.94-0.47-1.88-0.94-3.21-1.02c0.22-2.551,0.35-5.271,0.399-8.11c0.07-4.17-0.04-8.59-0.34-13.13c-0.25-4-0.64-8.09-1.15-12.181
		c-0.699-5.64-1.64-11.26-2.789-16.609c-0.671-3.15-1.421-6.2-2.24-9.101c-1.311-4.689-2.8-9-4.44-12.699
		c-2.13,0.42-4.26,0.8-6.37,1.14c-3.89,0.63-7.72,1.16-11.4,1.69l0.02,0.119c1.47,3.811,2.71,8.221,3.71,12.98
		c0.8,3.82,1.44,7.87,1.93,12.03c0.48,4.12,0.81,8.35,0.98,12.569c0.19,4.24,0.21,8.46,0.07,12.551
		c-0.14,4.329-0.46,8.51-0.95,12.409c-0.21,1.67-0.45,3.29-0.72,4.841c-2.33,0.399-3.75,1.47-4.59,2.92
		c-0.93,1.619-1.14,3.72-1.09,5.96c-1.89,1.359-3.89,2.09-5.87,2.689c-6.62,2.021-13.09,2.681-15.05,20.48l4.45-0.011l67.15-0.09
		l11.239-0.02C199.767,275.882,185.756,281.602,174.946,276.972z"/>
</g>
<g id="shadow">
	<path style="opacity:0.45;" d="M174.856,276.991l0.09-0.02c10.81,4.63,24.82-1.09,29.229,23.75l-11.239,0.02
		c0.399-6.479,0.569-12.46-7.21-14.08c-4.601-1.159-10.65,2.03-15.091,1.04c0-0.21,0-0.409,0-0.62c0-2.859,0-5.72,0-8.579
		c-0.06-0.011-0.109-0.021-0.17-0.03c2.141-1.19,3.5-2.82,3.5-4.92l0.391-0.01C174.396,274.722,174.576,275.882,174.856,276.991z"/>
	<path style="opacity:0.3;" d="M170.756,274.411c0.19-1.319,0.341-2.689,0.471-4.119c1.33,0.079,2.27,0.55,3.21,1.02
		c-0.09,0.75-0.12,1.49-0.08,2.23l-0.391,0.01c0,2.1-1.359,3.729-3.5,4.92c-1.68-0.34-3.619-0.66-5.369-0.76
		c0.039-0.181,0.069-0.36,0.109-0.54C167.406,276.512,169.366,275.571,170.756,274.411z"/>
	<path style="opacity:0.3;" d="M142.256,277.672c-0.05-2.24,0.16-4.341,1.09-5.96l0.21,0.109c-3.23,8.891,18.25,11.44,26.91,6.65
		c0.061,0.01,0.11,0.02,0.17,0.03c0,2.859,0,5.72,0,8.579c-8.51,3.57-24.209,4.65-28.109-5.479
		C142.406,280.302,142.286,278.951,142.256,277.672z"/>
	<path style="opacity:0.5;fill:#FFFFFF;" d="M136.386,280.361c1.71,2.75-0.65,4.891-3.69,7.931c-3.46,3.46-5.95,7.63-6.91,12.539
		l-4.45,0.011C123.296,283.042,129.766,282.382,136.386,280.361z"/>
	<g id="XMLID_15_">
		<g>
			<path style="fill:#58595B;" d="M171.286,249.052c0.3,4.54,0.41,8.96,0.34,13.13c-1.41,0.82-3.069,1.55-4.87,2.149
				c0.2-3.8,0.15-7.529-0.199-10.72c-0.051-0.42-0.141-1.04-0.271-1.83C168.156,250.901,169.866,249.922,171.286,249.052z"/>
			<path style="fill:#58595B;" d="M171.227,270.292c-0.13,1.43-0.28,2.8-0.471,4.119c-1.39,1.16-3.35,2.101-5.55,2.761
				c0.771-3.88,1.33-8.41,1.55-12.841c1.801-0.6,3.46-1.329,4.87-2.149C171.576,265.021,171.446,267.741,171.227,270.292z"/>
			<path style="fill:#58595B;" d="M170.136,236.871c0.511,4.091,0.9,8.181,1.15,12.181c-1.42,0.87-3.13,1.85-5,2.729
				c-0.41-2.529-1.21-6.83-2.27-12.069C166.036,239.161,168.066,238.231,170.136,236.871z"/>
			<path style="fill:#58595B;" d="M167.347,220.262c1.149,5.35,2.09,10.97,2.789,16.609c-2.069,1.36-4.1,2.29-6.119,2.841
				c-0.891-4.431-1.98-9.53-3.16-14.79c2.189-1.101,4.22-2.65,5.96-4.551L167.347,220.262z"/>
			<path style="fill:#58595B;" d="M167.347,220.262l-0.53,0.109c-1.74,1.9-3.771,3.45-5.96,4.551c-0.8-3.5-1.641-7.061-2.51-10.54
				c2.42-0.69,4.649-1.761,6.31-3.09l0.45-0.131C165.926,214.062,166.676,217.111,167.347,220.262z"/>
			<path style="fill:#6D6E70;" d="M166.557,253.611c0.35,3.19,0.399,6.92,0.199,10.72c-5.819,1.931-13.04,2.44-17.649-0.329
				l-0.45-0.051c0.49-3.899,0.81-8.08,0.95-12.409c4.149,4.699,11.09,2.89,16.68,0.239
				C166.416,252.571,166.506,253.191,166.557,253.611z"/>
			<path style="fill:#6D6E70;" d="M147.936,268.792c0.27-1.551,0.51-3.171,0.72-4.841l0.45,0.051
				c4.609,2.77,11.83,2.26,17.649,0.329c-0.22,4.431-0.779,8.961-1.55,12.841c-6.53,1.939-15.28,1.35-18.25-3.73
				C147.316,271.972,147.646,270.411,147.936,268.792z"/>
			<path style="fill:#58595B;" d="M165.106,211.161l-0.45,0.131c-1.66,1.329-3.89,2.399-6.31,3.09c-1.32-5.29-2.69-10.4-4.051-14.78
				c2.11-0.34,4.24-0.72,6.37-1.14C162.307,202.161,163.796,206.472,165.106,211.161z"/>
			<path style="fill:#6D6E70;" d="M164.017,239.712c1.06,5.239,1.859,9.54,2.27,12.069c-5.59,2.65-12.53,4.46-16.68-0.239
				c0.14-4.091,0.12-8.311-0.07-12.551l1.3-0.05C155.486,240.392,159.746,240.871,164.017,239.712z"/>
			<path style="fill:#6D6E70;" d="M160.856,224.922c1.18,5.26,2.27,10.359,3.16,14.79c-4.271,1.159-8.53,0.68-13.18-0.771l-1.3,0.05
				c-0.17-4.22-0.5-8.449-0.98-12.569l0.12-0.011C152.786,227.512,157.066,226.871,160.856,224.922z"/>
			<path style="fill:#6D6E70;" d="M158.347,214.382c0.869,3.479,1.71,7.04,2.51,10.54c-3.79,1.949-8.07,2.59-12.18,1.489
				l-0.12,0.011c-0.49-4.16-1.13-8.21-1.93-12.03l0.32-0.07C150.136,215.651,154.477,215.512,158.347,214.382z"/>
			<path style="fill:#6D6E70;" d="M154.296,199.602c1.36,4.38,2.73,9.49,4.051,14.78c-3.87,1.13-8.21,1.27-11.4-0.061l-0.32,0.07
				c-1-4.76-2.24-9.17-3.71-12.98l-0.02-0.119C146.576,200.762,150.406,200.231,154.296,199.602z"/>
		</g>
		<g>
		</g>
	</g>
</g>
<g id="outline">
	<g>
		<g>
			<path style="fill:#361211;" d="M146.988,273.543c3.179-11.76,3.577-24.152,3.087-36.264c-0.267-6.581-0.966-13.155-2.014-19.656
				c-0.842-5.224-1.642-12.27-4.872-16.649c-0.399-0.542-0.694,0.257-0.649,0.604c0.664,5.159,2.725,10.194,3.756,15.315
				c1.356,6.738,2.134,13.561,2.564,20.416c0.753,12.012,0.409,24.353-1.967,36.176
				C146.881,273.549,146.964,273.633,146.988,273.543L146.988,273.543z"/>
		</g>
	</g>
	<g>
		<g>
			<path style="fill:#361211;" d="M142.059,201.525c3.111,0.248,6.271-0.389,9.355-0.782c3.272-0.417,6.616-0.752,9.797-1.647
				c0.532-0.149,0.438-1.521-0.166-1.454c-3.24,0.359-6.452,1.16-9.664,1.731c-3.123,0.556-6.364,0.812-9.349,1.923
				C141.946,201.328,141.964,201.518,142.059,201.525L142.059,201.525z"/>
		</g>
	</g>
	<g>
		<g>
			<path style="fill:#361211;" d="M160.362,198.505c3.601,12.122,6.878,23.905,8.627,36.477c1.009,7.252,1.549,14.569,1.714,21.888
				c0.135,5.979-0.507,11.97-0.255,17.938c0.012,0.288,0.348,0.58,0.482,0.186c1.803-5.275,1.668-11.25,1.631-16.758
				c-0.049-7.022-0.646-14.034-1.476-21.003c-1.509-12.699-3.519-27.987-10.262-39.156
				C160.591,197.689,160.287,198.249,160.362,198.505L160.362,198.505z"/>
		</g>
	</g>
	<g>
		<g>
			<path style="fill:#361211;" d="M149.089,264.096c6.445,3.795,18.294,2.748,23.879-2.437c0.14-0.131,0.104-0.639-0.162-0.532
				c-7.672,3.057-15.453,6.671-23.688,2.779C149.031,263.865,149.022,264.057,149.089,264.096L149.089,264.096z"/>
		</g>
	</g>
	<g>
		<g>
			<path style="fill:#361211;" d="M149.458,251.599c5.358,6.147,17.158,2.758,22.24-2.4c0.179-0.182,0.146-0.767-0.204-0.674
				c-3.019,0.802-5.853,3.017-8.828,4.141c-4.46,1.686-9.325,2.01-13.075-1.346C149.455,251.198,149.379,251.509,149.458,251.599
				L149.458,251.599z"/>
		</g>
	</g>
	<g>
		<g>
			<path style="fill:#361211;" d="M150.808,239.096c6.271,2.316,14.382,3.202,19.636-1.894c0.233-0.227,0.187-1.039-0.269-0.887
				c-3.301,1.105-5.914,2.783-9.478,3.307c-3.215,0.472-6.722-0.137-9.843-0.829C150.704,238.76,150.685,239.051,150.808,239.096
				L150.808,239.096z"/>
		</g>
	</g>
	<g>
		<g>
			<path style="fill:#361211;" d="M148.662,226.474c6.605,2.048,13.861-0.481,18.312-5.722c0.214-0.251,0.064-1.112-0.316-0.768
				c-5.211,4.704-10.812,7.447-17.988,6.374C148.622,226.352,148.621,226.461,148.662,226.474L148.662,226.474z"/>
		</g>
	</g>
	<g>
		<g>
			<path style="fill:#361211;" d="M146.929,214.415c5.086,2.355,13.971,1.768,17.892-2.719c0.185-0.21,0.188-1.034-0.258-0.851
				c-2.414,0.999-4.467,2.414-7.033,3.169c-3.292,0.968-7.253,1.117-10.571,0.211C146.863,214.2,146.856,214.382,146.929,214.415
				L146.929,214.415z"/>
		</g>
	</g>
	<g>
		<g>
			<path style="fill:#361211;" d="M146.565,272.926c3.711,8.57,19.459,7.567,25.14,1.826c0.553-0.559,0.174-2.454-0.717-1.736
				c-6.188,4.984-19.14,7.209-24.286-0.26C146.611,272.624,146.528,272.839,146.565,272.926L146.565,272.926z"/>
		</g>
	</g>
	<g>
		<g>
			<path style="fill:#361211;" d="M148.185,268.679c-6.76,0.703-6.676,7.724-6.003,13.078c0.078,0.62,0.731,0.375,0.702-0.162
				c-0.289-5.283-1.024-11.053,5.314-12.801C148.24,268.782,148.232,268.674,148.185,268.679L148.185,268.679z"/>
		</g>
	</g>
	<g>
		<g>
			<path style="fill:#361211;" d="M142.352,281.766c2.205,7.173,10.354,8.853,16.981,8.545c5.259-0.243,15.065-1.888,17.812-7.195
				c0.255-0.493-0.121-1.735-0.695-1.006c-3.557,4.523-10.772,5.889-16.134,6.427c-6.96,0.699-13.914-0.787-17.652-7.157
				C142.47,281.048,142.296,281.587,142.352,281.766L142.352,281.766z"/>
		</g>
	</g>
	<g>
		<g>
			<path style="fill:#361211;" d="M170.796,270.508c1.243,0.359,2.285,0.813,3.389,1.504c-0.088-0.301-0.176-0.602-0.265-0.902
				c-0.315,2.249-0.192,4.354,0.321,6.566c0.439,1.894,1.042,4.364,2.493,5.723c0.599,0.562,0.888-0.635,0.823-1.013
				c-0.243-1.417-0.961-2.669-1.469-4.009c-0.852-2.248-1.227-4.686-1.126-7.079c0.011-0.269-0.129-0.666-0.407-0.767
				c-1.321-0.476-2.334-0.7-3.73-0.484C170.641,270.075,170.615,270.456,170.796,270.508L170.796,270.508z"/>
		</g>
	</g>
	<g>
		<g>
			<path style="fill:#361211;" d="M143.497,271.777c-2.211,6.996,8.229,8.865,12.976,9.298c5.302,0.484,18.309-0.219,17.664-8.227
				c-0.032-0.402-0.469-0.398-0.436,0.012c0.942,11.715-33.394,10.088-30.091-0.987
				C143.636,271.789,143.536,271.654,143.497,271.777L143.497,271.777z"/>
		</g>
	</g>
	<g>
		<g>
			<path style="fill:#361211;" d="M204.572,300.545c-0.938-7.919-3.967-15.967-11.309-19.93c-2.694-1.454-5.848-1.974-8.826-2.506
				c-3.132-0.561-6.331-1.521-9.505-1.764c-0.514-0.039-0.461,0.952-0.178,1.17c4.091,3.147,10.314,2.821,15.11,4.234
				c8.979,2.646,11.698,10.911,13.924,19.146C204.012,301.72,204.647,301.183,204.572,300.545L204.572,300.545z"/>
		</g>
	</g>
	<g>
		<g>
			<path style="fill:#361211;" d="M142.4,276.886c-4.421,2.382-9.684,2.713-13.93,5.39c-5.722,3.606-7.801,12.315-7.546,18.572
				c0.019,0.449,0.578,0.941,0.772,0.297c2.047-6.799,2.248-14.479,9.479-17.913c3.946-1.874,8.198-2.177,11.569-5.212
				C143.044,277.751,142.928,276.602,142.4,276.886L142.4,276.886z"/>
		</g>
	</g>
</g>
</svg>
