<?xml version="1.0" encoding="iso-8859-1"?>
<!-- Generator: Adobe Illustrator 15.0.2, SVG Export Plug-In . SVG Version: 6.00 Build 0)  -->
<!DOCTYPE svg PUBLIC "-//W3C//DTD SVG 1.1//EN" "http://www.w3.org/Graphics/SVG/1.1/DTD/svg11.dtd">
<svg version="1.1" xmlns="http://www.w3.org/2000/svg" xmlns:xlink="http://www.w3.org/1999/xlink" x="0px" y="0px" width="300px"
	 height="300px" viewBox="0 0 300 300" style="enable-background:new 0 0 300 300;" xml:space="preserve">
<g id="color__x28_change_this_x29_">
	<path style="fill:#A6A8AB;" d="M207.601,270.973l-0.54-0.2c1.14-3.06,1.75-6.02,1.54-8.8c-0.88-7.92-6.99-12.94-14.75-15.99
		c-9.87-3.88-22.41-4.57-30.25-4.01c-9.23,0.58-22.78,2.15-33.18,6.83c-7.63,3.44-13.551,8.55-14.82,16.17
		c-0.24,1.65-0.19,3.28,0.07,4.88c0.319,1.88,0.93,3.73,1.76,5.56l-0.08,0.04c-6.77,3.87-16.11,15.7-16.71,25.52h7.69h8.64
		c1.26-5.4,4.1-7.24,8.59-10.83l0.91-0.91c2.87,3.9,5.61,7.78,7.18,11.74h8.48h35.79h11.109c2.471-4.67,6.23-9.93,9.801-15.31
		c5.489,2.79,12.329,7.43,13.029,15.31h11.221h5.71C227.591,287.343,220.36,276.863,207.601,270.973z"/>
</g>
<g id="shadow">
	<path style="opacity:0.3;" d="M208.601,261.973c0.21,2.78-0.4,5.74-1.54,8.8c-0.87,2.34-2.05,4.74-3.41,7.15
		c-0.35,0.61-0.7,1.22-1.06,1.83c0.569-6.88-3.71-11.64-10.66-14.75l0.89-0.15c2.12-1.7,5.511-4.66,4.66-7.63
		c-0.85-5.09-5.09-2.97-4.24-8.91c0-0.74,0.261-1.52,0.61-2.33C201.61,249.033,207.721,254.053,208.601,261.973z"/>
	<path style="opacity:0.3;" d="M198.831,285.663c-3.57,5.38-7.33,10.64-9.801,15.31h-11.109c2.59-6.65,7.06-13.07,10.229-19.16
		c2.12-5.09,7.21-11.45,3.4-16.96l0.01-0.01c0.13,0.05,0.25,0.11,0.37,0.16c6.95,3.11,11.229,7.87,10.66,14.75
		C201.41,281.723,200.131,283.703,198.831,285.663z"/>
	<path style="opacity:0.5;fill:#FFFFFF;" d="M142.131,300.973h-8.48c-1.569-3.96-4.31-7.84-7.18-11.74
		c-1.67-2.25-3.38-4.51-4.94-6.79c-1.59-2.31-3.02-4.65-4.1-7.03c-0.83-1.83-1.44-3.68-1.76-5.56c1.01-1.68,3.989-3.3,8.26-4.73
		c0.28,1.57,1.13,3.32,2.75,5.67C133.301,280.063,139.381,290.003,142.131,300.973z"/>
	<path style="opacity:0.5;fill:#FFFFFF;" d="M130.421,248.803c-1.141,2.08-2.271,4.19-3.32,6.3c-2.21,4.71-3.71,7.06-3.17,10.02
		c-4.271,1.43-7.25,3.05-8.26,4.73c-0.261-1.6-0.311-3.23-0.07-4.88C116.87,257.353,122.791,252.243,130.421,248.803z"/>
	<g id="XMLID_3_">
		<g>
			<path style="fill:#404041;" d="M206.051,277.703l-2.4,0.22c1.36-2.41,2.54-4.81,3.41-7.15l0.54,0.2
				c12.76,5.89,19.99,16.37,21.19,30h-5.71C220.711,292.353,214.681,279.283,206.051,277.703z"/>
			<path style="fill:#58595B;" d="M202.591,279.753c0.359-0.61,0.71-1.22,1.06-1.83l2.4-0.22c8.63,1.58,14.66,14.65,17.03,23.27
				H211.86c-0.7-7.88-7.54-12.52-13.029-15.31C200.131,283.703,201.41,281.723,202.591,279.753z"/>
			<path style="fill:#58595B;" d="M126.471,289.233l-0.91,0.91c-4.49,3.59-7.33,5.43-8.59,10.83h-8.64
				c1.22-7.39,5.649-14.14,12.409-17.89l0.79-0.64C123.091,284.723,124.801,286.983,126.471,289.233z"/>
			<path style="fill:#6D6E70;" d="M121.53,282.443l-0.79,0.64c-6.76,3.75-11.189,10.5-12.409,17.89h-7.69
				c0.6-9.82,9.94-21.65,16.71-25.52l0.08-0.04C118.511,277.793,119.94,280.133,121.53,282.443z"/>
		</g>
		<g>
		</g>
	</g>
</g>
<g id="outline">
	<g>
		<g>
			<path style="fill:#361211;" d="M135.078,303.759c-3.288-15.017-27.955-30.594-14.602-46.393
				c9.65-11.419,29.336-12.963,43.162-13.862c13.211-0.859,32.003,0.4,41.027,11.52c6.479,7.982,0.604,18.118-3.936,25.433
				c-4.584,7.388-11.231,14.449-13.979,22.798c-0.3,0.912,0.691,3.257,1.554,1.737c5.251-9.252,11.621-17.825,16.728-27.15
				c3.818-6.971,6.369-14.771,2.715-22.315c-6.816-14.068-29.033-15.701-42.506-15.182c-14.815,0.572-36.902,2.59-46.684,15.424
				c-13.6,17.846,10.752,32.895,15.619,48.6C134.449,305.241,135.21,304.364,135.078,303.759L135.078,303.759z"/>
		</g>
	</g>
	<g>
		<g>
			<path style="fill:#361211;" d="M115.713,270.136c2.922-4.802,12.516-5.987,17.359-6.932c9.825-1.915,19.945-2.595,29.943-2.479
				c9.371,0.107,19.115,0.978,27.919,4.39c8.093,3.137,11.885,8.303,10.61,16.938c-0.03,0.206,0.229,0.713,0.416,0.351
				c3.291-6.392-0.326-12.991-5.902-16.487c-8.175-5.125-19.1-5.959-28.479-6.337c-11.531-0.466-23.226,0.523-34.527,2.836
				c-5.076,1.038-14.599,2.375-17.564,7.395C115.39,269.977,115.564,270.38,115.713,270.136L115.713,270.136z"/>
		</g>
	</g>
	<g>
		<g>
			<path style="fill:#361211;" d="M207.492,271.28c5.418,3.687,10.471,6.861,14.433,12.236c4.204,5.704,4.726,11.885,6.47,18.434
				c0.164,0.615,0.881,0.709,0.939-0.023c1.029-12.776-9.497-27.695-21.68-31.294C207.338,270.54,207.287,271.141,207.492,271.28
				L207.492,271.28z"/>
		</g>
	</g>
	<g>
		<g>
			<path style="fill:#361211;" d="M198.378,285.51c0.343,1.379,1.28,1.712,2.459,2.495c1.665,1.106,3.276,2.188,4.786,3.507
				c1.842,1.61,3.289,3.578,4.303,5.798c0.924,2.022,0.609,4.206,1.432,6.208c0.266,0.645,0.85,0.538,1.107-0.026
				c1.568-3.428-0.862-8.178-2.869-10.956c-2.488-3.445-6.418-6.095-10.326-7.648c-0.166-0.066-0.359-0.017-0.484,0.109
				C198.805,284.977,198.328,285.311,198.378,285.51L198.378,285.51z"/>
		</g>
	</g>
	<g>
		<g>
			<path style="fill:#361211;" d="M117.267,275.059c-8.478,4.192-18.872,16.978-17.009,27.068c0.068,0.368,0.533,0.572,0.66,0.114
				c1.498-5.44,2.839-10.18,5.975-14.994c2.81-4.313,6.441-8.386,10.6-11.444C117.72,275.636,117.607,274.89,117.267,275.059
				L117.267,275.059z"/>
		</g>
	</g>
	<g>
		<g>
			<path style="fill:#361211;" d="M125.451,289.635c-2.461,1.51-4.894,3.235-6.702,5.513c-1.595,2.008-3.134,5.447-2.577,8.018
				c0.083,0.382,0.475,0.701,0.758,0.283c0.701-1.036,0.732-2.274,1.089-3.465c0.37-1.234,0.986-2.355,1.72-3.407
				c1.617-2.323,4.021-4.001,6.004-5.984C125.971,290.362,125.885,289.369,125.451,289.635L125.451,289.635z"/>
		</g>
	</g>
	<g>
		<g>
			<path style="fill:#361211;" d="M108.551,282.954c-0.182,1.688,1.992,3.714,2.939,4.865c1.984,2.411,4.874,5.834,8.037,6.627
				c0.434,0.109,0.525-0.711,0.225-0.898c-2.528-1.572-4.719-3.111-6.816-5.26c-1.407-1.442-3.469-3.455-4.291-5.355
				C108.619,282.874,108.557,282.895,108.551,282.954L108.551,282.954z"/>
		</g>
	</g>
	<g>
		<g>
			<path style="fill:#361211;" d="M102.588,297.007c3.07,2.55,7.391,4.938,11.376,5.47c0.274,0.037,0.226-0.523,0.039-0.615
				c-1.935-0.95-4.233-1.287-6.271-2.05c-1.851-0.694-3.535-1.699-5.119-2.873C102.578,296.914,102.564,296.987,102.588,297.007
				L102.588,297.007z"/>
		</g>
	</g>
	<g>
		<g>
			<path style="fill:#361211;" d="M208.129,292.632c1.611-6.127,6.098-9.956,11.923-12.047c0.385-0.139,0.259-1.093-0.193-0.938
				c-5.78,1.984-11.197,6.434-12.015,12.811C207.82,292.64,208.056,292.91,208.129,292.632L208.129,292.632z"/>
		</g>
	</g>
	<g>
		<g>
			<path style="fill:#361211;" d="M211.666,300.292c4.645-2.579,9.559-4.458,14.953-3.576c0.619,0.101,0.627-1.376-0.037-1.484
				c-5.318-0.869-11.074,0.886-15.099,4.458C211.322,299.833,211.391,300.445,211.666,300.292L211.666,300.292z"/>
		</g>
	</g>
	<g>
		<g id="XMLID_36_">
			<g>
				<path style="fill:#58595B;" d="M168.178,238.915c1.02,6.63,3.569,11.74-3.58,14.8c-1.12,0.56-2.29,0.9-3.47,1.05
					c5.359-15.46-1.33-33.37-2.08-49.28l7.55-0.26C166.598,216.464,166.647,228.185,168.178,238.915z"/>
				<path style="fill:#6D6E70;" d="M159.048,205.484c0.75,15.91,7.439,33.82,2.08,49.28c-4.2,0.57-8.551-1.2-11.341-3.6
					c-2.04-11.74-2.04-33.04-2.04-45.3L159.048,205.484z"/>
			</g>
			<g>
			</g>
		</g>
		<g>
			<g>
				<path style="fill:#361211;" d="M148.757,240.006c6.558,3.667,13.722,2.283,19.556-1.784c0.238-0.166,0.127-0.796-0.215-0.709
					c-2.49,0.636-4.234,2.621-6.736,3.409c-4.23,1.334-8.548,0.36-12.581-1.066C148.705,239.829,148.703,239.977,148.757,240.006
					L148.757,240.006z"/>
			</g>
		</g>
		<g>
			<g>
				<path style="fill:#361211;" d="M147.738,225.689c5.498,2.102,14.51,4.479,19.028-0.777c0.13-0.151,0.097-0.831-0.194-0.638
					c-5.891,3.916-12.277,3.367-18.816,1.302C147.701,225.558,147.693,225.671,147.738,225.689L147.738,225.689z"/>
			</g>
		</g>
		<g>
			<g>
				<path style="fill:#361211;" d="M147.732,214.492c5.904,2.615,14.383,2.396,19.518-1.904c0.142-0.118,0.094-0.589-0.15-0.496
					c-6.703,2.554-12.125,4.467-19.338,2.211C147.669,214.273,147.659,214.459,147.732,214.492L147.732,214.492z"/>
			</g>
		</g>
		<g>
			<g>
				<path style="fill:#361211;" d="M147.619,205.869c-0.471,10.33-0.282,20.742,0.158,31.07c0.191,4.494,0.536,8.977,1.175,13.43
					c0.493,3.437,5.323,4.746,8.218,5.4c6.593,1.492,13.791-2.896,12.975-9.987c-0.689-5.989-1.916-11.852-2.407-17.891
					c-0.614-7.539-0.52-15.12-0.603-22.677c-0.003-0.293-0.171-0.827-0.555-0.801c-6.27,0.418-12.559,1.044-18.838,1.257
					c-0.174,0.006-0.164,0.396,0.01,0.391c5.58-0.189,11.196-0.012,16.779-0.018c2.039-0.002,1.531-0.461,1.516,1.074
					c-0.039,3.787,0.01,7.578,0.072,11.365c0.113,6.931,0.394,13.882,1.323,20.756c0.36,2.665,1.136,5.231,1.259,7.932
					c0.228,4.986-6.295,6.536-9.934,6.557c-3.158,0.018-8.145-1.626-8.674-5.091c-0.448-2.932-0.705-5.895-0.953-8.85
					c-0.95-11.293-0.748-22.616-1.266-33.924C147.864,205.62,147.63,205.632,147.619,205.869z"/>
			</g>
		</g>
	</g>
	<g>
		<g>
			<path style="fill:#361211;" d="M121.415,272.892c-0.049,0.108-0.043,0.092,0.018-0.05c-0.372,0.623-0.369,2.378,0.702,2.352
				c1.107-0.027,0.937-1.769,0.586-2.383c0.074,0.139,0.087,0.155,0.036,0.049C122.412,272.1,121.74,272.19,121.415,272.892
				L121.415,272.892z"/>
		</g>
	</g>
	<g>
		<g>
			<path style="fill:#361211;" d="M131.415,268.892c-0.049,0.108-0.043,0.092,0.018-0.05c-0.372,0.623-0.369,2.378,0.702,2.352
				c1.107-0.027,0.937-1.769,0.586-2.383c0.074,0.139,0.087,0.155,0.036,0.049C132.412,268.1,131.74,268.19,131.415,268.892
				L131.415,268.892z"/>
		</g>
	</g>
	<g>
		<g>
			<path style="fill:#361211;" d="M143.415,266.892c-0.049,0.108-0.043,0.092,0.018-0.05c-0.372,0.623-0.369,2.378,0.702,2.352
				c1.107-0.027,0.937-1.769,0.586-2.383c0.074,0.139,0.087,0.155,0.036,0.049C144.412,266.1,143.74,266.19,143.415,266.892
				L143.415,266.892z"/>
		</g>
	</g>
	<g>
		<g>
			<path style="fill:#361211;" d="M155.415,266.392c-0.049,0.108-0.043,0.092,0.018-0.05c-0.372,0.623-0.369,2.378,0.702,2.352
				c1.107-0.027,0.937-1.769,0.586-2.383c0.074,0.139,0.087,0.155,0.036,0.049C156.412,265.6,155.74,265.69,155.415,266.392
				L155.415,266.392z"/>
		</g>
	</g>
	<g>
		<g>
			<path style="fill:#361211;" d="M169.915,266.392c-0.049,0.108-0.043,0.092,0.018-0.05c-0.372,0.623-0.369,2.378,0.702,2.352
				c1.107-0.027,0.937-1.769,0.586-2.383c0.074,0.139,0.087,0.155,0.036,0.049C170.912,265.6,170.24,265.69,169.915,266.392
				L169.915,266.392z"/>
		</g>
	</g>
	<g>
		<g>
			<path style="fill:#361211;" d="M182.415,269.392c-0.049,0.108-0.043,0.092,0.018-0.05c-0.372,0.623-0.369,2.378,0.702,2.352
				c1.107-0.027,0.937-1.769,0.586-2.383c0.074,0.139,0.087,0.155,0.036,0.049C183.412,268.6,182.74,268.69,182.415,269.392
				L182.415,269.392z"/>
		</g>
	</g>
	<g>
		<g>
			<path style="fill:#361211;" d="M193.915,273.892c-0.049,0.108-0.043,0.092,0.018-0.05c-0.372,0.623-0.369,2.378,0.702,2.352
				c1.107-0.027,0.937-1.769,0.586-2.383c0.074,0.139,0.087,0.155,0.036,0.049C194.912,273.1,194.24,273.19,193.915,273.892
				L193.915,273.892z"/>
		</g>
	</g>
</g>
</svg>
