<?xml version="1.0" encoding="iso-8859-1"?>
<!-- Generator: Adobe Illustrator 15.0.2, SVG Export Plug-In . SVG Version: 6.00 Build 0)  -->
<!DOCTYPE svg PUBLIC "-//W3C//DTD SVG 1.1//EN" "http://www.w3.org/Graphics/SVG/1.1/DTD/svg11.dtd">
<svg version="1.1" xmlns="http://www.w3.org/2000/svg" xmlns:xlink="http://www.w3.org/1999/xlink" x="0px" y="0px" width="300px"
	 height="300px" viewBox="0 0 300 300" style="enable-background:new 0 0 300 300;" xml:space="preserve">
<g id="color__x28_change_this_x29_">
	<path style="fill:#A6A8AB;" d="M259.986,275.864c-2.34-1.06-4.73-1.859-7.01-2.439l0.03-0.12c-9.6-9.1-19.2-19.72-34.74-27.37
		c-15.21-7.479-36.11-12.1-68.26-9.63c-26.8,2.06-60.45,15.54-75.33,40.03c-4.44,0.189-8.67,1.34-12.46,3.239
		c-8.25,4.11-14.41,11.75-16.04,20.73h8.4h12.52h10.22h15.12h10.42h11.15h4h48.1h5.9h13h18.66h26.16h33.56h13.62
		C277.006,287.375,268.786,279.814,259.986,275.864z"/>
</g>
<g id="shadow">
	<path style="opacity:0.45;" d="M277.006,300.305h-13.62c1.59-9.03,0.72-18.46-3.4-24.44
		C268.786,279.814,277.006,287.375,277.006,300.305z"/>
	<path style="opacity:0.3;" d="M259.986,275.864c4.12,5.98,4.99,15.41,3.4,24.44h-33.56c-3.61-11.77,3.21-27.62,16.7-27.99
		c1.94,0.17,4.14,0.521,6.45,1.11C255.256,274.005,257.646,274.805,259.986,275.864z"/>
	<path style="opacity:0.3;" d="M246.526,272.314c-13.49,0.37-20.31,16.221-16.7,27.99h-26.16c-2.86-20.98,18.02-37.79,14.6-54.37
		c15.54,7.65,25.14,18.271,34.74,27.37l-0.03,0.12C250.667,272.835,248.466,272.484,246.526,272.314z"/>
	<path style="opacity:0.3;fill:#FFFFFF;" d="M185.006,300.305h-13c-17-24-51-17-58,0h-11.15l0.15-1
		C112.006,267.305,174.006,265.305,185.006,300.305z"/>
	<path style="opacity:0.3;" d="M172.006,300.305h-5.9c-12.12-13.13-32.49-15.61-48.1,0h-4
		C121.006,283.305,155.006,276.305,172.006,300.305z"/>
	<path style="fill:#F9EC31;" d="M166.106,300.305h-48.1C133.616,284.694,153.986,287.175,166.106,300.305z"/>
	<path style="opacity:0.5;fill:#FFFFFF;" d="M96.006,268.305c22.24-9.79,0.16,10.51-3.57,32h-15.12
		C78.946,288.074,85.526,272.345,96.006,268.305z"/>
	<path style="opacity:0.3;" d="M74.676,276.335c-4.3,7.069-7.04,15.069-7.58,23.97h-12.52c4.57-7.97,11.37-14.38,7.64-20.73
		C66.006,277.675,70.236,276.524,74.676,276.335z"/>
	<path style="opacity:0.3;fill:#FFFFFF;" d="M62.216,279.574c3.73,6.351-3.07,12.761-7.64,20.73h-8.4
		C47.806,291.324,53.966,283.685,62.216,279.574z"/>
</g>
<g id="outline">
	<g>
		<g>
			<path style="fill:#361211;" d="M67.106,302.344c1.352-10.111,4.165-19.404,9.95-27.898c5.901-8.666,14.275-15.511,23.151-20.936
				c18.365-11.225,39.361-15.617,60.637-16.226c20.634-0.59,41.846,2.031,60.232,11.929c6.398,3.444,12.214,7.863,17.66,12.648
				c4.675,4.107,8.818,8.911,13.876,12.55c1.089,0.783,1.505-1.355,0.961-2.019c-8.473-10.307-19.528-19.546-31.135-26.091
				c-18.147-10.233-39.463-12.648-59.957-12.194c-37.225,0.825-88.691,17.674-95.296,60.356c-0.4,2.588-0.435,5.237-0.282,7.844
				C66.913,302.457,67.083,302.525,67.106,302.344L67.106,302.344z"/>
		</g>
	</g>
	<g>
		<g>
			<path style="fill:#361211;" d="M75.997,275.914c-8.09-1.112-15.911,2.552-21.839,7.879c-4.222,3.793-9.946,11.701-8.604,17.715
				c0.094,0.418,0.489,0.724,0.801,0.3c1.736-2.365,1.94-5.776,3.262-8.46c1.558-3.165,3.895-5.861,6.456-8.248
				c5.562-5.182,12.688-7.056,19.944-8.404C76.364,276.631,76.346,275.962,75.997,275.914L75.997,275.914z"/>
		</g>
	</g>
	<g>
		<g>
			<path style="fill:#361211;" d="M241.942,272.721c2.436,1,5.51,0.837,8.104,1.312c3.945,0.721,7.747,2.072,11.333,3.851
				c4.068,2.017,7.627,4.945,10.36,8.562c3.381,4.474,3.055,9.313,4.878,14.224c0.162,0.438,0.654,0.42,0.797-0.02
				c2.952-9.096-5.815-19.339-12.838-23.751c-3.814-2.396-8.111-3.943-12.48-4.959c-2.95-0.685-7.446-1.744-10.174-0.047
				C241.667,272.05,241.63,272.593,241.942,272.721L241.942,272.721z"/>
		</g>
	</g>
	<g>
		<g>
			<path style="fill:#361211;" d="M247.015,272.248c-6.317-3.197-13.934,4.908-16.312,9.988c-2.843,6.074-4.611,15.794,0.059,21.461
				c0.363,0.441,0.666-0.194,0.587-0.547c-1.481-6.596-2.354-12.264,0.228-18.767c1.401-3.531,3.955-6.551,7.081-8.667
				c2.587-1.751,5.761-1.818,8.36-3.355C247.055,272.339,247.055,272.268,247.015,272.248L247.015,272.248z"/>
		</g>
	</g>
	<g>
		<g>
			<path style="fill:#361211;" d="M103.391,299.631c6.576-16.379,22.324-23.557,39.385-23.942
				c8.575-0.193,17.197,1.705,24.823,5.631c8.361,4.305,13.273,11.051,16.854,19.502c0.467,1.1,1.376,0.006,1.177-0.797
				c-4.496-18.148-25.022-26.204-41.894-26.352c-16.036-0.139-37.467,7.742-41.155,25.466
				C102.467,299.688,103.096,300.364,103.391,299.631L103.391,299.631z"/>
		</g>
	</g>
	<g>
		<g>
			<path style="fill:#361211;" d="M114.091,300.427c4.845-9.332,14.491-13.895,24.631-14.931
				c13.054-1.334,25.365,4.809,33.005,15.258c0.448,0.612,0.871-0.475,0.559-0.898c-7.977-10.812-20.182-16.458-33.589-15.401
				c-9.735,0.767-21.196,6.052-24.792,15.765C113.863,300.332,113.998,300.607,114.091,300.427L114.091,300.427z"/>
		</g>
	</g>
	<g>
		<g>
			<path style="fill:#361211;" d="M111.909,291.929c0.145,0.035,0.289,0.071,0.434,0.106c-0.102-0.113-0.202-0.227-0.304-0.339
				c0.159,0.461,0.396,1.127,1.005,1.112c0.716-0.018,0.964-0.964,0.95-1.528c-0.013-0.522-0.22-1.221-0.761-1.432
				c-0.716-0.28-1.052,0.573-1.213,1.086c0.096-0.118,0.191-0.236,0.287-0.354c-0.143,0.035-0.286,0.07-0.429,0.105
				C111.444,290.793,111.489,291.826,111.909,291.929L111.909,291.929z"/>
		</g>
	</g>
	<g>
		<g>
			<path style="fill:#361211;" d="M124.909,284.929c0.145,0.035,0.289,0.071,0.434,0.106c-0.102-0.113-0.202-0.227-0.304-0.339
				c0.159,0.461,0.396,1.127,1.005,1.112c0.716-0.018,0.964-0.964,0.95-1.528c-0.013-0.522-0.22-1.221-0.761-1.432
				c-0.716-0.28-1.052,0.573-1.213,1.086c0.096-0.118,0.191-0.236,0.287-0.354c-0.143,0.035-0.286,0.07-0.429,0.105
				C124.444,283.793,124.489,284.826,124.909,284.929L124.909,284.929z"/>
		</g>
	</g>
	<g>
		<g>
			<path style="fill:#361211;" d="M146.909,280.929c0.145,0.035,0.289,0.071,0.434,0.106c-0.102-0.113-0.202-0.227-0.304-0.339
				c0.159,0.461,0.396,1.127,1.005,1.112c0.716-0.018,0.964-0.964,0.95-1.528c-0.013-0.522-0.22-1.221-0.761-1.432
				c-0.716-0.28-1.052,0.573-1.213,1.086c0.096-0.118,0.191-0.236,0.287-0.354c-0.143,0.035-0.286,0.07-0.429,0.105
				C146.444,279.793,146.489,280.826,146.909,280.929L146.909,280.929z"/>
		</g>
	</g>
	<g>
		<g>
			<path style="fill:#361211;" d="M168.909,289.929c0.145,0.035,0.289,0.071,0.434,0.106c-0.102-0.113-0.202-0.227-0.304-0.339
				c0.159,0.461,0.396,1.127,1.005,1.112c0.716-0.018,0.964-0.964,0.95-1.528c-0.013-0.522-0.22-1.221-0.761-1.432
				c-0.716-0.28-1.052,0.573-1.213,1.086c0.096-0.118,0.191-0.236,0.287-0.354c-0.143,0.035-0.286,0.07-0.429,0.105
				C168.444,288.793,168.489,289.826,168.909,289.929L168.909,289.929z"/>
		</g>
	</g>
	<g>
		<g>
			<path style="fill:#361211;" d="M118.096,300.521c7.185-6.807,15.917-10.873,25.921-10.518
				c9.592,0.341,15.973,5.692,22.923,11.488c0.181,0.15,0.236-0.232,0.162-0.342c-4.723-6.966-13.689-10.953-21.798-11.941
				c-10.423-1.271-20.136,3.78-27.388,10.879C117.77,300.231,117.896,300.711,118.096,300.521L118.096,300.521z"/>
		</g>
	</g>
	<g>
		<g id="XMLID_8_">
			<g>
				<path style="fill:#58595B;" d="M167.583,233.246c1.02,6.63,3.57,11.74-3.58,14.8c-1.12,0.56-2.29,0.9-3.47,1.05
					c5.36-15.46-1.33-33.37-2.08-49.279l7.55-0.261C166.003,210.796,166.053,222.516,167.583,233.246z"/>
				<path style="fill:#6D6E70;" d="M158.453,199.816c0.75,15.909,7.44,33.819,2.08,49.279c-4.2,0.57-8.55-1.2-11.34-3.6
					c-2.04-11.74-2.04-33.04-2.04-45.3L158.453,199.816z"/>
			</g>
			<g>
			</g>
		</g>
		<g>
			<g>
				<path style="fill:#361211;" d="M148.163,234.338c6.558,3.667,13.721,2.283,19.556-1.784c0.238-0.166,0.128-0.796-0.215-0.709
					c-2.491,0.636-4.234,2.621-6.736,3.409c-4.23,1.334-8.548,0.36-12.581-1.066C148.111,234.16,148.11,234.309,148.163,234.338
					L148.163,234.338z"/>
			</g>
		</g>
		<g>
			<g>
				<path style="fill:#361211;" d="M147.144,220.021c5.497,2.102,14.51,4.479,19.028-0.777c0.13-0.151,0.097-0.831-0.193-0.638
					c-5.892,3.916-12.278,3.367-18.817,1.302C147.107,219.89,147.098,220.003,147.144,220.021L147.144,220.021z"/>
			</g>
		</g>
		<g>
			<g>
				<path style="fill:#361211;" d="M147.138,208.823c5.904,2.615,14.383,2.396,19.518-1.904c0.142-0.118,0.094-0.589-0.151-0.496
					c-6.703,2.554-12.124,4.467-19.337,2.211C147.075,208.604,147.065,208.791,147.138,208.823L147.138,208.823z"/>
			</g>
		</g>
		<g>
			<g>
				<path style="fill:#361211;" d="M147.025,200.2c-0.471,10.33-0.282,20.742,0.158,31.07c0.191,4.494,0.536,8.977,1.175,13.43
					c0.492,3.437,5.323,4.746,8.219,5.4c6.592,1.492,13.791-2.896,12.975-9.987c-0.689-5.989-1.917-11.852-2.408-17.891
					c-0.614-7.539-0.52-15.12-0.603-22.677c-0.003-0.293-0.171-0.827-0.554-0.801c-6.27,0.418-12.56,1.044-18.839,1.257
					c-0.175,0.006-0.164,0.396,0.01,0.391c5.58-0.189,11.196-0.012,16.779-0.018c2.039-0.002,1.531-0.461,1.516,1.074
					c-0.039,3.787,0.01,7.578,0.072,11.365c0.114,6.931,0.394,13.882,1.323,20.756c0.36,2.665,1.136,5.231,1.259,7.932
					c0.228,4.986-6.294,6.536-9.933,6.557c-3.159,0.018-8.146-1.626-8.675-5.091c-0.448-2.932-0.705-5.895-0.953-8.85
					c-0.95-11.293-0.748-22.616-1.266-33.924C147.27,199.951,147.036,199.964,147.025,200.2z"/>
			</g>
		</g>
	</g>
</g>
</svg>
