<?xml version="1.0" encoding="iso-8859-1"?>
<!-- Generator: Adobe Illustrator 15.0.2, SVG Export Plug-In . SVG Version: 6.00 Build 0)  -->
<!DOCTYPE svg PUBLIC "-//W3C//DTD SVG 1.1//EN" "http://www.w3.org/Graphics/SVG/1.1/DTD/svg11.dtd">
<svg version="1.1" xmlns="http://www.w3.org/2000/svg" xmlns:xlink="http://www.w3.org/1999/xlink" x="0px" y="0px" width="300px"
	 height="300px" viewBox="0 0 300 300" style="enable-background:new 0 0 300 300;" xml:space="preserve">
<g id="color__x28_change_this_x29_">
	<path style="fill:#A6A8AB;" d="M202.061,272.339c6.771-10.13,4.41-28.44-12.41-24.91c-0.189,0.04-0.399,0.08-0.6,0.14
		c-3.08,0.19-5.64,1.72-7.57,4.02c-9.5-0.06-22.619-0.77-32.53,2.96l-0.32-1.95c-3.48-1.65-6.86-1.89-9.93-1.16
		c-10.27,2.4-17.08,15.58-12.59,22.69c0.94,1.5,2.38,2.72,4.4,3.53c-0.99,8.11-3.93,15.58-7.74,22.94h12.76h7.57h24.94h16.18
		c-2.26-10.09-6.91-18.25,3.41-22l0.09-0.33c1.23,0.31,2.42,0.45,3.54,0.44c4.42,7.75,7.89,11.88,7.49,21.89h5.68h7.11
		C210.961,290.199,207.331,281.249,202.061,272.339z"/>
</g>
<g id="shadow">
	<path style="opacity:0.45;" d="M191.261,278.708c-1.12,0.01-2.31-0.13-3.54-0.44c-0.68-0.17-1.38-0.39-2.09-0.67
		c-0.81-0.32-1.55-0.71-2.23-1.17c7.301-0.36,13.2-3.7,14.721-12.07c1.63-7.29-1.32-14.21-8.13-16.8
		c-0.11-0.05-0.221-0.09-0.341-0.13c16.82-3.53,19.181,14.78,12.41,24.91c-1.5,2.27-3.47,4.13-5.84,5.24
		C194.721,278.289,193.071,278.688,191.261,278.708z"/>
	<path style="opacity:0.3;" d="M189.051,247.569c0.311-0.02,0.62-0.03,0.94-0.01c6.81,2.59,9.76,9.51,8.13,16.8
		c-1.521,8.37-7.42,11.71-14.721,12.07c-7.569-5.02-7.52-17.44-2.39-24.24c0.521-0.22,1.061-0.41,1.62-0.59
		c-0.38,0-0.76,0-1.15-0.01C183.411,249.289,185.971,247.759,189.051,247.569z"/>
	<path style="opacity:0.3;" d="M189.991,247.559c-0.32-0.02-0.63-0.01-0.94,0.01c0.2-0.06,0.41-0.1,0.6-0.14
		C189.771,247.469,189.881,247.509,189.991,247.559z"/>
	<path style="opacity:0.3;" d="M183.4,276.429c0.681,0.46,1.421,0.85,2.23,1.17c0.71,0.28,1.41,0.5,2.09,0.67l-0.09,0.33
		c-10.32,3.75-5.67,11.91-3.41,22h-16.18c-2.18-14.91-5.33-41.1,12.97-48.41C175.881,258.989,175.831,271.409,183.4,276.429z"/>
	<path style="opacity:0.3;" d="M142.141,258.339c-1.79,1.43-3.32,3.17-4.51,5.26c-1.93,3.87-2.67,9.24-2.84,15h-0.16
		c-1.58-0.15-2.95-0.47-4.12-0.94c-2.02-0.81-3.46-2.03-4.4-3.53c6.04-3.16,2.81-8.79,6.05-13.65c1.38-2.06,8.48-6.3,6.54-9.04
		c3.07-0.73,6.45-0.49,9.93,1.16l0.32,1.95C146.441,255.499,144.131,256.729,142.141,258.339z"/>
	<path style="opacity:0.5;fill:#FFFFFF;" d="M143.101,300.599h-7.57c-0.26-6.4-0.98-14.54-0.74-22c0.17-5.76,0.91-11.13,2.84-15
		c1.19-2.09,2.72-3.83,4.51-5.26c8.94,2.18-0.92,11.2-1.79,16.8C138.741,283.619,141.671,292.108,143.101,300.599z"/>
	<path style="opacity:0.3;fill:#FFFFFF;" d="M138.701,251.438c1.94,2.74-5.16,6.98-6.54,9.04c-3.24,4.86-0.01,10.49-6.05,13.65
		C121.621,267.019,128.431,253.839,138.701,251.438z"/>
	<g id="XMLID_2_">
		<g>
			<path style="fill:#404041;" d="M211.541,300.599h-7.11c-0.8-8.57-4.149-15.47-8.21-23.02c2.37-1.11,4.34-2.97,5.84-5.24
				C207.331,281.249,210.961,290.199,211.541,300.599z"/>
			<path style="fill:#58595B;" d="M204.431,300.599h-5.68c0.399-10.01-3.07-14.14-7.49-21.89c1.811-0.02,3.46-0.42,4.96-1.13
				C200.281,285.128,203.631,292.029,204.431,300.599z"/>
			<path style="fill:#929497;" d="M189.991,247.559c-0.32-0.02-0.63-0.01-0.94,0.01c0.2-0.06,0.41-0.1,0.6-0.14
				C189.771,247.469,189.881,247.509,189.991,247.559z"/>
			<path style="fill:#A6A8AB;" d="M181.48,251.589c0.391,0.01,0.771,0.01,1.15,0.01c-0.56,0.18-1.1,0.37-1.62,0.59
				C181.161,251.989,181.311,251.789,181.48,251.589z"/>
			<path style="fill:#6D6E70;" d="M135.531,300.599h-12.76c3.81-7.36,6.75-14.83,7.74-22.94c1.17,0.47,2.54,0.79,4.12,0.94h0.16
				C134.551,286.059,135.271,294.199,135.531,300.599z"/>
		</g>
		<g>
		</g>
	</g>
</g>
<g id="outline">
	<g>
		<g>
			<path style="fill:#361211;" d="M135.743,304.643c0.89-13.914-5.439-35.002,6.636-45.375c5.673-4.873,14.043-5.916,21.203-6.42
				c6.056-0.427,13.386,1.17,19.196-0.537c0.503-0.147,0.445-1.287-0.035-1.431c-2.898-0.866-6.188-0.508-9.186-0.517
				c-4.197-0.013-8.387,0.122-12.565,0.521c-7.225,0.691-14.582,2.573-20.155,7.434c-5.397,4.706-6.219,12.149-6.589,18.868
				c-0.502,9.121,0.534,18.333,1.267,27.415C135.529,304.765,135.73,304.851,135.743,304.643L135.743,304.643z"/>
		</g>
	</g>
	<g>
		<g>
			<path style="fill:#361211;" d="M187.616,277.993c-4.809,0.401-7.109,4.07-7.392,8.558c-0.163,2.59,0.638,5.309,1.269,7.783
				c0.727,2.842,1.152,6.313,2.832,8.756c0.29,0.421,0.685,0.051,0.742-0.32c0.603-3.824-1.276-7.891-2.211-11.565
				c-0.547-2.152-0.977-4.418-0.412-6.616c0.66-2.563,3.464-3.981,5.4-5.472C188.134,278.894,188.099,277.953,187.616,277.993
				L187.616,277.993z"/>
		</g>
	</g>
	<g>
		<g>
			<path style="fill:#361211;" d="M168.79,304.527c-1.186-9.42-2.302-18.75-1.555-28.257c0.396-5.026,1.583-10.002,4.053-14.422
				c2.812-5.035,7.25-6.489,11.591-9.648c0.367-0.268,0.28-1.305-0.265-1.305c-4.559,0-8.816,4.304-11.328,7.734
				c-3.145,4.294-4.454,9.79-5.141,14.972c-1.366,10.332,0.666,20.894,2.326,31.068C168.526,305.008,168.823,304.787,168.79,304.527
				L168.79,304.527z"/>
		</g>
	</g>
	<g>
		<g>
			<path style="fill:#361211;" d="M194.675,248.315c-11.699-4.743-18.547,6.218-17.994,16.975
				c0.529,10.295,10.939,18.319,20.699,13.062c7.404-3.988,10.085-14.213,8.701-21.957c-1.691-9.456-12.698-14.173-20.732-8.48
				c-0.418,0.296-0.318,1.499,0.302,1.485c4.21-0.098,7.874-1.736,12.1-0.421c3.169,0.986,5.202,3.643,6.267,6.659
				c2.314,6.563-0.545,14.974-5.772,19.298c-7.139,5.905-17.514,0.881-19.63-7.397c-2.456-9.607,4.91-22.463,15.973-18.656
				C194.858,248.976,194.9,248.406,194.675,248.315L194.675,248.315z"/>
		</g>
	</g>
	<g>
		<g>
			<path style="fill:#361211;" d="M149.554,253.603c-8.648-5.819-19.539-1.602-23.999,7.263c-4.021,7.992-0.543,16.736,8.112,19.138
				c1.387,0.386,1.625-2.525,0.441-2.836c-8.522-2.237-10.823-9.73-6.367-17.062c4.897-8.059,13.566-8.326,21.596-5.64
				C149.754,254.604,149.823,253.784,149.554,253.603L149.554,253.603z"/>
		</g>
	</g>
	<g>
		<g>
			<path style="fill:#361211;" d="M201.425,271.791c2.35,4.906,4.791,9.719,6.619,14.853c2.006,5.631,1.916,11.399,3.232,17.114
				c0.119,0.52,0.615,0.494,0.717-0.018c2.095-10.587-4.148-24.062-10.196-32.408C201.544,270.983,201.312,271.554,201.425,271.791
				L201.425,271.791z"/>
		</g>
	</g>
	<g>
		<g>
			<path style="fill:#361211;" d="M190.371,277.842c1.488,3.71,3.655,7.075,5.37,10.679c2.158,4.533,2.172,9.199,2.133,14.097
				c-0.008,1.14,1.333,1.573,1.494,0.27c1.193-9.696-2.664-18.114-8.527-25.625C190.497,276.822,190.251,277.544,190.371,277.842
				L190.371,277.842z"/>
		</g>
	</g>
	<g>
		<g>
			<path style="fill:#361211;" d="M199.685,297.861c3.633-1.744,7.052-1.905,10.965-1.501c0.635,0.065,0.618-1.323,0.096-1.499
				c-3.896-1.316-8.113,0.035-11.211,2.504C199.391,297.479,199.452,297.973,199.685,297.861L199.685,297.861z"/>
		</g>
	</g>
	<g>
		<g>
			<path style="fill:#361211;" d="M194.575,283.465c-0.741,0.821,2.893-0.018,3.072-0.057c1.639-0.361,3.279-0.72,4.896-1.172
				c1.11-0.311,2.365-0.455,3.279-1.17c0.227-0.177,0.217-0.651,0.052-0.86c-0.968-1.23-3.755,0.312-4.846,0.719
				c-1.305,0.486-2.565,1.139-3.843,1.693c-0.604,0.263-2.217,0.733-2.48,1.089C194.769,283.622,194.683,283.347,194.575,283.465
				L194.575,283.465z"/>
		</g>
	</g>
	<g>
		<g>
			<path style="fill:#361211;" d="M130.574,276.551c-1.271,4.984-2.511,9.9-4.398,14.695c-1.755,4.458-4.928,8.53-5.82,13.245
				c-0.044,0.236,0.13,0.698,0.426,0.475c3.439-2.591,5.152-8.73,6.675-12.635c1.959-5.022,3.289-10.324,3.237-15.734
				C130.694,276.526,130.6,276.45,130.574,276.551L130.574,276.551z"/>
		</g>
	</g>
	<g>
		<g>
			<path style="fill:#361211;" d="M127.635,287.755c2.592,0.354,4.65,1.04,6.52,2.93c0.384,0.387,0.649-0.617,0.327-0.92
				c-2.012-1.889-4.109-2.643-6.855-2.322C127.485,287.459,127.498,287.736,127.635,287.755L127.635,287.755z"/>
		</g>
	</g>
	<g>
		<g>
			<path style="fill:#361211;" d="M123.548,299.14c3.246-0.104,5.936,0.989,8.06,3.436c0.799,0.921,1.326-0.751,0.873-1.402
				c-2.106-3.029-5.625-4.006-8.999-2.607C123.284,298.648,123.3,299.147,123.548,299.14L123.548,299.14z"/>
		</g>
	</g>
	<g>
		<g id="XMLID_46_">
			<g>
				<path style="fill:#58595B;" d="M166.938,245.964c0.832,5.409,2.912,9.578-2.921,12.074c-1.044,0.522-2.146,0.808-3.247,0.906
					c5.148-17.736-0.693-51.959-1.288-67.255l6.167-0.212C165.648,200.646,165.689,237.21,166.938,245.964z"/>
				<path style="fill:#6D6E70;" d="M159.481,191.688c0.595,15.296,6.437,49.52,1.288,67.255c-3.296,0.293-6.648-1.11-8.835-2.986
					c-1.664-9.578-1.664-53.958-1.664-63.959L159.481,191.688z"/>
			</g>
			<g>
			</g>
		</g>
		<g>
			<g>
				<path style="fill:#361211;" d="M151.09,246.865c5.169,3.015,11.401,2.048,15.98-1.408c0.177-0.133,0.159-0.789-0.147-0.725
					c-1.773,0.371-2.891,1.798-4.549,2.473c-3.735,1.522-7.604,0.721-11.261-0.49C151.036,246.688,151.038,246.836,151.09,246.865
					L151.09,246.865z"/>
			</g>
		</g>
		<g>
			<g>
				<path style="fill:#361211;" d="M150.259,235.182c4.408,1.719,11.976,3.803,15.548-0.589c0.12-0.147,0.113-0.827-0.194-0.639
					c-4.941,3.041-9.884,2.796-15.336,1.114C150.222,235.051,150.214,235.164,150.259,235.182L150.259,235.182z"/>
			</g>
		</g>
		<g>
			<g>
				<path style="fill:#361211;" d="M150.253,226.055c4.716,2.158,11.895,2.103,15.943-1.529c0.138-0.124,0.1-0.579-0.15-0.496
					c-2.481,0.83-4.602,2.017-7.229,2.514c-2.848,0.538-5.787,0.142-8.535-0.678C150.188,225.837,150.181,226.021,150.253,226.055
					L150.253,226.055z"/>
			</g>
		</g>
		<g>
			<g>
				<path style="fill:#361211;" d="M150.253,215.055c4.716,2.158,11.895,2.103,15.943-1.529c0.138-0.124,0.1-0.579-0.15-0.496
					c-2.481,0.83-4.602,2.017-7.229,2.514c-2.848,0.538-5.787,0.142-8.535-0.678C150.188,214.837,150.181,215.021,150.253,215.055
					L150.253,215.055z"/>
			</g>
		</g>
		<g>
			<g>
				<path style="fill:#361211;" d="M150.253,204.055c4.716,2.158,11.895,2.103,15.943-1.529c0.138-0.124,0.1-0.579-0.15-0.496
					c-2.481,0.83-4.602,2.017-7.229,2.514c-2.848,0.538-5.787,0.142-8.535-0.678C150.188,203.837,150.181,204.021,150.253,204.055
					L150.253,204.055z"/>
			</g>
		</g>
		<g>
			<g>
				<path style="fill:#361211;" d="M150.14,192.002c-0.465,12.509-0.269,25.064-0.139,37.578c0.07,6.673,0.195,13.346,0.591,20.007
					c0.124,2.081,0.29,4.162,0.577,6.228c0.359,2.573,4.857,3.688,6.883,4.145c6.18,1.389,11.196-3.049,10.554-9.037
					c-0.661-6.158-1.491-12.098-1.77-18.321c-0.614-13.7-0.548-27.423-0.79-41.133c-0.004-0.219-0.125-0.614-0.412-0.597
					c-5.118,0.311-10.246,0.759-15.371,0.933c-0.174,0.006-0.164,0.396,0.01,0.391c4.547-0.154,9.115-0.065,13.665-0.098
					c0.354-0.003,0.71-0.006,1.064-0.008c0.896-0.007,0.237,0.026,0.239-0.074c-0.02,1.127-0.039,2.254-0.057,3.381
					c-0.053,3.231-0.071,6.46-0.061,9.692c0.045,13.472-0.549,27.288,1.012,40.691c0.168,1.454,0.504,2.891,0.784,4.325
					c1.015,5.191-2.639,7.479-7.268,7.724c-1.581,0.083-6.876-1.099-7.175-3.131c-0.174-1.181-0.266-2.373-0.365-3.562
					c-0.564-6.775-0.725-13.597-0.936-20.39c-0.398-12.913-0.301-25.842-0.781-38.75
					C150.387,191.753,150.148,191.765,150.14,192.002z"/>
			</g>
		</g>
	</g>
</g>
</svg>
