<?xml version="1.0" encoding="iso-8859-1"?>
<!-- Generator: Adobe Illustrator 15.0.2, SVG Export Plug-In . SVG Version: 6.00 Build 0)  -->
<!DOCTYPE svg PUBLIC "-//W3C//DTD SVG 1.1//EN" "http://www.w3.org/Graphics/SVG/1.1/DTD/svg11.dtd">
<svg version="1.1" xmlns="http://www.w3.org/2000/svg" xmlns:xlink="http://www.w3.org/1999/xlink" x="0px" y="0px" width="300px"
	 height="300px" viewBox="0 0 300 300" style="enable-background:new 0 0 300 300;" xml:space="preserve">
<g id="color__x28_change_this_x29_">
	<path style="fill:#A6A8AB;" d="M211.387,287.706c-0.98-3.03-2.43-5.92-4.77-9.67l-0.11-0.11c9.51-9.08,6.189-30.25-8.46-32.68
		c-1.07-0.48-2.141-0.8-3.2-0.97c-4.45-0.76-8.63,0.97-11.95,4.06l-0.279-0.3c-7.33-3.38-15.94-5.5-24.921-4.36
		c-6.42,0.81-13.029,3.28-19.5,8.13l-0.579-0.77c-6.73-4.57-12.511-4.3-16.851-1.52c-9.58,6.11-12.1,24.37-2.11,29.44l-0.039,0.08
		c-2.091,3.76-3.11,6.34-3.591,8.88c-0.64,3.29-0.359,6.5-0.319,12.12h7.43h3.36c-0.08-5-0.431-6.77,0.77-9.98
		c0.32-0.87,0.76-1.85,1.351-3.02l1.399-1.81l0.09-0.02c0.851,4.35,1.32,9.15,0.13,14.83h3.66h6.24h34.5h22.32
		c0.899-9.29,0.67-12.94-1.34-18c2.22,4.45,3.979,6.62,5.109,9.4c0.851,2.11,1.34,4.56,1.38,8.6h6.931h5.5
		C213.007,294.756,212.497,291.136,211.387,287.706z"/>
</g>
<g id="shadow">
	<path style="opacity:0.45;" d="M198.047,245.246c14.649,2.43,17.97,23.6,8.46,32.68c-1.46,1.4-3.21,2.51-5.28,3.23
		c-1.93,0.67-4.13,1-6.609,0.88c-1.381-0.05-2.86-0.25-4.421-0.6c12.931-5.44,15.46-29.86,6-36.4
		C196.837,245.065,197.446,245.136,198.047,245.246z"/>
	<path style="opacity:0.3;" d="M198.047,245.246c-0.601-0.11-1.21-0.18-1.851-0.21c0,0,0,0-0.01,0c-0.42-0.29-0.87-0.55-1.34-0.76
		C195.906,244.446,196.977,244.766,198.047,245.246z"/>
	<path style="opacity:0.3;" d="M196.187,245.036c0.01,0,0.01,0,0.01,0c9.46,6.54,6.931,30.96-6,36.4c-0.52-0.12-1.04-0.25-1.579-0.4
		c-8.15-2.2-11.971-7.53-12.801-13.49c-0.96-6.87,2.08-14.58,7.08-19.21c3.32-3.09,7.5-4.82,11.95-4.06
		C195.316,244.486,195.767,244.746,196.187,245.036z"/>
	<path style="opacity:0.3;" d="M190.196,281.436c1.561,0.35,3.04,0.55,4.421,0.6c2.01,5.06,2.239,8.71,1.34,18h-22.32
		c0.5-7.22,1.16-13.79,0.66-22.36c-0.25-3.32-0.33-6.68-0.8-9.79l2.319-0.34c0.83,5.96,4.65,11.29,12.801,13.49
		C189.156,281.186,189.677,281.315,190.196,281.436z"/>
	<path style="opacity:0.3;" d="M182.617,248.036l0.279,0.3c-5,4.63-8.04,12.34-7.08,19.21l-2.319,0.34h-0.011
		c-0.97-6.52-3.609-11.97-12.869-13.77c0,0-0.801-5.77-2.921-10.44C166.677,242.536,175.287,244.656,182.617,248.036z"/>
	<path style="opacity:0.5;fill:#FFFFFF;" d="M140.097,287.936c0,5.07-0.19,8.27-0.96,12.1h-6.24c0.811-2.97,1.12-6.05,1.12-9.44
		c0-3.42-4.18-16.34-1.52-19C138.196,265.896,140.097,285.656,140.097,287.936z"/>
	<path style="opacity:0.3;" d="M125.137,280.256c-2.09,0.06-3.9-0.25-5.45-0.84c1.4-5.5-5.67-10.24-3.91-16.94
		c1.341-3.67,8.25-9.11,4.99-12.96c4.34-2.78,10.12-3.05,16.851,1.52l0.579,0.77c-0.529,0.39-1.06,0.8-1.579,1.23
		c-12.33,10.57-10.83,18.08-8.7,26.93l-0.3,0.07C126.747,280.156,125.917,280.236,125.137,280.256z"/>
	<path style="opacity:0.5;fill:#FFFFFF;" d="M134.867,262.156l-0.091-0.06c0.38-0.76,0.38-1.52,0.761-1.9
		c3.04,0.76,3.8,5.32,0.38,5.7C133.097,266.176,133.837,263.746,134.867,262.156z"/>
	<path style="opacity:0.3;fill:#FFFFFF;" d="M120.767,249.516c3.26,3.85-3.649,9.29-4.99,12.96c-1.76,6.7,5.311,11.44,3.91,16.94
		c-0.359-0.14-0.7-0.29-1.03-0.46C108.667,273.886,111.187,255.625,120.767,249.516z"/>
	<g id="XMLID_7_">
		<g>
			<path style="fill:#404041;" d="M213.537,300.036h-5.5c-0.19-2.76-0.601-5.83-1.311-8.72c1.44-0.65,2.74-1.74,3.891-3.28
				l0.77-0.33C212.497,291.136,213.007,294.756,213.537,300.036z"/>
			<path style="fill:#404041;" d="M211.387,287.706l-0.77,0.33c-1.15,1.54-2.45,2.63-3.891,3.28c-1.07-4.35-2.82-8.29-5.5-10.16
				c2.07-0.72,3.82-1.83,5.28-3.23l0.11,0.11C208.957,281.786,210.406,284.676,211.387,287.706z"/>
			<path style="fill:#58595B;" d="M208.037,300.036h-6.931c-0.04-4.04-0.529-6.49-1.38-8.6c2.62,0.84,4.96,0.8,7-0.12
				C207.437,294.206,207.847,297.276,208.037,300.036z"/>
			<path style="fill:#58595B;" d="M206.727,291.315c-2.04,0.92-4.38,0.96-7,0.12c-1.13-2.78-2.89-4.95-5.109-9.4
				c2.479,0.12,4.68-0.21,6.609-0.88C203.906,283.026,205.656,286.966,206.727,291.315z"/>
			<path style="fill:#929497;" d="M198.047,245.246c-0.601-0.11-1.21-0.18-1.851-0.21c0,0,0,0-0.01,0
				c-0.42-0.29-0.87-0.55-1.34-0.76C195.906,244.446,196.977,244.766,198.047,245.246z"/>
			<path style="fill:#58595B;" d="M129.106,285.206l-0.09,0.02l-1.399,1.81c-0.591,1.17-1.03,2.15-1.351,3.02l-0.649-0.02
				c-1.011,0-2.131-0.11-3.28-0.3c0.6-3.6,1.66-6.96,2.8-9.48c0.78-0.02,1.61-0.1,2.48-0.22l0.3-0.07
				C128.316,281.656,128.747,283.386,129.106,285.206z"/>
			<path style="fill:#58595B;" d="M125.617,290.036l0.649,0.02c-1.2,3.21-0.85,4.98-0.77,9.98h-3.36c-0.54-3.33-0.37-6.92,0.2-10.3
				C123.486,289.926,124.606,290.036,125.617,290.036z"/>
			<path style="fill:#6D6E70;" d="M119.687,279.416c1.55,0.59,3.36,0.9,5.45,0.84c-1.14,2.52-2.2,5.88-2.8,9.48
				c-2.29-0.37-4.73-1.04-6.72-1.7l-0.591-0.12c0.48-2.54,1.5-5.12,3.591-8.88l0.039-0.08
				C118.986,279.125,119.327,279.276,119.687,279.416z"/>
			<path style="fill:#6D6E70;" d="M122.137,300.036h-7.43c-0.04-5.62-0.32-8.83,0.319-12.12l0.591,0.12
				c1.989,0.66,4.43,1.33,6.72,1.7C121.767,293.116,121.597,296.706,122.137,300.036z"/>
		</g>
		<g>
		</g>
	</g>
</g>
<g id="outline">
	<g>
		<g>
			<path style="fill:#361211;" d="M199.653,245.934c-11.213-7.014-21.59,3.309-24.201,14.186
				c-3.395,14.148,8.776,24.244,22.344,22.953c11.357-1.082,15.926-13.059,14.476-23.027c-1.53-10.523-13.011-20.803-23.757-14.502
				c-0.311,0.184-0.349,1.004,0.115,1.006c5.027,0.016,9.33-1.045,14.051,1.393c4.061,2.098,6.6,6.375,7.77,10.648
				c2.424,8.844-1.317,19.182-10.614,21.842c-12.343,3.531-25.214-6.07-23.159-18.951c1.672-10.49,12.062-20.348,22.922-15.332
				C199.696,246.193,199.723,245.977,199.653,245.934L199.653,245.934z"/>
		</g>
	</g>
	<g>
		<g>
			<path style="fill:#361211;" d="M194.347,282.289c1.016,2.893,2.716,5.508,4.094,8.238c1.696,3.361,1.205,6.904,2.199,10.379
				c0.133,0.463,0.738,0.842,0.918,0.16c1.813-6.9-2.884-14.068-6.723-19.381C194.487,281.203,194.241,281.992,194.347,282.289
				L194.347,282.289z"/>
		</g>
	</g>
	<g>
		<g>
			<path style="fill:#361211;" d="M206.422,278.219c1.71,3.615,3.534,7.055,4.616,10.932c1.033,3.695,0.834,7.695,2.158,11.281
				c0.186,0.504,0.686,0.268,0.746-0.168c1.047-7.633-2.482-16.572-7.168-22.48C206.521,277.463,206.313,277.99,206.422,278.219
				L206.422,278.219z"/>
		</g>
	</g>
	<g>
		<g>
			<path style="fill:#361211;" d="M198.581,291.262c4.51,2.115,9.268,1.174,12.252-2.914c0.182-0.248-0.079-1.041-0.375-0.695
				c-3.352,3.916-6.941,4.537-11.807,3.156C198.425,290.744,198.409,291.182,198.581,291.262L198.581,291.262z"/>
		</g>
	</g>
	<g>
		<g>
			<path style="fill:#361211;" d="M182.647,247.951c-16.383-10.705-40.504-5.562-52.189,9.73
				c-4.152,5.432-5.478,11.143-4.441,17.852c0.57,3.689,1.688,7.285,2.385,10.951c0.995,5.229,0.545,10.172-0.51,15.34
				c-0.217,1.064,1.144,2.465,1.594,0.969c1.906-6.32,1.57-12.805,0.23-19.197c-1.52-7.246-3.912-13.906-0.107-20.92
				c5.012-9.24,16.139-15.42,26.105-17.553c9.412-2.016,17.889,0.711,26.889,3.008C182.689,248.152,182.706,247.988,182.647,247.951
				L182.647,247.951z"/>
		</g>
	</g>
	<g>
		<g>
			<path style="fill:#361211;" d="M194.249,282.201c0.667,2.682,1.312,5.162,1.465,7.947c0.197,3.625-0.721,7.26-0.352,10.85
				c0.055,0.521,0.684,1.164,0.941,0.361c1.849-5.748,1.547-14.34-1.426-19.744C194.576,281.064,194.167,281.867,194.249,282.201
				L194.249,282.201z"/>
		</g>
	</g>
	<g>
		<g>
			<path style="fill:#361211;" d="M137.794,250.537c-10.705-8.254-22.72-1.881-25.585,10.531c-1.155,5.004-0.944,10.328,1.71,14.828
				c2.303,3.902,9.805,7.797,13.92,4.678c0.328-0.248,0.239-0.982-0.127-1.148c-2.096-0.955-4.835-0.252-7.145-0.896
				c-2.16-0.604-3.945-2-5.271-3.771c-2.973-3.975-2.644-9.725-1.32-14.227c1.301-4.424,4.142-8.5,8.242-10.705
				c5.023-2.701,10.676-0.748,15.312,1.762C137.995,251.84,138.095,250.77,137.794,250.537L137.794,250.537z"/>
		</g>
	</g>
	<g>
		<g>
			<path style="fill:#361211;" d="M118.25,278.506c-4.575,5.705-5.954,16.035-3.936,22.951c0.116,0.398,0.612,0.707,0.776,0.135
				c0.918-3.188,0.314-6.658,0.364-9.951c0.068-4.52,2.136-8.094,3.603-12.23C119.241,278.895,118.808,277.809,118.25,278.506
				L118.25,278.506z"/>
		</g>
	</g>
	<g>
		<g>
			<path style="fill:#361211;" d="M125.718,301.938c0.21-2.738,0.215-5.494,0.601-8.217c0.401-2.834,1.657-5.184,2.888-7.715
				c0.374-0.768-0.455-2.6-1.016-1.467c-2.715,5.5-3.323,11.27-2.877,17.326C125.335,302.158,125.69,302.307,125.718,301.938
				L125.718,301.938z"/>
		</g>
	</g>
	<g>
		<g>
			<path style="fill:#361211;" d="M115.587,288.225c3.037,1.229,6.705,2.67,10.045,2.455c0.585-0.037,0.535-1.23-0.031-1.289
				c-3.379-0.35-6.639-0.717-9.955-1.545C115.458,287.799,115.438,288.164,115.587,288.225L115.587,288.225z"/>
		</g>
	</g>
	<g>
		<g id="XMLID_34_">
			<g>
				<path style="fill:#58595B;" d="M167.193,237.977c1.021,6.63,3.57,11.74-3.58,14.8c-1.149,0.57-2.35,0.92-3.56,1.06
					c5.53-16.52-1.25-37.92-1.99-54.29l7.55-0.26C165.613,210.527,165.664,227.247,167.193,237.977z"/>
				<path style="fill:#6D6E70;" d="M158.063,199.547c0.74,16.37,7.521,37.77,1.99,54.29c-4.17,0.53-8.48-1.23-11.25-3.61
					c-2.04-11.74-2.04-38.04-2.04-50.3L158.063,199.547z"/>
			</g>
			<g>
			</g>
		</g>
		<g>
			<g>
				<path style="fill:#361211;" d="M147.772,239.068c6.559,3.668,13.722,2.283,19.557-1.783c0.238-0.166,0.127-0.797-0.215-0.709
					c-2.491,0.635-4.234,2.621-6.737,3.408c-4.229,1.334-8.548,0.361-12.581-1.066C147.722,238.891,147.72,239.039,147.772,239.068
					L147.772,239.068z"/>
			</g>
		</g>
		<g>
			<g>
				<path style="fill:#361211;" d="M146.755,224.751c5.497,2.102,14.51,4.479,19.027-0.777c0.13-0.151,0.098-0.831-0.193-0.638
					c-5.891,3.916-12.277,3.367-18.816,1.302C146.718,224.621,146.709,224.734,146.755,224.751L146.755,224.751z"/>
			</g>
		</g>
		<g>
			<g>
				<path style="fill:#361211;" d="M146.749,213.554c5.904,2.615,14.383,2.396,19.517-1.904c0.142-0.118,0.094-0.589-0.15-0.496
					c-6.703,2.554-12.124,4.467-19.337,2.211C146.685,213.335,146.675,213.522,146.749,213.554L146.749,213.554z"/>
			</g>
		</g>
		<g>
			<g>
				<path style="fill:#361211;" d="M146.636,199.931c-0.478,11.26-0.279,22.596,0.109,33.856c0.171,4.971,0.471,9.938,1.108,14.871
					c0.505,3.904,4.831,5.771,8.529,6.215c4.539,0.545,9.765-0.748,12.123-5.012c1.751-3.168,0.255-7.674-0.362-10.91
					c-2.475-12.963-1.756-26.549-2.021-39.674c-0.006-0.276-0.16-0.781-0.524-0.758c-6.271,0.404-12.56,1.001-18.839,1.214
					c-0.175,0.006-0.164,0.396,0.01,0.391c6.19-0.21,12.416-0.042,18.61-0.063c-1.288,0.005,0.558,34.383,1.08,38.241
					c0.36,2.666,1.136,5.232,1.259,7.932c0.279,6.145-8.568,6.99-12.621,6.129c-3.955-0.842-5.719-2.586-6.191-6.357
					c-0.395-3.158-0.615-6.344-0.834-9.518c-0.837-12.177-0.662-24.376-1.18-36.561
					C146.881,199.682,146.646,199.695,146.636,199.931z"/>
			</g>
		</g>
	</g>
	<g>
		<g>
			<path style="fill:#361211;" d="M141.591,248.82c2.628,8.367,9.732,13.053,18.494,12.43c8.197-0.582,15.781-7.492,16.242-15.879
				c0.008-0.15-0.186-0.287-0.242-0.094c-2.381,8.338-7.047,13.939-16.018,15.201c-8.143,1.145-16.245-3.682-18.418-11.699
				C141.63,248.707,141.573,248.766,141.591,248.82L141.591,248.82z"/>
		</g>
	</g>
	<g>
		<g>
			<path style="fill:#361211;" d="M145.271,252.398c0.151,0.047,0.294,0.102,0.455,0.074c0.925-0.148,0.844-1.895-0.051-2.039
				c-0.158-0.025-0.301,0.035-0.449,0.082C144.564,250.723,144.637,252.201,145.271,252.398L145.271,252.398z"/>
		</g>
	</g>
	<g>
		<g>
			<path style="fill:#361211;" d="M150.212,256.578c0.15,0.047,0.293,0.102,0.453,0.074c0.925-0.148,0.844-1.895-0.051-2.039
				c-0.157-0.025-0.301,0.035-0.449,0.082C149.505,254.904,149.577,256.381,150.212,256.578L150.212,256.578z"/>
		</g>
	</g>
	<g>
		<g>
			<path style="fill:#361211;" d="M158.19,258.098c0.151,0.047,0.294,0.102,0.455,0.074c0.925-0.148,0.844-1.895-0.051-2.039
				c-0.158-0.025-0.301,0.035-0.449,0.082C157.484,256.422,157.557,257.9,158.19,258.098L158.19,258.098z"/>
		</g>
	</g>
	<g>
		<g>
			<path style="fill:#361211;" d="M166.931,255.059c0.15,0.047,0.293,0.102,0.454,0.074c0.925-0.148,0.845-1.896-0.05-2.039
				c-0.158-0.025-0.302,0.035-0.451,0.082C166.224,253.383,166.296,254.861,166.931,255.059L166.931,255.059z"/>
		</g>
	</g>
	<g>
		<g>
			<path style="fill:#361211;" d="M171.87,248.219c0.151,0.047,0.294,0.102,0.455,0.074c0.925-0.148,0.844-1.895-0.051-2.039
				c-0.158-0.025-0.301,0.035-0.449,0.082C171.164,246.543,171.236,248.021,171.87,248.219L171.87,248.219z"/>
		</g>
	</g>
	<g>
		<g>
			<path style="fill:#361211;" d="M145.692,300.064c0.682-5.367,1.135-11.773-0.316-17.064c-0.166,0.354-0.332,0.707-0.498,1.061
				c7.002-0.039,13.969-0.283,20.932-1.053c2.139-0.234,1.722,7.238,1.846,8.729c0.268,3.229,0.45,6.449,0.566,9.686
				c0.026,0.748,0.785,0.723,0.795-0.02c0.082-6.473-0.854-12.906-0.908-19.379c-0.003-0.256-0.16-0.775-0.51-0.736
				c-7.574,0.865-15.143,1.129-22.762,1.119c-0.465,0-0.587,0.725-0.497,1.059c1.413,5.242,0.703,11.203,1.2,16.572
				C145.55,300.146,145.674,300.203,145.692,300.064L145.692,300.064z"/>
		</g>
	</g>
	<g>
		<g>
			<path style="fill:#361211;" d="M147.577,287.094c0.711,0,0.678-1.602-0.039-1.602
				C146.827,285.492,146.86,287.094,147.577,287.094L147.577,287.094z"/>
		</g>
	</g>
	<g>
		<g>
			<path style="fill:#361211;" d="M165.403,286.787c0.92,0,0.877-2.07-0.051-2.07C164.435,284.717,164.477,286.787,165.403,286.787
				L165.403,286.787z"/>
		</g>
	</g>
</g>
</svg>
