<?xml version="1.0" encoding="iso-8859-1"?>
<!-- Generator: Adobe Illustrator 15.0.2, SVG Export Plug-In . SVG Version: 6.00 Build 0)  -->
<!DOCTYPE svg PUBLIC "-//W3C//DTD SVG 1.1//EN" "http://www.w3.org/Graphics/SVG/1.1/DTD/svg11.dtd">
<svg version="1.1" xmlns="http://www.w3.org/2000/svg" xmlns:xlink="http://www.w3.org/1999/xlink" x="0px" y="0px" width="300px"
	 height="300px" viewBox="0 0 300 300" style="enable-background:new 0 0 300 300;" xml:space="preserve">
<g id="color__x28_change_this_x29_">
	<path style="fill:#A6A8AB;" d="M235.954,297.2c-0.779-1.07-1.55-2.23-2.279-3.48c-2.84-4.779-5.271-10.7-6.88-16.56
		c-0.87-3.141-1.5-6.271-1.82-9.19c-0.18-1.52-0.271-2.979-0.271-4.359l-0.26-0.45c4.51-2.641,7.97-6.851,9.07-13.22
		c1.84-11.431-4.54-20.94-13.44-25.921c-4.77-2.67-10.25-4.029-15.58-3.699c-0.04,0-0.069,0-0.1,0.01
		c-0.12-0.63-0.26-1.28-0.44-1.93c-2.369-8.79-10.949-12.58-20.92-14.87l-0.04,0.149c-8.75-2.029-19.409-2.58-29.64-2.229
		c-10.12,0.359-19.81,1.609-26.81,3.229c-14.42,3.33-28.24,13.59-30.801,24.19c-2.75-0.09-5.33,0.31-7.68,1.13
		c-8.24,2.84-13.67,10.71-13.67,19.94c0,6.31,2.28,10.239,5.73,12.93c1.01,0.8,2.119,1.479,3.3,2.08l-0.49,0.93
		c0.78,2.98,1.229,6.3,1.32,9.76c0.04,1.66,0.01,3.34-0.11,5.04c-0.32,4.87-1.31,9.8-2.96,14.221c-0.7,1.89-1.521,3.699-2.47,5.359
		h5.109h8.17h6.261h7.13h9.609h84.561h9.02c-0.01-7.49-0.16-16.01-0.42-24.7h0.04c0.101,1.511,0.28,3.04,0.57,4.561
		c1.31,7.28,4.64,14.55,9.43,20.14h5.87h14.16L235.954,297.2z"/>
</g>
<g id="shadow">
	<path style="opacity:0.45;" d="M220.074,224.02c8.9,4.98,15.28,14.49,13.44,25.921c-1.101,6.369-4.561,10.579-9.07,13.22
		c-4.76,2.81-10.689,3.859-16.25,3.859l-0.319,0.011c-0.101-2.69-0.211-5.38-0.33-8.021
		C226.614,259.45,230.885,235.47,220.074,224.02z"/>
	<path style="opacity:0.3;" d="M220.074,224.02c10.811,11.45,6.54,35.431-12.529,34.99c-0.74-16.54-1.82-31.58-3.051-38.689
		C209.824,219.99,215.305,221.35,220.074,224.02z"/>
	<path style="opacity:0.3;" d="M207.545,259.01c0.119,2.641,0.229,5.33,0.33,8.021c0.1,2.84,0.199,5.689,0.279,8.529
		c0.26,8.69,0.41,17.21,0.42,24.7h-9.02c-0.061-19.689-0.57-40.02-4.79-59.13c7.21-5.24,11.2-12.14,9.63-20.8
		c0.03-0.01,0.06-0.01,0.1-0.01C205.725,227.43,206.805,242.47,207.545,259.01z"/>
	<path style="opacity:0.45;" d="M193.104,234.39c-14.37,14.971-58.89,17.45-77.27,10.2c-27.511-10.83-7.65-31.899,13.75-36.53
		c5.8-1.26,13.72-2.25,22.069-2.59c9.29-0.39,19.101,0.03,27.08,1.76l0.03-0.119c8.689,1.88,16.16,4.97,18.22,12.149
		C198.715,225.27,197.034,230.3,193.104,234.39z"/>
	<path style="opacity:0.3;fill:#FFFFFF;" d="M95.744,228.87c2.561-10.601,16.381-20.86,30.801-24.19c7-1.62,16.689-2.87,26.81-3.229
		c-0.69,1.47-1.3,2.88-1.7,4.02c-8.35,0.34-16.27,1.33-22.069,2.59c-21.4,4.631-41.261,25.7-13.75,36.53
		c18.38,7.25,62.899,4.771,77.27-10.2c0.61,2.23,1.16,4.48,1.66,6.74c-19.97,14.53-64.63,16.42-84.01,8.28
		c-9.98-4.19-14.53-9.63-15.301-15.29C95.204,232.38,95.314,230.62,95.744,228.87z"/>
	<path style="opacity:0.5;fill:#FFFFFF;" d="M114.994,300.26h-9.609c-0.311-5.91-1.38-12.05-0.49-16.45
		c3.39-15.8,9.33-3.989,8.82,5.71C113.524,292.99,114.194,296.62,114.994,300.26z"/>
	<path style="opacity:0.5;fill:#FFFFFF;" d="M105.824,263.01c8.061-2.52,7.561,10.08,0.5,5.54c-3.31-2.07-2.88-4.479-0.67-5.83
		L105.824,263.01z"/>
	<path style="opacity:0.3;" d="M89.645,267.44c-2.19-0.711-4.3-1.49-6.22-2.49c-1.181-0.601-2.29-1.28-3.3-2.08
		c2.539-3.46-0.58-5.55-1.021-9.94c-1-5.55,0.51-9.58,3.53-14.12c2.399-3.43,5.27-6.149,5.43-8.81c2.35-0.82,4.93-1.22,7.68-1.13
		c-0.43,1.75-0.54,3.51-0.29,5.25c-0.329,5.57,0.391,11.81,0.83,16.6c0.49,6.88,0.891,13.061,1.2,19.07
		C94.895,268.979,92.215,268.26,89.645,267.44z"/>
	<path style="opacity:0.3;fill:#FFFFFF;" d="M88.064,230c-0.16,2.66-3.03,5.38-5.43,8.81c-3.021,4.54-4.53,8.57-3.53,14.12
		c0.44,4.391,3.56,6.48,1.021,9.94c-3.45-2.69-5.73-6.62-5.73-12.93C74.395,240.71,79.824,232.84,88.064,230z"/>
	<g id="XMLID_14_">
		<g>
			<path style="fill:#58595B;" d="M238.225,300.26h-14.16c-1.12-1.68-2.22-3.59-3.26-5.6c3.83-1.33,8.16-2.07,11.729-0.88
				l1.141-0.061c0.729,1.25,1.5,2.41,2.279,3.48L238.225,300.26z"/>
			<path style="fill:#58595B;" d="M233.675,293.72l-1.141,0.061c-3.569-1.19-7.899-0.45-11.729,0.88
				c-3.13-6.01-5.74-12.91-6.62-17.04c-0.05-0.19-0.1-0.37-0.14-0.54c4.069-1.33,8.97-1.32,12.359,0.189l0.391-0.109
				C228.404,283.02,230.835,288.94,233.675,293.72z"/>
			<path style="fill:#58595B;" d="M226.795,277.16l-0.391,0.109c-3.39-1.51-8.29-1.52-12.359-0.189
				c-1.801-6.9-0.2-4.561,6.689-7.021c1.41-0.569,2.83-1.29,4.24-2.09C225.295,270.89,225.925,274.02,226.795,277.16z"/>
			<path style="fill:#404041;" d="M224.704,263.61c0,1.38,0.091,2.84,0.271,4.359c-1.41,0.8-2.83,1.521-4.24,2.09
				c-6.89,2.46-8.49,0.12-6.689,7.021c-2.08,0.67-3.94,1.689-5.28,3.04c-0.29-1.521-0.47-3.05-0.57-4.561h-0.04
				c-0.08-2.84-0.18-5.689-0.279-8.529l0.319-0.011c5.561,0,11.49-1.05,16.25-3.859L224.704,263.61z"/>
			<path style="fill:#404041;" d="M220.805,294.66c1.04,2.01,2.14,3.92,3.26,5.6h-5.87c-4.79-5.59-8.12-12.859-9.43-20.14
				c1.34-1.351,3.2-2.37,5.28-3.04c0.04,0.17,0.09,0.35,0.14,0.54C215.064,281.75,217.675,288.65,220.805,294.66z"/>
			<path style="fill:#58595B;" d="M98.244,298.03c0.011,0.729,0.011,1.479,0.011,2.229h-6.261c0.15-1.58,0.29-3.16,0.41-4.75
				C94.385,295.95,96.324,296.72,98.244,298.03z"/>
			<path style="fill:#58595B;" d="M98.024,283.479c0.13,4.641,0.2,9.41,0.22,14.551c-1.92-1.311-3.859-2.08-5.84-2.521
				c0.36-5.01,0.51-10.05,0.101-14.95C94.364,281.04,96.095,281.96,98.024,283.479z"/>
			<path style="fill:#58595B;" d="M97.484,269.79c0.23,4.59,0.42,9.08,0.54,13.689c-1.93-1.52-3.66-2.439-5.52-2.92
				c-0.37-4.54-1.23-8.96-2.86-13.119C92.215,268.26,94.895,268.979,97.484,269.79z"/>
			<path style="fill:#6D6E70;" d="M92.505,280.56c0.409,4.9,0.26,9.94-0.101,14.95c-2.21-0.5-4.479-0.6-6.87-0.609
				c1.29-4.9,1.91-10.181,0.86-14.54C88.755,280.09,90.685,280.12,92.505,280.56z"/>
			<path style="fill:#6D6E70;" d="M92.404,295.51c-0.12,1.59-0.26,3.17-0.41,4.75h-8.17c0.63-1.68,1.221-3.49,1.71-5.359
				C87.925,294.91,90.194,295.01,92.404,295.51z"/>
			<path style="fill:#6D6E70;" d="M89.645,267.44c1.63,4.159,2.49,8.579,2.86,13.119c-1.82-0.439-3.75-0.47-6.11-0.199
				c-0.42-1.75-1.11-3.351-2.14-4.721c-0.091-3.46-0.54-6.779-1.32-9.76l0.49-0.93C85.345,265.95,87.454,266.729,89.645,267.44z"/>
			<path style="fill:#929497;" d="M86.395,280.36c1.05,4.359,0.43,9.64-0.86,14.54c-1.39-0.011-2.819,0.02-4.31,0.02l-0.04-0.02
				c1.65-4.421,2.64-9.351,2.96-14.221C84.944,280.55,85.685,280.44,86.395,280.36z"/>
			<path style="fill:#929497;" d="M81.225,294.92c1.49,0,2.92-0.03,4.31-0.02c-0.489,1.869-1.08,3.68-1.71,5.359h-5.109
				c0.949-1.66,1.77-3.47,2.47-5.359L81.225,294.92z"/>
			<path style="fill:#929497;" d="M86.395,280.36c-0.71,0.08-1.45,0.189-2.25,0.319c0.12-1.7,0.15-3.38,0.11-5.04
				C85.284,277.01,85.975,278.61,86.395,280.36z"/>
		</g>
		<g>
		</g>
	</g>
</g>
<g id="outline">
	<g>
		<g>
			<path style="fill:#361211;" d="M187.759,204.622c-10.838-3.892-23.02-4.2-34.405-3.856c-10.545,0.318-21.58,1.319-31.668,4.58
				c-12.354,3.992-32.227,17.472-25.366,32.989c3.219,7.282,12.148,11.282,19.291,13.424c7.134,2.139,14.706,2.879,22.116,3.178
				c16.604,0.67,34.452-1.682,49.587-8.825c8.253-3.896,16.382-10.248,17.638-19.85c2.014-15.381-12.852-22.214-25.617-24.317
				c-0.632-0.104-0.687,1.438-0.102,1.576c11.496,2.729,24.876,6.133,25.164,20.402c0.154,7.644-5.209,13.646-11.169,17.676
				c-13.85,9.363-33.009,11.456-49.282,11.766c-8.351,0.159-16.767-0.326-24.946-2.084c-8.917-1.916-20.21-6.374-22.932-15.957
				c-2.923-10.29,8.27-19.512,15.871-24.077c9.399-5.646,20.341-7.335,31.073-8.421c14.812-1.498,30.19-1.358,44.636,2.516
				C188.001,205.436,188.05,204.727,187.759,204.622L187.759,204.622z"/>
		</g>
	</g>
	<g>
		<g>
			<path style="fill:#361211;" d="M96.85,226.25c-4.803,9.096-1.59,22.375-1.066,32.115c0.375,6.975,0.715,13.947,0.913,20.929
				c0.208,7.284-0.103,14.714,1.012,21.929c0.127,0.822,0.992,0.756,1.112-0.027c1.869-12.155,0.216-25.255-0.601-37.466
				c-0.816-12.205-3.707-25.189-1.151-37.295C97.093,226.319,96.946,226.066,96.85,226.25L96.85,226.25z"/>
		</g>
	</g>
	<g>
		<g>
			<path style="fill:#361211;" d="M203.841,217.655c2.812,11.22,2.146,23.623,2.616,35.091c0.342,8.304,0.602,16.613,0.82,24.921
				c0.208,7.9-0.16,15.963,0.815,23.815c0.089,0.711,0.88,0.658,0.965-0.023c0.912-7.366,0.336-14.969,0.133-22.366
				c-0.241-8.803-0.628-17.595-1.17-26.385c-0.704-11.412-0.969-24.026-4.008-35.129
				C203.965,217.405,203.806,217.513,203.841,217.655L203.841,217.655z"/>
		</g>
	</g>
	<g>
		<g>
			<path style="fill:#361211;" d="M182.861,208.123c-11.121-3.538-23.357-3.491-34.889-2.807
				c-10.384,0.615-20.934,1.968-30.308,6.721c-6.155,3.121-13.858,8.797-15.192,16.102c-1.367,7.482,4.23,12.305,10.35,15.45
				c14.031,7.214,33.009,6.151,48.086,4.009c11.626-1.652,30.319-5.507,35.626-17.757c1.843-4.254,1.563-8.771-0.302-12.976
				c-3.29-7.418-13.612-9.6-20.68-10.79c-0.313-0.053-0.347,0.726-0.051,0.788c10.365,2.183,24.022,6.093,21.74,19.566
				c-1.199,7.087-8.194,11.607-14.18,14.398c-15.247,7.108-34.069,8.217-50.608,6.856c-8.499-0.699-17.137-2.482-24.234-7.455
				c-11.694-8.194-2.274-20.118,6.383-25.718c9.053-5.856,19.914-7.361,30.432-8.287c12.521-1.103,25.565-0.985,37.771,2.258
				C182.981,208.529,183.009,208.17,182.861,208.123L182.861,208.123z"/>
		</g>
	</g>
	<g>
		<g>
			<path style="fill:#361211;" d="M96.02,228.465c-13.877-0.681-23.355,10.892-22.301,24.287c0.427,5.414,3.36,9.807,7.818,12.751
				c2.204,1.456,4.719,2.45,7.204,3.305c2.63,0.904,6.251,2.635,9.024,2.193c0.895-0.143,0.912-1.626,0.323-2.12
				c-2.765-2.316-7.562-2.798-10.967-3.976c-4.853-1.678-9.016-4.378-11.007-9.281c-5.489-13.518,7.133-26.081,19.924-26.339
				C96.406,229.277,96.385,228.482,96.02,228.465L96.02,228.465z"/>
		</g>
	</g>
	<g>
		<g>
			<path style="fill:#361211;" d="M204.196,220.392c5.498,1.376,10.567,1.573,15.71,4.32c6.23,3.328,10.89,9.221,12.74,16.001
				c2.035,7.457-0.482,15.407-6.437,20.225c-5.421,4.387-11.572,4.1-18.064,4.249c-1.636,0.037-1.55,3.678,0.09,3.67
				c14.895-0.069,27.529-10.387,25.969-25.812c-0.683-6.743-4.642-12.607-9.717-16.874c-4.952-4.164-13.814-8.196-20.294-5.893
				C204.156,220.292,204.156,220.382,204.196,220.392L204.196,220.392z"/>
		</g>
	</g>
	<g>
		<g>
			<path style="fill:#361211;" d="M82.652,266.009c1.806,11.89,1.029,24.335-5.51,34.778c-0.621,0.993,0.475,3.359,1.336,1.93
				c6.294-10.455,8.702-25.356,4.704-37.067C83.002,265.12,82.601,265.671,82.652,266.009L82.652,266.009z"/>
		</g>
	</g>
	<g>
		<g>
			<path style="fill:#361211;" d="M84.076,280.842c2.703-0.09,5.23-0.545,7.93-0.017c2.865,0.562,5.031,2.47,7.36,4.067
				c0.245,0.167,0.284-0.309,0.158-0.443c-4.074-4.335-9.829-5.525-15.483-3.914C83.928,280.568,83.948,280.846,84.076,280.842
				L84.076,280.842z"/>
		</g>
	</g>
	<g>
		<g>
			<path style="fill:#361211;" d="M81.231,295.134c2.818,0.338,5.697-0.061,8.535,0.123c3.353,0.217,5.595,1.804,8.478,3.262
				c0.266,0.134,0.25-0.42,0.135-0.539c-4.22-4.391-11.605-4.042-17.157-3.275C81.028,294.73,81.041,295.111,81.231,295.134
				L81.231,295.134z"/>
		</g>
	</g>
	<g>
		<g>
			<path style="fill:#361211;" d="M224.364,263.474c-0.456,6.147,1.297,12.339,3.25,18.106c1.329,3.925,3.021,7.722,4.871,11.426
				c1.432,2.864,2.992,6.756,5.67,8.6c0.739,0.509,0.929-0.759,0.76-1.222c-0.849-2.322-2.407-4.277-3.654-6.41
				c-2.015-3.447-3.642-7.12-5.138-10.815c-2.566-6.333-4.291-12.923-5.092-19.701C224.975,262.975,224.399,262.991,224.364,263.474
				L224.364,263.474z"/>
		</g>
	</g>
	<g>
		<g>
			<path style="fill:#361211;" d="M208.075,275.564c0.024,4.849,1.283,9.526,2.986,14.038c1.532,4.057,3.918,10.019,7.853,12.186
				c0.461,0.254,0.553-0.696,0.44-0.93c-1.811-3.75-4.845-6.833-6.812-10.58c-2.421-4.611-3.416-9.684-4.242-14.767
				C208.268,275.31,208.074,275.396,208.075,275.564L208.075,275.564z"/>
		</g>
	</g>
	<g>
		<g>
			<path style="fill:#361211;" d="M208.87,280.384c4.528-4.084,11.912-4.908,17.466-2.642c0.432,0.177,0.533-0.794,0.146-0.945
				c-5.733-2.253-13.269-1.207-17.833,3.052C208.465,280.021,208.617,280.61,208.87,280.384L208.87,280.384z"/>
		</g>
	</g>
	<g>
		<g>
			<path style="fill:#361211;" d="M216.173,296.685c2.707-1.137,5.601-2.016,8.483-2.57c2.743-0.528,5.178,0.1,7.888,0.096
				c0.401-0.001,0.299-0.702,0.054-0.846c-4.771-2.792-12.225,0.865-16.448,3.207C216.108,296.595,216.119,296.707,216.173,296.685
				L216.173,296.685z"/>
		</g>
	</g>
	<g>
		<g>
			<path style="fill:#361211;" d="M103.844,255.032c1.422,0,1.355-3.203-0.078-3.203
				C102.344,251.829,102.41,255.032,103.844,255.032L103.844,255.032z"/>
		</g>
	</g>
	<g>
		<g>
			<path style="fill:#361211;" d="M115.436,260.071c1.422,0,1.355-3.201-0.078-3.201
				C113.936,256.87,114.002,260.071,115.436,260.071L115.436,260.071z"/>
		</g>
	</g>
	<g>
		<g>
			<path style="fill:#361211;" d="M129.548,262.593c1.422,0,1.356-3.203-0.078-3.203
				C128.048,259.39,128.113,262.593,129.548,262.593L129.548,262.593z"/>
		</g>
	</g>
	<g>
		<g>
			<path style="fill:#361211;" d="M146.18,263.601c1.422,0,1.355-3.203-0.078-3.203C144.68,260.397,144.746,263.601,146.18,263.601
				L146.18,263.601z"/>
		</g>
	</g>
	<g>
		<g>
			<path style="fill:#361211;" d="M164.324,262.081c1.422,0,1.355-3.203-0.078-3.203
				C162.824,258.878,162.891,262.081,164.324,262.081L164.324,262.081z"/>
		</g>
	</g>
	<g>
		<g>
			<path style="fill:#361211;" d="M180.453,257.552c1.422,0,1.355-3.203-0.078-3.203
				C178.953,254.349,179.02,257.552,180.453,257.552L180.453,257.552z"/>
		</g>
	</g>
	<g>
		<g>
			<path style="fill:#361211;" d="M194.061,250.495c1.422,0,1.355-3.201-0.078-3.201
				C192.561,247.294,192.627,250.495,194.061,250.495L194.061,250.495z"/>
		</g>
	</g>
	<g>
		<g>
			<path style="fill:#361211;" d="M202.133,242.929c1.422,0,1.355-3.203-0.078-3.203
				C200.633,239.726,200.699,242.929,202.133,242.929L202.133,242.929z"/>
		</g>
	</g>
	<g id="XMLID_6_">
		<g>
			<path style="fill:#58595B;" d="M159.675,211.39c1.02,6.63,3.569,11.74-3.58,14.801c-1.09,0.55-2.23,0.88-3.38,1.039
				c5.189-14.569-1.42-29.75-2.17-45.27l7.55-0.26C158.095,192.94,158.145,200.66,159.675,211.39z"/>
			<path style="fill:#6D6E70;" d="M150.545,181.96c0.75,15.52,7.359,30.7,2.17,45.27c-4.221,0.601-8.62-1.18-11.431-3.59
				c-2.04-11.739-2.04-29.04-2.04-41.3L150.545,181.96z"/>
		</g>
		<g>
		</g>
	</g>
	<g>
		<g>
			<path style="fill:#361211;" d="M140.254,212.482c6.56,3.667,13.72,2.28,19.556-1.784c0.238-0.166,0.128-0.796-0.215-0.709
				c-2.491,0.635-4.234,2.621-6.736,3.409c-4.23,1.333-8.548,0.359-12.581-1.066C140.202,212.305,140.201,212.453,140.254,212.482
				L140.254,212.482z"/>
		</g>
	</g>
	<g>
		<g>
			<path style="fill:#361211;" d="M139.235,198.165c5.497,2.102,14.51,4.478,19.028-0.777c0.13-0.151,0.097-0.831-0.193-0.639
				c-5.892,3.916-12.278,3.368-18.817,1.303C139.198,198.034,139.189,198.147,139.235,198.165L139.235,198.165z"/>
		</g>
	</g>
	<g>
		<g>
			<path style="fill:#361211;" d="M139.229,186.968c5.905,2.615,14.383,2.396,19.518-1.904c0.142-0.118,0.094-0.589-0.151-0.496
				c-6.703,2.554-12.124,4.467-19.337,2.211C139.166,186.749,139.156,186.936,139.229,186.968L139.229,186.968z"/>
		</g>
	</g>
	<g>
		<g>
			<path style="fill:#361211;" d="M139.116,182.344c-0.504,10.378-0.308,20.876,0.358,31.241c0.166,2.579-0.188,8.598,1.344,10.811
				c2.125,3.069,7.58,4.039,10.973,4.068c7.683,0.066,10.596-5.942,9.542-12.432c-1.869-11.507-2.645-22.687-2.683-34.344
				c-0.001-0.312-0.178-0.843-0.573-0.828c-6.286,0.242-12.552,1.072-18.838,1.285c-0.175,0.006-0.164,0.396,0.01,0.391
				c5.354-0.182,10.745,0.012,16.103,0.018c0.836,0,1.674,0.01,2.51-0.003c-0.571,0.009-0.31,6.81-0.301,7.854
				c0.049,5.853,0.335,11.702,0.91,17.526c0.506,5.132,3.989,13.065-1.299,16.514c-2.879,1.879-6.339,2.029-9.597,1.341
				c-3.942-0.834-5.731-2.705-6.259-6.537c-1.686-12.252-1.344-24.596-1.944-36.911C139.36,182.095,139.127,182.107,139.116,182.344
				z"/>
		</g>
	</g>
</g>
</svg>
