<?xml version="1.0" encoding="iso-8859-1"?>
<!-- Generator: Adobe Illustrator 15.0.2, SVG Export Plug-In . SVG Version: 6.00 Build 0)  -->
<!DOCTYPE svg PUBLIC "-//W3C//DTD SVG 1.1//EN" "http://www.w3.org/Graphics/SVG/1.1/DTD/svg11.dtd">
<svg version="1.1" xmlns="http://www.w3.org/2000/svg" xmlns:xlink="http://www.w3.org/1999/xlink" x="0px" y="0px" width="300px"
	 height="300px" viewBox="0 0 300 300" style="enable-background:new 0 0 300 300;" xml:space="preserve">
<g id="color__x28_change_this_x29_">
	<path style="fill:#A6A8AB;" d="M175.673,279.336c0.01-0.851,0.05-1.601,0.13-2.24c-1.03-0.521-2.06-1.03-3.6-1.03l-0.57,0.01
		c-0.46-15.319-2.49-72.55-2.49-76.21l-8.44,0.19l-14.14,0.33c0,4.24,1.68,62.05,1.96,75.7c-1.8,0.01-3.33,0.52-4.09,1.529
		l0.01,0.011c-0.05,0.439-0.09,0.87-0.12,1.29c-0.79,8.56,0.07,12.899,0.57,21.529h28.43h4.57
		C176.593,291.746,175.623,284.016,175.673,279.336z"/>
</g>
<g id="shadow">
	<path style="opacity:0.45;" d="M177.893,300.445h-4.57c0.11-5.47,0.19-10.989-0.57-15.949l-1.1-0.141
		c0.21-0.109,0.41-0.229,0.6-0.35c1.9-1.16,3.08-2.71,3.08-4.67h0.34C175.623,284.016,176.593,291.746,177.893,300.445z"/>
	<path style="opacity:0.3;" d="M175.333,279.336c0,1.96-1.18,3.51-3.08,4.67l-0.02-0.03c-1.3,0-2.97-1.1-4.39-1.44
		c1.99-0.729,3.71-1.71,4.87-2.869l-0.99,0.02c0-0.4-0.03-1.67-0.09-3.61l0.57-0.01c1.54,0,2.57,0.51,3.6,1.03
		c-0.08,0.64-0.12,1.39-0.13,2.24H175.333z"/>
	<path style="opacity:0.3;" d="M172.753,284.496c0.76,4.96,0.68,10.479,0.57,15.949h-28.43c-0.5-8.63-1.36-12.97-0.57-21.529
		l0.29,0.02c-0.73,7.75,18.73,9.83,27.04,5.42L172.753,284.496z"/>
	<g id="XMLID_12_">
		<g>
			<path style="fill:#58595B;" d="M171.723,279.686l0.99-0.02c-1.16,1.159-2.88,2.14-4.87,2.869c-0.26-0.06-0.51-0.1-0.75-0.1
				c0-26.67-6.39-56.32-6.39-82.38l8.44-0.19c0,3.66,2.03,60.891,2.49,76.21C171.693,278.016,171.723,279.285,171.723,279.686z"/>
			<path style="fill:#6D6E70;" d="M148.523,276.086c-0.28-13.65-1.96-71.46-1.96-75.7l14.14-0.33c0,26.06,6.39,55.71,6.39,82.38
				c0.24,0,0.49,0.04,0.75,0.1c-6.76,2.471-16.77,2.091-19.7-3.659l0.42-0.221C148.563,278.226,148.553,277.346,148.523,276.086z"/>
		</g>
		<g>
		</g>
	</g>
</g>
<g id="outline">
	<g>
		<g>
			<path style="fill:#361211;" d="M148.027,270.445c5.413,5.162,17.126,5.902,22.761,0.696c0.128-0.118,0.075-0.626-0.15-0.496
				c-6.949,4.001-15.791,4.373-22.573-0.302C148.009,270.306,147.995,270.415,148.027,270.445L148.027,270.445z"/>
		</g>
	</g>
	<g>
		<g>
			<path style="fill:#361211;" d="M148.027,258.607c5.412,5.163,17.126,5.902,22.761,0.697c0.128-0.118,0.075-0.626-0.15-0.496
				c-6.949,4-15.791,4.373-22.573-0.303C148.009,258.468,147.995,258.577,148.027,258.607L148.027,258.607z"/>
		</g>
	</g>
	<g>
		<g>
			<path style="fill:#361211;" d="M148.027,245.77c5.412,5.163,17.125,5.903,22.761,0.698c0.128-0.118,0.075-0.626-0.15-0.496
				c-6.949,4-15.791,4.372-22.573-0.304C148.009,245.63,147.995,245.739,148.027,245.77L148.027,245.77z"/>
		</g>
	</g>
	<g>
		<g>
			<path style="fill:#361211;" d="M148.027,233.933c5.413,5.162,17.126,5.903,22.761,0.697c0.128-0.118,0.075-0.626-0.15-0.496
				c-6.949,4.001-15.791,4.372-22.573-0.303C148.009,233.793,147.995,233.902,148.027,233.933L148.027,233.933z"/>
		</g>
	</g>
	<g>
		<g>
			<path style="fill:#361211;" d="M147.027,222.096c5.413,5.162,17.126,5.902,22.761,0.696c0.128-0.118,0.075-0.626-0.15-0.496
				c-6.949,4.001-15.791,4.373-22.573-0.302C147.009,221.956,146.995,222.065,147.027,222.096L147.027,222.096z"/>
		</g>
	</g>
	<g>
		<g>
			<path style="fill:#361211;" d="M146.027,210.258c5.412,5.163,17.126,5.902,22.761,0.697c0.128-0.118,0.075-0.626-0.15-0.496
				c-6.949,4-15.791,4.373-22.573-0.303C146.009,210.118,145.995,210.228,146.027,210.258L146.027,210.258z"/>
		</g>
	</g>
	<g>
		<g>
			<path style="fill:#361211;" d="M147.935,278.71c3.709,8.57,19.458,7.567,25.138,1.826c0.553-0.559,0.174-2.454-0.717-1.736
				c-6.187,4.984-19.139,7.21-24.283-0.26C147.98,278.408,147.897,278.623,147.935,278.71L147.935,278.71z"/>
		</g>
	</g>
	<g>
		<g>
			<path style="fill:#361211;" d="M172.165,276.292c1.707,0.403,3.153,0.534,3.043,2.462c-0.109,1.889-0.052,3.767,0.034,5.655
				c0.24,5.321,0.683,11.167,2.104,16.288c0.264,0.948,1.152,0.635,1.128-0.262c-0.219-7.802-2.675-15.49-2.268-23.351
				c0.011-0.211-0.102-0.503-0.312-0.586c-1.364-0.541-2.262-0.691-3.7-0.668C172.003,275.834,171.992,276.252,172.165,276.292
				L172.165,276.292z"/>
		</g>
	</g>
	<g>
		<g>
			<path style="fill:#361211;" d="M144.865,277.562c-2.21,6.996,8.229,8.865,12.976,9.298c5.302,0.484,18.309-0.219,17.665-8.227
				c-0.032-0.402-0.469-0.398-0.436,0.012c0.94,11.716-33.395,10.087-30.092-0.987C145.004,277.573,144.904,277.438,144.865,277.562
				L144.865,277.562z"/>
		</g>
	</g>
	<g>
		<g>
			<path style="fill:#361211;" d="M144.294,277.57c-1.831,7.761-0.777,16.074-0.169,23.93c0.119,1.539,1.726,1.534,1.666-0.041
				c-0.299-7.949-0.905-15.88-1.194-23.834C144.589,277.387,144.354,277.314,144.294,277.57L144.294,277.57z"/>
		</g>
	</g>
	<g>
		<g>
			<path style="fill:#361211;" d="M144.053,279.278c0.337-0.883,0.778-1.517,1.653-1.923c0.468-0.217,1.002-0.326,1.506-0.412
				c0.583-0.1,1.078-0.002,1.527-0.424c0.225-0.211,0.208-0.676-0.021-0.877c-0.945-0.829-2.887,0.097-3.763,0.708
				c-0.919,0.643-1.468,1.784-1.161,2.883C143.835,279.379,143.985,279.455,144.053,279.278L144.053,279.278z"/>
		</g>
	</g>
	<g>
		<g>
			<path style="fill:#361211;" d="M172.105,279.678c0.176-26.615-2.193-53.215-2.308-79.824c-0.002-0.373-0.209-0.984-0.675-0.975
				c-7.529,0.164-15.059,0.328-22.587,0.492c-0.488,0.011-0.641,0.649-0.64,1.028c0.079,26.096,2.295,52.185,2.382,78.266
				c0.002,0.53,0.566,0.513,0.564-0.014c-0.088-26.104-1.506-52.188-1.618-78.285c-0.213,0.343-0.426,0.686-0.64,1.028
				c3.765-0.089,7.529-0.179,11.294-0.268c2.71-0.064,5.42-0.129,8.13-0.192c0.767-0.019,1.532-0.037,2.299-0.055
				c1.366-0.032,0.197-0.283,0.192-0.7c0.095,7.672,0.471,15.349,0.732,23.016c0.642,18.823,1.771,37.672,2.104,56.502
				C171.349,280.421,172.101,280.395,172.105,279.678L172.105,279.678z"/>
		</g>
	</g>
	<g>
		<g>
			<path style="fill:#361211;" d="M147.84,290.451c0.112,0.031,0.225,0.062,0.337,0.094c1.59,0.441,1.601-3.289-0.069-2.823
				c-0.11,0.031-0.222,0.062-0.332,0.093C146.852,288.072,146.95,290.203,147.84,290.451L147.84,290.451z"/>
		</g>
	</g>
	<g>
		<g>
			<path style="fill:#361211;" d="M154.531,292.511c0.112,0.031,0.225,0.062,0.337,0.093c1.589,0.443,1.6-3.289-0.07-2.822
				c-0.11,0.031-0.221,0.062-0.331,0.093C153.543,290.133,153.642,292.263,154.531,292.511L154.531,292.511z"/>
		</g>
	</g>
	<g>
		<g>
			<path style="fill:#361211;" d="M163.279,292.511c0.112,0.031,0.226,0.062,0.338,0.093c1.59,0.441,1.601-3.287-0.069-2.822
				c-0.111,0.031-0.223,0.062-0.333,0.093C162.291,290.132,162.39,292.264,163.279,292.511L163.279,292.511z"/>
		</g>
	</g>
	<g>
		<g>
			<path style="fill:#361211;" d="M170.485,290.451c0.112,0.031,0.225,0.062,0.337,0.094c1.59,0.441,1.601-3.289-0.069-2.823
				c-0.11,0.031-0.222,0.062-0.332,0.093C169.497,288.072,169.596,290.203,170.485,290.451L170.485,290.451z"/>
		</g>
	</g>
</g>
</svg>
