<?xml version="1.0" encoding="iso-8859-1"?>
<!-- Generator: Adobe Illustrator 15.0.2, SVG Export Plug-In . SVG Version: 6.00 Build 0)  -->
<!DOCTYPE svg PUBLIC "-//W3C//DTD SVG 1.1//EN" "http://www.w3.org/Graphics/SVG/1.1/DTD/svg11.dtd">
<svg version="1.1" xmlns="http://www.w3.org/2000/svg" xmlns:xlink="http://www.w3.org/1999/xlink" x="0px" y="0px" width="300px"
	 height="300px" viewBox="0 0 300 300" style="enable-background:new 0 0 300 300;" xml:space="preserve">
<g id="color__x28_change_this_x29_">
	<path style="fill:#A5A6AA;" d="M286.575,254.841c-7.549-8.075-28.089-16.906-40.026-10.762
		c-8.176,4.209-14.623,6.094-18.823,12.063l-0.03-0.02c0.49-6.84,0.061-7.7-2.66-13.59c-0.1-0.271-0.22-0.54-0.38-0.811
		c-2.26-4.18-10.62-8.38-22.439-10.2l-1.19,0.271c-0.09-0.45-0.2-0.88-0.34-1.29l-0.16,0.02c0-0.02-0.01-0.04-0.01-0.06
		c-3.54-17.98-78.31-11.74-90.51,3.24c-1.271,1.55-1.86,3.189-1.641,4.91l-0.5,0.05h-0.01c-9.359,2.45-22.463,7.928-24.395,15.652
		c-11.06-7.9-28.414-5.196-35.935-0.526c-15.93,9.96-22.7,27.21-17.251,46.584h41.28h13.65h11.149h114.88h10.44h73.79l1.643-7.964
		C300,265.901,286.585,254.841,286.575,254.841z"/>
</g>
<g id="shadow">
	<path style="opacity:0.45;" d="M297.512,276.964c0.402,2.354,0.45,15.369-1.969,23.225v0.185h-13.468
		c1.225-1.846,2.435-4.154,3.683-7.062c4.103-10.385,4.15-28.569-8.742-46.199C287.694,253.49,295.867,264.567,297.512,276.964z"/>
	<path style="opacity:0.3;" d="M277.016,247.112c12.893,17.63,12.845,35.814,8.742,46.199c-1.248,2.907-2.458,5.216-3.683,7.062
		H221.38v-0.942c-2.332-17.168-1.139-30.091,4.781-39.886c3.32-5.51,8.149-9.033,14.679-12.763
		c11.84-6.793,25.301-6.169,36.168,0.32C277.016,247.103,277.016,247.112,277.016,247.112z"/>
	<path style="opacity:0.3;" d="M209.785,266.993c-0.01-0.04-0.01-0.09,0-0.13c10.841-5.96,17.19-13.87,15.44-23.61
		c-0.04-0.24-0.11-0.48-0.19-0.72c2.721,5.89,3.15,6.75,2.66,13.59l0.03,0.02c-7.49,10.61-9,24.61-6.05,43.21v1.021h-10.44
		C212.416,289.522,209.456,277.573,209.785,266.993z"/>
	<path style="opacity:0.3;" d="M201.025,231.793c1.3,5.97-0.54,15.42,1.03,21.09c-3.41,3.19-7.49,5.91-12.01,8.19
		c-0.05,0-0.101,0-0.15,0c-0.479-5.181-1.81-11.21-2.01-16.521c8.03-3.75,13.689-8.47,12.64-14.03l0.16-0.02
		C200.825,230.913,200.936,231.343,201.025,231.793z"/>
	<path style="opacity:0.45;" d="M187.886,244.553c-13.62,6.36-34.09,9.91-40.37,9.91c-9.87,0-47.32-4.46-37.51-20.76
		c12.2-14.98,86.97-21.221,90.51-3.24c0,0.02,0.01,0.04,0.01,0.06C201.575,236.083,195.916,240.803,187.886,244.553z"/>
	<path style="opacity:0.3;fill:#FFFFFF;" d="M87.966,247.693c3.979-3.461,10.53-6.58,19.89-9.03h0.01c0,8,0.65,14.8,2.65,22.8
		l-0.32,0.47c16.221,10.86,54.891,11.71,79.851-0.859c5.87-0.19,14.17,3.399,19.609,5.859c-26.649,14.59-80.149,17.53-107.01,7.33
		c-14.17-5.38-21.21-13.02-19.12-20.24C84.166,251.853,85.626,249.713,87.966,247.693z"/>
	<path style="opacity:0.5;fill:#FFFFFF;" d="M95.535,282.522c1.811,4.341,1.051,11.5,0.82,17.851H85.206
		c0-15.12,0.09-9.23-0.94-18.391c-0.18-1.609-0.39-3.68-0.65-6.399c-0.08-0.68-0.17-1.38-0.26-2.11
		C87.426,276.062,94.195,278.513,95.535,282.522z"/>
	<path style="opacity:0.45;" d="M83.936,284.565c0.864,7.873,0.789,2.811,0.789,15.808H73.267
		c4.961-4.178,8.788-9.902,10.282-15.782L83.936,284.565z"/>
	<path style="opacity:0.3;" d="M83.171,277.251c0.075,0.628,0.151,1.229,0.219,1.813c0.219,2.338,0.395,4.117,0.546,5.501
		l-0.387,0.025c-1.494,5.88-5.321,11.604-10.282,15.782H35.41c-1.746-13.977,1.174-27.033,13.884-35.07
		c6.009-3.851,20.926-8.028,18.13-15.808c7.168-0.205,10.23,1.111,15.687,5.169c-1.964,1.736,0.187,3.577-0.352,5.442
		C82.759,260.106,82.534,272.051,83.171,277.251z"/>
	<path style="opacity:0.3;fill:#FFFFFF;" d="M67.424,249.495c2.796,7.779-12.121,11.957-18.13,15.808
		c-12.71,8.037-15.63,21.094-13.884,35.07h-4.349c-5.749-17.131,1.286-36.795,14.656-45.356
		C52.031,251.003,59.979,249.702,67.424,249.495z"/>
</g>
<g id="outline">
	<g>
		<g>
			<path style="fill:#361211;" d="M107.797,238.634c-0.527,7.38-0.199,16.117,2.418,23.11c0.241,0.644,0.689-0.035,0.641-0.434
				c-0.93-7.587-2.286-14.996-2.926-22.653C107.922,238.562,107.806,238.512,107.797,238.634L107.797,238.634z"/>
		</g>
	</g>
	<g>
		<g>
			<path style="fill:#361211;" d="M109.502,261.501c4.935,4.885,12.322,6.649,18.922,7.989c8.429,1.711,17.104,1.973,25.668,1.48
				c17.132-0.984,35.924-5.695,48.754-17.706c0.561-0.524,0.076-2.294-0.66-1.604c-12.756,11.959-31.17,16.301-48.139,17.48
				c-15.726,1.093-30.147-1.527-44.524-7.722C109.481,261.402,109.483,261.482,109.502,261.501L109.502,261.501z"/>
		</g>
	</g>
	<g>
		<g>
			<path style="fill:#361211;" d="M202.523,253.315c-0.97-4.34-0.474-8.955-0.347-13.36c0.09-3.151,0.409-6.92-1.129-9.791
				c-0.297-0.555-0.826-0.198-0.78,0.345c0.631,7.465-0.797,16.056,1.686,23.193C202.145,254.253,202.609,253.698,202.523,253.315
				L202.523,253.315z"/>
		</g>
	</g>
	<g>
		<g>
			<path style="fill:#361211;" d="M108.594,238.653c-0.246-4.979,5.572-7.923,9.366-9.706c6.467-3.039,13.659-4.675,20.641-6
				c15.158-2.877,31.674-4.055,46.904-1.055c4.754,0.937,10.793,2.501,13.689,6.749c4.661,6.837-6.635,12.981-11.311,15.22
				c-8.103,3.879-17.05,6.167-25.815,7.957c-5.734,1.171-11.579,2.163-17.447,1.86c-9.852-0.508-42.75-3.965-34.025-20.365
				c0.138-0.26-0.078-0.921-0.367-0.529c-9.482,12.827,11.924,18.829,20.623,20.549c13.325,2.635,25.236,1.479,38.355-1.761
				c8.245-2.036,16.54-4.71,23.868-9.076c4.132-2.461,8.369-6.21,8.043-11.433c-0.611-9.789-16.562-11.312-23.589-11.982
				c-15.868-1.515-32.608,0.169-47.995,4.243c-6.318,1.673-22.862,6.004-21.373,15.43
				C108.221,239.135,108.609,238.984,108.594,238.653L108.594,238.653z"/>
		</g>
	</g>
	<g>
		<g>
			<path style="fill:#361211;" d="M107.85,238.29c-11.447,2.488-33.985,12.381-21.346,26.854
				c10.552,12.082,31.011,14.396,45.994,15.363c18.566,1.198,37.511-0.103,55.568-4.673c12.615-3.192,28.631-8.729,35.528-20.756
				c1.95-3.4,3.317-8.9,1.731-12.707c-3.291-7.904-15.723-10.741-23.128-11.653c-0.642-0.079-0.688,1.453-0.102,1.576
				c5.908,1.241,11.855,2.423,17.241,5.273c4.799,2.541,6.416,6.309,5.596,11.528c-1.064,6.763-6.663,11.846-12.133,15.351
				c-14.629,9.375-33.594,12.457-50.545,14.252c-18.047,1.911-37.045,1.634-54.584-3.441c-8.373-2.424-19.199-6.692-23.229-15.051
				c-5.066-10.507,11.465-17.16,18.575-19.613c1.625-0.561,3.279-1.044,4.913-1.576C108.195,238.932,108.141,238.227,107.85,238.29
				L107.85,238.29z"/>
		</g>
	</g>
	<g>
		<g>
			<path style="fill:#361211;" d="M84.384,251.106c-5.701,8.16-2.163,21.623-1.282,30.733c0.6,6.208,0.146,13.266,1.554,19.239
				c0.195,0.826,0.929,0.745,1.112-0.027c3.918-16.427-5.957-33.277-1.177-49.714C84.626,251.216,84.52,250.911,84.384,251.106
				L84.384,251.106z"/>
		</g>
	</g>
	<g>
		<g>
			<path style="fill:#361211;" d="M83.478,254.712c-12.517-11.56-33.168-6.686-44.227,4.456
				c-10.273,10.352-15.082,29.802-8.634,43.277c0.273,0.57,0.697,0.003,0.615-0.417c-1.652-8.423-2.643-16.077-0.467-24.539
				c1.823-7.092,5.766-13.531,11.096-18.51c11.082-10.353,28.815-11.84,41.571-4.088C83.512,254.939,83.522,254.753,83.478,254.712
				L83.478,254.712z"/>
		</g>
	</g>
	<g>
		<g>
			<path style="fill:#361211;" d="M221.542,299.437c-1.604-13.176-1.958-27.343,5.409-38.974
				c6.775-10.693,19.896-17.314,32.396-16.912c12.887,0.416,24.81,8.492,31.716,19.044c7.407,11.317,6.086,24.836,3.821,37.509
				c-0.095,0.53,0.5,1.205,0.791,0.48c4.368-10.869,3.888-26.001-1.702-36.354c-6.764-12.527-19.187-21.294-33.434-22.713
				c-13.539-1.348-27.091,6.605-34.479,17.659c-7.802,11.672-6.684,27.2-4.853,40.411
				C221.257,299.939,221.575,299.711,221.542,299.437L221.542,299.437z"/>
		</g>
	</g>
	<g>
		<g>
			<path style="fill:#361211;" d="M224.628,241.748c0.856,2.481,1.989,4.863,2.499,7.453c0.461,2.343-0.186,4.74,0.287,7.048
				c0.065,0.32,0.409,0.451,0.541,0.095c1.851-4.999-0.741-10.455-3.277-14.658C224.646,241.634,224.617,241.718,224.628,241.748
				L224.628,241.748z"/>
		</g>
	</g>
	<g>
		<g id="XMLID_13_">
			<g>
				<path style="fill:#58595B;" d="M161.601,223.074c1.02,6.63,3.569,11.74-3.58,14.8c-1.12,0.56-2.29,0.9-3.47,1.05
					c5.359-15.46-1.33-33.37-2.08-49.279l7.55-0.261C160.021,200.624,160.07,212.344,161.601,223.074z"/>
				<path style="fill:#6D6E70;" d="M152.471,189.645c0.75,15.909,7.439,33.819,2.08,49.279c-4.2,0.57-8.551-1.2-11.341-3.6
					c-2.04-11.74-2.04-33.04-2.04-45.3L152.471,189.645z"/>
			</g>
			<g>
			</g>
		</g>
		<g>
			<g>
				<path style="fill:#361211;" d="M142.18,224.166c6.559,3.667,13.721,2.283,19.556-1.784c0.238-0.166,0.128-0.796-0.215-0.709
					c-2.491,0.636-4.234,2.621-6.736,3.409c-4.23,1.334-8.548,0.36-12.581-1.066C142.128,223.988,142.127,224.137,142.18,224.166
					L142.18,224.166z"/>
			</g>
		</g>
		<g>
			<g>
				<path style="fill:#361211;" d="M141.161,209.849c5.497,2.102,14.51,4.479,19.028-0.777c0.13-0.151,0.097-0.831-0.193-0.638
					c-5.892,3.916-12.278,3.367-18.817,1.302C141.124,209.718,141.115,209.831,141.161,209.849L141.161,209.849z"/>
			</g>
		</g>
		<g>
			<g>
				<path style="fill:#361211;" d="M141.155,198.651c5.905,2.615,14.383,2.396,19.518-1.904c0.142-0.118,0.094-0.589-0.151-0.496
					c-6.703,2.554-12.124,4.467-19.337,2.211C141.092,198.433,141.082,198.619,141.155,198.651L141.155,198.651z"/>
			</g>
		</g>
		<g>
			<g>
				<path style="fill:#361211;" d="M141.042,190.028c-0.471,10.33-0.282,20.742,0.158,31.07c0.191,4.494,0.536,8.977,1.175,13.43
					c0.492,3.437,5.323,4.746,8.219,5.4c6.592,1.492,13.791-2.896,12.975-9.987c-0.689-5.989-1.917-11.852-2.408-17.891
					c-0.613-7.539-0.52-15.12-0.603-22.677c-0.003-0.293-0.171-0.827-0.554-0.801c-6.27,0.418-12.56,1.044-18.839,1.257
					c-0.175,0.006-0.164,0.396,0.01,0.391c5.58-0.189,11.196-0.012,16.78-0.018c2.038-0.002,1.53-0.461,1.515,1.074
					c-0.039,3.787,0.01,7.578,0.072,11.365c0.114,6.931,0.394,13.882,1.323,20.756c0.36,2.665,1.135,5.231,1.259,7.932
					c0.228,4.986-6.294,6.536-9.933,6.557c-3.159,0.018-8.146-1.626-8.675-5.091c-0.448-2.932-0.705-5.895-0.953-8.85
					c-0.95-11.293-0.748-22.616-1.266-33.924C141.287,189.779,141.053,189.792,141.042,190.028z"/>
			</g>
		</g>
	</g>
	<g>
		<g>
			<path style="fill:#361211;" d="M114.952,256.84c1.196,0,1.141-2.695-0.066-2.695C113.689,254.145,113.745,256.84,114.952,256.84
				L114.952,256.84z"/>
		</g>
	</g>
	<g>
		<g>
			<path style="fill:#361211;" d="M125.662,260.92c1.196,0,1.141-2.695-0.066-2.695C124.399,258.225,124.455,260.92,125.662,260.92
				L125.662,260.92z"/>
		</g>
	</g>
	<g>
		<g>
			<path style="fill:#361211;" d="M137.903,263.471c1.196,0,1.141-2.695-0.066-2.695
				C136.641,260.775,136.696,263.471,137.903,263.471L137.903,263.471z"/>
		</g>
	</g>
	<g>
		<g>
			<path style="fill:#361211;" d="M153.715,262.45c1.196,0,1.141-2.695-0.066-2.695C152.452,259.755,152.508,262.45,153.715,262.45
				L153.715,262.45z"/>
		</g>
	</g>
	<g>
		<g>
			<path style="fill:#361211;" d="M170.547,260.41c1.196,0,1.141-2.695-0.066-2.695C169.284,257.715,169.34,260.41,170.547,260.41
				L170.547,260.41z"/>
		</g>
	</g>
	<g>
		<g>
			<path style="fill:#361211;" d="M183.298,256.84c1.196,0,1.141-2.695-0.066-2.695C182.035,254.145,182.091,256.84,183.298,256.84
				L183.298,256.84z"/>
		</g>
	</g>
	<g>
		<g>
			<path style="fill:#361211;" d="M194.519,251.229c1.196,0,1.141-2.695-0.066-2.695
				C193.256,248.533,193.312,251.229,194.519,251.229L194.519,251.229z"/>
		</g>
	</g>
	<g>
		<g>
			<path style="fill:#361211;" d="M273.944,245.672c-7.806,3.748-8.02,16.727-7.904,23.922c0.17,10.607,2.126,21.97,6.019,31.858
				c0.124,0.313,0.396,0.002,0.334-0.226c-4.466-16.5-11.757-41.322,1.634-55.283C274.089,245.878,274.079,245.606,273.944,245.672
				L273.944,245.672z"/>
		</g>
	</g>
	<g>
		<g>
			<path style="fill:#361211;" d="M46.386,254.111c-7.451,4.474-8.879,14.186-9.181,22.13c-0.357,9.437,1.069,19.908,5.144,28.503
				c0.103,0.216,0.259-0.035,0.199-0.186c-3.118-7.788-4.466-16.411-4.757-24.755c-0.306-8.752,0.818-19.952,8.711-25.309
				C46.628,254.41,46.547,254.015,46.386,254.111L46.386,254.111z"/>
		</g>
	</g>
</g>
</svg>
