<?xml version="1.0" encoding="iso-8859-1"?>
<!-- Generator: Adobe Illustrator 15.0.2, SVG Export Plug-In . SVG Version: 6.00 Build 0)  -->
<!DOCTYPE svg PUBLIC "-//W3C//DTD SVG 1.1//EN" "http://www.w3.org/Graphics/SVG/1.1/DTD/svg11.dtd">
<svg version="1.1" xmlns="http://www.w3.org/2000/svg" xmlns:xlink="http://www.w3.org/1999/xlink" x="0px" y="0px" width="300px"
	 height="300px" viewBox="0 0 300 300" style="enable-background:new 0 0 300 300;" xml:space="preserve">
<g id="color__x28_change_this_x29_">
	<path style="fill:#A6A8AB;" d="M275.639,247.644c-0.4-0.65-0.82-1.13-1.26-1.46c-0.92-0.95-1.9-1.78-2.94-2.49
		c-9.94-6.96-25.36-6.46-36.8-5.47c-2.15,0.2-4.23,0.68-6.24,1.4l-0.17-0.45c-2.37-3.09-5.08-5.82-8.19-8.03
		c-3.41-2.45-7.3-4.29-11.76-5.35c-23.87-5.97-58.19-1-81.06,7.46c-6.67,2.5-13.51,7.18-19.83,12.84
		c-9.68,2.63-17.57,3.91-25.66,8.57c-1.73,0.99-3.47,2.14-5.24,3.49c-17.69,13.38-23.43,23.06-27.83,43.23h6.77h21.29h7.7h84.91
		h22.63h63.36h31.96C285.979,275.293,283.189,256.984,275.639,247.644z"/>
</g>
<g id="shadow">
	<path style="opacity:0.3;" d="M275.639,247.644c7.55,9.34,10.34,27.65,11.64,53.74h-31.96c-0.75-10.21,1.22-22.55,3.19-30.83
		c0.89-3.56,9.74-29,15.87-24.37C274.819,246.644,275.249,247.124,275.639,247.644z"/>
	<path style="opacity:0.3;" d="M228.229,239.174l0.17,0.45c-20.37,7.28-33.57,39.48-36.44,61.76h-22.63
		c1.03-15.81,4.66-32.77,13.59-45.75c7.51-11.27,22.12-26.98,37.12-24.49C223.149,233.354,225.859,236.083,228.229,239.174z"/>
	<path style="opacity:0.5;fill:#FFFFFF;" d="M91.629,263.484c5.14,3.83,4.45,9.72,1.38,15.85c-3.41,6.84-6.94,14.34-8.59,22.05h-7.7
		c0.97-9.96,4.9-21.15,9.22-29.34C87.549,269.293,89.469,266.404,91.629,263.484z"/>
	<path style="opacity:0.5;fill:#FFFFFF;" d="M81.729,254.664c0.91,3.95-7.2,12.16-9.3,15.2c-6.65,9.47-14.1,20.24-17,31.52h-6.77
		c4.4-20.17,10.14-29.85,27.83-43.23C78.259,256.804,79.999,255.654,81.729,254.664z"/>
</g>
<g id="outline">
	<g>
		<g>
			<path style="fill:#361211;" d="M76.652,305.859c1.86-32.869,27.841-64.375,58.868-73.899c15.913-4.885,32.759-7.328,49.395-7.341
				c7.778-0.006,15.601,0.716,23.121,2.746c8.042,2.172,13.943,7.455,19.716,13.155c1.206,1.189,1.645-1.688,1.168-2.453
				c-8.956-14.371-27.072-15.99-42.517-16.322c-17.802-0.383-35.855,2.652-52.844,7.866c-16.633,5.106-29.257,16.176-40.017,29.578
				c-10.584,13.184-17.571,29.594-17.223,46.678C76.325,306.186,76.635,306.164,76.652,305.859L76.652,305.859z"/>
		</g>
	</g>
	<g>
		<g>
			<path style="fill:#361211;" d="M222.783,231.249c-16.354-6.193-32.216,12.077-40.2,23.902
				c-10.896,16.138-14.622,37.497-13.797,56.686c0.017,0.39,0.391,0.368,0.41-0.01c0.98-18.944,2.797-37.97,13.182-54.412
				c8.675-13.734,22.811-28.138,40.338-25.128C223.149,232.361,223.135,231.383,222.783,231.249L222.783,231.249z"/>
		</g>
	</g>
	<g>
		<g>
			<path style="fill:#361211;" d="M191.422,309.841c0.465-14.432,5.022-29.062,11.375-41.933
				c6.005-12.165,15.681-25.459,29.88-28.077c8.438-1.556,18.263-1.181,26.641,0.438c7.309,1.412,13.677,4.918,17.662,11.265
				c9.367,14.915,7.271,34.913,9.924,51.549c0.137,0.859,0.888,0.449,0.927-0.215c0.63-10.786-0.801-21.994-2.638-32.627
				c-1.246-7.21-3.169-14.473-6.897-20.823c-8.66-14.752-30.91-14.712-45.685-12.265c-14.765,2.445-24.565,17.189-30.648,29.551
				c-6.471,13.15-10.864,28.395-10.645,43.139C191.321,309.94,191.419,309.936,191.422,309.841L191.422,309.841z"/>
		</g>
	</g>
	<g>
		<g>
			<path style="fill:#361211;" d="M276.589,249.005c-5.271-11.744-13.804,8.772-15.554,13.092
				c-2.366,5.84-3.822,11.649-4.888,17.874c-1.502,8.776-3.349,20.564,0.191,29.049c0.129,0.311,0.429,0.084,0.402-0.178
				c-1.484-14.164-1.233-28.756,3.524-42.389c1.445-4.142,10.586-28.297,15.979-17.124
				C276.422,249.7,276.708,249.268,276.589,249.005L276.589,249.005z"/>
		</g>
	</g>
	<g>
		<g>
			<path style="fill:#361211;" d="M108.788,245.498c-8.317,1.161-16.81,3.216-24.461,6.716c-7.518,3.439-14.228,9.359-20.005,15.176
				c-9.208,9.271-15.889,23.377-16.683,36.498c-0.037,0.61,0.669,1.075,0.941,0.361c2.36-6.193,3.193-12.852,5.759-19.037
				c2.659-6.408,6.789-11.96,11.64-16.869c5.802-5.873,12.626-11.265,20.071-14.843c7.259-3.489,15.375-4.508,22.785-7.581
				C108.979,245.86,108.968,245.473,108.788,245.498L108.788,245.498z"/>
		</g>
	</g>
	<g>
		<g>
			<path style="fill:#361211;" d="M165.924,230.682c-7.294-1.573-15.288-2.056-22.559-0.092c-4.202,1.135-12.319,4.101-12.409,9.702
				c-0.141,8.795,16.886,11.991,23.404,11.557c8.812-0.586,26.193-3.841,26.711-15.179c0.454-9.921-20.592-8.367-26.215-7.453
				c-0.204,0.033-0.198,0.483,0.012,0.469c7.125-0.5,20.002-1.808,24.873,4.632c4.407,5.827-5.957,11.407-9.892,13.007
				c-4.67,1.899-9.781,2.861-14.784,3.341c-7.089,0.681-18.345-1.556-22.816-7.587c-5.416-7.306,11.216-11.829,15.268-12.463
				c6.036-0.944,12.387-0.745,18.393,0.296C166.001,230.928,166.011,230.701,165.924,230.682L165.924,230.682z"/>
		</g>
	</g>
	<g>
		<g id="XMLID_60_">
			<g>
				<path style="fill:#58595B;" d="M166.894,214.542c0.3,4.54,0.41,8.96,0.34,13.13c-1.41,0.82-3.07,1.55-4.87,2.15
					c0.2-3.8,0.15-7.53-0.2-10.72c-0.05-0.42-0.14-1.04-0.27-1.83C163.764,216.391,165.474,215.411,166.894,214.542z"/>
				<path style="fill:#58595B;" d="M167.233,227.671c-0.07,4.43-0.35,8.56-0.87,12.23c-1.39,1.16-3.35,2.1-5.55,2.76
					c0.77-3.88,1.33-8.41,1.55-12.84C164.164,229.221,165.824,228.491,167.233,227.671z"/>
				<path style="fill:#58595B;" d="M165.744,202.361c0.51,4.09,0.9,8.18,1.15,12.18c-1.42,0.87-3.13,1.85-5,2.73
					c-0.41-2.53-1.21-6.83-2.27-12.07C161.644,204.651,163.674,203.721,165.744,202.361z"/>
				<path style="fill:#58595B;" d="M162.954,185.751c1.15,5.35,2.09,10.97,2.79,16.61c-2.07,1.36-4.1,2.29-6.12,2.84
					c-0.89-4.43-1.98-9.53-3.16-14.79c2.19-1.1,4.22-2.65,5.96-4.55L162.954,185.751z"/>
				<path style="fill:#58595B;" d="M162.954,185.751l-0.53,0.11c-1.74,1.9-3.77,3.45-5.96,4.55c-0.8-3.5-1.64-7.06-2.51-10.54
					c2.42-0.69,4.65-1.76,6.31-3.09l0.45-0.13C161.534,179.551,162.284,182.601,162.954,185.751z"/>
				<path style="fill:#6D6E70;" d="M162.164,219.101c0.35,3.19,0.4,6.92,0.2,10.72c-5.82,1.93-13.04,2.44-17.65-0.33l-0.45-0.05
					c0.49-3.9,0.81-8.08,0.95-12.41c4.15,4.7,11.09,2.89,16.68,0.24C162.023,218.061,162.114,218.681,162.164,219.101z"/>
				<path style="fill:#6D6E70;" d="M162.364,229.821c-0.22,4.43-0.78,8.96-1.55,12.84c-6.53,1.94-15.28,1.35-18.25-3.73
					c0.71-2.88,1.27-6.08,1.7-9.49l0.45,0.05C149.324,232.261,156.543,231.751,162.364,229.821z"/>
				<path style="fill:#58595B;" d="M160.714,176.651l-0.45,0.13c-1.66,1.33-3.89,2.4-6.31,3.09c-1.32-5.29-2.69-10.4-4.05-14.78
					c2.11-0.34,4.24-0.72,6.37-1.14C157.914,167.651,159.404,171.961,160.714,176.651z"/>
				<path style="fill:#6D6E70;" d="M159.624,205.201c1.06,5.24,1.86,9.54,2.27,12.07c-5.59,2.65-12.53,4.46-16.68-0.24
					c0.14-4.09,0.12-8.31-0.07-12.55l1.3-0.05C151.094,205.881,155.354,206.361,159.624,205.201z"/>
				<path style="fill:#6D6E70;" d="M156.464,190.411c1.18,5.26,2.27,10.36,3.16,14.79c-4.27,1.16-8.53,0.68-13.18-0.77l-1.3,0.05
					c-0.17-4.22-0.5-8.45-0.98-12.57l0.12-0.01C148.394,193.001,152.674,192.361,156.464,190.411z"/>
				<path style="fill:#6D6E70;" d="M153.954,179.871c0.87,3.48,1.71,7.04,2.51,10.54c-3.79,1.95-8.07,2.59-12.18,1.49l-0.12,0.01
					c-0.49-4.16-1.13-8.21-1.93-12.03l0.32-0.07C145.744,181.141,150.083,181.001,153.954,179.871z"/>
				<path style="fill:#6D6E70;" d="M149.904,165.091c1.36,4.38,2.73,9.49,4.05,14.78c-3.87,1.13-8.21,1.27-11.4-0.06l-0.32,0.07
					c-1-4.76-2.24-9.17-3.71-12.98l-0.02-0.12C142.184,166.251,146.014,165.721,149.904,165.091z"/>
			</g>
			<g>
			</g>
		</g>
		<g>
			<g>
				<path style="fill:#361211;" d="M142.596,239.033c3.178-11.76,3.577-24.152,3.086-36.264c-0.267-6.581-0.965-13.155-2.013-19.656
					c-0.842-5.224-1.642-12.27-4.872-16.649c-0.399-0.542-0.694,0.257-0.65,0.604c0.665,5.159,2.724,10.194,3.756,15.315
					c1.356,6.738,2.134,13.561,2.564,20.416c0.753,12.012,0.41,24.353-1.966,36.176
					C142.488,239.039,142.572,239.123,142.596,239.033L142.596,239.033z"/>
			</g>
		</g>
		<g>
			<g>
				<path style="fill:#361211;" d="M137.666,167.015c3.112,0.248,6.271-0.389,9.356-0.782c3.272-0.417,6.616-0.752,9.796-1.647
					c0.532-0.149,0.438-1.521-0.165-1.454c-3.24,0.359-6.453,1.16-9.665,1.731c-3.123,0.556-6.364,0.812-9.349,1.923
					C137.553,166.818,137.57,167.007,137.666,167.015L137.666,167.015z"/>
			</g>
		</g>
		<g>
			<g>
				<path style="fill:#361211;" d="M155.97,163.995c3.6,12.122,6.877,23.905,8.626,36.477c1.009,7.252,1.549,14.569,1.714,21.888
					c0.135,5.979-0.507,11.97-0.255,17.938c0.012,0.288,0.348,0.58,0.482,0.186c1.804-5.275,1.669-11.25,1.631-16.758
					c-0.049-7.022-0.646-14.034-1.475-21.003c-1.509-12.699-3.519-27.987-10.263-39.156
					C156.198,163.179,155.894,163.739,155.97,163.995L155.97,163.995z"/>
			</g>
		</g>
		<g>
			<g>
				<path style="fill:#361211;" d="M144.696,229.585c6.33,3.763,17.408,3.087,22.988-2.003c0.142-0.129,0.103-0.64-0.161-0.532
					c-7.493,3.066-14.797,6.136-22.798,2.346C144.639,229.355,144.63,229.546,144.696,229.585L144.696,229.585z"/>
			</g>
		</g>
		<g>
			<g>
				<path style="fill:#361211;" d="M145.064,217.088c5.359,6.147,17.159,2.758,22.241-2.4c0.179-0.182,0.147-0.767-0.205-0.674
					c-3.018,0.802-5.852,3.017-8.828,4.141c-4.46,1.686-9.325,2.01-13.075-1.346C145.062,216.688,144.986,216.999,145.064,217.088
					L145.064,217.088z"/>
			</g>
		</g>
		<g>
			<g>
				<path style="fill:#361211;" d="M146.416,204.585c6.271,2.316,14.381,3.202,19.635-1.894c0.233-0.227,0.186-1.039-0.269-0.887
					c-3.301,1.105-5.914,2.783-9.478,3.307c-3.215,0.472-6.721-0.137-9.842-0.829C146.312,204.25,146.293,204.541,146.416,204.585
					L146.416,204.585z"/>
			</g>
		</g>
		<g>
			<g>
				<path style="fill:#361211;" d="M144.27,191.963c6.605,2.048,13.861-0.481,18.311-5.722c0.214-0.251,0.064-1.112-0.316-0.768
					c-5.211,4.704-10.812,7.448-17.987,6.374C144.23,191.841,144.229,191.951,144.27,191.963L144.27,191.963z"/>
			</g>
		</g>
		<g>
			<g>
				<path style="fill:#361211;" d="M142.536,179.905c5.085,2.355,13.972,1.768,17.892-2.719c0.184-0.21,0.188-1.034-0.258-0.851
					c-2.415,0.999-4.467,2.414-7.033,3.169c-3.285,0.966-7.268,1.113-10.572,0.211C142.471,179.69,142.464,179.872,142.536,179.905
					L142.536,179.905z"/>
			</g>
		</g>
		<g>
			<g>
				<path style="fill:#361211;" d="M142.174,238.416c3.709,8.57,19.458,7.567,25.138,1.826c0.553-0.559,0.174-2.454-0.716-1.736
					c-6.188,4.984-19.14,7.209-24.285-0.26C142.219,238.114,142.136,238.329,142.174,238.416L142.174,238.416z"/>
			</g>
		</g>
	</g>
	<g>
		<g>
			<path style="fill:#361211;" d="M137.401,241.546c1.317,0,1.256-2.968-0.073-2.968
				C136.011,238.578,136.072,241.546,137.401,241.546L137.401,241.546z"/>
		</g>
	</g>
	<g>
		<g>
			<path style="fill:#361211;" d="M142.961,247.477c1.317,0,1.256-2.968-0.073-2.968
				C141.571,244.509,141.632,247.477,142.961,247.477L142.961,247.477z"/>
		</g>
	</g>
	<g>
		<g>
			<path style="fill:#361211;" d="M154.823,248.589c1.317,0,1.256-2.968-0.073-2.968
				C153.432,245.621,153.493,248.589,154.823,248.589L154.823,248.589z"/>
		</g>
	</g>
	<g>
		<g>
			<path style="fill:#361211;" d="M166.685,246.365c1.317,0,1.256-2.968-0.073-2.968
				C165.294,243.397,165.355,246.365,166.685,246.365L166.685,246.365z"/>
		</g>
	</g>
	<g>
		<g>
			<path style="fill:#361211;" d="M174.098,238.951c1.317,0,1.256-2.968-0.073-2.968
				C172.707,235.983,172.768,238.951,174.098,238.951L174.098,238.951z"/>
		</g>
	</g>
	<g>
		<g>
			<path style="fill:#361211;" d="M168.909,234.503c1.317,0,1.256-2.968-0.073-2.968
				C167.518,231.535,167.579,234.503,168.909,234.503L168.909,234.503z"/>
		</g>
	</g>
</g>
</svg>
