<?xml version="1.0" encoding="iso-8859-1"?>
<!-- Generator: Adobe Illustrator 15.0.2, SVG Export Plug-In . SVG Version: 6.00 Build 0)  -->
<!DOCTYPE svg PUBLIC "-//W3C//DTD SVG 1.1//EN" "http://www.w3.org/Graphics/SVG/1.1/DTD/svg11.dtd">
<svg version="1.1" xmlns="http://www.w3.org/2000/svg" xmlns:xlink="http://www.w3.org/1999/xlink" x="0px" y="0px" width="300px"
	 height="300px" viewBox="0 0 300 300" style="enable-background:new 0 0 300 300;" xml:space="preserve">
<g id="color__x28_change_this_x29_">
	<path style="fill:#A6A8AB;" d="M317.996,275.013c-2.08-13.43-12.421-25.43-25.931-32.34c0,0,0-0.01-0.01-0.01
		c-13.75-7.03-30.78-8.79-45.76-1.431c-8.261,4.04-14.37,8.94-18.57,14.91l-0.03-0.02c0.49-6.84,0.061-7.7-2.66-13.59
		c-0.1-0.271-0.22-0.54-0.38-0.811c-2.26-4.18-10.62-8.38-22.439-10.2l-1.19,0.271c-0.09-0.45-0.2-0.88-0.34-1.29l-0.16,0.02
		c0-0.02-0.01-0.04-0.01-0.06c-3.54-17.98-78.31-11.74-90.51,3.24c-1.271,1.55-1.86,3.189-1.641,4.91l-0.5,0.05h-0.01
		c-9.359,2.45-15.91,5.569-19.89,9.03c-6.5-4.721-14.83-6.75-23.37-6.511c-8.87,0.24-17.97,2.931-25.49,7.601
		c-15.93,9.96-24.68,31.66-17.83,51.59h5.181h45.1h13.65h11.149h114.88h10.44h76.79h17.04v-0.2
		C318.565,291.663,318.506,277.562,317.996,275.013z"/>
</g>
<g id="shadow">
	<path style="opacity:0.45;" d="M317.996,275.013c0.51,2.55,0.569,16.65-2.49,25.16v0.2h-17.04c1.55-2,3.08-4.5,4.66-7.65
		c5.189-11.25,5.25-30.95-11.061-50.05C305.575,249.583,315.916,261.583,317.996,275.013z"/>
	<path style="opacity:0.3;" d="M292.065,242.673c16.311,19.1,16.25,38.8,11.061,50.05c-1.58,3.15-3.11,5.65-4.66,7.65h-76.79v-1.021
		c-2.95-18.6-1.44-32.6,6.05-43.21c4.2-5.97,10.31-10.87,18.57-14.91c14.979-7.359,32.01-5.6,45.76,1.431
		C292.065,242.663,292.065,242.673,292.065,242.673z"/>
	<path style="opacity:0.3;" d="M209.785,266.993c-0.01-0.04-0.01-0.09,0-0.13c10.841-5.96,17.19-13.87,15.44-23.61
		c-0.04-0.24-0.11-0.48-0.19-0.72c2.721,5.89,3.15,6.75,2.66,13.59l0.03,0.02c-7.49,10.61-9,24.61-6.05,43.21v1.021h-10.44
		C212.416,289.522,209.456,277.573,209.785,266.993z"/>
	<path style="opacity:0.3;" d="M201.025,231.793c1.3,5.97-0.54,15.42,1.03,21.09c-3.41,3.19-7.49,5.91-12.01,8.19
		c-0.05,0-0.101,0-0.15,0c-0.479-5.181-1.81-11.21-2.01-16.521c8.03-3.75,13.689-8.47,12.64-14.03l0.16-0.02
		C200.825,230.913,200.936,231.343,201.025,231.793z"/>
	<path style="opacity:0.45;" d="M187.886,244.553c-13.62,6.36-34.09,9.91-40.37,9.91c-9.87,0-47.32-4.46-37.51-20.76
		c12.2-14.98,86.97-21.221,90.51-3.24c0,0.02,0.01,0.04,0.01,0.06C201.575,236.083,195.916,240.803,187.886,244.553z"/>
	<path style="opacity:0.3;fill:#FFFFFF;" d="M87.966,247.693c3.979-3.461,10.53-6.58,19.89-9.03h0.01c0,8,0.65,14.8,2.65,22.8
		l-0.32,0.47c16.221,10.86,54.891,11.71,79.851-0.859c5.87-0.19,14.17,3.399,19.609,5.859c-26.649,14.59-80.149,17.53-107.01,7.33
		c-14.17-5.38-21.21-13.02-19.12-20.24C84.166,251.853,85.626,249.713,87.966,247.693z"/>
	<path style="opacity:0.5;fill:#FFFFFF;" d="M95.535,282.522c1.811,4.341,1.051,11.5,0.82,17.851H85.206
		c0-15.12,0.09-9.23-0.94-18.391c-0.18-1.609-0.39-3.68-0.65-6.399c-0.08-0.68-0.17-1.38-0.26-2.11
		C87.426,276.062,94.195,278.513,95.535,282.522z"/>
	<path style="opacity:0.45;" d="M84.266,281.982c1.03,9.16,0.94,3.271,0.94,18.391h-13.65c5.91-4.86,10.47-11.521,12.25-18.36
		L84.266,281.982z"/>
	<path style="opacity:0.3;" d="M83.355,273.473c0.09,0.73,0.18,1.431,0.26,2.11c0.261,2.72,0.471,4.79,0.65,6.399l-0.46,0.03
		c-1.78,6.84-6.34,13.5-12.25,18.36h-45.1c-2.08-16.26,1.399-31.45,16.54-40.8c7.159-4.48,24.93-9.341,21.6-18.391
		c8.54-0.239,16.87,1.79,23.37,6.511c-2.34,2.02-3.8,4.159-4.44,6.329l-0.149-0.04C81.655,259.793,82.596,267.423,83.355,273.473z"
		/>
	<path style="opacity:0.3;fill:#FFFFFF;" d="M64.596,241.183c3.33,9.05-14.44,13.91-21.6,18.391
		c-15.141,9.35-18.62,24.54-16.54,40.8h-5.181c-6.85-19.93,1.9-41.63,17.83-51.59C46.626,244.113,55.726,241.423,64.596,241.183z"/>
</g>
<g id="outline">
	<g>
		<g>
			<path style="fill:#361211;" d="M107.797,238.634c-0.527,7.38-0.199,16.117,2.418,23.11c0.241,0.644,0.689-0.035,0.641-0.434
				c-0.93-7.587-2.286-14.996-2.926-22.653C107.922,238.562,107.806,238.512,107.797,238.634L107.797,238.634z"/>
		</g>
	</g>
	<g>
		<g>
			<path style="fill:#361211;" d="M109.502,261.501c4.935,4.885,12.322,6.649,18.922,7.989c8.429,1.711,17.104,1.973,25.668,1.48
				c17.132-0.984,35.924-5.695,48.754-17.706c0.561-0.524,0.076-2.294-0.66-1.604c-12.756,11.959-31.17,16.301-48.139,17.48
				c-15.726,1.093-30.147-1.527-44.524-7.722C109.481,261.402,109.483,261.482,109.502,261.501L109.502,261.501z"/>
		</g>
	</g>
	<g>
		<g>
			<path style="fill:#361211;" d="M202.523,253.315c-0.97-4.34-0.474-8.955-0.347-13.36c0.09-3.151,0.409-6.92-1.129-9.791
				c-0.297-0.555-0.826-0.198-0.78,0.345c0.631,7.465-0.797,16.056,1.686,23.193C202.145,254.253,202.609,253.698,202.523,253.315
				L202.523,253.315z"/>
		</g>
	</g>
	<g>
		<g>
			<path style="fill:#361211;" d="M108.594,238.653c-0.246-4.979,5.572-7.923,9.366-9.706c6.467-3.039,13.659-4.675,20.641-6
				c15.158-2.877,31.674-4.055,46.904-1.055c4.754,0.937,10.793,2.501,13.689,6.749c4.661,6.837-6.635,12.981-11.311,15.22
				c-8.103,3.879-17.05,6.167-25.815,7.957c-5.734,1.171-11.579,2.163-17.447,1.86c-9.852-0.508-42.75-3.965-34.025-20.365
				c0.138-0.26-0.078-0.92-0.367-0.529c-9.482,12.827,11.924,18.829,20.623,20.549c13.325,2.635,25.236,1.479,38.355-1.761
				c8.245-2.036,16.54-4.71,23.868-9.076c4.132-2.461,8.369-6.21,8.043-11.433c-0.611-9.789-16.562-11.312-23.589-11.982
				c-15.868-1.515-32.608,0.169-47.995,4.243c-6.318,1.673-22.862,6.004-21.373,15.43
				C108.221,239.135,108.609,238.984,108.594,238.653L108.594,238.653z"/>
		</g>
	</g>
	<g>
		<g>
			<path style="fill:#361211;" d="M107.85,238.29c-11.447,2.488-33.985,12.381-21.346,26.854
				c10.552,12.082,31.011,14.396,45.994,15.363c18.566,1.198,37.511-0.103,55.568-4.673c12.615-3.192,28.631-8.729,35.528-20.756
				c1.95-3.4,3.317-8.9,1.731-12.707c-3.291-7.904-15.723-10.741-23.128-11.653c-0.642-0.079-0.688,1.453-0.102,1.576
				c5.908,1.241,11.855,2.423,17.241,5.273c4.799,2.541,6.416,6.309,5.596,11.528c-1.064,6.763-6.663,11.846-12.133,15.351
				c-14.629,9.375-33.594,12.457-50.545,14.252c-18.047,1.911-37.045,1.634-54.584-3.441c-8.373-2.424-19.199-6.692-23.229-15.051
				c-5.066-10.507,11.465-17.16,18.575-19.613c1.625-0.561,3.279-1.044,4.913-1.576C108.195,238.932,108.141,238.227,107.85,238.29
				L107.85,238.29z"/>
		</g>
	</g>
	<g>
		<g>
			<path style="fill:#361211;" d="M84.384,251.106c-5.701,8.16-2.163,21.623-1.282,30.733c0.6,6.208,0.146,13.266,1.554,19.239
				c0.195,0.826,0.929,0.745,1.112-0.027c3.918-16.427-5.957-33.277-1.177-49.714C84.626,251.216,84.52,250.911,84.384,251.106
				L84.384,251.106z"/>
		</g>
	</g>
	<g>
		<g>
			<path style="fill:#361211;" d="M88.103,247.657c-15.37-13.093-40.68-8.068-54.908,4.259
				c-13.038,11.296-20.278,34.479-11.673,50.358c0.323,0.597,0.746-0.279,0.671-0.625c-2.111-9.748-3.401-18.395-0.532-28.193
				c2.463-8.415,7.712-15.811,14.478-21.303c14.265-11.579,36.048-13.006,51.911-4.28C88.146,247.927,88.16,247.706,88.103,247.657
				L88.103,247.657z"/>
		</g>
	</g>
	<g>
		<g>
			<path style="fill:#361211;" d="M221.871,299.27c-2.154-14.922-2.245-30.768,7.115-43.402c9.238-12.47,26.05-18.783,41.153-18.051
				c15.261,0.739,30.303,8.813,39.605,20.849c9.438,12.211,8.493,27.012,5.271,41.321c-0.146,0.646,0.557,1.374,0.929,0.564
				c3.182-6.931,3.508-15.595,3.237-23.126c-0.228-6.318-2.824-12.404-6.129-17.696c-8.819-14.122-25.391-22.724-41.644-24.301
				c-16.317-1.584-33.444,6.01-43.462,18.939c-9.798,12.646-8.876,30.181-6.47,45.078
				C221.546,299.857,221.917,299.593,221.871,299.27L221.871,299.27z"/>
		</g>
	</g>
	<g>
		<g>
			<path style="fill:#361211;" d="M224.628,241.748c0.856,2.481,1.989,4.863,2.499,7.453c0.461,2.343-0.186,4.74,0.287,7.048
				c0.065,0.32,0.409,0.451,0.541,0.095c1.851-4.999-0.741-10.455-3.277-14.658C224.646,241.634,224.617,241.718,224.628,241.748
				L224.628,241.748z"/>
		</g>
	</g>
	<g>
		<g id="XMLID_13_">
			<g>
				<path style="fill:#58595B;" d="M161.601,223.074c1.02,6.63,3.569,11.74-3.58,14.8c-1.12,0.56-2.29,0.9-3.47,1.05
					c5.359-15.46-1.33-33.37-2.08-49.279l7.55-0.261C160.021,200.624,160.07,212.344,161.601,223.074z"/>
				<path style="fill:#6D6E70;" d="M152.471,189.645c0.75,15.909,7.439,33.819,2.08,49.279c-4.2,0.57-8.551-1.2-11.341-3.6
					c-2.04-11.74-2.04-33.04-2.04-45.3L152.471,189.645z"/>
			</g>
			<g>
			</g>
		</g>
		<g>
			<g>
				<path style="fill:#361211;" d="M142.18,224.166c6.559,3.667,13.721,2.283,19.556-1.784c0.238-0.166,0.128-0.796-0.215-0.709
					c-2.491,0.636-4.234,2.621-6.736,3.409c-4.23,1.334-8.548,0.36-12.581-1.066C142.128,223.988,142.127,224.137,142.18,224.166
					L142.18,224.166z"/>
			</g>
		</g>
		<g>
			<g>
				<path style="fill:#361211;" d="M141.161,209.849c5.497,2.102,14.51,4.479,19.028-0.777c0.13-0.151,0.097-0.831-0.193-0.638
					c-5.892,3.916-12.278,3.367-18.817,1.302C141.124,209.718,141.115,209.831,141.161,209.849L141.161,209.849z"/>
			</g>
		</g>
		<g>
			<g>
				<path style="fill:#361211;" d="M141.155,198.651c5.905,2.615,14.383,2.396,19.518-1.904c0.142-0.118,0.094-0.589-0.151-0.496
					c-6.703,2.554-12.124,4.467-19.337,2.211C141.092,198.433,141.082,198.619,141.155,198.651L141.155,198.651z"/>
			</g>
		</g>
		<g>
			<g>
				<path style="fill:#361211;" d="M141.042,190.028c-0.471,10.33-0.282,20.742,0.158,31.07c0.191,4.494,0.536,8.977,1.175,13.43
					c0.492,3.437,5.323,4.746,8.219,5.4c6.592,1.492,13.791-2.896,12.975-9.987c-0.689-5.989-1.917-11.852-2.408-17.891
					c-0.613-7.539-0.52-15.12-0.603-22.677c-0.003-0.293-0.171-0.827-0.554-0.801c-6.27,0.418-12.56,1.044-18.839,1.257
					c-0.175,0.006-0.164,0.396,0.01,0.391c5.58-0.189,11.196-0.012,16.78-0.018c2.038-0.002,1.53-0.461,1.515,1.074
					c-0.039,3.787,0.01,7.578,0.072,11.365c0.114,6.931,0.394,13.882,1.323,20.756c0.36,2.665,1.135,5.231,1.259,7.932
					c0.228,4.987-6.294,6.536-9.933,6.557c-3.159,0.018-8.146-1.626-8.675-5.091c-0.448-2.932-0.705-5.895-0.953-8.85
					c-0.95-11.293-0.748-22.616-1.266-33.924C141.287,189.779,141.053,189.792,141.042,190.028z"/>
			</g>
		</g>
	</g>
	<g>
		<g>
			<path style="fill:#361211;" d="M114.952,256.84c1.196,0,1.141-2.695-0.066-2.695C113.689,254.145,113.745,256.84,114.952,256.84
				L114.952,256.84z"/>
		</g>
	</g>
	<g>
		<g>
			<path style="fill:#361211;" d="M125.662,260.92c1.196,0,1.141-2.695-0.066-2.695C124.399,258.225,124.455,260.92,125.662,260.92
				L125.662,260.92z"/>
		</g>
	</g>
	<g>
		<g>
			<path style="fill:#361211;" d="M137.903,263.471c1.196,0,1.141-2.695-0.066-2.695
				C136.641,260.775,136.696,263.471,137.903,263.471L137.903,263.471z"/>
		</g>
	</g>
	<g>
		<g>
			<path style="fill:#361211;" d="M153.715,262.45c1.196,0,1.141-2.695-0.066-2.695C152.452,259.755,152.508,262.45,153.715,262.45
				L153.715,262.45z"/>
		</g>
	</g>
	<g>
		<g>
			<path style="fill:#361211;" d="M170.547,260.41c1.196,0,1.141-2.695-0.066-2.695C169.284,257.715,169.34,260.41,170.547,260.41
				L170.547,260.41z"/>
		</g>
	</g>
	<g>
		<g>
			<path style="fill:#361211;" d="M183.298,256.84c1.196,0,1.141-2.695-0.066-2.695C182.035,254.145,182.091,256.84,183.298,256.84
				L183.298,256.84z"/>
		</g>
	</g>
	<g>
		<g>
			<path style="fill:#361211;" d="M194.519,251.229c1.196,0,1.141-2.695-0.066-2.695
				C193.256,248.533,193.312,251.229,194.519,251.229L194.519,251.229z"/>
		</g>
	</g>
	<g>
		<g>
			<path style="fill:#361211;" d="M288.401,240.905c-9.402,3.454-10.18,18.034-9.992,26.185c0.263,11.479,2.812,23.925,7.612,34.388
				c0.188,0.413,0.455-0.072,0.367-0.344c-3.193-9.962-5.896-19.978-6.834-30.432c-0.478-5.326-0.374-10.709,0.676-15.961
				c1.158-5.798,4.066-9.619,8.268-13.517C288.584,241.146,288.562,240.847,288.401,240.905L288.401,240.905z"/>
		</g>
	</g>
	<g>
		<g>
			<path style="fill:#361211;" d="M41.328,246.965c-9.135,4.874-11.23,16.079-11.572,25.541
				c-0.385,10.708,1.454,22.694,6.484,32.257c0.133,0.252,0.318-0.042,0.238-0.223c-3.944-8.854-5.696-18.886-6.02-28.522
				c-0.344-10.234,1.474-22.76,10.969-28.564C41.604,247.345,41.545,246.85,41.328,246.965L41.328,246.965z"/>
		</g>
	</g>
</g>
</svg>
