<?xml version="1.0" encoding="iso-8859-1"?>
<!-- Generator: Adobe Illustrator 15.0.2, SVG Export Plug-In . SVG Version: 6.00 Build 0)  -->
<!DOCTYPE svg PUBLIC "-//W3C//DTD SVG 1.1//EN" "http://www.w3.org/Graphics/SVG/1.1/DTD/svg11.dtd">
<svg version="1.1" xmlns="http://www.w3.org/2000/svg" xmlns:xlink="http://www.w3.org/1999/xlink" x="0px" y="0px" width="300px"
	 height="300px" viewBox="0 0 300 300" style="enable-background:new 0 0 300 300;" xml:space="preserve">
<g id="color__x28_change_this_x29_">
	<path style="fill:#A6A8AB;" d="M198.511,270.467l-0.03-0.08c-4.59-5.77-9.62-10.89-15.21-14.85c-8.32-5.9-17.91-9.2-29.21-8.14
		c-3.52,0.31-6.85,1.55-10,3.51c-4.29,2.66-8.23,6.65-11.83,11.39c-1.48,1.96-2.91,4.05-4.28,6.23l-0.39-0.25
		c-9.8-0.44-19.15-2.22-26.73,7.8c-5.54,7.31-6,17.63-0.5,24.76c0.94-0.02,1.96-0.03,3.06-0.03c2.66-0.03,5.78-0.04,9.27-0.05
		c2.96-0.02,6.19-0.03,9.63-0.03c16.09-0.02,36.84,0.01,56.92,0.06c5.55,0.02,11.05,0.03,16.38,0.05c7.7,0.03,15.05,0.06,21.73,0.08
		c-3.77-7.46-6.72-11.18-10.59-17.25c8.84-1.38,18.1,5.79,17.46,17.28c3.02,0.01,5.84,0.02,8.43,0.03c2.74,0.02,5.21,0.03,7.38,0.03
		C238.701,272.917,217.281,262.627,198.511,270.467z M113.841,297.697l-0.64-0.13c-2.68-3.34-3.9-6.8-2.57-11.03
		c1.71-5.77,5.37-5.59,10.2-4.98C118.181,287.047,115.851,292.598,113.841,297.697z"/>
</g>
<g id="shadow">
	<path style="opacity:0.3;" d="M199.071,287.407c2.32-2.12,4.97-3.33,7.66-3.74c3.87,6.07,6.82,9.79,10.59,17.25
		c-6.68-0.02-14.03-0.05-21.73-0.08c-5.3-16.92-13.95-27.41-25.43-33.18c2.37-1.78,8.47-8.02,13.11-12.12
		c5.59,3.96,10.62,9.08,15.21,14.85l0.03,0.08c-1.59,0.65-3.16,1.45-4.7,2.37l-0.09-0.09c-3.43,3.74-3.67,8.96,0.08,12.17
		c1.28,1.11,3.02,1.98,5.26,2.48L199.071,287.407z"/>
	<path style="opacity:0.5;fill:#FFFFFF;" d="M183.271,255.538c-4.64,4.1-10.74,10.34-13.11,12.12c-9.49-4.79-20.92-6.34-33.98-5.63
		c2.35-3.82,4.98-7.53,7.88-11.12c3.15-1.96,6.48-3.2,10-3.51C165.361,246.337,174.951,249.638,183.271,255.538z"/>
	<path style="opacity:0.5;fill:#FFFFFF;" d="M144.061,250.907c-2.9,3.59-5.53,7.3-7.88,11.12c-1.3,0.06-2.61,0.15-3.95,0.27
		C135.831,257.558,139.771,253.567,144.061,250.907z"/>
	<path style="opacity:0.5;fill:#FFFFFF;" d="M124.411,274.578c1.13-2.06,2.31-4.09,3.54-6.05c1.37-2.18,2.8-4.27,4.28-6.23
		c1.34-0.12,2.65-0.21,3.95-0.27c-7.32,11.86-12,24.79-13.89,38.7c-3.44,0-6.67,0.01-9.63,0.03c0.38-1,0.77-2.02,1.18-3.06
		c2.01-5.1,4.34-10.65,6.99-16.14C121.961,279.208,123.161,276.868,124.411,274.578z"/>
	<g id="XMLID_1_">
		<g>
			<path style="fill:#58595B;" d="M240.001,301.007c-2.17,0-4.64-0.01-7.38-0.03c-1.24-10.29-5.71-20.16-17.05-21.42
				c-7.64-0.96-15.73,3.88-21.77,5.36c-3.75-3.21-3.51-8.43-0.08-12.17l0.09,0.09c1.54-0.92,3.11-1.72,4.7-2.37
				C217.281,262.627,238.701,272.917,240.001,301.007z"/>
			<path style="fill:#404041;" d="M206.731,283.667c-2.69,0.41-5.34,1.62-7.66,3.74l-0.01-0.01c-2.24-0.5-3.98-1.37-5.26-2.48
				c6.04-1.48,14.13-6.32,21.77-5.36c11.34,1.26,15.81,11.13,17.05,21.42c-2.59-0.01-5.41-0.02-8.43-0.03
				C224.831,289.458,215.571,282.288,206.731,283.667z"/>
			<path style="fill:#6D6E70;" d="M127.561,268.277l0.39,0.25c-1.23,1.96-2.41,3.99-3.54,6.05c-18.73-4.08-28.24,11.5-21.02,26.23
				c-1.1,0-2.12,0.01-3.06,0.03c-5.5-7.13-5.04-17.45,0.5-24.76C108.411,266.058,117.761,267.837,127.561,268.277z"/>
			<path style="fill:#58595B;" d="M124.411,274.578c-1.25,2.29-2.45,4.63-3.58,6.98c-4.83-0.61-8.49-0.79-10.2,4.98
				c-1.33,4.23-0.11,7.69,2.57,11.03l0.64,0.13c-0.41,1.04-0.8,2.06-1.18,3.06c-3.49,0.01-6.61,0.02-9.27,0.05
				C96.171,286.078,105.681,270.498,124.411,274.578z"/>
		</g>
		<g>
		</g>
	</g>
</g>
<g id="outline">
	<g>
		<g>
			<path style="fill:#361211;" d="M206.426,283.335c0.664,3.402,3.151,6.396,4.992,9.267c1.42,2.214,2.716,4.472,3.867,6.839
				c0.832,1.711,1.037,2.82,2.655,3.732c0.429,0.241,0.659-0.519,0.646-0.788c-0.184-3.945-3.35-7.503-5.425-10.751
				c-1.706-2.669-3.738-6.988-6.644-8.445C206.439,283.149,206.417,283.291,206.426,283.335L206.426,283.335z"/>
		</g>
	</g>
	<g>
		<g>
			<path style="fill:#361211;" d="M112.204,303.188c8.049-16.667,12.976-35.93,27.688-48.342c8.421-7.104,19.78-7.577,29.994-4.544
				c5.801,1.723,11.013,5.002,15.699,8.756c4.567,3.658,8.093,8.379,12.649,12.027c0.719,0.575,0.819-0.882,0.606-1.273
				c-9.805-18.021-38.55-32.155-57.218-19.161c-8.334,5.801-13.899,14.573-18.441,23.476c-4.681,9.176-8.439,18.975-11.102,28.923
				C112.061,303.118,112.143,303.315,112.204,303.188L112.204,303.188z"/>
		</g>
	</g>
	<g>
		<g>
			<path style="fill:#361211;" d="M131.063,262.495c13.316-0.99,27.129-0.296,39.254,5.817
				c13.958,7.038,20.173,20.475,25.462,34.349c0.219,0.572,0.693-0.003,0.6-0.406c-3.051-13.244-11.141-26.555-23.101-33.495
				c-12.832-7.446-27.808-7.947-42.22-6.46C130.972,262.309,130.977,262.502,131.063,262.495L131.063,262.495z"/>
		</g>
	</g>
	<g>
		<g>
			<path style="fill:#361211;" d="M193.85,273.043c9.582-4.067,18.969-6.243,28.846-1.636c5.061,2.361,8.982,6.56,11.801,11.293
				c3.686,6.189,3.982,12.984,5.186,19.867c0.095,0.544,0.71,0.543,0.767-0.019c1.152-11.47-4.724-25.366-14.847-31.344
				c-9.693-5.724-22.748-5.351-31.87,1.448C193.613,272.741,193.665,273.122,193.85,273.043L193.85,273.043z"/>
		</g>
	</g>
	<g>
		<g>
			<path style="fill:#361211;" d="M193.999,272.247c-2.649,2.368-3.879,5.148-3.263,8.724c0.664,3.847,4.524,6.926,8.336,6.876
				c0.409-0.006,0.329-0.741,0.057-0.884c-2.803-1.478-5.709-2.441-7.095-5.544c-1.294-2.899,0.272-6.612,2.111-8.899
				C194.221,272.426,194.136,272.125,193.999,272.247L193.999,272.247z"/>
		</g>
	</g>
	<g>
		<g>
			<path style="fill:#361211;" d="M198.962,287.616c4.817-3.821,11.061-4.289,16.529-1.588c3.039,1.501,5.26,4.273,6.674,7.279
				c1.417,3.014,0.933,6.144,1.468,9.282c0.086,0.508,0.618,0.664,0.824,0.143c2.425-6.14-1.824-13.821-6.757-17.385
				c-6.125-4.426-13.63-2.813-18.806,2.103C198.838,287.503,198.877,287.685,198.962,287.616L198.962,287.616z"/>
		</g>
	</g>
	<g>
		<g>
			<path style="fill:#361211;" d="M206.47,268.473c-6.008,2.501,0.61,12.615,3.975,14.775c0.175,0.113,0.227-0.204,0.148-0.311
				c-2.379-3.167-9.729-10.915-4.069-14.203C206.618,268.68,206.597,268.419,206.47,268.473L206.47,268.473z"/>
		</g>
	</g>
	<g>
		<g>
			<path style="fill:#361211;" d="M228.652,274.237c-7.368-0.262-8.598,10.041-8.376,15.525c0.011,0.263,0.289,0.257,0.282-0.008
				c-0.137-5.482,0.781-15.162,8.102-15.205C228.799,274.549,228.792,274.242,228.652,274.237L228.652,274.237z"/>
		</g>
	</g>
	<g>
		<g>
			<path style="fill:#361211;" d="M224.229,299.846c3.131-3.867,11.958-1.855,15.771,0.009c0.063,0.031,0.083-0.114,0.036-0.144
				c-3.689-2.318-13.129-5.019-15.873,0.014C224.142,299.766,224.176,299.911,224.229,299.846L224.229,299.846z"/>
		</g>
	</g>
	<g>
		<g>
			<path style="fill:#361211;" d="M127.549,267.908c-10.446-1.32-20.055-1.148-27.112,7.589c-5.386,6.669-6.893,19.497-0.199,25.858
				c0.368,0.351,0.558-0.465,0.439-0.706c-2.454-4.95-4.155-9.109-3.42-14.791c0.696-5.388,4.062-10.107,8.167-13.458
				c6.368-5.198,14.627-3.562,22.144-3.75C127.905,268.642,127.871,267.949,127.549,267.908L127.549,267.908z"/>
		</g>
	</g>
	<g>
		<g>
			<path style="fill:#361211;" d="M121.445,281.584c-4.047-1.261-8.306-1.284-10.469,2.846c-2.358,4.5-1.261,9.902,2.076,13.547
				c0.338,0.37,0.506-0.507,0.355-0.745c-2.758-4.348-4.533-9.975-0.27-14.143c2.098-2.052,5.681-1.255,8.301-1.39
				C121.486,281.696,121.488,281.597,121.445,281.584L121.445,281.584z"/>
		</g>
	</g>
	<g>
		<g>
			<path style="fill:#361211;" d="M99.291,297.038c3.138-2.821,7.253-3.518,11.35-3.322c0.239,0.012,0.233-0.539-0.014-0.547
				c-4.158-0.132-8.308,0.837-11.364,3.803C99.241,296.993,99.259,297.067,99.291,297.038L99.291,297.038z"/>
		</g>
	</g>
	<g>
		<g>
			<path style="fill:#361211;" d="M98.166,279.269c2.461-0.059,4.932-0.01,7.327,0.617c2.491,0.653,4.241,2.374,6.207,3.895
				c0.134,0.104,0.175-0.167,0.118-0.248c-3.217-4.539-8.558-5.037-13.655-4.42C98.093,279.121,98.096,279.271,98.166,279.269
				L98.166,279.269z"/>
		</g>
	</g>
	<g>
		<g>
			<path style="fill:#361211;" d="M116.409,267.706c4.495,2.306,4.227,9.371,3.65,13.652c-0.033,0.246,0.247,0.426,0.3,0.117
				c0.762-4.41,1.028-11.807-3.921-13.959C116.351,267.479,116.338,267.67,116.409,267.706L116.409,267.706z"/>
		</g>
	</g>
	<g>
		<g id="XMLID_54_">
			<g>
				<path style="fill:#58595B;" d="M166.368,246.763c0.832,5.409,2.913,9.578-2.92,12.074c-1.044,0.522-2.146,0.808-3.247,0.906
					c5.148-17.736-0.693-51.959-1.289-67.255l6.167-0.212C165.079,201.444,165.12,238.009,166.368,246.763z"/>
				<path style="fill:#6D6E70;" d="M158.911,192.487c0.596,15.296,6.437,49.52,1.289,67.255c-3.296,0.293-6.649-1.11-8.835-2.986
					c-1.664-9.578-1.664-53.958-1.664-63.959L158.911,192.487z"/>
			</g>
			<g>
			</g>
		</g>
		<g>
			<g>
				<path style="fill:#361211;" d="M150.52,247.664c5.169,3.015,11.401,2.048,15.98-1.408c0.176-0.133,0.16-0.789-0.147-0.725
					c-1.773,0.371-2.891,1.798-4.548,2.473c-3.736,1.522-7.605,0.721-11.261-0.49C150.466,247.487,150.468,247.635,150.52,247.664
					L150.52,247.664z"/>
			</g>
		</g>
		<g>
			<g>
				<path style="fill:#361211;" d="M149.689,235.98c4.408,1.719,11.976,3.803,15.548-0.589c0.12-0.147,0.113-0.827-0.194-0.639
					c-4.942,3.041-9.884,2.796-15.336,1.114C149.651,235.85,149.644,235.963,149.689,235.98L149.689,235.98z"/>
			</g>
		</g>
		<g>
			<g>
				<path style="fill:#361211;" d="M149.683,226.854c4.716,2.158,11.895,2.103,15.943-1.529c0.138-0.124,0.1-0.579-0.15-0.496
					c-2.481,0.83-4.602,2.017-7.229,2.514c-2.848,0.538-5.787,0.142-8.535-0.678C149.619,226.636,149.611,226.82,149.683,226.854
					L149.683,226.854z"/>
			</g>
		</g>
		<g>
			<g>
				<path style="fill:#361211;" d="M149.683,215.854c4.716,2.158,11.895,2.103,15.943-1.529c0.138-0.124,0.1-0.579-0.15-0.496
					c-2.481,0.83-4.602,2.017-7.229,2.514c-2.848,0.538-5.787,0.142-8.535-0.678C149.619,215.636,149.611,215.82,149.683,215.854
					L149.683,215.854z"/>
			</g>
		</g>
		<g>
			<g>
				<path style="fill:#361211;" d="M149.683,204.854c4.716,2.158,11.895,2.103,15.943-1.529c0.138-0.124,0.1-0.579-0.15-0.496
					c-2.481,0.83-4.602,2.017-7.229,2.514c-2.848,0.538-5.787,0.142-8.535-0.678C149.619,204.636,149.611,204.82,149.683,204.854
					L149.683,204.854z"/>
			</g>
		</g>
		<g>
			<g>
				<path style="fill:#361211;" d="M149.569,192.801c-0.464,12.509-0.269,25.064-0.138,37.578c0.069,6.673,0.195,13.346,0.59,20.007
					c0.124,2.081,0.29,4.162,0.578,6.228c0.359,2.573,4.856,3.688,6.882,4.145c6.18,1.389,11.197-3.049,10.554-9.037
					c-0.661-6.158-1.491-12.098-1.77-18.321c-0.615-13.7-0.548-27.423-0.79-41.133c-0.004-0.219-0.126-0.614-0.413-0.597
					c-5.118,0.311-10.247,0.759-15.371,0.933c-0.174,0.006-0.164,0.396,0.01,0.391c4.547-0.154,9.115-0.065,13.665-0.098
					c0.355-0.003,0.709-0.006,1.064-0.008c0.896-0.007,0.237,0.026,0.239-0.074c-0.02,1.127-0.039,2.254-0.057,3.381
					c-0.052,3.231-0.071,6.46-0.061,9.692c0.044,13.472-0.548,27.288,1.011,40.691c0.169,1.454,0.504,2.891,0.785,4.325
					c1.015,5.191-2.639,7.479-7.268,7.724c-1.581,0.083-6.875-1.099-7.175-3.131c-0.174-1.181-0.266-2.373-0.365-3.562
					c-0.564-6.775-0.725-13.597-0.935-20.39c-0.399-12.913-0.301-25.842-0.781-38.75
					C149.817,192.552,149.579,192.563,149.569,192.801z"/>
			</g>
		</g>
	</g>
	<g>
		<g>
			<path style="fill:#361211;" d="M133.69,267.786c1.369,0,1.306-3.086-0.076-3.086C132.245,264.7,132.308,267.786,133.69,267.786
				L133.69,267.786z"/>
		</g>
	</g>
	<g>
		<g>
			<path style="fill:#361211;" d="M145.466,267.786c1.369,0,1.306-3.086-0.076-3.086C144.021,264.7,144.084,267.786,145.466,267.786
				L145.466,267.786z"/>
		</g>
	</g>
	<g>
		<g>
			<path style="fill:#361211;" d="M160.314,270.345c1.369,0,1.306-3.084-0.076-3.084
				C158.869,267.261,158.932,270.345,160.314,270.345L160.314,270.345z"/>
		</g>
	</g>
	<g>
		<g>
			<path style="fill:#361211;" d="M173.115,275.466c1.369,0,1.306-3.086-0.076-3.086
				C171.669,272.38,171.732,275.466,173.115,275.466L173.115,275.466z"/>
		</g>
	</g>
	<g>
		<g>
			<path style="fill:#361211;" d="M182.842,286.729c1.369,0,1.306-3.086-0.076-3.086
				C181.397,283.644,181.46,286.729,182.842,286.729L182.842,286.729z"/>
		</g>
	</g>
	<g>
		<g>
			<path style="fill:#361211;" d="M188.474,297.993c1.369,0,1.306-3.084-0.076-3.084
				C187.029,294.909,187.092,297.993,188.474,297.993L188.474,297.993z"/>
		</g>
	</g>
</g>
</svg>
