<?xml version="1.0" encoding="iso-8859-1"?>
<!-- Generator: Adobe Illustrator 15.0.2, SVG Export Plug-In . SVG Version: 6.00 Build 0)  -->
<!DOCTYPE svg PUBLIC "-//W3C//DTD SVG 1.1//EN" "http://www.w3.org/Graphics/SVG/1.1/DTD/svg11.dtd">
<svg version="1.1" xmlns="http://www.w3.org/2000/svg" xmlns:xlink="http://www.w3.org/1999/xlink" x="0px" y="0px" width="300px"
	 height="300px" viewBox="0 0 300 300" style="enable-background:new 0 0 300 300;" xml:space="preserve">
<g id="color__x28_change_this_x29_">
	<path style="fill:#A6A8AB;" d="M202.02,97.74C193.58,91.69,181.79,87.51,166,86c-19.47-1.85-44.18-0.51-63.25,7.12
		c-11.16,4.47-20.39,11.09-25.48,20.479c-0.29,0.521-0.56,1.051-0.82,1.591C72.19,124.12,69.75,139,75,152
		c8.2,20.3,24.87,51,45.63,67.16c6.72,5.24,13.87,8.95,21.3,10.29L142,229c4.64,0.17,9.47-0.7,14.36-2.45
		c7.15-2.54,14.41-6.96,21.35-12.7C212.28,185.29,238.71,123.99,202.02,97.74z"/>
</g>
<g id="shadow">
	<path style="opacity:0.3;fill:#FFFFFF;" d="M190.01,110.08c-31.89-14.22-72.12-7.98-100.44,0.25c3.64-5.5,8.17-11.11,13.18-17.21
		c19.07-7.63,43.78-8.97,63.25-7.12c15.79,1.51,27.58,5.69,36.02,11.74c-4.01,4.13-8.06,8.08-11.85,12.42
		C190.11,110.13,190.06,110.11,190.01,110.08z"/>
	<path style="opacity:0.3;" d="M194,112c29,16,8,79-17,101l0.71,0.85c-6.94,5.74-14.2,10.16-21.35,12.7
		C168.39,208.49,187.6,194.41,194,172c6.97-22.89-1.91-39.83-3.97-61.68c0.04-0.051,0.09-0.11,0.14-0.16
		C191.46,110.74,192.74,111.35,194,112z"/>
	<path style="opacity:0.5;fill:#FFFFFF;" d="M120.63,219.16C99.87,203,83.2,172.3,75,152c-5.25-13-2.81-27.88,1.45-36.81
		c0.26-0.54,0.53-1.07,0.82-1.591L78,114c3.56-1.23,7.44-2.47,11.57-3.67C78.91,126.44,75.88,141.68,91,166
		C102.68,184.68,116.17,199.73,120.63,219.16z"/>
	<path style="opacity:0.5;fill:#FFFFFF;" d="M102.75,93.12c-5.01,6.1-9.54,11.71-13.18,17.21c-4.13,1.2-8.01,2.439-11.57,3.67
		l-0.73-0.4C82.36,104.21,91.59,97.59,102.75,93.12z"/>
</g>
<g id="outline">
	<g>
		<g>
			<path style="fill:#361211;" d="M147.992,229.668c-22.008-1.85-38.59-20.898-50.326-37.84
				c-6.433-9.287-11.92-19.215-16.727-29.429c-5.766-12.254-9.262-23.919-6.334-37.572c5.005-23.333,29.878-32.286,50.801-35.717
				c20.017-3.283,42.626-3.309,61.994,3.286c65.323,22.243,14.399,111.486-27.318,130.625c-5.749,2.637-11.818,4.297-18.106,5.002
				c-0.901,0.102-0.792,1.812,0.048,1.953c11.303,1.884,22.523-4.284,31.421-10.628c11.431-8.15,20.912-18.991,28.647-30.635
				c13.97-21.028,25.572-50.521,14.804-75.312c-13.98-32.186-59.769-32.559-88.908-28.657c-18.85,2.522-40.255,9.064-50.897,26.096
				c-5.761,9.221-7.184,21.141-5.91,31.732c1.237,10.28,7.002,20.365,11.76,29.4c7.611,14.455,16.618,28.321,27.971,40.132
				c9.749,10.141,22.475,18.975,37.096,18.227C148.308,230.316,148.285,229.692,147.992,229.668L147.992,229.668z"/>
		</g>
	</g>
	<g>
		<g>
			<path style="fill:#361211;" d="M78.012,114.057c19.502-6.574,39.806-10.967,60.396-11.922c11.852-0.55,23.777,0.347,35.34,3.039
				c9.359,2.181,20.489,5.496,26.931,13.061c11.125,13.064,7.067,34.457,2.578,49.279c-5.071,16.743-13.84,32.745-26.483,44.936
				c-0.367,0.354-0.096,1.56,0.454,1.102c13.668-11.376,22.198-29.821,27.244-46.481c4.438-14.651,7.048-32.98-1.139-46.837
				c-4.467-7.562-12.621-10.811-20.559-13.554c-11.723-4.05-24.283-5.398-36.625-5.445c-23.149-0.088-46.379,5.147-68.16,12.71
				C77.942,113.96,77.957,114.074,78.012,114.057L78.012,114.057z"/>
		</g>
	</g>
	<g>
		<g>
			<path style="fill:#361211;" d="M80.053,123.148c1.907,0,1.819-4.297-0.105-4.297C78.041,118.852,78.128,123.148,80.053,123.148
				L80.053,123.148z"/>
		</g>
	</g>
	<g>
		<g>
			<path style="fill:#361211;" d="M98.053,117.148c1.907,0,1.819-4.297-0.105-4.297C96.041,112.852,96.128,117.148,98.053,117.148
				L98.053,117.148z"/>
		</g>
	</g>
	<g>
		<g>
			<path style="fill:#361211;" d="M118.553,113.648c1.907,0,1.819-4.297-0.105-4.297
				C116.541,109.352,116.628,113.648,118.553,113.648L118.553,113.648z"/>
		</g>
	</g>
	<g>
		<g>
			<path style="fill:#361211;" d="M143.053,112.148c1.907,0,1.819-4.297-0.105-4.297
				C141.041,107.852,141.128,112.148,143.053,112.148L143.053,112.148z"/>
		</g>
	</g>
	<g>
		<g>
			<path style="fill:#361211;" d="M164.553,112.148c1.907,0,1.819-4.297-0.105-4.297
				C162.541,107.852,162.628,112.148,164.553,112.148L164.553,112.148z"/>
		</g>
	</g>
	<g>
		<g>
			<path style="fill:#361211;" d="M184.053,117.148c1.907,0,1.819-4.297-0.105-4.297
				C182.041,112.852,182.128,117.148,184.053,117.148L184.053,117.148z"/>
		</g>
	</g>
	<g>
		<g>
			<path style="fill:#361211;" d="M201.053,129.648c1.907,0,1.819-4.297-0.105-4.297
				C199.041,125.352,199.128,129.648,201.053,129.648L201.053,129.648z"/>
		</g>
	</g>
	<g>
		<g>
			<path style="fill:#361211;" d="M73.553,138.148c1.907,0,1.819-4.297-0.105-4.297C71.541,133.852,71.628,138.148,73.553,138.148
				L73.553,138.148z"/>
		</g>
	</g>
	<g>
		<g>
			<path style="fill:#361211;" d="M202.053,154.148c1.907,0,1.819-4.297-0.105-4.297
				C200.041,149.852,200.128,154.148,202.053,154.148L202.053,154.148z"/>
		</g>
	</g>
	<g>
		<g>
			<path style="fill:#361211;" d="M195.053,177.648c1.907,0,1.819-4.297-0.105-4.297
				C193.041,173.352,193.128,177.648,195.053,177.648L195.053,177.648z"/>
		</g>
	</g>
	<g>
		<g>
			<path style="fill:#361211;" d="M185.553,199.147c1.907,0,1.819-4.296-0.105-4.296
				C183.541,194.852,183.628,199.147,185.553,199.147L185.553,199.147z"/>
		</g>
	</g>
	<g>
		<g>
			<path style="fill:#361211;" d="M169.053,214.647c1.907,0,1.819-4.295-0.105-4.295
				C167.041,210.353,167.128,214.647,169.053,214.647L169.053,214.647z"/>
		</g>
	</g>
	<g>
		<g>
			<path style="fill:#361211;" d="M141.553,224.647c1.907,0,1.819-4.295-0.105-4.295
				C139.541,220.353,139.628,224.647,141.553,224.647L141.553,224.647z"/>
		</g>
	</g>
	<g>
		<g>
			<path style="fill:#361211;" d="M114.553,214.147c1.907,0,1.819-4.295-0.105-4.295
				C112.541,209.853,112.628,214.147,114.553,214.147L114.553,214.147z"/>
		</g>
	</g>
</g>
</svg>
