<?xml version="1.0" encoding="iso-8859-1"?>
<!-- Generator: Adobe Illustrator 15.0.2, SVG Export Plug-In . SVG Version: 6.00 Build 0)  -->
<!DOCTYPE svg PUBLIC "-//W3C//DTD SVG 1.1//EN" "http://www.w3.org/Graphics/SVG/1.1/DTD/svg11.dtd">
<svg version="1.1" xmlns="http://www.w3.org/2000/svg" xmlns:xlink="http://www.w3.org/1999/xlink" x="0px" y="0px" width="300px"
	 height="300px" viewBox="0 0 300 300" style="enable-background:new 0 0 300 300;" xml:space="preserve">
<g id="color__x28_change_this_x29_">
	<path style="fill:#A6A8AB;" d="M189.25,113.07c-5.67-8.46-12.78-15.43-20.85-19.55c-5.88-3.21-12.17-4.65-18.56-4.69
		c-16.91-0.1-34.37,9.57-45.83,21.54c-4.89,5.12-8.83,10.88-11.83,16.99c-6.95,14.11-8.97,30.08-6.54,44.31
		c1.13,6.59,3.21,12.81,6.2,18.3c7.39,13.1,20.28,18.25,33.9,19.94c3.99,0.5,8.05,0.7,12.05,0.72v-0.73
		c46.17,0,62.75-32.75,63.76-36.8c0.33-1.14,0.61-2.3,0.85-3.49C206.01,152.06,200.41,129.7,189.25,113.07z"/>
</g>
<g id="shadow">
	<path style="opacity:0.3;" d="M137.79,209.9v0.73c-4-0.02-8.06-0.22-12.05-0.72c7.62-0.87,15.35-2.52,19.66-3.6
		c24.51-7.15,37.28-20.42,35.75-47.49c-1.26-18.45-10.09-59.97-31.31-69.99c6.39,0.04,12.68,1.48,18.56,4.69
		c8.07,4.12,15.18,11.09,20.85,19.55l-0.44,0.3c-6.13,5.11-5.62,24.51-4.09,32.17c2.04,10.22,8.68,18.39,17.36,24l0.32,0.07
		c-0.24,1.19-0.52,2.35-0.85,3.49C200.54,177.15,183.96,209.9,137.79,209.9z"/>
	<path style="opacity:0.5;fill:#FFFFFF;" d="M117.14,103.9c5.58-4.59,12.81,1.4,6.3,6.41C117.01,115.35,111.82,105.55,117.14,103.9z
		"/>
	<path style="opacity:0.5;fill:#FFFFFF;" d="M106.18,115.04l-0.1-0.14c3.57-4.59,8.17-4.08,7.66,1.02c0,2.56-7.66,12.77-9.71,14.3
		c-6.12,5.11-8.17,1.53-6.12-5.62C99.44,120.77,102.7,117.51,106.18,115.04z"/>
	<path style="opacity:0.3;fill:#FFFFFF;" d="M92.8,127.67c1.02,14.3,0.51,30.13-6.64,43.92l-0.52,0.08
		c-2.43-14.23-0.41-30.2,6.54-44.31L92.8,127.67z"/>
</g>
<g id="outline">
	<g>
		<g>
			<path style="fill:#361211;" d="M190.375,121.513c1.335,0,1.272-3.007-0.074-3.007
				C188.966,118.506,189.028,121.513,190.375,121.513L190.375,121.513z"/>
		</g>
	</g>
	<g>
		<g>
			<path style="fill:#361211;" d="M186.266,129.503c-0.003,0.003-0.005,0.007-0.008,0.011c0.16-0.106,0.32-0.213,0.48-0.319
				c-1.209,0.253-1.36,2.531-0.203,2.983c1.357,0.53,1.723-2.626,0.387-2.95c0.104,0.087,0.207,0.175,0.311,0.262
				c-0.002-0.003-0.004-0.007-0.006-0.011C186.988,129.075,186.494,129.133,186.266,129.503L186.266,129.503z"/>
		</g>
	</g>
	<g>
		<g>
			<path style="fill:#361211;" d="M188.33,144.945c1.283,0,1.224-2.89-0.07-2.89C186.977,142.055,187.036,144.945,188.33,144.945
				L188.33,144.945z"/>
		</g>
	</g>
	<g>
		<g>
			<path style="fill:#361211;" d="M194.397,155.578c0.175-0.528,0.214-1.022,0.022-1.556c-0.169-0.467-0.488-1.02-1.06-1.006
				c-1.165,0.029-1.222,1.856-0.911,2.609c0.167,0.404,0.512,0.839,0.995,0.827C193.921,156.441,194.262,155.991,194.397,155.578
				L194.397,155.578z"/>
		</g>
	</g>
	<g>
		<g>
			<path style="fill:#361211;" d="M199.058,162.936c1.387,0,1.323-3.124-0.076-3.124
				C197.595,159.812,197.658,162.936,199.058,162.936L199.058,162.936z"/>
		</g>
	</g>
	<g>
		<g>
			<path style="fill:#361211;" d="M85.171,163.684c1.145,0,1.092-2.577-0.062-2.577C83.964,161.106,84.017,163.684,85.171,163.684
				L85.171,163.684z"/>
		</g>
	</g>
	<g>
		<g>
			<path style="fill:#361211;" d="M88.237,155.61c1.23,0,1.174-2.772-0.068-2.772C86.938,152.838,86.995,155.61,88.237,155.61
				L88.237,155.61z"/>
		</g>
	</g>
	<g>
		<g>
			<path style="fill:#361211;" d="M89.738,141.536c0.069,0,0.066-0.156-0.004-0.156C89.665,141.379,89.668,141.536,89.738,141.536
				L89.738,141.536z"/>
		</g>
	</g>
	<g>
		<g>
			<path style="fill:#361211;" d="M89.775,145.592c1.404,0,1.339-3.163-0.078-3.163C88.293,142.429,88.358,145.592,89.775,145.592
				L89.775,145.592z"/>
		</g>
	</g>
	<g>
		<g>
			<path style="fill:#361211;" d="M90.283,136.341c1.353,0,1.29-3.046-0.074-3.046C88.856,133.295,88.919,136.341,90.283,136.341
				L90.283,136.341z"/>
		</g>
	</g>
	<g>
		<g>
			<path style="fill:#361211;" d="M146.928,210.243c-11.501-0.425-22.771-0.094-33.758-4.148
				c-11.993-4.425-19.891-12.854-24.194-24.819c-8.669-24.104-1.094-52.742,16.507-70.793c18.1-18.563,47.212-28.153,69.554-11.409
				c18.112,13.575,27.878,38.918,27.443,61.065c-0.237,12.115-5.204,20.653-13.686,28.991
				c-14.269,14.026-32.996,17.721-52.079,20.641c-0.106,0.017-0.097,0.218,0.006,0.234c28.084,4.417,64.487-15.412,67.509-45.829
				c2.011-20.25-5.89-41.792-18.452-57.477c-6.274-7.834-14.488-14.119-24.059-17.297c-11-3.653-23.088-1.42-33.534,2.879
				c-29.676,12.214-47.974,44.229-43.923,76c1.824,14.298,7.517,28.161,20.223,35.959c11.948,7.334,28.911,8.125,42.451,6.315
				C147.073,210.537,147.068,210.248,146.928,210.243L146.928,210.243z"/>
		</g>
	</g>
	<g>
		<g>
			<path style="fill:#361211;" d="M188.683,113.069c-6.876,6.076-5.809,19.832-5.08,27.971c0.452,5.062,1.716,10.116,4.265,14.552
				c2.881,5.016,8.256,12.674,14.185,14.16c0.181,0.045,0.215-0.26,0.128-0.362c-3.445-4.093-8.055-6.826-11.354-11.241
				c-3.355-4.49-5.271-9.835-6.057-15.343c-1.188-8.344-2.337-22.653,4.161-29.135C189.127,113.475,188.974,112.812,188.683,113.069
				L188.683,113.069z"/>
		</g>
	</g>
	<g>
		<g>
			<path style="fill:#361211;" d="M92.543,127.675c0.35,15.041,0.162,29.635-6.721,43.423c-0.256,0.514,0.304,1.729,0.678,0.978
				c6.763-13.602,8.218-29.44,6.557-44.413C93.004,127.196,92.532,127.186,92.543,127.675L92.543,127.675z"/>
		</g>
	</g>
</g>
</svg>
