<?xml version="1.0" encoding="iso-8859-1"?>
<!-- Generator: Adobe Illustrator 15.0.2, SVG Export Plug-In . SVG Version: 6.00 Build 0)  -->
<!DOCTYPE svg PUBLIC "-//W3C//DTD SVG 1.1//EN" "http://www.w3.org/Graphics/SVG/1.1/DTD/svg11.dtd">
<svg version="1.1" xmlns="http://www.w3.org/2000/svg" xmlns:xlink="http://www.w3.org/1999/xlink" x="0px" y="0px" width="300px"
	 height="300px" viewBox="0 0 300 300" style="enable-background:new 0 0 300 300;" xml:space="preserve">
<g id="color__x28_change_this_x29_">
	<path style="fill:#A6A8AB;" d="M166.767,97.783c-8.61-5.22-17.38-8.159-25.54-7.85l-0.07-0.45c-10.33,1.86-20.109,8.3-28.95,17.05
		c-2.1,2.061-4.14,4.261-6.12,6.561c-14.289,16.56-25.569,38.26-31.859,53.84c-5.25,13-2.811,27.88,1.45,36.81
		c4.689,9.82,13.739,16.771,24.87,21.471c2.569,1.1,5.25,2.069,8.01,2.92c14.71,4.569,31.76,5.979,46.96,5.43
		c3.34-0.12,6.59-0.33,9.71-0.63C256.286,224.264,214.026,126.483,166.767,97.783z"/>
</g>
<g id="shadow">
	<path style="opacity:0.3;" d="M176.227,119.934c25.43,21.5,46,85,17,101c-11.99,6.16-23.561,9.61-34.69,11.11
		c7.91-4.221,13.33-9.17,21.53-16.11c14-12,10-36,6-52c-2-9-6-19-10-26s-16-17-17-24c-0.22-2.23,0.25-4.4,1.17-6.53
		C165.536,110.974,170.797,115.344,176.227,119.934z"/>
	<path style="opacity:0.3;fill:#FFFFFF;" d="M166.767,97.783c-2.601,3.08-5.11,6.29-6.53,9.62c-15.02-10.1-30.32-13.729-50.45,2.53
		c0.78-1.12,1.59-2.25,2.42-3.4c8.841-8.75,18.62-15.189,28.95-17.05l0.07,0.45C149.387,89.624,158.156,92.563,166.767,97.783z"/>
	<path style="opacity:0.3;fill:#FFFFFF;" d="M158.536,232.044c-0.97,0.52-1.97,1.02-3.02,1.52c-15.2,0.55-32.25-0.86-46.96-5.43
		c-0.09-0.21-0.181-0.4-0.271-0.601C123.967,231.914,140.706,234.474,158.536,232.044z"/>
	<path style="opacity:0.3;fill:#FFFFFF;" d="M112.206,106.533c-0.83,1.15-1.64,2.28-2.42,3.4c-1.22,0.98-2.45,2.03-3.7,3.16
		C108.066,110.794,110.106,108.594,112.206,106.533z"/>
	<path style="opacity:0.3;fill:#FFFFFF;" d="M108.286,227.533c0.09,0.2,0.181,0.391,0.271,0.601c-2.76-0.851-5.44-1.82-8.01-2.92
		C103.097,226.033,105.677,226.813,108.286,227.533z"/>
	<path style="opacity:0.5;fill:#FFFFFF;" d="M106.086,113.094c1.25-1.13,2.48-2.18,3.7-3.16c-35.35,50.43-32.42,76.66-27.72,87
		c4.71,12.57,19.91,17.11,26.22,30.6c-2.609-0.72-5.189-1.5-7.739-2.319c-11.131-4.7-20.181-11.65-24.87-21.471
		c-4.261-8.93-6.7-23.81-1.45-36.81C80.517,151.354,91.797,129.653,106.086,113.094z"/>
</g>
<g id="outline">
	<g>
		<g>
			<path style="fill:#361211;" d="M97.279,220.081c1.906,0,1.818-4.295-0.105-4.295C95.268,215.786,95.355,220.081,97.279,220.081
				L97.279,220.081z"/>
		</g>
	</g>
	<g>
		<g>
			<path style="fill:#361211;" d="M117.779,223.581c1.906,0,1.818-4.295-0.105-4.295
				C115.768,219.286,115.855,223.581,117.779,223.581L117.779,223.581z"/>
		</g>
	</g>
	<g>
		<g>
			<path style="fill:#361211;" d="M142.279,225.081c1.906,0,1.818-4.295-0.105-4.295
				C140.268,220.786,140.355,225.081,142.279,225.081L142.279,225.081z"/>
		</g>
	</g>
	<g>
		<g>
			<path style="fill:#361211;" d="M163.779,225.081c1.906,0,1.818-4.295-0.105-4.295
				C161.768,220.786,161.855,225.081,163.779,225.081L163.779,225.081z"/>
		</g>
	</g>
	<g>
		<g>
			<path style="fill:#361211;" d="M183.279,220.081c1.906,0,1.818-4.295-0.105-4.295
				C181.268,215.786,181.355,220.081,183.279,220.081L183.279,220.081z"/>
		</g>
	</g>
	<g>
		<g>
			<path style="fill:#361211;" d="M200.279,207.581c1.906,0,1.818-4.295-0.105-4.295
				C198.268,203.286,198.355,207.581,200.279,207.581L200.279,207.581z"/>
		</g>
	</g>
	<g>
		<g>
			<path style="fill:#361211;" d="M201.279,183.082c1.906,0,1.818-4.297-0.105-4.297
				C199.268,178.785,199.355,183.082,201.279,183.082L201.279,183.082z"/>
		</g>
	</g>
	<g>
		<g>
			<path style="fill:#361211;" d="M194.279,159.582c1.906,0,1.818-4.297-0.105-4.297
				C192.268,155.285,192.355,159.582,194.279,159.582L194.279,159.582z"/>
		</g>
	</g>
	<g>
		<g>
			<path style="fill:#361211;" d="M184.779,138.082c1.906,0,1.818-4.297-0.105-4.297
				C182.768,133.785,182.855,138.082,184.779,138.082L184.779,138.082z"/>
		</g>
	</g>
	<g>
		<g>
			<path style="fill:#361211;" d="M164.279,119.582c1.906,0,1.818-4.297-0.105-4.297
				C162.268,115.285,162.355,119.582,164.279,119.582L164.279,119.582z"/>
		</g>
	</g>
	<g>
		<g>
			<path style="fill:#361211;" d="M138.779,108.582c1.906,0,1.818-4.297-0.105-4.297
				C136.768,104.285,136.855,108.582,138.779,108.582L138.779,108.582z"/>
		</g>
	</g>
	<g>
		<g>
			<path style="fill:#361211;" d="M110.779,117.082c1.906,0,1.818-4.297-0.105-4.297
				C108.768,112.785,108.855,117.082,110.779,117.082L110.779,117.082z"/>
		</g>
	</g>
	<g>
		<g>
			<path style="fill:#361211;" d="M147.219,88.602c-19.934-1.017-35.649,15.127-46.951,29.657
				c-6.891,8.858-12.7,18.52-17.979,28.405c-4.705,8.812-9.674,18.229-11.641,28.081c-2.146,10.755,0.006,22.832,5.176,32.426
				c4.345,8.061,12.02,13.795,19.99,17.928c18.959,9.83,42.38,11.4,63.326,10.281c16.175-0.864,33.26-4.24,45.957-14.961
				c9.412-7.947,14.229-19.711,15.01-31.815c1.76-27.285-13.693-55.116-31.518-74.675c-11.143-12.226-29.404-27.99-47.387-24.972
				c-0.867,0.146-0.829,1.855,0.047,1.953c26.798,2.985,47.694,24.557,61.229,46.395c13.401,21.621,24.123,55.151,4.573,76.522
				c-11.411,12.474-29.397,16.208-45.52,17.432c-21.704,1.647-45.372-0.223-65.118-10.009c-9.551-4.732-17.324-12.087-21.134-22.15
				c-5.106-13.487-2.184-26.716,3.447-39.376c9.085-20.425,21.321-40.583,37.981-55.706c8.407-7.63,19.031-13.783,30.525-14.752
				C147.531,89.24,147.515,88.617,147.219,88.602L147.219,88.602z"/>
		</g>
	</g>
	<g>
		<g>
			<path style="fill:#361211;" d="M94.331,223.209c23.493,8.134,48.534,13.297,73.229,7.535c10.846-2.531,24.373-6.046,32.223-14.52
				c4.855-5.242,6.882-12.516,7.664-19.445c2.068-18.349-4.486-37.807-12.947-53.807c-8.883-16.8-23.021-30.244-39.524-39.59
				c-17.555-9.94-35.203-3.902-49.212,9.246c-0.375,0.352-0.092,1.56,0.453,1.104c9.939-8.309,20.87-15.51,34.373-13.934
				c11.01,1.285,20.598,8.682,28.941,15.403c7.857,6.331,14.549,12.98,20.078,21.47c5.911,9.076,10.314,19.178,13.437,29.53
				c4.983,16.523,8.282,41.017-7.61,52.867c-5.561,4.146-13.074,6.54-19.59,8.704c-7.488,2.487-15.287,3.92-23.133,4.62
				c-13.398,1.196-26.893-0.618-39.902-3.785c-6.242-1.52-12.379-3.455-18.462-5.513C94.295,223.077,94.285,223.193,94.331,223.209
				L94.331,223.209z"/>
		</g>
	</g>
</g>
</svg>
