<?xml version="1.0" encoding="iso-8859-1"?>
<!-- Generator: Adobe Illustrator 15.0.2, SVG Export Plug-In . SVG Version: 6.00 Build 0)  -->
<!DOCTYPE svg PUBLIC "-//W3C//DTD SVG 1.1//EN" "http://www.w3.org/Graphics/SVG/1.1/DTD/svg11.dtd">
<svg version="1.1" xmlns="http://www.w3.org/2000/svg" xmlns:xlink="http://www.w3.org/1999/xlink" x="0px" y="0px" width="300px"
	 height="300px" viewBox="0 0 300 300" style="enable-background:new 0 0 300 300;" xml:space="preserve">
<g id="color__x28_change_this_x29_">
	<path style="fill:#A6A8AB;" d="M214.233,85.76c-0.149-0.29-0.3-0.55-0.449-0.76l0.27-0.18c-13.27-19.021-54.15-15.24-80.14-5.561
		c-3.931,1.46-7.53,3.061-10.63,4.74c-49.601,27-24.681,80.5-14.61,122.25c0.44,1.79,0.84,3.55,1.21,5.29l0.17-0.04
		c7.9,14.18,59.73,5.88,81.65-1.04c0.489-0.15,0.97-0.31,1.43-0.46c0,0,26-8,38-17v-1C225.344,132.19,218.514,93.79,214.233,85.76z"
		/>
</g>
<g id="shadow">
	<path style="opacity:0.3;" d="M231.134,192v1c-12,9-38,17-38,17c-0.46,0.15-0.94,0.31-1.43,0.46l-0.15-0.46
		c-11.64-50-37.05-127,22.23-124l0.449-0.24C218.514,93.79,225.344,132.19,231.134,192z"/>
	<path style="opacity:0.5;fill:#FFFFFF;" d="M133.914,79.26c1.08,1.76,0.22,4.41-2.69,7.471c-6.3,6.31-12.609,9.18-18.06,16.34
		c-11.75,15.199-12.9,35.55-6.88,51.89c5.869,16.31,9.84,38.97,2.39,51.29C98.604,164.5,73.684,111,123.284,84
		C126.384,82.32,129.983,80.72,133.914,79.26z"/>
</g>
<g id="outline">
	<g>
		<g>
			<path style="fill:#361211;" d="M110.224,212.253c-6.801-36.036-32.174-85.349-0.888-116.569
				c14.427-14.398,36.736-20.17,56.393-22.286c9.882-1.063,20.097-0.956,29.767,1.507c8.625,2.197,14.601,6.821,20.056,13.656
				c0.498,0.625,0.989-0.273,0.839-0.78c-4.777-16.023-27.164-18.229-40.999-18.021c-18.644,0.278-38.804,4.887-54.991,14.329
				c-16.688,9.732-26.684,26.084-27.723,45.333c-1.087,20.135,5.079,39.976,10.574,59.101c2.279,7.93,4.75,15.85,6.629,23.886
				C109.964,212.763,110.276,212.538,110.224,212.253L110.224,212.253z"/>
		</g>
	</g>
	<g>
		<g>
			<path style="fill:#361211;" d="M109.997,211.547c2.599,7.538,15.154,8.07,21.617,8.434c13.24,0.743,26.688-1.161,39.669-3.603
				c8.797-1.654,17.436-3.893,25.921-6.731c5.586-1.87,11.098-3.961,16.523-6.255c5.943-2.514,12.812-5.07,17.998-8.955
				c1.1-0.824,0.322-3.938-1.184-2.873c-17.016,12.035-37.776,18.661-58.135,22.737c-11.958,2.395-24.172,3.953-36.375,4.106
				c-9.066,0.113-19.098-0.412-25.95-6.996C110.007,211.339,109.983,211.505,109.997,211.547L109.997,211.547z"/>
		</g>
	</g>
	<g>
		<g>
			<path style="fill:#361211;" d="M213.73,85.084c2.185,3.372,2.733,7.85,3.587,11.688c1.631,7.334,2.833,14.782,4.014,22.198
				c3.879,24.371,6.074,48.877,9.081,73.354c0.159,1.3,1.56,0.795,1.478-0.343c-1.796-24.947-5.156-50.132-9.441-74.774
				c-1.296-7.455-2.787-14.869-4.744-22.182c-0.886-3.312-1.882-7.255-3.869-10.109C213.753,84.798,213.679,85.004,213.73,85.084
				L213.73,85.084z"/>
		</g>
	</g>
	<g>
		<g>
			<path style="fill:#361211;" d="M213.78,85.902c-11.178-0.546-22.589,1.551-29.961,10.66c-6.352,7.849-7.721,18.758-7.916,28.504
				c-0.575,28.752,9.027,57.294,15.541,84.983c0.054,0.226,0.264,0.085,0.221-0.1c-6.029-25.934-14.053-51.949-15.328-78.699
				c-0.533-11.19,0.301-23.502,6.752-33.054c6.805-10.074,19.322-12.495,30.696-12.1C213.871,86.101,213.868,85.906,213.78,85.902
				L213.78,85.902z"/>
		</g>
	</g>
	<g>
		<g>
			<path style="fill:#361211;" d="M115.047,211.619c1.369,0,1.306-3.086-0.076-3.086
				C113.602,208.533,113.665,211.619,115.047,211.619L115.047,211.619z"/>
		</g>
	</g>
	<g>
		<g>
			<path style="fill:#361211;" d="M130.182,216.193c1.369,0,1.306-3.086-0.076-3.086C128.736,213.107,128.8,216.193,130.182,216.193
				L130.182,216.193z"/>
		</g>
	</g>
	<g>
		<g>
			<path style="fill:#361211;" d="M147.502,215.683c1.369,0,1.306-3.086-0.076-3.086
				C146.057,212.597,146.12,215.683,147.502,215.683L147.502,215.683z"/>
		</g>
	</g>
	<g>
		<g>
			<path style="fill:#361211;" d="M165.902,212.598c1.369,0,1.306-3.086-0.076-3.086
				C164.457,209.512,164.521,212.598,165.902,212.598L165.902,212.598z"/>
		</g>
	</g>
	<g>
		<g>
			<path style="fill:#361211;" d="M183.177,208.512c1.369,0,1.307-3.086-0.076-3.086
				C181.731,205.426,181.795,208.512,183.177,208.512L183.177,208.512z"/>
		</g>
	</g>
	<g>
		<g>
			<path style="fill:#361211;" d="M196.646,204.447c1.369,0,1.307-3.086-0.076-3.086C195.2,201.361,195.263,204.447,196.646,204.447
				L196.646,204.447z"/>
		</g>
	</g>
	<g>
		<g>
			<path style="fill:#361211;" d="M208.172,200.543c1.369,0,1.306-3.086-0.076-3.086
				C206.727,197.457,206.79,200.543,208.172,200.543L208.172,200.543z"/>
		</g>
	</g>
	<g>
		<g>
			<path style="fill:#361211;" d="M219.172,196.543c1.369,0,1.306-3.086-0.076-3.086
				C217.727,193.457,217.79,196.543,219.172,196.543L219.172,196.543z"/>
		</g>
	</g>
	<g>
		<g>
			<path style="fill:#361211;" d="M228.172,191.543c1.369,0,1.306-3.086-0.076-3.086
				C226.727,188.457,226.79,191.543,228.172,191.543L228.172,191.543z"/>
		</g>
	</g>
</g>
</svg>
