<?xml version="1.0" encoding="iso-8859-1"?>
<!-- Generator: Adobe Illustrator 15.0.2, SVG Export Plug-In . SVG Version: 6.00 Build 0)  -->
<!DOCTYPE svg PUBLIC "-//W3C//DTD SVG 1.1//EN" "http://www.w3.org/Graphics/SVG/1.1/DTD/svg11.dtd">
<svg version="1.1" xmlns="http://www.w3.org/2000/svg" xmlns:xlink="http://www.w3.org/1999/xlink" x="0px" y="0px" width="300px"
	 height="300px" viewBox="0 0 300 300" style="enable-background:new 0 0 300 300;" xml:space="preserve">
<g id="color__x28_change_this_x29_">
	<path style="fill:#A6A8AB;" d="M191.2,182.296c-1.67-23.33,0-49.17-10-71.67c-7.38-16.33-21.09-23.01-36.07-22.33
		c-8.72,0.39-17.85,3.26-26.43,8.17c-49.17,28.33-22.5,140,18.5,138h3c9.11-0.41,16.67-2.36,22.93-5.29
		C187.07,217.946,191.86,192.207,191.2,182.296z"/>
</g>
<g id="shadow">
	<path style="opacity:0.3;" d="M191.2,182.296c0.66,9.91-4.13,35.65-28.07,46.88c13.84-17.12,17.561-41.14,15.07-66.71
		c-2.57-24.81-8.79-62.05-33.07-74.17c14.98-0.68,28.69,6,36.07,22.33C191.2,133.126,189.53,158.966,191.2,182.296z"/>
	<path style="opacity:0.5;fill:#FFFFFF;" d="M114.24,110.536c9.04-7.16,9.17,12.67-2.04,8.93c-5.88-2.21-2.58-6.57,0.78-9.13
		L114.24,110.536z"/>
	<path style="opacity:0.5;fill:#FFFFFF;" d="M108.141,130.056c-0.19,7.04-0.79,14.59,0.06,21.41c1,6,9,30-5,16c-7-8-8-47,7-44
		c0,2.81-0.88,4.75-0.99,6.62L108.141,130.056z"/>
</g>
<g id="outline">
	<g>
		<g>
			<path style="fill:#361211;" d="M137.193,234.193c-13.619,0.192-23.622-11.518-29.959-22.269
				c-8.738-14.825-12.967-32.479-14.081-49.528c-1.1-16.817,1.249-34.733,10.223-49.295c10.139-16.453,31.424-25.66,50.392-22.911
				c21.222,3.075,29.483,23.871,32.89,42.531c2.062,11.296,2.37,22.866,2.8,34.312c0.257,6.844,1.261,13.866,0.613,20.707
				c-1.031,10.903-5.726,21.524-13.092,29.606c-4.787,5.252-10.856,9.056-17.424,11.666c-3.927,1.562-8.033,2.419-12.158,3.259
				C144.085,232.945,140.586,234.193,137.193,234.193c-0.242,0-0.231,0.547,0.014,0.547c4.426,0,8.466,0.923,12.965,0.17
				c4.962-0.831,9.771-2.492,14.286-4.682c7.284-3.532,13.375-9.092,18.027-15.664c7.373-10.415,10.275-23.074,9.491-35.642
				c-1.587-25.432,0.855-56.068-15.106-77.773c-12.695-17.262-35.691-16.766-53.482-8.623c-30.589,14.001-35.066,51.958-30.48,81.57
				c2.367,15.279,7.476,30.789,16.294,43.598c6.452,9.373,15.972,17.689,28.006,17.046
				C137.45,234.727,137.438,234.19,137.193,234.193z"/>
		</g>
	</g>
</g>
</svg>
