<?xml version="1.0" encoding="iso-8859-1"?>
<!-- Generator: Adobe Illustrator 15.0.2, SVG Export Plug-In . SVG Version: 6.00 Build 0)  -->
<!DOCTYPE svg PUBLIC "-//W3C//DTD SVG 1.1//EN" "http://www.w3.org/Graphics/SVG/1.1/DTD/svg11.dtd">
<svg version="1.1" xmlns="http://www.w3.org/2000/svg" xmlns:xlink="http://www.w3.org/1999/xlink" x="0px" y="0px" width="300px"
	 height="300px" viewBox="0 0 300 300" style="enable-background:new 0 0 300 300;" xml:space="preserve">
<g id="color__x28_change_this_x29_">
	<path style="fill:#A6A8AB;" d="M185.333,89.52c-3.59-1.56-7.13-2.78-10.59-3.72c-29.76-8-54.67,5.8-68.8,20.569
		c-21.42,22.41-25.31,65.641-12.17,87.601c7.96,13.29,11.96,12.67,19.57,17.27c3.12,14.601-0.32,41.83,3.59,54.36
		c5.22,7.46,21.57,7.13,34.1,3.99c4.27-1.07,8.1-2.46,10.9-3.99h0.02c0.64-28.83-6.35-38.14,5.92-56.44
		c19.58-9.109,35.61-26.04,36.61-30.06C212.143,152.54,211.103,100.689,185.333,89.52z"/>
</g>
<g id="shadow">
	<path style="opacity:0.3;" d="M167.873,209.159c-12.27,18.301-5.28,27.61-5.92,56.44h-0.02c-2.8,1.53-6.63,2.92-10.9,3.99
		c-0.97-15.05-2.12-29.16-0.1-45.99c3-29,16-28,34-44c19.23-18.36,16.56-74.32-10.19-93.8c3.46,0.939,7,2.16,10.59,3.72
		c25.77,11.17,26.81,63.021,19.15,89.58C203.483,183.119,187.453,200.05,167.873,209.159z"/>
	<path style="opacity:0.5;fill:#FFFFFF;" d="M126.853,98.359c10.01-1.359,2.67,17.57-12.92,13.24c-4.28-2.17,5.13-10.55,12.9-13.24
		C126.843,98.359,126.843,98.35,126.853,98.359z"/>
	<path style="opacity:0.5;fill:#FFFFFF;" d="M112.793,121.63c1.87,5.97-7.06,18.8-7.86,25.97c-2,7-3,40-12,16c-3-8,5.13-30.32,9-38
		C105.273,118.96,111.443,113.989,112.793,121.63z"/>
</g>
<g id="outline">
	<g>
		<g>
			<path style="fill:#361211;" d="M113.982,211.464c-3.143-2.288-6.676-3.784-9.886-5.957c-5.114-3.463-8.706-9.406-11.311-14.858
				c-4.694-9.824-6.01-20.851-5.729-31.629c0.618-23.743,10.498-46.291,29.728-60.567c10.297-7.645,22.418-12.364,35.182-13.56
				c12.594-1.18,28.448,1.332,38.728,9.174c15.861,12.098,17.375,38.104,16.898,56.23c-0.162,6.151-0.822,12.281-1.847,18.345
				c-0.728,4.313-1.292,9.002-3.929,12.595c-8.787,11.972-22.785,20.155-34.906,28.251c-0.075,0.05-0.072,0.257,0.047,0.225
				c11.77-3.197,21.549-10.938,30.198-19.324c5.382-5.218,8.21-9.466,9.802-16.727c4.095-18.669,3.986-39.435-1.244-57.853
				c-2.22-7.816-5.762-15.373-11.365-21.332c-7.357-7.822-19.431-10.535-29.656-11.832c-22.73-2.881-45.932,7.639-60.939,24.465
				c-14.408,16.154-19.624,39.988-18.094,61.104c0.663,9.152,2.862,18.52,7.733,26.375c2.792,4.504,5.961,8.875,10.339,11.947
				c3.112,2.185,6.791,3.545,10.18,5.216C114.04,211.815,114.067,211.525,113.982,211.464L113.982,211.464z"/>
		</g>
	</g>
	<g>
		<g>
			<path style="fill:#361211;" d="M108.903,202.685c3.515,3.414,3.885,9.437,4.329,14.03c0.569,5.903,0.445,11.881,0.385,17.803
				c-0.064,6.141-0.187,12.273,0.082,18.412c0.18,4.066-0.029,10.048,2.824,13.329c0.554,0.637,0.979-0.105,1.013-0.674
				c0.313-5.332-0.983-10.871-1.187-16.222c-0.266-7.044-0.24-14.097-0.447-21.143c-0.216-7.341,0.55-21.247-6.954-25.716
				C108.867,202.457,108.861,202.644,108.903,202.685L108.903,202.685z"/>
		</g>
	</g>
	<g>
		<g>
			<path style="fill:#361211;" d="M116.695,265.822c3.512,6.83,13.362,7.254,20.047,7.165c4.982-0.066,9.954-0.918,14.791-2.062
				c3.446-0.815,8.592-1.709,10.833-4.7c0.323-0.431,0.186-1.472-0.454-1.523c-2.72-0.219-6.111,2.014-8.719,2.821
				c-4.564,1.415-9.312,2.207-14.062,2.646c-7.68,0.71-15.942,0.216-22.064-4.942C116.741,264.951,116.585,265.609,116.695,265.822
				L116.695,265.822z"/>
		</g>
	</g>
	<g>
		<g>
			<path style="fill:#361211;" d="M162.408,266.785c2.15-12.057-0.965-24.497-0.568-36.633c0.173-5.269,1.697-10.277,4.127-14.93
				c3.633-6.954,9.576-12.179,13.456-18.917c0.228-0.396,0.136-2.194-0.69-1.681c-6.054,3.767-10.629,10.852-14.139,16.956
				c-2.758,4.799-4.469,10.07-5.062,15.566c-0.584,5.386-0.069,10.845,0.399,16.217c0.679,7.781,0.557,15.708,1.538,23.444
				C161.558,267.521,162.293,267.426,162.408,266.785L162.408,266.785z"/>
		</g>
	</g>
</g>
</svg>
