<?xml version="1.0" encoding="iso-8859-1"?>
<!-- Generator: Adobe Illustrator 15.0.2, SVG Export Plug-In . SVG Version: 6.00 Build 0)  -->
<!DOCTYPE svg PUBLIC "-//W3C//DTD SVG 1.1//EN" "http://www.w3.org/Graphics/SVG/1.1/DTD/svg11.dtd">
<svg version="1.1" xmlns="http://www.w3.org/2000/svg" xmlns:xlink="http://www.w3.org/1999/xlink" x="0px" y="0px" width="300px"
	 height="300px" viewBox="0 0 300 300" style="enable-background:new 0 0 300 300;" xml:space="preserve">
<g id="color__x28_change_this_x29_">
	<path style="fill:#A6A8AB;" d="M190.398,181.43c-1.66-23.33,4-48.17-6-70.67c-5.91-13.08-16.12-20.22-27.8-22.35
		c-11.39-2.08-24.18,0.6-35.7,7.19c-1.53,0.88-2.99,1.8-4.38,2.74c-42.71,28.86-18.7,83.27-10.38,124.3c0.7,0.45,1.37,0.9,2.01,1.36
		c6,4.32,9.52,9.12,14.92,13.93l0.17-0.03c0.38,2.03,0.79,3.86,1.16,5.36c10.67-2,23.33-1.33,34,0.67c0.09-0.27,0.18-0.53,0.29-0.79
		c1.45-3.85,3.99-7.03,7.15-9.75c2.36-2.05,5.06-3.84,7.93-5.46c6.63-3.8,14.08-6.74,19.95-9.99
		C192.058,205.5,191.238,193.88,190.398,181.43z"/>
</g>
<g id="shadow">
	<path style="opacity:0.3;" d="M190.398,181.43c0.84,12.45,1.66,24.07,3.32,36.51c-5.87,3.25-13.32,6.19-19.95,9.99
		c-0.7-12.09-0.7-23.73-0.7-36.67c0-12,2-29.33-9.34-37.33c22.21-22.75,10.54-46.38-7.13-65.52c11.68,2.13,21.89,9.27,27.8,22.35
		C194.398,133.26,188.738,158.1,190.398,181.43z"/>
	<path style="opacity:0.3;" d="M160.528,210.63c0.27-0.25,0.56-0.48,0.87-0.7c0.67,8,3,14,4.33,23.33l0.11,0.13
		c-3.16,2.72-5.7,5.9-7.15,9.75C156.598,235.13,152.898,217.48,160.528,210.63z"/>
	<path style="opacity:0.5;fill:#FFFFFF;" d="M116.518,98.34c3.47,8.47-8.16,18.13-12.12,24.92c-6.67,11.33-6,26.67-4.67,39.33
		c1.59,20.63,12.83,42.1,8.42,61.41c-0.64-0.46-1.31-0.91-2.01-1.36C97.818,181.61,73.808,127.2,116.518,98.34z"/>
</g>
<g id="outline">
	<g>
		<g>
			<path style="fill:#361211;" d="M106.573,222.853c-6.907-37.857-30.461-89.361,5.482-119.632
				c17.125-14.422,44.729-20.567,62.688-4.312c11.152,10.095,14.018,26.514,14.675,40.797c0.67,14.577-0.871,29.133,0.084,43.716
				c0.752,11.484,0.757,23.727,3.744,34.894c0.229,0.858,1.004,0.551,1.002-0.232c-0.031-15.672-3.065-31.288-3.164-47.007
				c-0.089-14.103,1.172-28.14-0.643-42.19c-2.847-22.038-16.015-41.121-39.514-42.548c-20.428-1.242-41.753,11.5-52.12,28.74
				c-9.8,16.296-8.621,36.642-5.485,54.632c3.145,18.043,9.045,35.425,12.909,53.297
				C106.308,223.364,106.625,223.137,106.573,222.853L106.573,222.853z"/>
		</g>
	</g>
	<g>
		<g>
			<path style="fill:#361211;" d="M105.95,222.917c2.98,2.852,6.306,5.263,9.216,8.214c2.381,2.415,4.734,5.861,7.812,7.364
				c0.497,0.243,0.511-0.755,0.35-0.988c-2.017-2.927-5.11-5.358-7.627-7.878c-2.787-2.79-5.848-5.935-9.579-7.395
				C105.772,222.098,105.787,222.761,105.95,222.917L105.95,222.917z"/>
		</g>
	</g>
	<g>
		<g>
			<path style="fill:#361211;" d="M124.697,211.178c-3.257,3.098-3.334,8.799-3.396,12.969c-0.098,6.425,0.937,13.186,2.401,19.427
				c0.07,0.299,0.313,0.864,0.724,0.798c11.53-1.849,22.497-0.397,33.995,0.494c0.773,0.06,0.783-1.657,0.119-1.846
				c-5.543-1.567-11.441-1.925-17.172-2.155c-1.729-0.069-16.514,1.115-16.578,0.935c-3.209-9.05-4.328-21.744-0.012-30.47
				C124.802,211.281,124.778,211.101,124.697,211.178L124.697,211.178z"/>
		</g>
	</g>
	<g>
		<g>
			<path style="fill:#361211;" d="M158.602,244.101c5.782-13.756,23.357-18.225,35.415-24.786c1.074-0.584,0.624-3.425-0.572-2.773
				c-12.861,6.998-30.29,11.657-35.251,27.214C158.099,244.054,158.418,244.537,158.602,244.101L158.602,244.101z"/>
		</g>
	</g>
	<g>
		<g>
			<path style="fill:#361211;" d="M159.096,244.581c-2.971-10.742-5.938-25.56,2.412-34.385c0.128-0.136,0.1-0.719-0.172-0.567
				c-4.795,2.677-5.562,9.545-5.716,14.441c-0.22,7.041,1.64,13.81,3.413,20.538C159.05,244.672,159.111,244.632,159.096,244.581
				L159.096,244.581z"/>
		</g>
	</g>
	<g>
		<g>
			<path style="fill:#361211;" d="M165.829,233.217c-1.132-7.842-3.113-15.517-4.284-23.355c-0.039-0.266-0.311-0.159-0.3,0.07
				c0.365,7.902,3.139,15.587,4.389,23.373C165.667,233.511,165.852,233.379,165.829,233.217L165.829,233.217z"/>
		</g>
	</g>
	<g>
		<g>
			<path style="fill:#361211;" d="M124.408,211.671c12.255,0.211,24.447,0.518,36.664-0.804c0.242-0.026,0.229-0.559-0.014-0.547
				c-12.231,0.601-24.433,0.47-36.67,0.53C124.024,210.853,124.042,211.665,124.408,211.671L124.408,211.671z"/>
		</g>
	</g>
</g>
</svg>
