<?xml version="1.0" encoding="iso-8859-1"?>
<!-- Generator: Adobe Illustrator 15.0.2, SVG Export Plug-In . SVG Version: 6.00 Build 0)  -->
<!DOCTYPE svg PUBLIC "-//W3C//DTD SVG 1.1//EN" "http://www.w3.org/Graphics/SVG/1.1/DTD/svg11.dtd">
<svg version="1.1" xmlns="http://www.w3.org/2000/svg" xmlns:xlink="http://www.w3.org/1999/xlink" x="0px" y="0px" width="300px"
	 height="300px" viewBox="0 0 300 300" style="enable-background:new 0 0 300 300;" xml:space="preserve">
<g id="color__x28_change_this_x29_">
	<path style="fill:#A6A8AB;" d="M181.286,92.277c4.061-8.2-26.71-13.21-36.02-13.21c-10.96,0-53.92,5.95-53.92,16.59h-0.061
		c0.28,33.56,5.98,93.25,5.98,125.41v1.5c1.68,2.84,4.42,4.94,7.95,6.41c15.069,6.3,44.359,1.23,65.03-5.98
		c5.72-2,10.779-4.15,14.689-6.27l0.29-0.03C184.247,206.057,181.576,109.987,181.286,92.277z"/>
</g>
<g id="shadow">
	<path style="opacity:0.3;" d="M180.337,93.617c0.42-0.45,0.739-0.9,0.949-1.34c0.29,17.71,2.961,113.78,3.94,124.42l-0.29,0.03
		c-3.91,2.12-8.97,4.27-14.689,6.27c-0.211-25.23-1.971-105.66-1.98-123.8C172.687,97.557,176.776,95.697,180.337,93.617z"/>
	<path style="opacity:0.3;fill:#FFFFFF;" d="M96.236,102.047c-3.42-2.28-4.89-4.42-4.89-6.39c0-10.64,42.96-16.59,53.92-16.59
		c9.31,0,40.08,5.01,36.02,13.21c-0.21,0.44-0.529,0.89-0.949,1.34c-3.561,2.08-7.65,3.94-12.07,5.58
		c-24.55,9.11-59.46,11.23-72,2.87C96.257,102.057,96.247,102.057,96.236,102.047z"/>
	<path style="opacity:0.5;fill:#FFFFFF;" d="M105.217,228.977c-3.53-1.47-6.271-3.57-7.95-6.41v-1.5c0-32.16-5.7-91.85-5.98-125.41
		h0.061c0,1.97,1.47,4.11,4.89,6.39C93.406,126.687,104.446,207.567,105.217,228.977z"/>
</g>
<g id="outline">
	<g>
		<g>
			<path style="fill:#361211;" d="M97.205,222.59c1.411,5.048,7.907,7.413,12.406,8.619c8.111,2.174,16.863,1.724,25.124,0.865
				c9.094-0.945,18.091-2.905,26.885-5.375c4.415-1.239,8.769-2.695,13.056-4.322c3.441-1.306,7.383-2.244,10.59-4.034
				c1.212-0.677,0.779-3.958-0.666-3.225c-2.862,1.452-5.361,3.386-8.354,4.619c-3.782,1.56-7.661,2.879-11.562,4.105
				c-8.594,2.7-17.426,4.662-26.341,5.939c-7.88,1.13-15.946,1.577-23.873,0.688c-3.576-0.401-7.091-1.278-10.369-2.769
				c-2.807-1.275-4.408-3.496-6.803-5.224C97.229,222.429,97.191,222.539,97.205,222.59L97.205,222.59z"/>
		</g>
	</g>
	<g>
		<g>
			<path style="fill:#361211;" d="M181.259,93.029c-19.319,9.564-41.935,13.988-63.439,13.129
				c-8.07-0.322-17.384-1.473-23.627-7.108c-5.761-5.2,3.814-9.232,7.839-10.846c13.112-5.255,28.702-7.722,42.813-7.984
				c7.105-0.132,14.463,1.334,21.326,2.999c3.675,0.891,19.211,4.699,12.707,10.287c-1.114,0.958-2.586,1.768-3.816,2.566
				c-0.665,0.432-0.586,2.383,0.41,1.987c3.464-1.376,9.137-5.283,6.271-9.719c-3.146-4.868-11.006-6.36-16.173-7.607
				c-13.246-3.196-25.533-3.007-38.896-0.917c-7.656,1.197-15.335,2.782-22.708,5.193c-4.311,1.41-10.718,3.523-12.847,8.008
				c-2.041,4.3,1.427,7.857,4.766,10.124c6.184,4.197,14.764,4.82,21.988,5.148c11.402,0.518,22.935-0.963,34.048-3.43
				c10.278-2.281,20.665-5.679,29.36-11.759C181.303,93.084,181.291,93.014,181.259,93.029L181.259,93.029z"/>
		</g>
	</g>
	<g>
		<g>
			<path style="fill:#361211;" d="M91.036,93.073c-1.231,21.223,1.065,42.833,2.318,64.017c1.262,21.317,1.942,42.693,3.477,63.988
				c0.045,0.622,0.807,0.938,0.86,0.155c1.415-20.771-1.021-41.952-2.411-62.673c-1.465-21.825-2.43-43.671-3.783-65.499
				C91.47,92.624,91.061,92.647,91.036,93.073L91.036,93.073z"/>
		</g>
	</g>
	<g>
		<g>
			<path style="fill:#361211;" d="M185.869,217.052c-1.703-21.036-1.475-42.418-2.085-63.507
				c-0.612-21.167-1.478-42.323-2.158-63.487c-0.022-0.678-0.699-0.648-0.719,0.018c-0.599,21.123,0.45,42.404,1.092,63.513
				c0.417,13.709,0.854,27.418,1.36,41.125c0.277,7.508,0.362,15.149,1.332,22.611C184.826,218.358,185.942,217.96,185.869,217.052
				L185.869,217.052z"/>
		</g>
	</g>
	<g>
		<g>
			<path style="fill:#361211;" d="M101.988,222.686c1.369,0,1.306-3.086-0.076-3.086C100.543,219.6,100.606,222.686,101.988,222.686
				L101.988,222.686z"/>
		</g>
	</g>
	<g>
		<g>
			<path style="fill:#361211;" d="M116.287,227.26c1.369,0,1.306-3.086-0.076-3.086C114.842,224.174,114.905,227.26,116.287,227.26
				L116.287,227.26z"/>
		</g>
	</g>
	<g>
		<g>
			<path style="fill:#361211;" d="M132.65,226.75c1.369,0,1.306-3.086-0.076-3.086C131.205,223.664,131.269,226.75,132.65,226.75
				L132.65,226.75z"/>
		</g>
	</g>
	<g>
		<g>
			<path style="fill:#361211;" d="M150.033,223.665c1.369,0,1.306-3.086-0.076-3.086
				C148.588,220.579,148.651,223.665,150.033,223.665L150.033,223.665z"/>
		</g>
	</g>
	<g>
		<g>
			<path style="fill:#361211;" d="M166.354,219.579c1.369,0,1.306-3.086-0.076-3.086
				C164.908,216.493,164.972,219.579,166.354,219.579L166.354,219.579z"/>
		</g>
	</g>
	<g>
		<g>
			<path style="fill:#361211;" d="M179.078,214.514c1.369,0,1.306-3.086-0.076-3.086
				C177.633,211.428,177.696,214.514,179.078,214.514L179.078,214.514z"/>
		</g>
	</g>
	<g>
		<g>
			<path style="fill:#361211;" d="M99.988,114.545c1.369,0,1.306-3.085-0.076-3.085C98.543,111.46,98.606,114.545,99.988,114.545
				L99.988,114.545z"/>
		</g>
	</g>
	<g>
		<g>
			<path style="fill:#361211;" d="M114.287,119.12c1.369,0,1.306-3.085-0.076-3.085C112.842,116.035,112.905,119.12,114.287,119.12
				L114.287,119.12z"/>
		</g>
	</g>
	<g>
		<g>
			<path style="fill:#361211;" d="M130.65,118.609c1.369,0,1.306-3.085-0.076-3.085C129.205,115.524,129.269,118.609,130.65,118.609
				L130.65,118.609z"/>
		</g>
	</g>
	<g>
		<g>
			<path style="fill:#361211;" d="M148.033,115.524c1.369,0,1.306-3.085-0.076-3.085
				C146.588,112.439,146.651,115.524,148.033,115.524L148.033,115.524z"/>
		</g>
	</g>
	<g>
		<g>
			<path style="fill:#361211;" d="M164.354,111.438c1.369,0,1.306-3.085-0.076-3.085
				C162.908,108.354,162.972,111.438,164.354,111.438L164.354,111.438z"/>
		</g>
	</g>
	<g>
		<g>
			<path style="fill:#361211;" d="M177.078,106.375c1.369,0,1.306-3.085-0.076-3.085
				C175.633,103.29,175.696,106.375,177.078,106.375L177.078,106.375z"/>
		</g>
	</g>
</g>
</svg>
