<?xml version="1.0" encoding="iso-8859-1"?>
<!-- Generator: Adobe Illustrator 15.0.2, SVG Export Plug-In . SVG Version: 6.00 Build 0)  -->
<!DOCTYPE svg PUBLIC "-//W3C//DTD SVG 1.1//EN" "http://www.w3.org/Graphics/SVG/1.1/DTD/svg11.dtd">
<svg version="1.1" xmlns="http://www.w3.org/2000/svg" xmlns:xlink="http://www.w3.org/1999/xlink" x="0px" y="0px" width="300px"
	 height="300px" viewBox="0 0 300 300" style="enable-background:new 0 0 300 300;" xml:space="preserve">
<g id="color__x28_change_this_x29_">
	<path style="fill:#A6A8AB;" d="M213.735,92.264c-0.031-0.051-0.063-0.101-0.095-0.16l0.265-0.16
		c-13.327-20.45-57.497-15.61-83.483-5c-2.794,1.14-5.367,2.34-7.674,3.59c-46.298,25.2-27.669,73.49-16.788,113.77
		c1.281,4.711,2.445,9.32,3.387,13.761l0.169-0.03c9.875,15.79,54.766,8.65,81.514-1.04c4.308-1.56,8.14-3.19,11.283-4.8l0.35-0.66
		c-21.17-83-19.053-97,15.877-94l1.059-2C218.583,107.854,217.567,98.323,213.735,92.264z"/>
</g>
<g id="shadow">
	<path style="opacity:0.3;" d="M219.6,115.533l-1.059,2c-34.93-3-37.047,11-15.877,94l-0.35,0.66
		c-3.144,1.609-6.976,3.24-11.283,4.8l-0.011-0.46c-11.644-50-37.047-127,22.229-124l0.486-0.27
		C217.567,98.323,218.583,107.854,219.6,115.533z"/>
	<path style="opacity:0.5;fill:#FFFFFF;" d="M122.749,90.533c2.307-1.25,4.879-2.45,7.674-3.59
		c-2.191,4.18-13.697,11.78-15.613,13.59c-7.642,7.6-12.808,16.74-14.818,27c-1.609,9.88,1.566,28.5,3.175,38
		c2.413,11.78,6.097,21.84,5.292,34c-0.286,2.99-1.133,4.3-2.498,4.77C95.08,164.023,76.45,115.733,122.749,90.533z"/>
</g>
<g id="outline">
	<g>
		<g>
			<path style="fill:#361211;" d="M114.513,218.152c1.369,0,1.306-3.086-0.076-3.086
				C113.067,215.066,113.13,218.152,114.513,218.152L114.513,218.152z"/>
		</g>
	</g>
	<g>
		<g>
			<path style="fill:#361211;" d="M129.647,222.727c1.369,0,1.306-3.086-0.076-3.086
				C128.202,219.641,128.265,222.727,129.647,222.727L129.647,222.727z"/>
		</g>
	</g>
	<g>
		<g>
			<path style="fill:#361211;" d="M146.968,222.216c1.369,0,1.306-3.086-0.076-3.086
				C145.522,219.13,145.585,222.216,146.968,222.216L146.968,222.216z"/>
		</g>
	</g>
	<g>
		<g>
			<path style="fill:#361211;" d="M165.368,219.131c1.369,0,1.306-3.086-0.076-3.086
				C163.923,216.045,163.986,219.131,165.368,219.131L165.368,219.131z"/>
		</g>
	</g>
	<g>
		<g>
			<path style="fill:#361211;" d="M182.644,215.045c1.369,0,1.306-3.086-0.076-3.086
				C181.198,211.959,181.262,215.045,182.644,215.045L182.644,215.045z"/>
		</g>
	</g>
	<g>
		<g>
			<path style="fill:#361211;" d="M196.111,208.98c1.369,0,1.307-3.086-0.076-3.086C194.666,205.895,194.729,208.98,196.111,208.98
				L196.111,208.98z"/>
		</g>
	</g>
	<g>
		<g>
			<path style="fill:#361211;" d="M109.689,218.786c-6.8-36.036-32.173-85.349-0.887-116.569
				c14.427-14.398,36.736-20.17,56.393-22.286c9.882-1.063,20.097-0.956,29.767,1.507c8.625,2.197,14.601,6.821,20.055,13.656
				c0.498,0.625,0.99-0.273,0.839-0.78c-4.776-16.023-27.163-18.229-40.997-18.021c-18.645,0.278-38.806,4.887-54.993,14.329
				c-16.687,9.732-26.683,26.084-27.722,45.333c-1.087,20.135,5.079,39.976,10.575,59.101c2.279,7.93,4.749,15.85,6.629,23.886
				C109.429,219.296,109.743,219.071,109.689,218.786L109.689,218.786z"/>
		</g>
	</g>
	<g>
		<g>
			<path style="fill:#361211;" d="M109.463,218.08c1.729,5.418,9.078,7.659,13.965,8.786c8.625,1.989,17.765,1.501,26.491,0.596
				c9.502-0.984,18.907-2.939,28.126-5.41c4.413-1.183,8.774-2.561,13.078-4.093c3.748-1.334,8.007-2.297,11.52-4.149
				c1.233-0.65,0.8-3.928-0.666-3.225c-3.163,1.519-5.966,3.507-9.268,4.778c-3.808,1.467-7.696,2.717-11.604,3.882
				c-9.408,2.804-19.061,4.819-28.791,6.092c-8.245,1.079-16.672,1.491-24.95,0.558c-3.566-0.401-7.074-1.235-10.385-2.62
				c-3.02-1.264-4.868-3.499-7.431-5.33C109.465,217.885,109.448,218.03,109.463,218.08L109.463,218.08z"/>
		</g>
	</g>
	<g>
		<g>
			<path style="fill:#361211;" d="M213.195,91.617c4.004,7.341,4.378,16.176,5.683,24.24c0.208,1.283,1.594,0.805,1.478-0.343
				c-0.84-8.34-1.796-17.292-7.055-24.065C213.207,91.329,213.154,91.541,213.195,91.617L213.195,91.617z"/>
		</g>
	</g>
	<g>
		<g>
			<path style="fill:#361211;" d="M218.547,117.496c-6.09-2.273-14.471-1.938-20.435,0.65c-5.271,2.287-7.955,7.275-9.148,12.653
				c-2.066,9.309-0.419,19.544,0.921,28.828c1.118,7.739,2.65,15.415,4.261,23.065c2.077,9.87,4.126,20.027,7.923,29.396
				c0.512,1.262,1.368-0.059,1.269-0.858c-2.011-16.187-7.315-32.003-10.516-48.001c-1.911-9.551-3.753-19.639-2.608-29.404
				c0.666-5.691,3.023-10.829,8.369-13.406c6.309-3.041,13.348-1.514,19.96-2.848C218.572,117.566,218.576,117.506,218.547,117.496
				L218.547,117.496z"/>
		</g>
	</g>
	<g>
		<g>
			<path style="fill:#361211;" d="M191.082,216.506c-5.943-25.965-14.017-51.959-15.275-78.722
				c-0.526-11.184,0.314-23.5,6.75-33.052c6.811-10.111,19.297-12.478,30.695-12.023c0.154,0.006,0.15-0.345-0.008-0.352
				c-11.155-0.488-22.596,1.662-29.959,10.738c-6.365,7.848-7.734,18.752-7.924,28.504c-0.557,28.733,8.993,57.312,15.598,84.961
				C190.989,216.687,191.105,216.607,191.082,216.506L191.082,216.506z"/>
		</g>
	</g>
	<g>
		<g>
			<path style="fill:#361211;" d="M209.914,104.555c0.283,0.082,0.539,0.138,0.67,0.24c-0.117-0.17-0.236-0.34-0.354-0.511
				c0.156,0.385,0.457,0.821,0.927,0.81c0.743-0.019,1.001-1,0.985-1.586c-0.013-0.541-0.227-1.267-0.788-1.485
				c-0.581-0.228-0.983,0.333-1.16,0.8c0.109-0.176,0.219-0.352,0.329-0.527c-0.024,0.019-0.201,0.121-0.067,0.053
				c-0.079,0.041-0.19,0.056-0.276,0.08c-0.105,0.031-0.211,0.062-0.315,0.094C209.151,102.73,209.229,104.354,209.914,104.555
				L209.914,104.555z"/>
		</g>
	</g>
</g>
</svg>
