<?xml version="1.0" encoding="iso-8859-1"?>
<!-- Generator: Adobe Illustrator 15.0.2, SVG Export Plug-In . SVG Version: 6.00 Build 0)  -->
<!DOCTYPE svg PUBLIC "-//W3C//DTD SVG 1.1//EN" "http://www.w3.org/Graphics/SVG/1.1/DTD/svg11.dtd">
<svg version="1.1" xmlns="http://www.w3.org/2000/svg" xmlns:xlink="http://www.w3.org/1999/xlink" x="0px" y="0px" width="300px"
	 height="300px" viewBox="0 0 300 300" style="enable-background:new 0 0 300 300;" xml:space="preserve">
<g id="color__x28_change_this_x29_">
	<path style="fill:#A6A8AB;" d="M191.333,182.896c-1.67-23.33,0-49.17-10-71.67c-11.67-25.83-39.17-27.5-62.5-14.16
		c-0.6,0.35-1.19,0.7-1.77,1.06c-46.41,28.5-19.31,84.58-10.89,126.47l0.16-0.03c9.82,16.62,56.35,7.82,80.88-2.61
		c2.521-1.07,4.8-2.15,6.79-3.23l0.54-0.07C192.963,206.497,192.143,195.097,191.333,182.896z"/>
</g>
<g id="shadow">
	<path style="opacity:0.3;" d="M194.543,218.656l-0.54,0.07c-1.99,1.08-4.27,2.16-6.79,3.23c-3.03-14.98-4.24-30.22-4.24-45.86
		c0-23.12-1.149-43.55-14.64-63.58c-12.32-17.97-32.96-16.4-51.27-14.39c0.58-0.36,1.17-0.71,1.77-1.06
		c23.33-13.34,50.83-11.67,62.5,14.16c10,22.5,8.33,48.34,10,71.67C192.143,195.097,192.963,206.497,194.543,218.656z"/>
	<path style="opacity:0.5;fill:#FFFFFF;" d="M122.073,104.807c0.01,0,0.01,0,0.02,0c4.96-1.6,7.37,8.56,1.54,9.25
		C118.253,114.827,116.703,105.597,122.073,104.807z"/>
	<path style="opacity:0.5;fill:#FFFFFF;" d="M117.083,115.216c0.77,3.85-4.24,8.47-6.16,12.33c-3.47,6.93-4.24,15.41-3.09,23.5
		c0.77,3.85,3.86,10.4,1.16,14.26c-3.03,3.7-7.81,1.53-10.26-1.89c0-0.01-0.01-0.01-0.01-0.01c-5.92-14.86-5.82-39.72,7.96-50.89
		C110.533,109.816,116.313,109.046,117.083,115.216z"/>
</g>
<g id="outline">
	<g>
		<g>
			<path style="fill:#361211;" d="M106.504,225.319c-6.821-37.312-32.014-89.058,2.579-119.825
				c16.473-14.651,44.493-22.21,62.512-6.185c10.72,9.534,14.071,25.635,15.981,39.184c2.074,14.701,1.744,29.641,2.728,44.429
				c0.806,12.123,0.725,25.069,3.874,36.86c0.229,0.858,1.004,0.551,1.002-0.232c-0.039-15.557-2.678-31.244-3.386-46.814
				c-0.638-14.042-0.922-28.093-3.468-41.957c-2.123-11.563-6.004-23.405-14.035-32.232c-6.491-7.133-15.838-10.594-25.296-11.098
				c-20.259-1.08-41.819,11.752-51.926,28.997c-9.596,16.375-8.012,36.745-4.638,54.632c3.472,18.407,9.772,36.113,13.73,54.396
				C106.239,225.83,106.557,225.604,106.504,225.319L106.504,225.319z"/>
		</g>
	</g>
	<g>
		<g>
			<path style="fill:#361211;" d="M106.271,224.59c1.411,5.048,7.907,7.413,12.405,8.619c8.112,2.174,16.864,1.724,25.125,0.865
				c9.094-0.945,18.091-2.905,26.885-5.375c4.415-1.239,8.769-2.695,13.056-4.322c3.441-1.306,7.383-2.244,10.59-4.034
				c1.212-0.677,0.779-3.958-0.666-3.225c-2.862,1.452-5.361,3.386-8.354,4.619c-3.782,1.56-7.661,2.879-11.562,4.105
				c-8.594,2.7-17.426,4.662-26.341,5.939c-7.88,1.13-15.946,1.577-23.873,0.688c-3.576-0.401-7.091-1.278-10.369-2.769
				c-2.807-1.275-4.408-3.496-6.803-5.224C106.295,224.429,106.257,224.538,106.271,224.59L106.271,224.59z"/>
		</g>
	</g>
	<g>
		<g>
			<path style="fill:#361211;" d="M111.055,224.686c1.369,0,1.306-3.086-0.076-3.086C109.609,221.6,109.673,224.686,111.055,224.686
				L111.055,224.686z"/>
		</g>
	</g>
	<g>
		<g>
			<path style="fill:#361211;" d="M125.354,229.26c1.369,0,1.306-3.086-0.076-3.086C123.908,226.174,123.972,229.26,125.354,229.26
				L125.354,229.26z"/>
		</g>
	</g>
	<g>
		<g>
			<path style="fill:#361211;" d="M141.717,228.749c1.369,0,1.306-3.086-0.076-3.086
				C140.271,225.663,140.335,228.749,141.717,228.749L141.717,228.749z"/>
		</g>
	</g>
	<g>
		<g>
			<path style="fill:#361211;" d="M159.1,225.664c1.369,0,1.306-3.086-0.076-3.086C157.654,222.578,157.718,225.664,159.1,225.664
				L159.1,225.664z"/>
		</g>
	</g>
	<g>
		<g>
			<path style="fill:#361211;" d="M175.42,221.578c1.369,0,1.306-3.086-0.076-3.086C173.975,218.492,174.038,221.578,175.42,221.578
				L175.42,221.578z"/>
		</g>
	</g>
	<g>
		<g>
			<path style="fill:#361211;" d="M188.145,216.514c1.369,0,1.306-3.086-0.076-3.086
				C186.699,213.428,186.763,216.514,188.145,216.514L188.145,216.514z"/>
		</g>
	</g>
</g>
</svg>
