<?xml version="1.0" encoding="iso-8859-1"?>
<!-- Generator: Adobe Illustrator 15.0.2, SVG Export Plug-In . SVG Version: 6.00 Build 0)  -->
<!DOCTYPE svg PUBLIC "-//W3C//DTD SVG 1.1//EN" "http://www.w3.org/Graphics/SVG/1.1/DTD/svg11.dtd">
<svg version="1.1" xmlns="http://www.w3.org/2000/svg" xmlns:xlink="http://www.w3.org/1999/xlink" x="0px" y="0px" width="300px"
	 height="300px" viewBox="0 0 300 300" style="enable-background:new 0 0 300 300;" xml:space="preserve">
<g id="color__x28_change_this_x29_">
	<path style="fill:#A6A8AB;" d="M147.62,182.807l-0.01-0.66c-8.22,0.06-16.44,1.26-24.66,1.32v0.01c-0.66,2.66-0.66,6-0.66,8.66
		c8,0.67,19,0.34,27-1C148.62,189.137,148.29,184.807,147.62,182.807z"/>
</g>
<g id="shadow">
	<path style="opacity:0.45;" d="M147.62,182.807c0.67,2,1,6.33,1.67,8.33c-8,1.34-19,1.67-27,1c0-2.66,0-6,0.66-8.66v-0.01
		c8.22-0.06,16.44-1.26,24.66-1.32L147.62,182.807z"/>
</g>
<g id="outline">
	<g>
		<g>
			<path style="fill:#361211;" d="M122.297,183.883c8.361,0.399,17.748,0.166,26.004-1.197c0.491-0.081,0.457-1.024-0.027-1.094
				c-8.305-1.188-17.644,0.896-25.996,1.471C121.91,183.088,121.932,183.866,122.297,183.883L122.297,183.883z"/>
		</g>
	</g>
	<g>
		<g>
			<path style="fill:#361211;" d="M122.92,183.445c-0.867,2.821-0.867,5.77-0.923,8.701c-0.004,0.194,0.097,0.405,0.301,0.436
				c8.803,1.292,18.249,0.628,27.007-0.709c0.404-0.062,0.534-0.595,0.441-0.939c-0.737-2.745-0.911-5.596-1.648-8.34
				c-0.261-0.97-1.172-0.366-0.955,0.428c0.659,2.407,0.921,4.896,1.416,7.339c0.086,0.426-9.461,1.17-10.278,1.222
				c-3.834,0.245-7.685,0.292-11.525,0.232c-0.694-0.011-4.177,0.376-4.197-1.063c-0.035-2.438,0.172-4.84,0.434-7.263
				C122.996,183.443,122.941,183.375,122.92,183.445L122.92,183.445z"/>
		</g>
	</g>
	<g>
		<g>
			<path style="fill:#361211;" d="M126.683,183.726c1.028,2.768,5.609,2.357,7.881,2.257c2.243-0.099,8.567-0.203,9.521-2.783
				c0.15-0.406,0.051-0.946-0.343-1.168c-0.776-0.438-1.48,0.16-2.261,0.436c-1.745,0.615-3.601,0.914-5.427,1.166
				c-2.34,0.322-6.934,1.035-8.949-0.586C126.71,182.73,126.595,183.491,126.683,183.726L126.683,183.726z"/>
		</g>
	</g>
</g>
</svg>
