<?xml version="1.0" encoding="iso-8859-1"?>
<!-- Generator: Adobe Illustrator 15.0.2, SVG Export Plug-In . SVG Version: 6.00 Build 0)  -->
<!DOCTYPE svg PUBLIC "-//W3C//DTD SVG 1.1//EN" "http://www.w3.org/Graphics/SVG/1.1/DTD/svg11.dtd">
<svg version="1.1" xmlns="http://www.w3.org/2000/svg" xmlns:xlink="http://www.w3.org/1999/xlink" x="0px" y="0px" width="300px"
	 height="300px" viewBox="0 0 300 300" style="enable-background:new 0 0 300 300;" xml:space="preserve">
<g id="color__x28_change_this_x29_">
	<path style="fill:#A6A8AB;" d="M146.653,200.011c-0.44-2.4-0.82-5.64-1.22-9.04c-0.6-5.13-1.27-10.65-2.33-14.26
		c-4.02,2.23-9.8,3.16-13.6,3.18c-1.5,0-2.69-0.13-3.35-0.38l-0.14,0.04c0.46,1.64,2.5,13.48,3.53,25.32l-0.02,0.17
		c0.04,0.01,0.09,0.01,0.14,0.02c5.2,0.72,12.01,1.06,17.58-2.53C147.023,201.871,146.833,201.011,146.653,200.011z"/>
</g>
<g id="shadow">
	<path style="opacity:0.6;" d="M132.983,202.551c0.59,0.15,4.96,0.88,13.51-2.51l0.16-0.03c0.18,1,0.37,1.86,0.59,2.52
		c-5.57,3.59-12.38,3.25-17.58,2.53c0.64-0.57,2.68-2.1,3.09-2.51H132.983z"/>
	<path style="opacity:0.45;" d="M133.733,190.091c0.24,0.58-0.51,3.16-0.51,3.74c-0.35,0-0.82-0.88-1.17-0.88l-0.29,0.04
		c-0.82-6.01-1.86-11.93-2.26-13.1c3.8-0.02,9.58-0.95,13.6-3.18c1.06,3.61,1.73,9.13,2.33,14.26c-0.79,0.06-1.46,1.11-2.14,1.34
		c-0.24-0.59-1.48-2.61-1.48-3.31C138.533,189.351,136.903,189.381,133.733,190.091z"/>
	<path style="opacity:0.45;" d="M133.223,193.831c0-0.58,0.75-3.16,0.51-3.74c3.17-0.71,4.8-0.74,8.08-1.09
		c0,0.7,1.24,2.72,1.48,3.31c0.68-0.23,1.35-1.28,2.14-1.34c0.4,3.4,0.78,6.64,1.22,9.04l-0.16,0.03
		c-8.55,3.39-12.92,2.66-13.51,2.51h-0.23v-0.12c-0.16-2.62-0.54-6.04-0.99-9.44l0.29-0.04
		C132.403,192.951,132.873,193.831,133.223,193.831z"/>
	<path style="opacity:0.6;" d="M132.753,202.551c-0.41,0.41-2.45,1.94-3.09,2.51c-0.05-0.01-0.1-0.01-0.14-0.02l0.02-0.17
		c-1.03-11.84-3.07-23.68-3.53-25.32l0.14-0.04c0.66,0.25,1.85,0.38,3.35,0.38c0.4,1.17,1.44,7.09,2.26,13.1
		c0.45,3.4,0.83,6.82,0.99,9.44V202.551z"/>
</g>
<g id="outline">
	<g>
		<g>
			<path style="fill:#361211;" d="M143.003,176.621c0.215,4.693,1.298,9.484,1.839,14.164c0.463,4.005,0.516,8.495,1.958,12.301
				c0.369,0.975,1.165-0.007,1.015-0.688c-0.981-4.456-1.497-8.957-2.054-13.484c-0.48-3.899-0.637-8.899-2.649-12.365
				C143.066,176.47,143.001,176.568,143.003,176.621L143.003,176.621z"/>
		</g>
	</g>
	<g>
		<g>
			<path style="fill:#361211;" d="M129.372,205.154c5.218,1.816,14.424,1.801,18.412-2.596c0.16-0.177,0.146-0.725-0.193-0.639
				c-3.387,0.864-6.151,2.517-9.782,2.891c-2.803,0.289-5.62-0.13-8.419,0.074C129.275,204.894,129.274,205.12,129.372,205.154
				L129.372,205.154z"/>
		</g>
	</g>
	<g>
		<g>
			<path style="fill:#361211;" d="M125.927,179.545c1.833,8.336,2.38,16.942,3.49,25.384c0.029,0.222,0.26,0.134,0.25-0.058
				c-0.418-8.26-1.188-17.44-3.594-25.393C126.029,179.331,125.9,179.421,125.927,179.545L125.927,179.545z"/>
		</g>
	</g>
	<g>
		<g>
			<path style="fill:#361211;" d="M126.116,179.72c5.101,2.249,12.778,0.234,17.065-2.826c0.124-0.089,0.069-0.453-0.119-0.39
				c-4.963,1.677-11.569,3.755-16.882,2.8C125.969,179.266,125.952,179.647,126.116,179.72L126.116,179.72z"/>
		</g>
	</g>
	<g>
		<g>
			<path style="fill:#361211;" d="M129.414,179.834c1.651,7.375,2.479,15.09,3.199,22.602c0.024,0.258,0.292,0.261,0.281-0.008
				c-0.181-4.58-0.807-9.094-1.501-13.621c-0.444-2.897-0.629-6.348-1.864-9.051C129.48,179.648,129.396,179.755,129.414,179.834
				L129.414,179.834z"/>
		</g>
	</g>
	<g>
		<g>
			<path style="fill:#361211;" d="M129.65,205.437c0.495-0.479,1.066-0.886,1.606-1.311c0.533-0.418,1.233-0.827,1.629-1.387
				c0.079-0.112,0.027-0.583-0.187-0.453c-0.548,0.336-1.035,0.812-1.54,1.21c-0.58,0.456-1.197,0.892-1.729,1.405
				C129.246,205.079,129.409,205.669,129.65,205.437L129.65,205.437z"/>
		</g>
	</g>
	<g>
		<g>
			<path style="fill:#361211;" d="M132.964,202.7c4.322,1.024,9.697-0.837,13.561-2.529c0.104-0.045,0.074-0.305-0.055-0.262
				c-4.037,1.349-9.082,3.448-13.459,2.488C132.861,202.364,132.837,202.67,132.964,202.7L132.964,202.7z"/>
		</g>
	</g>
	<g>
		<g>
			<path style="fill:#361211;" d="M132.014,193.051c0.434,0.303,0.71,0.687,1.136,0.983c0.114,0.08,0.203-0.033,0.221-0.144
				c0.157-0.997,0.453-1.966,0.602-2.969c0.17-1.148,1.912-0.911,3.039-1.068c0.516-0.072,4.738-1.007,4.843-0.466
				c0.218,1.128,0.775,2.086,1.215,3.129c0.047,0.111,0.167,0.243,0.301,0.177c0.816-0.404,1.317-1.253,2.181-1.566
				c0.139-0.051,0.098-0.377-0.07-0.338c-0.109,0.026-2.254,0.767-2.135,0.993c-0.449-0.857-1.327-1.851-1.496-2.798
				c-0.002-0.017-0.015-0.039-0.034-0.038c-2.762,0.091-5.374,0.219-8.085,0.802c-0.198,0.042-0.231,0.263-0.205,0.436
				c0.135,0.895-0.237,1.941-0.376,2.825c-0.151,0.975-0.481,0.129-1.081-0.174C131.972,192.786,131.949,193.005,132.014,193.051
				L132.014,193.051z"/>
		</g>
	</g>
</g>
</svg>
