<?xml version="1.0" encoding="iso-8859-1"?>
<!-- Generator: Adobe Illustrator 15.0.2, SVG Export Plug-In . SVG Version: 6.00 Build 0)  -->
<!DOCTYPE svg PUBLIC "-//W3C//DTD SVG 1.1//EN" "http://www.w3.org/Graphics/SVG/1.1/DTD/svg11.dtd">
<svg version="1.1" xmlns="http://www.w3.org/2000/svg" xmlns:xlink="http://www.w3.org/1999/xlink" x="0px" y="0px" width="300px"
	 height="300px" viewBox="0 0 300 300" style="enable-background:new 0 0 300 300;" xml:space="preserve">
<g id="color__x28_change_this_x29_">
	<path style="fill:#A6A8AB;" d="M176.319,189.408c-0.51-5.49-3.39-16.13-5.33-20.33c-24.63,11.101-46.27,14.511-63.04,12.011
		c-1.25-0.181-2.46-0.4-3.649-0.66c2.229,5.979,4.09,13.779,5.21,20.13c0.08-0.05,0.149-0.101,0.22-0.141l0.11,0.181
		c23.279,9.77,46.63,4.16,66.529-8.99C176.42,191.038,176.399,190.288,176.319,189.408z"/>
</g>
<g id="shadow">
	<path style="opacity:0.3;" d="M176.319,189.408l-0.21,0.021c-22.92,14.13-51.53,16.529-63.28,9.8l0.091-0.17
		c-0.761-6.12-3.04-11.86-4.971-17.97c16.771,2.5,38.41-0.91,63.04-12.011C172.93,173.278,175.81,183.918,176.319,189.408z"/>
	<path style="opacity:0.45;" d="M112.829,199.229c11.75,6.729,40.36,4.33,63.28-9.8l0.21-0.021c0.08,0.88,0.101,1.63,0.05,2.2
		c-19.899,13.15-43.25,18.76-66.529,8.99l-0.11-0.181c1.01-0.649,1.75-1.01,2.8-1.359
		C112.63,199.118,112.729,199.179,112.829,199.229z"/>
	<path style="opacity:0.6;" d="M112.92,199.059l-0.091,0.17c-0.1-0.05-0.199-0.11-0.3-0.17c-1.05,0.35-1.79,0.71-2.8,1.359
		c-0.07,0.04-0.14,0.091-0.22,0.141c-1.12-6.351-2.98-14.15-5.21-20.13c1.189,0.26,2.399,0.479,3.649,0.66
		C109.88,187.198,112.159,192.938,112.92,199.059z"/>
</g>
<g id="outline">
	<g>
		<g>
			<path style="fill:#361211;" d="M109.822,200.694c10.752,5.508,23.629,6.303,35.386,4.436
				c10.619-1.687,23.058-6.124,31.304-13.185c0.195-0.167,0.125-0.865-0.216-0.709c-4.661,2.142-8.934,5.088-13.617,7.248
				c-5.573,2.57-11.479,4.35-17.499,5.501c-12.246,2.343-23.596,0.014-35.328-3.48C109.756,200.477,109.753,200.659,109.822,200.694
				L109.822,200.694z"/>
		</g>
	</g>
	<g>
		<g>
			<path style="fill:#361211;" d="M176.506,191.802c1.508-2.465-0.465-7.802-1.018-10.3c-0.744-3.362-1.588-10.544-4.317-12.936
				c-0.329-0.288-0.59,0.249-0.566,0.521c0.335,3.868,2.521,8.007,3.505,11.79c0.879,3.38,0.738,7.738,2.113,10.876
				C176.277,191.879,176.42,191.94,176.506,191.802L176.506,191.802z"/>
		</g>
	</g>
	<g>
		<g>
			<path style="fill:#361211;" d="M109.55,200.623c-0.654-6.514-1.526-14.976-5.057-20.644c-0.298-0.478-0.593,0.229-0.545,0.508
				c0.577,3.415,1.976,6.725,2.888,10.072c0.914,3.351,1.767,6.721,2.664,10.075C109.511,200.677,109.554,200.664,109.55,200.623
				L109.55,200.623z"/>
		</g>
	</g>
	<g>
		<g>
			<path style="fill:#361211;" d="M103.832,180.723c9.307,3.157,20.611,2.215,30.104,0.585c12.699-2.182,25.613-6.05,37.131-11.855
				c0.285-0.144,0.207-0.89-0.154-0.75c-12.156,4.693-24.016,9.366-37.01,11.243c-10.257,1.481-19.797,0.8-30.021,0.009
				C103.553,179.929,103.564,180.632,103.832,180.723L103.832,180.723z"/>
		</g>
	</g>
	<g>
		<g>
			<path style="fill:#361211;" d="M107.879,180.962c1.629,6.023,4.072,11.855,4.758,18.103c0.068,0.618,0.649,0.428,0.551-0.128
				c-1.098-6.204-3.077-12.11-5.25-18.015C107.917,180.866,107.867,180.922,107.879,180.962L107.879,180.962z"/>
		</g>
	</g>
	<g>
		<g>
			<path style="fill:#361211;" d="M112.531,199.076c8.307,4.849,18.974,4.474,28.174,3.329c11.879-1.478,26.097-5.024,35.531-12.68
				c0.186-0.15,0.115-0.766-0.193-0.639c-5.525,2.283-10.645,5.394-16.23,7.593c-6.175,2.432-12.565,4.111-19.122,5.104
				c-9.015,1.364-19.914,1.783-28.153-2.744C112.521,199.03,112.517,199.068,112.531,199.076L112.531,199.076z"/>
		</g>
	</g>
	<g>
		<g>
			<path style="fill:#361211;" d="M109.482,200.75c0.571-0.227,1.1-0.532,1.662-0.779c0.344-0.151,0.535,0.161,0.83,0.123
				c0.35-0.046,0.572-0.119,0.842-0.352c0.415-0.359,0.322-1.416-0.303-1.485c-0.85-0.094-0.901,0.733-1.504,1.058
				c-0.592,0.318-1.13,0.686-1.613,1.151C109.324,200.536,109.339,200.807,109.482,200.75L109.482,200.75z"/>
		</g>
	</g>
	<g>
		<g>
			<path style="fill:#361211;" d="M167.882,193.434c-1.512-4.146-5.96-6.521-8.392-10.075c-0.1-0.145-0.277-0.25-0.453-0.169
				c-12.596,5.765-25.987,9.999-39.711,5.7c-0.424-0.132-0.66,0.307-0.722,0.656c-0.651,3.673-1.61,7.268-2.365,10.918
				c-0.091,0.442,0.392,0.962,0.643,0.391c0.894-2.035,1.437-4.109,1.96-6.261c0.243-1.044,0.467-2.093,0.672-3.146
				c0.18-0.875,4.207,0.376,4.626,0.457c5.79,1.116,11.786,0.421,17.487-0.818c5.523-1.2,10.813-3.371,15.939-5.703
				c2.721-1.238,8.629,6.28,10.119,8.292C167.826,193.865,167.926,193.554,167.882,193.434L167.882,193.434z"/>
		</g>
	</g>
</g>
</svg>
