<?xml version="1.0" encoding="iso-8859-1"?>
<!-- Generator: Adobe Illustrator 15.0.2, SVG Export Plug-In . SVG Version: 6.00 Build 0)  -->
<!DOCTYPE svg PUBLIC "-//W3C//DTD SVG 1.1//EN" "http://www.w3.org/Graphics/SVG/1.1/DTD/svg11.dtd">
<svg version="1.1" xmlns="http://www.w3.org/2000/svg" xmlns:xlink="http://www.w3.org/1999/xlink" x="0px" y="0px" width="300px"
	 height="300px" viewBox="0 0 300 300" style="enable-background:new 0 0 300 300;" xml:space="preserve">
<g id="color__x28_change_this_x29_">
	<path style="fill:#A6A8AB;" d="M164.022,174.356c-0.31,0.021-0.91,0.05-1.75,0.08c-1.06,0.04-2.52,0.08-4.26,0.13
		c-14.13,0.4-47.51,1.09-50.73,1.32c0.84,1.96,0.84,8.58,0.84,10.54l0.261,0.1c-1.45,3.9-2.86,8.2-2.86,10.62
		c1.28,0,2.51,0,3.72-0.01v0.24c0.5,1.659,0.8,2.829,1,3.649c0.46,1.97,0.3,1.97,0.69,1.97c5.899,0,17.96,0,23.3-0.279
		c10.1-0.851,21.93-0.29,31.75-1.69C165.423,198.776,164.582,176.606,164.022,174.356z"/>
</g>
<g id="shadow">
	<path style="fill:#F6921E;" d="M153.522,196.146c0.71-6.66,2.78-13.31,4.27-19.97c0.08-0.011,0.15-0.021,0.23-0.03h0.75
		c1.5,5,0,15,0.75,20c-2.1,0-4.09,0.01-6,0.02V196.146z"/>
	<path style="fill:#F9EC31;" d="M157.792,176.177c-1.489,6.66-3.56,13.31-4.27,19.97v0.02c-4.9,0.04-9.22,0.12-13.24,0.221
		c1.101-6.4,4.351-12.79,5.73-19.181C150.082,177.007,154.042,176.696,157.792,176.177z"/>
	<path style="fill:#F05A28;" d="M146.013,177.206c-1.38,6.391-4.63,12.78-5.73,19.181c-4.22,0.109-8.109,0.24-12,0.35
		c0.17-6.83,4.521-12.71,5.99-18.59l-0.01-0.61C138.223,177.477,142.162,177.387,146.013,177.206z"/>
	<path style="fill:#F9EC31;" d="M134.263,177.536l0.01,0.61c-1.47,5.88-5.82,11.76-5.99,18.59c-3.5,0.11-7,0.22-10.729,0.29
		c0.35-6.51,3.62-13.72,5.76-19.33C126.933,177.616,130.603,177.587,134.263,177.536z"/>
	<path style="fill:#FAAF40;" d="M111.522,178.146c3.81-0.25,7.77-0.38,11.79-0.45c-2.14,5.61-5.41,12.82-5.76,19.33
		c-2.63,0.05-5.37,0.09-8.311,0.11c-1.21,0.01-2.439,0.01-3.72,0.01c0-2.42,1.41-6.72,2.86-10.62
		C109.923,182.366,111.522,178.666,111.522,178.146z"/>
	<path style="opacity:0.3;" d="M110.242,201.026c1.971-0.02,16.33-0.3,29.851-0.78c10.319-0.38,20.149-0.869,23.609-1.47
		l-1.399-23.58l-0.03-0.76c0.84-0.03,1.44-0.06,1.75-0.08c0.56,2.25,1.4,24.42,1.96,26.67c-9.82,1.4-21.65,0.84-31.75,1.69
		c-5.34,0.279-17.4,0.279-23.3,0.279C110.542,202.996,110.702,202.996,110.242,201.026z"/>
</g>
<g id="outline">
	<g>
		<g>
			<path style="fill:#361211;" d="M111.419,177.997c-3.429,4.997-6.184,13.095-6.49,19.164c-0.018,0.347,0.203,0.89,0.615,0.89
				c8.861,0.001,17.713-0.214,26.568-0.488c4.406-0.137,8.812-0.258,13.221-0.346c4.684-0.094,9.723,0.482,14.282-0.62
				c0.315-0.077,0.284-0.831-0.022-0.904c-6.783-1.619-14.909-0.359-21.877-0.172c-7.019,0.189-14.035,0.452-21.057,0.602
				c-0.951,0.02-10.496,0.309-10.42-0.297c0.349-2.771,1.452-5.526,2.391-8.141c0.953-2.661,3.594-6.643,3.027-9.599
				C111.634,177.963,111.507,177.868,111.419,177.997L111.419,177.997z"/>
		</g>
	</g>
	<g>
		<g>
			<path style="fill:#361211;" d="M159.688,196.143c-0.222-3.925,0.334-7.863,0.487-11.785c0.106-2.717,0.507-6.331-1.089-8.716
				c-0.374-0.559-0.763,0.138-0.775,0.517c-0.125,3.502,0.452,7.067,0.439,10.597c-0.012,3.15,0.029,6.358,0.612,9.463
				C159.417,196.502,159.704,196.394,159.688,196.143L159.688,196.143z"/>
		</g>
	</g>
	<g>
		<g>
			<path style="fill:#361211;" d="M111.529,178.42c8.035,0.718,16.362,0.039,24.431-0.03c6.85-0.059,15.734,0.874,22.179-1.681
				c0.437-0.174,0.339-1.091-0.13-1.148c-3.221-0.395-6.652,0.352-9.896,0.577c-4.059,0.281-8.13,0.383-12.195,0.486
				c-8.021,0.206-16.524-0.434-24.401,1.249C111.28,177.924,111.278,178.397,111.529,178.42L111.529,178.42z"/>
		</g>
	</g>
	<g>
		<g>
			<path style="fill:#361211;" d="M158.026,176.503c-1.742,6.451-4.071,12.769-5.191,19.375c-0.197,1.164,1.263,1.924,1.375,0.537
				c0.543-6.759,2.96-13.06,4.174-19.695C158.427,176.483,158.118,176.164,158.026,176.503L158.026,176.503z"/>
		</g>
	</g>
	<g>
		<g>
			<path style="fill:#361211;" d="M123.454,177.089c-2.767,6.456-6.515,12.51-6.572,19.762c-0.008,0.808,0.799,0.751,0.846-0.021
				c0.422-6.938,3.594-13.159,5.863-19.625C123.626,177.104,123.517,176.945,123.454,177.089L123.454,177.089z"/>
		</g>
	</g>
	<g>
		<g>
			<path style="fill:#361211;" d="M133.956,177.878c-1.764,6.24-6.774,12.634-5.892,19.362c0.042,0.325,0.36,0.269,0.421-0.011
				c0.752-3.54,1.412-6.842,2.809-10.212c1.181-2.851,2.479-5.616,3.295-8.603C134.718,177.942,134.151,177.186,133.956,177.878
				L133.956,177.878z"/>
		</g>
	</g>
	<g>
		<g>
			<path style="fill:#361211;" d="M145.853,177.003c-1.727,6.243-6.153,12.713-5.873,19.339c0.014,0.328,0.404,0.67,0.555,0.214
				c1.033-3.125,1.609-6.347,2.754-9.459c1.195-3.25,2.259-6.474,2.922-9.877C146.256,176.982,145.946,176.666,145.853,177.003
				L145.853,177.003z"/>
		</g>
	</g>
	<g>
		<g>
			<path style="fill:#361211;" d="M109.135,197.428c0.232,1.09,0.331,5.346,1.565,6.065c0.912,0.532,3.618,0.065,4.67,0.076
				c3.174,0.034,6.346,0.046,9.52,0.02c13.584-0.109,27.645-0.104,41.113-1.84c0.415-0.054,0.502-0.589,0.435-0.925
				c-0.915-4.557-0.481-9.602-0.694-14.227c-0.169-3.672,0.078-8.961-1.604-12.35c-0.101-0.203-0.255-0.051-0.261,0.115
				c-0.186,5.16,0.088,10.352,0.511,15.495c0.247,3.01,0.491,6.021,0.815,9.024c0.075,0.702,0.164,1.402,0.278,2.099
				c-0.164-0.995-7.233,0.073-8.085,0.126c-9.906,0.608-19.922,0.949-29.846,1.139c-4.477,0.086-8.954,0.121-13.431,0.18
				c-0.993,0.014-3.1,0.624-3.345-0.54c-0.33-1.574-0.876-3.097-1.434-4.599C109.269,197.087,109.105,197.289,109.135,197.428
				L109.135,197.428z"/>
		</g>
	</g>
	<g>
		<g>
			<path style="fill:#361211;" d="M108.199,186.428c0.181-3.094,0.218-6.14-0.194-9.22c-0.174-1.299-0.697-0.763-0.018-0.788
				c0.857-0.032,1.716-0.049,2.574-0.068c6.243-0.14,12.486-0.227,18.73-0.379c7.228-0.176,14.455-0.346,21.683-0.529
				c4.326-0.109,8.792,0.102,13.054-0.752c0.285-0.058,0.288-0.643-0.018-0.664c-9.375-0.668-18.984,0.183-28.379,0.399
				c-9.439,0.218-18.944,0.201-28.365,0.895c-0.395,0.028-0.388,0.593-0.3,0.857c1.047,3.148,0.878,6.949,1.078,10.253
				C108.054,186.577,108.19,186.569,108.199,186.428L108.199,186.428z"/>
		</g>
	</g>
	<g>
		<g>
			<path style="fill:#361211;" d="M110.088,201.066c8.163-0.017,16.335-0.293,24.495-0.525c9.615-0.273,19.6-0.059,29.126-1.564
				c0.091-0.014,0.128-0.115,0.124-0.198c-0.453-7.861-0.975-15.719-1.442-23.579c-0.011-0.167-0.189-0.164-0.18,0.004
				c0.363,6.106,0.667,12.217,1.042,18.322c0.086,1.406,1,4.987-0.389,5.188c-3.07,0.445-6.199,0.582-9.293,0.769
				c-14.457,0.87-29,1.393-43.485,1.506C110.052,200.988,110.053,201.066,110.088,201.066L110.088,201.066z"/>
		</g>
	</g>
	<g>
		<g>
			<path style="fill:#361211;" d="M163.69,198.808c0.43,0.178,0.661,0.692,0.955,1.026c0.277,0.316,0.617,0.581,1.006,0.745
				c0.1,0.042,0.123-0.172,0.054-0.216c-0.386-0.245-0.739-0.47-1.052-0.809c-0.288-0.312-0.65-0.538-0.94-0.84
				C163.679,198.68,163.637,198.785,163.69,198.808L163.69,198.808z"/>
		</g>
	</g>
	<g>
		<g>
			<path style="fill:#361211;" d="M161.757,197.84c0.659,0,0.629-1.484-0.035-1.484C161.062,196.355,161.093,197.84,161.757,197.84
				L161.757,197.84z"/>
		</g>
	</g>
	<g>
		<g>
			<path style="fill:#361211;" d="M109.545,178.229c0.693,0,0.661-1.562-0.038-1.562
				C108.813,176.666,108.845,178.229,109.545,178.229L109.545,178.229z"/>
		</g>
	</g>
	<g>
		<g>
			<path style="fill:#361211;" d="M111.788,199.746c0.607,0,0.578-1.367-0.033-1.367
				C111.147,198.379,111.177,199.746,111.788,199.746L111.788,199.746z"/>
		</g>
	</g>
</g>
</svg>
