<?xml version="1.0" encoding="iso-8859-1"?>
<!-- Generator: Adobe Illustrator 15.0.2, SVG Export Plug-In . SVG Version: 6.00 Build 0)  -->
<!DOCTYPE svg PUBLIC "-//W3C//DTD SVG 1.1//EN" "http://www.w3.org/Graphics/SVG/1.1/DTD/svg11.dtd">
<svg version="1.1" xmlns="http://www.w3.org/2000/svg" xmlns:xlink="http://www.w3.org/1999/xlink" x="0px" y="0px" width="300px"
	 height="300px" viewBox="0 0 300 300" style="enable-background:new 0 0 300 300;" xml:space="preserve">
<g id="color__x28_change_this_x29_">
	<path style="fill:#A6A8AB;" d="M175.778,189.179c-0.511-5.49-3.391-16.13-5.33-20.33c-5.181,2.33-10.23,4.33-15.13,6
		c-5.38,1.84-10.581,3.28-15.57,4.36c-7.84,1.68-15.17,2.47-21.91,2.43c-3.66-0.02-7.14-0.29-10.43-0.78
		c-1.25-0.18-2.46-0.4-3.65-0.66c2.23,5.98,4.09,13.78,5.21,20.13c0.08-0.05,0.15-0.1,0.22-0.14l0.11,0.18
		c23.28,9.77,46.63,4.16,66.53-8.99C175.878,190.809,175.858,190.059,175.778,189.179z"/>
</g>
<g id="shadow">
	<path style="fill:#F05A28;" d="M175.778,189.179l-0.21,0.02c-4.521,2.79-9.271,5.12-14.061,7.01l-0.189-0.46
		c-1.49-8.51-3.091-12.87-6-20.9c4.899-1.67,9.949-3.67,15.13-6C172.388,173.049,175.268,183.689,175.778,189.179z"/>
	<path style="fill:#F6921E;" d="M161.318,195.749l0.189,0.46c-5.72,2.26-11.51,3.9-17.07,4.95l-0.08-0.4
		c-2.7-8.32-1.58-13.51-4.58-21.4l-0.03-0.15c4.99-1.08,10.19-2.52,15.57-4.36C158.228,182.879,159.828,187.239,161.318,195.749z"/>
	<path style="fill:#EE4036;" d="M144.358,200.759l0.08,0.4c-7.34,1.39-14.29,1.76-20.17,1.17l0.05-0.42
		c0-7.72-2.82-13.67-6.48-20.27c6.74,0.04,14.07-0.75,21.91-2.43l0.03,0.15C142.778,187.249,141.658,192.439,144.358,200.759z"/>
	<path style="fill:#FAAF40;" d="M124.318,201.909l-0.05,0.42c-4.85-0.48-8.97-1.6-11.98-3.33l0.09-0.17
		c-0.76-6.12-3.04-11.86-4.97-17.97c3.29,0.49,6.77,0.76,10.43,0.78C121.498,188.239,124.318,194.189,124.318,201.909z"/>
	<path style="opacity:0.45;" d="M124.268,202.329c5.88,0.59,12.83,0.22,20.17-1.17c5.56-1.05,11.35-2.69,17.07-4.95
		c4.79-1.89,9.54-4.22,14.061-7.01l0.21-0.02c0.08,0.88,0.1,1.63,0.05,2.2c-19.9,13.15-43.25,18.76-66.53,8.99l-0.11-0.18
		c1.01-0.65,1.75-1.01,2.8-1.36c0.1,0.06,0.2,0.12,0.3,0.17C115.298,200.729,119.418,201.849,124.268,202.329z"/>
	<path style="opacity:0.6;" d="M111.988,198.829c-1.05,0.35-1.79,0.71-2.8,1.36c-0.07,0.04-0.14,0.09-0.22,0.14
		c-1.12-6.35-2.98-14.15-5.21-20.13c1.19,0.26,2.4,0.48,3.65,0.66c1.93,6.11,4.21,11.85,4.97,17.97l-0.09,0.17
		C112.188,198.949,112.088,198.889,111.988,198.829z"/>
</g>
<g id="outline">
	<g>
		<g>
			<path style="fill:#361211;" d="M109.28,200.465c10.753,5.508,23.629,6.303,35.387,4.436c10.619-1.687,23.058-6.124,31.302-13.185
				c0.195-0.167,0.125-0.865-0.215-0.709c-4.66,2.142-8.934,5.088-13.617,7.248c-5.574,2.57-11.479,4.35-17.499,5.501
				c-12.247,2.343-23.596,0.014-35.329-3.48C109.213,200.247,109.21,200.43,109.28,200.465L109.28,200.465z"/>
		</g>
	</g>
	<g>
		<g>
			<path style="fill:#361211;" d="M175.963,191.572c1.51-2.465-0.465-7.802-1.018-10.3c-0.742-3.362-1.588-10.544-4.316-12.936
				c-0.328-0.288-0.59,0.249-0.566,0.521c0.336,3.868,2.52,8.007,3.504,11.79c0.881,3.38,0.74,7.738,2.113,10.876
				C175.734,191.649,175.879,191.711,175.963,191.572L175.963,191.572z"/>
		</g>
	</g>
	<g>
		<g>
			<path style="fill:#361211;" d="M109.007,200.394c-0.653-6.514-1.526-14.977-5.057-20.644c-0.298-0.478-0.592,0.229-0.545,0.508
				c0.578,3.415,1.976,6.725,2.889,10.072c0.914,3.351,1.767,6.721,2.663,10.075C108.968,200.447,109.011,200.435,109.007,200.394
				L109.007,200.394z"/>
		</g>
	</g>
	<g>
		<g>
			<path style="fill:#361211;" d="M103.291,180.493c9.307,3.157,20.611,2.215,30.104,0.585c12.699-2.182,25.614-6.05,37.131-11.855
				c0.285-0.144,0.207-0.89-0.154-0.75c-12.158,4.693-24.016,9.366-37.01,11.243c-10.257,1.481-19.797,0.8-30.021,0.009
				C103.011,179.699,103.023,180.402,103.291,180.493L103.291,180.493z"/>
		</g>
	</g>
	<g>
		<g>
			<path style="fill:#361211;" d="M117.567,181.293c2.999,6.866,6.227,12.919,6.396,20.627c0.016,0.673,0.735,0.654,0.719-0.018
				c-0.184-7.46-2.792-14.598-7.018-20.73C117.599,181.077,117.54,181.231,117.567,181.293L117.567,181.293z"/>
		</g>
	</g>
	<g>
		<g>
			<path style="fill:#361211;" d="M139.742,179.38c2.123,7.048,2.066,14.551,4.499,21.487c0.085,0.241,0.299,0.001,0.254-0.172
				c-1.819-7.029-1.874-14.627-4.684-21.362C139.785,179.27,139.728,179.332,139.742,179.38L139.742,179.38z"/>
		</g>
	</g>
	<g>
		<g>
			<path style="fill:#361211;" d="M155.133,174.522c2.262,7.093,4.377,14.033,6.021,21.295c0.076,0.336,0.354,0.116,0.318-0.143
				c-0.992-7.351-3.441-14.403-6.254-21.232C155.18,174.344,155.113,174.459,155.133,174.522L155.133,174.522z"/>
		</g>
	</g>
	<g>
		<g>
			<path style="fill:#361211;" d="M107.337,180.732c1.629,6.024,4.072,11.855,4.758,18.103c0.068,0.618,0.649,0.428,0.552-0.128
				c-1.099-6.204-3.079-12.109-5.251-18.015C107.375,180.637,107.327,180.692,107.337,180.732L107.337,180.732z"/>
		</g>
	</g>
	<g>
		<g>
			<path style="fill:#361211;" d="M111.989,198.847c8.308,4.848,18.975,4.474,28.175,3.329c11.879-1.478,26.098-5.024,35.532-12.68
				c0.186-0.15,0.115-0.766-0.193-0.639c-5.525,2.283-10.645,5.394-16.23,7.593c-6.176,2.432-12.566,4.111-19.123,5.104
				c-9.015,1.364-19.914,1.783-28.154-2.744C111.979,198.801,111.975,198.839,111.989,198.847L111.989,198.847z"/>
		</g>
	</g>
	<g>
		<g>
			<path style="fill:#361211;" d="M108.941,200.521c0.571-0.227,1.101-0.532,1.663-0.779c0.343-0.151,0.534,0.161,0.828,0.123
				c0.35-0.046,0.573-0.119,0.842-0.352c0.415-0.359,0.322-1.416-0.302-1.485c-0.85-0.094-0.901,0.733-1.504,1.058
				c-0.592,0.318-1.13,0.686-1.613,1.151C108.782,200.307,108.797,200.577,108.941,200.521L108.941,200.521z"/>
		</g>
	</g>
</g>
</svg>
