<?xml version="1.0" encoding="iso-8859-1"?>
<!-- Generator: Adobe Illustrator 15.0.2, SVG Export Plug-In . SVG Version: 6.00 Build 0)  -->
<!DOCTYPE svg PUBLIC "-//W3C//DTD SVG 1.1//EN" "http://www.w3.org/Graphics/SVG/1.1/DTD/svg11.dtd">
<svg version="1.1" xmlns="http://www.w3.org/2000/svg" xmlns:xlink="http://www.w3.org/1999/xlink" x="0px" y="0px" width="300px"
	 height="300px" viewBox="0 0 300 300" style="enable-background:new 0 0 300 300;" xml:space="preserve">
<g id="color__x28_change_this_x29_">
	<path style="fill:#A6A8AB;" d="M176.213,189.284c-0.12-1.86-0.43-4.47-0.859-7.35c-0.54-3.61-1.271-7.65-2.04-11.22
		c-0.83-3.85-1.71-7.15-2.45-8.76c-5.19,2.33-10.24,4.33-15.141,5.99c-5.38,1.84-10.58,3.29-15.569,4.36
		c-7.84,1.69-15.17,2.47-21.91,2.42c-3.65-0.01-7.13-0.28-10.42-0.77c-1.25-0.18-2.47-0.4-3.66-0.66c2.24,6.04,4.1,20.76,5.22,27.14
		c0.07-0.05,0.141-0.09,0.21-0.13l0.11,0.17c23.29,9.76,46.64,4.15,66.54-8.99C176.293,190.974,176.273,190.224,176.213,189.284z"/>
</g>
<g id="shadow">
	<path style="fill:#FAAF40;" d="M176.213,189.284l-0.229,0.01c-4.53,2.79-9.28,5.13-14.07,7.02l-0.19-0.47
		c-0.51-2.95-1.04-6.22-1.64-9.58c4.7-1.18,9.771-2.6,15.271-4.33C175.783,184.813,176.093,187.423,176.213,189.284z"/>
	<path style="fill:#FAAF40;" d="M173.313,170.713c0.77,3.57,1.5,7.61,2.04,11.22c-5.5,1.73-10.57,3.15-15.271,4.33
		c-0.57-3.25-1.2-6.57-1.94-9.76c4.851-1.6,9.66-3.48,14.48-5.65L173.313,170.713z"/>
	<path style="fill:#F9EC31;" d="M173.313,170.713l-0.69,0.14c-4.82,2.17-9.63,4.05-14.48,5.65c-0.699-3.03-1.489-5.94-2.42-8.56
		c4.9-1.66,9.95-3.66,15.141-5.99C171.604,163.563,172.483,166.863,173.313,170.713z"/>
	<path style="fill:#F9EC31;" d="M161.723,195.844l0.19,0.47c-5.72,2.26-11.5,3.9-17.06,4.95l-0.08-0.41
		c-1.051-3.24-1.53-7.07-1.891-11c5.08-0.82,10.79-1.98,17.2-3.59C160.683,189.624,161.213,192.894,161.723,195.844z"/>
	<path style="fill:#FAAF40;" d="M158.143,176.503c0.74,3.19,1.37,6.51,1.94,9.76c-6.41,1.61-12.12,2.77-17.2,3.59
		c-0.27-3.03-0.49-6.12-0.85-9.05C147.463,179.684,152.823,178.264,158.143,176.503z"/>
	<path style="fill:#F9EC31;" d="M155.723,167.943c0.931,2.62,1.721,5.53,2.42,8.56c-5.319,1.76-10.68,3.18-16.109,4.3
		c-0.37-3.03-0.91-5.89-1.84-8.34l-0.04-0.16C145.143,171.233,150.343,169.784,155.723,167.943z"/>
	<path style="fill:#FAAF40;" d="M144.773,200.854l0.08,0.41c-7.341,1.39-14.29,1.75-20.171,1.17l0.051-0.42
		c0-2.9-0.4-6.51-1.091-10.24c5.24-0.19,11.53-0.68,19.24-1.92C143.243,193.784,143.723,197.613,144.773,200.854z"/>
	<path style="fill:#F9EC31;" d="M142.033,180.804c0.359,2.93,0.58,6.02,0.85,9.05c-7.71,1.24-14,1.73-19.24,1.92
		c-0.52-2.77-1.189-5.61-1.989-8.28C128.604,183.054,135.373,182.164,142.033,180.804z"/>
	<path style="fill:#FAAF40;" d="M140.193,172.463c0.93,2.45,1.47,5.31,1.84,8.34c-6.66,1.36-13.43,2.25-20.38,2.69
		c-0.98-3.33-2.15-6.4-3.41-8.77c6.74,0.05,14.07-0.73,21.91-2.42L140.193,172.463z"/>
	<path style="fill:#FAAF40;" d="M124.733,202.014l-0.051,0.42c-4.85-0.48-8.97-1.6-11.979-3.33l0.09-0.17
		c-0.24-1.87-0.61-4.36-1.08-7.08c3.271,0,7.16,0.09,11.93-0.08C124.333,195.503,124.733,199.113,124.733,202.014z"/>
	<path style="fill:#F9EC31;" d="M118.243,174.724c1.26,2.37,2.43,5.44,3.41,8.77c-3.62,0.24-7.3,0.36-11.03,0.36l-0.39,0.08
		c-0.78-3.82-1.63-7.44-2.41-9.98C111.113,174.443,114.593,174.713,118.243,174.724z"/>
	<path style="opacity:0.45;" d="M176.243,191.483c-19.9,13.14-43.25,18.75-66.54,8.99l-0.11-0.17c1.011-0.66,1.75-1.02,2.811-1.37
		c0.1,0.06,0.2,0.12,0.3,0.17c3.01,1.73,7.13,2.85,11.979,3.33c5.881,0.58,12.83,0.22,20.171-1.17c5.56-1.05,11.34-2.69,17.06-4.95
		c4.79-1.89,9.54-4.23,14.07-7.02l0.229-0.01C176.273,190.224,176.293,190.974,176.243,191.483z"/>
	<path style="opacity:0.6;" d="M112.403,198.934c-1.061,0.35-1.8,0.71-2.811,1.37c-0.069,0.04-0.14,0.08-0.21,0.13
		c-1.12-6.38-2.979-21.1-5.22-27.14c1.19,0.26,2.41,0.48,3.66,0.66c0.78,2.54,1.63,6.16,2.41,9.98c0.54,2.65,1.05,5.39,1.479,7.92
		c0.47,2.72,0.84,5.21,1.08,7.08l-0.09,0.17C112.604,199.054,112.503,198.994,112.403,198.934z"/>
	<path style="fill:#FAAF40;" d="M110.623,183.854c3.73,0,7.41-0.12,11.03-0.36c0.8,2.67,1.47,5.51,1.989,8.28
		c-4.77,0.17-8.659,0.08-11.93,0.08c-0.43-2.53-0.939-5.27-1.479-7.92L110.623,183.854z"/>
</g>
<g id="outline">
	<g>
		<g>
			<path style="fill:#361211;" d="M109.692,200.566c10.753,5.508,23.629,6.303,35.387,4.436
				c10.619-1.687,23.058-6.124,31.303-13.185c0.195-0.167,0.125-0.865-0.215-0.709c-4.661,2.142-8.934,5.088-13.617,7.248
				c-5.574,2.57-11.479,4.35-17.499,5.501c-12.247,2.343-23.596,0.014-35.329-3.48C109.626,200.349,109.623,200.531,109.692,200.566
				L109.692,200.566z"/>
		</g>
	</g>
	<g>
		<g>
			<path style="fill:#361211;" d="M176.376,191.674c1.727-3.313-0.529-10.358-1.081-13.753c-0.605-3.734-1.329-7.452-2.235-11.125
				c-0.39-1.58-0.704-4.241-2.018-5.357c-0.336-0.285-0.582,0.247-0.566,0.521c0.106,1.816,0.946,3.615,1.395,5.371
				c0.836,3.273,1.489,6.599,2.108,9.919c0.852,4.557,0.59,10.036,2.114,14.376C176.137,191.751,176.303,191.814,176.376,191.674
				L176.376,191.674z"/>
		</g>
	</g>
	<g>
		<g>
			<path style="fill:#361211;" d="M109.419,200.485c-0.556-4.913-1.081-9.79-1.86-14.676c-0.611-3.838-0.804-9.729-3.195-12.958
				c-0.267-0.359-0.588,0.061-0.56,0.373c0.379,4.299,1.99,8.746,2.78,13.023c0.881,4.771,1.683,9.531,2.786,14.259
				C109.382,200.56,109.424,200.524,109.419,200.485L109.419,200.485z"/>
		</g>
	</g>
	<g>
		<g>
			<path style="fill:#361211;" d="M103.703,173.595c9.307,3.157,20.611,2.215,30.104,0.585c12.7-2.182,25.613-6.05,37.131-11.855
				c0.286-0.144,0.207-0.89-0.154-0.75c-12.157,4.693-24.016,9.366-37.01,11.243c-10.257,1.481-19.797,0.8-30.021,0.009
				C103.424,172.801,103.436,173.504,103.703,173.595L103.703,173.595z"/>
		</g>
	</g>
	<g>
		<g>
			<path style="fill:#361211;" d="M117.979,174.395c3.792,8.617,6.245,18.18,6.396,27.627c0.012,0.673,0.73,0.654,0.719-0.018
				c-0.165-9.145-2.099-19.882-7.018-27.73C118.017,174.178,117.952,174.333,117.979,174.395L117.979,174.395z"/>
		</g>
	</g>
	<g>
		<g>
			<path style="fill:#361211;" d="M140.154,172.481c2.657,9.283,1.334,19.373,4.499,28.487c0.084,0.243,0.296,0,0.254-0.172
				c-2.239-9.195-1.082-19.542-4.684-28.362C140.197,172.37,140.141,172.434,140.154,172.481L140.154,172.481z"/>
		</g>
	</g>
	<g>
		<g>
			<path style="fill:#361211;" d="M155.546,167.624c2.907,9.273,3.955,18.845,6.021,28.295c0.074,0.338,0.351,0.115,0.318-0.143
				c-1.202-9.457-2.829-19.304-6.254-28.232C155.595,167.445,155.525,167.56,155.546,167.624L155.546,167.624z"/>
		</g>
	</g>
	<g>
		<g>
			<path style="fill:#361211;" d="M107.75,173.834c2.021,8.214,4.007,16.657,4.758,25.103c0.056,0.619,0.647,0.429,0.552-0.128
				c-1.442-8.332-2.395-17.009-5.251-25.015C107.789,173.738,107.74,173.794,107.75,173.834L107.75,173.834z"/>
		</g>
	</g>
	<g>
		<g>
			<path style="fill:#361211;" d="M112.401,198.948c8.308,4.848,18.975,4.474,28.175,3.329c11.88-1.478,26.098-5.024,35.532-12.68
				c0.185-0.15,0.115-0.766-0.193-0.639c-5.525,2.283-10.646,5.394-16.231,7.593c-6.175,2.432-12.565,4.111-19.122,5.104
				c-9.015,1.364-19.914,1.783-28.154-2.744C112.392,198.902,112.388,198.94,112.401,198.948L112.401,198.948z"/>
		</g>
	</g>
	<g>
		<g>
			<path style="fill:#361211;" d="M109.354,200.622c0.571-0.227,1.101-0.532,1.663-0.779c0.343-0.151,0.534,0.161,0.828,0.123
				c0.35-0.046,0.573-0.119,0.842-0.352c0.416-0.359,0.322-1.416-0.302-1.485c-0.85-0.094-0.901,0.733-1.504,1.058
				c-0.592,0.318-1.13,0.686-1.613,1.151C109.194,200.408,109.21,200.679,109.354,200.622L109.354,200.622z"/>
		</g>
	</g>
	<g>
		<g>
			<path style="fill:#361211;" d="M110.625,183.912c20.553,1.308,43.606-3.498,62.114-12.496c0.435-0.212,0.304-1.34-0.232-1.125
				c-9.935,3.98-19.65,7.667-30.146,9.961c-10.504,2.296-21.065,2.753-31.74,3.543C110.569,183.799,110.572,183.909,110.625,183.912
				L110.625,183.912z"/>
		</g>
	</g>
	<g>
		<g>
			<path style="fill:#361211;" d="M111.629,192.088c7.708,0.106,15.322,0.085,23.004-0.716c13.56-1.414,28.41-4.073,41.049-9.237
				c0.195-0.08,0.171-0.625-0.065-0.574c-13.766,2.98-26.915,7.4-41.003,9.024c-7.643,0.882-15.315,0.951-22.996,1.034
				C111.409,191.621,111.419,192.085,111.629,192.088L111.629,192.088z"/>
		</g>
	</g>
</g>
</svg>
