<?xml version="1.0" encoding="iso-8859-1"?>
<!-- Generator: Adobe Illustrator 15.0.2, SVG Export Plug-In . SVG Version: 6.00 Build 0)  -->
<!DOCTYPE svg PUBLIC "-//W3C//DTD SVG 1.1//EN" "http://www.w3.org/Graphics/SVG/1.1/DTD/svg11.dtd">
<svg version="1.1" xmlns="http://www.w3.org/2000/svg" xmlns:xlink="http://www.w3.org/1999/xlink" x="0px" y="0px" width="300px"
	 height="300px" viewBox="0 0 300 300" style="enable-background:new 0 0 300 300;" xml:space="preserve">
<g id="color__x28_change_this_x29_">
	<g>
		<path style="fill:#A6A8AB;" d="M136.215,179.078l-0.309-0.166c-0.746,0.071-1.491,0.142-2.237,0.213
			c-0.746,0.071-1.491,0.143-2.237,0.214c0.632,6.621,0.678,14.75,2.654,20.559c0.031,0.087,0.054,0.168,0.084,0.248
			c0.746-0.071,3.175-0.785,4.667-0.928c-0.058-0.611-0.115-1.207-0.186-1.788C137.973,190.956,137.066,185.791,136.215,179.078z"/>
		<path style="fill:#A6A8AB;" d="M127.255,179.933l-0.309-0.166c-0.746,0.071-1.491,0.143-2.237,0.214s-1.491,0.142-2.237,0.213
			c0.632,6.621,0.678,14.751,2.654,20.559c0.031,0.088,0.054,0.168,0.084,0.248c0.746-0.071,3.176-0.784,4.667-0.927
			c-0.059-0.611-0.115-1.208-0.186-1.788C129.014,191.812,128.107,186.646,127.255,179.933z"/>
		<path style="fill:#A6A8AB;" d="M145.908,178.153l-0.31-0.167c-0.746,0.071-1.491,0.143-2.237,0.214s-1.491,0.143-2.237,0.214
			c0.632,6.621,0.678,14.75,2.654,20.559c0.031,0.087,0.053,0.168,0.083,0.247c0.746-0.07,3.176-0.784,4.667-0.927
			c-0.059-0.611-0.115-1.208-0.186-1.788C147.666,190.031,146.759,184.866,145.908,178.153z"/>
		<path style="fill:#A6A8AB;" d="M156.546,195.723c-0.678-6.474-1.584-11.64-2.436-18.353l-0.309-0.166
			c-0.746,0.071-1.491,0.143-2.237,0.214c-0.746,0.07-1.491,0.142-2.237,0.213c0.632,6.621,0.678,14.751,2.654,20.559
			c0.031,0.088,0.054,0.168,0.084,0.248c0.746-0.071,3.175-0.784,4.667-0.927C156.673,196.899,156.616,196.303,156.546,195.723z"/>
	</g>
</g>
<g id="shadow">
	<path style="opacity:0.6;" d="M135.673,197.925c-0.014-0.066-0.028-0.133-0.042-0.199c0.937-0.044,2.365-0.135,3.019-0.296
		c0.07,0.581,0.127,1.177,0.186,1.788c-1.491,0.143-3.921,0.856-4.667,0.928c-0.03-0.08-0.053-0.161-0.084-0.248
		C134.563,199.303,135.464,198.178,135.673,197.925z"/>
	<path style="fill:#461917;" d="M136.215,179.078c0.852,6.713,1.758,11.878,2.436,18.352c-0.654,0.161-2.083,0.252-3.019,0.296
		c-1.178-5.802-1.385-12.546-1.963-18.601c0.746-0.071,1.492-0.142,2.237-0.213L136.215,179.078z"/>
	<path style="opacity:0.6;" d="M135.632,197.726c0.014,0.066,0.028,0.133,0.042,0.199c-0.209,0.253-1.11,1.378-1.587,1.973
		c-1.977-5.809-2.022-13.938-2.654-20.559c0.746-0.071,1.491-0.143,2.237-0.214C134.247,185.18,134.454,191.924,135.632,197.726z"/>
	<path style="opacity:0.6;" d="M126.714,198.78c-0.014-0.066-0.028-0.133-0.042-0.199c0.937-0.045,2.365-0.136,3.019-0.296
		c0.071,0.58,0.127,1.177,0.186,1.788c-1.491,0.143-3.921,0.855-4.667,0.927c-0.03-0.08-0.053-0.16-0.084-0.248
		C125.604,200.157,126.505,199.033,126.714,198.78z"/>
	<path style="fill:#461917;" d="M127.255,179.933c0.852,6.713,1.758,11.879,2.436,18.353c-0.654,0.16-2.083,0.251-3.019,0.296
		c-1.178-5.802-1.385-12.546-1.963-18.601c0.746-0.071,1.491-0.143,2.237-0.214L127.255,179.933z"/>
	<path style="opacity:0.6;" d="M126.672,198.581c0.014,0.066,0.028,0.133,0.042,0.199c-0.209,0.253-1.11,1.377-1.588,1.972
		c-1.976-5.808-2.022-13.938-2.654-20.559c0.746-0.071,1.491-0.142,2.237-0.213C125.287,186.035,125.495,192.779,126.672,198.581z"
		/>
	<path style="opacity:0.6;" d="M145.367,197c-0.014-0.066-0.028-0.133-0.042-0.199c0.936-0.044,2.365-0.136,3.019-0.296
		c0.07,0.58,0.127,1.177,0.186,1.788c-1.491,0.143-3.921,0.856-4.667,0.927c-0.03-0.079-0.053-0.16-0.083-0.247
		C144.256,198.378,145.158,197.253,145.367,197z"/>
	<path style="fill:#461917;" d="M145.908,178.153c0.851,6.713,1.758,11.878,2.436,18.352c-0.654,0.16-2.083,0.252-3.019,0.296
		c-1.178-5.802-1.386-12.546-1.963-18.601c0.746-0.071,1.491-0.143,2.237-0.214L145.908,178.153z"/>
	<path style="opacity:0.6;" d="M145.325,196.801c0.014,0.066,0.027,0.133,0.042,0.199c-0.209,0.253-1.11,1.378-1.587,1.973
		c-1.977-5.809-2.022-13.938-2.654-20.559c0.746-0.071,1.491-0.143,2.237-0.214C143.939,184.255,144.147,190.999,145.325,196.801z"
		/>
	<path style="opacity:0.6;" d="M153.568,196.217c-0.014-0.066-0.027-0.132-0.042-0.198c0.937-0.045,2.365-0.136,3.019-0.296
		c0.07,0.58,0.127,1.177,0.186,1.788c-1.492,0.143-3.921,0.855-4.667,0.927c-0.03-0.08-0.053-0.16-0.084-0.248
		C152.458,197.595,153.359,196.471,153.568,196.217z"/>
	<path style="fill:#461917;" d="M154.11,177.37c0.852,6.713,1.758,11.879,2.436,18.353c-0.654,0.16-2.083,0.251-3.019,0.296
		c-1.178-5.802-1.385-12.547-1.963-18.601c0.746-0.071,1.491-0.143,2.237-0.214L154.11,177.37z"/>
	<path style="opacity:0.6;" d="M153.527,196.019c0.014,0.066,0.028,0.132,0.042,0.198c-0.209,0.254-1.11,1.378-1.587,1.973
		c-1.976-5.808-2.022-13.938-2.654-20.559c0.746-0.071,1.492-0.143,2.237-0.213C152.142,183.472,152.349,190.217,153.527,196.019z"
		/>
</g>
<g id="outline">
	<g>
		<g>
			<path style="fill:#461917;" d="M135.896,178.539c-1.501-0.072-2.982-0.044-4.484-0.017c-0.375,0.007-0.541,0.525-0.515,0.828
				c0.593,7.111,0.562,14.405,2.777,21.258c0.06,0.186,0.289,0.471,0.519,0.431c1.564-0.271,3.091-0.69,4.664-0.917
				c0.409-0.06,0.609-0.542,0.571-0.919c-0.665-6.742-1.812-13.416-2.569-20.145c-0.158-1.403-1.439-0.976-1.253,0.29
				c0.972,6.612,1.964,13.233,2.636,19.884c0.19-0.307,0.381-0.612,0.571-0.919c-1.903,0.281-4.09,1.753-4.767-0.712
				c-0.671-2.446-0.939-5.029-1.202-7.543c-0.237-2.269-0.379-4.548-0.546-6.822c-0.065-0.895-0.844-3.083,0.643-3.341
				c1.495-0.26,1.57-0.275,3.039-0.629C136.261,179.198,136.19,178.554,135.896,178.539L135.896,178.539z"/>
		</g>
	</g>
	<g>
		<g>
			<path style="fill:#461917;" d="M133.643,179.087c0.503,6.208,0.167,13.105,1.878,19.126c0.117,0.409,0.429,0.145,0.392-0.176
				c-0.746-6.309-1.584-12.608-2.219-18.952C133.689,179.038,133.638,179.038,133.643,179.087L133.643,179.087z"/>
		</g>
	</g>
	<g>
		<g>
			<path style="fill:#461917;" d="M134.494,200.023c0.479-0.597,0.958-1.193,1.437-1.789c0.218-0.271-0.095-1.126-0.407-0.758
				c-0.49,0.576-0.979,1.152-1.469,1.729C133.736,199.58,134.064,200.559,134.494,200.023L134.494,200.023z"/>
		</g>
	</g>
	<g>
		<g>
			<path style="fill:#461917;" d="M135.897,197.915c0.586,0.714,2.081,0.379,2.854,0.204c0.312-0.07,0.476-0.4,0.443-0.713
				c-0.029-0.29-0.129-0.849-0.689-0.627c-0.14,0.055-0.287,0.097-0.431,0.14c-0.349,0.104-0.706,0.184-1.062,0.261
				c-0.431,0.093-0.877,0.26-1.116,0.652C135.882,197.854,135.88,197.894,135.897,197.915L135.897,197.915z"/>
		</g>
	</g>
	<g>
		<g>
			<path style="fill:#461917;" d="M126.936,179.395c-1.501-0.072-2.981-0.044-4.483-0.018c-0.375,0.007-0.541,0.525-0.515,0.828
				c0.593,7.111,0.562,14.406,2.777,21.258c0.06,0.186,0.289,0.471,0.519,0.431c1.564-0.271,3.091-0.69,4.664-0.917
				c0.409-0.06,0.609-0.542,0.571-0.919c-0.665-6.741-1.812-13.415-2.569-20.144c-0.158-1.403-1.439-0.976-1.253,0.29
				c0.972,6.611,1.964,13.233,2.636,19.883c0.19-0.307,0.381-0.612,0.571-0.919c-1.903,0.282-4.09,1.754-4.767-0.711
				c-0.671-2.447-0.939-5.03-1.202-7.543c-0.237-2.269-0.379-4.548-0.546-6.822c-0.065-0.895-0.844-3.084,0.643-3.342
				c1.497-0.26,1.567-0.274,3.038-0.628C127.301,180.054,127.23,179.409,126.936,179.395L126.936,179.395z"/>
		</g>
	</g>
	<g>
		<g>
			<path style="fill:#461917;" d="M124.684,179.942c0.503,6.208,0.167,13.105,1.878,19.126c0.117,0.409,0.429,0.145,0.392-0.176
				c-0.747-6.309-1.584-12.608-2.219-18.952C124.73,179.894,124.679,179.894,124.684,179.942L124.684,179.942z"/>
		</g>
	</g>
	<g>
		<g>
			<path style="fill:#461917;" d="M125.535,200.879c0.479-0.597,0.958-1.192,1.436-1.789c0.217-0.272-0.095-1.126-0.407-0.758
				c-0.488,0.577-0.979,1.152-1.468,1.729C124.777,200.436,125.105,201.414,125.535,200.879L125.535,200.879z"/>
		</g>
	</g>
	<g>
		<g>
			<path style="fill:#461917;" d="M126.938,198.771c0.586,0.714,2.082,0.379,2.854,0.203c0.312-0.07,0.475-0.399,0.443-0.713
				c-0.029-0.29-0.13-0.848-0.689-0.627c-0.14,0.056-0.287,0.098-0.431,0.141c-0.349,0.104-0.706,0.184-1.062,0.261
				c-0.431,0.093-0.877,0.26-1.116,0.652C126.923,198.71,126.921,198.749,126.938,198.771L126.938,198.771z"/>
		</g>
	</g>
	<g>
		<g>
			<path style="fill:#461917;" d="M145.588,177.614c-1.501-0.072-2.981-0.044-4.483-0.018c-0.375,0.007-0.541,0.525-0.515,0.828
				c0.592,7.111,0.562,14.406,2.776,21.259c0.06,0.186,0.289,0.471,0.519,0.431c1.564-0.271,3.091-0.69,4.665-0.917
				c0.408-0.06,0.608-0.542,0.571-0.919c-0.665-6.741-1.812-13.416-2.569-20.145c-0.158-1.403-1.439-0.976-1.253,0.29
				c0.972,6.612,1.964,13.234,2.636,19.884c0.19-0.307,0.381-0.612,0.571-0.919c-1.902,0.282-4.09,1.754-4.766-0.712
				c-0.671-2.446-0.939-5.029-1.202-7.543c-0.236-2.269-0.379-4.548-0.546-6.822c-0.065-0.895-0.843-3.084,0.643-3.342
				c1.498-0.26,1.567-0.274,3.039-0.628C145.953,178.273,145.882,177.629,145.588,177.614L145.588,177.614z"/>
		</g>
	</g>
	<g>
		<g>
			<path style="fill:#461917;" d="M143.336,178.162c0.503,6.208,0.167,13.105,1.878,19.126c0.117,0.409,0.429,0.145,0.392-0.176
				c-0.747-6.309-1.584-12.608-2.219-18.952C143.382,178.113,143.332,178.113,143.336,178.162L143.336,178.162z"/>
		</g>
	</g>
	<g>
		<g>
			<path style="fill:#461917;" d="M144.188,199.098c0.479-0.596,0.957-1.192,1.437-1.787c0.218-0.271-0.094-1.125-0.407-0.758
				c-0.49,0.575-0.979,1.151-1.469,1.727C143.429,198.653,143.757,199.633,144.188,199.098L144.188,199.098z"/>
		</g>
	</g>
	<g>
		<g>
			<path style="fill:#461917;" d="M145.591,196.99c0.586,0.714,2.081,0.378,2.854,0.203c0.312-0.07,0.476-0.4,0.443-0.713
				c-0.029-0.29-0.129-0.849-0.689-0.627c-0.141,0.055-0.287,0.097-0.431,0.14c-0.349,0.104-0.706,0.184-1.062,0.261
				c-0.431,0.094-0.877,0.261-1.116,0.653C145.575,196.93,145.573,196.969,145.591,196.99L145.591,196.99z"/>
		</g>
	</g>
	<g>
		<g>
			<path style="fill:#461917;" d="M153.792,176.832c-1.501-0.073-2.982-0.045-4.485-0.019c-0.375,0.007-0.541,0.525-0.515,0.828
				c0.593,7.111,0.562,14.406,2.777,21.259c0.06,0.186,0.289,0.471,0.519,0.431c1.564-0.27,3.091-0.69,4.665-0.917
				c0.408-0.06,0.608-0.542,0.571-0.919c-0.665-6.741-1.812-13.415-2.569-20.144c-0.158-1.403-1.439-0.976-1.253,0.29
				c0.972,6.611,1.964,13.233,2.636,19.883c0.19-0.307,0.381-0.612,0.571-0.919c-1.902,0.282-4.09,1.754-4.766-0.711
				c-0.671-2.447-0.939-5.03-1.202-7.543c-0.237-2.269-0.379-4.548-0.546-6.823c-0.065-0.895-0.844-3.084,0.643-3.342
				c1.492-0.258,1.573-0.275,3.04-0.627C154.156,177.491,154.085,176.847,153.792,176.832L153.792,176.832z"/>
		</g>
	</g>
	<g>
		<g>
			<path style="fill:#461917;" d="M151.538,177.38c0.502,6.209,0.167,13.105,1.877,19.126c0.117,0.409,0.429,0.145,0.392-0.176
				c-0.746-6.309-1.584-12.608-2.218-18.952C151.584,177.331,151.534,177.331,151.538,177.38L151.538,177.38z"/>
		</g>
	</g>
	<g>
		<g>
			<path style="fill:#461917;" d="M152.39,198.315c0.479-0.596,0.958-1.191,1.436-1.788c0.217-0.272-0.096-1.126-0.407-0.758
				c-0.488,0.577-0.978,1.152-1.468,1.728C151.631,197.871,151.959,198.851,152.39,198.315L152.39,198.315z"/>
		</g>
	</g>
	<g>
		<g>
			<path style="fill:#461917;" d="M153.793,196.208c0.586,0.714,2.081,0.378,2.854,0.203c0.312-0.07,0.476-0.4,0.443-0.713
				c-0.029-0.29-0.129-0.849-0.689-0.627c-0.141,0.055-0.287,0.097-0.431,0.14c-0.349,0.104-0.706,0.184-1.062,0.261
				c-0.431,0.094-0.877,0.261-1.116,0.653C153.777,196.147,153.775,196.187,153.793,196.208L153.793,196.208z"/>
		</g>
	</g>
</g>
</svg>
