<?xml version="1.0" encoding="iso-8859-1"?>
<!-- Generator: Adobe Illustrator 15.0.2, SVG Export Plug-In . SVG Version: 6.00 Build 0)  -->
<!DOCTYPE svg PUBLIC "-//W3C//DTD SVG 1.1//EN" "http://www.w3.org/Graphics/SVG/1.1/DTD/svg11.dtd">
<svg version="1.1" xmlns="http://www.w3.org/2000/svg" xmlns:xlink="http://www.w3.org/1999/xlink" x="0px" y="0px" width="300px"
	 height="300px" viewBox="0 0 300 300" style="enable-background:new 0 0 300 300;" xml:space="preserve">
<g id="color__x28_change_this_x29_">
	<path style="fill:#A6A8AB;" d="M148.412,176.461l-0.05-1.69c-3.87,0.02-7.36,0.78-10.82,1.54c-2.68,0.6-5.33,1.2-8.11,1.46
		c-1.89,0.2-3.84,0.23-5.89,0c0,10-0.85,27.08,13,25c6.18-0.93,9.49-3,11.17-5.68C151.371,191.301,147.472,182.65,148.412,176.461z"
		/>
</g>
<g id="shadow">
	<path style="fill:#F6921E;" d="M148.361,174.771l0.05,1.69c-0.94,6.189,2.959,14.84-0.7,20.63c-4.24,1.66-7.58,2.13-10.17,1.689
		v-0.01c0-7.82,0-14.68,0-22.46C141.001,175.551,144.492,174.79,148.361,174.771z"/>
	<path style="opacity:0.45;" d="M137.542,198.78c2.59,0.44,5.93-0.029,10.17-1.689c-1.68,2.68-4.99,4.75-11.17,5.68
		c-13.85,2.08-13-15-13-25c2.05,0.23,4,0.2,5.89,0l0.11,1C128.812,188.95,130.202,197.54,137.542,198.78z"/>
	<path style="fill:#F9EC31;" d="M137.542,198.771v0.01c-7.34-1.24-8.73-9.83-8-20.01l-0.11-1c2.78-0.26,5.43-0.86,8.11-1.46
		C137.542,184.091,137.542,190.95,137.542,198.771z"/>
</g>
<g id="outline">
	<g>
		<g>
			<path style="fill:#361211;" d="M123.192,177.634c-0.611,6.231-0.425,13.077,1.595,19.048c2.312,6.836,8.287,7.943,14.695,6.565
				c13.698-2.945,10.454-16.999,9.598-27.49c-0.034-0.412-0.561-1.261-0.934-0.557c-1.496,2.825-0.492,6.783-0.088,9.792
				c0.825,6.15,0.965,11.81-5.297,14.984c-6.341,3.215-14,2.856-16.932-4.271c-2.318-5.635-1.379-12.034-1.929-17.944
				C123.854,177.256,123.255,176.983,123.192,177.634L123.192,177.634z"/>
		</g>
	</g>
	<g>
		<g>
			<path style="fill:#361211;" d="M123.465,178.263c8.07,1.867,16.981-1.771,25.104-2.359c1.009-0.073,0.957-2.25-0.056-2.266
				c-3.502-0.053-6.885,0.636-10.282,1.441c-4.969,1.18-9.639,1.789-14.703,2.184C123.122,177.295,123.082,178.174,123.465,178.263
				L123.465,178.263z"/>
		</g>
	</g>
	<g>
		<g>
			<path style="fill:#361211;" d="M129.229,178.648c-0.847,5.634-0.708,12.764,2.682,17.607c3.524,5.035,12.479,4.435,16.823,0.982
				c0.264-0.21,0.231-1.033-0.207-1.015c-5.561,0.24-11.334,4.307-15.856-1.188c-3.567-4.334-2.719-11.088-2.81-16.272
				C129.854,178.281,129.312,178.096,129.229,178.648L129.229,178.648z"/>
		</g>
	</g>
	<g>
		<g>
			<path style="fill:#361211;" d="M137.324,175.775c-0.213,7.664-0.173,15.34-0.231,23.006c-0.006,0.843,0.904,0.816,0.897-0.021
				c-0.058-7.663-0.017-15.335-0.231-22.994C137.748,175.354,137.335,175.372,137.324,175.775L137.324,175.775z"/>
		</g>
	</g>
</g>
</svg>
