<?xml version="1.0" encoding="iso-8859-1"?>
<!-- Generator: Adobe Illustrator 15.0.2, SVG Export Plug-In . SVG Version: 6.00 Build 0)  -->
<!DOCTYPE svg PUBLIC "-//W3C//DTD SVG 1.1//EN" "http://www.w3.org/Graphics/SVG/1.1/DTD/svg11.dtd">
<svg version="1.1" xmlns="http://www.w3.org/2000/svg" xmlns:xlink="http://www.w3.org/1999/xlink" x="0px" y="0px" width="300px"
	 height="300px" viewBox="0 0 300 300" style="enable-background:new 0 0 300 300;" xml:space="preserve">
<g id="color__x28_change_this_x29_">
	<path style="fill:#A6A8AB;" d="M137.465,200.896c-0.08-8.69-0.63-15.67-0.91-24.7l-0.39-0.26c-1,0-2,0-3,0s-2,0-3,0
		c0,8.88-0.97,19.69,0.92,27.66c0.03,0.12,0.05,0.23,0.08,0.34c1,0,4.32-0.64,6.32-0.64
		C137.485,202.476,137.485,201.676,137.465,200.896z"/>
</g>
<g id="shadow">
	<path style="fill:#461917;" d="M136.555,176.196c0.28,9.03,0.83,16.01,0.91,24.7c-0.89,0.13-2.8,0.07-4.05,0.01
		c-0.83-7.86-0.25-16.85-0.25-24.97c1,0,2,0,3,0L136.555,176.196z"/>
	<path style="opacity:0.6;" d="M133.415,200.906c1.25,0.06,3.16,0.12,4.05-0.01c0.021,0.78,0.021,1.58,0.021,2.4
		c-2,0-5.32,0.64-6.32,0.64c-0.03-0.11-0.05-0.22-0.08-0.34c0.71-0.73,2.05-2.11,2.36-2.42
		C133.435,201.086,133.425,200.996,133.415,200.906z"/>
	<path style="opacity:0.6;" d="M131.085,203.596c-1.89-7.97-0.92-18.78-0.92-27.66c1,0,2,0,3,0c0,8.12-0.58,17.11,0.25,24.97
		c0.01,0.09,0.02,0.18,0.03,0.27C133.135,201.486,131.795,202.866,131.085,203.596z"/>
</g>
<g id="outline">
	<g>
		<g>
			<path style="fill:#461917;" d="M136.156,175.565c-2.004-0.215-4-0.328-6.011-0.444c-0.395-0.022-0.513,0.549-0.516,0.828
				c-0.097,9.392-1.088,18.987,0.974,28.239c0.06,0.266,0.248,0.667,0.583,0.644c2.115-0.146,4.195-0.541,6.317-0.63
				c0.436-0.019,0.572-0.573,0.571-0.919c-0.029-9.047-0.693-18.063-0.877-27.104c-0.023-1.2-1.338-1.169-1.281,0.031
				c0.254,5.38,0.496,10.762,0.725,16.143c0.102,2.379,0.164,4.758,0.213,7.138c0.07,3.448-1.151,2.987-4.074,3.383
				c-2.964,0.402-2.283-11.003-2.289-13.438c-0.008-2.862,0.089-5.727,0.153-8.589c0.024-1.104,0.043-2.21,0.054-3.315
				c0.017-1.284,4.809-1.152,5.476-1.224C136.509,176.271,136.483,175.6,136.156,175.565L136.156,175.565z"/>
		</g>
	</g>
	<g>
		<g>
			<path style="fill:#461917;" d="M133.144,175.887c-0.1,8.411-1.207,17.314,0.139,25.65c0.057,0.354,0.413,0.213,0.4-0.093
				c-0.359-8.545-0.469-16.998-0.488-25.56C133.194,175.837,133.144,175.839,133.144,175.887L133.144,175.887z"/>
		</g>
	</g>
	<g>
		<g>
			<path style="fill:#461917;" d="M131.507,203.749c0.716-0.729,1.43-1.459,2.143-2.189c0.273-0.28,0.033-1.205-0.344-0.836
				c-0.723,0.709-1.446,1.417-2.17,2.123C130.823,203.152,131.117,204.146,131.507,203.749L131.507,203.749z"/>
		</g>
	</g>
	<g>
		<g>
			<path style="fill:#461917;" d="M133.768,201.192c0.434,0.386,1.036,0.474,1.597,0.484c0.636,0.014,2.261,0.266,2.602-0.41
				c0.147-0.293,0.143-0.663-0.1-0.905c-0.292-0.293-0.703-0.073-1.064-0.011c-0.485,0.084-0.976,0.136-1.465,0.187
				c-0.559,0.057-1.146,0.164-1.571,0.555C133.739,201.115,133.742,201.169,133.768,201.192L133.768,201.192z"/>
		</g>
	</g>
</g>
</svg>
