<?xml version="1.0" encoding="iso-8859-1"?>
<!-- Generator: Adobe Illustrator 15.0.2, SVG Export Plug-In . SVG Version: 6.00 Build 0)  -->
<!DOCTYPE svg PUBLIC "-//W3C//DTD SVG 1.1//EN" "http://www.w3.org/Graphics/SVG/1.1/DTD/svg11.dtd">
<svg version="1.1" xmlns="http://www.w3.org/2000/svg" xmlns:xlink="http://www.w3.org/1999/xlink" x="0px" y="0px" width="300px"
	 height="300px" viewBox="0 0 300 300" style="enable-background:new 0 0 300 300;" xml:space="preserve">
<g id="color__x28_change_this_x29_">
	<path style="fill:#A6A8AB;" d="M161.077,185.978c-0.282-1.587-1.567-3.305-4.111-5.049c-2.819-1.94-8.799-1.731-14.045-1.187
		c-0.013,0-0.02,0-0.033,0c-8.176,0.229-18.602,1.271-23.113,5.704v0.007c-1.298,1.271-2.105,2.826-2.229,4.721
		c-0.492,7.632,7.521,7.16,12.937,6.419c7.881-0.983,16.386-1.475,23.775-3.94C158.841,191.229,161.582,188.816,161.077,185.978z"/>
</g>
<g id="shadow">
	<path style="opacity:0.6;" d="M161.077,185.978c0.505,2.839-2.236,5.252-6.819,6.675c-7.39,2.466-15.894,2.957-23.775,3.94
		c-5.416,0.741-13.428,1.213-12.937-6.419c0.125-1.895,0.931-3.449,2.229-4.721c-0.046,2.629-0.302,4.38,2.223,6.216
		c3.2,1.974,10.098,0.741,13.297,0.249c5.173-0.741,22.654-2.466,25.611-5.914L161.077,185.978z"/>
	<path style="fill:#461917;" d="M142.888,179.742c0.013,0,0.02,0,0.033,0c5.246-0.545,11.226-0.754,14.045,1.187
		c2.544,1.744,3.829,3.462,4.111,5.049l-0.17,0.026c-2.957,3.448-20.438,5.173-25.611,5.914c-3.2,0.492-10.098,1.725-13.297-0.249
		c-2.524-1.836-2.269-3.587-2.223-6.216v-0.007C124.287,181.014,134.712,179.972,142.888,179.742z"/>
</g>
<g id="outline">
	<g>
		<g>
			<path style="fill:#361211;" d="M151.542,179.586c-9.461-0.415-19.622-1.049-28.484,2.933c-6.832,3.069-8.761,13.331,0.083,14.983
				c6.543,1.222,14.69-0.933,21.154-1.868c4.581-0.663,15.123-1.638,16.955-6.961c1.466-4.262-2.114-7.891-5.907-9.371
				c-5.329-2.08-12.83-0.651-18.146,0.821c-0.246,0.067-0.194,0.647,0.074,0.65c3.982,0.049,7.913-0.512,11.892-0.583
				c2.348-0.042,4.678,0.22,6.866,1.089c3.096,1.407,4.132,4.083,3.111,8.028c-1.253,1.377-3.331,2.06-5.025,2.674
				c-5.867,2.127-12.354,2.642-18.515,3.322c-4.342,0.48-8.868,1.467-13.228,0.672c-7.165-1.306-4.226-9.22,0.161-11.796
				c3.082-1.811,6.844-2.476,10.32-3.014c6.165-0.954,12.473-1.098,18.696-1.346C151.652,179.816,151.646,179.591,151.542,179.586
				L151.542,179.586z"/>
		</g>
	</g>
	<g>
		<g>
			<path style="fill:#361211;" d="M119.651,184.877c-0.178,3.421-0.172,6.037,3.232,7.706c3.949,1.937,9.652,0.221,13.763-0.326
				c4.7-0.625,9.402-1.228,14.077-2.022c3.383-0.574,7.851-1.119,10.44-3.592c0.443-0.424,0.037-1.824-0.523-1.27
				c-4.303,4.258-13.676,4.488-19.323,5.245c-2.704,0.362-5.408,0.688-8.105,1.094c-6.004,0.905-13.139,1.53-13.305-6.841
				C119.903,184.627,119.663,184.642,119.651,184.877L119.651,184.877z"/>
		</g>
	</g>
</g>
</svg>
