<?xml version="1.0" encoding="iso-8859-1"?>
<!-- Generator: Adobe Illustrator 15.0.2, SVG Export Plug-In . SVG Version: 6.00 Build 0)  -->
<!DOCTYPE svg PUBLIC "-//W3C//DTD SVG 1.1//EN" "http://www.w3.org/Graphics/SVG/1.1/DTD/svg11.dtd">
<svg version="1.1" xmlns="http://www.w3.org/2000/svg" xmlns:xlink="http://www.w3.org/1999/xlink" x="0px" y="0px" width="300px"
	 height="300px" viewBox="0 0 300 300" style="enable-background:new 0 0 300 300;" xml:space="preserve">
<g id="bg">
	<rect y="0.001" style="fill:#FFF9A6;" width="300" height="299.998"/>
</g>
<g id="patterns">
	<polygon style="fill:#FFE6A6;" points="187.455,94.41 177.854,77.782 187.455,61.154 206.655,61.154 216.255,77.782 206.655,94.41 
			"/>
	<polygon style="fill:#FFE6A6;" points="251.304,94.41 241.704,77.782 251.304,61.154 270.507,61.154 280.105,77.782 270.507,94.41 
			"/>
	<polygon style="fill:#FFE6A6;" points="251.304,131.115 241.704,114.487 251.304,97.856 270.507,97.856 280.105,114.487 
		270.507,131.115 	"/>
	<polygon style="fill:#FFE6A6;" points="251.304,168.037 241.704,151.408 251.304,134.778 270.507,134.778 280.105,151.408 
		270.507,168.037 	"/>
	<polygon style="fill:#FFE6A6;" points="187.653,168.037 178.052,151.408 187.653,134.778 206.855,134.778 216.455,151.408 
		206.855,168.037 	"/>
	<polygon style="fill:#FFE6A6;" points="219.38,75.735 209.78,59.105 219.38,42.477 238.582,42.477 248.182,59.105 238.582,75.735 	
		"/>
	<polygon style="fill:#FFE6A6;" points="219.38,112.655 209.78,96.025 219.38,79.397 238.582,79.397 248.182,96.025 
		238.582,112.655 	"/>
	<polygon style="fill:#FFE6A6;" points="219.38,149.577 209.78,132.946 219.38,116.318 238.582,116.318 248.182,132.946 
		238.582,149.577 	"/>
	<polygon style="fill:#FFE6A6;" points="155.727,149.577 146.127,132.946 155.727,116.318 174.929,116.318 184.53,132.946 
		174.929,149.577 	"/>
	<rect x="15.857" y="12.982" style="fill:#FFE6A6;" width="4.746" height="5.938"/>
	<rect x="34.404" y="9.271" style="fill:#FFE6A6;" width="4.75" height="1.782"/>
	<rect x="31.737" y="12.982" style="fill:#FFE6A6;" width="4.002" height="9.796"/>
	<rect x="37.673" y="9.271" style="fill:#FFE6A6;" width="2.227" height="14.845"/>
	<rect x="28.653" y="12.835" style="fill:#FFE6A6;" width="0.967" height="269.588"/>
	<rect x="23.827" y="28.271" style="fill:#FFE6A6;" width="5.103" height="77.472"/>
	<rect x="29.509" y="152.646" style="fill:#FFE6A6;" width="4.007" height="2.078"/>
	<rect x="24.167" y="140.327" style="fill:#FFE6A6;" width="4.746" height="1.781"/>
	<rect x="32.031" y="124.299" style="fill:#FFE6A6;" width="1.484" height="16.475"/>
	<rect x="32.92" y="126.523" style="fill:#FFE6A6;" width="1.931" height="12.172"/>
	<rect x="29.509" y="112.72" style="fill:#FFE6A6;" width="1.929" height="7.126"/>
	<rect x="36.483" y="114.353" style="fill:#FFE6A6;" width="5.345" height="1.781"/>
	<rect x="37.229" y="115.838" style="fill:#FFE6A6;" width="3.117" height="1.039"/>
	<rect x="26.838" y="281.978" style="fill:#FFE6A6;" width="4.302" height="2.222"/>
	<rect x="40.937" y="229.581" style="fill:#FFE6A6;" width="1.634" height="4.9"/>
	<rect x="38.713" y="226.761" style="fill:#FFE6A6;" width="0.739" height="2.376"/>
	<rect x="33.664" y="227.208" style="fill:#FFE6A6;" width="1.335" height="6.974"/>
	<rect x="33.813" y="236.557" style="fill:#FFE6A6;" width="9.201" height="4.753"/>
	<rect x="41.532" y="239.975" style="fill:#FFE6A6;" width="2.671" height="4.301"/>
	<rect x="33.962" y="245.908" style="fill:#FFE6A6;" width="8.459" height="2.374"/>
	<rect x="41.975" y="251.251" style="fill:#FFE6A6;" width="1.931" height="1.928"/>
	<rect x="33.366" y="255.11" style="fill:#FFE6A6;" width="9.204" height="4.156"/>
	<rect x="40.346" y="256.744" style="fill:#FFE6A6;" width="4.007" height="4.009"/>
	<rect x="38.563" y="264.906" style="fill:#FFE6A6;" width="4.155" height="4.157"/>
	<rect x="40.937" y="273.961" style="fill:#FFE6A6;" width="2.229" height="2.225"/>
	<rect x="36.633" y="276.484" style="fill:#FFE6A6;" width="2.08" height="2.077"/>
	<rect x="33.813" y="262.829" style="fill:#FFE6A6;" width="0.744" height="9.353"/>
	<rect x="33.516" y="274.256" style="fill:#FFE6A6;" width="0.744" height="8.167"/>
	<rect x="28.913" y="178.768" style="fill:#FFE6A6;" width="1.782" height="11.428"/>
</g>
</svg>
