<?xml version="1.0" encoding="iso-8859-1"?>
<!-- Generator: Adobe Illustrator 15.0.2, SVG Export Plug-In . SVG Version: 6.00 Build 0)  -->
<!DOCTYPE svg PUBLIC "-//W3C//DTD SVG 1.1//EN" "http://www.w3.org/Graphics/SVG/1.1/DTD/svg11.dtd">
<svg version="1.1" xmlns="http://www.w3.org/2000/svg" xmlns:xlink="http://www.w3.org/1999/xlink" x="0px" y="0px" width="300px"
	 height="300px" viewBox="0 0 300 300" style="enable-background:new 0 0 300 300;" xml:space="preserve">
<g id="bg">
	<rect style="fill:#36334A;" width="300" height="300"/>
</g>
<g id="patterns">
	<circle style="fill:#D7D3F0;" cx="30.327" cy="25.573" r="2.281"/>
	<circle style="fill:#D7D3F0;" cx="85.041" cy="69.232" r="2.281"/>
	<circle style="fill:#D7D3F0;" cx="134.715" cy="259.354" r="2.281"/>
	<path style="fill:#D7D3F0;" d="M159.17,43.808c0,1.263-1.021,2.282-2.28,2.282s-2.282-1.019-2.282-2.282
		c0-1.256,1.023-2.278,2.282-2.278S159.17,42.552,159.17,43.808z"/>
	<path style="fill:#D7D3F0;" d="M237.654,74.757c0,1.263-1.023,2.282-2.28,2.282c-1.261,0-2.284-1.019-2.284-2.282
		c0-1.256,1.023-2.277,2.284-2.277C236.631,72.48,237.654,73.501,237.654,74.757z"/>
	<path style="fill:#D7D3F0;" d="M268.602,36.07c0,1.263-1.02,2.282-2.28,2.282s-2.28-1.019-2.28-2.282
		c0-1.256,1.02-2.278,2.28-2.278S268.602,34.814,268.602,36.07z"/>
	<circle style="fill:#D7D3F0;" cx="52.988" cy="152.135" r="2.28"/>
	<circle style="fill:#D7D3F0;" cx="248.635" cy="146.607" r="2.28"/>
	<path style="fill:#D7D3F0;" d="M144.801,100.182c0,1.261-1.021,2.282-2.277,2.282c-1.261,0-2.285-1.021-2.285-2.282
		c0-1.256,1.024-2.28,2.285-2.28C143.779,97.901,144.801,98.925,144.801,100.182z"/>
	<circle style="fill:#D7D3F0;" cx="206.632" cy="222.879" r="2.28"/>
	<circle style="fill:#D7D3F0;" cx="100.519" cy="25.019" r="1.71"/>
	<circle style="fill:#D7D3F0;" cx="201.103" cy="30.047" r="1.71"/>
	<path style="fill:#D7D3F0;" d="M193.972,44.415c0,0.945-0.763,1.71-1.708,1.71c-0.949,0-1.712-0.765-1.712-1.71
		c0-0.944,0.763-1.71,1.712-1.71C193.209,42.705,193.972,43.471,193.972,44.415z"/>
	<circle style="fill:#D7D3F0;" cx="238.685" cy="52.153" r="1.71"/>
	<path style="fill:#D7D3F0;" d="M44.145,54.864c0,0.944-0.765,1.71-1.71,1.71c-0.946,0-1.71-0.766-1.71-1.71
		c0-0.947,0.764-1.71,1.71-1.71C43.38,53.153,44.145,53.917,44.145,54.864z"/>
	<circle style="fill:#D7D3F0;" cx="80.016" cy="57.074" r="1.711"/>
	<circle style="fill:#D7D3F0;" cx="98.305" cy="66.417" r="1.711"/>
	<circle style="fill:#D7D3F0;" cx="109.86" cy="116.763" r="1.711"/>
	<circle style="fill:#D7D3F0;" cx="200.497" cy="96.866" r="1.71"/>
	<circle style="fill:#D7D3F0;" cx="271.241" cy="102.394" r="1.71"/>
	<path style="fill:#D7D3F0;" d="M163.522,163.188c0,0.944-0.763,1.71-1.71,1.71s-1.71-0.766-1.71-1.71
		c0-0.945,0.763-1.708,1.71-1.708S163.522,162.243,163.522,163.188z"/>
	<path style="fill:#D7D3F0;" d="M182.312,137.766c0,0.942-0.764,1.708-1.708,1.708s-1.712-0.765-1.712-1.708
		c0-0.947,0.768-1.71,1.712-1.71S182.312,136.819,182.312,137.766z"/>
	<path style="fill:#D7D3F0;" d="M77.305,223.984c0,0.942-0.766,1.708-1.71,1.708s-1.713-0.765-1.713-1.708
		c0-0.947,0.769-1.71,1.713-1.71S77.305,223.037,77.305,223.984z"/>
	<circle style="fill:#D7D3F0;" cx="262.399" cy="275.935" r="1.712"/>
	<circle style="fill:#D7D3F0;" cx="216.578" cy="217.851" r="1.71"/>
	<path style="fill:#D7D3F0;" d="M118.807,191.427c0,0.945-0.763,1.71-1.707,1.71c-0.947,0-1.713-0.765-1.713-1.71
		c0-0.944,0.766-1.71,1.713-1.71C118.044,189.717,118.807,190.482,118.807,191.427z"/>
	<circle style="fill:#D7D3F0;" cx="42.435" cy="268.197" r="1.71"/>
</g>
</svg>
