<?xml version="1.0" encoding="iso-8859-1"?>
<!-- Generator: Adobe Illustrator 15.0.2, SVG Export Plug-In . SVG Version: 6.00 Build 0)  -->
<!DOCTYPE svg PUBLIC "-//W3C//DTD SVG 1.1//EN" "http://www.w3.org/Graphics/SVG/1.1/DTD/svg11.dtd">
<svg version="1.1" xmlns="http://www.w3.org/2000/svg" xmlns:xlink="http://www.w3.org/1999/xlink" x="0px" y="0px" width="300px"
	 height="300px" viewBox="0 0 300 300" style="enable-background:new 0 0 300 300;" xml:space="preserve">
<g id="bg">
	<rect y="-0.002" style="fill:#EC6D71;" width="300" height="300.004"/>
</g>
<g id="patterns">
	<line style="fill:#DE666A;" x1="15.334" y1="42.148" x2="26.659" y2="42.148"/>
	<line style="fill:#DE666A;" x1="92.84" y1="83.203" x2="99.919" y2="83.203"/>
	<line style="fill:#DE666A;" x1="29.963" y1="42.148" x2="41.289" y2="42.148"/>
	<line style="fill:#DE666A;" x1="104.284" y1="41.088" x2="115.609" y2="41.088"/>
	<line style="fill:#DE666A;" x1="104.284" y1="44.27" x2="115.609" y2="44.27"/>
	<line style="fill:#DE666A;" x1="44.593" y1="42.148" x2="55.916" y2="42.148"/>
	<line style="fill:#DE666A;" x1="59.691" y1="31.295" x2="59.691" y2="53.002"/>
	<line style="fill:#DE666A;" x1="144.274" y1="31.295" x2="144.274" y2="53.002"/>
	<path style="fill:#DE666A;" d="M36.254,27.469l-1.405,4.867c0.651-0.926,1.156-1.543,1.52-1.848
		c0.365-0.303,0.714-0.457,1.047-0.457c0.168,0,0.314,0.061,0.428,0.182c0.114,0.121,0.17,0.285,0.17,0.486
		c0,0.217-0.051,0.48-0.155,0.789l-0.685,2.066c-0.086,0.25-0.125,0.391-0.125,0.416c0,0.045,0.012,0.082,0.034,0.109
		c0.026,0.027,0.057,0.041,0.087,0.041c0.039,0,0.083-0.018,0.135-0.061c0.165-0.143,0.335-0.344,0.498-0.602l0.155,0.094
		c-0.109,0.174-0.258,0.365-0.449,0.568c-0.192,0.207-0.355,0.35-0.493,0.426c-0.137,0.078-0.258,0.119-0.367,0.119
		c-0.116,0-0.212-0.041-0.286-0.119c-0.074-0.076-0.111-0.178-0.111-0.299c0-0.148,0.067-0.42,0.197-0.82l0.658-1.99
		c0.084-0.252,0.124-0.447,0.124-0.59c0-0.066-0.021-0.117-0.068-0.16c-0.044-0.037-0.104-0.061-0.177-0.061
		c-0.106,0-0.228,0.037-0.362,0.111c-0.247,0.141-0.53,0.396-0.856,0.775c-0.086,0.104-0.377,0.518-0.875,1.242
		c-0.153,0.236-0.274,0.486-0.37,0.762l-0.309,1.027h-0.735l1.647-5.709l0.174-0.611c0-0.086-0.037-0.16-0.109-0.23
		c-0.069-0.062-0.16-0.098-0.263-0.098c-0.062,0-0.156,0.01-0.284,0.029l-0.104,0.018v-0.201L36.254,27.469z"/>
	<path style="fill:#DE666A;" d="M54.089,47.561l-0.402,1.35h0.687l-0.091,0.32h-0.693l-0.897,2.934
		c-0.116,0.332-0.175,0.551-0.175,0.648c0,0.053,0.014,0.094,0.037,0.121c0.023,0.031,0.051,0.043,0.086,0.043
		c0.072,0,0.168-0.055,0.289-0.164c0.069-0.066,0.228-0.27,0.47-0.613l0.167,0.125c-0.288,0.438-0.561,0.744-0.818,0.918
		c-0.175,0.119-0.352,0.18-0.53,0.18c-0.138,0-0.252-0.045-0.34-0.135c-0.086-0.092-0.128-0.211-0.128-0.354
		c0-0.176,0.054-0.451,0.165-0.822l0.872-2.881H52.03l0.047-0.195c0.367-0.104,0.677-0.252,0.933-0.449
		c0.254-0.195,0.542-0.537,0.863-1.025H54.089z"/>
	<path style="fill:#DE666A;" d="M66.301,39.941l-0.653,2.281c0.665-0.934,1.18-1.545,1.531-1.842c0.357-0.293,0.7-0.439,1.03-0.439
		c0.177,0,0.325,0.062,0.442,0.184c0.113,0.121,0.174,0.281,0.174,0.475c0,0.199-0.056,0.465-0.162,0.791l-0.685,2.074
		c-0.079,0.242-0.118,0.387-0.118,0.439c0,0.045,0.012,0.082,0.034,0.113c0.023,0.029,0.049,0.045,0.075,0.045
		c0.037,0,0.081-0.02,0.13-0.061c0.158-0.137,0.328-0.348,0.512-0.635l0.156,0.094c-0.296,0.436-0.572,0.748-0.838,0.928
		c-0.184,0.123-0.349,0.186-0.493,0.186c-0.119,0-0.212-0.033-0.284-0.111c-0.067-0.076-0.103-0.174-0.103-0.303
		c0-0.158,0.065-0.432,0.193-0.82l0.663-1.996c0.084-0.246,0.126-0.441,0.126-0.582c0-0.064-0.023-0.121-0.07-0.162
		c-0.046-0.041-0.106-0.061-0.177-0.061c-0.098,0-0.221,0.039-0.362,0.121c-0.271,0.146-0.547,0.393-0.838,0.734
		c-0.288,0.342-0.598,0.779-0.919,1.312c-0.17,0.279-0.314,0.586-0.426,0.922l-0.237,0.824h-0.735l0.903-3.129
		c0.104-0.371,0.158-0.598,0.158-0.674c0-0.072-0.03-0.135-0.089-0.189c-0.056-0.055-0.128-0.08-0.214-0.08
		c-0.04,0-0.109,0.004-0.207,0.018l-0.187,0.029l-0.049-0.178L66.301,39.941z"/>
	<path style="fill:#DE666A;" d="M77.617,37.709l2.05,5.221l1.126-3.896c0.093-0.324,0.14-0.574,0.14-0.752
		c0-0.121-0.044-0.219-0.13-0.287c-0.087-0.07-0.249-0.104-0.484-0.104c-0.039,0-0.081-0.004-0.121-0.004l0.054-0.178h2.171
		l-0.063,0.178c-0.226-0.006-0.391,0.018-0.502,0.07c-0.156,0.066-0.272,0.158-0.35,0.266c-0.104,0.156-0.211,0.43-0.32,0.818
		l-1.607,5.568h-0.131l-2.235-5.697l-1.215,4.209c-0.091,0.318-0.135,0.562-0.135,0.734c0,0.127,0.042,0.225,0.123,0.289
		c0.079,0.064,0.274,0.111,0.579,0.133l-0.049,0.176h-2.151l0.069-0.176c0.263-0.008,0.439-0.031,0.533-0.062
		c0.135-0.057,0.237-0.127,0.302-0.217c0.099-0.133,0.203-0.391,0.326-0.775l1.382-4.791c-0.128-0.205-0.27-0.346-0.414-0.42
		c-0.148-0.074-0.377-0.115-0.691-0.125l0.057-0.178H77.617z"/>
	<path style="fill:#DE666A;" d="M89.836,38.715l-0.404,1.35h0.684l-0.086,0.32h-0.693l-0.9,2.932
		c-0.114,0.336-0.172,0.549-0.172,0.646c0,0.057,0.012,0.098,0.035,0.125c0.022,0.029,0.051,0.043,0.086,0.043
		c0.072,0,0.17-0.057,0.288-0.168c0.07-0.066,0.229-0.27,0.473-0.609l0.162,0.123c-0.285,0.439-0.558,0.744-0.816,0.92
		c-0.174,0.121-0.351,0.178-0.53,0.178c-0.137,0-0.249-0.043-0.337-0.137c-0.089-0.094-0.135-0.207-0.135-0.354
		c0-0.176,0.058-0.451,0.17-0.818l0.874-2.881h-0.758l0.049-0.197c0.365-0.105,0.675-0.254,0.931-0.449
		c0.251-0.195,0.542-0.539,0.862-1.023H89.836z"/>
	<path style="fill:#DE666A;" d="M128.412,72.332l-0.404,1.355h0.687l-0.092,0.318h-0.688l-0.902,2.934
		c-0.116,0.332-0.172,0.547-0.172,0.646c0,0.057,0.009,0.094,0.034,0.123c0.023,0.031,0.052,0.045,0.087,0.045
		c0.071,0,0.167-0.057,0.29-0.168c0.07-0.068,0.229-0.27,0.471-0.613l0.167,0.125c-0.291,0.439-0.562,0.746-0.818,0.922
		c-0.175,0.121-0.354,0.178-0.531,0.178c-0.14,0-0.251-0.047-0.337-0.137c-0.089-0.094-0.133-0.209-0.133-0.354
		c0-0.18,0.054-0.451,0.168-0.818l0.872-2.883h-0.759l0.049-0.197c0.365-0.104,0.675-0.252,0.931-0.449
		c0.254-0.195,0.542-0.539,0.863-1.027H128.412z"/>
	<path style="fill:#DE666A;" d="M71.077,42.432l-0.7,2.439c-0.042,0.148-0.062,0.25-0.062,0.316c0,0.051,0.019,0.096,0.056,0.121
		c0.037,0.031,0.123,0.051,0.261,0.061l-0.023,0.074h-1.119l0.03-0.074c0.119-0.004,0.198-0.016,0.235-0.029
		c0.058-0.027,0.104-0.061,0.135-0.105c0.049-0.066,0.101-0.188,0.146-0.363l0.507-1.754c0.03-0.105,0.047-0.164,0.049-0.182
		c0.005-0.031,0.008-0.057,0.008-0.084c0-0.051-0.015-0.092-0.042-0.121c-0.028-0.027-0.063-0.043-0.112-0.043
		c-0.039,0-0.1,0.01-0.177,0.029l-0.03-0.08l0.735-0.205H71.077z"/>
	<path style="fill:#DE666A;" d="M113.371,80.641l-0.653,2.283c0.663-0.936,1.18-1.545,1.533-1.842
		c0.355-0.295,0.697-0.441,1.025-0.441c0.18,0,0.328,0.061,0.444,0.184s0.173,0.281,0.173,0.48c0,0.195-0.054,0.455-0.163,0.785
		l-0.685,2.076c-0.076,0.242-0.116,0.385-0.116,0.438c0,0.045,0.015,0.082,0.038,0.115c0.022,0.027,0.046,0.045,0.074,0.045
		c0.035,0,0.076-0.021,0.128-0.062c0.158-0.139,0.328-0.35,0.512-0.633l0.155,0.092c-0.295,0.438-0.572,0.744-0.837,0.93
		c-0.184,0.123-0.349,0.186-0.495,0.186c-0.117,0-0.21-0.037-0.282-0.111c-0.067-0.078-0.103-0.178-0.103-0.305
		c0-0.158,0.063-0.434,0.193-0.82l0.663-1.996c0.084-0.248,0.128-0.441,0.128-0.58c0-0.068-0.025-0.119-0.072-0.162
		c-0.046-0.041-0.106-0.062-0.174-0.062c-0.101,0-0.224,0.043-0.363,0.121c-0.272,0.148-0.549,0.393-0.84,0.736
		c-0.291,0.338-0.598,0.775-0.919,1.309c-0.172,0.281-0.312,0.59-0.426,0.924l-0.237,0.826h-0.737l0.904-3.131
		c0.105-0.371,0.158-0.6,0.158-0.674c0-0.068-0.027-0.135-0.086-0.189c-0.058-0.055-0.13-0.08-0.216-0.08
		c-0.04,0-0.109,0.006-0.207,0.016l-0.191,0.031l-0.041-0.178L113.371,80.641z"/>
	<path style="fill:#DE666A;" d="M131.067,128.773l-0.656,2.281c0.67-0.934,1.18-1.547,1.537-1.842
		c0.354-0.289,0.696-0.439,1.026-0.439c0.179,0,0.325,0.061,0.442,0.182c0.113,0.123,0.172,0.285,0.172,0.477
		c0,0.199-0.054,0.461-0.16,0.789l-0.685,2.076c-0.081,0.242-0.118,0.385-0.118,0.441c0,0.045,0.012,0.08,0.034,0.109
		c0.026,0.033,0.049,0.045,0.075,0.045c0.037,0,0.079-0.018,0.13-0.061c0.158-0.135,0.328-0.348,0.512-0.633l0.158,0.092
		c-0.298,0.438-0.577,0.748-0.837,0.93c-0.187,0.123-0.352,0.188-0.496,0.188c-0.116,0-0.209-0.039-0.281-0.111
		c-0.072-0.08-0.104-0.18-0.104-0.305c0-0.16,0.064-0.43,0.192-0.822l0.666-1.992c0.081-0.25,0.125-0.445,0.125-0.584
		c0-0.066-0.023-0.121-0.074-0.162c-0.047-0.041-0.104-0.062-0.172-0.062c-0.101,0-0.224,0.039-0.365,0.121
		c-0.268,0.148-0.547,0.393-0.84,0.736c-0.289,0.34-0.594,0.779-0.917,1.311c-0.17,0.279-0.313,0.588-0.423,0.922l-0.24,0.828
		h-0.735l0.9-3.131c0.107-0.373,0.158-0.596,0.158-0.672s-0.025-0.139-0.083-0.193c-0.059-0.051-0.131-0.08-0.217-0.08
		c-0.04,0-0.107,0.006-0.207,0.02l-0.187,0.029l-0.049-0.176L131.067,128.773z"/>
	<path style="fill:#DE666A;" d="M118.147,83.133l-0.702,2.439c-0.04,0.146-0.061,0.25-0.061,0.314c0,0.055,0.021,0.096,0.056,0.123
		c0.037,0.031,0.123,0.049,0.261,0.059l-0.021,0.08h-1.121l0.03-0.08c0.119-0.004,0.197-0.014,0.235-0.027
		c0.061-0.029,0.106-0.061,0.135-0.107c0.049-0.064,0.1-0.186,0.148-0.361l0.505-1.756c0.03-0.107,0.047-0.168,0.052-0.182
		c0.002-0.027,0.005-0.057,0.005-0.084c0-0.051-0.012-0.092-0.042-0.121c-0.028-0.027-0.063-0.041-0.112-0.041
		c-0.037,0-0.1,0.01-0.177,0.023l-0.027-0.074l0.734-0.205H118.147z"/>
	<path style="fill:#DE666A;" d="M82.759,42.432l-0.705,2.439c-0.039,0.148-0.062,0.25-0.062,0.316c0,0.051,0.021,0.096,0.059,0.121
		c0.034,0.031,0.123,0.051,0.258,0.061l-0.021,0.074h-1.119l0.027-0.074c0.121-0.004,0.198-0.016,0.237-0.029
		c0.061-0.027,0.105-0.061,0.138-0.105c0.049-0.066,0.095-0.188,0.146-0.363l0.503-1.754c0.032-0.105,0.046-0.164,0.053-0.182
		c0.005-0.031,0.005-0.057,0.005-0.084c0-0.051-0.014-0.092-0.042-0.121c-0.027-0.027-0.064-0.043-0.111-0.043
		c-0.04,0-0.098,0.01-0.18,0.029l-0.027-0.08l0.735-0.205H82.759z"/>
	<path style="fill:#DE666A;" d="M33.181,49.852c0.131,0.16,0.293,0.244,0.486,0.244c0.079,0,0.235-0.035,0.468-0.102
		c0.232-0.068,0.382-0.107,0.442-0.117c0.116-0.018,0.251-0.025,0.396-0.025c0.502,0,0.914,0.109,1.232,0.332
		c0.319,0.219,0.478,0.492,0.478,0.814c0,0.176-0.059,0.35-0.173,0.523c-0.116,0.176-0.374,0.439-0.779,0.789
		c-0.407,0.352-0.675,0.629-0.798,0.824c-0.072,0.111-0.109,0.232-0.109,0.367c0,0.205,0.104,0.377,0.308,0.52
		c0.2,0.139,0.475,0.211,0.823,0.211c0.454,0,0.81-0.105,1.072-0.312c0.259-0.209,0.4-0.561,0.431-1.061h0.242l0.421,1.615h-0.251
		c-0.105-0.146-0.261-0.221-0.466-0.221c-0.079,0-0.195,0.018-0.347,0.057c-0.426,0.107-0.803,0.164-1.128,0.164
		c-0.601,0-1.099-0.135-1.489-0.402s-0.586-0.574-0.586-0.92c0-0.213,0.083-0.438,0.253-0.68c0.168-0.236,0.543-0.594,1.124-1.066
		c0.219-0.18,0.36-0.318,0.426-0.418c0.062-0.102,0.098-0.209,0.098-0.316c0-0.158-0.084-0.293-0.249-0.408
		c-0.163-0.111-0.384-0.168-0.663-0.168c-0.344,0-0.638,0.102-0.87,0.303c-0.237,0.205-0.362,0.533-0.384,0.979h-0.246l-0.419-1.525
		H33.181z"/>
	<path style="fill:#DE666A;" d="M51.228,29.322l-1.042,4.836l-0.096,0.381c-0.012,0.037-0.017,0.066-0.017,0.092
		c0,0.041,0.012,0.074,0.028,0.107c0.017,0.021,0.037,0.035,0.062,0.035c0.023,0,0.059-0.023,0.101-0.061
		c0.076-0.074,0.179-0.242,0.31-0.498l0.142,0.102c-0.165,0.285-0.33,0.494-0.503,0.629c-0.172,0.141-0.332,0.207-0.479,0.207
		c-0.103,0-0.18-0.029-0.237-0.09c-0.052-0.061-0.082-0.15-0.082-0.264c0-0.137,0.033-0.318,0.094-0.541l0.086-0.303
		c-0.4,0.475-0.771,0.807-1.104,0.994c-0.244,0.137-0.481,0.203-0.714,0.203c-0.224,0-0.416-0.082-0.579-0.248
		c-0.16-0.168-0.242-0.396-0.242-0.689c0-0.438,0.145-0.902,0.433-1.389c0.289-0.486,0.656-0.877,1.101-1.17
		c0.347-0.23,0.675-0.348,0.982-0.348c0.186,0,0.337,0.043,0.46,0.123c0.123,0.082,0.217,0.219,0.279,0.41l0.365-2.414
		L51.228,29.322z M49.455,31.525c-0.198,0-0.402,0.082-0.621,0.246c-0.31,0.232-0.584,0.582-0.824,1.043
		c-0.244,0.461-0.362,0.875-0.362,1.246c0,0.188,0.053,0.336,0.16,0.443c0.104,0.111,0.23,0.164,0.367,0.164
		c0.343,0,0.715-0.221,1.122-0.668c0.493-0.586,0.73-1.189,0.717-1.811c0-0.236-0.052-0.404-0.149-0.508
		C49.762,31.576,49.625,31.525,49.455,31.525z"/>
	<path style="fill:#DE666A;" d="M50.26,31.521c0,0,0.512-4.203-2.254-2.006l-0.217-0.479c0,0,3.055-2.197,3.055,1.432L50.26,31.521z
		"/>
	<path style="fill:#DE666A;" d="M50.532,48.322l-1.04,4.832l-0.096,0.383c-0.012,0.035-0.014,0.066-0.014,0.092
		c0,0.041,0.007,0.078,0.028,0.105c0.016,0.023,0.037,0.035,0.061,0.035c0.025,0,0.058-0.02,0.1-0.061
		c0.074-0.076,0.182-0.24,0.31-0.496l0.142,0.104c-0.163,0.279-0.33,0.492-0.502,0.627c-0.173,0.141-0.333,0.207-0.478,0.207
		c-0.103,0-0.182-0.027-0.239-0.09c-0.054-0.061-0.082-0.148-0.082-0.264c0-0.137,0.03-0.318,0.094-0.541l0.088-0.303
		c-0.4,0.475-0.77,0.805-1.107,0.992c-0.239,0.139-0.479,0.205-0.712,0.205c-0.221,0-0.414-0.084-0.577-0.25
		c-0.165-0.166-0.244-0.396-0.244-0.688c0-0.441,0.145-0.902,0.433-1.387c0.291-0.488,0.656-0.879,1.099-1.172
		c0.349-0.23,0.677-0.348,0.984-0.348c0.184,0,0.337,0.041,0.463,0.125c0.121,0.08,0.214,0.219,0.276,0.406l0.368-2.412
		L50.532,48.322z M48.762,50.521c-0.195,0-0.402,0.082-0.621,0.25c-0.308,0.232-0.584,0.578-0.824,1.041
		c-0.244,0.457-0.365,0.875-0.365,1.248c0,0.186,0.059,0.334,0.161,0.441c0.109,0.109,0.23,0.166,0.37,0.166
		c0.342,0,0.716-0.223,1.121-0.666c0.493-0.59,0.732-1.195,0.717-1.814c0-0.232-0.049-0.402-0.151-0.51
		C49.071,50.574,48.934,50.521,48.762,50.521z"/>
	<path style="fill:#DE666A;" d="M49.569,50.518c0,0,0.509-4.203-2.257-2.006l-0.219-0.477c0,0,3.055-2.197,3.055,1.43L49.569,50.518
		z"/>
	<polyline style="fill:#DE666A;" points="92.488,30.352 97.441,42.383 91.781,53.002 	"/>
	<line style="fill:#DE666A;" x1="65.001" y1="82.492" x2="76.326" y2="82.492"/>
	<line style="fill:#DE666A;" x1="65.001" y1="85.678" x2="76.326" y2="85.678"/>
	<line style="fill:#DE666A;" x1="20.408" y1="72.703" x2="20.408" y2="94.408"/>
	<path style="fill:#DE666A;" d="M27.018,81.348l-0.655,2.279c0.667-0.928,1.179-1.543,1.535-1.834
		c0.355-0.299,0.698-0.445,1.023-0.445c0.182,0,0.33,0.062,0.444,0.184c0.116,0.121,0.175,0.279,0.175,0.477
		c0,0.199-0.054,0.463-0.163,0.789l-0.684,2.076c-0.079,0.242-0.116,0.387-0.116,0.439c0,0.045,0.011,0.082,0.034,0.113
		s0.049,0.047,0.075,0.047c0.032,0,0.078-0.023,0.13-0.064c0.153-0.139,0.328-0.35,0.514-0.633l0.154,0.092
		c-0.296,0.438-0.575,0.75-0.838,0.93c-0.184,0.123-0.349,0.188-0.493,0.188c-0.121,0-0.214-0.037-0.281-0.111
		c-0.072-0.08-0.109-0.178-0.109-0.307c0-0.158,0.067-0.428,0.197-0.82l0.661-1.996c0.086-0.246,0.128-0.441,0.128-0.58
		c0-0.066-0.023-0.119-0.07-0.162c-0.046-0.043-0.104-0.062-0.174-0.062c-0.105,0-0.224,0.043-0.365,0.121
		c-0.268,0.146-0.547,0.395-0.84,0.736c-0.289,0.342-0.596,0.775-0.919,1.311c-0.17,0.279-0.312,0.588-0.424,0.922l-0.237,0.826
		h-0.735l0.903-3.129c0.104-0.373,0.158-0.598,0.158-0.676c0-0.068-0.028-0.135-0.089-0.189c-0.056-0.057-0.13-0.084-0.214-0.084
		c-0.04,0-0.109,0.01-0.207,0.023l-0.188,0.027l-0.049-0.176L27.018,81.348z"/>
	<path style="fill:#DE666A;" d="M87.182,83.979c-0.021,0.168-0.03,0.309-0.03,0.42c0,0.293,0.103,0.547,0.314,0.754
		c0.214,0.207,0.47,0.311,0.772,0.311c0.244,0,0.477-0.049,0.7-0.148c0.226-0.098,0.554-0.312,0.998-0.648l0.103,0.146
		c-0.787,0.781-1.533,1.172-2.245,1.172c-0.486,0-0.852-0.156-1.094-0.461c-0.247-0.307-0.367-0.641-0.367-1.012
		c0-0.496,0.15-1.002,0.455-1.521s0.687-0.922,1.147-1.211c0.458-0.285,0.936-0.432,1.419-0.432c0.356,0,0.612,0.072,0.784,0.217
		c0.165,0.143,0.251,0.312,0.251,0.508c0,0.275-0.109,0.539-0.332,0.791c-0.291,0.33-0.722,0.596-1.287,0.799
		C88.394,83.797,87.863,83.904,87.182,83.979z M87.219,83.736c0.498-0.055,0.905-0.152,1.22-0.287
		c0.411-0.182,0.726-0.4,0.933-0.654s0.312-0.496,0.312-0.723c0-0.141-0.044-0.252-0.135-0.34c-0.089-0.084-0.217-0.129-0.382-0.129
		c-0.344,0-0.709,0.18-1.096,0.541C87.685,82.504,87.398,83.035,87.219,83.736z"/>
	<path style="fill:#DE666A;" d="M38.334,79.115l2.05,5.223l1.124-3.895c0.093-0.326,0.14-0.578,0.14-0.754
		c0-0.123-0.042-0.219-0.128-0.289c-0.089-0.07-0.249-0.102-0.482-0.102c-0.041,0-0.083-0.006-0.128-0.006l0.054-0.178h2.173
		l-0.061,0.178c-0.226-0.004-0.393,0.02-0.502,0.07c-0.156,0.07-0.272,0.158-0.347,0.27c-0.109,0.154-0.217,0.424-0.323,0.814
		l-1.608,5.57H40.16l-2.233-5.701l-1.214,4.211c-0.091,0.322-0.133,0.566-0.133,0.736c0,0.127,0.039,0.223,0.118,0.289
		c0.082,0.064,0.277,0.111,0.584,0.135l-0.051,0.174h-2.152l0.07-0.174c0.265-0.01,0.444-0.031,0.532-0.066
		c0.138-0.055,0.237-0.125,0.305-0.215c0.096-0.133,0.205-0.395,0.321-0.775l1.387-4.793c-0.133-0.205-0.27-0.342-0.416-0.418
		c-0.149-0.074-0.38-0.117-0.689-0.127l0.054-0.178H38.334z"/>
	<path style="fill:#DE666A;" d="M50.551,80.121l-0.402,1.35h0.684l-0.091,0.322h-0.688l-0.9,2.932
		c-0.116,0.33-0.175,0.551-0.175,0.646c0,0.055,0.012,0.096,0.037,0.125c0.023,0.027,0.052,0.041,0.084,0.041
		c0.074,0,0.17-0.055,0.289-0.166c0.072-0.066,0.23-0.27,0.475-0.613l0.162,0.125c-0.288,0.441-0.561,0.748-0.816,0.92
		c-0.172,0.121-0.352,0.182-0.53,0.182c-0.138,0-0.249-0.047-0.337-0.139c-0.089-0.09-0.133-0.211-0.133-0.352
		c0-0.182,0.056-0.453,0.17-0.822l0.872-2.879h-0.759l0.049-0.201c0.363-0.1,0.673-0.248,0.929-0.445
		c0.256-0.199,0.542-0.541,0.865-1.025H50.551z"/>
	<path style="fill:#DE666A;" d="M31.794,83.84l-0.705,2.439c-0.039,0.143-0.058,0.25-0.058,0.314c0,0.055,0.019,0.096,0.054,0.123
		c0.039,0.031,0.125,0.049,0.263,0.059l-0.023,0.076h-1.119l0.028-0.076c0.121-0.004,0.2-0.014,0.234-0.027
		c0.063-0.027,0.109-0.061,0.14-0.105c0.045-0.066,0.096-0.188,0.146-0.363l0.505-1.756c0.028-0.102,0.047-0.164,0.052-0.182
		c0-0.027,0.005-0.055,0.005-0.082c0-0.053-0.015-0.09-0.042-0.119c-0.028-0.031-0.067-0.045-0.114-0.045
		c-0.037,0-0.096,0.01-0.177,0.027l-0.028-0.078l0.735-0.205H31.794z"/>
	<path style="fill:#DE666A;" d="M43.476,83.84l-0.705,2.439c-0.042,0.143-0.061,0.25-0.061,0.314c0,0.055,0.019,0.096,0.054,0.123
		c0.04,0.031,0.126,0.049,0.261,0.059l-0.021,0.076h-1.121l0.03-0.076c0.119-0.004,0.2-0.014,0.235-0.027
		c0.062-0.027,0.106-0.061,0.137-0.105c0.047-0.066,0.098-0.188,0.146-0.363l0.505-1.756c0.03-0.102,0.049-0.164,0.052-0.182
		c0.002-0.027,0.005-0.055,0.005-0.082c0-0.053-0.012-0.09-0.04-0.119c-0.025-0.031-0.065-0.045-0.114-0.045
		c-0.037,0-0.098,0.01-0.177,0.027l-0.027-0.078l0.735-0.205H43.476z"/>
	<polyline style="fill:#DE666A;" points="53.203,71.76 58.158,83.793 52.496,94.408 	"/>
	<path style="fill:#DE666A;" d="M122.829,41.398h4.311l0.658-2.297c0.128-0.447,0.191-0.797,0.191-1.043
		c0-0.117-0.028-0.219-0.086-0.303c-0.057-0.086-0.145-0.148-0.261-0.191c-0.119-0.041-0.354-0.061-0.696-0.061l0.067-0.24h3.709
		l-0.084,0.24c-0.313-0.004-0.547,0.029-0.705,0.098c-0.216,0.098-0.377,0.223-0.481,0.373c-0.148,0.217-0.303,0.596-0.458,1.141
		l-1.657,5.734c-0.132,0.424-0.204,0.729-0.204,0.91c0,0.16,0.061,0.279,0.182,0.363c0.121,0.078,0.409,0.135,0.863,0.162
		l-0.075,0.244h-3.557l0.095-0.244c0.356-0.01,0.591-0.043,0.71-0.094c0.182-0.084,0.314-0.189,0.397-0.318
		c0.116-0.18,0.261-0.564,0.436-1.166l0.823-2.846h-4.313l-0.86,2.988c-0.135,0.416-0.2,0.719-0.2,0.91
		c0,0.16,0.061,0.279,0.177,0.363c0.119,0.078,0.407,0.135,0.863,0.162l-0.059,0.244h-3.582l0.088-0.244
		c0.36-0.01,0.598-0.043,0.714-0.094c0.185-0.084,0.316-0.189,0.405-0.318c0.116-0.184,0.266-0.574,0.438-1.166l1.612-5.605
		c0.133-0.457,0.2-0.803,0.2-1.043c0-0.117-0.03-0.219-0.086-0.303c-0.059-0.086-0.145-0.148-0.268-0.191
		c-0.121-0.041-0.354-0.061-0.705-0.061l0.081-0.24h3.648l-0.075,0.24c-0.305-0.004-0.532,0.029-0.677,0.098
		c-0.212,0.092-0.37,0.215-0.472,0.363c-0.138,0.205-0.284,0.586-0.447,1.145L122.829,41.398z"/>
	<path style="fill:#DE666A;" d="M132.567,44.334l-0.121,0.062c-0.312-0.596-0.537-1.121-0.672-1.578
		c-0.105-0.354-0.158-0.715-0.158-1.074c0-0.848,0.195-1.602,0.586-2.271c0.481-0.814,1.259-1.611,2.334-2.387l0.088,0.137
		c-0.486,0.359-0.882,0.762-1.188,1.209c-0.384,0.553-0.7,1.223-0.942,2.01c-0.244,0.785-0.368,1.502-0.368,2.146
		C132.125,43.078,132.272,43.66,132.567,44.334z"/>
	<path style="fill:#DE666A;" d="M136.544,37.23c0.335,0,0.616,0.139,0.842,0.418c0.23,0.281,0.344,0.727,0.344,1.332
		c0,0.52-0.081,1.047-0.253,1.59c-0.17,0.541-0.409,1.008-0.717,1.406c-0.247,0.309-0.503,0.535-0.772,0.674
		c-0.156,0.08-0.337,0.117-0.544,0.117c-0.34,0-0.624-0.141-0.852-0.42c-0.229-0.277-0.347-0.725-0.347-1.334
		c0-0.602,0.118-1.205,0.349-1.811c0.268-0.707,0.614-1.246,1.03-1.613C135.896,37.35,136.204,37.23,136.544,37.23z M136.553,37.439
		c-0.153,0-0.307,0.059-0.463,0.18c-0.153,0.119-0.318,0.365-0.481,0.744c-0.168,0.379-0.326,0.863-0.479,1.459
		c-0.195,0.777-0.296,1.441-0.296,1.99c0,0.271,0.059,0.475,0.178,0.611c0.116,0.135,0.26,0.203,0.43,0.203
		c0.158,0,0.296-0.055,0.407-0.158c0.303-0.283,0.559-0.768,0.774-1.451c0.35-1.119,0.523-2.029,0.523-2.73
		c0-0.289-0.058-0.504-0.176-0.643C136.851,37.51,136.713,37.439,136.553,37.439z"/>
	<path style="fill:#DE666A;" d="M138.954,37.16l0.123-0.074c0.312,0.592,0.535,1.117,0.668,1.572
		c0.106,0.354,0.162,0.717,0.162,1.076c0,0.846-0.197,1.602-0.586,2.266c-0.484,0.82-1.261,1.619-2.334,2.396l-0.088-0.121
		c0.486-0.363,0.879-0.764,1.191-1.211c0.384-0.553,0.697-1.223,0.939-2.012c0.244-0.789,0.368-1.504,0.368-2.146
		C139.398,38.412,139.249,37.83,138.954,37.16z"/>
	<line style="fill:#DE666A;" x1="15.334" y1="124.609" x2="26.659" y2="124.609"/>
	<line style="fill:#DE666A;" x1="29.963" y1="124.609" x2="41.289" y2="124.609"/>
	<line style="fill:#DE666A;" x1="104.284" y1="123.547" x2="115.609" y2="123.547"/>
	<line style="fill:#DE666A;" x1="104.284" y1="126.73" x2="115.609" y2="126.73"/>
	<line style="fill:#DE666A;" x1="44.593" y1="124.609" x2="55.916" y2="124.609"/>
	<line style="fill:#DE666A;" x1="59.691" y1="113.754" x2="59.691" y2="135.461"/>
	<line style="fill:#DE666A;" x1="144.274" y1="113.754" x2="144.274" y2="135.461"/>
	<path style="fill:#DE666A;" d="M36.254,109.93l-1.405,4.867c0.651-0.926,1.156-1.541,1.52-1.848
		c0.365-0.303,0.714-0.457,1.047-0.457c0.168,0,0.314,0.061,0.428,0.186c0.114,0.117,0.17,0.281,0.17,0.48
		c0,0.219-0.051,0.482-0.155,0.791l-0.685,2.066c-0.086,0.252-0.125,0.391-0.125,0.414c0,0.047,0.012,0.084,0.034,0.111
		c0.026,0.027,0.057,0.043,0.087,0.043c0.039,0,0.083-0.02,0.135-0.061c0.165-0.145,0.335-0.346,0.498-0.605l0.155,0.098
		c-0.109,0.172-0.258,0.363-0.449,0.568c-0.192,0.207-0.355,0.348-0.493,0.428c-0.137,0.076-0.258,0.115-0.367,0.115
		c-0.116,0-0.212-0.039-0.286-0.115c-0.074-0.08-0.111-0.182-0.111-0.305c0-0.146,0.067-0.418,0.197-0.816l0.658-1.992
		c0.084-0.252,0.124-0.447,0.124-0.588c0-0.068-0.021-0.119-0.068-0.162c-0.044-0.037-0.104-0.055-0.177-0.055
		c-0.106,0-0.228,0.031-0.362,0.107c-0.247,0.139-0.53,0.395-0.856,0.775c-0.086,0.102-0.377,0.518-0.875,1.244
		c-0.153,0.229-0.274,0.482-0.37,0.758l-0.309,1.025h-0.735l1.647-5.701l0.174-0.617c0-0.086-0.037-0.16-0.109-0.23
		c-0.069-0.062-0.16-0.098-0.263-0.098c-0.062,0-0.156,0.01-0.284,0.029l-0.104,0.018v-0.201L36.254,109.93z"/>
	<path style="fill:#DE666A;" d="M54.089,130.025l-0.402,1.348h0.687l-0.091,0.318h-0.693l-0.897,2.934
		c-0.116,0.332-0.175,0.551-0.175,0.648c0,0.053,0.014,0.094,0.037,0.121c0.023,0.031,0.051,0.045,0.086,0.045
		c0.072,0,0.168-0.057,0.289-0.166c0.069-0.068,0.228-0.271,0.47-0.613l0.167,0.125c-0.288,0.438-0.561,0.744-0.818,0.92
		c-0.175,0.121-0.352,0.18-0.53,0.18c-0.138,0-0.252-0.045-0.34-0.137c-0.086-0.092-0.128-0.213-0.128-0.354
		c0-0.182,0.054-0.453,0.165-0.82l0.872-2.883H52.03l0.047-0.197c0.367-0.1,0.677-0.25,0.933-0.447
		c0.254-0.197,0.542-0.537,0.863-1.021H54.089z"/>
	<path style="fill:#DE666A;" d="M66.301,122.404l-0.653,2.279c0.665-0.932,1.18-1.545,1.531-1.84c0.357-0.293,0.7-0.439,1.03-0.439
		c0.177,0,0.325,0.061,0.442,0.182c0.113,0.123,0.174,0.281,0.174,0.479c0,0.195-0.056,0.457-0.162,0.789l-0.685,2.072
		c-0.079,0.24-0.118,0.387-0.118,0.439c0,0.045,0.012,0.082,0.034,0.115c0.023,0.027,0.049,0.047,0.075,0.047
		c0.037,0,0.081-0.023,0.13-0.066c0.158-0.135,0.328-0.346,0.512-0.633l0.156,0.094c-0.296,0.438-0.572,0.746-0.838,0.928
		c-0.184,0.123-0.349,0.189-0.493,0.189c-0.119,0-0.212-0.041-0.284-0.111c-0.067-0.08-0.103-0.178-0.103-0.307
		c0-0.16,0.065-0.434,0.193-0.82l0.663-1.996c0.084-0.246,0.126-0.441,0.126-0.58c0-0.066-0.023-0.117-0.07-0.162
		c-0.046-0.041-0.106-0.061-0.177-0.061c-0.098,0-0.221,0.037-0.362,0.117c-0.271,0.15-0.547,0.393-0.838,0.736
		c-0.288,0.34-0.598,0.777-0.919,1.311c-0.17,0.281-0.314,0.588-0.426,0.924l-0.237,0.828h-0.735l0.903-3.133
		c0.104-0.371,0.158-0.598,0.158-0.674c0-0.072-0.03-0.135-0.089-0.189c-0.056-0.055-0.128-0.082-0.214-0.082
		c-0.04,0-0.109,0.006-0.207,0.02l-0.187,0.029l-0.049-0.178L66.301,122.404z"/>
	<path style="fill:#DE666A;" d="M77.617,120.17l2.05,5.221l1.126-3.895c0.093-0.324,0.14-0.576,0.14-0.754
		c0-0.121-0.044-0.219-0.13-0.287c-0.087-0.07-0.249-0.104-0.484-0.104c-0.039,0-0.081-0.002-0.121-0.004l0.054-0.178h2.171
		l-0.063,0.178c-0.226-0.006-0.391,0.018-0.502,0.07c-0.156,0.068-0.272,0.158-0.35,0.268c-0.104,0.154-0.211,0.428-0.32,0.816
		l-1.607,5.566h-0.131l-2.235-5.695l-1.215,4.209c-0.091,0.318-0.135,0.564-0.135,0.734c0,0.129,0.042,0.225,0.123,0.289
		c0.079,0.064,0.274,0.107,0.579,0.133l-0.049,0.18h-2.151l0.069-0.18c0.263-0.008,0.439-0.025,0.533-0.062
		c0.135-0.057,0.237-0.125,0.302-0.215c0.099-0.135,0.203-0.393,0.326-0.777l1.382-4.797c-0.128-0.199-0.27-0.34-0.414-0.414
		c-0.148-0.074-0.377-0.115-0.691-0.125l0.057-0.178H77.617z"/>
	<path style="fill:#DE666A;" d="M89.836,121.176l-0.404,1.35h0.684l-0.086,0.32h-0.693l-0.9,2.932
		c-0.114,0.332-0.172,0.549-0.172,0.646c0,0.057,0.012,0.096,0.035,0.127c0.022,0.027,0.051,0.041,0.086,0.041
		c0.072,0,0.17-0.053,0.288-0.168c0.07-0.064,0.229-0.27,0.473-0.609l0.162,0.121c-0.285,0.441-0.558,0.75-0.816,0.922
		c-0.174,0.121-0.351,0.182-0.53,0.182c-0.137,0-0.249-0.047-0.337-0.139c-0.089-0.094-0.135-0.211-0.135-0.35
		c0-0.182,0.058-0.457,0.17-0.824l0.874-2.881h-0.758l0.049-0.199c0.365-0.104,0.675-0.252,0.931-0.447
		c0.251-0.197,0.542-0.539,0.862-1.023H89.836z"/>
	<path style="fill:#DE666A;" d="M71.077,124.893l-0.7,2.443c-0.042,0.145-0.062,0.246-0.062,0.312c0,0.051,0.019,0.098,0.056,0.123
		c0.037,0.029,0.123,0.049,0.261,0.059l-0.023,0.078h-1.119l0.03-0.078c0.119-0.006,0.198-0.014,0.235-0.029
		c0.058-0.027,0.104-0.062,0.135-0.105c0.049-0.068,0.101-0.188,0.146-0.359l0.507-1.758c0.03-0.105,0.047-0.166,0.049-0.182
		c0.005-0.029,0.008-0.057,0.008-0.084c0-0.051-0.015-0.092-0.042-0.119c-0.028-0.029-0.063-0.045-0.112-0.045
		c-0.039,0-0.1,0.01-0.177,0.027l-0.03-0.078l0.735-0.205H71.077z"/>
	<path style="fill:#DE666A;" d="M82.759,124.893l-0.705,2.443c-0.039,0.145-0.062,0.246-0.062,0.312
		c0,0.051,0.021,0.098,0.059,0.123c0.034,0.029,0.123,0.049,0.258,0.059l-0.021,0.078h-1.119l0.027-0.078
		c0.121-0.006,0.198-0.014,0.237-0.029c0.061-0.027,0.105-0.062,0.138-0.105c0.049-0.068,0.095-0.188,0.146-0.359l0.503-1.758
		c0.032-0.105,0.046-0.166,0.053-0.182c0.005-0.029,0.005-0.057,0.005-0.084c0-0.051-0.014-0.092-0.042-0.119
		c-0.027-0.029-0.064-0.045-0.111-0.045c-0.04,0-0.098,0.01-0.18,0.027l-0.027-0.078l0.735-0.205H82.759z"/>
	<path style="fill:#DE666A;" d="M33.181,132.311c0.131,0.164,0.293,0.246,0.486,0.246c0.079,0,0.235-0.035,0.468-0.102
		s0.382-0.105,0.442-0.117c0.116-0.018,0.251-0.027,0.396-0.027c0.502,0,0.914,0.113,1.232,0.334
		c0.319,0.223,0.478,0.494,0.478,0.814c0,0.172-0.059,0.35-0.173,0.523c-0.116,0.176-0.374,0.439-0.779,0.789
		c-0.407,0.35-0.675,0.627-0.798,0.826c-0.072,0.109-0.109,0.232-0.109,0.365c0,0.205,0.104,0.379,0.308,0.516
		c0.2,0.145,0.475,0.215,0.823,0.215c0.454,0,0.81-0.105,1.072-0.312c0.259-0.209,0.4-0.561,0.431-1.061h0.242l0.421,1.615h-0.251
		c-0.105-0.148-0.261-0.221-0.466-0.221c-0.079,0-0.195,0.018-0.347,0.059c-0.426,0.105-0.803,0.162-1.128,0.162
		c-0.601,0-1.099-0.135-1.489-0.4c-0.391-0.27-0.586-0.576-0.586-0.922c0-0.213,0.083-0.441,0.253-0.678
		c0.168-0.238,0.543-0.596,1.124-1.066c0.219-0.182,0.36-0.32,0.426-0.422c0.062-0.1,0.098-0.201,0.098-0.312
		c0-0.162-0.084-0.295-0.249-0.41c-0.163-0.111-0.384-0.168-0.663-0.168c-0.344,0-0.638,0.104-0.87,0.305
		c-0.237,0.205-0.362,0.529-0.384,0.975h-0.246l-0.419-1.525H33.181z"/>
	<path style="fill:#DE666A;" d="M51.228,111.785l-1.042,4.836l-0.096,0.381c-0.012,0.033-0.017,0.064-0.017,0.09
		c0,0.041,0.012,0.078,0.028,0.105c0.017,0.023,0.037,0.035,0.062,0.035c0.023,0,0.059-0.021,0.101-0.061
		c0.076-0.072,0.179-0.24,0.31-0.496l0.142,0.104c-0.165,0.281-0.33,0.492-0.503,0.629c-0.172,0.139-0.332,0.205-0.479,0.205
		c-0.103,0-0.18-0.029-0.237-0.088c-0.052-0.062-0.082-0.148-0.082-0.264c0-0.137,0.033-0.32,0.094-0.543l0.086-0.303
		c-0.4,0.475-0.771,0.809-1.104,0.996c-0.244,0.135-0.481,0.201-0.714,0.201c-0.224,0-0.416-0.08-0.579-0.248
		c-0.16-0.168-0.242-0.398-0.242-0.689c0-0.438,0.145-0.9,0.433-1.387c0.289-0.488,0.656-0.879,1.101-1.172
		c0.347-0.23,0.675-0.344,0.982-0.344c0.186,0,0.337,0.039,0.46,0.121s0.217,0.219,0.279,0.406l0.365-2.412L51.228,111.785z
		 M49.455,113.986c-0.198,0-0.402,0.082-0.621,0.246c-0.31,0.236-0.584,0.582-0.824,1.043c-0.244,0.461-0.362,0.875-0.362,1.248
		c0,0.186,0.053,0.334,0.16,0.441c0.104,0.111,0.23,0.164,0.367,0.164c0.343,0,0.715-0.221,1.122-0.666
		c0.493-0.59,0.73-1.191,0.717-1.811c0-0.238-0.052-0.404-0.149-0.51C49.762,114.037,49.625,113.986,49.455,113.986z"/>
	<path style="fill:#DE666A;" d="M50.26,113.98c0,0,0.512-4.199-2.254-2.006l-0.217-0.477c0,0,3.055-2.197,3.055,1.432L50.26,113.98z
		"/>
	<path style="fill:#DE666A;" d="M50.532,130.783l-1.04,4.834l-0.096,0.381c-0.012,0.035-0.014,0.066-0.014,0.094
		c0,0.039,0.007,0.076,0.028,0.104c0.016,0.023,0.037,0.035,0.061,0.035c0.025,0,0.058-0.021,0.1-0.059
		c0.074-0.078,0.182-0.242,0.31-0.498l0.142,0.104c-0.163,0.281-0.33,0.492-0.502,0.627c-0.173,0.141-0.333,0.211-0.478,0.211
		c-0.103,0-0.182-0.033-0.239-0.094c-0.054-0.061-0.082-0.148-0.082-0.264c0-0.137,0.03-0.316,0.094-0.541l0.088-0.303
		c-0.4,0.475-0.77,0.805-1.107,0.996c-0.239,0.135-0.479,0.205-0.712,0.205c-0.221,0-0.414-0.084-0.577-0.252
		c-0.165-0.168-0.244-0.398-0.244-0.689c0-0.441,0.145-0.902,0.433-1.391c0.291-0.484,0.656-0.875,1.099-1.168
		c0.349-0.23,0.677-0.344,0.984-0.344c0.184,0,0.337,0.037,0.463,0.121c0.121,0.08,0.214,0.219,0.276,0.404l0.368-2.41
		L50.532,130.783z M48.762,132.984c-0.195,0-0.402,0.082-0.621,0.248c-0.308,0.232-0.584,0.58-0.824,1.039
		c-0.244,0.463-0.365,0.877-0.365,1.25c0,0.186,0.059,0.334,0.161,0.441c0.109,0.111,0.23,0.162,0.37,0.162
		c0.342,0,0.716-0.219,1.121-0.664c0.493-0.586,0.732-1.191,0.717-1.811c0-0.236-0.049-0.404-0.151-0.512
		C49.071,133.037,48.934,132.984,48.762,132.984z"/>
	<path style="fill:#DE666A;" d="M49.569,132.98c0,0,0.509-4.201-2.257-2.008l-0.219-0.477c0,0,3.055-2.195,3.055,1.434
		L49.569,132.98z"/>
	<polyline style="fill:#DE666A;" points="92.488,112.814 97.441,124.844 91.781,135.461 	"/>
	<path style="fill:#DE666A;" d="M122.829,123.861h4.311l0.658-2.299c0.128-0.447,0.191-0.797,0.191-1.041
		c0-0.119-0.028-0.221-0.086-0.305c-0.057-0.084-0.145-0.148-0.261-0.191c-0.119-0.039-0.354-0.059-0.696-0.059l0.067-0.242h3.709
		l-0.084,0.242c-0.313-0.006-0.547,0.027-0.705,0.098c-0.216,0.094-0.377,0.221-0.481,0.371c-0.148,0.219-0.303,0.596-0.458,1.141
		l-1.657,5.732c-0.132,0.426-0.204,0.73-0.204,0.914c0,0.16,0.061,0.277,0.182,0.361c0.121,0.078,0.409,0.135,0.863,0.166
		l-0.075,0.24h-3.557l0.095-0.24c0.356-0.014,0.591-0.045,0.71-0.1c0.182-0.082,0.314-0.184,0.397-0.314
		c0.116-0.182,0.261-0.566,0.436-1.168l0.823-2.848h-4.313l-0.86,2.988c-0.135,0.416-0.2,0.721-0.2,0.914
		c0,0.16,0.061,0.277,0.177,0.361c0.119,0.078,0.407,0.135,0.863,0.166l-0.059,0.24h-3.582l0.088-0.24
		c0.36-0.014,0.598-0.045,0.714-0.1c0.185-0.082,0.316-0.184,0.405-0.314c0.116-0.188,0.266-0.576,0.438-1.168l1.612-5.605
		c0.133-0.457,0.2-0.805,0.2-1.043c0-0.119-0.03-0.219-0.086-0.303c-0.059-0.086-0.145-0.148-0.268-0.191
		c-0.121-0.039-0.354-0.059-0.705-0.059l0.081-0.242h3.648l-0.075,0.242c-0.305-0.006-0.532,0.027-0.677,0.098
		c-0.212,0.09-0.37,0.213-0.472,0.365c-0.138,0.201-0.284,0.584-0.447,1.141L122.829,123.861z"/>
	<path style="fill:#DE666A;" d="M132.567,126.795l-0.121,0.062c-0.312-0.596-0.537-1.121-0.672-1.576
		c-0.105-0.357-0.158-0.717-0.158-1.076c0-0.846,0.195-1.602,0.586-2.27c0.481-0.816,1.259-1.611,2.334-2.389l0.088,0.135
		c-0.486,0.363-0.882,0.764-1.188,1.211c-0.384,0.553-0.7,1.223-0.942,2.01c-0.244,0.785-0.368,1.502-0.368,2.146
		C132.125,125.541,132.272,126.121,132.567,126.795z"/>
	<path style="fill:#DE666A;" d="M136.544,119.689c0.335,0,0.616,0.141,0.842,0.424c0.23,0.281,0.344,0.723,0.344,1.328
		c0,0.521-0.081,1.051-0.253,1.588c-0.17,0.543-0.409,1.012-0.717,1.406c-0.247,0.314-0.503,0.539-0.772,0.676
		c-0.156,0.08-0.337,0.121-0.544,0.121c-0.34,0-0.624-0.145-0.852-0.422c-0.229-0.279-0.347-0.727-0.347-1.334
		c0-0.6,0.118-1.203,0.349-1.812c0.268-0.707,0.614-1.242,1.03-1.611C135.896,119.811,136.204,119.689,136.544,119.689z
		 M136.553,119.9c-0.153,0-0.307,0.059-0.463,0.178c-0.153,0.121-0.318,0.371-0.481,0.748c-0.168,0.375-0.326,0.861-0.479,1.457
		c-0.195,0.777-0.296,1.441-0.296,1.992c0,0.27,0.059,0.475,0.178,0.609c0.116,0.135,0.26,0.203,0.43,0.203
		c0.158,0,0.296-0.053,0.407-0.158c0.303-0.283,0.559-0.768,0.774-1.451c0.35-1.119,0.523-2.029,0.523-2.73
		c0-0.289-0.058-0.504-0.176-0.641C136.851,119.971,136.713,119.9,136.553,119.9z"/>
	<path style="fill:#DE666A;" d="M138.954,119.621l0.123-0.074c0.312,0.592,0.535,1.115,0.668,1.572
		c0.106,0.354,0.162,0.713,0.162,1.076c0,0.846-0.197,1.602-0.586,2.27c-0.484,0.82-1.261,1.615-2.334,2.393l-0.088-0.123
		c0.486-0.361,0.879-0.762,1.191-1.205c0.384-0.557,0.697-1.227,0.939-2.014c0.244-0.791,0.368-1.504,0.368-2.148
		C139.398,120.873,139.249,120.291,138.954,119.621z"/>
	<line style="fill:#DE666A;" x1="189.223" y1="41.088" x2="200.548" y2="41.088"/>
	<line style="fill:#DE666A;" x1="189.223" y1="44.27" x2="200.548" y2="44.27"/>
	<path style="fill:#DE666A;" d="M151.24,39.941l-0.656,2.281c0.67-0.934,1.18-1.545,1.533-1.842c0.358-0.293,0.7-0.439,1.03-0.439
		c0.178,0,0.326,0.062,0.44,0.184c0.118,0.121,0.177,0.281,0.177,0.475c0,0.199-0.057,0.465-0.165,0.791l-0.685,2.074
		c-0.076,0.242-0.116,0.387-0.116,0.439c0,0.045,0.012,0.082,0.035,0.113c0.023,0.029,0.051,0.045,0.074,0.045
		c0.035,0,0.081-0.02,0.13-0.061c0.156-0.137,0.328-0.348,0.515-0.635l0.153,0.094c-0.295,0.436-0.574,0.748-0.838,0.928
		c-0.184,0.123-0.349,0.186-0.492,0.186c-0.121,0-0.215-0.033-0.284-0.111c-0.07-0.076-0.103-0.174-0.103-0.303
		c0-0.158,0.065-0.432,0.19-0.82l0.663-1.996c0.089-0.246,0.128-0.441,0.128-0.582c0-0.064-0.022-0.121-0.069-0.162
		s-0.107-0.061-0.175-0.061c-0.103,0-0.224,0.039-0.365,0.121c-0.27,0.146-0.549,0.393-0.84,0.734
		c-0.286,0.342-0.596,0.779-0.919,1.312c-0.168,0.279-0.312,0.586-0.424,0.922l-0.236,0.824h-0.735l0.902-3.129
		c0.104-0.371,0.158-0.598,0.158-0.674c0-0.072-0.028-0.135-0.089-0.189c-0.056-0.055-0.127-0.08-0.214-0.08
		c-0.039,0-0.109,0.004-0.207,0.018l-0.186,0.029l-0.049-0.178L151.24,39.941z"/>
	<path style="fill:#DE666A;" d="M162.557,37.709l2.05,5.221l1.125-3.896c0.094-0.324,0.141-0.574,0.141-0.752
		c0-0.121-0.045-0.219-0.131-0.287c-0.088-0.07-0.249-0.104-0.484-0.104c-0.039,0-0.081-0.004-0.125-0.004l0.056-0.178h2.171
		l-0.061,0.178c-0.224-0.006-0.394,0.018-0.503,0.07c-0.153,0.066-0.272,0.158-0.349,0.266c-0.107,0.156-0.212,0.43-0.321,0.818
		l-1.607,5.568h-0.133l-2.233-5.697l-1.217,4.209c-0.088,0.318-0.133,0.562-0.133,0.734c0,0.127,0.04,0.225,0.121,0.289
		c0.082,0.064,0.274,0.111,0.582,0.133l-0.049,0.176h-2.152l0.07-0.176c0.263-0.008,0.441-0.031,0.53-0.062
		c0.137-0.057,0.237-0.127,0.305-0.217c0.098-0.133,0.204-0.391,0.325-0.775l1.383-4.791c-0.129-0.205-0.266-0.346-0.417-0.42
		c-0.146-0.074-0.379-0.115-0.688-0.125l0.054-0.178H162.557z"/>
	<path style="fill:#DE666A;" d="M174.772,38.715l-0.399,1.35h0.684l-0.089,0.32h-0.693l-0.899,2.932
		c-0.114,0.336-0.175,0.549-0.175,0.646c0,0.057,0.014,0.098,0.037,0.125c0.025,0.029,0.051,0.043,0.086,0.043
		c0.072,0,0.168-0.057,0.289-0.168c0.069-0.066,0.228-0.27,0.472-0.609l0.165,0.123c-0.288,0.439-0.561,0.744-0.818,0.92
		c-0.172,0.121-0.352,0.178-0.528,0.178c-0.14,0-0.251-0.043-0.34-0.137c-0.088-0.094-0.133-0.207-0.133-0.354
		c0-0.176,0.056-0.451,0.17-0.818l0.873-2.881h-0.759l0.049-0.197c0.365-0.105,0.675-0.254,0.929-0.449
		c0.256-0.195,0.544-0.539,0.865-1.023H174.772z"/>
	<path style="fill:#DE666A;" d="M156.019,42.432l-0.705,2.439c-0.039,0.148-0.061,0.25-0.061,0.316c0,0.051,0.021,0.096,0.054,0.121
		c0.04,0.031,0.124,0.051,0.263,0.061l-0.022,0.074h-1.119l0.03-0.074c0.118-0.004,0.197-0.016,0.232-0.029
		c0.062-0.027,0.109-0.061,0.14-0.105c0.049-0.066,0.098-0.188,0.146-0.363l0.505-1.754c0.027-0.105,0.047-0.164,0.049-0.182
		c0.005-0.031,0.01-0.057,0.01-0.084c0-0.051-0.017-0.092-0.042-0.121c-0.03-0.027-0.067-0.043-0.114-0.043
		c-0.04,0-0.101,0.01-0.18,0.029l-0.025-0.08l0.735-0.205H156.019z"/>
	<path style="fill:#DE666A;" d="M167.698,42.432l-0.705,2.439c-0.042,0.148-0.061,0.25-0.061,0.316c0,0.051,0.019,0.096,0.056,0.121
		c0.037,0.031,0.123,0.051,0.261,0.061l-0.023,0.074h-1.119l0.028-0.074c0.121-0.004,0.2-0.016,0.237-0.029
		c0.061-0.027,0.104-0.061,0.137-0.105c0.047-0.066,0.096-0.188,0.145-0.363l0.505-1.754c0.032-0.105,0.049-0.164,0.051-0.182
		c0.005-0.031,0.007-0.057,0.007-0.084c0-0.051-0.014-0.092-0.039-0.121c-0.028-0.027-0.067-0.043-0.116-0.043
		c-0.04,0-0.096,0.01-0.177,0.029l-0.028-0.08l0.735-0.205H167.698z"/>
	<line style="fill:#DE666A;" x1="133.305" y1="71.992" x2="133.305" y2="93.699"/>
	<path style="fill:#DE666A;" d="M140.271,80.641l-0.658,2.283c0.67-0.936,1.182-1.545,1.535-1.842
		c0.358-0.295,0.7-0.441,1.026-0.441c0.179,0,0.328,0.061,0.444,0.184s0.172,0.281,0.172,0.48c0,0.195-0.054,0.455-0.16,0.785
		l-0.685,2.076c-0.079,0.242-0.118,0.385-0.118,0.438c0,0.045,0.009,0.082,0.037,0.115c0.023,0.027,0.049,0.045,0.074,0.045
		c0.037,0,0.077-0.021,0.131-0.062c0.153-0.139,0.325-0.35,0.512-0.633l0.155,0.092c-0.295,0.438-0.574,0.744-0.837,0.93
		c-0.187,0.123-0.35,0.186-0.498,0.186c-0.116,0-0.209-0.037-0.279-0.111c-0.07-0.078-0.107-0.178-0.107-0.305
		c0-0.158,0.068-0.434,0.198-0.82l0.661-1.996c0.086-0.248,0.125-0.441,0.125-0.58c0-0.068-0.023-0.119-0.072-0.162
		c-0.046-0.041-0.102-0.062-0.172-0.062c-0.103,0-0.224,0.043-0.363,0.121c-0.27,0.148-0.549,0.393-0.84,0.736
		c-0.291,0.338-0.596,0.775-0.919,1.309c-0.17,0.281-0.312,0.59-0.426,0.924l-0.234,0.826h-0.74l0.905-3.131
		c0.106-0.371,0.158-0.6,0.158-0.674c0-0.068-0.028-0.135-0.089-0.189c-0.056-0.055-0.125-0.08-0.212-0.08
		c-0.041,0-0.109,0.006-0.209,0.016l-0.188,0.031l-0.049-0.178L140.271,80.641z"/>
	<path style="fill:#DE666A;" d="M151.587,78.406l2.047,5.225l1.126-3.895c0.091-0.326,0.138-0.578,0.138-0.756
		c0-0.121-0.042-0.217-0.128-0.287s-0.247-0.102-0.481-0.102c-0.042,0-0.082-0.006-0.128-0.006l0.058-0.18h2.169l-0.061,0.18
		c-0.226-0.004-0.392,0.02-0.501,0.068c-0.158,0.068-0.271,0.16-0.349,0.268c-0.106,0.158-0.216,0.43-0.323,0.818l-1.605,5.568
		h-0.135l-2.233-5.695l-1.215,4.207c-0.091,0.32-0.135,0.564-0.135,0.736c0,0.125,0.042,0.223,0.126,0.287
		c0.076,0.066,0.27,0.107,0.577,0.133l-0.049,0.178h-2.155l0.07-0.178c0.268-0.006,0.446-0.025,0.535-0.064
		c0.137-0.053,0.237-0.125,0.305-0.211c0.093-0.135,0.202-0.396,0.321-0.777l1.384-4.797c-0.128-0.201-0.268-0.34-0.414-0.414
		c-0.148-0.076-0.379-0.117-0.693-0.127l0.057-0.18H151.587z"/>
	<path style="fill:#DE666A;" d="M145.047,83.133l-0.705,2.439c-0.037,0.146-0.058,0.25-0.058,0.314c0,0.055,0.019,0.096,0.053,0.123
		c0.037,0.031,0.126,0.049,0.259,0.059l-0.019,0.08h-1.124l0.032-0.08c0.119-0.004,0.196-0.014,0.235-0.027
		c0.061-0.029,0.107-0.061,0.138-0.107c0.046-0.064,0.095-0.186,0.146-0.361l0.505-1.756c0.03-0.107,0.046-0.168,0.051-0.182
		c0.003-0.027,0.005-0.057,0.005-0.084c0-0.051-0.012-0.092-0.04-0.121c-0.03-0.027-0.064-0.041-0.116-0.041
		c-0.037,0-0.095,0.01-0.174,0.023l-0.03-0.074l0.737-0.205H145.047z"/>
	<path style="fill:#DE666A;" d="M156.01,83.193h0.986l-0.098,0.357h-0.896l-0.158,0.363c0.236,0.037,0.418,0.111,0.551,0.221
		c0.202,0.168,0.303,0.404,0.303,0.709c0,0.203-0.035,0.387-0.114,0.551c-0.072,0.162-0.163,0.297-0.272,0.408
		c-0.104,0.111-0.221,0.197-0.347,0.262c-0.167,0.088-0.337,0.129-0.507,0.129c-0.146,0-0.263-0.027-0.347-0.092
		c-0.058-0.047-0.086-0.104-0.086-0.168c0-0.051,0.017-0.098,0.054-0.135c0.037-0.035,0.084-0.055,0.14-0.055
		c0.079,0,0.163,0.039,0.258,0.115c0.056,0.049,0.104,0.078,0.142,0.096c0.03,0.012,0.068,0.02,0.109,0.02
		c0.163,0,0.314-0.082,0.452-0.244c0.137-0.164,0.207-0.373,0.207-0.635c0-0.182-0.04-0.338-0.112-0.465
		c-0.072-0.125-0.167-0.217-0.276-0.268c-0.114-0.051-0.266-0.088-0.454-0.109L156.01,83.193z"/>
	<polyline style="fill:#DE666A;" points="177.428,30.352 182.381,42.383 176.72,53.002 	"/>
	<line style="fill:#DE666A;" x1="227.445" y1="31.295" x2="227.445" y2="53.002"/>
	<path style="fill:#DE666A;" d="M234.411,39.941l-0.656,2.281c0.668-0.934,1.177-1.545,1.533-1.842
		c0.358-0.293,0.697-0.439,1.03-0.439c0.177,0,0.323,0.062,0.44,0.184c0.113,0.121,0.174,0.281,0.174,0.475
		c0,0.199-0.058,0.465-0.163,0.791l-0.684,2.074c-0.079,0.242-0.116,0.387-0.116,0.439c0,0.045,0.009,0.082,0.032,0.113
		c0.025,0.029,0.049,0.045,0.079,0.045c0.033,0,0.077-0.02,0.126-0.061c0.155-0.137,0.33-0.348,0.514-0.635l0.154,0.094
		c-0.294,0.436-0.575,0.748-0.836,0.928c-0.184,0.123-0.351,0.186-0.495,0.186c-0.116,0-0.209-0.033-0.279-0.111
		c-0.07-0.076-0.107-0.174-0.107-0.303c0-0.158,0.065-0.432,0.195-0.82l0.664-1.996c0.081-0.246,0.123-0.441,0.123-0.582
		c0-0.064-0.023-0.121-0.067-0.162c-0.049-0.041-0.109-0.061-0.175-0.061c-0.103,0-0.226,0.039-0.367,0.121
		c-0.266,0.146-0.545,0.393-0.836,0.734c-0.293,0.342-0.596,0.779-0.921,1.312c-0.17,0.279-0.312,0.586-0.424,0.922l-0.239,0.824
		h-0.735l0.903-3.129c0.104-0.371,0.16-0.598,0.16-0.674c0-0.072-0.03-0.135-0.089-0.189c-0.058-0.055-0.13-0.08-0.216-0.08
		c-0.037,0-0.104,0.004-0.207,0.018l-0.187,0.029l-0.049-0.178L234.411,39.941z"/>
	<path style="fill:#DE666A;" d="M245.728,37.709l2.049,5.221l1.124-3.896c0.093-0.324,0.14-0.574,0.14-0.752
		c0-0.121-0.044-0.219-0.131-0.287c-0.086-0.07-0.248-0.104-0.481-0.104c-0.042,0-0.081-0.004-0.125-0.004l0.056-0.178h2.168
		l-0.058,0.178c-0.226-0.006-0.392,0.018-0.503,0.07c-0.156,0.066-0.272,0.158-0.349,0.266c-0.104,0.156-0.217,0.43-0.326,0.818
		l-1.603,5.568h-0.133l-2.236-5.697l-1.212,4.209c-0.091,0.318-0.135,0.562-0.135,0.734c0,0.127,0.04,0.225,0.121,0.289
		s0.274,0.111,0.579,0.133l-0.051,0.176h-2.15l0.07-0.176c0.266-0.008,0.442-0.031,0.535-0.062c0.133-0.057,0.237-0.127,0.303-0.217
		c0.095-0.133,0.204-0.391,0.323-0.775l1.384-4.791c-0.13-0.205-0.27-0.346-0.418-0.42c-0.147-0.074-0.375-0.115-0.687-0.125
		l0.054-0.178H245.728z"/>
	<path style="fill:#DE666A;" d="M257.946,38.715l-0.407,1.35h0.687l-0.089,0.32h-0.691l-0.904,2.932
		c-0.114,0.336-0.168,0.549-0.168,0.646c0,0.057,0.01,0.098,0.032,0.125c0.023,0.029,0.054,0.043,0.084,0.043
		c0.074,0,0.17-0.057,0.293-0.168c0.072-0.066,0.229-0.27,0.471-0.609l0.165,0.123c-0.289,0.439-0.561,0.744-0.816,0.92
		c-0.177,0.121-0.354,0.178-0.533,0.178c-0.138,0-0.251-0.043-0.335-0.137c-0.088-0.094-0.133-0.207-0.133-0.354
		c0-0.176,0.056-0.451,0.165-0.818l0.878-2.881h-0.762l0.049-0.197c0.365-0.105,0.675-0.254,0.931-0.449
		c0.254-0.195,0.542-0.539,0.863-1.023H257.946z"/>
	<path style="fill:#DE666A;" d="M239.188,42.432l-0.703,2.439c-0.044,0.148-0.062,0.25-0.062,0.316c0,0.051,0.019,0.096,0.056,0.121
		c0.037,0.031,0.123,0.051,0.261,0.061l-0.021,0.074h-1.123l0.03-0.074c0.123-0.004,0.197-0.016,0.237-0.029
		c0.061-0.027,0.104-0.061,0.14-0.105c0.046-0.066,0.095-0.188,0.142-0.363l0.505-1.754c0.032-0.105,0.049-0.164,0.051-0.182
		c0.005-0.031,0.008-0.057,0.008-0.084c0-0.051-0.015-0.092-0.04-0.121c-0.028-0.027-0.065-0.043-0.114-0.043
		c-0.039,0-0.095,0.01-0.179,0.029l-0.028-0.08l0.735-0.205H239.188z"/>
	<path style="fill:#DE666A;" d="M250.866,42.432l-0.705,2.439c-0.037,0.148-0.061,0.25-0.061,0.316c0,0.051,0.021,0.096,0.057,0.121
		c0.037,0.031,0.125,0.051,0.263,0.061l-0.023,0.074h-1.124l0.033-0.074c0.118-0.004,0.197-0.016,0.234-0.029
		c0.062-0.027,0.107-0.061,0.138-0.105c0.049-0.066,0.095-0.188,0.144-0.363l0.508-1.754c0.03-0.105,0.049-0.164,0.051-0.182
		c0.005-0.031,0.005-0.057,0.005-0.084c0-0.051-0.012-0.092-0.042-0.121c-0.025-0.027-0.065-0.043-0.114-0.043
		c-0.034,0-0.095,0.01-0.174,0.029l-0.03-0.08l0.739-0.205H250.866z"/>
	<polyline style="fill:#DE666A;" points="260.596,30.352 265.549,42.383 259.889,53.002 	"/>
	<line style="fill:#DE666A;" x1="170.82" y1="112.693" x2="170.82" y2="134.402"/>
	<path style="fill:#DE666A;" d="M177.783,121.34l-0.653,2.281c0.668-0.934,1.177-1.545,1.533-1.838
		c0.354-0.295,0.7-0.443,1.028-0.443c0.179,0,0.325,0.061,0.439,0.186c0.121,0.121,0.177,0.281,0.177,0.477
		c0,0.197-0.054,0.457-0.163,0.789l-0.684,2.074c-0.081,0.24-0.119,0.387-0.119,0.439c0,0.045,0.012,0.082,0.035,0.115
		c0.023,0.027,0.049,0.041,0.077,0.041c0.032,0,0.079-0.018,0.125-0.061c0.158-0.135,0.333-0.35,0.52-0.633l0.153,0.094
		c-0.296,0.438-0.577,0.744-0.838,0.926c-0.184,0.125-0.349,0.186-0.498,0.186c-0.116,0-0.209-0.037-0.278-0.111
		c-0.07-0.074-0.107-0.178-0.107-0.303c0-0.158,0.067-0.43,0.197-0.818l0.663-1.996c0.082-0.246,0.124-0.443,0.124-0.582
		c0-0.064-0.023-0.121-0.07-0.16s-0.104-0.062-0.177-0.062c-0.1,0-0.221,0.039-0.365,0.117c-0.265,0.152-0.547,0.395-0.833,0.738
		c-0.293,0.34-0.598,0.779-0.924,1.312c-0.17,0.279-0.309,0.586-0.421,0.922l-0.242,0.824h-0.732l0.9-3.129
		c0.106-0.371,0.163-0.598,0.163-0.674c0-0.072-0.033-0.135-0.089-0.191c-0.058-0.053-0.13-0.084-0.216-0.084
		c-0.037,0-0.107,0.01-0.21,0.021l-0.186,0.033l-0.047-0.18L177.783,121.34z"/>
	<path style="fill:#DE666A;" d="M189.102,119.107l2.05,5.223l1.121-3.896c0.096-0.324,0.143-0.574,0.143-0.752
		c0-0.125-0.045-0.219-0.133-0.289c-0.084-0.068-0.244-0.102-0.481-0.102c-0.037,0-0.079-0.004-0.123-0.008l0.053-0.176h2.171
		l-0.059,0.176c-0.225-0.002-0.395,0.021-0.502,0.068c-0.158,0.072-0.272,0.162-0.352,0.27c-0.104,0.158-0.212,0.432-0.32,0.82
		l-1.608,5.566h-0.132l-2.234-5.695l-1.214,4.207c-0.089,0.32-0.135,0.564-0.135,0.736c0,0.127,0.042,0.225,0.12,0.289
		c0.084,0.064,0.275,0.107,0.584,0.131l-0.053,0.178h-2.15l0.07-0.178c0.266-0.006,0.444-0.023,0.53-0.061
		c0.138-0.057,0.239-0.131,0.305-0.215c0.098-0.135,0.205-0.395,0.323-0.777l1.387-4.797c-0.133-0.199-0.268-0.34-0.419-0.414
		c-0.146-0.074-0.377-0.117-0.688-0.129l0.056-0.176H189.102z"/>
	<path style="fill:#DE666A;" d="M201.318,120.113l-0.405,1.352h0.687l-0.091,0.32h-0.69l-0.903,2.932
		c-0.113,0.332-0.169,0.549-0.169,0.646c0,0.057,0.011,0.096,0.034,0.125s0.054,0.043,0.084,0.043c0.074,0,0.17-0.057,0.293-0.168
		c0.07-0.064,0.229-0.27,0.471-0.611l0.165,0.125c-0.289,0.436-0.562,0.742-0.817,0.92c-0.177,0.115-0.354,0.176-0.53,0.176
		c-0.14,0-0.251-0.041-0.339-0.135c-0.089-0.094-0.131-0.209-0.131-0.354c0-0.178,0.054-0.451,0.165-0.822l0.877-2.877h-0.761
		l0.049-0.199c0.368-0.104,0.675-0.252,0.929-0.447c0.253-0.195,0.544-0.537,0.865-1.025H201.318z"/>
	<path style="fill:#DE666A;" d="M182.562,123.832l-0.704,2.441c-0.042,0.145-0.061,0.246-0.061,0.314
		c0,0.053,0.019,0.092,0.056,0.121c0.037,0.027,0.123,0.049,0.261,0.061l-0.023,0.078h-1.119l0.03-0.078
		c0.119-0.004,0.195-0.016,0.235-0.031c0.058-0.025,0.104-0.062,0.137-0.105c0.049-0.066,0.096-0.186,0.145-0.359l0.507-1.758
		c0.03-0.102,0.047-0.166,0.047-0.18c0.009-0.029,0.009-0.057,0.009-0.084c0-0.053-0.014-0.094-0.042-0.121
		c-0.027-0.029-0.064-0.043-0.111-0.043c-0.039,0-0.098,0.01-0.179,0.023l-0.028-0.074l0.735-0.205H182.562z"/>
	<path style="fill:#DE666A;" d="M194.241,123.832l-0.705,2.441c-0.039,0.145-0.061,0.246-0.061,0.314
		c0,0.053,0.021,0.092,0.056,0.121c0.037,0.027,0.121,0.049,0.261,0.061l-0.021,0.078h-1.119l0.027-0.078
		c0.119-0.004,0.196-0.016,0.233-0.031c0.062-0.025,0.109-0.062,0.139-0.105c0.047-0.066,0.096-0.186,0.145-0.359l0.508-1.758
		c0.03-0.102,0.046-0.166,0.049-0.18c0.004-0.029,0.007-0.057,0.007-0.084c0-0.053-0.012-0.094-0.042-0.121
		c-0.028-0.029-0.065-0.043-0.114-0.043c-0.037,0-0.095,0.01-0.175,0.023l-0.029-0.074l0.737-0.205H194.241z"/>
	<polyline style="fill:#DE666A;" points="203.971,111.748 208.924,123.783 203.261,134.402 	"/>
	<path style="fill:#DE666A;" d="M208.847,37.727l-1.056,3.715h0.858c0.626,0,1.079-0.094,1.358-0.289
		c0.279-0.189,0.521-0.545,0.724-1.061h0.242l-0.947,3.363h-0.246c0.079-0.283,0.123-0.525,0.123-0.725
		c0-0.197-0.039-0.354-0.123-0.475c-0.082-0.119-0.193-0.205-0.335-0.264c-0.143-0.059-0.444-0.086-0.903-0.086h-0.889l-0.928,3.211
		c-0.086,0.258-0.131,0.455-0.131,0.592c0,0.102,0.059,0.195,0.172,0.273c0.08,0.057,0.277,0.084,0.592,0.084h0.828
		c0.889,0,1.601-0.158,2.138-0.471c0.533-0.311,1.013-0.855,1.438-1.633h0.253l-0.886,2.566h-7.115l0.089-0.244
		c0.354-0.01,0.593-0.043,0.714-0.094c0.182-0.084,0.316-0.189,0.398-0.318c0.123-0.188,0.268-0.58,0.437-1.18l1.61-5.6
		c0.128-0.453,0.193-0.795,0.193-1.035c0-0.172-0.063-0.307-0.182-0.404c-0.119-0.098-0.356-0.15-0.705-0.15h-0.145l0.082-0.24
		h6.635l-0.577,2.186h-0.239c0.03-0.207,0.047-0.381,0.047-0.521c0-0.24-0.061-0.441-0.18-0.604
		c-0.155-0.209-0.381-0.367-0.677-0.475c-0.221-0.084-0.726-0.123-1.513-0.123H208.847z"/>
	<path style="fill:#DE666A;" d="M217.507,44.334l-0.124,0.062c-0.31-0.596-0.535-1.121-0.67-1.578
		c-0.106-0.354-0.158-0.715-0.158-1.074c0-0.848,0.198-1.602,0.587-2.271c0.479-0.814,1.258-1.611,2.333-2.387l0.089,0.137
		c-0.484,0.359-0.885,0.762-1.191,1.209c-0.384,0.553-0.698,1.223-0.945,2.01c-0.239,0.785-0.365,1.502-0.365,2.146
		C217.062,43.078,217.211,43.66,217.507,44.334z"/>
	<path style="fill:#DE666A;" d="M221.482,37.23c0.335,0,0.616,0.139,0.845,0.418c0.228,0.281,0.342,0.727,0.342,1.332
		c0,0.52-0.084,1.047-0.254,1.59c-0.167,0.541-0.409,1.008-0.717,1.406c-0.246,0.309-0.502,0.535-0.771,0.674
		c-0.158,0.08-0.338,0.117-0.545,0.117c-0.34,0-0.623-0.141-0.852-0.42c-0.228-0.277-0.347-0.725-0.347-1.334
		c0-0.602,0.121-1.205,0.349-1.811c0.266-0.707,0.61-1.246,1.029-1.613C220.836,37.35,221.143,37.23,221.482,37.23z M221.491,37.439
		c-0.153,0-0.307,0.059-0.463,0.18c-0.158,0.119-0.318,0.365-0.483,0.744s-0.326,0.863-0.478,1.459
		c-0.195,0.777-0.295,1.441-0.295,1.99c0,0.271,0.061,0.475,0.179,0.611c0.116,0.135,0.256,0.203,0.429,0.203
		c0.158,0,0.293-0.055,0.407-0.158c0.302-0.283,0.558-0.768,0.774-1.451c0.349-1.119,0.521-2.029,0.521-2.73
		c0-0.289-0.059-0.504-0.175-0.643C221.792,37.51,221.652,37.439,221.491,37.439z"/>
	<path style="fill:#DE666A;" d="M223.896,37.16l0.12-0.074c0.312,0.592,0.535,1.117,0.671,1.572c0.104,0.354,0.16,0.717,0.16,1.076
		c0,0.846-0.195,1.602-0.589,2.266c-0.481,0.82-1.259,1.619-2.331,2.396l-0.088-0.121c0.483-0.363,0.881-0.764,1.188-1.211
		c0.384-0.553,0.7-1.223,0.942-2.012c0.244-0.789,0.369-1.504,0.369-2.146C224.339,38.412,224.19,37.83,223.896,37.16z"/>
	<path style="fill:#DE666A;" d="M106.92,72.764l-1.057,3.715h0.861c0.626,0,1.075-0.096,1.356-0.287
		c0.279-0.191,0.519-0.545,0.721-1.062h0.244l-0.951,3.365h-0.239c0.079-0.285,0.121-0.527,0.121-0.727
		c0-0.197-0.042-0.355-0.121-0.475c-0.082-0.119-0.193-0.205-0.338-0.266c-0.142-0.055-0.441-0.084-0.905-0.084h-0.886l-0.926,3.211
		c-0.087,0.258-0.131,0.457-0.131,0.592c0,0.102,0.059,0.191,0.173,0.273c0.076,0.057,0.274,0.084,0.586,0.084h0.83
		c0.892,0,1.602-0.156,2.136-0.471c0.538-0.316,1.015-0.857,1.44-1.633h0.254l-0.887,2.566h-7.114l0.088-0.244
		c0.354-0.01,0.594-0.037,0.715-0.094c0.184-0.082,0.316-0.189,0.396-0.316c0.125-0.189,0.27-0.58,0.439-1.182l1.612-5.602
		c0.128-0.451,0.193-0.795,0.193-1.033c0-0.172-0.063-0.309-0.182-0.404c-0.123-0.104-0.358-0.148-0.707-0.148h-0.146l0.083-0.246
		h6.636l-0.575,2.189h-0.244c0.033-0.207,0.049-0.381,0.049-0.52c0-0.242-0.061-0.443-0.177-0.605
		c-0.155-0.209-0.382-0.367-0.679-0.475c-0.222-0.082-0.727-0.123-1.515-0.123H106.92z"/>
	<path style="fill:#DE666A;" d="M115.579,79.367l-0.121,0.066c-0.312-0.596-0.535-1.121-0.672-1.578
		c-0.105-0.354-0.158-0.717-0.158-1.074c0-0.846,0.197-1.602,0.588-2.271c0.479-0.814,1.259-1.611,2.332-2.387l0.09,0.135
		c-0.485,0.359-0.884,0.762-1.19,1.211c-0.384,0.553-0.698,1.223-0.942,2.01c-0.244,0.785-0.367,1.502-0.367,2.145
		C115.138,78.117,115.286,78.697,115.579,79.367z"/>
	<path style="fill:#DE666A;" d="M119.556,72.268c0.335,0,0.616,0.139,0.844,0.418c0.23,0.283,0.345,0.727,0.345,1.332
		c0,0.516-0.086,1.049-0.256,1.592c-0.168,0.539-0.407,1.008-0.714,1.404c-0.247,0.309-0.503,0.535-0.773,0.674
		c-0.158,0.08-0.339,0.121-0.546,0.121c-0.34,0-0.624-0.143-0.852-0.422c-0.229-0.283-0.345-0.727-0.345-1.336
		c0-0.6,0.116-1.203,0.345-1.811c0.27-0.707,0.611-1.244,1.032-1.615C118.911,72.387,119.218,72.268,119.556,72.268z
		 M119.562,72.477c-0.149,0-0.305,0.059-0.461,0.18c-0.156,0.119-0.318,0.367-0.483,0.742c-0.166,0.381-0.326,0.863-0.478,1.461
		c-0.197,0.779-0.296,1.441-0.296,1.988c0,0.273,0.061,0.479,0.178,0.613c0.118,0.135,0.263,0.205,0.43,0.205
		c0.161,0,0.298-0.057,0.41-0.158c0.3-0.285,0.558-0.77,0.774-1.453c0.347-1.119,0.519-2.027,0.519-2.729
		c0-0.291-0.056-0.508-0.174-0.645C119.864,72.545,119.723,72.477,119.562,72.477z"/>
	<path style="fill:#DE666A;" d="M121.968,72.193l0.121-0.07c0.314,0.592,0.537,1.117,0.67,1.572c0.107,0.354,0.16,0.713,0.16,1.076
		c0,0.846-0.195,1.602-0.586,2.266c-0.481,0.82-1.264,1.619-2.333,2.396l-0.089-0.121c0.486-0.363,0.882-0.768,1.191-1.207
		c0.381-0.557,0.695-1.227,0.939-2.016s0.368-1.506,0.368-2.146C122.41,73.449,122.264,72.867,121.968,72.193z"/>
	<path style="fill:#DE666A;" d="M189.053,87.385l-0.265,0.135c-0.673-1.289-1.159-2.424-1.452-3.414
		c-0.228-0.773-0.337-1.551-0.337-2.332c0-1.828,0.421-3.467,1.268-4.914c1.04-1.77,2.727-3.494,5.056-5.176l0.2,0.301
		c-1.057,0.777-1.915,1.646-2.583,2.611c-0.833,1.203-1.512,2.654-2.042,4.357c-0.528,1.703-0.794,3.254-0.794,4.648
		C188.104,84.672,188.42,85.932,189.053,87.385z"/>
	<path style="fill:#DE666A;" d="M196.358,73.984l-0.693,2.299h1.168l-0.156,0.553h-1.18l-1.559,5.02
		c-0.195,0.572-0.291,0.947-0.291,1.111c0,0.092,0.021,0.16,0.061,0.213c0.042,0.045,0.089,0.068,0.143,0.068
		c0.128,0,0.293-0.092,0.498-0.281c0.12-0.113,0.391-0.461,0.807-1.049l0.281,0.215c-0.493,0.75-0.961,1.271-1.4,1.566
		c-0.3,0.201-0.603,0.303-0.909,0.303c-0.235,0-0.429-0.076-0.579-0.23c-0.146-0.158-0.227-0.355-0.227-0.598
		c0-0.307,0.096-0.777,0.289-1.404l1.505-4.934h-1.3l0.083-0.342c0.626-0.174,1.156-0.43,1.594-0.766
		c0.442-0.334,0.936-0.916,1.491-1.744H196.358z"/>
	<path style="fill:#DE666A;" d="M199.008,71.846l0.266-0.162c0.677,1.285,1.156,2.418,1.442,3.406
		c0.235,0.771,0.352,1.551,0.352,2.334c0,1.832-0.426,3.473-1.271,4.912c-1.047,1.775-2.731,3.504-5.056,5.184l-0.2-0.26
		c1.057-0.787,1.913-1.656,2.583-2.615c0.83-1.205,1.51-2.662,2.04-4.365c0.528-1.707,0.796-3.256,0.796-4.654
		C199.96,74.559,199.641,73.301,199.008,71.846z"/>
	<path style="fill:#DE666A;" d="M152.52,132.375c0,1.619,1.028,1.885,2.647,1.885v0.531h-8.352v-0.531
		c1.619,0,2.647-0.266,2.647-1.885v-14.973c0-1.619-1.028-1.885-2.647-1.885v-0.527h8.352v0.527c-1.619,0-2.647,0.266-2.647,1.885
		V132.375z"/>
	<path style="fill:#DE666A;" d="M162.319,132.375c0,1.619,1.028,1.885,2.645,1.885v0.531h-8.352v-0.531
		c1.614,0,2.647-0.266,2.647-1.885v-14.973c0-1.619-1.033-1.885-2.647-1.885v-0.527h8.352v0.527c-1.616,0-2.645,0.266-2.645,1.885
		V132.375z"/>
	<path style="fill:#DE666A;" d="M167.407,91.727v-3.107c-0.898-0.164-2.018-0.518-2.815-1.443c-0.525-0.619-0.933-1.221-1.138-4.711
		c-0.049-0.807-0.577-0.867-1.358-1.018v-0.262c0.377-0.178,0.951-0.178,1.156-0.178c1.084,0,1.612,0.752,1.796,1.137
		c0.289,0.586,0.542,3.164,0.666,4.193c0.132,1.117,1.014,1.559,1.693,1.705v-6.844h1.07v6.844c0.679-0.146,1.561-0.588,1.698-1.705
		c0.133-1.029,0.37-3.607,0.658-4.193c0.188-0.385,0.714-1.137,1.799-1.137c0.202,0,0.784,0,1.156,0.178v0.262
		c-0.782,0.15-1.308,0.211-1.361,1.018c-0.2,3.49-0.609,4.092-1.133,4.711c-0.798,0.926-1.922,1.279-2.817,1.443v3.107H167.407z"/>
	<line style="fill:#DE666A;" x1="89.185" y1="169.32" x2="100.511" y2="169.32"/>
	<line style="fill:#DE666A;" x1="89.185" y1="172.504" x2="100.511" y2="172.504"/>
	<line style="fill:#DE666A;" x1="231.654" y1="174.494" x2="245.613" y2="170.205"/>
	<line style="fill:#DE666A;" x1="114.312" y1="171.914" x2="121.391" y2="171.914"/>
	<path style="fill:#DE666A;" d="M149.882,161.051l-0.403,1.346h0.685l-0.089,0.324h-0.688l-0.905,2.928
		c-0.113,0.338-0.172,0.555-0.172,0.652c0,0.051,0.012,0.094,0.037,0.121c0.023,0.027,0.052,0.041,0.084,0.041
		c0.074,0,0.17-0.051,0.291-0.162c0.072-0.064,0.228-0.27,0.472-0.613l0.163,0.125c-0.286,0.438-0.559,0.744-0.814,0.922
		c-0.177,0.117-0.354,0.176-0.532,0.176c-0.14,0-0.252-0.047-0.338-0.135c-0.086-0.094-0.135-0.209-0.135-0.354
		c0-0.182,0.059-0.453,0.17-0.822l0.873-2.879h-0.757l0.047-0.197c0.367-0.104,0.677-0.252,0.931-0.447
		c0.254-0.201,0.544-0.541,0.865-1.025H149.882z"/>
	<path style="fill:#DE666A;" d="M224.768,176.328v-1.912h-1.892v-0.311h1.892v-1.891h0.31v1.891h1.914v0.311h-1.914v1.912H224.768z"
		/>
	<path style="fill:#DE666A;" d="M134.843,169.355l-0.656,2.277c0.666-0.93,1.182-1.543,1.535-1.838
		c0.356-0.293,0.698-0.439,1.026-0.439c0.18,0,0.323,0.061,0.444,0.184c0.114,0.121,0.172,0.279,0.172,0.475
		c0,0.201-0.053,0.461-0.162,0.791l-0.685,2.076c-0.076,0.236-0.116,0.385-0.116,0.438c0,0.045,0.01,0.082,0.033,0.113
		c0.022,0.029,0.049,0.045,0.076,0.045c0.035,0,0.079-0.021,0.128-0.061c0.156-0.141,0.331-0.35,0.515-0.633l0.155,0.092
		c-0.295,0.436-0.572,0.744-0.837,0.93c-0.184,0.123-0.35,0.186-0.496,0.186c-0.118,0-0.209-0.039-0.281-0.115
		c-0.07-0.07-0.104-0.176-0.104-0.301c0-0.158,0.065-0.434,0.195-0.82l0.663-1.998c0.084-0.248,0.128-0.443,0.128-0.578
		c0-0.066-0.025-0.121-0.074-0.164c-0.049-0.041-0.105-0.061-0.173-0.061c-0.104,0-0.223,0.037-0.365,0.117
		c-0.27,0.15-0.547,0.395-0.84,0.74c-0.291,0.338-0.596,0.775-0.916,1.309c-0.175,0.281-0.314,0.586-0.429,0.924l-0.234,0.824
		h-0.737l0.902-3.129c0.106-0.373,0.16-0.6,0.16-0.674s-0.03-0.135-0.088-0.189c-0.057-0.057-0.131-0.082-0.215-0.082
		c-0.039,0-0.109,0.008-0.207,0.018l-0.19,0.031l-0.046-0.178L134.843,169.355z"/>
	<path style="fill:#DE666A;" d="M139.619,171.848l-0.702,2.438c-0.04,0.145-0.061,0.252-0.061,0.312
		c0,0.055,0.016,0.098,0.056,0.125c0.034,0.027,0.123,0.047,0.258,0.059l-0.023,0.076h-1.118l0.032-0.076
		c0.116-0.002,0.195-0.012,0.232-0.025c0.062-0.029,0.107-0.066,0.138-0.107c0.049-0.068,0.095-0.191,0.148-0.363l0.505-1.754
		c0.03-0.107,0.047-0.168,0.049-0.182c0.005-0.033,0.005-0.059,0.005-0.084c0-0.051-0.01-0.092-0.042-0.121
		c-0.025-0.029-0.061-0.043-0.111-0.043c-0.038,0-0.099,0.008-0.177,0.025l-0.03-0.078l0.739-0.201H139.619z"/>
	<path style="fill:#DE666A;" d="M240.597,166.018l-1.268,3.457c-0.074,0.205-0.111,0.352-0.111,0.441
		c0,0.074,0.034,0.135,0.102,0.174c0.068,0.041,0.227,0.068,0.471,0.082l-0.04,0.111h-2.021l0.054-0.111
		c0.216-0.002,0.355-0.016,0.426-0.037c0.109-0.039,0.19-0.088,0.249-0.148c0.088-0.098,0.172-0.268,0.26-0.512l0.912-2.484
		c0.056-0.154,0.087-0.238,0.091-0.262c0.01-0.041,0.014-0.082,0.014-0.121c0-0.068-0.025-0.127-0.074-0.17
		c-0.053-0.039-0.121-0.062-0.204-0.062c-0.065,0-0.173,0.014-0.316,0.037l-0.049-0.107l1.316-0.287H240.597z"/>
	<path style="fill:#DE666A;" d="M240.627,178.633h-2.671v-0.111c1.352-0.932,2.245-1.662,2.686-2.193
		c0.202-0.244,0.302-0.502,0.302-0.771c0-0.215-0.086-0.389-0.253-0.525c-0.168-0.131-0.387-0.201-0.654-0.201
		c-0.37,0-0.677,0.139-0.914,0.42l-0.138-0.049c0.136-0.264,0.333-0.469,0.589-0.613c0.259-0.148,0.537-0.223,0.838-0.223
		c0.34,0,0.626,0.092,0.858,0.273c0.23,0.182,0.347,0.4,0.347,0.66c0,0.182-0.04,0.348-0.123,0.504
		c-0.129,0.236-0.363,0.506-0.703,0.805c-0.519,0.461-1.203,0.982-2.059,1.572h1.36c0.215,0,0.392-0.033,0.528-0.102
		c0.14-0.072,0.24-0.168,0.301-0.285h0.153L240.627,178.633z"/>
	<path style="fill:#DE666A;" d="M108.653,172.693c-0.023,0.168-0.035,0.309-0.035,0.418c0,0.295,0.107,0.547,0.318,0.756
		c0.215,0.207,0.471,0.311,0.772,0.311c0.242,0,0.475-0.049,0.7-0.148c0.224-0.098,0.555-0.314,0.998-0.65l0.101,0.143
		c-0.784,0.787-1.533,1.174-2.243,1.174c-0.486,0-0.852-0.154-1.098-0.457c-0.242-0.307-0.367-0.645-0.367-1.014
		c0-0.494,0.153-1,0.455-1.521c0.31-0.518,0.691-0.922,1.152-1.209c0.458-0.287,0.933-0.434,1.419-0.434
		c0.354,0,0.612,0.074,0.779,0.219c0.17,0.143,0.256,0.312,0.256,0.508c0,0.273-0.109,0.539-0.333,0.791
		c-0.293,0.33-0.723,0.596-1.291,0.797C109.863,172.512,109.335,172.619,108.653,172.693z M108.688,172.451
		c0.497-0.055,0.907-0.152,1.219-0.287c0.414-0.182,0.726-0.4,0.936-0.656c0.207-0.252,0.307-0.494,0.307-0.721
		c0-0.143-0.042-0.254-0.13-0.34c-0.091-0.09-0.219-0.131-0.382-0.131c-0.345,0-0.71,0.182-1.096,0.539
		C109.155,171.219,108.869,171.75,108.688,172.451z"/>
	<line style="fill:#DE666A;" x1="154.776" y1="160.707" x2="154.776" y2="182.414"/>
	<path style="fill:#DE666A;" d="M161.737,169.355l-0.653,2.277c0.667-0.93,1.177-1.543,1.533-1.838
		c0.358-0.293,0.7-0.439,1.028-0.439c0.179,0,0.325,0.061,0.439,0.184c0.121,0.121,0.177,0.279,0.177,0.475
		c0,0.201-0.054,0.461-0.163,0.791l-0.684,2.076c-0.077,0.236-0.116,0.385-0.116,0.438c0,0.045,0.009,0.082,0.034,0.113
		c0.021,0.029,0.052,0.045,0.075,0.045c0.034,0,0.079-0.021,0.128-0.061c0.158-0.141,0.33-0.35,0.516-0.633l0.156,0.092
		c-0.298,0.436-0.574,0.744-0.84,0.93c-0.184,0.123-0.349,0.186-0.495,0.186c-0.116,0-0.212-0.039-0.279-0.115
		c-0.07-0.07-0.107-0.176-0.107-0.301c0-0.158,0.065-0.434,0.195-0.82l0.663-1.998c0.084-0.248,0.123-0.443,0.123-0.578
		c0-0.066-0.022-0.121-0.069-0.164c-0.047-0.041-0.104-0.061-0.172-0.061c-0.103,0-0.224,0.037-0.363,0.117
		c-0.27,0.15-0.549,0.395-0.84,0.74c-0.291,0.338-0.598,0.775-0.919,1.309c-0.172,0.281-0.314,0.586-0.426,0.924l-0.239,0.824
		h-0.735l0.905-3.129c0.102-0.373,0.158-0.6,0.158-0.674s-0.028-0.135-0.089-0.189c-0.059-0.057-0.13-0.082-0.214-0.082
		c-0.04,0-0.107,0.008-0.21,0.018l-0.186,0.031l-0.049-0.178L161.737,169.355z"/>
	<path style="fill:#DE666A;" d="M173.056,167.119l2.05,5.227l1.124-3.898c0.093-0.322,0.14-0.574,0.14-0.752
		c0-0.121-0.045-0.219-0.128-0.289c-0.086-0.068-0.249-0.105-0.484-0.105c-0.039,0-0.081,0-0.125-0.002l0.056-0.18h2.168
		l-0.058,0.18c-0.227-0.008-0.392,0.021-0.501,0.068c-0.158,0.068-0.274,0.16-0.349,0.271c-0.107,0.156-0.217,0.426-0.326,0.816
		l-1.603,5.568h-0.135l-2.233-5.699l-1.215,4.209c-0.091,0.318-0.135,0.566-0.135,0.738c0,0.125,0.042,0.221,0.123,0.285
		c0.079,0.068,0.272,0.109,0.579,0.133l-0.049,0.178h-2.154l0.07-0.178c0.268-0.006,0.444-0.027,0.535-0.064
		c0.135-0.055,0.234-0.125,0.302-0.215c0.096-0.135,0.205-0.391,0.324-0.771l1.384-4.797c-0.13-0.201-0.27-0.338-0.414-0.414
		c-0.151-0.078-0.379-0.119-0.693-0.129l0.059-0.18H173.056z"/>
	<path style="fill:#DE666A;" d="M166.519,171.848l-0.705,2.438c-0.042,0.145-0.061,0.252-0.061,0.312
		c0,0.055,0.019,0.098,0.056,0.125s0.121,0.047,0.259,0.059l-0.021,0.076h-1.121l0.032-0.076c0.119-0.002,0.195-0.012,0.233-0.025
		c0.062-0.029,0.106-0.066,0.137-0.107c0.049-0.068,0.098-0.191,0.146-0.363l0.508-1.754c0.027-0.107,0.046-0.168,0.051-0.182
		c0.002-0.033,0.005-0.059,0.005-0.084c0-0.051-0.015-0.092-0.042-0.121c-0.028-0.029-0.065-0.043-0.114-0.043
		c-0.04,0-0.096,0.008-0.175,0.025l-0.03-0.078l0.738-0.201H166.519z"/>
	<path style="fill:#DE666A;" d="M177.481,171.906h0.986l-0.101,0.359h-0.894l-0.158,0.361c0.235,0.039,0.419,0.113,0.552,0.221
		c0.202,0.17,0.303,0.404,0.303,0.709c0,0.203-0.035,0.387-0.114,0.549c-0.072,0.166-0.165,0.301-0.272,0.412
		c-0.106,0.109-0.226,0.195-0.347,0.262c-0.167,0.088-0.337,0.129-0.507,0.129c-0.149,0-0.263-0.031-0.347-0.098
		c-0.061-0.041-0.089-0.098-0.089-0.166c0-0.053,0.019-0.094,0.056-0.131c0.038-0.037,0.084-0.057,0.141-0.057
		c0.076,0,0.16,0.037,0.258,0.117c0.056,0.047,0.103,0.078,0.142,0.092c0.028,0.016,0.065,0.021,0.107,0.021
		c0.165,0,0.313-0.08,0.451-0.244c0.138-0.162,0.205-0.375,0.205-0.635c0-0.184-0.035-0.336-0.107-0.463
		c-0.074-0.129-0.167-0.219-0.281-0.27c-0.112-0.051-0.261-0.09-0.449-0.107L177.481,171.906z"/>
	<path style="fill:#DE666A;" d="M214.109,171.602l2.05,5.225l1.124-3.895c0.093-0.326,0.14-0.574,0.14-0.754
		c0-0.121-0.045-0.219-0.128-0.289c-0.089-0.066-0.249-0.102-0.486-0.102c-0.04,0-0.079-0.006-0.124-0.008l0.057-0.178h2.168
		l-0.056,0.178c-0.229-0.002-0.394,0.021-0.505,0.07c-0.156,0.07-0.272,0.16-0.347,0.27c-0.107,0.156-0.217,0.428-0.326,0.816
		l-1.604,5.57h-0.133l-2.236-5.695l-1.212,4.203c-0.091,0.324-0.137,0.566-0.137,0.738c0,0.127,0.042,0.223,0.123,0.289
		c0.084,0.064,0.274,0.111,0.581,0.133l-0.053,0.178h-2.15l0.07-0.178c0.265-0.008,0.444-0.027,0.535-0.064
		c0.133-0.055,0.234-0.127,0.303-0.219c0.095-0.129,0.204-0.391,0.323-0.771l1.384-4.795c-0.13-0.203-0.27-0.34-0.419-0.416
		c-0.146-0.074-0.374-0.117-0.687-0.129l0.057-0.178H214.109z"/>
	<path style="fill:#DE666A;" d="M218.534,176.389h0.987l-0.099,0.357h-0.896l-0.158,0.363c0.235,0.039,0.419,0.111,0.552,0.221
		c0.202,0.17,0.303,0.408,0.303,0.711c0,0.201-0.04,0.385-0.112,0.551c-0.074,0.16-0.167,0.301-0.274,0.406
		c-0.109,0.113-0.223,0.199-0.347,0.262c-0.167,0.088-0.337,0.131-0.507,0.131c-0.146,0-0.266-0.033-0.352-0.096
		c-0.056-0.045-0.084-0.098-0.084-0.166c0-0.051,0.017-0.098,0.057-0.135c0.039-0.037,0.086-0.053,0.139-0.053
		c0.077,0,0.161,0.039,0.259,0.113c0.056,0.051,0.103,0.08,0.142,0.098c0.028,0.012,0.067,0.02,0.109,0.02
		c0.161,0,0.312-0.084,0.449-0.244c0.135-0.166,0.205-0.375,0.205-0.639c0-0.18-0.035-0.334-0.109-0.461
		c-0.072-0.127-0.166-0.215-0.279-0.271c-0.111-0.051-0.261-0.086-0.451-0.107L218.534,176.389z"/>
	<path style="fill:#DE666A;" d="M128.392,161.479l-1.059,3.715h0.86c0.624,0,1.077-0.098,1.358-0.289
		c0.279-0.189,0.52-0.543,0.722-1.061h0.244l-0.951,3.361h-0.242c0.081-0.283,0.123-0.523,0.123-0.725
		c0-0.195-0.042-0.354-0.12-0.475c-0.082-0.119-0.196-0.207-0.338-0.264c-0.142-0.055-0.446-0.084-0.905-0.084h-0.886l-0.927,3.211
		c-0.088,0.256-0.132,0.457-0.132,0.588c0,0.105,0.056,0.199,0.172,0.275c0.076,0.053,0.272,0.082,0.589,0.082h0.83
		c0.889,0,1.601-0.154,2.134-0.467c0.537-0.316,1.017-0.859,1.439-1.633h0.254l-0.884,2.564h-7.114l0.088-0.242
		c0.354-0.01,0.591-0.041,0.715-0.098c0.184-0.084,0.313-0.186,0.395-0.312c0.126-0.189,0.268-0.584,0.438-1.186l1.615-5.598
		c0.125-0.451,0.19-0.795,0.19-1.033c0-0.174-0.061-0.309-0.182-0.406c-0.123-0.098-0.355-0.146-0.705-0.146h-0.146l0.084-0.248
		h6.636l-0.577,2.191h-0.242c0.03-0.207,0.049-0.381,0.049-0.52c0-0.242-0.061-0.443-0.179-0.605
		c-0.156-0.209-0.38-0.367-0.678-0.477c-0.221-0.082-0.726-0.121-1.515-0.121H128.392z"/>
	<path style="fill:#DE666A;" d="M137.048,168.082l-0.118,0.064c-0.314-0.596-0.537-1.119-0.673-1.576
		c-0.106-0.357-0.158-0.717-0.158-1.08c0-0.842,0.196-1.598,0.587-2.266c0.481-0.818,1.259-1.613,2.333-2.389l0.091,0.137
		c-0.488,0.359-0.886,0.76-1.19,1.205c-0.387,0.555-0.701,1.229-0.945,2.016c-0.246,0.783-0.365,1.5-0.365,2.145
		C136.608,166.832,136.758,167.412,137.048,168.082z"/>
	<path style="fill:#DE666A;" d="M141.026,160.979c0.335,0,0.617,0.143,0.845,0.422c0.23,0.279,0.345,0.725,0.345,1.33
		c0,0.518-0.086,1.049-0.256,1.59c-0.173,0.543-0.41,1.008-0.717,1.404c-0.244,0.312-0.505,0.539-0.775,0.676
		c-0.153,0.08-0.334,0.119-0.541,0.119c-0.34,0-0.626-0.139-0.854-0.422c-0.228-0.281-0.342-0.723-0.342-1.332
		c0-0.6,0.114-1.205,0.345-1.811c0.27-0.707,0.611-1.246,1.032-1.615C140.38,161.1,140.687,160.979,141.026,160.979z
		 M141.034,161.189c-0.151,0-0.306,0.059-0.461,0.18c-0.158,0.115-0.319,0.367-0.484,0.744s-0.328,0.865-0.477,1.461
		c-0.2,0.777-0.296,1.438-0.296,1.986c0,0.273,0.059,0.477,0.177,0.615c0.117,0.135,0.261,0.199,0.431,0.199
		c0.161,0,0.293-0.051,0.407-0.158c0.3-0.281,0.561-0.766,0.774-1.447c0.35-1.121,0.521-2.031,0.521-2.73
		c0-0.289-0.059-0.506-0.175-0.643C141.334,161.258,141.194,161.189,141.034,161.189z"/>
	<path style="fill:#DE666A;" d="M143.439,160.908l0.121-0.072c0.312,0.594,0.532,1.113,0.667,1.57
		c0.107,0.357,0.161,0.717,0.161,1.08c0,0.846-0.193,1.6-0.584,2.266c-0.481,0.82-1.264,1.619-2.336,2.395l-0.089-0.125
		c0.489-0.359,0.885-0.76,1.191-1.205c0.382-0.553,0.695-1.227,0.942-2.014c0.244-0.787,0.368-1.504,0.368-2.15
		C143.882,162.16,143.734,161.582,143.439,160.908z"/>
	<line style="fill:#DE666A;" x1="45.3" y1="160.824" x2="45.3" y2="182.531"/>
	<path style="fill:#DE666A;" d="M52.263,169.475l-0.656,2.279c0.668-0.93,1.18-1.547,1.536-1.842
		c0.354-0.289,0.698-0.438,1.028-0.438c0.179,0,0.323,0.061,0.439,0.182s0.177,0.279,0.177,0.479c0,0.195-0.056,0.459-0.163,0.787
		l-0.684,2.074c-0.079,0.242-0.116,0.387-0.116,0.438c0,0.047,0.009,0.084,0.032,0.117c0.023,0.029,0.049,0.041,0.074,0.041
		c0.038,0,0.079-0.018,0.131-0.061c0.156-0.137,0.33-0.348,0.514-0.633l0.154,0.094c-0.296,0.438-0.575,0.746-0.836,0.93
		c-0.184,0.121-0.351,0.184-0.495,0.184c-0.119,0-0.21-0.037-0.281-0.113c-0.07-0.074-0.105-0.172-0.105-0.301
		c0-0.158,0.065-0.432,0.193-0.82l0.665-1.996c0.082-0.246,0.124-0.441,0.124-0.582c0-0.064-0.023-0.121-0.07-0.162
		c-0.046-0.041-0.106-0.061-0.177-0.061c-0.098,0-0.219,0.037-0.362,0.115c-0.268,0.154-0.547,0.396-0.838,0.74
		c-0.291,0.34-0.598,0.777-0.919,1.311c-0.172,0.281-0.312,0.588-0.426,0.924l-0.239,0.828h-0.733l0.9-3.133
		c0.107-0.373,0.158-0.598,0.158-0.674c0-0.074-0.027-0.135-0.084-0.191c-0.061-0.055-0.13-0.078-0.216-0.078
		c-0.037,0-0.109,0.004-0.207,0.018l-0.188,0.029l-0.047-0.178L52.263,169.475z"/>
	<path style="fill:#DE666A;" d="M63.581,167.24l2.048,5.221l1.126-3.895c0.093-0.326,0.14-0.576,0.14-0.754
		c0-0.123-0.044-0.219-0.133-0.285c-0.086-0.072-0.246-0.105-0.481-0.105c-0.039,0-0.079-0.004-0.123-0.006l0.056-0.176h2.168
		l-0.058,0.176c-0.226-0.004-0.394,0.02-0.503,0.068c-0.155,0.072-0.272,0.162-0.352,0.27c-0.104,0.156-0.211,0.426-0.323,0.818
		l-1.605,5.568h-0.13l-2.238-5.699l-1.21,4.209c-0.091,0.318-0.135,0.564-0.135,0.736c0,0.127,0.037,0.225,0.119,0.289
		c0.081,0.064,0.276,0.109,0.579,0.133l-0.049,0.18h-2.149l0.069-0.18c0.263-0.004,0.439-0.025,0.53-0.064
		c0.138-0.055,0.24-0.127,0.305-0.213c0.098-0.135,0.205-0.395,0.326-0.777l1.38-4.795c-0.126-0.201-0.266-0.342-0.415-0.414
		c-0.146-0.076-0.376-0.117-0.688-0.129l0.054-0.176H63.581z"/>
	<path style="fill:#DE666A;" d="M75.796,168.246l-0.402,1.35h0.684l-0.086,0.32H75.3l-0.904,2.932
		c-0.114,0.336-0.173,0.549-0.173,0.646c0,0.057,0.015,0.098,0.038,0.123c0.022,0.031,0.051,0.045,0.083,0.045
		c0.075,0,0.17-0.057,0.293-0.168c0.07-0.064,0.229-0.27,0.471-0.609l0.162,0.121c-0.286,0.439-0.558,0.746-0.813,0.922
		c-0.178,0.121-0.354,0.178-0.533,0.178c-0.137,0-0.249-0.043-0.34-0.137c-0.086-0.094-0.13-0.209-0.13-0.352
		c0-0.182,0.056-0.453,0.167-0.82l0.875-2.881h-0.761l0.052-0.199c0.362-0.104,0.674-0.252,0.928-0.447s0.545-0.539,0.865-1.023
		H75.796z"/>
	<path style="fill:#DE666A;" d="M57.039,171.963l-0.7,2.441c-0.042,0.146-0.062,0.248-0.062,0.314c0,0.051,0.019,0.096,0.058,0.123
		c0.033,0.027,0.121,0.049,0.257,0.059l-0.021,0.078H55.45l0.028-0.078c0.118-0.006,0.197-0.012,0.239-0.029
		c0.056-0.027,0.103-0.061,0.135-0.105c0.047-0.066,0.098-0.188,0.145-0.361l0.507-1.756c0.028-0.105,0.047-0.166,0.049-0.182
		c0.003-0.029,0.01-0.057,0.01-0.084c0-0.049-0.017-0.092-0.044-0.121c-0.026-0.027-0.065-0.043-0.112-0.043
		c-0.039,0-0.098,0.01-0.177,0.025l-0.03-0.076l0.735-0.205H57.039z"/>
	<path style="fill:#DE666A;" d="M68.719,171.963l-0.703,2.441c-0.042,0.146-0.062,0.248-0.062,0.314
		c0,0.051,0.019,0.096,0.058,0.123c0.038,0.027,0.124,0.049,0.259,0.059l-0.021,0.078H67.13l0.029-0.078
		c0.119-0.006,0.196-0.012,0.235-0.029c0.059-0.027,0.107-0.061,0.135-0.105c0.052-0.066,0.098-0.188,0.146-0.361l0.505-1.756
		c0.033-0.105,0.049-0.166,0.054-0.182c0.005-0.029,0.005-0.057,0.005-0.084c0-0.049-0.014-0.092-0.042-0.121
		c-0.028-0.027-0.067-0.043-0.114-0.043c-0.034,0-0.095,0.01-0.177,0.025l-0.027-0.076l0.735-0.205H68.719z"/>
	<line style="fill:#DE666A;" x1="257.646" y1="160.824" x2="257.646" y2="182.531"/>
	<path style="fill:#DE666A;" d="M264.609,169.475l-0.656,2.279c0.67-0.93,1.18-1.547,1.535-1.842
		c0.356-0.289,0.698-0.438,1.028-0.438c0.18,0,0.326,0.061,0.442,0.182c0.114,0.121,0.175,0.279,0.175,0.479
		c0,0.195-0.057,0.459-0.163,0.787l-0.685,2.074c-0.081,0.242-0.116,0.387-0.116,0.438c0,0.047,0.01,0.084,0.033,0.117
		c0.025,0.029,0.049,0.041,0.074,0.041c0.037,0,0.079-0.018,0.13-0.061c0.158-0.137,0.328-0.348,0.512-0.633l0.156,0.094
		c-0.296,0.438-0.574,0.746-0.835,0.93c-0.187,0.121-0.352,0.184-0.496,0.184c-0.118,0-0.209-0.037-0.279-0.113
		c-0.074-0.074-0.106-0.172-0.106-0.301c0-0.158,0.064-0.432,0.193-0.82l0.665-1.996c0.081-0.246,0.123-0.441,0.123-0.582
		c0-0.064-0.021-0.121-0.069-0.162c-0.047-0.041-0.107-0.061-0.177-0.061c-0.099,0-0.219,0.037-0.363,0.115
		c-0.266,0.154-0.547,0.396-0.835,0.74c-0.291,0.34-0.601,0.777-0.922,1.311c-0.17,0.281-0.312,0.588-0.423,0.924l-0.24,0.828
		h-0.735l0.905-3.133c0.103-0.373,0.156-0.598,0.156-0.674c0-0.074-0.028-0.135-0.086-0.191c-0.059-0.055-0.131-0.078-0.214-0.078
		c-0.042,0-0.112,0.004-0.21,0.018l-0.187,0.029l-0.049-0.178L264.609,169.475z"/>
	<path style="fill:#DE666A;" d="M275.928,167.24l2.047,5.221l1.126-3.895c0.094-0.326,0.14-0.576,0.14-0.754
		c0-0.123-0.044-0.219-0.13-0.285c-0.086-0.072-0.249-0.105-0.484-0.105c-0.039,0-0.081-0.004-0.125-0.006l0.056-0.176h2.171
		l-0.059,0.176c-0.226-0.004-0.393,0.02-0.505,0.068c-0.153,0.072-0.272,0.162-0.347,0.27c-0.104,0.156-0.214,0.426-0.323,0.818
		l-1.605,5.568h-0.133l-2.235-5.699l-1.217,4.209c-0.091,0.318-0.131,0.564-0.131,0.736c0,0.127,0.04,0.225,0.121,0.289
		c0.077,0.064,0.275,0.109,0.577,0.133l-0.046,0.18h-2.152l0.069-0.18c0.268-0.004,0.442-0.025,0.533-0.064
		c0.135-0.055,0.237-0.127,0.305-0.213c0.096-0.135,0.202-0.395,0.321-0.777l1.384-4.795c-0.128-0.201-0.268-0.342-0.414-0.414
		c-0.148-0.076-0.377-0.117-0.69-0.129l0.053-0.176H275.928z"/>
	<path style="fill:#DE666A;" d="M269.388,171.963l-0.705,2.441c-0.042,0.146-0.061,0.248-0.061,0.314
		c0,0.051,0.019,0.096,0.056,0.123c0.038,0.027,0.124,0.049,0.261,0.059l-0.023,0.078h-1.119l0.028-0.078
		c0.121-0.006,0.198-0.012,0.235-0.029c0.062-0.027,0.106-0.061,0.142-0.105c0.047-0.066,0.096-0.188,0.142-0.361l0.508-1.756
		c0.027-0.105,0.046-0.166,0.049-0.182c0.007-0.029,0.009-0.057,0.009-0.084c0-0.049-0.016-0.092-0.042-0.121
		c-0.027-0.027-0.064-0.043-0.116-0.043c-0.037,0-0.093,0.01-0.174,0.025l-0.028-0.076l0.732-0.205H269.388z"/>
	<path style="fill:#DE666A;" d="M280.353,172.023h0.986l-0.103,0.361h-0.896l-0.158,0.361c0.24,0.037,0.421,0.111,0.552,0.219
		c0.202,0.172,0.305,0.408,0.305,0.713c0,0.201-0.035,0.385-0.112,0.547c-0.071,0.164-0.162,0.299-0.271,0.41
		s-0.224,0.199-0.347,0.26c-0.17,0.088-0.34,0.133-0.51,0.133c-0.146,0-0.261-0.035-0.349-0.098
		c-0.057-0.041-0.086-0.098-0.086-0.164c0-0.053,0.019-0.1,0.058-0.137c0.035-0.037,0.084-0.055,0.138-0.055
		c0.076,0,0.162,0.041,0.256,0.115c0.058,0.049,0.106,0.08,0.142,0.098c0.032,0.012,0.067,0.02,0.109,0.02
		c0.163,0,0.314-0.084,0.451-0.246c0.14-0.164,0.207-0.373,0.207-0.633c0-0.182-0.039-0.336-0.111-0.463
		c-0.072-0.129-0.165-0.217-0.277-0.273c-0.113-0.049-0.265-0.088-0.451-0.107L280.353,172.023z"/>
	<polyline style="fill:#DE666A;" points="78.448,159.883 83.403,171.914 77.741,182.531 	"/>
	<polyline style="fill:#DE666A;" points="282.772,159.883 287.728,171.914 282.067,182.531 	"/>
	<path style="fill:#DE666A;" d="M27.002,180.506c0,1.619,1.028,1.885,2.647,1.885v0.531h-8.354v-0.531
		c1.616,0,2.647-0.266,2.647-1.885v-14.973c0-1.617-1.031-1.881-2.647-1.881v-0.529h8.354v0.529c-1.619,0-2.647,0.264-2.647,1.881
		V180.506z"/>
	<path style="fill:#DE666A;" d="M36.799,180.506c0,1.619,1.028,1.885,2.647,1.885v0.531h-8.357v-0.531
		c1.617,0,2.646-0.266,2.646-1.885v-14.973c0-1.617-1.028-1.881-2.646-1.881v-0.529h8.357v0.529c-1.619,0-2.647,0.264-2.647,1.881
		V180.506z"/>
	<path style="fill:#DE666A;" d="M200.13,160.117h-17.761c0,0,8.747,10.15,9.146,10.609c-0.417,0.445-9.895,10.627-9.895,10.627
		h18.688l2.587-3.689l-0.268-0.084c0,0-3.285,2.789-3.476,3.066c-0.396,0-13.271,0-14.688,0c0.986-1.057,7.999-9.902,7.999-9.902
		s-5.044-8.869-5.939-9.906c1.391,0,11.293,0,11.648,0c0.193,0.293,4.946,3.77,4.946,3.77l0.135-0.084l-2.936-4.406H200.13z"/>
	<path style="fill:#DE666A;" d="M208.23,181.209l-0.244,0.125c-0.616-1.18-1.057-2.223-1.326-3.127
		c-0.207-0.707-0.312-1.418-0.312-2.137c0-1.674,0.386-3.176,1.163-4.502c0.951-1.621,2.499-3.207,4.634-4.742l0.175,0.27
		c-0.966,0.715-1.759,1.514-2.37,2.396c-0.764,1.104-1.392,2.434-1.876,3.996c-0.485,1.561-0.728,2.979-0.728,4.26
		C207.347,178.725,207.64,179.879,208.23,181.209z"/>
	<path style="fill:#DE666A;" d="M253.36,165.086l0.242-0.148c0.616,1.178,1.059,2.215,1.318,3.123
		c0.212,0.707,0.319,1.418,0.319,2.135c0,1.68-0.389,3.18-1.163,4.5c-0.959,1.629-2.504,3.213-4.63,4.752l-0.18-0.238
		c0.971-0.719,1.757-1.518,2.371-2.398c0.766-1.102,1.389-2.434,1.875-3.996c0.489-1.562,0.729-2.986,0.729-4.264
		C254.242,167.574,253.951,166.418,253.36,165.086z"/>
</g>
</svg>
