<?xml version="1.0" encoding="iso-8859-1"?>
<!-- Generator: Adobe Illustrator 15.0.2, SVG Export Plug-In . SVG Version: 6.00 Build 0)  -->
<!DOCTYPE svg PUBLIC "-//W3C//DTD SVG 1.1//EN" "http://www.w3.org/Graphics/SVG/1.1/DTD/svg11.dtd">
<svg version="1.1" xmlns="http://www.w3.org/2000/svg" xmlns:xlink="http://www.w3.org/1999/xlink" x="0px" y="0px" width="300px"
	 height="300px" viewBox="0 0 300 300" style="enable-background:new 0 0 300 300;" xml:space="preserve">
<g id="bg">
	<rect y="-0.001" style="fill:#EC6D71;" width="300" height="300.002"/>
</g>
<g id="patterns">
	<polygon style="fill:#D16164;" points="187.457,94.409 177.854,77.782 187.457,61.153 206.655,61.153 216.255,77.782 
		206.655,94.409 	"/>
	<polygon style="fill:#D16164;" points="251.306,94.409 241.704,77.782 251.306,61.153 270.509,61.153 280.108,77.782 
		270.509,94.409 	"/>
	<polygon style="fill:#D16164;" points="251.306,131.115 241.704,114.486 251.306,97.856 270.509,97.856 280.108,114.486 
		270.509,131.115 	"/>
	<polygon style="fill:#D16164;" points="251.306,168.036 241.704,151.408 251.306,134.778 270.509,134.778 280.108,151.408 
		270.509,168.036 	"/>
	<polygon style="fill:#D16164;" points="187.652,168.036 178.053,151.408 187.652,134.778 206.855,134.778 216.455,151.408 
		206.855,168.036 	"/>
	<polygon style="fill:#D16164;" points="219.381,75.733 209.779,59.104 219.381,42.476 238.582,42.476 248.184,59.104 
		238.582,75.733 	"/>
	<polygon style="fill:#D16164;" points="219.381,112.655 209.779,96.025 219.381,79.396 238.582,79.396 248.184,96.025 
		238.582,112.655 	"/>
	<polygon style="fill:#D16164;" points="219.381,149.576 209.779,132.946 219.381,116.318 238.582,116.318 248.184,132.946 
		238.582,149.576 	"/>
	<polygon style="fill:#D16164;" points="155.728,149.576 146.129,132.946 155.728,116.318 174.931,116.318 184.53,132.946 
		174.931,149.576 	"/>
	<rect x="15.855" y="12.981" style="fill:#D16164;" width="4.746" height="5.938"/>
	<rect x="34.404" y="9.27" style="fill:#D16164;" width="4.751" height="1.782"/>
	<rect x="31.736" y="12.981" style="fill:#D16164;" width="4.004" height="9.796"/>
	<rect x="37.671" y="9.27" style="fill:#D16164;" width="2.227" height="14.843"/>
	<rect x="28.653" y="12.834" style="fill:#D16164;" width="0.968" height="269.59"/>
	<rect x="23.828" y="28.269" style="fill:#D16164;" width="5.1" height="77.475"/>
	<rect x="29.51" y="152.646" style="fill:#D16164;" width="4.006" height="2.078"/>
	<rect x="24.165" y="140.327" style="fill:#D16164;" width="4.749" height="1.78"/>
	<rect x="32.031" y="124.299" style="fill:#D16164;" width="1.484" height="16.475"/>
	<rect x="32.92" y="126.523" style="fill:#D16164;" width="1.932" height="12.17"/>
	<rect x="29.51" y="112.72" style="fill:#D16164;" width="1.926" height="7.126"/>
	<rect x="36.484" y="114.353" style="fill:#D16164;" width="5.342" height="1.781"/>
	<rect x="37.227" y="115.838" style="fill:#D16164;" width="3.117" height="1.038"/>
	<rect x="26.836" y="281.978" style="fill:#D16164;" width="4.302" height="2.223"/>
	<rect x="40.938" y="229.581" style="fill:#D16164;" width="1.631" height="4.901"/>
	<rect x="38.711" y="226.762" style="fill:#D16164;" width="0.74" height="2.375"/>
	<rect x="33.665" y="227.207" style="fill:#D16164;" width="1.335" height="6.974"/>
	<rect x="33.812" y="236.558" style="fill:#D16164;" width="9.201" height="4.753"/>
	<rect x="41.53" y="239.974" style="fill:#D16164;" width="2.674" height="4.302"/>
	<rect x="33.96" y="245.909" style="fill:#D16164;" width="8.462" height="2.374"/>
	<rect x="41.975" y="251.252" style="fill:#D16164;" width="1.932" height="1.928"/>
	<rect x="33.367" y="255.111" style="fill:#D16164;" width="9.201" height="4.156"/>
	<rect x="40.344" y="256.743" style="fill:#D16164;" width="4.007" height="4.01"/>
	<rect x="38.564" y="264.907" style="fill:#D16164;" width="4.152" height="4.157"/>
	<rect x="40.938" y="273.962" style="fill:#D16164;" width="2.227" height="2.225"/>
	<rect x="36.631" y="276.485" style="fill:#D16164;" width="2.08" height="2.076"/>
	<rect x="33.812" y="262.83" style="fill:#D16164;" width="0.744" height="9.352"/>
	<rect x="33.516" y="274.257" style="fill:#D16164;" width="0.742" height="8.167"/>
	<rect x="28.914" y="178.768" style="fill:#D16164;" width="1.782" height="11.429"/>
</g>
</svg>
