<?xml version="1.0" encoding="iso-8859-1"?>
<!-- Generator: Adobe Illustrator 15.0.2, SVG Export Plug-In . SVG Version: 6.00 Build 0)  -->
<!DOCTYPE svg PUBLIC "-//W3C//DTD SVG 1.1//EN" "http://www.w3.org/Graphics/SVG/1.1/DTD/svg11.dtd">
<svg version="1.1" xmlns="http://www.w3.org/2000/svg" xmlns:xlink="http://www.w3.org/1999/xlink" x="0px" y="0px" width="300px"
	 height="300px" viewBox="0 0 300 300" style="enable-background:new 0 0 300 300;" xml:space="preserve">
<g id="bg">
	<rect style="fill:#231F20;" width="300" height="300"/>
</g>
<g id="patterns">
	<rect x="49.274" y="23.94" style="fill:#8BC53F;" width="59.038" height="1.803"/>
	<rect x="49.274" y="28.146" style="fill:#8BC53F;" width="29.226" height="1.801"/>
	<rect x="49.274" y="32.348" style="fill:#8BC53F;" width="75.4" height="1.803"/>
	<rect x="49.274" y="36.556" style="fill:#8BC53F;" width="29.226" height="1.803"/>
	<rect x="49.274" y="40.763" style="fill:#8BC53F;" width="76.572" height="1.801"/>
	<rect x="49.274" y="44.964" style="fill:#8BC53F;" width="49.681" height="1.803"/>
	<rect x="49.274" y="49.173" style="fill:#8BC53F;" width="86.507" height="1.803"/>
	<rect x="49.274" y="53.375" style="fill:#8BC53F;" width="29.226" height="1.803"/>
	<rect x="19.384" y="24.075" style="fill:#8BC53F;" width="23.917" height="19.694"/>
	<path style="fill:#8BC53F;" d="M272.756,58.088c0-0.771-0.49-1.006-1.089-0.519l-4.39,3.581c-0.598,0.487-1.089,1.52-1.089,2.292
		v173.675c0,0.771,0.491,1.803,1.089,2.292l4.39,3.581c0.599,0.487,1.089,0.252,1.089-0.519V58.088z"/>
	<path style="fill:#8BC53F;" d="M279.252,16.475c-1.287,0-2.334,1.049-2.334,2.334v262.939c0,1.286,1.047,2.338,2.334,2.338h4.627
		c1.284,0,2.336-1.053,2.336-2.338v-35.573c0-1.281-0.816-2.998-1.812-3.811l-2.942-2.402c-0.996-0.811-1.808-2.524-1.808-3.809
		V64.403c0-1.284,0.812-2.997,1.808-3.81l2.942-2.402c0.996-0.808,1.812-2.523,1.812-3.807V18.81c0-1.285-1.052-2.334-2.336-2.334
		H279.252z"/>
</g>
</svg>
