<?xml version="1.0" encoding="iso-8859-1"?>
<!-- Generator: Adobe Illustrator 15.0.2, SVG Export Plug-In . SVG Version: 6.00 Build 0)  -->
<!DOCTYPE svg PUBLIC "-//W3C//DTD SVG 1.1//EN" "http://www.w3.org/Graphics/SVG/1.1/DTD/svg11.dtd">
<svg version="1.1" xmlns="http://www.w3.org/2000/svg" xmlns:xlink="http://www.w3.org/1999/xlink" x="0px" y="0px" width="300px"
	 height="300px" viewBox="0 0 300 300" style="enable-background:new 0 0 300 300;" xml:space="preserve">
<g id="bg">
	<rect y="-0.002" style="fill:#85AC72;" width="300" height="300.004"/>
</g>
<g id="patterns">
	<line style="fill:#7A9E69;" x1="15.334" y1="42.383" x2="26.659" y2="42.383"/>
	<line style="fill:#7A9E69;" x1="92.84" y1="83.438" x2="99.919" y2="83.438"/>
	<line style="fill:#7A9E69;" x1="29.963" y1="42.383" x2="41.289" y2="42.383"/>
	<line style="fill:#7A9E69;" x1="104.284" y1="41.322" x2="115.609" y2="41.322"/>
	<line style="fill:#7A9E69;" x1="104.284" y1="44.506" x2="115.609" y2="44.506"/>
	<line style="fill:#7A9E69;" x1="44.592" y1="42.383" x2="55.916" y2="42.383"/>
	<line style="fill:#7A9E69;" x1="59.691" y1="31.533" x2="59.691" y2="53.238"/>
	<line style="fill:#7A9E69;" x1="144.274" y1="31.533" x2="144.274" y2="53.238"/>
	<path style="fill:#7A9E69;" d="M36.254,27.703l-1.405,4.867c0.651-0.926,1.156-1.541,1.52-1.846
		c0.365-0.305,0.714-0.457,1.047-0.457c0.167,0,0.314,0.061,0.428,0.184c0.114,0.121,0.17,0.281,0.17,0.486
		c0,0.215-0.051,0.479-0.155,0.789l-0.685,2.064c-0.086,0.252-0.126,0.389-0.126,0.418c0,0.041,0.012,0.078,0.035,0.107
		c0.025,0.029,0.057,0.043,0.086,0.043c0.04,0,0.084-0.021,0.136-0.062c0.165-0.145,0.335-0.346,0.497-0.602l0.156,0.094
		c-0.109,0.174-0.258,0.365-0.449,0.57c-0.193,0.207-0.355,0.346-0.493,0.426c-0.137,0.076-0.258,0.115-0.367,0.115
		c-0.116,0-0.212-0.039-0.286-0.115c-0.074-0.08-0.112-0.18-0.112-0.303c0-0.146,0.067-0.418,0.198-0.818l0.658-1.992
		c0.084-0.248,0.123-0.447,0.123-0.586c0-0.068-0.021-0.121-0.067-0.16c-0.044-0.039-0.104-0.061-0.177-0.061
		c-0.106,0-0.228,0.037-0.362,0.109c-0.247,0.139-0.531,0.396-0.856,0.777c-0.086,0.102-0.377,0.516-0.875,1.242
		c-0.153,0.232-0.274,0.482-0.37,0.758l-0.31,1.029h-0.734l1.646-5.707l0.175-0.613c0-0.088-0.037-0.162-0.109-0.23
		c-0.069-0.062-0.16-0.098-0.263-0.098c-0.062,0-0.156,0.01-0.284,0.031l-0.104,0.014v-0.199L36.254,27.703z"/>
	<path style="fill:#7A9E69;" d="M54.089,47.797l-0.402,1.35h0.687l-0.091,0.318h-0.693l-0.897,2.938
		c-0.117,0.332-0.175,0.549-0.175,0.646c0,0.051,0.014,0.092,0.037,0.121c0.023,0.031,0.051,0.043,0.086,0.043
		c0.072,0,0.168-0.053,0.288-0.164c0.07-0.066,0.229-0.271,0.471-0.613l0.167,0.127c-0.288,0.434-0.561,0.744-0.818,0.914
		c-0.175,0.121-0.352,0.182-0.53,0.182c-0.138,0-0.252-0.045-0.34-0.135c-0.086-0.094-0.128-0.211-0.128-0.354
		c0-0.178,0.054-0.451,0.165-0.822l0.872-2.883H52.03l0.047-0.195c0.367-0.102,0.677-0.25,0.933-0.447
		c0.254-0.195,0.542-0.539,0.863-1.025H54.089z"/>
	<path style="fill:#7A9E69;" d="M66.301,40.178l-0.653,2.279c0.665-0.93,1.18-1.545,1.53-1.84c0.358-0.293,0.701-0.439,1.031-0.439
		c0.177,0,0.325,0.061,0.441,0.184c0.114,0.121,0.175,0.281,0.175,0.475c0,0.197-0.056,0.463-0.163,0.791l-0.684,2.074
		c-0.079,0.24-0.119,0.387-0.119,0.441c0,0.041,0.012,0.078,0.035,0.111c0.023,0.029,0.049,0.047,0.074,0.047
		c0.038,0,0.082-0.023,0.131-0.061c0.158-0.141,0.328-0.35,0.512-0.639l0.156,0.094c-0.296,0.438-0.572,0.75-0.838,0.932
		c-0.184,0.121-0.349,0.186-0.493,0.186c-0.119,0-0.212-0.037-0.284-0.111c-0.067-0.08-0.103-0.178-0.103-0.303
		c0-0.158,0.065-0.434,0.193-0.822l0.663-1.998c0.084-0.246,0.126-0.439,0.126-0.582c0-0.064-0.023-0.117-0.07-0.16
		c-0.046-0.039-0.106-0.061-0.177-0.061c-0.098,0-0.221,0.039-0.362,0.119c-0.271,0.148-0.547,0.395-0.838,0.734
		c-0.288,0.346-0.598,0.783-0.919,1.312c-0.17,0.281-0.314,0.59-0.426,0.922l-0.237,0.828h-0.735l0.902-3.131
		c0.105-0.373,0.158-0.596,0.158-0.674c0-0.072-0.029-0.137-0.088-0.188c-0.056-0.057-0.128-0.084-0.214-0.084
		c-0.04,0-0.109,0.004-0.207,0.02l-0.187,0.027l-0.049-0.176L66.301,40.178z"/>
	<path style="fill:#7A9E69;" d="M77.617,37.945l2.05,5.223l1.126-3.896c0.093-0.326,0.14-0.578,0.14-0.754
		c0-0.121-0.044-0.217-0.13-0.287c-0.087-0.072-0.249-0.105-0.484-0.105c-0.039,0-0.081-0.002-0.121-0.004l0.054-0.176h2.171
		l-0.063,0.176c-0.226-0.004-0.391,0.02-0.502,0.07c-0.156,0.07-0.272,0.158-0.35,0.27c-0.104,0.154-0.211,0.428-0.32,0.814
		l-1.608,5.57h-0.13l-2.235-5.695l-1.215,4.205c-0.091,0.322-0.135,0.566-0.135,0.736c0,0.127,0.042,0.223,0.123,0.287
		c0.079,0.066,0.274,0.113,0.579,0.135l-0.049,0.178h-2.151l0.069-0.178c0.263-0.008,0.439-0.029,0.533-0.064
		c0.135-0.057,0.237-0.125,0.302-0.215c0.098-0.135,0.203-0.391,0.326-0.775l1.382-4.793c-0.128-0.203-0.27-0.342-0.414-0.42
		c-0.149-0.072-0.377-0.115-0.691-0.125l0.056-0.176H77.617z"/>
	<path style="fill:#7A9E69;" d="M89.836,38.949l-0.404,1.35h0.684l-0.086,0.32h-0.693l-0.9,2.934
		c-0.114,0.334-0.172,0.551-0.172,0.645c0,0.057,0.012,0.098,0.035,0.127c0.022,0.027,0.051,0.041,0.086,0.041
		c0.072,0,0.17-0.053,0.288-0.168c0.069-0.064,0.228-0.268,0.473-0.609l0.162,0.127c-0.286,0.438-0.558,0.744-0.816,0.916
		c-0.175,0.121-0.351,0.182-0.53,0.182c-0.137,0-0.249-0.047-0.337-0.141c-0.089-0.09-0.136-0.203-0.136-0.35
		c0-0.18,0.059-0.455,0.17-0.822l0.875-2.881h-0.758l0.049-0.195c0.365-0.104,0.674-0.254,0.93-0.449
		c0.252-0.197,0.543-0.539,0.863-1.025H89.836z"/>
	<path style="fill:#7A9E69;" d="M128.412,72.57l-0.404,1.352h0.686l-0.091,0.32h-0.688l-0.902,2.932
		c-0.116,0.336-0.172,0.549-0.172,0.646c0,0.057,0.009,0.096,0.034,0.127c0.023,0.027,0.052,0.041,0.087,0.041
		c0.071,0,0.167-0.055,0.29-0.168c0.07-0.064,0.229-0.27,0.47-0.611l0.168,0.123c-0.291,0.443-0.562,0.75-0.819,0.922
		c-0.174,0.121-0.354,0.182-0.53,0.182c-0.14,0-0.251-0.047-0.337-0.141c-0.089-0.092-0.133-0.209-0.133-0.352
		c0-0.178,0.054-0.453,0.167-0.82l0.873-2.881h-0.759l0.049-0.199c0.365-0.104,0.675-0.252,0.931-0.447
		c0.254-0.195,0.542-0.539,0.863-1.025H128.412z"/>
	<path style="fill:#7A9E69;" d="M71.077,42.668l-0.7,2.439c-0.042,0.146-0.062,0.252-0.062,0.314c0,0.053,0.019,0.098,0.056,0.123
		c0.037,0.031,0.123,0.049,0.261,0.059l-0.023,0.076h-1.119l0.03-0.076c0.119,0,0.198-0.012,0.235-0.027
		c0.058-0.027,0.104-0.061,0.135-0.105c0.049-0.068,0.1-0.188,0.146-0.363l0.507-1.756c0.03-0.104,0.047-0.164,0.049-0.182
		c0.005-0.027,0.007-0.057,0.007-0.084c0-0.049-0.014-0.088-0.041-0.121c-0.028-0.025-0.063-0.041-0.112-0.041
		c-0.039,0-0.1,0.008-0.177,0.027l-0.03-0.08l0.735-0.203H71.077z"/>
	<path style="fill:#7A9E69;" d="M113.371,80.879l-0.653,2.279c0.663-0.934,1.179-1.545,1.533-1.838
		c0.355-0.295,0.697-0.441,1.025-0.441c0.18,0,0.328,0.061,0.444,0.18c0.116,0.127,0.173,0.285,0.173,0.48s-0.054,0.455-0.163,0.789
		l-0.685,2.074c-0.076,0.24-0.116,0.385-0.116,0.438c0,0.045,0.015,0.082,0.037,0.113c0.023,0.029,0.047,0.047,0.075,0.047
		c0.034,0,0.076-0.023,0.128-0.064c0.158-0.135,0.328-0.348,0.512-0.633l0.155,0.094c-0.295,0.438-0.572,0.746-0.837,0.93
		c-0.184,0.121-0.35,0.186-0.496,0.186c-0.116,0-0.209-0.037-0.281-0.111c-0.067-0.076-0.103-0.176-0.103-0.305
		c0-0.16,0.063-0.436,0.193-0.818l0.663-1.998c0.084-0.248,0.128-0.443,0.128-0.582c0-0.066-0.025-0.117-0.072-0.158
		c-0.046-0.043-0.106-0.062-0.175-0.062c-0.1,0-0.223,0.039-0.362,0.117c-0.272,0.15-0.55,0.396-0.84,0.736
		c-0.291,0.342-0.599,0.777-0.919,1.312c-0.172,0.279-0.312,0.588-0.426,0.92l-0.237,0.828h-0.737l0.904-3.131
		c0.105-0.371,0.158-0.598,0.158-0.674c0-0.07-0.027-0.135-0.086-0.191c-0.058-0.051-0.13-0.08-0.216-0.08
		c-0.04,0-0.109,0.006-0.208,0.02l-0.19,0.027l-0.042-0.174L113.371,80.879z"/>
	<path style="fill:#7A9E69;" d="M131.066,129.01l-0.656,2.279c0.671-0.93,1.18-1.545,1.538-1.838
		c0.354-0.293,0.696-0.441,1.026-0.441c0.179,0,0.325,0.061,0.441,0.184c0.114,0.123,0.173,0.281,0.173,0.477
		c0,0.197-0.054,0.461-0.161,0.787l-0.684,2.076c-0.081,0.24-0.119,0.387-0.119,0.439c0,0.047,0.012,0.082,0.035,0.113
		c0.025,0.031,0.049,0.043,0.074,0.043c0.038,0,0.08-0.016,0.131-0.061c0.158-0.137,0.328-0.346,0.512-0.635l0.158,0.096
		c-0.298,0.438-0.577,0.746-0.838,0.928c-0.186,0.123-0.351,0.186-0.495,0.186c-0.116,0-0.21-0.037-0.281-0.111
		c-0.072-0.076-0.105-0.176-0.105-0.303c0-0.16,0.065-0.432,0.193-0.82l0.665-1.994c0.082-0.252,0.126-0.443,0.126-0.584
		c0-0.066-0.023-0.121-0.074-0.16c-0.047-0.043-0.104-0.062-0.172-0.062c-0.101,0-0.224,0.039-0.365,0.119
		c-0.268,0.148-0.547,0.395-0.84,0.734c-0.289,0.342-0.594,0.781-0.917,1.312c-0.17,0.281-0.314,0.588-0.424,0.92l-0.239,0.83
		h-0.735l0.9-3.133c0.107-0.371,0.158-0.596,0.158-0.67s-0.025-0.139-0.084-0.193c-0.058-0.053-0.13-0.08-0.216-0.08
		c-0.04,0-0.107,0.006-0.207,0.018l-0.187,0.033l-0.049-0.178L131.066,129.01z"/>
	<path style="fill:#7A9E69;" d="M118.147,83.367l-0.702,2.443c-0.04,0.145-0.061,0.246-0.061,0.311c0,0.057,0.021,0.098,0.056,0.127
		c0.037,0.027,0.123,0.047,0.261,0.055l-0.021,0.08h-1.121l0.03-0.08c0.118-0.004,0.197-0.014,0.235-0.027
		c0.061-0.027,0.106-0.061,0.135-0.105c0.049-0.066,0.1-0.188,0.148-0.359l0.505-1.756c0.03-0.107,0.047-0.168,0.052-0.182
		c0.002-0.031,0.004-0.059,0.004-0.086c0-0.053-0.012-0.092-0.041-0.119c-0.028-0.031-0.063-0.045-0.112-0.045
		c-0.037,0-0.1,0.01-0.177,0.025l-0.027-0.076l0.734-0.205H118.147z"/>
	<path style="fill:#7A9E69;" d="M82.759,42.668l-0.705,2.439c-0.039,0.146-0.062,0.252-0.062,0.314c0,0.053,0.021,0.098,0.058,0.123
		c0.035,0.031,0.124,0.049,0.259,0.059l-0.021,0.076h-1.119l0.027-0.076c0.121,0,0.198-0.012,0.237-0.027
		c0.061-0.027,0.104-0.061,0.138-0.105c0.049-0.068,0.095-0.188,0.146-0.363l0.502-1.756c0.033-0.104,0.047-0.164,0.054-0.182
		c0.005-0.027,0.005-0.057,0.005-0.084c0-0.049-0.014-0.088-0.042-0.121c-0.028-0.025-0.065-0.041-0.111-0.041
		c-0.04,0-0.098,0.008-0.18,0.027l-0.027-0.08l0.735-0.203H82.759z"/>
	<path style="fill:#7A9E69;" d="M33.181,50.088c0.13,0.162,0.293,0.242,0.486,0.242c0.079,0,0.235-0.031,0.468-0.102
		c0.232-0.064,0.381-0.107,0.441-0.117c0.117-0.016,0.252-0.023,0.396-0.023c0.502,0,0.914,0.109,1.232,0.332
		c0.318,0.221,0.477,0.492,0.477,0.814c0,0.176-0.058,0.348-0.172,0.525c-0.116,0.174-0.374,0.438-0.779,0.789
		c-0.407,0.35-0.675,0.625-0.798,0.82c-0.072,0.113-0.109,0.234-0.109,0.367c0,0.205,0.104,0.377,0.308,0.521
		c0.199,0.141,0.475,0.209,0.823,0.209c0.453,0,0.81-0.102,1.072-0.311c0.259-0.207,0.4-0.559,0.431-1.062h0.242l0.421,1.615h-0.251
		c-0.105-0.145-0.261-0.219-0.466-0.219c-0.079,0-0.195,0.02-0.347,0.057c-0.426,0.109-0.803,0.162-1.128,0.162
		c-0.601,0-1.099-0.133-1.489-0.4s-0.586-0.574-0.586-0.92c0-0.215,0.083-0.438,0.253-0.678c0.168-0.24,0.542-0.596,1.124-1.068
		c0.219-0.18,0.36-0.318,0.426-0.418c0.062-0.1,0.098-0.207,0.098-0.316c0-0.158-0.084-0.293-0.249-0.41
		c-0.163-0.111-0.384-0.168-0.663-0.168c-0.344,0-0.638,0.104-0.87,0.305c-0.237,0.205-0.363,0.533-0.384,0.98h-0.246l-0.419-1.527
		H33.181z"/>
	<path style="fill:#7A9E69;" d="M51.228,29.561l-1.042,4.834l-0.096,0.381c-0.012,0.037-0.017,0.068-0.017,0.094
		c0,0.039,0.012,0.074,0.028,0.107c0.017,0.02,0.037,0.031,0.062,0.031c0.023,0,0.059-0.02,0.101-0.061
		c0.076-0.074,0.179-0.242,0.31-0.498l0.142,0.104c-0.165,0.283-0.33,0.492-0.503,0.631c-0.172,0.137-0.332,0.207-0.479,0.207
		c-0.103,0-0.18-0.031-0.238-0.094c-0.051-0.059-0.081-0.146-0.081-0.26c0-0.141,0.032-0.32,0.093-0.545l0.087-0.303
		c-0.4,0.475-0.771,0.811-1.104,0.996c-0.244,0.135-0.481,0.205-0.714,0.205c-0.224,0-0.416-0.084-0.579-0.252
		c-0.161-0.168-0.242-0.396-0.242-0.689c0-0.438,0.145-0.9,0.433-1.387c0.289-0.488,0.656-0.879,1.101-1.17
		c0.347-0.23,0.675-0.346,0.981-0.346c0.187,0,0.338,0.041,0.461,0.121c0.123,0.084,0.217,0.219,0.279,0.408l0.365-2.414
		L51.228,29.561z M49.455,31.76c-0.198,0-0.402,0.084-0.621,0.248c-0.31,0.234-0.584,0.58-0.824,1.041
		c-0.244,0.461-0.362,0.875-0.362,1.248c0,0.188,0.053,0.334,0.16,0.441c0.104,0.111,0.23,0.168,0.367,0.168
		c0.343,0,0.715-0.223,1.122-0.668c0.493-0.588,0.73-1.193,0.716-1.812c0-0.234-0.051-0.404-0.148-0.508
		C49.762,31.812,49.625,31.76,49.455,31.76z"/>
	<path style="fill:#7A9E69;" d="M50.26,31.756c0,0,0.512-4.201-2.254-2.006l-0.217-0.477c0,0,3.055-2.195,3.055,1.432L50.26,31.756z
		"/>
	<path style="fill:#7A9E69;" d="M50.532,48.559l-1.04,4.834l-0.096,0.381c-0.012,0.035-0.014,0.066-0.014,0.094
		c0,0.039,0.007,0.074,0.027,0.105c0.017,0.021,0.037,0.033,0.061,0.033c0.025,0,0.059-0.018,0.101-0.061
		c0.074-0.076,0.182-0.24,0.31-0.496l0.142,0.102c-0.163,0.281-0.33,0.494-0.503,0.631c-0.172,0.137-0.332,0.207-0.477,0.207
		c-0.103,0-0.182-0.027-0.239-0.092c-0.054-0.062-0.082-0.148-0.082-0.262c0-0.141,0.03-0.318,0.093-0.545l0.089-0.303
		c-0.4,0.475-0.771,0.807-1.107,0.996c-0.239,0.135-0.479,0.205-0.712,0.205c-0.221,0-0.414-0.084-0.577-0.252
		c-0.165-0.168-0.244-0.395-0.244-0.688c0-0.441,0.145-0.9,0.433-1.387c0.291-0.49,0.656-0.881,1.099-1.174
		c0.349-0.227,0.677-0.344,0.983-0.344c0.185,0,0.338,0.037,0.463,0.121c0.121,0.084,0.215,0.219,0.277,0.41l0.367-2.416
		L50.532,48.559z M48.762,50.76c-0.195,0-0.402,0.08-0.621,0.246c-0.308,0.234-0.584,0.582-0.824,1.041
		c-0.244,0.459-0.365,0.875-0.365,1.248c0,0.188,0.059,0.334,0.161,0.441c0.109,0.111,0.229,0.168,0.369,0.168
		c0.343,0,0.717-0.223,1.122-0.666c0.493-0.59,0.732-1.195,0.717-1.814c0-0.232-0.049-0.402-0.151-0.51
		C49.071,50.811,48.934,50.76,48.762,50.76z"/>
	<path style="fill:#7A9E69;" d="M49.568,50.754c0,0,0.51-4.201-2.256-2.006l-0.219-0.477c0,0,3.055-2.195,3.055,1.432L49.568,50.754
		z"/>
	<polyline style="fill:#7A9E69;" points="92.488,30.588 97.441,42.621 91.781,53.238 	"/>
	<line style="fill:#7A9E69;" x1="65" y1="82.73" x2="76.326" y2="82.73"/>
	<line style="fill:#7A9E69;" x1="65" y1="85.914" x2="76.326" y2="85.914"/>
	<line style="fill:#7A9E69;" x1="20.408" y1="72.939" x2="20.408" y2="94.646"/>
	<path style="fill:#7A9E69;" d="M27.018,81.586l-0.656,2.279c0.668-0.93,1.18-1.545,1.536-1.838
		c0.355-0.295,0.698-0.441,1.023-0.441c0.182,0,0.33,0.062,0.444,0.182c0.116,0.123,0.175,0.281,0.175,0.479
		s-0.054,0.461-0.163,0.787l-0.684,2.074c-0.08,0.242-0.117,0.389-0.117,0.441c0,0.045,0.012,0.082,0.035,0.113
		s0.049,0.045,0.074,0.045c0.033,0,0.079-0.021,0.131-0.062c0.153-0.137,0.328-0.348,0.514-0.635l0.154,0.096
		c-0.296,0.436-0.575,0.746-0.838,0.928c-0.184,0.121-0.35,0.186-0.493,0.186c-0.121,0-0.214-0.037-0.282-0.111
		c-0.071-0.076-0.108-0.176-0.108-0.305c0-0.158,0.067-0.43,0.197-0.82l0.661-1.996c0.086-0.248,0.128-0.439,0.128-0.58
		c0-0.066-0.023-0.119-0.07-0.16c-0.046-0.045-0.104-0.062-0.175-0.062c-0.104,0-0.223,0.039-0.365,0.119
		c-0.268,0.148-0.546,0.395-0.84,0.734c-0.288,0.344-0.595,0.779-0.918,1.312c-0.17,0.279-0.312,0.586-0.424,0.924L25.72,86.1
		h-0.735l0.902-3.133c0.105-0.371,0.158-0.596,0.158-0.674c0-0.07-0.027-0.133-0.088-0.189c-0.056-0.055-0.131-0.084-0.214-0.084
		c-0.04,0-0.109,0.01-0.207,0.021l-0.188,0.031l-0.049-0.18L27.018,81.586z"/>
	<path style="fill:#7A9E69;" d="M87.182,84.217c-0.021,0.168-0.03,0.305-0.03,0.416c0,0.295,0.103,0.549,0.314,0.756
		c0.214,0.207,0.47,0.311,0.772,0.311c0.244,0,0.477-0.047,0.7-0.146c0.226-0.098,0.554-0.314,0.998-0.65l0.103,0.145
		c-0.787,0.781-1.533,1.172-2.246,1.172c-0.485,0-0.852-0.152-1.093-0.459c-0.247-0.305-0.368-0.643-0.368-1.01
		c0-0.498,0.151-1.006,0.456-1.521c0.305-0.52,0.687-0.922,1.147-1.213c0.458-0.285,0.936-0.43,1.419-0.43
		c0.356,0,0.612,0.072,0.784,0.213c0.165,0.145,0.251,0.312,0.251,0.51c0,0.277-0.109,0.539-0.333,0.791
		c-0.29,0.33-0.721,0.596-1.286,0.799C88.394,84.035,87.863,84.141,87.182,84.217z M87.219,83.975
		c0.498-0.057,0.905-0.154,1.219-0.289c0.412-0.184,0.727-0.402,0.934-0.652c0.207-0.256,0.312-0.496,0.312-0.727
		c0-0.141-0.044-0.252-0.135-0.338c-0.089-0.086-0.217-0.127-0.382-0.127c-0.344,0-0.709,0.176-1.096,0.539
		C87.684,82.738,87.398,83.27,87.219,83.975z"/>
	<path style="fill:#7A9E69;" d="M38.334,79.352l2.05,5.223l1.124-3.896c0.093-0.326,0.139-0.576,0.139-0.754
		c0-0.121-0.041-0.219-0.127-0.285c-0.089-0.07-0.25-0.105-0.482-0.105c-0.042,0-0.084-0.002-0.128-0.004l0.054-0.178h2.173
		l-0.061,0.178c-0.226-0.004-0.393,0.018-0.502,0.068c-0.156,0.07-0.272,0.158-0.347,0.271c-0.109,0.152-0.217,0.426-0.324,0.812
		l-1.607,5.57H40.16l-2.233-5.697l-1.214,4.209c-0.091,0.32-0.133,0.566-0.133,0.736c0,0.129,0.039,0.223,0.118,0.289
		c0.082,0.062,0.277,0.109,0.584,0.133L37.231,86.1h-2.152l0.069-0.178c0.266-0.008,0.445-0.027,0.533-0.064
		c0.138-0.055,0.237-0.127,0.305-0.215c0.096-0.133,0.205-0.393,0.321-0.777l1.387-4.793c-0.133-0.203-0.271-0.34-0.417-0.416
		c-0.148-0.076-0.379-0.115-0.688-0.127l0.054-0.178H38.334z"/>
	<path style="fill:#7A9E69;" d="M50.551,80.359l-0.402,1.348h0.684l-0.091,0.32h-0.688l-0.9,2.932
		c-0.116,0.332-0.175,0.553-0.175,0.648c0,0.055,0.012,0.096,0.037,0.123c0.023,0.029,0.052,0.043,0.084,0.043
		c0.074,0,0.17-0.055,0.289-0.166c0.071-0.066,0.229-0.271,0.475-0.611l0.162,0.123c-0.288,0.439-0.561,0.746-0.816,0.92
		c-0.172,0.121-0.352,0.18-0.53,0.18c-0.138,0-0.249-0.045-0.338-0.139c-0.088-0.088-0.132-0.209-0.132-0.35
		c0-0.182,0.056-0.455,0.17-0.822l0.872-2.881h-0.759l0.049-0.197c0.363-0.1,0.673-0.25,0.929-0.449
		c0.256-0.195,0.542-0.537,0.865-1.021H50.551z"/>
	<path style="fill:#7A9E69;" d="M31.794,84.076l-0.705,2.441c-0.039,0.143-0.058,0.248-0.058,0.312c0,0.055,0.019,0.098,0.054,0.125
		c0.039,0.027,0.125,0.047,0.263,0.055l-0.023,0.08h-1.119l0.028-0.08c0.12-0.002,0.2-0.01,0.234-0.025
		c0.063-0.027,0.109-0.062,0.14-0.104c0.045-0.07,0.096-0.191,0.146-0.363l0.505-1.76c0.028-0.102,0.047-0.162,0.052-0.18
		c0-0.029,0.004-0.057,0.004-0.08c0-0.057-0.014-0.094-0.041-0.121c-0.028-0.033-0.068-0.047-0.114-0.047
		c-0.037,0-0.096,0.01-0.177,0.029l-0.028-0.08l0.735-0.203H31.794z"/>
	<path style="fill:#7A9E69;" d="M43.476,84.076l-0.705,2.441c-0.042,0.143-0.061,0.248-0.061,0.312c0,0.055,0.019,0.098,0.054,0.125
		c0.039,0.027,0.126,0.047,0.261,0.055l-0.021,0.08h-1.121l0.03-0.08c0.119-0.002,0.2-0.01,0.235-0.025
		c0.062-0.027,0.106-0.062,0.137-0.104c0.047-0.07,0.098-0.191,0.146-0.363l0.505-1.76c0.03-0.102,0.049-0.162,0.052-0.18
		c0.002-0.029,0.005-0.057,0.005-0.08c0-0.057-0.012-0.094-0.04-0.121c-0.025-0.033-0.065-0.047-0.114-0.047
		c-0.037,0-0.098,0.01-0.177,0.029l-0.027-0.08l0.734-0.203H43.476z"/>
	<polyline style="fill:#7A9E69;" points="53.203,71.996 58.158,84.027 52.495,94.646 	"/>
	<path style="fill:#7A9E69;" d="M122.828,41.635h4.312l0.658-2.297c0.128-0.447,0.19-0.795,0.19-1.043
		c0-0.117-0.027-0.221-0.086-0.305c-0.056-0.084-0.144-0.148-0.26-0.188c-0.119-0.043-0.354-0.061-0.696-0.061l0.067-0.244h3.709
		l-0.084,0.244c-0.314-0.008-0.547,0.025-0.705,0.096c-0.217,0.098-0.377,0.223-0.481,0.371c-0.149,0.219-0.303,0.596-0.458,1.143
		l-1.657,5.734c-0.132,0.424-0.204,0.727-0.204,0.91c0,0.16,0.061,0.277,0.182,0.361c0.121,0.078,0.409,0.135,0.862,0.162
		l-0.074,0.246h-3.557l0.095-0.246c0.356-0.006,0.591-0.039,0.71-0.092c0.182-0.084,0.313-0.189,0.397-0.316
		c0.116-0.18,0.261-0.568,0.436-1.168l0.823-2.844h-4.313l-0.86,2.986c-0.135,0.414-0.2,0.721-0.2,0.91
		c0,0.16,0.061,0.277,0.177,0.361c0.118,0.078,0.407,0.135,0.863,0.162l-0.059,0.246h-3.583l0.089-0.246
		c0.36-0.006,0.598-0.039,0.714-0.092c0.184-0.084,0.316-0.189,0.405-0.316c0.116-0.188,0.265-0.578,0.438-1.168l1.612-5.607
		c0.133-0.457,0.2-0.801,0.2-1.041c0-0.117-0.03-0.221-0.087-0.305c-0.058-0.084-0.144-0.148-0.268-0.188
		c-0.12-0.043-0.354-0.061-0.704-0.061l0.081-0.244h3.648l-0.075,0.244c-0.305-0.008-0.532,0.025-0.677,0.096
		c-0.212,0.092-0.37,0.213-0.473,0.365c-0.137,0.201-0.283,0.584-0.446,1.145L122.828,41.635z"/>
	<path style="fill:#7A9E69;" d="M132.567,44.57l-0.121,0.061c-0.312-0.596-0.537-1.119-0.673-1.574
		c-0.104-0.357-0.158-0.715-0.158-1.078c0-0.844,0.196-1.6,0.587-2.268c0.481-0.816,1.259-1.613,2.333-2.391l0.089,0.141
		c-0.486,0.357-0.882,0.758-1.188,1.205c-0.385,0.555-0.701,1.223-0.942,2.01c-0.245,0.787-0.368,1.502-0.368,2.15
		C132.125,43.314,132.271,43.898,132.567,44.57z"/>
	<path style="fill:#7A9E69;" d="M136.543,37.465c0.336,0,0.617,0.141,0.843,0.42c0.23,0.283,0.344,0.725,0.344,1.33
		c0,0.521-0.081,1.049-0.253,1.592c-0.17,0.539-0.41,1.01-0.717,1.404c-0.247,0.312-0.503,0.537-0.772,0.678
		c-0.156,0.076-0.337,0.115-0.544,0.115c-0.34,0-0.624-0.139-0.852-0.418c-0.229-0.281-0.347-0.729-0.347-1.336
		c0-0.6,0.118-1.205,0.349-1.811c0.268-0.707,0.614-1.246,1.03-1.611C135.896,37.586,136.203,37.465,136.543,37.465z
		 M136.553,37.674c-0.153,0-0.307,0.061-0.463,0.182c-0.153,0.117-0.319,0.365-0.481,0.744c-0.168,0.377-0.326,0.863-0.479,1.457
		c-0.195,0.779-0.296,1.443-0.296,1.992c0,0.271,0.059,0.475,0.177,0.609c0.117,0.137,0.261,0.205,0.431,0.205
		c0.158,0,0.296-0.055,0.407-0.158c0.303-0.285,0.559-0.768,0.774-1.453c0.35-1.115,0.523-2.027,0.523-2.729
		c0-0.291-0.058-0.504-0.177-0.643C136.851,37.744,136.713,37.674,136.553,37.674z"/>
	<path style="fill:#7A9E69;" d="M138.953,37.395l0.124-0.074c0.312,0.592,0.535,1.117,0.667,1.574
		c0.107,0.355,0.163,0.715,0.163,1.076c0,0.848-0.197,1.604-0.586,2.266c-0.484,0.822-1.261,1.617-2.334,2.395l-0.088-0.121
		c0.486-0.363,0.879-0.764,1.191-1.207c0.384-0.557,0.697-1.227,0.939-2.014c0.244-0.787,0.368-1.502,0.368-2.148
		C139.398,38.646,139.249,38.064,138.953,37.395z"/>
	<line style="fill:#7A9E69;" x1="15.334" y1="124.844" x2="26.659" y2="124.844"/>
	<line style="fill:#7A9E69;" x1="29.963" y1="124.844" x2="41.289" y2="124.844"/>
	<line style="fill:#7A9E69;" x1="104.284" y1="123.783" x2="115.609" y2="123.783"/>
	<line style="fill:#7A9E69;" x1="104.284" y1="126.969" x2="115.609" y2="126.969"/>
	<line style="fill:#7A9E69;" x1="44.592" y1="124.844" x2="55.916" y2="124.844"/>
	<line style="fill:#7A9E69;" x1="59.691" y1="113.992" x2="59.691" y2="135.697"/>
	<line style="fill:#7A9E69;" x1="144.274" y1="113.992" x2="144.274" y2="135.697"/>
	<path style="fill:#7A9E69;" d="M36.254,110.164l-1.405,4.869c0.651-0.928,1.156-1.543,1.52-1.848
		c0.365-0.305,0.714-0.455,1.047-0.455c0.167,0,0.314,0.059,0.428,0.184c0.114,0.117,0.17,0.279,0.17,0.482
		c0,0.219-0.051,0.48-0.155,0.787l-0.685,2.068c-0.086,0.252-0.126,0.389-0.126,0.414c0,0.045,0.012,0.082,0.035,0.109
		c0.025,0.031,0.057,0.045,0.086,0.045c0.04,0,0.084-0.021,0.136-0.062c0.165-0.143,0.335-0.344,0.497-0.605l0.156,0.098
		c-0.109,0.176-0.258,0.365-0.449,0.57c-0.193,0.207-0.355,0.348-0.493,0.426c-0.137,0.08-0.258,0.117-0.367,0.117
		c-0.116,0-0.212-0.037-0.286-0.117c-0.074-0.078-0.112-0.182-0.112-0.303c0-0.148,0.067-0.418,0.198-0.816l0.658-1.994
		c0.084-0.248,0.123-0.443,0.123-0.586c0-0.066-0.021-0.121-0.067-0.16c-0.044-0.039-0.104-0.059-0.177-0.059
		c-0.106,0-0.228,0.035-0.362,0.107c-0.247,0.139-0.531,0.395-0.856,0.777c-0.086,0.102-0.377,0.516-0.875,1.242
		c-0.153,0.232-0.274,0.484-0.37,0.758l-0.31,1.029h-0.734l1.646-5.705l0.175-0.615c0-0.086-0.037-0.162-0.109-0.23
		c-0.069-0.062-0.16-0.098-0.263-0.098c-0.062,0-0.156,0.01-0.284,0.031l-0.104,0.014v-0.197L36.254,110.164z"/>
	<path style="fill:#7A9E69;" d="M54.089,130.26l-0.402,1.35h0.687l-0.091,0.316h-0.693l-0.897,2.938
		c-0.117,0.332-0.175,0.549-0.175,0.646c0,0.053,0.014,0.096,0.037,0.123c0.023,0.029,0.051,0.045,0.086,0.045
		c0.072,0,0.168-0.057,0.288-0.168c0.07-0.068,0.229-0.27,0.471-0.615l0.167,0.127c-0.288,0.439-0.561,0.746-0.818,0.92
		c-0.175,0.121-0.352,0.18-0.53,0.18c-0.138,0-0.252-0.045-0.34-0.137c-0.086-0.092-0.128-0.213-0.128-0.354
		c0-0.18,0.054-0.451,0.165-0.82l0.872-2.885H52.03l0.047-0.195c0.367-0.102,0.677-0.25,0.933-0.445
		c0.254-0.201,0.542-0.541,0.863-1.025H54.089z"/>
	<path style="fill:#7A9E69;" d="M66.301,122.639l-0.653,2.281c0.665-0.932,1.18-1.545,1.53-1.838
		c0.358-0.295,0.701-0.443,1.031-0.443c0.177,0,0.325,0.061,0.441,0.182c0.114,0.125,0.175,0.283,0.175,0.479
		c0,0.197-0.056,0.459-0.163,0.791l-0.684,2.074c-0.079,0.24-0.119,0.387-0.119,0.439c0,0.045,0.012,0.082,0.035,0.111
		c0.023,0.031,0.049,0.047,0.074,0.047c0.038,0,0.082-0.021,0.131-0.062c0.158-0.137,0.328-0.348,0.512-0.635l0.156,0.094
		c-0.296,0.438-0.572,0.748-0.838,0.93c-0.184,0.121-0.349,0.186-0.493,0.186c-0.119,0-0.212-0.037-0.284-0.111
		c-0.067-0.08-0.103-0.178-0.103-0.303c0-0.16,0.065-0.436,0.193-0.822l0.663-1.998c0.084-0.246,0.126-0.441,0.126-0.576
		c0-0.07-0.023-0.121-0.07-0.164c-0.046-0.041-0.106-0.059-0.177-0.059c-0.098,0-0.221,0.037-0.362,0.115
		c-0.271,0.148-0.547,0.393-0.838,0.734c-0.288,0.344-0.598,0.781-0.919,1.312c-0.17,0.279-0.314,0.59-0.426,0.924l-0.237,0.826
		h-0.735l0.902-3.131c0.105-0.373,0.158-0.596,0.158-0.674c0-0.07-0.029-0.137-0.088-0.188c-0.056-0.057-0.128-0.084-0.214-0.084
		c-0.04,0-0.109,0.006-0.207,0.02l-0.187,0.029l-0.049-0.176L66.301,122.639z"/>
	<path style="fill:#7A9E69;" d="M77.617,120.406l2.05,5.223l1.126-3.895c0.093-0.328,0.14-0.58,0.14-0.756
		c0-0.121-0.044-0.219-0.13-0.289c-0.087-0.07-0.249-0.102-0.484-0.102c-0.039,0-0.081,0-0.121-0.006l0.054-0.176h2.171
		l-0.063,0.176c-0.226-0.004-0.391,0.02-0.502,0.07c-0.156,0.07-0.272,0.16-0.35,0.27c-0.104,0.154-0.211,0.428-0.32,0.816
		l-1.608,5.568h-0.13l-2.235-5.695l-1.215,4.205c-0.091,0.322-0.135,0.568-0.135,0.738c0,0.127,0.042,0.221,0.123,0.285
		c0.079,0.066,0.274,0.109,0.579,0.137l-0.049,0.176h-2.151l0.069-0.176c0.263-0.008,0.439-0.029,0.533-0.066
		c0.135-0.055,0.237-0.125,0.302-0.213c0.098-0.135,0.203-0.393,0.326-0.777l1.382-4.795c-0.128-0.201-0.27-0.34-0.414-0.414
		c-0.149-0.078-0.377-0.119-0.691-0.129l0.056-0.176H77.617z"/>
	<path style="fill:#7A9E69;" d="M89.836,121.41l-0.404,1.35h0.684l-0.086,0.322h-0.693l-0.9,2.93
		c-0.114,0.336-0.172,0.551-0.172,0.65c0,0.053,0.012,0.096,0.035,0.123c0.022,0.027,0.051,0.041,0.086,0.041
		c0.072,0,0.17-0.051,0.288-0.164c0.069-0.066,0.228-0.273,0.473-0.613l0.162,0.125c-0.286,0.439-0.558,0.746-0.816,0.918
		c-0.175,0.121-0.351,0.182-0.53,0.182c-0.137,0-0.249-0.047-0.337-0.135c-0.089-0.096-0.136-0.215-0.136-0.354
		c0-0.182,0.059-0.453,0.17-0.824l0.875-2.879h-0.758l0.049-0.201c0.365-0.102,0.674-0.252,0.93-0.443
		c0.252-0.199,0.543-0.541,0.863-1.027H89.836z"/>
	<path style="fill:#7A9E69;" d="M71.077,125.129l-0.7,2.441c-0.042,0.145-0.062,0.25-0.062,0.312c0,0.053,0.019,0.098,0.056,0.125
		c0.037,0.029,0.123,0.047,0.261,0.057l-0.023,0.08h-1.119l0.03-0.08c0.119-0.002,0.198-0.012,0.235-0.027
		c0.058-0.029,0.104-0.061,0.135-0.107c0.049-0.064,0.1-0.186,0.146-0.359l0.507-1.756c0.03-0.104,0.047-0.164,0.049-0.182
		c0.005-0.029,0.007-0.059,0.007-0.086c0-0.051-0.014-0.088-0.041-0.115c-0.028-0.033-0.063-0.047-0.112-0.047
		c-0.039,0-0.1,0.01-0.177,0.027l-0.03-0.078l0.735-0.205H71.077z"/>
	<path style="fill:#7A9E69;" d="M82.759,125.129l-0.705,2.441c-0.039,0.145-0.062,0.25-0.062,0.312c0,0.053,0.021,0.098,0.058,0.125
		c0.035,0.029,0.124,0.047,0.259,0.057l-0.021,0.08h-1.119l0.027-0.08c0.121-0.002,0.198-0.012,0.237-0.027
		c0.061-0.029,0.104-0.061,0.138-0.107c0.049-0.064,0.095-0.186,0.146-0.359l0.502-1.756c0.033-0.104,0.047-0.164,0.054-0.182
		c0.005-0.029,0.005-0.059,0.005-0.086c0-0.051-0.014-0.088-0.042-0.115c-0.028-0.033-0.065-0.047-0.111-0.047
		c-0.04,0-0.098,0.01-0.18,0.027l-0.027-0.078l0.735-0.205H82.759z"/>
	<path style="fill:#7A9E69;" d="M33.181,132.547c0.13,0.166,0.293,0.244,0.486,0.244c0.079,0,0.235-0.031,0.468-0.102
		c0.232-0.064,0.381-0.102,0.441-0.115c0.117-0.018,0.252-0.027,0.396-0.027c0.502,0,0.914,0.115,1.232,0.334
		c0.318,0.223,0.477,0.492,0.477,0.814c0,0.174-0.058,0.348-0.172,0.525c-0.116,0.174-0.374,0.438-0.779,0.785
		c-0.407,0.352-0.675,0.629-0.798,0.83c-0.072,0.109-0.109,0.232-0.109,0.361c0,0.205,0.104,0.383,0.308,0.52
		c0.199,0.143,0.475,0.211,0.823,0.211c0.453,0,0.81-0.102,1.072-0.311c0.259-0.207,0.4-0.559,0.431-1.061h0.242l0.421,1.613h-0.251
		c-0.105-0.146-0.261-0.219-0.466-0.219c-0.079,0-0.195,0.02-0.347,0.057c-0.426,0.109-0.803,0.162-1.128,0.162
		c-0.601,0-1.099-0.135-1.489-0.4c-0.391-0.27-0.586-0.574-0.586-0.92c0-0.215,0.083-0.439,0.253-0.678
		c0.168-0.24,0.542-0.596,1.124-1.068c0.219-0.178,0.36-0.318,0.426-0.418c0.062-0.104,0.098-0.205,0.098-0.316
		c0-0.158-0.084-0.293-0.249-0.408c-0.163-0.113-0.384-0.17-0.663-0.17c-0.344,0-0.638,0.104-0.87,0.309
		c-0.237,0.205-0.363,0.527-0.384,0.975h-0.246l-0.419-1.527H33.181z"/>
	<path style="fill:#7A9E69;" d="M51.228,112.021l-1.042,4.834l-0.096,0.381c-0.012,0.035-0.017,0.068-0.017,0.094
		c0,0.039,0.012,0.074,0.028,0.105c0.017,0.02,0.037,0.033,0.062,0.033c0.023,0,0.059-0.02,0.101-0.061
		c0.076-0.074,0.179-0.24,0.31-0.494l0.142,0.1c-0.165,0.283-0.33,0.492-0.503,0.633c-0.172,0.135-0.332,0.205-0.479,0.205
		c-0.103,0-0.18-0.033-0.238-0.09c-0.051-0.062-0.081-0.148-0.081-0.264c0-0.135,0.032-0.32,0.093-0.545l0.087-0.301
		c-0.4,0.473-0.771,0.809-1.104,0.994c-0.244,0.135-0.481,0.205-0.714,0.205c-0.224,0-0.416-0.084-0.579-0.252
		c-0.161-0.164-0.242-0.395-0.242-0.688c0-0.438,0.145-0.898,0.433-1.387c0.289-0.49,0.656-0.881,1.101-1.172
		c0.347-0.23,0.675-0.346,0.981-0.346c0.187,0,0.338,0.041,0.461,0.123s0.217,0.217,0.279,0.408l0.365-2.416L51.228,112.021z
		 M49.455,114.223c-0.198,0-0.402,0.082-0.621,0.246c-0.31,0.236-0.584,0.582-0.824,1.041c-0.244,0.461-0.362,0.875-0.362,1.248
		c0,0.188,0.053,0.334,0.16,0.443c0.104,0.109,0.23,0.166,0.367,0.166c0.343,0,0.715-0.223,1.122-0.668
		c0.493-0.588,0.73-1.193,0.716-1.812c0-0.236-0.051-0.404-0.148-0.506C49.762,114.273,49.625,114.223,49.455,114.223z"/>
	<path style="fill:#7A9E69;" d="M50.26,114.217c0,0,0.512-4.201-2.254-2.006l-0.217-0.479c0,0,3.055-2.193,3.055,1.434
		L50.26,114.217z"/>
	<path style="fill:#7A9E69;" d="M50.532,131.02l-1.04,4.834l-0.096,0.381c-0.012,0.035-0.014,0.066-0.014,0.094
		c0,0.037,0.007,0.074,0.027,0.105c0.017,0.023,0.037,0.035,0.061,0.035c0.025,0,0.059-0.023,0.101-0.061
		c0.074-0.078,0.182-0.242,0.31-0.498l0.142,0.102c-0.163,0.283-0.33,0.494-0.503,0.631c-0.172,0.137-0.332,0.207-0.477,0.207
		c-0.103,0-0.182-0.031-0.239-0.092c-0.054-0.062-0.082-0.15-0.082-0.262c0-0.141,0.03-0.316,0.093-0.543l0.089-0.303
		c-0.4,0.475-0.771,0.807-1.107,0.994c-0.239,0.135-0.479,0.205-0.712,0.205c-0.221,0-0.414-0.084-0.577-0.252
		c-0.165-0.168-0.244-0.395-0.244-0.688c0-0.439,0.145-0.904,0.433-1.389c0.291-0.486,0.656-0.879,1.099-1.168
		c0.349-0.23,0.677-0.348,0.983-0.348c0.185,0,0.338,0.039,0.463,0.121c0.121,0.084,0.215,0.219,0.277,0.406l0.367-2.412
		L50.532,131.02z M48.762,133.221c-0.195,0-0.402,0.084-0.621,0.246c-0.308,0.234-0.584,0.582-0.824,1.043
		c-0.244,0.459-0.365,0.873-0.365,1.246c0,0.186,0.059,0.336,0.161,0.441c0.109,0.113,0.229,0.166,0.369,0.166
		c0.343,0,0.717-0.221,1.122-0.666c0.493-0.588,0.732-1.193,0.717-1.812c0-0.234-0.049-0.404-0.151-0.51
		C49.071,133.271,48.934,133.221,48.762,133.221z"/>
	<path style="fill:#7A9E69;" d="M49.568,133.215c0,0,0.51-4.201-2.256-2.006l-0.219-0.479c0,0,3.055-2.191,3.055,1.434
		L49.568,133.215z"/>
	<polyline style="fill:#7A9E69;" points="92.488,113.049 97.441,125.082 91.781,135.697 	"/>
	<path style="fill:#7A9E69;" d="M122.828,124.096h4.312l0.658-2.297c0.128-0.449,0.19-0.795,0.19-1.039
		c0-0.121-0.027-0.225-0.086-0.309c-0.056-0.082-0.144-0.148-0.26-0.188c-0.119-0.039-0.354-0.062-0.696-0.062l0.067-0.242h3.709
		l-0.084,0.242c-0.314-0.002-0.547,0.029-0.705,0.098c-0.217,0.098-0.377,0.223-0.481,0.371c-0.149,0.219-0.303,0.6-0.458,1.143
		l-1.657,5.73c-0.132,0.428-0.204,0.73-0.204,0.918c0,0.158,0.061,0.273,0.182,0.357c0.121,0.082,0.409,0.135,0.862,0.168
		l-0.074,0.242h-3.557l0.095-0.242c0.356-0.012,0.591-0.045,0.71-0.098c0.182-0.084,0.313-0.188,0.397-0.316
		c0.116-0.18,0.261-0.568,0.436-1.168l0.823-2.846h-4.313l-0.86,2.984c-0.135,0.42-0.2,0.725-0.2,0.918
		c0,0.158,0.061,0.273,0.177,0.357c0.118,0.082,0.407,0.135,0.863,0.168l-0.059,0.242h-3.583l0.089-0.242
		c0.36-0.012,0.598-0.045,0.714-0.098c0.184-0.084,0.316-0.188,0.405-0.316c0.116-0.188,0.265-0.578,0.438-1.168l1.612-5.607
		c0.133-0.455,0.2-0.803,0.2-1.043c0-0.115-0.03-0.219-0.087-0.303c-0.058-0.082-0.144-0.148-0.268-0.188
		c-0.12-0.039-0.354-0.062-0.704-0.062l0.081-0.242h3.648l-0.075,0.242c-0.305-0.002-0.532,0.029-0.677,0.098
		c-0.212,0.094-0.37,0.213-0.473,0.367c-0.137,0.201-0.283,0.582-0.446,1.143L122.828,124.096z"/>
	<path style="fill:#7A9E69;" d="M132.567,127.031l-0.121,0.061c-0.312-0.594-0.537-1.121-0.673-1.572
		c-0.104-0.359-0.158-0.717-0.158-1.08c0-0.842,0.196-1.6,0.587-2.266c0.481-0.818,1.259-1.615,2.333-2.393l0.089,0.139
		c-0.486,0.359-0.882,0.76-1.188,1.207c-0.385,0.553-0.701,1.223-0.942,2.012c-0.245,0.785-0.368,1.502-0.368,2.148
		C132.125,125.775,132.271,126.357,132.567,127.031z"/>
	<path style="fill:#7A9E69;" d="M136.543,119.926c0.336,0,0.617,0.141,0.843,0.424c0.23,0.279,0.344,0.721,0.344,1.326
		c0,0.521-0.081,1.051-0.253,1.592c-0.17,0.539-0.41,1.01-0.717,1.404c-0.247,0.312-0.503,0.541-0.772,0.678
		c-0.156,0.076-0.337,0.119-0.544,0.119c-0.34,0-0.624-0.143-0.852-0.424c-0.229-0.279-0.347-0.727-0.347-1.33
		c0-0.602,0.118-1.207,0.349-1.812c0.268-0.711,0.614-1.246,1.03-1.613C135.896,120.047,136.203,119.926,136.543,119.926z
		 M136.553,120.139c-0.153,0-0.307,0.057-0.463,0.176c-0.153,0.119-0.319,0.371-0.481,0.748c-0.168,0.377-0.326,0.859-0.479,1.455
		c-0.195,0.779-0.296,1.443-0.296,1.992c0,0.271,0.059,0.475,0.177,0.609c0.117,0.135,0.261,0.205,0.431,0.205
		c0.158,0,0.296-0.051,0.407-0.158c0.303-0.281,0.559-0.766,0.774-1.451c0.35-1.117,0.523-2.027,0.523-2.732
		c0-0.289-0.058-0.502-0.177-0.637C136.851,120.205,136.713,120.139,136.553,120.139z"/>
	<path style="fill:#7A9E69;" d="M138.953,119.857l0.124-0.076c0.312,0.592,0.535,1.117,0.667,1.574
		c0.107,0.355,0.163,0.713,0.163,1.076c0,0.846-0.197,1.604-0.586,2.27c-0.484,0.818-1.261,1.615-2.334,2.391l-0.088-0.121
		c0.486-0.363,0.879-0.764,1.191-1.205c0.384-0.559,0.697-1.229,0.939-2.014c0.244-0.789,0.368-1.504,0.368-2.15
		C139.398,121.111,139.249,120.529,138.953,119.857z"/>
	<line style="fill:#7A9E69;" x1="189.223" y1="41.322" x2="200.548" y2="41.322"/>
	<line style="fill:#7A9E69;" x1="189.223" y1="44.506" x2="200.548" y2="44.506"/>
	<path style="fill:#7A9E69;" d="M151.24,40.178l-0.656,2.279c0.67-0.93,1.18-1.545,1.533-1.84c0.358-0.293,0.7-0.439,1.03-0.439
		c0.177,0,0.326,0.061,0.44,0.184c0.118,0.121,0.177,0.281,0.177,0.475c0,0.197-0.057,0.463-0.166,0.791l-0.684,2.074
		c-0.077,0.24-0.116,0.387-0.116,0.441c0,0.041,0.012,0.078,0.035,0.111c0.023,0.029,0.051,0.047,0.074,0.047
		c0.035,0,0.081-0.023,0.13-0.061c0.156-0.141,0.328-0.35,0.515-0.639l0.153,0.094c-0.296,0.438-0.574,0.75-0.838,0.932
		c-0.184,0.121-0.349,0.186-0.493,0.186c-0.121,0-0.214-0.037-0.283-0.111c-0.07-0.08-0.103-0.178-0.103-0.303
		c0-0.158,0.065-0.434,0.19-0.822l0.663-1.998c0.089-0.246,0.128-0.439,0.128-0.582c0-0.064-0.023-0.117-0.069-0.16
		c-0.047-0.039-0.107-0.061-0.175-0.061c-0.103,0-0.224,0.039-0.365,0.119c-0.27,0.148-0.549,0.395-0.84,0.734
		c-0.286,0.346-0.596,0.783-0.919,1.312c-0.168,0.281-0.312,0.59-0.424,0.922l-0.237,0.828h-0.734l0.902-3.131
		c0.104-0.373,0.158-0.596,0.158-0.674c0-0.072-0.028-0.137-0.089-0.188c-0.056-0.057-0.128-0.084-0.214-0.084
		c-0.039,0-0.109,0.004-0.207,0.02l-0.186,0.027l-0.049-0.176L151.24,40.178z"/>
	<path style="fill:#7A9E69;" d="M162.557,37.945l2.049,5.223l1.126-3.896c0.094-0.326,0.14-0.578,0.14-0.754
		c0-0.121-0.044-0.217-0.13-0.287c-0.089-0.072-0.249-0.105-0.484-0.105c-0.039,0-0.081-0.002-0.125-0.004l0.056-0.176h2.171
		l-0.061,0.176c-0.224-0.004-0.394,0.02-0.503,0.07c-0.153,0.07-0.272,0.158-0.349,0.27c-0.107,0.154-0.212,0.428-0.321,0.814
		l-1.607,5.57h-0.133l-2.233-5.695l-1.217,4.205c-0.089,0.322-0.133,0.566-0.133,0.736c0,0.127,0.04,0.223,0.121,0.287
		c0.081,0.066,0.274,0.113,0.582,0.135l-0.049,0.178h-2.152l0.069-0.178c0.264-0.008,0.442-0.029,0.531-0.064
		c0.137-0.057,0.237-0.125,0.305-0.215c0.098-0.135,0.204-0.391,0.325-0.775l1.382-4.793c-0.128-0.203-0.265-0.342-0.416-0.42
		c-0.146-0.072-0.379-0.115-0.688-0.125l0.054-0.176H162.557z"/>
	<path style="fill:#7A9E69;" d="M174.772,38.949l-0.399,1.35h0.684l-0.089,0.32h-0.693l-0.899,2.934
		c-0.114,0.334-0.175,0.551-0.175,0.645c0,0.057,0.014,0.098,0.037,0.127c0.025,0.027,0.051,0.041,0.086,0.041
		c0.072,0,0.168-0.053,0.288-0.168c0.07-0.064,0.229-0.268,0.473-0.609l0.165,0.127c-0.288,0.438-0.561,0.744-0.818,0.916
		c-0.173,0.121-0.352,0.182-0.528,0.182c-0.14,0-0.252-0.047-0.34-0.141c-0.088-0.09-0.133-0.203-0.133-0.35
		c0-0.18,0.056-0.455,0.17-0.822l0.873-2.881h-0.759l0.049-0.195c0.365-0.104,0.675-0.254,0.929-0.449
		c0.256-0.197,0.544-0.539,0.865-1.025H174.772z"/>
	<path style="fill:#7A9E69;" d="M156.019,42.668l-0.705,2.439c-0.039,0.146-0.061,0.252-0.061,0.314
		c0,0.053,0.021,0.098,0.054,0.123c0.04,0.031,0.123,0.049,0.263,0.059l-0.022,0.076h-1.119l0.029-0.076
		c0.119,0,0.198-0.012,0.233-0.027c0.062-0.027,0.109-0.061,0.14-0.105c0.049-0.068,0.098-0.188,0.146-0.363l0.505-1.756
		c0.027-0.104,0.046-0.164,0.049-0.182c0.005-0.027,0.009-0.057,0.009-0.084c0-0.049-0.016-0.088-0.042-0.121
		c-0.03-0.025-0.067-0.041-0.113-0.041c-0.04,0-0.101,0.008-0.18,0.027l-0.025-0.08l0.735-0.203H156.019z"/>
	<path style="fill:#7A9E69;" d="M167.697,42.668l-0.704,2.439c-0.042,0.146-0.061,0.252-0.061,0.314
		c0,0.053,0.019,0.098,0.056,0.123c0.037,0.031,0.123,0.049,0.261,0.059l-0.023,0.076h-1.119l0.028-0.076
		c0.121,0,0.199-0.012,0.236-0.027c0.061-0.027,0.105-0.061,0.138-0.105c0.047-0.068,0.096-0.188,0.145-0.363l0.505-1.756
		c0.032-0.104,0.049-0.164,0.051-0.182c0.005-0.027,0.007-0.057,0.007-0.084c0-0.049-0.014-0.088-0.039-0.121
		c-0.028-0.025-0.067-0.041-0.116-0.041c-0.04,0-0.096,0.008-0.177,0.027l-0.028-0.08l0.735-0.203H167.697z"/>
	<line style="fill:#7A9E69;" x1="133.305" y1="72.229" x2="133.305" y2="93.938"/>
	<path style="fill:#7A9E69;" d="M140.271,80.879l-0.658,2.279c0.67-0.934,1.182-1.545,1.535-1.838
		c0.358-0.295,0.7-0.441,1.026-0.441c0.179,0,0.328,0.061,0.444,0.18c0.116,0.127,0.172,0.285,0.172,0.48s-0.054,0.455-0.16,0.789
		l-0.685,2.074c-0.079,0.24-0.118,0.385-0.118,0.438c0,0.045,0.009,0.082,0.037,0.113c0.023,0.029,0.049,0.047,0.074,0.047
		c0.037,0,0.077-0.023,0.13-0.064c0.154-0.135,0.326-0.348,0.513-0.633l0.155,0.094c-0.295,0.438-0.574,0.746-0.838,0.93
		c-0.186,0.121-0.349,0.186-0.497,0.186c-0.116,0-0.21-0.037-0.279-0.111c-0.07-0.076-0.107-0.176-0.107-0.305
		c0-0.16,0.067-0.436,0.198-0.818l0.66-1.998c0.086-0.248,0.126-0.443,0.126-0.582c0-0.066-0.023-0.117-0.072-0.158
		c-0.046-0.043-0.103-0.062-0.172-0.062c-0.103,0-0.224,0.039-0.363,0.117c-0.27,0.15-0.549,0.396-0.84,0.736
		c-0.291,0.342-0.596,0.777-0.919,1.312c-0.17,0.279-0.312,0.588-0.426,0.92l-0.234,0.828h-0.74l0.905-3.131
		c0.106-0.371,0.158-0.598,0.158-0.674c0-0.07-0.028-0.135-0.089-0.191c-0.056-0.051-0.125-0.08-0.212-0.08
		c-0.042,0-0.109,0.006-0.209,0.02l-0.188,0.027l-0.049-0.174L140.271,80.879z"/>
	<path style="fill:#7A9E69;" d="M151.587,78.645l2.047,5.221l1.126-3.895c0.091-0.326,0.138-0.574,0.138-0.754
		c0-0.121-0.042-0.219-0.128-0.289c-0.086-0.068-0.247-0.102-0.481-0.102c-0.042,0-0.082-0.002-0.128-0.004l0.058-0.178h2.169
		l-0.061,0.178c-0.227-0.004-0.392,0.018-0.501,0.068c-0.158,0.07-0.271,0.158-0.349,0.268c-0.107,0.156-0.217,0.432-0.323,0.816
		l-1.605,5.57h-0.135l-2.233-5.695l-1.215,4.207c-0.091,0.32-0.135,0.564-0.135,0.734c0,0.129,0.042,0.223,0.126,0.289
		c0.076,0.064,0.27,0.107,0.577,0.135l-0.049,0.176h-2.155l0.07-0.176c0.268-0.01,0.446-0.027,0.535-0.064
		c0.137-0.057,0.237-0.127,0.305-0.215c0.093-0.135,0.202-0.393,0.321-0.777l1.384-4.795c-0.128-0.199-0.268-0.342-0.414-0.414
		c-0.148-0.076-0.379-0.119-0.693-0.127l0.056-0.178H151.587z"/>
	<path style="fill:#7A9E69;" d="M145.047,83.367l-0.705,2.443c-0.037,0.145-0.059,0.246-0.059,0.311c0,0.057,0.02,0.098,0.054,0.127
		c0.037,0.027,0.126,0.047,0.259,0.055l-0.019,0.08h-1.124l0.032-0.08c0.119-0.004,0.196-0.014,0.235-0.027
		c0.061-0.027,0.107-0.061,0.137-0.105c0.047-0.066,0.096-0.188,0.147-0.359l0.505-1.756c0.029-0.107,0.046-0.168,0.051-0.182
		c0.002-0.031,0.005-0.059,0.005-0.086c0-0.053-0.012-0.092-0.04-0.119c-0.03-0.031-0.064-0.045-0.116-0.045
		c-0.037,0-0.095,0.01-0.175,0.025l-0.029-0.076l0.737-0.205H145.047z"/>
	<path style="fill:#7A9E69;" d="M156.01,83.428h0.986l-0.098,0.361h-0.896l-0.158,0.363c0.237,0.037,0.419,0.109,0.552,0.221
		c0.202,0.166,0.303,0.404,0.303,0.709c0,0.203-0.035,0.385-0.114,0.547c-0.072,0.162-0.163,0.301-0.272,0.41
		c-0.104,0.111-0.221,0.199-0.347,0.26c-0.167,0.088-0.337,0.131-0.507,0.131c-0.146,0-0.263-0.029-0.347-0.094
		c-0.059-0.047-0.086-0.1-0.086-0.168c0-0.051,0.016-0.098,0.054-0.133c0.037-0.033,0.083-0.053,0.14-0.053
		c0.078,0,0.162,0.037,0.258,0.111c0.056,0.051,0.104,0.08,0.142,0.098c0.03,0.01,0.067,0.02,0.109,0.02
		c0.163,0,0.314-0.084,0.452-0.242c0.137-0.166,0.207-0.377,0.207-0.639c0-0.18-0.04-0.334-0.112-0.463
		c-0.072-0.127-0.167-0.215-0.276-0.268c-0.114-0.051-0.266-0.088-0.454-0.111L156.01,83.428z"/>
	<polyline style="fill:#7A9E69;" points="177.428,30.588 182.381,42.621 176.72,53.238 	"/>
	<line style="fill:#7A9E69;" x1="227.445" y1="31.533" x2="227.445" y2="53.238"/>
	<path style="fill:#7A9E69;" d="M234.41,40.178l-0.655,2.279c0.667-0.93,1.177-1.545,1.533-1.84c0.358-0.293,0.697-0.439,1.03-0.439
		c0.177,0,0.323,0.061,0.439,0.184c0.114,0.121,0.175,0.281,0.175,0.475c0,0.197-0.058,0.463-0.163,0.791l-0.684,2.074
		c-0.079,0.24-0.116,0.387-0.116,0.441c0,0.041,0.009,0.078,0.032,0.111c0.025,0.029,0.049,0.047,0.079,0.047
		c0.032,0,0.077-0.023,0.126-0.061c0.155-0.141,0.33-0.35,0.514-0.639l0.154,0.094c-0.294,0.438-0.575,0.75-0.836,0.932
		c-0.184,0.121-0.352,0.186-0.495,0.186c-0.116,0-0.21-0.037-0.279-0.111c-0.07-0.08-0.107-0.178-0.107-0.303
		c0-0.158,0.065-0.434,0.195-0.822l0.663-1.998c0.082-0.246,0.124-0.439,0.124-0.582c0-0.064-0.023-0.117-0.067-0.16
		c-0.049-0.039-0.109-0.061-0.175-0.061c-0.103,0-0.226,0.039-0.368,0.119c-0.265,0.148-0.544,0.395-0.835,0.734
		c-0.293,0.346-0.596,0.783-0.921,1.312c-0.17,0.281-0.312,0.59-0.424,0.922l-0.239,0.828h-0.735l0.902-3.131
		c0.105-0.373,0.161-0.596,0.161-0.674c0-0.072-0.03-0.137-0.089-0.188c-0.058-0.057-0.13-0.084-0.216-0.084
		c-0.038,0-0.105,0.004-0.207,0.02l-0.187,0.027l-0.049-0.176L234.41,40.178z"/>
	<path style="fill:#7A9E69;" d="M245.727,37.945l2.05,5.223l1.124-3.896c0.093-0.326,0.14-0.578,0.14-0.754
		c0-0.121-0.044-0.217-0.131-0.287c-0.086-0.072-0.249-0.105-0.481-0.105c-0.042,0-0.081-0.002-0.125-0.004l0.056-0.176h2.168
		l-0.058,0.176c-0.227-0.004-0.392,0.02-0.503,0.07c-0.156,0.07-0.272,0.158-0.349,0.27c-0.105,0.154-0.217,0.428-0.326,0.814
		l-1.603,5.57h-0.133l-2.236-5.695l-1.212,4.205c-0.091,0.322-0.135,0.566-0.135,0.736c0,0.127,0.039,0.223,0.121,0.287
		c0.081,0.066,0.274,0.113,0.579,0.135l-0.051,0.178h-2.15l0.07-0.178c0.265-0.008,0.442-0.029,0.535-0.064
		c0.133-0.057,0.237-0.125,0.302-0.215c0.096-0.135,0.205-0.391,0.324-0.775l1.384-4.793c-0.13-0.203-0.27-0.342-0.419-0.42
		c-0.146-0.072-0.374-0.115-0.686-0.125l0.053-0.176H245.727z"/>
	<path style="fill:#7A9E69;" d="M257.945,38.949l-0.406,1.35h0.686l-0.088,0.32h-0.691l-0.904,2.934
		c-0.114,0.334-0.168,0.551-0.168,0.645c0,0.057,0.01,0.098,0.032,0.127c0.023,0.027,0.054,0.041,0.084,0.041
		c0.074,0,0.17-0.053,0.293-0.168c0.072-0.064,0.229-0.268,0.47-0.609l0.166,0.127c-0.289,0.438-0.561,0.744-0.816,0.916
		c-0.178,0.121-0.354,0.182-0.533,0.182c-0.138,0-0.251-0.047-0.335-0.141c-0.089-0.09-0.133-0.203-0.133-0.35
		c0-0.18,0.056-0.455,0.165-0.822l0.877-2.881h-0.761l0.049-0.195c0.365-0.104,0.675-0.254,0.931-0.449
		c0.254-0.197,0.542-0.539,0.863-1.025H257.945z"/>
	<path style="fill:#7A9E69;" d="M239.188,42.668l-0.703,2.439c-0.044,0.146-0.062,0.252-0.062,0.314
		c0,0.053,0.019,0.098,0.056,0.123c0.037,0.031,0.123,0.049,0.261,0.059l-0.021,0.076h-1.123l0.03-0.076
		c0.123,0,0.197-0.012,0.237-0.027c0.061-0.027,0.104-0.061,0.139-0.105c0.047-0.068,0.096-0.188,0.143-0.363l0.505-1.756
		c0.032-0.104,0.049-0.164,0.051-0.182c0.005-0.027,0.007-0.057,0.007-0.084c0-0.049-0.014-0.088-0.039-0.121
		c-0.028-0.025-0.065-0.041-0.114-0.041c-0.039,0-0.095,0.008-0.179,0.027l-0.028-0.08l0.735-0.203H239.188z"/>
	<path style="fill:#7A9E69;" d="M250.866,42.668l-0.705,2.439c-0.037,0.146-0.061,0.252-0.061,0.314
		c0,0.053,0.021,0.098,0.056,0.123c0.037,0.031,0.126,0.049,0.264,0.059l-0.023,0.076h-1.124l0.032-0.076
		c0.119,0,0.198-0.012,0.235-0.027c0.062-0.027,0.107-0.061,0.138-0.105c0.049-0.068,0.095-0.188,0.144-0.363l0.508-1.756
		c0.03-0.104,0.049-0.164,0.051-0.182c0.005-0.027,0.005-0.057,0.005-0.084c0-0.049-0.012-0.088-0.042-0.121
		c-0.025-0.025-0.065-0.041-0.114-0.041c-0.035,0-0.096,0.008-0.174,0.027l-0.031-0.08l0.74-0.203H250.866z"/>
	<polyline style="fill:#7A9E69;" points="260.596,30.588 265.549,42.621 259.889,53.238 	"/>
	<line style="fill:#7A9E69;" x1="170.82" y1="112.928" x2="170.82" y2="134.639"/>
	<path style="fill:#7A9E69;" d="M177.783,121.578l-0.653,2.279c0.667-0.932,1.177-1.545,1.532-1.838
		c0.354-0.295,0.701-0.441,1.029-0.441c0.179,0,0.325,0.061,0.439,0.182c0.121,0.123,0.177,0.283,0.177,0.479
		s-0.054,0.457-0.163,0.787l-0.684,2.078c-0.082,0.238-0.119,0.383-0.119,0.439c0,0.041,0.012,0.08,0.035,0.111
		c0.023,0.027,0.049,0.041,0.076,0.041c0.033,0,0.08-0.018,0.126-0.061c0.158-0.135,0.333-0.348,0.519-0.629l0.154,0.09
		c-0.296,0.438-0.577,0.744-0.838,0.928c-0.184,0.127-0.349,0.188-0.498,0.188c-0.116,0-0.209-0.037-0.279-0.113
		c-0.069-0.074-0.106-0.176-0.106-0.305c0-0.158,0.067-0.428,0.197-0.816l0.663-1.996c0.082-0.248,0.123-0.443,0.123-0.584
		c0-0.064-0.022-0.117-0.069-0.158s-0.104-0.064-0.177-0.064c-0.1,0-0.221,0.041-0.365,0.121c-0.266,0.148-0.547,0.393-0.833,0.734
		c-0.293,0.342-0.598,0.783-0.924,1.312c-0.17,0.279-0.31,0.588-0.421,0.922l-0.242,0.828h-0.732l0.9-3.131
		c0.106-0.373,0.163-0.596,0.163-0.676c0-0.07-0.033-0.135-0.089-0.191c-0.059-0.051-0.13-0.08-0.217-0.08
		c-0.037,0-0.106,0.006-0.209,0.02l-0.186,0.033l-0.047-0.18L177.783,121.578z"/>
	<path style="fill:#7A9E69;" d="M189.102,119.344l2.05,5.221l1.121-3.895c0.096-0.324,0.143-0.576,0.143-0.752
		c0-0.125-0.045-0.219-0.133-0.289c-0.084-0.07-0.244-0.104-0.481-0.104c-0.037,0-0.079-0.002-0.123-0.004l0.053-0.178h2.171
		l-0.059,0.178c-0.226-0.004-0.396,0.02-0.502,0.064c-0.158,0.074-0.272,0.164-0.352,0.273c-0.104,0.156-0.212,0.43-0.321,0.816
		l-1.607,5.57h-0.133l-2.233-5.695l-1.214,4.205c-0.089,0.322-0.135,0.562-0.135,0.736c0,0.125,0.041,0.223,0.12,0.287
		c0.084,0.066,0.274,0.107,0.584,0.133l-0.054,0.18h-2.149l0.07-0.18c0.265-0.004,0.444-0.025,0.53-0.062
		c0.137-0.057,0.239-0.131,0.305-0.215c0.098-0.135,0.205-0.395,0.323-0.775l1.387-4.795c-0.133-0.203-0.268-0.34-0.419-0.418
		c-0.146-0.074-0.377-0.115-0.688-0.125l0.056-0.178H189.102z"/>
	<path style="fill:#7A9E69;" d="M201.318,120.35l-0.405,1.35h0.687l-0.091,0.32h-0.69l-0.903,2.932
		c-0.113,0.336-0.169,0.549-0.169,0.65c0,0.053,0.011,0.094,0.034,0.123c0.023,0.027,0.054,0.041,0.084,0.041
		c0.074,0,0.17-0.055,0.293-0.164c0.07-0.068,0.229-0.273,0.47-0.613l0.166,0.127c-0.289,0.434-0.562,0.742-0.817,0.916
		c-0.177,0.119-0.354,0.18-0.53,0.18c-0.14,0-0.251-0.045-0.34-0.139c-0.088-0.092-0.13-0.209-0.13-0.354
		c0-0.176,0.054-0.451,0.165-0.818l0.877-2.881h-0.761l0.049-0.199c0.368-0.1,0.675-0.25,0.929-0.447
		c0.253-0.195,0.544-0.535,0.865-1.023H201.318z"/>
	<path style="fill:#7A9E69;" d="M182.562,124.068l-0.704,2.441c-0.042,0.145-0.061,0.248-0.061,0.312
		c0,0.057,0.019,0.096,0.056,0.123s0.123,0.049,0.261,0.059l-0.023,0.078h-1.119l0.03-0.078c0.118,0,0.195-0.012,0.234-0.027
		c0.059-0.029,0.105-0.064,0.138-0.107c0.049-0.066,0.096-0.188,0.145-0.359l0.507-1.756c0.03-0.105,0.047-0.168,0.047-0.184
		c0.009-0.027,0.009-0.057,0.009-0.084c0-0.051-0.014-0.09-0.042-0.119c-0.027-0.029-0.064-0.043-0.111-0.043
		c-0.04,0-0.098,0.008-0.179,0.023l-0.028-0.076l0.735-0.203H182.562z"/>
	<path style="fill:#7A9E69;" d="M194.241,124.068l-0.705,2.441c-0.04,0.145-0.061,0.248-0.061,0.312
		c0,0.057,0.021,0.096,0.056,0.123c0.037,0.027,0.121,0.049,0.261,0.059l-0.021,0.078h-1.119l0.027-0.078
		c0.119,0,0.195-0.012,0.232-0.027c0.063-0.029,0.109-0.064,0.14-0.107c0.047-0.066,0.096-0.188,0.145-0.359l0.507-1.756
		c0.031-0.105,0.047-0.168,0.049-0.184c0.005-0.027,0.008-0.057,0.008-0.084c0-0.051-0.012-0.09-0.042-0.119
		c-0.028-0.029-0.065-0.043-0.114-0.043c-0.037,0-0.096,0.008-0.175,0.023l-0.03-0.076l0.738-0.203H194.241z"/>
	<polyline style="fill:#7A9E69;" points="203.971,111.986 208.924,124.021 203.261,134.639 	"/>
	<path style="fill:#7A9E69;" d="M208.847,37.963l-1.056,3.713h0.858c0.626,0,1.079-0.092,1.358-0.285
		c0.279-0.191,0.521-0.545,0.724-1.062h0.242l-0.947,3.363h-0.247c0.08-0.285,0.124-0.523,0.124-0.727
		c0-0.195-0.04-0.354-0.124-0.475c-0.081-0.115-0.192-0.205-0.334-0.26c-0.143-0.059-0.445-0.09-0.903-0.09h-0.889l-0.929,3.213
		c-0.086,0.26-0.13,0.457-0.13,0.59c0,0.102,0.059,0.195,0.172,0.273c0.079,0.057,0.277,0.084,0.591,0.084h0.829
		c0.889,0,1.601-0.156,2.138-0.467c0.533-0.314,1.012-0.859,1.438-1.637h0.254l-0.887,2.568h-7.114l0.089-0.246
		c0.354-0.006,0.593-0.039,0.714-0.092c0.182-0.084,0.316-0.189,0.397-0.316c0.124-0.191,0.268-0.582,0.438-1.184l1.61-5.598
		c0.128-0.453,0.193-0.795,0.193-1.037c0-0.172-0.063-0.307-0.182-0.404c-0.119-0.098-0.356-0.146-0.705-0.146h-0.145l0.082-0.244
		h6.635l-0.577,2.189h-0.239c0.03-0.207,0.046-0.383,0.046-0.523c0-0.24-0.061-0.439-0.179-0.605
		c-0.155-0.207-0.382-0.367-0.677-0.475c-0.221-0.082-0.727-0.121-1.513-0.121H208.847z"/>
	<path style="fill:#7A9E69;" d="M217.506,44.57l-0.123,0.061c-0.31-0.596-0.535-1.119-0.67-1.574
		c-0.107-0.357-0.158-0.715-0.158-1.078c0-0.844,0.197-1.6,0.586-2.268c0.479-0.816,1.259-1.613,2.334-2.391l0.088,0.141
		c-0.483,0.357-0.884,0.758-1.19,1.205c-0.384,0.555-0.698,1.223-0.945,2.01c-0.239,0.787-0.365,1.502-0.365,2.15
		C217.062,43.314,217.211,43.898,217.506,44.57z"/>
	<path style="fill:#7A9E69;" d="M221.482,37.465c0.335,0,0.616,0.141,0.845,0.42c0.228,0.283,0.342,0.725,0.342,1.33
		c0,0.521-0.084,1.049-0.254,1.592c-0.167,0.539-0.409,1.01-0.717,1.404c-0.246,0.312-0.502,0.537-0.772,0.678
		c-0.158,0.076-0.337,0.115-0.544,0.115c-0.34,0-0.624-0.139-0.852-0.418c-0.228-0.281-0.347-0.729-0.347-1.336
		c0-0.6,0.121-1.205,0.349-1.811c0.266-0.707,0.61-1.246,1.028-1.611C220.836,37.586,221.143,37.465,221.482,37.465z
		 M221.491,37.674c-0.153,0-0.307,0.061-0.463,0.182c-0.158,0.117-0.318,0.365-0.483,0.744c-0.165,0.377-0.326,0.863-0.478,1.457
		c-0.195,0.779-0.295,1.443-0.295,1.992c0,0.271,0.061,0.475,0.179,0.609c0.116,0.137,0.256,0.205,0.429,0.205
		c0.158,0,0.293-0.055,0.407-0.158c0.302-0.285,0.558-0.768,0.774-1.453c0.349-1.115,0.521-2.027,0.521-2.729
		c0-0.291-0.058-0.504-0.174-0.643C221.792,37.744,221.652,37.674,221.491,37.674z"/>
	<path style="fill:#7A9E69;" d="M223.895,37.395l0.121-0.074c0.312,0.592,0.535,1.117,0.67,1.574
		c0.105,0.355,0.161,0.715,0.161,1.076c0,0.848-0.195,1.604-0.589,2.266c-0.481,0.822-1.259,1.617-2.331,2.395l-0.089-0.121
		c0.484-0.363,0.882-0.764,1.189-1.207c0.384-0.557,0.7-1.227,0.941-2.014c0.245-0.787,0.37-1.502,0.37-2.148
		C224.339,38.646,224.19,38.064,223.895,37.395z"/>
	<path style="fill:#7A9E69;" d="M106.92,73l-1.057,3.713h0.861c0.626,0,1.074-0.092,1.356-0.283
		c0.278-0.195,0.519-0.547,0.721-1.062h0.244l-0.951,3.361h-0.239c0.078-0.283,0.12-0.525,0.12-0.727
		c0-0.195-0.042-0.354-0.12-0.475c-0.082-0.115-0.193-0.205-0.338-0.262c-0.142-0.059-0.441-0.086-0.905-0.086h-0.886l-0.926,3.213
		c-0.087,0.258-0.131,0.455-0.131,0.588c0,0.105,0.059,0.195,0.172,0.275c0.077,0.055,0.275,0.082,0.587,0.082h0.83
		c0.892,0,1.601-0.152,2.136-0.469c0.538-0.314,1.015-0.857,1.44-1.633h0.254l-0.887,2.568h-7.114l0.088-0.248
		c0.354-0.006,0.594-0.037,0.715-0.092c0.184-0.084,0.316-0.189,0.396-0.316c0.125-0.189,0.27-0.582,0.439-1.182l1.612-5.602
		c0.128-0.453,0.193-0.797,0.193-1.031c0-0.176-0.063-0.311-0.182-0.408c-0.123-0.1-0.358-0.146-0.707-0.146h-0.147l0.084-0.244
		h6.636l-0.575,2.189h-0.244c0.032-0.207,0.049-0.381,0.049-0.523c0-0.242-0.061-0.441-0.177-0.605
		c-0.156-0.207-0.382-0.365-0.68-0.475c-0.221-0.078-0.726-0.121-1.514-0.121H106.92z"/>
	<path style="fill:#7A9E69;" d="M115.579,79.605l-0.121,0.062c-0.312-0.594-0.535-1.121-0.672-1.576
		c-0.105-0.355-0.158-0.715-0.158-1.076c0-0.842,0.197-1.6,0.588-2.268c0.479-0.816,1.259-1.613,2.331-2.391l0.091,0.139
		c-0.485,0.357-0.884,0.76-1.19,1.207c-0.385,0.553-0.698,1.225-0.942,2.01c-0.244,0.787-0.368,1.504-0.368,2.145
		C115.137,78.352,115.286,78.936,115.579,79.605z"/>
	<path style="fill:#7A9E69;" d="M119.555,72.502c0.336,0,0.617,0.141,0.845,0.42c0.23,0.283,0.345,0.725,0.345,1.33
		c0,0.52-0.086,1.051-0.256,1.592c-0.168,0.539-0.407,1.01-0.715,1.404c-0.246,0.312-0.502,0.537-0.772,0.678
		c-0.158,0.076-0.339,0.119-0.546,0.119c-0.34,0-0.624-0.143-0.852-0.422c-0.229-0.281-0.345-0.729-0.345-1.338
		c0-0.6,0.116-1.199,0.345-1.807c0.27-0.709,0.611-1.246,1.032-1.615C118.91,72.623,119.218,72.502,119.555,72.502z M119.562,72.713
		c-0.149,0-0.305,0.059-0.461,0.18c-0.156,0.117-0.318,0.369-0.484,0.742c-0.165,0.381-0.325,0.863-0.477,1.459
		c-0.197,0.783-0.296,1.443-0.296,1.992c0,0.27,0.061,0.477,0.177,0.609c0.119,0.135,0.264,0.205,0.431,0.205
		c0.161,0,0.298-0.055,0.409-0.158c0.301-0.283,0.559-0.768,0.775-1.449c0.347-1.119,0.519-2.031,0.519-2.73
		c0-0.293-0.056-0.506-0.175-0.646C119.864,72.781,119.723,72.713,119.562,72.713z"/>
	<path style="fill:#7A9E69;" d="M121.968,72.43l0.121-0.072c0.313,0.594,0.537,1.117,0.67,1.574c0.106,0.355,0.16,0.713,0.16,1.076
		c0,0.846-0.195,1.604-0.586,2.266c-0.481,0.822-1.264,1.617-2.333,2.395l-0.089-0.121c0.486-0.363,0.882-0.766,1.191-1.205
		c0.381-0.559,0.695-1.229,0.939-2.014c0.244-0.789,0.368-1.506,0.368-2.148C122.41,73.684,122.264,73.104,121.968,72.43z"/>
	<path style="fill:#7A9E69;" d="M189.053,87.621l-0.266,0.135c-0.672-1.287-1.158-2.426-1.451-3.414
		c-0.229-0.771-0.338-1.549-0.338-2.33c0-1.832,0.422-3.469,1.269-4.916c1.04-1.77,2.727-3.494,5.056-5.174l0.2,0.297
		c-1.057,0.777-1.915,1.646-2.583,2.615c-0.833,1.201-1.512,2.654-2.043,4.357c-0.527,1.703-0.793,3.252-0.793,4.648
		C188.104,84.908,188.42,86.168,189.053,87.621z"/>
	<path style="fill:#7A9E69;" d="M196.358,74.219l-0.693,2.299h1.168l-0.156,0.555h-1.18l-1.559,5.02
		c-0.195,0.572-0.291,0.945-0.291,1.113c0,0.09,0.021,0.158,0.061,0.209c0.042,0.047,0.089,0.07,0.143,0.07
		c0.128,0,0.293-0.092,0.497-0.279c0.121-0.117,0.392-0.461,0.808-1.049l0.281,0.213c-0.493,0.752-0.961,1.273-1.4,1.566
		c-0.3,0.201-0.603,0.305-0.909,0.305c-0.235,0-0.429-0.078-0.58-0.23c-0.146-0.158-0.226-0.359-0.226-0.6
		c0-0.305,0.096-0.775,0.289-1.406l1.505-4.932h-1.301l0.084-0.34c0.626-0.174,1.156-0.432,1.594-0.768
		c0.442-0.336,0.936-0.918,1.491-1.746H196.358z"/>
	<path style="fill:#7A9E69;" d="M199.008,72.084l0.266-0.162c0.677,1.283,1.156,2.414,1.442,3.404
		c0.235,0.773,0.352,1.551,0.352,2.332c0,1.836-0.426,3.477-1.271,4.914c-1.047,1.777-2.731,3.504-5.056,5.184l-0.2-0.262
		c1.057-0.783,1.912-1.656,2.582-2.615c0.831-1.205,1.511-2.658,2.041-4.363c0.528-1.705,0.796-3.256,0.796-4.654
		C199.96,74.797,199.641,73.535,199.008,72.084z"/>
	<path style="fill:#7A9E69;" d="M152.52,132.613c0,1.617,1.028,1.881,2.647,1.881v0.531h-8.353v-0.531
		c1.62,0,2.648-0.264,2.648-1.881v-14.977c0-1.617-1.028-1.883-2.648-1.883v-0.527h8.353v0.527c-1.619,0-2.647,0.266-2.647,1.883
		V132.613z"/>
	<path style="fill:#7A9E69;" d="M162.318,132.613c0,1.617,1.029,1.881,2.646,1.881v0.531h-8.352v-0.531
		c1.614,0,2.647-0.264,2.647-1.881v-14.977c0-1.617-1.033-1.883-2.647-1.883v-0.527h8.352v0.527c-1.616,0-2.646,0.266-2.646,1.883
		V132.613z"/>
	<path style="fill:#7A9E69;" d="M167.407,91.961v-3.105c-0.898-0.162-2.018-0.516-2.815-1.445c-0.525-0.615-0.933-1.219-1.138-4.709
		c-0.049-0.809-0.577-0.869-1.358-1.016v-0.264c0.377-0.176,0.951-0.176,1.156-0.176c1.084,0,1.612,0.748,1.796,1.135
		c0.288,0.586,0.542,3.164,0.665,4.193c0.133,1.115,1.015,1.559,1.694,1.707v-6.846h1.07v6.846c0.679-0.148,1.561-0.592,1.698-1.707
		c0.133-1.029,0.369-3.607,0.658-4.193c0.188-0.387,0.714-1.135,1.799-1.135c0.202,0,0.783,0,1.156,0.176v0.264
		c-0.782,0.146-1.308,0.207-1.361,1.016c-0.2,3.49-0.609,4.094-1.133,4.709c-0.799,0.93-1.922,1.283-2.817,1.445v3.105H167.407z"/>
	<line style="fill:#7A9E69;" x1="89.185" y1="169.555" x2="100.51" y2="169.555"/>
	<line style="fill:#7A9E69;" x1="89.185" y1="172.74" x2="100.51" y2="172.74"/>
	<line style="fill:#7A9E69;" x1="231.654" y1="174.73" x2="245.613" y2="170.439"/>
	<line style="fill:#7A9E69;" x1="114.312" y1="172.152" x2="121.391" y2="172.152"/>
	<path style="fill:#7A9E69;" d="M149.881,161.287l-0.402,1.348h0.685l-0.089,0.322h-0.688l-0.905,2.93
		c-0.113,0.338-0.172,0.551-0.172,0.648c0,0.055,0.012,0.096,0.037,0.123c0.023,0.027,0.051,0.043,0.084,0.043
		c0.074,0,0.17-0.053,0.291-0.166c0.072-0.064,0.228-0.27,0.472-0.613l0.163,0.125c-0.286,0.439-0.559,0.744-0.814,0.922
		c-0.177,0.121-0.354,0.18-0.532,0.18c-0.14,0-0.252-0.047-0.338-0.139s-0.135-0.209-0.135-0.354c0-0.182,0.059-0.451,0.17-0.818
		l0.872-2.881h-0.756l0.047-0.199c0.367-0.104,0.677-0.252,0.931-0.447c0.253-0.199,0.544-0.539,0.865-1.023H149.881z"/>
	<path style="fill:#7A9E69;" d="M224.768,176.562v-1.912h-1.892v-0.307h1.892v-1.895h0.309v1.895h1.915v0.307h-1.915v1.912H224.768z
		"/>
	<path style="fill:#7A9E69;" d="M134.843,169.594l-0.656,2.277c0.665-0.932,1.182-1.543,1.535-1.838
		c0.356-0.297,0.698-0.439,1.026-0.439c0.18,0,0.323,0.061,0.444,0.18c0.114,0.121,0.172,0.283,0.172,0.479
		c0,0.197-0.054,0.459-0.162,0.787l-0.685,2.076c-0.076,0.236-0.116,0.387-0.116,0.439c0,0.045,0.01,0.082,0.032,0.113
		c0.023,0.031,0.049,0.045,0.077,0.045c0.035,0,0.079-0.021,0.128-0.062c0.156-0.137,0.33-0.35,0.514-0.633l0.156,0.094
		c-0.295,0.438-0.572,0.746-0.838,0.93c-0.184,0.121-0.349,0.186-0.495,0.186c-0.118,0-0.209-0.039-0.281-0.113
		c-0.07-0.072-0.104-0.178-0.104-0.305c0-0.158,0.064-0.43,0.195-0.818l0.663-1.996c0.083-0.252,0.128-0.445,0.128-0.582
		c0-0.066-0.025-0.121-0.074-0.16c-0.049-0.043-0.105-0.064-0.173-0.064c-0.104,0-0.224,0.041-0.365,0.119
		c-0.27,0.152-0.547,0.396-0.84,0.738c-0.291,0.34-0.596,0.777-0.917,1.312c-0.174,0.279-0.313,0.586-0.428,0.92l-0.234,0.824
		h-0.738l0.903-3.127c0.106-0.371,0.16-0.598,0.16-0.672s-0.03-0.137-0.089-0.193c-0.056-0.053-0.13-0.08-0.214-0.08
		c-0.039,0-0.109,0.006-0.207,0.02l-0.19,0.027l-0.047-0.176L134.843,169.594z"/>
	<path style="fill:#7A9E69;" d="M139.619,172.082l-0.703,2.438c-0.039,0.146-0.061,0.252-0.061,0.314
		c0,0.055,0.017,0.098,0.057,0.127c0.034,0.027,0.123,0.043,0.258,0.057l-0.023,0.078h-1.119l0.033-0.078
		c0.116-0.004,0.195-0.014,0.232-0.027c0.062-0.027,0.107-0.064,0.137-0.107c0.049-0.064,0.096-0.188,0.149-0.363l0.505-1.754
		c0.03-0.104,0.047-0.164,0.049-0.182c0.005-0.029,0.005-0.055,0.005-0.082c0-0.053-0.01-0.092-0.042-0.121
		c-0.025-0.029-0.061-0.043-0.111-0.043c-0.038,0-0.099,0.01-0.178,0.025l-0.029-0.076l0.739-0.205H139.619z"/>
	<path style="fill:#7A9E69;" d="M240.597,166.252l-1.268,3.457c-0.074,0.205-0.112,0.354-0.112,0.445
		c0,0.074,0.035,0.133,0.103,0.174c0.067,0.037,0.226,0.066,0.47,0.082l-0.039,0.111h-2.021l0.054-0.111
		c0.216-0.004,0.355-0.018,0.425-0.041c0.109-0.037,0.191-0.088,0.25-0.148c0.088-0.096,0.172-0.266,0.26-0.512l0.912-2.484
		c0.056-0.152,0.086-0.238,0.091-0.26c0.01-0.043,0.014-0.08,0.014-0.121c0-0.07-0.025-0.127-0.074-0.168
		c-0.054-0.043-0.121-0.062-0.204-0.062c-0.065,0-0.173,0.012-0.316,0.035l-0.049-0.107l1.316-0.289H240.597z"/>
	<path style="fill:#7A9E69;" d="M240.627,178.871h-2.671v-0.111c1.352-0.936,2.245-1.664,2.685-2.195
		c0.203-0.244,0.303-0.504,0.303-0.771c0-0.215-0.086-0.389-0.254-0.523c-0.167-0.135-0.386-0.203-0.653-0.203
		c-0.37,0-0.677,0.141-0.914,0.422l-0.138-0.051c0.135-0.266,0.333-0.471,0.589-0.615c0.259-0.148,0.537-0.221,0.838-0.221
		c0.339,0,0.626,0.092,0.858,0.273c0.23,0.18,0.347,0.402,0.347,0.66c0,0.182-0.04,0.348-0.124,0.502
		c-0.128,0.24-0.362,0.51-0.702,0.807c-0.519,0.459-1.203,0.982-2.059,1.574h1.36c0.215,0,0.391-0.035,0.528-0.105
		c0.14-0.07,0.239-0.166,0.3-0.281h0.154L240.627,178.871z"/>
	<path style="fill:#7A9E69;" d="M108.653,172.93c-0.023,0.166-0.035,0.307-0.035,0.418c0,0.295,0.106,0.547,0.318,0.754
		c0.214,0.209,0.471,0.312,0.772,0.312c0.242,0,0.475-0.047,0.7-0.15c0.224-0.098,0.554-0.311,0.998-0.648l0.101,0.145
		c-0.784,0.783-1.533,1.172-2.243,1.172c-0.486,0-0.852-0.152-1.098-0.457c-0.242-0.309-0.368-0.643-0.368-1.014
		c0-0.494,0.154-1.002,0.456-1.523c0.31-0.516,0.691-0.918,1.152-1.207c0.458-0.285,0.933-0.434,1.419-0.434
		c0.354,0,0.611,0.072,0.779,0.217c0.17,0.145,0.256,0.312,0.256,0.508c0,0.277-0.109,0.539-0.333,0.791
		c-0.293,0.33-0.724,0.598-1.291,0.801C109.863,172.748,109.335,172.855,108.653,172.93z M108.688,172.688
		c0.498-0.057,0.908-0.152,1.22-0.289c0.414-0.18,0.726-0.4,0.935-0.654c0.207-0.252,0.308-0.494,0.308-0.723
		c0-0.141-0.042-0.252-0.13-0.34c-0.091-0.086-0.219-0.129-0.382-0.129c-0.345,0-0.71,0.18-1.096,0.541
		C109.155,171.453,108.869,171.984,108.688,172.688z"/>
	<line style="fill:#7A9E69;" x1="154.776" y1="160.945" x2="154.776" y2="182.648"/>
	<path style="fill:#7A9E69;" d="M161.737,169.594l-0.653,2.277c0.667-0.932,1.177-1.543,1.533-1.838
		c0.357-0.297,0.699-0.439,1.027-0.439c0.18,0,0.326,0.061,0.44,0.18c0.121,0.121,0.177,0.283,0.177,0.479
		c0,0.197-0.054,0.459-0.163,0.787l-0.684,2.076c-0.077,0.236-0.116,0.387-0.116,0.439c0,0.045,0.009,0.082,0.034,0.113
		c0.021,0.031,0.052,0.045,0.075,0.045c0.034,0,0.078-0.021,0.127-0.062c0.158-0.137,0.331-0.35,0.517-0.633l0.156,0.094
		c-0.298,0.438-0.575,0.746-0.84,0.93c-0.184,0.121-0.349,0.186-0.495,0.186c-0.117,0-0.212-0.039-0.279-0.113
		c-0.07-0.072-0.107-0.178-0.107-0.305c0-0.158,0.065-0.43,0.195-0.818l0.663-1.996c0.084-0.252,0.123-0.445,0.123-0.582
		c0-0.066-0.022-0.121-0.069-0.16c-0.047-0.043-0.104-0.064-0.172-0.064c-0.103,0-0.224,0.041-0.363,0.119
		c-0.27,0.152-0.549,0.396-0.84,0.738c-0.291,0.34-0.598,0.777-0.919,1.312c-0.172,0.279-0.314,0.586-0.426,0.92l-0.239,0.824
		h-0.735l0.905-3.127c0.102-0.371,0.158-0.598,0.158-0.672s-0.028-0.137-0.089-0.193c-0.059-0.053-0.13-0.08-0.214-0.08
		c-0.04,0-0.107,0.006-0.21,0.02l-0.186,0.027l-0.049-0.176L161.737,169.594z"/>
	<path style="fill:#7A9E69;" d="M173.056,167.357l2.05,5.223l1.124-3.895c0.093-0.326,0.14-0.576,0.14-0.754
		c0-0.121-0.045-0.219-0.129-0.289c-0.086-0.068-0.248-0.104-0.483-0.104c-0.04,0-0.081,0-0.126-0.002l0.057-0.18h2.168l-0.059,0.18
		c-0.226-0.008-0.391,0.018-0.5,0.066c-0.158,0.07-0.274,0.16-0.349,0.271c-0.107,0.154-0.217,0.426-0.326,0.814l-1.603,5.57h-0.135
		l-2.234-5.697l-1.214,4.209c-0.091,0.318-0.135,0.564-0.135,0.734c0,0.125,0.042,0.223,0.123,0.289
		c0.079,0.064,0.272,0.109,0.579,0.133l-0.049,0.174h-2.154l0.07-0.174c0.268-0.008,0.444-0.029,0.535-0.066
		c0.135-0.053,0.234-0.125,0.302-0.213c0.096-0.135,0.205-0.395,0.323-0.775l1.385-4.795c-0.131-0.203-0.27-0.338-0.414-0.416
		c-0.151-0.074-0.379-0.117-0.693-0.125l0.059-0.18H173.056z"/>
	<path style="fill:#7A9E69;" d="M166.519,172.082l-0.705,2.438c-0.042,0.146-0.061,0.252-0.061,0.314
		c0,0.055,0.019,0.098,0.056,0.127c0.037,0.027,0.121,0.043,0.258,0.057l-0.021,0.078h-1.121l0.032-0.078
		c0.119-0.004,0.195-0.014,0.232-0.027c0.063-0.027,0.107-0.064,0.138-0.107c0.049-0.064,0.098-0.188,0.146-0.363l0.507-1.754
		c0.028-0.104,0.047-0.164,0.052-0.182c0.002-0.029,0.005-0.055,0.005-0.082c0-0.053-0.015-0.092-0.042-0.121
		c-0.028-0.029-0.065-0.043-0.114-0.043c-0.04,0-0.096,0.01-0.175,0.025l-0.03-0.076l0.738-0.205H166.519z"/>
	<path style="fill:#7A9E69;" d="M177.48,172.143h0.986l-0.1,0.361h-0.894l-0.158,0.359c0.235,0.037,0.419,0.113,0.552,0.219
		c0.202,0.172,0.303,0.408,0.303,0.713c0,0.201-0.035,0.387-0.114,0.549c-0.072,0.162-0.165,0.301-0.272,0.41
		c-0.107,0.111-0.226,0.195-0.347,0.26c-0.167,0.088-0.337,0.133-0.507,0.133c-0.149,0-0.264-0.033-0.347-0.098
		c-0.061-0.045-0.089-0.1-0.089-0.168c0-0.051,0.019-0.096,0.056-0.133c0.038-0.037,0.084-0.055,0.14-0.055
		c0.077,0,0.161,0.037,0.259,0.115c0.056,0.047,0.103,0.08,0.142,0.094c0.028,0.014,0.065,0.023,0.107,0.023
		c0.165,0,0.313-0.084,0.451-0.248c0.137-0.162,0.205-0.371,0.205-0.633c0-0.184-0.035-0.334-0.107-0.465
		c-0.074-0.125-0.168-0.217-0.281-0.268c-0.112-0.053-0.261-0.09-0.449-0.109L177.48,172.143z"/>
	<path style="fill:#7A9E69;" d="M214.109,171.838l2.05,5.225l1.124-3.896c0.093-0.322,0.14-0.572,0.14-0.754
		c0-0.121-0.045-0.219-0.128-0.285c-0.089-0.068-0.249-0.105-0.486-0.105c-0.04,0-0.079-0.002-0.124-0.004l0.057-0.18h2.168
		l-0.056,0.18c-0.229-0.002-0.394,0.02-0.505,0.068c-0.156,0.07-0.272,0.158-0.347,0.271c-0.107,0.152-0.217,0.428-0.326,0.816
		l-1.605,5.566h-0.132l-2.236-5.695l-1.212,4.207c-0.091,0.32-0.137,0.564-0.137,0.734c0,0.131,0.041,0.227,0.123,0.291
		c0.084,0.062,0.274,0.109,0.581,0.133l-0.054,0.178h-2.149l0.07-0.178c0.265-0.006,0.444-0.027,0.535-0.064
		c0.132-0.055,0.234-0.127,0.302-0.217c0.096-0.133,0.205-0.391,0.324-0.775l1.384-4.793c-0.13-0.201-0.27-0.338-0.419-0.416
		c-0.146-0.074-0.374-0.117-0.687-0.127l0.056-0.18H214.109z"/>
	<path style="fill:#7A9E69;" d="M218.534,176.623h0.987l-0.099,0.361h-0.896l-0.158,0.361c0.235,0.041,0.419,0.113,0.552,0.223
		c0.202,0.168,0.302,0.406,0.302,0.709c0,0.203-0.039,0.385-0.111,0.553c-0.074,0.158-0.167,0.297-0.274,0.404
		c-0.109,0.111-0.224,0.199-0.347,0.262c-0.167,0.086-0.337,0.131-0.507,0.131c-0.146,0-0.266-0.033-0.352-0.096
		c-0.056-0.043-0.084-0.098-0.084-0.168c0-0.051,0.017-0.098,0.056-0.135c0.04-0.033,0.087-0.051,0.14-0.051
		c0.077,0,0.161,0.037,0.259,0.111c0.056,0.053,0.103,0.082,0.142,0.098c0.028,0.016,0.067,0.02,0.109,0.02
		c0.161,0,0.312-0.082,0.449-0.242c0.135-0.166,0.204-0.377,0.204-0.637c0-0.182-0.034-0.336-0.108-0.461
		c-0.072-0.131-0.166-0.219-0.279-0.273c-0.112-0.053-0.261-0.086-0.452-0.105L218.534,176.623z"/>
	<path style="fill:#7A9E69;" d="M128.392,161.715l-1.059,3.713h0.86c0.624,0,1.077-0.096,1.358-0.285
		c0.279-0.193,0.52-0.547,0.722-1.064h0.244l-0.951,3.365h-0.242c0.081-0.283,0.123-0.525,0.123-0.727
		c0-0.195-0.042-0.354-0.121-0.475c-0.081-0.119-0.195-0.207-0.337-0.266c-0.142-0.055-0.446-0.082-0.905-0.082h-0.887l-0.926,3.209
		c-0.088,0.26-0.133,0.457-0.133,0.592c0,0.102,0.057,0.195,0.173,0.275c0.076,0.053,0.272,0.08,0.589,0.08h0.83
		c0.889,0,1.601-0.156,2.134-0.467c0.537-0.314,1.017-0.859,1.439-1.633h0.254l-0.884,2.562h-7.115l0.089-0.238
		c0.354-0.012,0.591-0.045,0.714-0.098c0.185-0.084,0.314-0.189,0.396-0.314c0.126-0.189,0.268-0.582,0.438-1.186l1.615-5.6
		c0.125-0.449,0.19-0.795,0.19-1.033c0-0.172-0.061-0.307-0.182-0.404c-0.123-0.098-0.355-0.148-0.705-0.148h-0.146l0.084-0.244
		h6.635l-0.576,2.191h-0.242c0.03-0.207,0.049-0.385,0.049-0.523c0-0.24-0.061-0.441-0.18-0.605
		c-0.155-0.209-0.379-0.367-0.677-0.475c-0.221-0.084-0.726-0.121-1.515-0.121H128.392z"/>
	<path style="fill:#7A9E69;" d="M137.048,168.318l-0.118,0.064c-0.314-0.596-0.537-1.121-0.673-1.576
		c-0.106-0.359-0.158-0.717-0.158-1.08c0-0.842,0.196-1.596,0.587-2.264c0.481-0.82,1.258-1.617,2.333-2.391l0.091,0.137
		c-0.488,0.357-0.887,0.76-1.191,1.207c-0.386,0.553-0.7,1.227-0.944,2.012c-0.246,0.787-0.365,1.504-0.365,2.145
		C136.608,167.066,136.758,167.648,137.048,168.318z"/>
	<path style="fill:#7A9E69;" d="M141.026,161.213c0.335,0,0.616,0.145,0.845,0.424c0.23,0.279,0.345,0.725,0.345,1.33
		c0,0.52-0.087,1.049-0.257,1.592c-0.172,0.539-0.409,1.004-0.716,1.402c-0.244,0.314-0.505,0.537-0.775,0.678
		c-0.153,0.078-0.335,0.117-0.542,0.117c-0.34,0-0.625-0.141-0.854-0.42c-0.229-0.281-0.342-0.727-0.342-1.336
		c0-0.6,0.113-1.203,0.344-1.811c0.271-0.707,0.612-1.244,1.033-1.613C140.38,161.336,140.687,161.213,141.026,161.213z
		 M141.033,161.428c-0.15,0-0.305,0.057-0.46,0.176c-0.158,0.119-0.319,0.367-0.484,0.746c-0.165,0.377-0.328,0.863-0.477,1.459
		c-0.2,0.777-0.296,1.441-0.296,1.99c0,0.271,0.059,0.477,0.177,0.611c0.116,0.135,0.261,0.203,0.431,0.203
		c0.16,0,0.293-0.055,0.407-0.158c0.3-0.281,0.561-0.766,0.774-1.449c0.35-1.123,0.521-2.029,0.521-2.732
		c0-0.289-0.059-0.502-0.175-0.643C141.334,161.494,141.194,161.428,141.033,161.428z"/>
	<path style="fill:#7A9E69;" d="M143.439,161.145l0.121-0.072c0.312,0.592,0.532,1.113,0.667,1.57
		c0.107,0.357,0.161,0.715,0.161,1.078c0,0.848-0.193,1.602-0.584,2.266c-0.481,0.824-1.264,1.619-2.336,2.396l-0.089-0.125
		c0.489-0.359,0.885-0.76,1.191-1.205c0.382-0.555,0.695-1.227,0.942-2.016c0.244-0.785,0.367-1.502,0.367-2.146
		C143.881,162.396,143.734,161.818,143.439,161.145z"/>
	<line style="fill:#7A9E69;" x1="45.3" y1="161.061" x2="45.3" y2="182.768"/>
	<path style="fill:#7A9E69;" d="M52.263,169.709l-0.656,2.279c0.668-0.93,1.18-1.543,1.536-1.84
		c0.354-0.291,0.697-0.439,1.028-0.439c0.179,0,0.323,0.061,0.439,0.182s0.177,0.281,0.177,0.479c0,0.195-0.056,0.461-0.163,0.787
		l-0.684,2.078c-0.079,0.238-0.116,0.385-0.116,0.438c0,0.045,0.009,0.084,0.032,0.113c0.023,0.033,0.049,0.045,0.074,0.045
		c0.037,0,0.079-0.021,0.131-0.062c0.155-0.137,0.33-0.348,0.514-0.633l0.153,0.092c-0.295,0.439-0.574,0.75-0.835,0.932
		c-0.184,0.121-0.351,0.186-0.495,0.186c-0.119,0-0.21-0.037-0.281-0.113c-0.07-0.076-0.105-0.176-0.105-0.301
		c0-0.158,0.065-0.434,0.193-0.822l0.665-1.998c0.082-0.246,0.124-0.439,0.124-0.578c0-0.068-0.023-0.121-0.07-0.164
		c-0.047-0.039-0.106-0.062-0.177-0.062c-0.098,0-0.219,0.039-0.362,0.119c-0.268,0.15-0.547,0.395-0.838,0.736
		s-0.598,0.777-0.919,1.312c-0.173,0.279-0.312,0.59-0.426,0.922l-0.24,0.828h-0.732l0.9-3.131c0.106-0.373,0.158-0.596,0.158-0.674
		c0-0.074-0.028-0.137-0.084-0.189c-0.061-0.057-0.13-0.082-0.216-0.082c-0.037,0-0.109,0.008-0.207,0.02l-0.188,0.027l-0.047-0.174
		L52.263,169.709z"/>
	<path style="fill:#7A9E69;" d="M63.581,167.477l2.048,5.221l1.126-3.895c0.093-0.324,0.14-0.576,0.14-0.754
		c0-0.121-0.045-0.219-0.133-0.285c-0.086-0.072-0.246-0.107-0.481-0.107c-0.04,0-0.079-0.002-0.123-0.004l0.056-0.176h2.168
		l-0.058,0.176c-0.226-0.004-0.394,0.02-0.503,0.07c-0.156,0.07-0.272,0.16-0.352,0.27c-0.104,0.154-0.211,0.426-0.323,0.816
		l-1.605,5.568h-0.13l-2.238-5.699l-1.21,4.209c-0.091,0.318-0.135,0.566-0.135,0.736c0,0.127,0.037,0.225,0.118,0.287
		c0.082,0.066,0.277,0.113,0.58,0.135l-0.049,0.178h-2.15l0.07-0.178c0.263-0.004,0.439-0.027,0.53-0.064
		c0.138-0.055,0.239-0.125,0.305-0.213c0.098-0.137,0.205-0.395,0.326-0.777l1.379-4.793c-0.125-0.203-0.265-0.342-0.414-0.414
		c-0.146-0.08-0.377-0.121-0.688-0.131l0.054-0.176H63.581z"/>
	<path style="fill:#7A9E69;" d="M75.796,168.48l-0.403,1.35h0.685l-0.086,0.32H75.3l-0.905,2.932
		c-0.113,0.336-0.172,0.549-0.172,0.65c0,0.053,0.014,0.094,0.037,0.123c0.023,0.027,0.052,0.041,0.084,0.041
		c0.074,0,0.17-0.055,0.293-0.164c0.07-0.066,0.229-0.271,0.471-0.613l0.162,0.123c-0.286,0.441-0.559,0.748-0.814,0.92
		c-0.177,0.121-0.354,0.182-0.532,0.182c-0.138,0-0.249-0.047-0.34-0.137c-0.086-0.094-0.13-0.211-0.13-0.352
		c0-0.182,0.056-0.455,0.167-0.824l0.875-2.881h-0.761l0.051-0.199c0.363-0.1,0.675-0.248,0.929-0.447
		c0.254-0.195,0.544-0.537,0.865-1.023H75.796z"/>
	<path style="fill:#7A9E69;" d="M57.039,172.199l-0.7,2.441c-0.042,0.145-0.062,0.248-0.062,0.314c0,0.049,0.019,0.096,0.058,0.123
		c0.033,0.029,0.121,0.047,0.256,0.057l-0.021,0.078H55.45l0.028-0.078c0.118-0.004,0.197-0.01,0.239-0.027
		c0.056-0.025,0.103-0.061,0.135-0.105c0.047-0.068,0.098-0.188,0.145-0.361l0.507-1.758c0.028-0.104,0.047-0.164,0.049-0.18
		c0.003-0.029,0.01-0.059,0.01-0.086c0-0.047-0.017-0.088-0.045-0.119c-0.025-0.029-0.064-0.043-0.111-0.043
		c-0.039,0-0.098,0.008-0.177,0.027l-0.03-0.08l0.735-0.203H57.039z"/>
	<path style="fill:#7A9E69;" d="M68.719,172.199l-0.703,2.441c-0.042,0.145-0.062,0.248-0.062,0.314
		c0,0.049,0.019,0.096,0.058,0.123c0.038,0.029,0.124,0.047,0.259,0.057l-0.021,0.078h-1.119l0.03-0.078
		c0.119-0.004,0.196-0.01,0.235-0.027c0.059-0.025,0.107-0.061,0.135-0.105c0.052-0.068,0.098-0.188,0.146-0.361l0.505-1.758
		c0.033-0.104,0.049-0.164,0.054-0.18c0.005-0.029,0.005-0.059,0.005-0.086c0-0.047-0.015-0.088-0.042-0.119
		c-0.028-0.029-0.067-0.043-0.114-0.043c-0.034,0-0.095,0.008-0.177,0.027l-0.027-0.08l0.734-0.203H68.719z"/>
	<line style="fill:#7A9E69;" x1="257.646" y1="161.061" x2="257.646" y2="182.768"/>
	<path style="fill:#7A9E69;" d="M264.609,169.709l-0.656,2.279c0.67-0.93,1.18-1.543,1.535-1.84
		c0.355-0.291,0.698-0.439,1.028-0.439c0.179,0,0.326,0.061,0.442,0.182c0.113,0.121,0.174,0.281,0.174,0.479
		c0,0.195-0.056,0.461-0.162,0.787l-0.685,2.078c-0.081,0.238-0.116,0.385-0.116,0.438c0,0.045,0.01,0.084,0.033,0.113
		c0.025,0.033,0.049,0.045,0.074,0.045c0.037,0,0.079-0.021,0.13-0.062c0.158-0.137,0.328-0.348,0.512-0.633l0.156,0.092
		c-0.296,0.439-0.575,0.75-0.835,0.932c-0.187,0.121-0.352,0.186-0.496,0.186c-0.118,0-0.209-0.037-0.279-0.113
		c-0.074-0.076-0.106-0.176-0.106-0.301c0-0.158,0.064-0.434,0.192-0.822l0.666-1.998c0.081-0.246,0.123-0.439,0.123-0.578
		c0-0.068-0.021-0.121-0.07-0.164c-0.046-0.039-0.106-0.062-0.176-0.062c-0.099,0-0.219,0.039-0.363,0.119
		c-0.266,0.15-0.547,0.395-0.836,0.736c-0.29,0.342-0.6,0.777-0.921,1.312c-0.17,0.279-0.312,0.59-0.423,0.922l-0.24,0.828h-0.735
		l0.905-3.131c0.103-0.373,0.156-0.596,0.156-0.674c0-0.074-0.028-0.137-0.086-0.189c-0.059-0.057-0.131-0.082-0.215-0.082
		c-0.041,0-0.111,0.008-0.209,0.02l-0.187,0.027l-0.049-0.174L264.609,169.709z"/>
	<path style="fill:#7A9E69;" d="M275.928,167.477l2.047,5.221l1.126-3.895c0.093-0.324,0.14-0.576,0.14-0.754
		c0-0.121-0.044-0.219-0.13-0.285c-0.086-0.072-0.249-0.107-0.484-0.107c-0.039,0-0.081-0.002-0.125-0.004l0.056-0.176h2.17
		l-0.058,0.176c-0.226-0.004-0.394,0.02-0.505,0.07c-0.153,0.07-0.272,0.16-0.347,0.27c-0.104,0.154-0.214,0.426-0.323,0.816
		l-1.605,5.568h-0.133l-2.235-5.699l-1.217,4.209c-0.091,0.318-0.131,0.566-0.131,0.736c0,0.127,0.04,0.225,0.121,0.287
		c0.077,0.066,0.274,0.113,0.577,0.135l-0.047,0.178h-2.151l0.069-0.178c0.268-0.004,0.442-0.027,0.533-0.064
		c0.135-0.055,0.237-0.125,0.305-0.213c0.096-0.137,0.202-0.395,0.321-0.777l1.384-4.793c-0.128-0.203-0.268-0.342-0.414-0.414
		c-0.148-0.08-0.377-0.121-0.691-0.131l0.054-0.176H275.928z"/>
	<path style="fill:#7A9E69;" d="M269.388,172.199l-0.705,2.441c-0.042,0.145-0.061,0.248-0.061,0.314
		c0,0.049,0.019,0.096,0.056,0.123c0.037,0.029,0.123,0.047,0.261,0.057l-0.023,0.078h-1.119l0.028-0.078
		c0.121-0.004,0.197-0.01,0.235-0.027c0.062-0.025,0.106-0.061,0.142-0.105c0.047-0.068,0.096-0.188,0.142-0.361l0.508-1.758
		c0.027-0.104,0.046-0.164,0.049-0.18c0.007-0.029,0.009-0.059,0.009-0.086c0-0.047-0.016-0.088-0.042-0.119
		c-0.027-0.029-0.065-0.043-0.116-0.043c-0.037,0-0.093,0.008-0.174,0.027l-0.028-0.08l0.732-0.203H269.388z"/>
	<path style="fill:#7A9E69;" d="M280.353,172.26h0.986l-0.103,0.361h-0.896l-0.158,0.359c0.239,0.037,0.421,0.111,0.552,0.221
		c0.202,0.17,0.305,0.408,0.305,0.715c0,0.199-0.035,0.381-0.112,0.543c-0.071,0.164-0.162,0.301-0.271,0.412
		c-0.109,0.109-0.224,0.199-0.347,0.26c-0.17,0.088-0.34,0.135-0.51,0.135c-0.146,0-0.261-0.035-0.349-0.098
		c-0.057-0.043-0.087-0.098-0.087-0.168c0-0.051,0.02-0.098,0.059-0.133c0.035-0.037,0.084-0.057,0.137-0.057
		c0.077,0,0.163,0.041,0.257,0.115c0.058,0.051,0.106,0.078,0.142,0.098c0.032,0.014,0.067,0.018,0.109,0.018
		c0.163,0,0.314-0.08,0.451-0.244c0.14-0.162,0.207-0.375,0.207-0.635c0-0.18-0.039-0.336-0.111-0.461
		c-0.072-0.127-0.165-0.219-0.277-0.271c-0.113-0.049-0.265-0.088-0.451-0.107L280.353,172.26z"/>
	<polyline style="fill:#7A9E69;" points="78.448,160.119 83.403,172.152 77.74,182.768 	"/>
	<polyline style="fill:#7A9E69;" points="282.772,160.119 287.728,172.152 282.067,182.768 	"/>
	<path style="fill:#7A9E69;" d="M27.002,180.744c0,1.619,1.027,1.883,2.647,1.883v0.531h-8.354v-0.531
		c1.616,0,2.647-0.264,2.647-1.883V165.77c0-1.615-1.031-1.881-2.647-1.881v-0.531h8.354v0.531c-1.62,0-2.647,0.266-2.647,1.881
		V180.744z"/>
	<path style="fill:#7A9E69;" d="M36.799,180.744c0,1.619,1.028,1.883,2.647,1.883v0.531h-8.357v-0.531
		c1.617,0,2.646-0.264,2.646-1.883V165.77c0-1.615-1.028-1.881-2.646-1.881v-0.531h8.357v0.531c-1.619,0-2.647,0.266-2.647,1.881
		V180.744z"/>
	<path style="fill:#7A9E69;" d="M200.129,160.354h-17.76c0,0,8.747,10.15,9.146,10.609c-0.417,0.445-9.896,10.627-9.896,10.627
		h18.689l2.587-3.691l-0.268-0.084c0,0-3.285,2.793-3.476,3.066c-0.396,0-13.271,0-14.688,0c0.986-1.057,7.999-9.898,7.999-9.898
		s-5.044-8.869-5.94-9.91c1.392,0,11.293,0,11.649,0c0.193,0.295,4.946,3.77,4.946,3.77l0.135-0.084l-2.936-4.404H200.129z"/>
	<path style="fill:#7A9E69;" d="M208.23,181.447l-0.244,0.123c-0.617-1.178-1.057-2.223-1.326-3.127
		c-0.207-0.707-0.312-1.42-0.312-2.137c0-1.674,0.386-3.178,1.163-4.502c0.951-1.621,2.498-3.205,4.634-4.742l0.175,0.271
		c-0.966,0.715-1.759,1.512-2.371,2.395c-0.763,1.102-1.391,2.436-1.875,3.996c-0.486,1.559-0.728,2.98-0.728,4.258
		C207.347,178.959,207.64,180.115,208.23,181.447z"/>
	<path style="fill:#7A9E69;" d="M253.36,165.322l0.242-0.15c0.616,1.178,1.059,2.217,1.318,3.123
		c0.212,0.707,0.319,1.418,0.319,2.139c0,1.676-0.389,3.18-1.163,4.498c-0.959,1.629-2.504,3.213-4.63,4.754l-0.18-0.242
		c0.971-0.717,1.757-1.518,2.371-2.396c0.766-1.104,1.389-2.434,1.875-3.996c0.488-1.564,0.729-2.986,0.729-4.264
		C254.242,167.811,253.951,166.654,253.36,165.322z"/>
</g>
</svg>
