<?xml version="1.0" encoding="iso-8859-1"?>
<!-- Generator: Adobe Illustrator 15.0.2, SVG Export Plug-In . SVG Version: 6.00 Build 0)  -->
<!DOCTYPE svg PUBLIC "-//W3C//DTD SVG 1.1//EN" "http://www.w3.org/Graphics/SVG/1.1/DTD/svg11.dtd">
<svg version="1.1" xmlns="http://www.w3.org/2000/svg" xmlns:xlink="http://www.w3.org/1999/xlink" x="0px" y="0px" width="300px"
	 height="300px" viewBox="0 0 300 300" style="enable-background:new 0 0 300 300;" xml:space="preserve">
<g id="bg">
	<rect style="fill:#6B89B3;" width="300" height="300"/>
</g>
<g id="patterns">
	<polygon style="fill:#4F6585;" points="187.456,94.412 177.854,77.782 187.456,61.154 206.656,61.154 216.255,77.782 
		206.656,94.412 	"/>
	<polygon style="fill:#4F6585;" points="251.305,94.412 241.704,77.782 251.305,61.154 270.507,61.154 280.106,77.782 
		270.507,94.412 	"/>
	<polygon style="fill:#4F6585;" points="251.305,131.115 241.704,114.487 251.305,97.857 270.507,97.857 280.106,114.487 
		270.507,131.115 	"/>
	<polygon style="fill:#4F6585;" points="251.305,168.036 241.704,151.409 251.305,134.779 270.507,134.779 280.106,151.409 
		270.507,168.036 	"/>
	<polygon style="fill:#4F6585;" points="187.653,168.036 178.053,151.409 187.653,134.779 206.856,134.779 216.456,151.409 
		206.856,168.036 	"/>
	<polygon style="fill:#4F6585;" points="219.38,75.734 209.779,59.104 219.38,42.477 238.582,42.477 248.183,59.104 238.582,75.734 
			"/>
	<polygon style="fill:#4F6585;" points="219.38,112.656 209.779,96.026 219.38,79.399 238.582,79.399 248.183,96.026 
		238.582,112.656 	"/>
	<polygon style="fill:#4F6585;" points="219.38,149.578 209.779,132.948 219.38,116.318 238.582,116.318 248.183,132.948 
		238.582,149.578 	"/>
	<polygon style="fill:#4F6585;" points="155.728,149.578 146.128,132.948 155.728,116.318 174.931,116.318 184.531,132.948 
		174.931,149.578 	"/>
	<rect x="15.856" y="12.982" style="fill:#4F6585;" width="4.746" height="5.937"/>
	<rect x="34.405" y="9.271" style="fill:#4F6585;" width="4.751" height="1.78"/>
	<rect x="31.737" y="12.982" style="fill:#4F6585;" width="4.004" height="9.797"/>
	<rect x="37.673" y="9.271" style="fill:#4F6585;" width="2.226" height="14.846"/>
	<rect x="28.653" y="12.835" style="fill:#4F6585;" width="0.968" height="269.588"/>
	<rect x="23.829" y="28.27" style="fill:#4F6585;" width="5.101" height="77.472"/>
	<rect x="29.51" y="152.646" style="fill:#4F6585;" width="4.006" height="2.078"/>
	<rect x="24.167" y="140.328" style="fill:#4F6585;" width="4.747" height="1.78"/>
	<rect x="32.032" y="124.298" style="fill:#4F6585;" width="1.484" height="16.477"/>
	<rect x="32.921" y="126.524" style="fill:#4F6585;" width="1.93" height="12.17"/>
	<rect x="29.51" y="112.719" style="fill:#4F6585;" width="1.928" height="7.126"/>
	<rect x="36.485" y="114.354" style="fill:#4F6585;" width="5.343" height="1.78"/>
	<rect x="37.228" y="115.839" style="fill:#4F6585;" width="3.118" height="1.038"/>
	<rect x="26.837" y="281.977" style="fill:#4F6585;" width="4.303" height="2.222"/>
	<rect x="40.937" y="229.582" style="fill:#4F6585;" width="1.632" height="4.899"/>
	<rect x="38.712" y="226.762" style="fill:#4F6585;" width="0.74" height="2.375"/>
	<rect x="33.666" y="227.208" style="fill:#4F6585;" width="1.335" height="6.972"/>
	<rect x="33.812" y="236.556" style="fill:#4F6585;" width="9.203" height="4.753"/>
	<rect x="41.532" y="239.974" style="fill:#4F6585;" width="2.672" height="4.301"/>
	<rect x="33.961" y="245.909" style="fill:#4F6585;" width="8.461" height="2.373"/>
	<rect x="41.976" y="251.25" style="fill:#4F6585;" width="1.93" height="1.929"/>
	<rect x="33.368" y="255.11" style="fill:#4F6585;" width="9.202" height="4.157"/>
	<rect x="40.345" y="256.743" style="fill:#4F6585;" width="4.006" height="4.009"/>
	<rect x="38.564" y="264.907" style="fill:#4F6585;" width="4.154" height="4.157"/>
	<rect x="40.937" y="273.962" style="fill:#4F6585;" width="2.228" height="2.224"/>
	<rect x="36.632" y="276.484" style="fill:#4F6585;" width="2.08" height="2.078"/>
	<rect x="33.812" y="262.83" style="fill:#4F6585;" width="0.745" height="9.353"/>
	<rect x="33.517" y="274.255" style="fill:#4F6585;" width="0.742" height="8.168"/>
	<rect x="28.914" y="178.769" style="fill:#4F6585;" width="1.783" height="11.428"/>
</g>
</svg>
