<?xml version="1.0" encoding="iso-8859-1"?>
<!-- Generator: Adobe Illustrator 15.0.2, SVG Export Plug-In . SVG Version: 6.00 Build 0)  -->
<!DOCTYPE svg PUBLIC "-//W3C//DTD SVG 1.1//EN" "http://www.w3.org/Graphics/SVG/1.1/DTD/svg11.dtd">
<svg version="1.1" xmlns="http://www.w3.org/2000/svg" xmlns:xlink="http://www.w3.org/1999/xlink" x="0px" y="0px" width="300px"
	 height="300px" viewBox="0 0 300 300" style="enable-background:new 0 0 300 300;" xml:space="preserve">
<g id="bg">
	<rect style="fill:#FFF9A6;" width="300" height="300"/>
</g>
<g id="patterns">
	<line style="fill:#FFE6A6;" x1="15.334" y1="46.498" x2="26.659" y2="46.498"/>
	<line style="fill:#FFE6A6;" x1="92.84" y1="87.552" x2="99.919" y2="87.552"/>
	<line style="fill:#FFE6A6;" x1="29.963" y1="46.498" x2="41.288" y2="46.498"/>
	<line style="fill:#FFE6A6;" x1="104.283" y1="45.435" x2="115.609" y2="45.435"/>
	<line style="fill:#FFE6A6;" x1="104.283" y1="48.619" x2="115.609" y2="48.619"/>
	<line style="fill:#FFE6A6;" x1="44.592" y1="46.498" x2="55.915" y2="46.498"/>
	<line style="fill:#FFE6A6;" x1="59.691" y1="35.643" x2="59.691" y2="57.349"/>
	<line style="fill:#FFE6A6;" x1="144.274" y1="35.643" x2="144.274" y2="57.349"/>
	<path style="fill:#FFE6A6;" d="M36.254,31.815l-1.405,4.869c0.651-0.929,1.156-1.545,1.52-1.848
		c0.365-0.305,0.714-0.456,1.047-0.456c0.167,0,0.313,0.059,0.428,0.182c0.114,0.121,0.17,0.281,0.17,0.484
		c0,0.219-0.051,0.479-0.156,0.791l-0.684,2.065c-0.086,0.251-0.126,0.389-0.126,0.414c0,0.045,0.012,0.084,0.035,0.112
		c0.025,0.027,0.056,0.041,0.086,0.041c0.04,0,0.084-0.018,0.135-0.06c0.166-0.145,0.336-0.347,0.498-0.605l0.156,0.093
		c-0.109,0.178-0.259,0.368-0.449,0.572c-0.193,0.205-0.355,0.348-0.493,0.424c-0.138,0.079-0.258,0.121-0.367,0.121
		c-0.116,0-0.212-0.042-0.286-0.121c-0.075-0.076-0.112-0.177-0.112-0.3c0-0.146,0.067-0.419,0.198-0.816l0.658-1.994
		c0.084-0.249,0.123-0.444,0.123-0.589c0-0.064-0.021-0.116-0.067-0.158c-0.044-0.039-0.104-0.061-0.177-0.061
		c-0.107,0-0.228,0.037-0.363,0.112c-0.246,0.137-0.53,0.396-0.855,0.772c-0.086,0.102-0.377,0.516-0.875,1.242
		c-0.153,0.234-0.274,0.488-0.37,0.763l-0.31,1.028h-0.735l1.647-5.709l0.175-0.614c0-0.084-0.037-0.161-0.109-0.229
		c-0.07-0.064-0.16-0.098-0.263-0.098c-0.063,0-0.156,0.01-0.284,0.028l-0.104,0.019V32.09L36.254,31.815z"/>
	<path style="fill:#FFE6A6;" d="M54.089,51.909l-0.402,1.35h0.687l-0.091,0.321h-0.693l-0.898,2.931
		c-0.116,0.335-0.174,0.552-0.174,0.649c0,0.054,0.014,0.096,0.037,0.121c0.023,0.03,0.051,0.044,0.086,0.044
		c0.072,0,0.167-0.056,0.288-0.165c0.07-0.067,0.229-0.27,0.471-0.611l0.167,0.125c-0.288,0.436-0.561,0.744-0.818,0.917
		c-0.175,0.121-0.352,0.182-0.531,0.182c-0.137,0-0.251-0.047-0.339-0.138c-0.087-0.091-0.128-0.212-0.128-0.354
		c0-0.177,0.053-0.451,0.165-0.821l0.872-2.88H52.03l0.046-0.198c0.368-0.1,0.678-0.249,0.934-0.449
		c0.253-0.195,0.542-0.537,0.863-1.023H54.089z"/>
	<path style="fill:#FFE6A6;" d="M66.301,44.287l-0.653,2.285c0.665-0.936,1.18-1.547,1.53-1.843c0.358-0.293,0.7-0.442,1.031-0.442
		c0.177,0,0.325,0.065,0.441,0.187c0.114,0.121,0.175,0.279,0.175,0.475c0,0.2-0.056,0.463-0.163,0.791l-0.684,2.075
		c-0.079,0.24-0.119,0.387-0.119,0.438c0,0.047,0.012,0.084,0.035,0.111c0.023,0.033,0.049,0.047,0.074,0.047
		c0.037,0,0.082-0.019,0.131-0.061c0.158-0.135,0.328-0.349,0.512-0.635l0.155,0.095c-0.295,0.433-0.572,0.747-0.837,0.927
		c-0.184,0.125-0.35,0.186-0.493,0.186c-0.119,0-0.212-0.035-0.284-0.111c-0.067-0.074-0.103-0.175-0.103-0.303
		c0-0.158,0.065-0.433,0.193-0.818l0.663-1.997c0.084-0.249,0.126-0.441,0.126-0.581c0-0.065-0.023-0.121-0.07-0.163
		c-0.046-0.042-0.106-0.061-0.177-0.061c-0.098,0-0.221,0.037-0.363,0.119c-0.27,0.146-0.546,0.393-0.837,0.737
		c-0.289,0.34-0.598,0.777-0.919,1.312c-0.17,0.278-0.314,0.586-0.426,0.921l-0.237,0.823h-0.735l0.902-3.129
		c0.105-0.372,0.158-0.598,0.158-0.672c0-0.075-0.03-0.136-0.088-0.191c-0.056-0.056-0.128-0.081-0.214-0.081
		c-0.04,0-0.109,0.007-0.207,0.021l-0.187,0.028L64.584,44.6L66.301,44.287z"/>
	<path style="fill:#FFE6A6;" d="M77.617,42.059l2.05,5.221l1.126-3.899c0.093-0.321,0.14-0.572,0.14-0.749
		c0-0.123-0.044-0.219-0.131-0.288c-0.086-0.07-0.249-0.104-0.483-0.104c-0.04,0-0.082-0.003-0.121-0.005l0.054-0.175h2.17
		l-0.062,0.175c-0.226-0.003-0.391,0.021-0.502,0.069c-0.156,0.067-0.272,0.161-0.35,0.268c-0.104,0.158-0.212,0.429-0.321,0.819
		l-1.607,5.567h-0.13l-2.236-5.698l-1.214,4.209c-0.091,0.319-0.135,0.565-0.135,0.737c0,0.126,0.042,0.222,0.123,0.286
		c0.079,0.065,0.274,0.112,0.579,0.133l-0.049,0.177h-2.152l0.07-0.177c0.263-0.005,0.439-0.028,0.532-0.062
		c0.136-0.056,0.237-0.126,0.303-0.217c0.098-0.13,0.202-0.391,0.326-0.774l1.382-4.793c-0.128-0.202-0.271-0.342-0.414-0.416
		c-0.149-0.074-0.377-0.119-0.691-0.128l0.056-0.175H77.617z"/>
	<path style="fill:#FFE6A6;" d="M89.836,43.063l-0.404,1.348h0.684l-0.086,0.321h-0.693l-0.9,2.934
		c-0.114,0.332-0.172,0.549-0.172,0.646c0,0.056,0.012,0.096,0.034,0.123c0.023,0.03,0.052,0.045,0.086,0.045
		c0.072,0,0.17-0.057,0.289-0.168c0.069-0.07,0.228-0.27,0.473-0.612l0.162,0.124c-0.286,0.439-0.558,0.744-0.816,0.919
		c-0.175,0.12-0.352,0.179-0.53,0.179c-0.138,0-0.249-0.044-0.338-0.135c-0.088-0.093-0.135-0.209-0.135-0.354
		c0-0.18,0.059-0.454,0.17-0.821l0.875-2.88h-0.759l0.049-0.198c0.365-0.103,0.675-0.251,0.931-0.446
		c0.252-0.198,0.542-0.54,0.863-1.024H89.836z"/>
	<path style="fill:#FFE6A6;" d="M128.412,76.682l-0.405,1.352h0.687l-0.091,0.319h-0.688l-0.902,2.934
		c-0.116,0.333-0.173,0.547-0.173,0.646c0,0.056,0.01,0.096,0.035,0.124c0.023,0.032,0.052,0.044,0.086,0.044
		c0.072,0,0.168-0.056,0.291-0.168c0.07-0.067,0.229-0.27,0.47-0.611l0.168,0.125c-0.291,0.438-0.563,0.745-0.819,0.919
		c-0.174,0.121-0.354,0.18-0.53,0.18c-0.14,0-0.251-0.047-0.337-0.138c-0.089-0.091-0.133-0.209-0.133-0.351
		c0-0.182,0.054-0.452,0.167-0.821l0.873-2.883h-0.759l0.049-0.195c0.365-0.103,0.675-0.251,0.931-0.451
		c0.254-0.196,0.542-0.538,0.863-1.024H128.412z"/>
	<path style="fill:#FFE6A6;" d="M71.077,46.781l-0.7,2.438c-0.042,0.146-0.062,0.251-0.062,0.316c0,0.052,0.019,0.093,0.056,0.121
		c0.037,0.03,0.123,0.051,0.261,0.058l-0.023,0.077h-1.119l0.03-0.077c0.118-0.002,0.197-0.011,0.235-0.025
		c0.058-0.027,0.104-0.062,0.135-0.106c0.049-0.065,0.1-0.188,0.146-0.363l0.507-1.754c0.03-0.107,0.047-0.165,0.049-0.182
		c0.005-0.032,0.007-0.059,0.007-0.084c0-0.051-0.014-0.093-0.042-0.121c-0.027-0.027-0.062-0.044-0.111-0.044
		c-0.039,0-0.1,0.01-0.177,0.028l-0.03-0.079l0.735-0.203H71.077z"/>
	<path style="fill:#FFE6A6;" d="M113.371,84.987l-0.653,2.282c0.663-0.933,1.179-1.544,1.533-1.84
		c0.355-0.293,0.697-0.442,1.025-0.442c0.18,0,0.328,0.061,0.444,0.185c0.116,0.123,0.172,0.281,0.172,0.479
		c0,0.195-0.053,0.459-0.162,0.789l-0.685,2.075c-0.076,0.242-0.116,0.386-0.116,0.438c0,0.046,0.014,0.084,0.037,0.114
		s0.047,0.044,0.075,0.044c0.034,0,0.076-0.019,0.128-0.061c0.158-0.14,0.327-0.349,0.512-0.635l0.155,0.095
		c-0.295,0.436-0.572,0.745-0.837,0.926c-0.185,0.126-0.35,0.187-0.496,0.187c-0.116,0-0.209-0.037-0.281-0.111
		c-0.067-0.075-0.103-0.177-0.103-0.303c0-0.158,0.062-0.433,0.193-0.819l0.663-1.996c0.084-0.251,0.128-0.444,0.128-0.581
		c0-0.07-0.025-0.121-0.072-0.163s-0.107-0.061-0.175-0.061c-0.1,0-0.223,0.039-0.362,0.121c-0.272,0.146-0.55,0.391-0.84,0.735
		c-0.291,0.339-0.599,0.776-0.919,1.308c-0.173,0.283-0.312,0.591-0.426,0.926l-0.237,0.823h-0.738l0.905-3.132
		c0.104-0.369,0.158-0.595,0.158-0.67c0-0.072-0.027-0.137-0.086-0.19c-0.059-0.056-0.13-0.081-0.217-0.081
		c-0.039,0-0.109,0.007-0.207,0.016l-0.19,0.033l-0.042-0.177L113.371,84.987z"/>
	<path style="fill:#FFE6A6;" d="M131.066,133.123l-0.656,2.278c0.67-0.934,1.18-1.548,1.538-1.841
		c0.354-0.291,0.695-0.438,1.026-0.438c0.179,0,0.325,0.059,0.441,0.182c0.114,0.121,0.173,0.281,0.173,0.475
		c0,0.2-0.054,0.461-0.161,0.791l-0.684,2.075c-0.082,0.24-0.119,0.387-0.119,0.44c0,0.044,0.012,0.081,0.035,0.108
		c0.025,0.033,0.049,0.047,0.074,0.047c0.037,0,0.079-0.019,0.131-0.061c0.158-0.137,0.328-0.349,0.512-0.635l0.158,0.095
		c-0.298,0.438-0.577,0.745-0.838,0.927c-0.186,0.125-0.352,0.19-0.495,0.19c-0.116,0-0.21-0.042-0.282-0.114
		c-0.071-0.076-0.104-0.179-0.104-0.305c0-0.158,0.065-0.431,0.193-0.819l0.665-1.996c0.082-0.248,0.126-0.441,0.126-0.581
		c0-0.067-0.023-0.121-0.074-0.163c-0.047-0.042-0.104-0.061-0.173-0.061c-0.1,0-0.223,0.037-0.365,0.119
		c-0.268,0.148-0.546,0.393-0.84,0.737c-0.288,0.34-0.593,0.777-0.916,1.31c-0.17,0.281-0.314,0.589-0.424,0.924l-0.239,0.826
		h-0.735l0.9-3.132c0.107-0.37,0.158-0.596,0.158-0.673c0-0.074-0.025-0.135-0.084-0.19c-0.058-0.054-0.13-0.081-0.216-0.081
		c-0.04,0-0.107,0.007-0.207,0.021l-0.187,0.028l-0.049-0.177L131.066,133.123z"/>
	<path style="fill:#FFE6A6;" d="M118.147,87.481l-0.703,2.438c-0.039,0.146-0.06,0.251-0.06,0.314c0,0.053,0.021,0.095,0.056,0.123
		c0.037,0.03,0.123,0.049,0.261,0.058l-0.021,0.079h-1.121l0.03-0.079c0.118-0.002,0.197-0.011,0.234-0.027
		c0.061-0.025,0.107-0.061,0.136-0.104c0.049-0.065,0.1-0.187,0.148-0.363l0.505-1.754c0.03-0.107,0.047-0.168,0.051-0.182
		c0.003-0.028,0.005-0.059,0.005-0.086c0-0.049-0.012-0.091-0.042-0.119c-0.027-0.03-0.062-0.044-0.111-0.044
		c-0.037,0-0.1,0.009-0.177,0.025l-0.028-0.074l0.735-0.205H118.147z"/>
	<path style="fill:#FFE6A6;" d="M82.759,46.781l-0.705,2.438c-0.039,0.146-0.062,0.251-0.062,0.316c0,0.052,0.021,0.093,0.058,0.121
		c0.035,0.03,0.124,0.051,0.259,0.058l-0.021,0.077h-1.119l0.028-0.077c0.121-0.002,0.197-0.011,0.237-0.025
		c0.061-0.027,0.104-0.062,0.138-0.106c0.049-0.065,0.095-0.188,0.146-0.363l0.502-1.754c0.033-0.107,0.047-0.165,0.054-0.182
		c0.005-0.032,0.005-0.059,0.005-0.084c0-0.051-0.015-0.093-0.042-0.121c-0.028-0.027-0.065-0.044-0.111-0.044
		c-0.04,0-0.099,0.01-0.18,0.028l-0.027-0.079l0.734-0.203H82.759z"/>
	<path style="fill:#FFE6A6;" d="M33.181,54.198c0.13,0.163,0.293,0.244,0.486,0.244c0.079,0,0.234-0.034,0.468-0.102
		c0.232-0.067,0.381-0.105,0.441-0.114c0.116-0.019,0.252-0.028,0.396-0.028c0.503,0,0.915,0.112,1.233,0.335
		c0.318,0.219,0.477,0.489,0.477,0.812c0,0.174-0.058,0.352-0.172,0.523c-0.116,0.177-0.374,0.441-0.779,0.791
		c-0.407,0.349-0.675,0.626-0.798,0.823c-0.072,0.112-0.109,0.232-0.109,0.368c0,0.204,0.104,0.377,0.307,0.516
		c0.2,0.14,0.475,0.212,0.824,0.212c0.453,0,0.81-0.104,1.072-0.312c0.258-0.207,0.4-0.561,0.431-1.059h0.241l0.422,1.612h-0.252
		c-0.104-0.146-0.26-0.221-0.465-0.221c-0.079,0-0.195,0.019-0.347,0.058c-0.426,0.109-0.803,0.163-1.129,0.163
		c-0.6,0-1.098-0.133-1.488-0.402c-0.391-0.266-0.587-0.572-0.587-0.919c0-0.212,0.084-0.438,0.254-0.677
		c0.168-0.24,0.542-0.596,1.124-1.07c0.219-0.177,0.36-0.316,0.426-0.417c0.062-0.1,0.098-0.207,0.098-0.313
		c0-0.161-0.084-0.296-0.249-0.41c-0.163-0.111-0.384-0.17-0.663-0.17c-0.345,0-0.638,0.103-0.87,0.306
		c-0.237,0.204-0.363,0.53-0.384,0.977h-0.247l-0.419-1.526H33.181z"/>
	<path style="fill:#FFE6A6;" d="M51.228,33.669l-1.042,4.837l-0.096,0.38c-0.012,0.037-0.017,0.069-0.017,0.093
		c0,0.042,0.012,0.074,0.028,0.107c0.016,0.022,0.037,0.034,0.062,0.034c0.023,0,0.059-0.021,0.101-0.061
		c0.076-0.074,0.179-0.241,0.309-0.495l0.143,0.1c-0.165,0.284-0.331,0.493-0.503,0.631c-0.172,0.137-0.333,0.205-0.479,0.205
		c-0.102,0-0.179-0.028-0.237-0.089c-0.051-0.061-0.081-0.149-0.081-0.266c0-0.135,0.032-0.316,0.093-0.539l0.086-0.303
		c-0.399,0.475-0.77,0.805-1.103,0.993c-0.244,0.135-0.481,0.203-0.714,0.203c-0.224,0-0.417-0.082-0.579-0.249
		c-0.161-0.165-0.242-0.396-0.242-0.688c0-0.438,0.145-0.9,0.433-1.39c0.288-0.486,0.656-0.875,1.101-1.168
		c0.347-0.232,0.675-0.349,0.981-0.349c0.187,0,0.338,0.042,0.461,0.125c0.123,0.08,0.216,0.217,0.279,0.408l0.365-2.415
		L51.228,33.669z M49.455,35.873c-0.198,0-0.403,0.081-0.622,0.248c-0.309,0.233-0.584,0.582-0.823,1.04
		c-0.244,0.463-0.363,0.875-0.363,1.25c0,0.186,0.054,0.335,0.161,0.441c0.104,0.109,0.23,0.163,0.367,0.163
		c0.342,0,0.715-0.221,1.122-0.665c0.493-0.589,0.73-1.191,0.716-1.815c0-0.232-0.051-0.399-0.148-0.507
		C49.762,35.926,49.624,35.873,49.455,35.873z"/>
	<path style="fill:#FFE6A6;" d="M50.26,35.868c0,0,0.512-4.199-2.255-2.006l-0.216-0.477c0,0,3.055-2.196,3.055,1.431L50.26,35.868z
		"/>
	<path style="fill:#FFE6A6;" d="M50.532,52.67l-1.04,4.832l-0.096,0.382c-0.012,0.037-0.014,0.069-0.014,0.093
		c0,0.042,0.007,0.077,0.027,0.107c0.017,0.023,0.037,0.032,0.061,0.032c0.025,0,0.059-0.019,0.101-0.061
		c0.074-0.074,0.181-0.237,0.309-0.493l0.143,0.103c-0.163,0.279-0.33,0.491-0.503,0.628c-0.172,0.138-0.332,0.205-0.477,0.205
		c-0.103,0-0.182-0.028-0.24-0.089c-0.053-0.062-0.081-0.148-0.081-0.265c0-0.135,0.03-0.316,0.093-0.542l0.089-0.301
		c-0.4,0.475-0.771,0.806-1.107,0.991c-0.239,0.138-0.479,0.205-0.712,0.205c-0.221,0-0.414-0.084-0.577-0.251
		c-0.165-0.166-0.244-0.396-0.244-0.685c0-0.441,0.145-0.902,0.433-1.389c0.291-0.488,0.656-0.88,1.099-1.17
		c0.349-0.233,0.677-0.35,0.983-0.35c0.184,0,0.338,0.042,0.463,0.126c0.121,0.079,0.215,0.216,0.277,0.404l0.367-2.412
		L50.532,52.67z M48.762,54.868c-0.196,0-0.403,0.084-0.622,0.249c-0.307,0.235-0.583,0.58-0.823,1.043
		c-0.244,0.458-0.365,0.877-0.365,1.246c0,0.189,0.059,0.338,0.16,0.445c0.109,0.106,0.23,0.162,0.37,0.162
		c0.342,0,0.717-0.221,1.122-0.665c0.493-0.586,0.732-1.196,0.716-1.814c0-0.233-0.049-0.4-0.151-0.508
		C49.07,54.925,48.934,54.868,48.762,54.868z"/>
	<path style="fill:#FFE6A6;" d="M49.568,54.864c0,0,0.51-4.202-2.257-2.006l-0.219-0.475c0,0,3.055-2.196,3.055,1.429L49.568,54.864
		z"/>
	<polyline style="fill:#FFE6A6;" points="92.488,34.697 97.441,46.73 91.781,57.349 	"/>
	<line style="fill:#FFE6A6;" x1="65" y1="86.84" x2="76.326" y2="86.84"/>
	<line style="fill:#FFE6A6;" x1="65" y1="90.027" x2="76.326" y2="90.027"/>
	<line style="fill:#FFE6A6;" x1="20.408" y1="77.05" x2="20.408" y2="98.756"/>
	<path style="fill:#FFE6A6;" d="M27.018,85.695l-0.656,2.279c0.668-0.928,1.18-1.545,1.536-1.835
		c0.355-0.296,0.697-0.444,1.023-0.444c0.182,0,0.33,0.064,0.444,0.184c0.116,0.123,0.175,0.281,0.175,0.477
		c0,0.2-0.054,0.463-0.163,0.791l-0.685,2.075c-0.079,0.242-0.116,0.387-0.116,0.438c0,0.047,0.012,0.084,0.035,0.114
		s0.049,0.047,0.074,0.047c0.033,0,0.079-0.021,0.131-0.063c0.153-0.14,0.328-0.349,0.514-0.633l0.153,0.093
		c-0.295,0.438-0.574,0.747-0.837,0.927c-0.184,0.125-0.35,0.188-0.493,0.188c-0.121,0-0.215-0.035-0.282-0.112
		c-0.071-0.076-0.109-0.174-0.109-0.305c0-0.158,0.068-0.431,0.198-0.818l0.661-1.999c0.086-0.244,0.128-0.439,0.128-0.579
		c0-0.067-0.023-0.121-0.07-0.163s-0.104-0.061-0.175-0.061c-0.104,0-0.223,0.042-0.365,0.121c-0.268,0.145-0.546,0.391-0.84,0.735
		c-0.288,0.34-0.596,0.777-0.919,1.31c-0.17,0.281-0.312,0.589-0.423,0.924l-0.237,0.823h-0.735l0.902-3.126
		c0.104-0.375,0.158-0.601,0.158-0.675c0-0.07-0.027-0.136-0.088-0.191c-0.056-0.056-0.131-0.083-0.214-0.083
		c-0.04,0-0.109,0.009-0.207,0.022l-0.188,0.028l-0.049-0.177L27.018,85.695z"/>
	<path style="fill:#FFE6A6;" d="M87.182,88.328c-0.021,0.168-0.03,0.308-0.03,0.417c0,0.295,0.103,0.547,0.313,0.756
		c0.215,0.205,0.471,0.312,0.772,0.312c0.245,0,0.478-0.051,0.7-0.148c0.227-0.098,0.554-0.312,0.999-0.651l0.102,0.146
		c-0.786,0.781-1.533,1.173-2.245,1.173c-0.486,0-0.852-0.156-1.093-0.461c-0.247-0.305-0.368-0.64-0.368-1.012
		c0-0.496,0.151-1.001,0.456-1.521c0.305-0.517,0.687-0.922,1.147-1.21c0.458-0.286,0.935-0.433,1.419-0.433
		c0.355,0,0.611,0.074,0.784,0.219c0.165,0.139,0.251,0.309,0.251,0.507c0,0.274-0.109,0.54-0.333,0.791
		c-0.29,0.33-0.721,0.596-1.286,0.8C88.394,88.147,87.863,88.252,87.182,88.328z M87.219,88.087
		c0.498-0.056,0.905-0.154,1.219-0.289c0.412-0.182,0.727-0.399,0.934-0.656c0.207-0.251,0.312-0.493,0.312-0.721
		c0-0.14-0.044-0.251-0.135-0.34c-0.089-0.086-0.217-0.13-0.382-0.13c-0.345,0-0.71,0.182-1.096,0.539
		C87.684,86.854,87.397,87.384,87.219,88.087z"/>
	<path style="fill:#FFE6A6;" d="M38.334,83.461l2.05,5.226l1.123-3.895c0.094-0.325,0.14-0.577,0.14-0.754
		c0-0.125-0.042-0.219-0.128-0.288c-0.088-0.07-0.249-0.104-0.481-0.104c-0.042,0-0.084-0.003-0.128-0.005l0.054-0.18h2.173
		l-0.061,0.18c-0.226-0.002-0.394,0.021-0.502,0.072c-0.156,0.067-0.272,0.158-0.347,0.268c-0.109,0.155-0.217,0.426-0.324,0.816
		l-1.607,5.567H40.16l-2.233-5.697l-1.215,4.208c-0.091,0.321-0.132,0.565-0.132,0.738c0,0.125,0.039,0.223,0.118,0.288
		c0.081,0.062,0.277,0.109,0.584,0.133l-0.051,0.174h-2.152l0.069-0.174c0.266-0.007,0.444-0.03,0.533-0.065
		c0.138-0.054,0.237-0.126,0.305-0.217c0.096-0.13,0.205-0.391,0.321-0.771l1.387-4.795c-0.133-0.203-0.271-0.343-0.417-0.417
		c-0.148-0.077-0.379-0.116-0.688-0.128l0.054-0.18H38.334z"/>
	<path style="fill:#FFE6A6;" d="M50.551,84.471l-0.403,1.35h0.685l-0.091,0.319h-0.688l-0.9,2.934
		c-0.116,0.33-0.175,0.549-0.175,0.646c0,0.054,0.012,0.093,0.037,0.123c0.023,0.028,0.052,0.042,0.084,0.042
		c0.074,0,0.17-0.054,0.288-0.165c0.072-0.065,0.23-0.27,0.475-0.614l0.163,0.126c-0.288,0.439-0.561,0.747-0.816,0.921
		c-0.172,0.121-0.352,0.18-0.53,0.18c-0.138,0-0.249-0.047-0.338-0.138c-0.088-0.091-0.132-0.212-0.132-0.354
		c0-0.182,0.056-0.451,0.169-0.819l0.873-2.882h-0.759l0.049-0.198c0.363-0.103,0.673-0.251,0.929-0.446
		c0.256-0.2,0.542-0.54,0.865-1.024H50.551z"/>
	<path style="fill:#FFE6A6;" d="M31.794,88.189l-0.705,2.438c-0.039,0.145-0.058,0.252-0.058,0.316c0,0.052,0.019,0.094,0.053,0.121
		c0.04,0.032,0.126,0.049,0.264,0.061l-0.023,0.074h-1.119l0.027-0.074c0.121-0.005,0.2-0.014,0.235-0.028
		c0.062-0.027,0.109-0.06,0.14-0.106c0.044-0.065,0.096-0.187,0.146-0.363l0.505-1.754c0.028-0.104,0.047-0.168,0.052-0.182
		c0-0.03,0.004-0.056,0.004-0.084c0-0.051-0.014-0.091-0.042-0.121c-0.027-0.029-0.067-0.044-0.113-0.044
		c-0.037,0-0.096,0.01-0.177,0.028l-0.028-0.079l0.735-0.202H31.794z"/>
	<path style="fill:#FFE6A6;" d="M43.476,88.189l-0.705,2.438c-0.042,0.145-0.061,0.252-0.061,0.316c0,0.052,0.019,0.094,0.054,0.121
		c0.039,0.032,0.126,0.049,0.261,0.061l-0.021,0.074h-1.121l0.03-0.074c0.118-0.005,0.2-0.014,0.235-0.028
		c0.062-0.027,0.106-0.06,0.137-0.106c0.047-0.065,0.098-0.187,0.146-0.363l0.505-1.754c0.03-0.104,0.049-0.168,0.052-0.182
		c0.002-0.03,0.004-0.056,0.004-0.084c0-0.051-0.012-0.091-0.039-0.121c-0.025-0.029-0.065-0.044-0.114-0.044
		c-0.037,0-0.098,0.01-0.177,0.028l-0.028-0.079l0.735-0.202H43.476z"/>
	<polyline style="fill:#FFE6A6;" points="53.202,76.107 58.158,88.141 52.495,98.756 	"/>
	<path style="fill:#FFE6A6;" d="M122.828,45.748h4.312l0.658-2.298c0.128-0.447,0.19-0.796,0.19-1.042
		c0-0.119-0.027-0.219-0.086-0.303c-0.056-0.089-0.145-0.149-0.261-0.191c-0.118-0.041-0.354-0.061-0.695-0.061l0.067-0.244h3.709
		l-0.084,0.244c-0.314-0.004-0.547,0.028-0.705,0.096c-0.217,0.098-0.377,0.221-0.481,0.375c-0.149,0.214-0.303,0.596-0.459,1.14
		l-1.656,5.732c-0.133,0.424-0.204,0.73-0.204,0.912c0,0.158,0.061,0.279,0.181,0.36c0.121,0.082,0.41,0.135,0.863,0.166
		l-0.074,0.241h-3.558l0.096-0.241c0.356-0.01,0.591-0.042,0.71-0.096c0.182-0.084,0.313-0.188,0.397-0.318
		c0.116-0.178,0.261-0.566,0.436-1.164l0.823-2.848h-4.313l-0.86,2.987c-0.136,0.419-0.2,0.722-0.2,0.912
		c0,0.158,0.061,0.279,0.177,0.36c0.118,0.082,0.407,0.135,0.863,0.166l-0.059,0.241h-3.583l0.089-0.241
		c0.36-0.01,0.598-0.042,0.714-0.096c0.184-0.084,0.316-0.188,0.405-0.318c0.116-0.185,0.265-0.575,0.438-1.164l1.612-5.606
		c0.132-0.458,0.199-0.806,0.199-1.042c0-0.119-0.03-0.219-0.086-0.303c-0.058-0.089-0.144-0.149-0.268-0.191
		c-0.121-0.041-0.354-0.061-0.705-0.061l0.082-0.244h3.647l-0.074,0.244c-0.305-0.004-0.532,0.028-0.677,0.096
		c-0.212,0.091-0.37,0.214-0.473,0.365c-0.137,0.203-0.283,0.584-0.446,1.145L122.828,45.748z"/>
	<path style="fill:#FFE6A6;" d="M132.567,48.68l-0.121,0.063c-0.312-0.594-0.537-1.119-0.673-1.575
		c-0.104-0.356-0.158-0.717-0.158-1.077c0-0.845,0.196-1.601,0.587-2.269c0.481-0.816,1.259-1.614,2.333-2.387l0.089,0.135
		c-0.486,0.358-0.882,0.763-1.189,1.207c-0.384,0.557-0.7,1.227-0.941,2.013c-0.245,0.786-0.368,1.501-0.368,2.146
		C132.125,47.429,132.271,48.01,132.567,48.68z"/>
	<path style="fill:#FFE6A6;" d="M136.543,41.579c0.335,0,0.617,0.138,0.843,0.419c0.23,0.279,0.344,0.724,0.344,1.331
		c0,0.521-0.081,1.047-0.253,1.589c-0.17,0.54-0.41,1.008-0.717,1.405c-0.247,0.31-0.503,0.537-0.772,0.677
		c-0.156,0.079-0.338,0.116-0.545,0.116c-0.339,0-0.623-0.14-0.852-0.419c-0.228-0.278-0.347-0.726-0.347-1.335
		c0-0.601,0.119-1.205,0.35-1.81c0.268-0.708,0.614-1.247,1.03-1.615C135.896,41.695,136.203,41.579,136.543,41.579z
		 M136.553,41.786c-0.153,0-0.308,0.059-0.463,0.18c-0.154,0.118-0.319,0.367-0.481,0.744c-0.168,0.38-0.326,0.866-0.479,1.459
		c-0.195,0.779-0.296,1.442-0.296,1.991c0,0.272,0.059,0.475,0.177,0.612c0.116,0.135,0.261,0.202,0.431,0.202
		c0.158,0,0.296-0.054,0.407-0.158c0.303-0.284,0.559-0.766,0.774-1.449c0.35-1.121,0.523-2.029,0.523-2.731
		c0-0.291-0.058-0.505-0.177-0.643C136.851,41.856,136.713,41.786,136.553,41.786z"/>
	<path style="fill:#FFE6A6;" d="M138.953,41.508l0.124-0.072c0.312,0.591,0.535,1.114,0.667,1.57
		c0.107,0.355,0.163,0.717,0.163,1.077c0,0.847-0.197,1.601-0.586,2.266c-0.484,0.819-1.261,1.619-2.334,2.395l-0.088-0.119
		c0.486-0.362,0.879-0.766,1.191-1.21c0.384-0.554,0.697-1.226,0.939-2.015c0.244-0.786,0.367-1.503,0.367-2.147
		C139.397,42.762,139.249,42.178,138.953,41.508z"/>
	<line style="fill:#FFE6A6;" x1="15.334" y1="128.957" x2="26.659" y2="128.957"/>
	<line style="fill:#FFE6A6;" x1="29.963" y1="128.957" x2="41.288" y2="128.957"/>
	<line style="fill:#FFE6A6;" x1="104.283" y1="127.894" x2="115.609" y2="127.894"/>
	<line style="fill:#FFE6A6;" x1="104.283" y1="131.081" x2="115.609" y2="131.081"/>
	<line style="fill:#FFE6A6;" x1="44.592" y1="128.957" x2="55.915" y2="128.957"/>
	<line style="fill:#FFE6A6;" x1="59.691" y1="118.104" x2="59.691" y2="139.81"/>
	<line style="fill:#FFE6A6;" x1="144.274" y1="118.104" x2="144.274" y2="139.81"/>
	<path style="fill:#FFE6A6;" d="M36.254,114.278l-1.405,4.867c0.651-0.929,1.156-1.54,1.52-1.847
		c0.365-0.303,0.714-0.456,1.047-0.456c0.167,0,0.313,0.06,0.428,0.181s0.17,0.282,0.17,0.484c0,0.219-0.051,0.479-0.156,0.789
		l-0.684,2.068c-0.086,0.251-0.126,0.391-0.126,0.414c0,0.046,0.012,0.083,0.035,0.111c0.025,0.027,0.056,0.042,0.086,0.042
		c0.04,0,0.084-0.019,0.135-0.061c0.166-0.145,0.336-0.347,0.498-0.605l0.156,0.096c-0.109,0.175-0.259,0.365-0.449,0.57
		c-0.193,0.204-0.355,0.347-0.493,0.426c-0.138,0.076-0.258,0.116-0.367,0.116c-0.116,0-0.212-0.04-0.286-0.116
		c-0.075-0.079-0.112-0.18-0.112-0.305c0-0.145,0.067-0.417,0.198-0.814l0.658-1.994c0.084-0.249,0.123-0.444,0.123-0.589
		c0-0.064-0.021-0.116-0.067-0.158c-0.044-0.039-0.104-0.058-0.177-0.058c-0.107,0-0.228,0.035-0.363,0.109
		c-0.246,0.14-0.53,0.396-0.855,0.774c-0.086,0.101-0.377,0.517-0.875,1.242c-0.153,0.23-0.274,0.484-0.37,0.759l-0.31,1.026h-0.735
		l1.647-5.703l0.175-0.616c0-0.084-0.037-0.16-0.109-0.228c-0.07-0.065-0.16-0.098-0.263-0.098c-0.063,0-0.156,0.009-0.284,0.027
		l-0.104,0.019v-0.2L36.254,114.278z"/>
	<path style="fill:#FFE6A6;" d="M54.089,134.373l-0.402,1.347h0.687l-0.091,0.321h-0.693l-0.898,2.932
		c-0.116,0.335-0.174,0.553-0.174,0.648c0,0.054,0.014,0.096,0.037,0.123c0.023,0.028,0.051,0.042,0.086,0.042
		c0.072,0,0.167-0.056,0.288-0.165c0.07-0.067,0.229-0.271,0.471-0.611l0.167,0.123c-0.288,0.439-0.561,0.747-0.818,0.919
		c-0.175,0.121-0.352,0.182-0.531,0.182c-0.137,0-0.251-0.047-0.339-0.138c-0.087-0.091-0.128-0.212-0.128-0.352
		c0-0.181,0.053-0.455,0.165-0.823l0.872-2.88H52.03l0.046-0.2c0.368-0.098,0.678-0.247,0.934-0.446
		c0.253-0.196,0.542-0.538,0.863-1.021H54.089z"/>
	<path style="fill:#FFE6A6;" d="M66.301,126.751l-0.653,2.28c0.665-0.934,1.18-1.545,1.53-1.841c0.358-0.293,0.7-0.439,1.031-0.439
		c0.177,0,0.325,0.061,0.441,0.184c0.114,0.121,0.175,0.279,0.175,0.478c0,0.197-0.056,0.458-0.163,0.788l-0.684,2.075
		c-0.079,0.237-0.119,0.387-0.119,0.438c0,0.047,0.012,0.084,0.035,0.116c0.023,0.028,0.049,0.045,0.074,0.045
		c0.037,0,0.082-0.021,0.131-0.063c0.158-0.137,0.328-0.349,0.512-0.633l0.155,0.094c-0.295,0.437-0.572,0.744-0.837,0.926
		c-0.184,0.125-0.35,0.188-0.493,0.188c-0.119,0-0.212-0.04-0.284-0.112c-0.067-0.076-0.103-0.177-0.103-0.305
		c0-0.158,0.065-0.433,0.193-0.818l0.663-1.996c0.084-0.249,0.126-0.442,0.126-0.582c0-0.067-0.023-0.119-0.07-0.163
		c-0.046-0.042-0.106-0.061-0.177-0.061c-0.098,0-0.221,0.037-0.363,0.116c-0.27,0.151-0.546,0.396-0.837,0.738
		c-0.289,0.342-0.598,0.779-0.919,1.31c-0.17,0.284-0.314,0.591-0.426,0.926l-0.237,0.826h-0.735l0.902-3.132
		c0.105-0.372,0.158-0.598,0.158-0.672c0-0.075-0.03-0.135-0.088-0.191c-0.056-0.056-0.128-0.084-0.214-0.084
		c-0.04,0-0.109,0.01-0.207,0.021l-0.187,0.03l-0.049-0.177L66.301,126.751z"/>
	<path style="fill:#FFE6A6;" d="M77.617,124.518l2.05,5.223l1.126-3.895c0.093-0.325,0.14-0.576,0.14-0.756
		c0-0.121-0.044-0.217-0.131-0.286c-0.086-0.069-0.249-0.103-0.483-0.103c-0.04,0-0.082-0.005-0.121-0.005l0.054-0.179h2.17
		l-0.062,0.179c-0.226-0.007-0.391,0.017-0.502,0.067c-0.156,0.07-0.272,0.161-0.35,0.268c-0.104,0.158-0.212,0.429-0.321,0.819
		l-1.607,5.565h-0.13l-2.236-5.695l-1.214,4.208c-0.091,0.319-0.135,0.565-0.135,0.737c0,0.126,0.042,0.222,0.123,0.289
		c0.079,0.062,0.274,0.107,0.579,0.13l-0.049,0.18h-2.152l0.07-0.18c0.263-0.004,0.439-0.025,0.532-0.062
		c0.136-0.056,0.237-0.126,0.303-0.214c0.098-0.133,0.202-0.394,0.326-0.775l1.382-4.797c-0.128-0.2-0.271-0.34-0.414-0.414
		c-0.149-0.074-0.377-0.118-0.691-0.126l0.056-0.179H77.617z"/>
	<path style="fill:#FFE6A6;" d="M89.836,125.525l-0.404,1.349h0.684l-0.086,0.321h-0.693l-0.9,2.93
		c-0.114,0.332-0.172,0.551-0.172,0.648c0,0.056,0.012,0.093,0.034,0.123c0.023,0.028,0.052,0.042,0.086,0.042
		c0.072,0,0.17-0.054,0.289-0.165c0.069-0.065,0.228-0.27,0.473-0.611l0.162,0.123c-0.286,0.441-0.558,0.747-0.816,0.921
		c-0.175,0.119-0.352,0.18-0.53,0.18c-0.138,0-0.249-0.047-0.338-0.138c-0.088-0.093-0.135-0.209-0.135-0.352
		c0-0.181,0.059-0.453,0.17-0.821l0.875-2.88h-0.759l0.049-0.2c0.365-0.103,0.675-0.251,0.931-0.446
		c0.252-0.2,0.542-0.54,0.863-1.023H89.836z"/>
	<path style="fill:#FFE6A6;" d="M71.077,129.24l-0.7,2.443c-0.042,0.144-0.062,0.248-0.062,0.313c0,0.052,0.019,0.096,0.056,0.121
		c0.037,0.03,0.123,0.049,0.261,0.059l-0.023,0.079h-1.119l0.03-0.079c0.118-0.003,0.197-0.012,0.235-0.026
		c0.058-0.027,0.104-0.064,0.135-0.106c0.049-0.07,0.1-0.187,0.146-0.36l0.507-1.757c0.03-0.107,0.047-0.168,0.049-0.182
		c0.005-0.028,0.007-0.058,0.007-0.084c0-0.051-0.014-0.093-0.042-0.12c-0.027-0.028-0.062-0.045-0.111-0.045
		c-0.039,0-0.1,0.012-0.177,0.025l-0.03-0.076l0.735-0.205H71.077z"/>
	<path style="fill:#FFE6A6;" d="M82.759,129.24l-0.705,2.443c-0.039,0.144-0.062,0.248-0.062,0.313c0,0.052,0.021,0.096,0.058,0.121
		c0.035,0.03,0.124,0.049,0.259,0.059l-0.021,0.079h-1.119l0.028-0.079c0.121-0.003,0.197-0.012,0.237-0.026
		c0.061-0.027,0.104-0.064,0.138-0.106c0.049-0.07,0.095-0.187,0.146-0.36l0.502-1.757c0.033-0.107,0.047-0.168,0.054-0.182
		c0.005-0.028,0.005-0.058,0.005-0.084c0-0.051-0.015-0.093-0.042-0.12c-0.028-0.028-0.065-0.045-0.111-0.045
		c-0.04,0-0.099,0.012-0.18,0.025l-0.027-0.076l0.734-0.205H82.759z"/>
	<path style="fill:#FFE6A6;" d="M33.181,136.66c0.13,0.162,0.293,0.244,0.486,0.244c0.079,0,0.234-0.035,0.468-0.101
		c0.232-0.065,0.381-0.106,0.441-0.116c0.116-0.019,0.252-0.027,0.396-0.027c0.503,0,0.915,0.111,1.233,0.332
		s0.477,0.493,0.477,0.816c0,0.173-0.058,0.35-0.172,0.521c-0.116,0.177-0.374,0.442-0.779,0.791
		c-0.407,0.349-0.675,0.623-0.798,0.823c-0.072,0.112-0.109,0.233-0.109,0.368c0,0.204,0.104,0.377,0.307,0.517
		c0.2,0.142,0.475,0.212,0.824,0.212c0.453,0,0.81-0.105,1.072-0.312c0.258-0.207,0.4-0.561,0.431-1.061h0.241l0.422,1.617h-0.252
		c-0.104-0.149-0.26-0.224-0.465-0.224c-0.079,0-0.195,0.019-0.347,0.061c-0.426,0.106-0.803,0.163-1.129,0.163
		c-0.6,0-1.098-0.136-1.488-0.402c-0.391-0.268-0.587-0.575-0.587-0.92c0-0.214,0.084-0.441,0.254-0.679
		c0.168-0.24,0.542-0.596,1.124-1.065c0.219-0.182,0.36-0.321,0.426-0.424c0.062-0.098,0.098-0.202,0.098-0.314
		c0-0.16-0.084-0.293-0.249-0.406c-0.163-0.112-0.384-0.17-0.663-0.17c-0.345,0-0.638,0.102-0.87,0.305
		c-0.237,0.204-0.363,0.53-0.384,0.977h-0.247l-0.419-1.525H33.181z"/>
	<path style="fill:#FFE6A6;" d="M51.228,116.135l-1.042,4.835l-0.096,0.379c-0.012,0.035-0.017,0.067-0.017,0.091
		c0,0.042,0.012,0.077,0.028,0.107c0.016,0.021,0.037,0.032,0.062,0.032c0.023,0,0.059-0.019,0.101-0.061
		c0.076-0.072,0.179-0.237,0.309-0.493l0.143,0.103c-0.165,0.279-0.331,0.493-0.503,0.628c-0.172,0.138-0.333,0.205-0.479,0.205
		c-0.102,0-0.179-0.028-0.237-0.089c-0.051-0.061-0.081-0.148-0.081-0.263c0-0.137,0.032-0.318,0.093-0.542l0.086-0.303
		c-0.399,0.475-0.77,0.808-1.103,0.996c-0.244,0.135-0.481,0.2-0.714,0.2c-0.224,0-0.417-0.079-0.579-0.249
		c-0.161-0.165-0.242-0.397-0.242-0.687c0-0.439,0.145-0.902,0.433-1.389s0.656-0.877,1.101-1.17
		c0.347-0.233,0.675-0.348,0.981-0.348c0.187,0,0.338,0.04,0.461,0.124c0.123,0.081,0.216,0.219,0.279,0.404l0.365-2.41
		L51.228,116.135z M49.455,118.334c-0.198,0-0.403,0.081-0.622,0.246c-0.309,0.235-0.584,0.584-0.823,1.043
		c-0.244,0.46-0.363,0.874-0.363,1.246c0,0.188,0.054,0.336,0.161,0.445c0.104,0.109,0.23,0.162,0.367,0.162
		c0.342,0,0.715-0.221,1.122-0.665c0.493-0.591,0.73-1.191,0.716-1.812c0-0.235-0.051-0.405-0.148-0.51
		C49.762,118.385,49.624,118.334,49.455,118.334z"/>
	<path style="fill:#FFE6A6;" d="M50.26,118.326c0,0,0.512-4.196-2.255-2.005l-0.216-0.475c0,0,3.055-2.196,3.055,1.433
		L50.26,118.326z"/>
	<path style="fill:#FFE6A6;" d="M50.532,135.131l-1.04,4.832l-0.096,0.382c-0.012,0.037-0.014,0.07-0.014,0.093
		c0,0.042,0.007,0.077,0.027,0.107c0.017,0.023,0.037,0.032,0.061,0.032c0.025,0,0.059-0.019,0.101-0.058
		c0.074-0.077,0.181-0.24,0.309-0.496l0.143,0.101c-0.163,0.281-0.33,0.493-0.503,0.63c-0.172,0.14-0.332,0.207-0.477,0.207
		c-0.103,0-0.182-0.029-0.24-0.09c-0.053-0.061-0.081-0.149-0.081-0.266c0-0.135,0.03-0.316,0.093-0.54l0.089-0.302
		c-0.4,0.475-0.771,0.805-1.107,0.993c-0.239,0.137-0.479,0.204-0.712,0.204c-0.221,0-0.414-0.083-0.577-0.251
		c-0.165-0.167-0.244-0.397-0.244-0.688c0-0.439,0.145-0.9,0.433-1.389c0.291-0.486,0.656-0.875,1.099-1.168
		c0.349-0.232,0.677-0.347,0.983-0.347c0.184,0,0.338,0.039,0.463,0.121c0.121,0.081,0.215,0.219,0.277,0.407l0.367-2.413
		L50.532,135.131z M48.762,137.332c-0.196,0-0.403,0.081-0.622,0.249c-0.307,0.232-0.583,0.581-0.823,1.037
		c-0.244,0.464-0.365,0.878-0.365,1.252c0,0.187,0.059,0.335,0.16,0.442c0.109,0.109,0.23,0.162,0.37,0.162
		c0.342,0,0.717-0.221,1.122-0.665c0.493-0.589,0.732-1.193,0.716-1.812c0-0.234-0.049-0.404-0.151-0.509
		C49.07,137.386,48.934,137.332,48.762,137.332z"/>
	<path style="fill:#FFE6A6;" d="M49.568,137.327c0,0,0.51-4.201-2.257-2.008l-0.219-0.475c0,0,3.055-2.196,3.055,1.431
		L49.568,137.327z"/>
	<polyline style="fill:#FFE6A6;" points="92.488,117.161 97.441,129.191 91.781,139.81 	"/>
	<path style="fill:#FFE6A6;" d="M122.828,128.207h4.312l0.658-2.296c0.128-0.449,0.19-0.796,0.19-1.042
		c0-0.116-0.027-0.219-0.086-0.305c-0.056-0.084-0.145-0.146-0.261-0.188c-0.118-0.042-0.354-0.061-0.695-0.061l0.067-0.242h3.709
		l-0.084,0.242c-0.314-0.005-0.547,0.027-0.705,0.095c-0.217,0.096-0.377,0.222-0.481,0.373c-0.149,0.219-0.303,0.598-0.459,1.142
		l-1.656,5.732c-0.133,0.424-0.204,0.729-0.204,0.912c0,0.161,0.061,0.279,0.181,0.361c0.121,0.081,0.41,0.137,0.863,0.167
		l-0.074,0.24h-3.558l0.096-0.24c0.356-0.012,0.591-0.044,0.71-0.1c0.182-0.082,0.313-0.184,0.397-0.312
		c0.116-0.181,0.261-0.567,0.436-1.17l0.823-2.846h-4.313l-0.86,2.987c-0.136,0.415-0.2,0.722-0.2,0.912
		c0,0.161,0.061,0.279,0.177,0.361c0.118,0.081,0.407,0.137,0.863,0.167l-0.059,0.24h-3.583l0.089-0.24
		c0.36-0.012,0.598-0.044,0.714-0.1c0.184-0.082,0.316-0.184,0.405-0.312c0.116-0.19,0.265-0.576,0.438-1.17l1.612-5.606
		c0.132-0.456,0.199-0.803,0.199-1.04c0-0.121-0.03-0.219-0.086-0.305c-0.058-0.086-0.144-0.146-0.268-0.188
		c-0.121-0.042-0.354-0.061-0.705-0.061l0.082-0.242h3.647l-0.074,0.242c-0.305-0.005-0.532,0.027-0.677,0.095
		c-0.212,0.091-0.37,0.217-0.473,0.365c-0.137,0.205-0.283,0.584-0.446,1.145L122.828,128.207z"/>
	<path style="fill:#FFE6A6;" d="M132.567,131.141l-0.121,0.065c-0.312-0.596-0.537-1.121-0.673-1.577
		c-0.104-0.358-0.158-0.717-0.158-1.077c0-0.845,0.196-1.599,0.587-2.269c0.481-0.816,1.259-1.612,2.333-2.389l0.089,0.137
		c-0.486,0.36-0.882,0.761-1.189,1.207c-0.384,0.555-0.7,1.227-0.941,2.013c-0.245,0.786-0.368,1.503-0.368,2.146
		C132.125,129.89,132.271,130.471,132.567,131.141z"/>
	<path style="fill:#FFE6A6;" d="M136.543,124.036c0.335,0,0.617,0.144,0.843,0.423c0.23,0.282,0.344,0.727,0.344,1.331
		c0,0.519-0.081,1.05-0.253,1.587c-0.17,0.544-0.41,1.012-0.717,1.405c-0.247,0.313-0.503,0.54-0.772,0.679
		c-0.156,0.08-0.338,0.119-0.545,0.119c-0.339,0-0.623-0.142-0.852-0.424c-0.228-0.279-0.347-0.726-0.347-1.333
		c0-0.6,0.119-1.202,0.35-1.81c0.268-0.707,0.614-1.245,1.03-1.615C135.896,124.157,136.203,124.036,136.543,124.036z
		 M136.553,124.25c-0.153,0-0.308,0.056-0.463,0.177c-0.154,0.121-0.319,0.37-0.481,0.747c-0.168,0.374-0.326,0.863-0.479,1.456
		c-0.195,0.779-0.296,1.442-0.296,1.991c0,0.272,0.059,0.475,0.177,0.612c0.116,0.135,0.261,0.202,0.431,0.202
		c0.158,0,0.296-0.053,0.407-0.158c0.303-0.281,0.559-0.766,0.774-1.451c0.35-1.119,0.523-2.026,0.523-2.729
		c0-0.291-0.058-0.502-0.177-0.642C136.851,124.317,136.713,124.25,136.553,124.25z"/>
	<path style="fill:#FFE6A6;" d="M138.953,123.971l0.124-0.076c0.312,0.591,0.535,1.114,0.667,1.572
		c0.107,0.355,0.163,0.714,0.163,1.077c0,0.847-0.197,1.601-0.586,2.271c-0.484,0.819-1.261,1.615-2.334,2.392l-0.088-0.125
		c0.486-0.358,0.879-0.761,1.191-1.206c0.384-0.556,0.697-1.226,0.939-2.012c0.244-0.789,0.367-1.506,0.367-2.15
		C139.397,125.223,139.249,124.641,138.953,123.971z"/>
	<line style="fill:#FFE6A6;" x1="189.223" y1="45.435" x2="200.548" y2="45.435"/>
	<line style="fill:#FFE6A6;" x1="189.223" y1="48.619" x2="200.548" y2="48.619"/>
	<path style="fill:#FFE6A6;" d="M151.24,44.287l-0.656,2.285c0.67-0.936,1.18-1.547,1.533-1.843c0.358-0.293,0.7-0.442,1.03-0.442
		c0.177,0,0.326,0.065,0.439,0.187c0.119,0.121,0.177,0.279,0.177,0.475c0,0.2-0.056,0.463-0.165,0.791l-0.684,2.075
		c-0.077,0.24-0.116,0.387-0.116,0.438c0,0.047,0.012,0.084,0.034,0.111c0.023,0.033,0.052,0.047,0.075,0.047
		c0.034,0,0.081-0.019,0.13-0.061c0.156-0.135,0.328-0.349,0.515-0.635l0.153,0.095c-0.296,0.433-0.575,0.747-0.838,0.927
		c-0.184,0.125-0.349,0.186-0.493,0.186c-0.121,0-0.214-0.035-0.283-0.111c-0.07-0.074-0.103-0.175-0.103-0.303
		c0-0.158,0.064-0.433,0.19-0.818l0.663-1.997c0.089-0.249,0.128-0.441,0.128-0.581c0-0.065-0.023-0.121-0.069-0.163
		c-0.047-0.042-0.107-0.061-0.175-0.061c-0.103,0-0.224,0.037-0.365,0.119c-0.27,0.146-0.549,0.393-0.84,0.737
		c-0.286,0.34-0.596,0.777-0.919,1.312c-0.168,0.278-0.312,0.586-0.424,0.921l-0.237,0.823h-0.735l0.903-3.129
		c0.104-0.372,0.158-0.598,0.158-0.672c0-0.075-0.028-0.136-0.089-0.191c-0.056-0.056-0.128-0.081-0.214-0.081
		c-0.039,0-0.109,0.007-0.207,0.021l-0.187,0.028l-0.049-0.177L151.24,44.287z"/>
	<path style="fill:#FFE6A6;" d="M162.556,42.059l2.05,5.221l1.126-3.899c0.094-0.321,0.14-0.572,0.14-0.749
		c0-0.123-0.044-0.219-0.13-0.288c-0.089-0.07-0.249-0.104-0.484-0.104c-0.039,0-0.081-0.003-0.125-0.005l0.056-0.175h2.171
		l-0.061,0.175c-0.224-0.003-0.394,0.021-0.503,0.069c-0.153,0.067-0.272,0.161-0.349,0.268c-0.107,0.158-0.212,0.429-0.321,0.819
		l-1.607,5.567h-0.133l-2.233-5.698l-1.217,4.209c-0.089,0.319-0.133,0.565-0.133,0.737c0,0.126,0.04,0.222,0.121,0.286
		c0.081,0.065,0.274,0.112,0.582,0.133l-0.05,0.177h-2.151l0.069-0.177c0.263-0.005,0.442-0.028,0.53-0.062
		c0.138-0.056,0.237-0.126,0.306-0.217c0.098-0.13,0.204-0.391,0.325-0.774l1.382-4.793c-0.128-0.202-0.265-0.342-0.416-0.416
		c-0.146-0.074-0.38-0.119-0.688-0.128l0.053-0.175H162.556z"/>
	<path style="fill:#FFE6A6;" d="M174.772,43.063l-0.4,1.348h0.685l-0.089,0.321h-0.693l-0.9,2.934
		c-0.113,0.332-0.174,0.549-0.174,0.646c0,0.056,0.014,0.096,0.037,0.123c0.025,0.03,0.051,0.045,0.086,0.045
		c0.072,0,0.167-0.057,0.288-0.168c0.07-0.07,0.229-0.27,0.473-0.612l0.165,0.124c-0.288,0.439-0.561,0.744-0.819,0.919
		c-0.172,0.12-0.351,0.179-0.527,0.179c-0.14,0-0.252-0.044-0.34-0.135c-0.089-0.093-0.133-0.209-0.133-0.354
		c0-0.18,0.056-0.454,0.17-0.821l0.872-2.88h-0.758l0.049-0.198c0.365-0.103,0.675-0.251,0.928-0.446
		c0.256-0.198,0.545-0.54,0.866-1.024H174.772z"/>
	<path style="fill:#FFE6A6;" d="M156.019,46.781l-0.705,2.438c-0.039,0.146-0.061,0.251-0.061,0.316
		c0,0.052,0.021,0.093,0.054,0.121c0.039,0.03,0.123,0.051,0.263,0.058l-0.023,0.077h-1.119l0.03-0.077
		c0.119-0.002,0.198-0.011,0.233-0.025c0.062-0.027,0.109-0.062,0.14-0.106c0.049-0.065,0.098-0.188,0.146-0.363l0.505-1.754
		c0.027-0.107,0.046-0.165,0.049-0.182c0.004-0.032,0.009-0.059,0.009-0.084c0-0.051-0.017-0.093-0.042-0.121
		c-0.03-0.027-0.067-0.044-0.113-0.044c-0.04,0-0.101,0.01-0.18,0.028l-0.025-0.079l0.735-0.203H156.019z"/>
	<path style="fill:#FFE6A6;" d="M167.697,46.781l-0.704,2.438c-0.042,0.146-0.061,0.251-0.061,0.316
		c0,0.052,0.019,0.093,0.056,0.121c0.037,0.03,0.123,0.051,0.261,0.058l-0.023,0.077h-1.119l0.027-0.077
		c0.121-0.002,0.2-0.011,0.237-0.025c0.061-0.027,0.105-0.062,0.138-0.106c0.047-0.065,0.096-0.188,0.145-0.363l0.505-1.754
		c0.032-0.107,0.049-0.165,0.051-0.182c0.005-0.032,0.007-0.059,0.007-0.084c0-0.051-0.014-0.093-0.039-0.121
		c-0.028-0.027-0.067-0.044-0.116-0.044c-0.04,0-0.096,0.01-0.177,0.028l-0.028-0.079l0.735-0.203H167.697z"/>
	<line style="fill:#FFE6A6;" x1="133.305" y1="76.342" x2="133.305" y2="98.049"/>
	<path style="fill:#FFE6A6;" d="M140.271,84.987l-0.658,2.282c0.67-0.933,1.182-1.544,1.535-1.84c0.358-0.293,0.7-0.442,1.026-0.442
		c0.179,0,0.327,0.061,0.444,0.185c0.116,0.123,0.172,0.281,0.172,0.479c0,0.195-0.054,0.459-0.161,0.789l-0.684,2.075
		c-0.079,0.242-0.118,0.386-0.118,0.438c0,0.046,0.009,0.084,0.037,0.114c0.023,0.03,0.049,0.044,0.074,0.044
		c0.037,0,0.077-0.019,0.13-0.061c0.154-0.14,0.326-0.349,0.512-0.635l0.156,0.095c-0.295,0.436-0.574,0.745-0.838,0.926
		c-0.186,0.126-0.349,0.187-0.497,0.187c-0.117,0-0.21-0.037-0.279-0.111c-0.07-0.075-0.107-0.177-0.107-0.303
		c0-0.158,0.067-0.433,0.198-0.819l0.66-1.996c0.086-0.251,0.126-0.444,0.126-0.581c0-0.07-0.023-0.121-0.072-0.163
		c-0.047-0.042-0.103-0.061-0.172-0.061c-0.103,0-0.224,0.039-0.363,0.121c-0.27,0.146-0.549,0.391-0.84,0.735
		c-0.291,0.339-0.596,0.776-0.919,1.308c-0.17,0.283-0.312,0.591-0.426,0.926l-0.235,0.823h-0.739l0.905-3.132
		c0.106-0.369,0.158-0.595,0.158-0.67c0-0.072-0.028-0.137-0.089-0.19c-0.056-0.056-0.126-0.081-0.212-0.081
		c-0.042,0-0.109,0.007-0.209,0.016l-0.188,0.033l-0.049-0.177L140.271,84.987z"/>
	<path style="fill:#FFE6A6;" d="M151.587,82.754l2.047,5.226l1.126-3.895c0.091-0.328,0.138-0.577,0.138-0.759
		c0-0.121-0.042-0.214-0.128-0.283c-0.087-0.07-0.247-0.103-0.482-0.103c-0.041,0-0.081-0.005-0.128-0.007l0.059-0.18h2.168
		l-0.061,0.18c-0.226-0.003-0.391,0.019-0.5,0.067c-0.158,0.069-0.272,0.163-0.349,0.27c-0.107,0.158-0.217,0.429-0.323,0.819
		l-1.605,5.564h-0.135l-2.233-5.695l-1.215,4.209c-0.091,0.318-0.135,0.565-0.135,0.737c0,0.126,0.042,0.224,0.126,0.286
		c0.076,0.067,0.27,0.109,0.576,0.133l-0.049,0.177h-2.154l0.07-0.177c0.268-0.005,0.446-0.025,0.535-0.065
		c0.137-0.051,0.237-0.125,0.305-0.211c0.093-0.136,0.202-0.394,0.321-0.775l1.384-4.797c-0.128-0.2-0.268-0.34-0.414-0.414
		c-0.149-0.077-0.379-0.116-0.693-0.128l0.056-0.18H151.587z"/>
	<path style="fill:#FFE6A6;" d="M145.047,87.481l-0.705,2.438c-0.037,0.146-0.059,0.251-0.059,0.314
		c0,0.053,0.019,0.095,0.054,0.123c0.037,0.03,0.126,0.049,0.259,0.058l-0.019,0.079h-1.124l0.032-0.079
		c0.119-0.002,0.195-0.011,0.235-0.027c0.061-0.025,0.106-0.061,0.137-0.104c0.047-0.065,0.096-0.187,0.146-0.363l0.505-1.754
		c0.03-0.107,0.047-0.168,0.052-0.182c0.002-0.028,0.005-0.059,0.005-0.086c0-0.049-0.012-0.091-0.04-0.119
		c-0.03-0.03-0.065-0.044-0.116-0.044c-0.037,0-0.096,0.009-0.175,0.025l-0.03-0.074l0.738-0.205H145.047z"/>
	<path style="fill:#FFE6A6;" d="M156.009,87.54h0.987l-0.099,0.36h-0.896l-0.158,0.363c0.237,0.037,0.419,0.109,0.552,0.219
		c0.202,0.167,0.303,0.404,0.303,0.712c0,0.2-0.035,0.384-0.114,0.546c-0.072,0.163-0.163,0.301-0.272,0.412
		c-0.104,0.109-0.221,0.195-0.347,0.261c-0.167,0.089-0.337,0.13-0.507,0.13c-0.146,0-0.263-0.029-0.347-0.095
		c-0.059-0.044-0.086-0.101-0.086-0.168c0-0.051,0.016-0.095,0.053-0.133c0.038-0.037,0.084-0.056,0.14-0.056
		c0.079,0,0.163,0.037,0.259,0.116c0.056,0.047,0.104,0.079,0.142,0.094c0.03,0.014,0.067,0.021,0.109,0.021
		c0.163,0,0.314-0.081,0.451-0.244c0.138-0.163,0.207-0.375,0.207-0.633c0-0.182-0.039-0.34-0.111-0.465
		c-0.072-0.126-0.168-0.219-0.277-0.271c-0.113-0.051-0.265-0.088-0.453-0.106L156.009,87.54z"/>
	<polyline style="fill:#FFE6A6;" points="177.427,34.697 182.38,46.73 176.72,57.349 	"/>
	<line style="fill:#FFE6A6;" x1="227.445" y1="35.643" x2="227.445" y2="57.349"/>
	<path style="fill:#FFE6A6;" d="M234.41,44.287l-0.655,2.285c0.667-0.936,1.177-1.547,1.533-1.843
		c0.357-0.293,0.697-0.442,1.03-0.442c0.177,0,0.323,0.065,0.439,0.187c0.114,0.121,0.175,0.279,0.175,0.475
		c0,0.2-0.059,0.463-0.163,0.791l-0.684,2.075c-0.079,0.24-0.116,0.387-0.116,0.438c0,0.047,0.009,0.084,0.032,0.111
		c0.025,0.033,0.049,0.047,0.079,0.047c0.032,0,0.077-0.019,0.126-0.061c0.155-0.135,0.33-0.349,0.514-0.635l0.153,0.095
		c-0.293,0.433-0.574,0.747-0.835,0.927c-0.184,0.125-0.352,0.186-0.495,0.186c-0.117,0-0.21-0.035-0.279-0.111
		c-0.07-0.074-0.107-0.175-0.107-0.303c0-0.158,0.065-0.433,0.195-0.818l0.663-1.997c0.082-0.249,0.123-0.441,0.123-0.581
		c0-0.065-0.022-0.121-0.067-0.163c-0.049-0.042-0.109-0.061-0.174-0.061c-0.103,0-0.226,0.037-0.368,0.119
		c-0.265,0.146-0.544,0.393-0.835,0.737c-0.293,0.34-0.596,0.777-0.921,1.312c-0.17,0.278-0.312,0.586-0.424,0.921l-0.239,0.823
		h-0.735l0.902-3.129c0.104-0.372,0.161-0.598,0.161-0.672c0-0.075-0.03-0.136-0.089-0.191s-0.13-0.081-0.217-0.081
		c-0.037,0-0.104,0.007-0.207,0.021l-0.186,0.028l-0.049-0.177L234.41,44.287z"/>
	<path style="fill:#FFE6A6;" d="M245.727,42.059l2.05,5.221l1.124-3.899c0.093-0.321,0.14-0.572,0.14-0.749
		c0-0.123-0.045-0.219-0.131-0.288c-0.086-0.07-0.249-0.104-0.481-0.104c-0.042,0-0.081-0.003-0.126-0.005l0.057-0.175h2.168
		l-0.059,0.175c-0.226-0.003-0.391,0.021-0.502,0.069c-0.156,0.067-0.272,0.161-0.35,0.268c-0.104,0.158-0.216,0.429-0.325,0.819
		l-1.603,5.567h-0.133l-2.236-5.698l-1.212,4.209c-0.091,0.319-0.135,0.565-0.135,0.737c0,0.126,0.039,0.222,0.121,0.286
		c0.081,0.065,0.274,0.112,0.579,0.133l-0.051,0.177h-2.15l0.07-0.177c0.265-0.005,0.441-0.028,0.535-0.062
		c0.132-0.056,0.237-0.126,0.302-0.217c0.096-0.13,0.205-0.391,0.324-0.774l1.384-4.793c-0.13-0.202-0.27-0.342-0.419-0.416
		c-0.146-0.074-0.374-0.119-0.687-0.128l0.054-0.175H245.727z"/>
	<path style="fill:#FFE6A6;" d="M257.945,43.063l-0.407,1.348h0.687l-0.088,0.321h-0.691l-0.905,2.934
		c-0.113,0.332-0.167,0.549-0.167,0.646c0,0.056,0.009,0.096,0.032,0.123c0.023,0.03,0.054,0.045,0.084,0.045
		c0.074,0,0.17-0.057,0.293-0.168c0.072-0.07,0.229-0.27,0.47-0.612l0.166,0.124c-0.289,0.439-0.562,0.744-0.817,0.919
		c-0.177,0.12-0.354,0.179-0.532,0.179c-0.138,0-0.252-0.044-0.335-0.135c-0.089-0.093-0.133-0.209-0.133-0.354
		c0-0.18,0.056-0.454,0.165-0.821l0.877-2.88h-0.761l0.049-0.198c0.365-0.103,0.675-0.251,0.931-0.446
		c0.254-0.198,0.542-0.54,0.863-1.024H257.945z"/>
	<path style="fill:#FFE6A6;" d="M239.187,46.781l-0.702,2.438c-0.044,0.146-0.062,0.251-0.062,0.316
		c0,0.052,0.019,0.093,0.056,0.121c0.037,0.03,0.123,0.051,0.261,0.058l-0.021,0.077h-1.124l0.03-0.077
		c0.124-0.002,0.198-0.011,0.237-0.025c0.061-0.027,0.105-0.062,0.14-0.106c0.047-0.065,0.096-0.188,0.143-0.363l0.505-1.754
		c0.032-0.107,0.049-0.165,0.051-0.182c0.005-0.032,0.007-0.059,0.007-0.084c0-0.051-0.014-0.093-0.039-0.121
		c-0.028-0.027-0.065-0.044-0.114-0.044c-0.039,0-0.096,0.01-0.179,0.028l-0.028-0.079l0.735-0.203H239.187z"/>
	<path style="fill:#FFE6A6;" d="M250.866,46.781l-0.705,2.438c-0.037,0.146-0.061,0.251-0.061,0.316
		c0,0.052,0.021,0.093,0.056,0.121c0.037,0.03,0.126,0.051,0.263,0.058l-0.022,0.077h-1.124l0.032-0.077
		c0.119-0.002,0.198-0.011,0.235-0.025c0.062-0.027,0.106-0.062,0.137-0.106c0.049-0.065,0.096-0.188,0.145-0.363l0.507-1.754
		c0.03-0.107,0.05-0.165,0.052-0.182c0.005-0.032,0.005-0.059,0.005-0.084c0-0.051-0.012-0.093-0.042-0.121
		c-0.025-0.027-0.065-0.044-0.114-0.044c-0.035,0-0.096,0.01-0.175,0.028l-0.03-0.079l0.74-0.203H250.866z"/>
	<polyline style="fill:#FFE6A6;" points="260.596,34.697 265.549,46.73 259.889,57.349 	"/>
	<line style="fill:#FFE6A6;" x1="170.819" y1="117.043" x2="170.819" y2="138.749"/>
	<path style="fill:#FFE6A6;" d="M177.783,125.688l-0.654,2.28c0.668-0.931,1.178-1.545,1.533-1.838
		c0.354-0.293,0.7-0.442,1.028-0.442c0.18,0,0.326,0.061,0.44,0.184c0.121,0.124,0.177,0.282,0.177,0.478
		c0,0.197-0.054,0.461-0.163,0.791l-0.684,2.075c-0.082,0.237-0.119,0.386-0.119,0.438c0,0.047,0.012,0.084,0.035,0.114
		s0.049,0.044,0.076,0.044c0.033,0,0.079-0.019,0.126-0.062c0.158-0.136,0.333-0.35,0.519-0.631l0.154,0.093
		c-0.296,0.436-0.577,0.745-0.838,0.926c-0.184,0.126-0.349,0.187-0.498,0.187c-0.116,0-0.209-0.037-0.279-0.111
		c-0.069-0.075-0.106-0.178-0.106-0.303c0-0.158,0.067-0.433,0.197-0.819l0.663-1.996c0.081-0.249,0.123-0.444,0.123-0.581
		c0-0.067-0.022-0.121-0.069-0.163c-0.047-0.04-0.104-0.062-0.177-0.062c-0.101,0-0.222,0.039-0.365,0.118
		c-0.266,0.151-0.547,0.396-0.833,0.737c-0.293,0.343-0.598,0.779-0.924,1.314c-0.17,0.279-0.31,0.587-0.421,0.919l-0.242,0.826
		h-0.732l0.9-3.129c0.106-0.372,0.162-0.598,0.162-0.673c0-0.074-0.032-0.137-0.088-0.192c-0.059-0.054-0.131-0.082-0.217-0.082
		c-0.037,0-0.106,0.007-0.209,0.019l-0.187,0.033L176.066,126L177.783,125.688z"/>
	<path style="fill:#FFE6A6;" d="M189.102,123.454l2.05,5.226l1.121-3.899c0.096-0.323,0.143-0.572,0.143-0.751
		c0-0.124-0.045-0.219-0.133-0.289c-0.084-0.067-0.244-0.102-0.481-0.102c-0.038,0-0.079-0.003-0.124-0.008l0.054-0.177h2.171
		l-0.059,0.177c-0.226-0.002-0.396,0.021-0.502,0.07c-0.158,0.069-0.272,0.162-0.352,0.27c-0.104,0.158-0.212,0.428-0.321,0.816
		l-1.607,5.567h-0.133l-2.233-5.695l-1.214,4.207c-0.089,0.32-0.136,0.567-0.136,0.737c0,0.125,0.042,0.223,0.121,0.288
		c0.084,0.065,0.274,0.109,0.584,0.133l-0.054,0.177h-2.149l0.07-0.177c0.265-0.005,0.444-0.025,0.53-0.062
		c0.137-0.056,0.239-0.128,0.305-0.214c0.098-0.136,0.205-0.396,0.323-0.775l1.387-4.797c-0.133-0.2-0.268-0.34-0.419-0.414
		c-0.146-0.077-0.377-0.119-0.688-0.131l0.056-0.177H189.102z"/>
	<path style="fill:#FFE6A6;" d="M201.318,124.459l-0.405,1.354h0.687l-0.091,0.318h-0.69l-0.903,2.932
		c-0.114,0.333-0.17,0.549-0.17,0.649c0,0.054,0.012,0.093,0.035,0.123c0.023,0.028,0.054,0.042,0.084,0.042
		c0.074,0,0.17-0.054,0.293-0.165c0.069-0.067,0.228-0.272,0.47-0.614l0.165,0.126c-0.288,0.437-0.561,0.744-0.816,0.918
		c-0.177,0.119-0.354,0.18-0.53,0.18c-0.14,0-0.251-0.042-0.34-0.135c-0.088-0.094-0.13-0.21-0.13-0.354
		c0-0.18,0.054-0.451,0.165-0.824l0.877-2.878h-0.761l0.049-0.197c0.367-0.103,0.675-0.251,0.929-0.447
		c0.253-0.197,0.544-0.539,0.865-1.028H201.318z"/>
	<path style="fill:#FFE6A6;" d="M182.562,128.18l-0.705,2.44c-0.042,0.145-0.061,0.246-0.061,0.313c0,0.054,0.019,0.096,0.057,0.124
		c0.037,0.027,0.123,0.046,0.26,0.058l-0.022,0.079h-1.119l0.03-0.079c0.118-0.002,0.195-0.012,0.234-0.03
		c0.059-0.022,0.104-0.061,0.138-0.104c0.049-0.067,0.096-0.186,0.145-0.36l0.507-1.754c0.03-0.105,0.047-0.168,0.047-0.182
		c0.009-0.03,0.009-0.059,0.009-0.086c0-0.049-0.014-0.091-0.042-0.119c-0.027-0.03-0.065-0.042-0.111-0.042
		c-0.04,0-0.098,0.007-0.18,0.023l-0.027-0.076l0.735-0.205H182.562z"/>
	<path style="fill:#FFE6A6;" d="M194.241,128.18l-0.705,2.44c-0.04,0.145-0.061,0.246-0.061,0.313c0,0.054,0.021,0.096,0.056,0.124
		c0.037,0.027,0.121,0.046,0.261,0.058l-0.021,0.079h-1.118l0.027-0.079c0.119-0.002,0.195-0.012,0.232-0.03
		c0.063-0.022,0.109-0.061,0.14-0.104c0.047-0.067,0.096-0.186,0.145-0.36l0.507-1.754c0.03-0.105,0.047-0.168,0.049-0.182
		c0.005-0.03,0.008-0.059,0.008-0.086c0-0.049-0.012-0.091-0.042-0.119c-0.028-0.03-0.065-0.042-0.114-0.042
		c-0.037,0-0.096,0.007-0.175,0.023l-0.03-0.076l0.737-0.205H194.241z"/>
	<polyline style="fill:#FFE6A6;" points="203.971,116.098 208.924,128.131 203.261,138.749 	"/>
	<path style="fill:#FFE6A6;" d="M208.847,42.072l-1.057,3.719h0.859c0.625,0,1.079-0.096,1.358-0.289
		c0.279-0.19,0.521-0.545,0.724-1.061h0.242l-0.947,3.361h-0.247c0.079-0.281,0.124-0.523,0.124-0.726
		c0-0.198-0.04-0.354-0.124-0.473c-0.081-0.121-0.192-0.207-0.335-0.265c-0.142-0.057-0.444-0.084-0.902-0.084h-0.889l-0.929,3.211
		c-0.086,0.256-0.13,0.455-0.13,0.588c0,0.105,0.059,0.195,0.172,0.274c0.079,0.059,0.277,0.087,0.591,0.087h0.828
		c0.89,0,1.602-0.158,2.139-0.471c0.532-0.313,1.012-0.858,1.438-1.633h0.254l-0.887,2.563h-7.114l0.088-0.241
		c0.354-0.01,0.594-0.042,0.715-0.096c0.182-0.084,0.316-0.188,0.397-0.318c0.123-0.187,0.268-0.58,0.438-1.18l1.61-5.601
		c0.128-0.451,0.192-0.796,0.192-1.032c0-0.173-0.062-0.31-0.181-0.407c-0.119-0.099-0.356-0.147-0.705-0.147h-0.145l0.081-0.244
		h6.636l-0.577,2.189h-0.239c0.03-0.209,0.046-0.381,0.046-0.521c0-0.241-0.061-0.441-0.179-0.606
		c-0.156-0.207-0.382-0.365-0.677-0.475c-0.222-0.082-0.727-0.124-1.513-0.124H208.847z"/>
	<path style="fill:#FFE6A6;" d="M217.506,48.68l-0.123,0.063c-0.31-0.594-0.535-1.119-0.67-1.575
		c-0.107-0.356-0.158-0.717-0.158-1.077c0-0.845,0.197-1.601,0.586-2.269c0.479-0.816,1.259-1.614,2.334-2.387l0.088,0.135
		c-0.483,0.358-0.884,0.763-1.191,1.207c-0.384,0.557-0.697,1.227-0.944,2.013c-0.239,0.786-0.365,1.501-0.365,2.146
		C217.062,47.429,217.211,48.01,217.506,48.68z"/>
	<path style="fill:#FFE6A6;" d="M221.482,41.579c0.335,0,0.616,0.138,0.844,0.419c0.229,0.279,0.343,0.724,0.343,1.331
		c0,0.521-0.084,1.047-0.254,1.589c-0.168,0.54-0.409,1.008-0.717,1.405c-0.246,0.31-0.502,0.537-0.772,0.677
		c-0.158,0.079-0.337,0.116-0.544,0.116c-0.34,0-0.624-0.14-0.852-0.419c-0.229-0.278-0.347-0.726-0.347-1.335
		c0-0.601,0.121-1.205,0.349-1.81c0.266-0.708,0.609-1.247,1.028-1.615C220.835,41.695,221.143,41.579,221.482,41.579z
		 M221.491,41.786c-0.153,0-0.307,0.059-0.463,0.18c-0.158,0.118-0.318,0.367-0.483,0.744c-0.166,0.38-0.326,0.866-0.478,1.459
		c-0.195,0.779-0.295,1.442-0.295,1.991c0,0.272,0.061,0.475,0.179,0.612c0.116,0.135,0.256,0.202,0.428,0.202
		c0.158,0,0.294-0.054,0.407-0.158c0.303-0.284,0.559-0.766,0.775-1.449c0.349-1.121,0.521-2.029,0.521-2.731
		c0-0.291-0.058-0.505-0.174-0.643C221.792,41.856,221.652,41.786,221.491,41.786z"/>
	<path style="fill:#FFE6A6;" d="M223.895,41.508l0.121-0.072c0.312,0.591,0.535,1.114,0.67,1.57
		c0.104,0.355,0.161,0.717,0.161,1.077c0,0.847-0.196,1.601-0.589,2.266c-0.481,0.819-1.259,1.619-2.331,2.395l-0.089-0.119
		c0.484-0.362,0.882-0.766,1.189-1.21c0.384-0.554,0.7-1.226,0.941-2.015c0.245-0.786,0.37-1.503,0.37-2.147
		C224.339,42.762,224.19,42.178,223.895,41.508z"/>
	<path style="fill:#FFE6A6;" d="M106.92,77.11l-1.057,3.718h0.861c0.625,0,1.074-0.098,1.355-0.289
		c0.279-0.19,0.52-0.544,0.722-1.061h0.244l-0.951,3.364h-0.24c0.079-0.286,0.121-0.526,0.121-0.729
		c0-0.197-0.042-0.355-0.121-0.472c-0.081-0.121-0.192-0.207-0.337-0.266c-0.142-0.056-0.442-0.084-0.905-0.084h-0.886l-0.927,3.211
		c-0.086,0.256-0.13,0.456-0.13,0.589c0,0.104,0.059,0.192,0.172,0.274c0.077,0.056,0.274,0.084,0.587,0.084h0.83
		c0.892,0,1.601-0.156,2.136-0.471c0.537-0.313,1.015-0.858,1.44-1.631h0.253l-0.886,2.564h-7.114l0.088-0.242
		c0.354-0.01,0.594-0.04,0.714-0.096c0.185-0.084,0.316-0.188,0.396-0.316c0.126-0.188,0.271-0.582,0.44-1.182l1.612-5.6
		c0.128-0.452,0.192-0.796,0.192-1.033c0-0.175-0.062-0.312-0.181-0.407c-0.124-0.101-0.358-0.146-0.708-0.146h-0.146l0.084-0.247
		h6.636l-0.575,2.191h-0.244c0.032-0.209,0.049-0.381,0.049-0.523c0-0.239-0.061-0.439-0.177-0.603
		c-0.156-0.209-0.382-0.367-0.68-0.475c-0.221-0.083-0.726-0.125-1.515-0.125H106.92z"/>
	<path style="fill:#FFE6A6;" d="M115.579,83.718l-0.121,0.062c-0.312-0.594-0.535-1.119-0.673-1.575
		c-0.104-0.355-0.158-0.717-0.158-1.077c0-0.845,0.198-1.599,0.589-2.269c0.479-0.816,1.259-1.614,2.331-2.389l0.091,0.137
		c-0.486,0.358-0.884,0.759-1.191,1.208c-0.384,0.556-0.697,1.224-0.941,2.012c-0.245,0.784-0.368,1.501-0.368,2.146
		C115.137,82.466,115.286,83.047,115.579,83.718z"/>
	<path style="fill:#FFE6A6;" d="M119.555,76.614c0.335,0,0.617,0.143,0.845,0.421c0.23,0.279,0.345,0.724,0.345,1.331
		c0,0.517-0.086,1.047-0.256,1.592c-0.168,0.537-0.407,1.007-0.715,1.402c-0.246,0.31-0.502,0.538-0.772,0.677
		c-0.158,0.08-0.34,0.119-0.547,0.119c-0.339,0-0.623-0.142-0.852-0.421c-0.228-0.284-0.344-0.726-0.344-1.336
		c0-0.6,0.116-1.205,0.344-1.81c0.271-0.707,0.612-1.247,1.033-1.615C118.91,76.733,119.218,76.614,119.555,76.614z M119.562,76.826
		c-0.148,0-0.305,0.056-0.46,0.177c-0.156,0.121-0.319,0.368-0.484,0.745c-0.165,0.381-0.325,0.86-0.477,1.461
		c-0.198,0.776-0.296,1.439-0.296,1.986c0,0.274,0.061,0.479,0.177,0.614c0.119,0.135,0.264,0.202,0.431,0.202
		c0.16,0,0.298-0.053,0.409-0.158c0.301-0.281,0.559-0.766,0.775-1.449c0.347-1.121,0.519-2.031,0.519-2.731
		c0-0.29-0.056-0.507-0.175-0.642C119.864,76.892,119.723,76.826,119.562,76.826z"/>
	<path style="fill:#FFE6A6;" d="M121.968,76.542l0.121-0.071c0.313,0.593,0.537,1.116,0.67,1.572c0.106,0.355,0.16,0.714,0.16,1.077
		c0,0.845-0.195,1.601-0.586,2.267c-0.481,0.818-1.264,1.619-2.334,2.394l-0.088-0.119c0.486-0.365,0.882-0.768,1.191-1.209
		c0.381-0.557,0.695-1.224,0.939-2.015c0.244-0.787,0.367-1.504,0.367-2.146C122.409,77.797,122.263,77.215,121.968,76.542z"/>
	<path style="fill:#FFE6A6;" d="M189.053,91.732l-0.266,0.137c-0.672-1.289-1.158-2.424-1.451-3.415
		c-0.229-0.772-0.338-1.55-0.338-2.331c0-1.829,0.422-3.467,1.269-4.916c1.04-1.771,2.727-3.494,5.056-5.177l0.2,0.303
		c-1.057,0.774-1.915,1.647-2.583,2.61c-0.833,1.205-1.512,2.657-2.043,4.359c-0.527,1.703-0.793,3.253-0.793,4.648
		C188.104,89.021,188.42,90.278,189.053,91.732z"/>
	<path style="fill:#FFE6A6;" d="M196.358,78.334l-0.693,2.299h1.168l-0.156,0.554h-1.18l-1.559,5.016
		c-0.195,0.572-0.291,0.947-0.291,1.112c0,0.093,0.021,0.162,0.061,0.214c0.042,0.046,0.089,0.069,0.142,0.069
		c0.128,0,0.294-0.093,0.498-0.283c0.121-0.112,0.391-0.461,0.808-1.047l0.281,0.214c-0.493,0.749-0.961,1.271-1.4,1.565
		c-0.3,0.202-0.603,0.305-0.909,0.305c-0.235,0-0.429-0.079-0.58-0.232c-0.146-0.158-0.226-0.354-0.226-0.596
		c0-0.307,0.096-0.777,0.289-1.405l1.505-4.932h-1.301l0.084-0.345c0.626-0.172,1.156-0.428,1.594-0.763
		c0.442-0.338,0.936-0.919,1.491-1.745H196.358z"/>
	<path style="fill:#FFE6A6;" d="M199.008,76.193l0.266-0.163c0.677,1.284,1.156,2.42,1.442,3.406
		c0.234,0.772,0.351,1.552,0.351,2.334c0,1.835-0.425,3.473-1.27,4.913c-1.047,1.775-2.731,3.504-5.056,5.186l-0.2-0.263
		c1.057-0.784,1.912-1.656,2.582-2.615c0.831-1.202,1.511-2.659,2.041-4.364c0.528-1.705,0.795-3.255,0.795-4.655
		C199.959,78.906,199.641,77.647,199.008,76.193z"/>
	<path style="fill:#FFE6A6;" d="M152.52,136.725c0,1.619,1.028,1.883,2.647,1.883v0.53h-8.353v-0.53
		c1.619,0,2.647-0.264,2.647-1.883v-14.976c0-1.617-1.028-1.882-2.647-1.882v-0.531h8.353v0.531c-1.619,0-2.647,0.265-2.647,1.882
		V136.725z"/>
	<path style="fill:#FFE6A6;" d="M162.318,136.725c0,1.619,1.028,1.883,2.646,1.883v0.53h-8.353v-0.53
		c1.615,0,2.648-0.264,2.648-1.883v-14.976c0-1.617-1.033-1.882-2.648-1.882v-0.531h8.353v0.531c-1.617,0-2.646,0.265-2.646,1.882
		V136.725z"/>
	<path style="fill:#FFE6A6;" d="M167.407,96.073v-3.105c-0.898-0.163-2.018-0.517-2.815-1.445c-0.525-0.616-0.933-1.221-1.138-4.711
		c-0.049-0.805-0.577-0.865-1.358-1.015v-0.265c0.377-0.177,0.951-0.177,1.156-0.177c1.084,0,1.612,0.754,1.796,1.135
		c0.288,0.587,0.542,3.164,0.665,4.195c0.133,1.119,1.015,1.561,1.694,1.705v-6.845h1.069v6.845c0.68-0.145,1.562-0.586,1.699-1.705
		c0.132-1.031,0.369-3.608,0.658-4.195c0.188-0.381,0.714-1.135,1.798-1.135c0.203,0,0.784,0,1.156,0.177v0.265
		c-0.781,0.149-1.308,0.21-1.36,1.015c-0.2,3.49-0.609,4.095-1.134,4.711c-0.798,0.929-1.921,1.282-2.817,1.445v3.105H167.407z"/>
	<line style="fill:#FFE6A6;" x1="89.185" y1="173.668" x2="100.51" y2="173.668"/>
	<line style="fill:#FFE6A6;" x1="89.185" y1="176.853" x2="100.51" y2="176.853"/>
	<line style="fill:#FFE6A6;" x1="231.653" y1="178.844" x2="245.612" y2="174.554"/>
	<line style="fill:#FFE6A6;" x1="114.311" y1="176.262" x2="121.391" y2="176.262"/>
	<path style="fill:#FFE6A6;" d="M149.881,165.396l-0.402,1.35h0.685l-0.089,0.321h-0.688l-0.905,2.932
		c-0.114,0.335-0.172,0.551-0.172,0.648c0,0.054,0.012,0.096,0.037,0.124c0.023,0.027,0.051,0.041,0.084,0.041
		c0.074,0,0.17-0.053,0.29-0.165c0.072-0.064,0.229-0.27,0.473-0.614l0.163,0.126c-0.286,0.439-0.559,0.747-0.814,0.921
		c-0.177,0.119-0.354,0.18-0.533,0.18c-0.139,0-0.251-0.047-0.337-0.138s-0.135-0.207-0.135-0.354c0-0.179,0.058-0.453,0.17-0.821
		l0.872-2.88h-0.756l0.047-0.198c0.367-0.1,0.677-0.251,0.93-0.444c0.254-0.2,0.545-0.542,0.866-1.028H149.881z"/>
	<path style="fill:#FFE6A6;" d="M224.768,180.678v-1.915h-1.892v-0.31h1.892v-1.892h0.309v1.892h1.915v0.31h-1.915v1.915H224.768z"
		/>
	<path style="fill:#FFE6A6;" d="M134.843,173.702l-0.656,2.28c0.665-0.931,1.182-1.545,1.535-1.838
		c0.356-0.293,0.698-0.442,1.026-0.442c0.179,0,0.323,0.061,0.444,0.185c0.114,0.123,0.172,0.281,0.172,0.477
		c0,0.2-0.054,0.461-0.163,0.789l-0.684,2.077c-0.077,0.237-0.116,0.384-0.116,0.438c0,0.044,0.009,0.084,0.032,0.111
		c0.023,0.033,0.049,0.047,0.077,0.047c0.035,0,0.079-0.023,0.128-0.062c0.156-0.138,0.33-0.347,0.514-0.633l0.156,0.095
		c-0.296,0.433-0.572,0.745-0.838,0.926c-0.184,0.124-0.349,0.187-0.495,0.187c-0.119,0-0.209-0.037-0.281-0.111
		c-0.07-0.075-0.105-0.177-0.105-0.303c0-0.16,0.065-0.433,0.196-0.819l0.663-2c0.083-0.247,0.128-0.442,0.128-0.58
		c0-0.062-0.026-0.118-0.075-0.16s-0.104-0.061-0.172-0.061c-0.104,0-0.224,0.037-0.365,0.116c-0.27,0.149-0.547,0.396-0.84,0.737
		c-0.291,0.342-0.596,0.779-0.917,1.311c-0.174,0.281-0.313,0.586-0.428,0.926l-0.235,0.823h-0.737l0.903-3.132
		c0.106-0.372,0.16-0.595,0.16-0.67c0-0.074-0.03-0.135-0.089-0.19c-0.056-0.056-0.13-0.084-0.214-0.084
		c-0.039,0-0.109,0.007-0.207,0.019l-0.19,0.033l-0.047-0.18L134.843,173.702z"/>
	<path style="fill:#FFE6A6;" d="M139.619,176.194l-0.703,2.44c-0.039,0.145-0.061,0.249-0.061,0.312
		c0,0.056,0.017,0.098,0.056,0.126c0.035,0.027,0.124,0.047,0.259,0.056l-0.023,0.079h-1.119l0.033-0.079
		c0.116,0,0.195-0.009,0.232-0.025c0.062-0.025,0.106-0.063,0.137-0.104c0.049-0.07,0.096-0.191,0.149-0.363l0.505-1.754
		c0.03-0.107,0.046-0.168,0.049-0.184c0.005-0.031,0.005-0.059,0.005-0.084c0-0.052-0.01-0.091-0.042-0.121
		c-0.026-0.03-0.061-0.045-0.112-0.045c-0.037,0-0.098,0.01-0.177,0.028l-0.03-0.079l0.74-0.202H139.619z"/>
	<path style="fill:#FFE6A6;" d="M240.597,170.364l-1.268,3.457c-0.075,0.207-0.112,0.352-0.112,0.444
		c0,0.074,0.035,0.135,0.103,0.172c0.067,0.042,0.226,0.07,0.47,0.084l-0.039,0.111h-2.021l0.053-0.111
		c0.217-0.005,0.356-0.019,0.426-0.037c0.109-0.042,0.191-0.089,0.249-0.149c0.089-0.098,0.173-0.27,0.261-0.514l0.912-2.485
		c0.056-0.15,0.086-0.236,0.091-0.258c0.009-0.042,0.014-0.084,0.014-0.121c0-0.072-0.025-0.13-0.074-0.172
		c-0.054-0.037-0.121-0.061-0.205-0.061c-0.064,0-0.172,0.014-0.316,0.037l-0.049-0.109l1.317-0.288H240.597z"/>
	<path style="fill:#FFE6A6;" d="M240.627,182.98h-2.671v-0.111c1.352-0.931,2.245-1.661,2.685-2.191
		c0.203-0.247,0.303-0.503,0.303-0.772c0-0.214-0.086-0.392-0.254-0.526c-0.167-0.13-0.386-0.2-0.653-0.2
		c-0.37,0-0.677,0.14-0.914,0.419l-0.138-0.049c0.135-0.263,0.333-0.468,0.589-0.614c0.258-0.146,0.537-0.221,0.838-0.221
		c0.339,0,0.625,0.091,0.858,0.274c0.229,0.182,0.347,0.4,0.347,0.658c0,0.182-0.04,0.347-0.124,0.505
		c-0.128,0.237-0.362,0.508-0.702,0.806c-0.519,0.458-1.203,0.981-2.06,1.572h1.361c0.214,0,0.391-0.032,0.528-0.103
		c0.14-0.074,0.239-0.167,0.3-0.284h0.153L240.627,182.98z"/>
	<path style="fill:#FFE6A6;" d="M108.653,177.043c-0.023,0.168-0.035,0.305-0.035,0.414c0,0.298,0.106,0.55,0.318,0.759
		c0.214,0.205,0.47,0.31,0.772,0.31c0.242,0,0.475-0.049,0.7-0.146c0.224-0.098,0.554-0.316,0.998-0.651l0.101,0.144
		c-0.784,0.784-1.533,1.173-2.243,1.173c-0.486,0-0.852-0.153-1.098-0.456c-0.242-0.307-0.368-0.646-0.368-1.014
		c0-0.496,0.153-1.003,0.456-1.521c0.31-0.52,0.691-0.922,1.151-1.21c0.459-0.289,0.934-0.433,1.42-0.433
		c0.354,0,0.611,0.074,0.779,0.219c0.17,0.139,0.256,0.309,0.256,0.507c0,0.274-0.109,0.54-0.333,0.791
		c-0.293,0.33-0.724,0.596-1.291,0.796C109.862,176.859,109.335,176.969,108.653,177.043z M108.688,176.802
		c0.498-0.059,0.907-0.154,1.22-0.291c0.414-0.18,0.726-0.397,0.935-0.654c0.207-0.251,0.308-0.493,0.308-0.721
		c0-0.145-0.042-0.256-0.131-0.34c-0.091-0.089-0.219-0.13-0.381-0.13c-0.345,0-0.71,0.182-1.096,0.539
		C109.155,175.566,108.869,176.099,108.688,176.802z"/>
	<line style="fill:#FFE6A6;" x1="154.776" y1="165.057" x2="154.776" y2="186.764"/>
	<path style="fill:#FFE6A6;" d="M161.737,173.702l-0.654,2.28c0.668-0.931,1.178-1.545,1.533-1.838
		c0.358-0.293,0.7-0.442,1.028-0.442c0.18,0,0.326,0.061,0.44,0.185c0.12,0.123,0.177,0.281,0.177,0.477
		c0,0.2-0.054,0.461-0.163,0.789l-0.685,2.077c-0.076,0.237-0.116,0.384-0.116,0.438c0,0.044,0.01,0.084,0.035,0.111
		c0.021,0.033,0.051,0.047,0.074,0.047c0.035,0,0.079-0.023,0.128-0.062c0.158-0.138,0.331-0.347,0.517-0.633l0.156,0.095
		c-0.298,0.433-0.575,0.745-0.84,0.926c-0.184,0.124-0.35,0.187-0.496,0.187c-0.116,0-0.211-0.037-0.279-0.111
		c-0.069-0.075-0.106-0.177-0.106-0.303c0-0.16,0.065-0.433,0.195-0.819l0.663-2c0.084-0.247,0.123-0.442,0.123-0.58
		c0-0.062-0.023-0.118-0.069-0.16c-0.047-0.042-0.104-0.061-0.173-0.061c-0.102,0-0.223,0.037-0.362,0.116
		c-0.271,0.149-0.549,0.396-0.84,0.737s-0.598,0.779-0.919,1.311c-0.173,0.281-0.314,0.586-0.426,0.926l-0.24,0.823h-0.734
		l0.904-3.132c0.103-0.372,0.158-0.595,0.158-0.67c0-0.074-0.027-0.135-0.088-0.19c-0.059-0.056-0.131-0.084-0.214-0.084
		c-0.04,0-0.107,0.007-0.21,0.019l-0.186,0.033l-0.049-0.18L161.737,173.702z"/>
	<path style="fill:#FFE6A6;" d="M173.056,171.469l2.05,5.226l1.123-3.899c0.094-0.323,0.14-0.574,0.14-0.754
		c0-0.121-0.044-0.219-0.128-0.288c-0.086-0.067-0.249-0.103-0.483-0.103c-0.04,0-0.082,0-0.126-0.005l0.056-0.177h2.169
		l-0.059,0.177c-0.226-0.004-0.391,0.021-0.5,0.07c-0.158,0.069-0.274,0.158-0.349,0.27c-0.107,0.156-0.217,0.429-0.326,0.816
		l-1.603,5.567h-0.136l-2.233-5.695l-1.214,4.207c-0.091,0.32-0.135,0.567-0.135,0.739c0,0.126,0.042,0.219,0.123,0.284
		c0.079,0.067,0.272,0.111,0.579,0.135l-0.049,0.177h-2.154l0.069-0.177c0.268-0.01,0.445-0.027,0.535-0.065
		c0.136-0.056,0.235-0.125,0.303-0.214c0.096-0.135,0.205-0.391,0.323-0.774l1.385-4.795c-0.131-0.2-0.271-0.34-0.414-0.417
		c-0.151-0.076-0.38-0.118-0.693-0.128l0.058-0.177H173.056z"/>
	<path style="fill:#FFE6A6;" d="M166.519,176.194l-0.705,2.44c-0.042,0.145-0.061,0.249-0.061,0.312
		c0,0.056,0.019,0.098,0.056,0.126c0.037,0.027,0.121,0.047,0.258,0.056l-0.021,0.079h-1.121l0.032-0.079
		c0.118,0,0.195-0.009,0.232-0.025c0.063-0.025,0.107-0.063,0.138-0.104c0.049-0.07,0.098-0.191,0.146-0.363l0.507-1.754
		c0.028-0.107,0.047-0.168,0.052-0.184c0.002-0.031,0.004-0.059,0.004-0.084c0-0.052-0.014-0.091-0.042-0.121
		c-0.027-0.03-0.064-0.045-0.113-0.045c-0.04,0-0.096,0.01-0.175,0.028l-0.03-0.079l0.737-0.202H166.519z"/>
	<path style="fill:#FFE6A6;" d="M177.48,176.252h0.986l-0.1,0.363h-0.894l-0.158,0.358c0.235,0.04,0.419,0.114,0.552,0.224
		c0.202,0.167,0.302,0.404,0.302,0.707c0,0.205-0.034,0.386-0.113,0.549c-0.072,0.168-0.166,0.303-0.272,0.412
		c-0.107,0.109-0.226,0.197-0.347,0.263c-0.168,0.089-0.338,0.13-0.507,0.13c-0.149,0-0.264-0.032-0.347-0.098
		c-0.061-0.041-0.089-0.1-0.089-0.167c0-0.052,0.019-0.093,0.056-0.131c0.037-0.037,0.084-0.056,0.14-0.056
		c0.077,0,0.161,0.037,0.259,0.116c0.056,0.047,0.102,0.079,0.142,0.094c0.028,0.014,0.065,0.019,0.107,0.019
		c0.165,0,0.313-0.079,0.451-0.242c0.137-0.165,0.204-0.377,0.204-0.638c0-0.182-0.034-0.335-0.106-0.46
		c-0.074-0.131-0.168-0.219-0.282-0.271c-0.111-0.051-0.26-0.088-0.448-0.109L177.48,176.252z"/>
	<path style="fill:#FFE6A6;" d="M214.109,175.95l2.05,5.226l1.124-3.897c0.093-0.323,0.139-0.574,0.139-0.754
		c0-0.121-0.044-0.219-0.128-0.286c-0.088-0.069-0.248-0.103-0.485-0.103c-0.04,0-0.079-0.005-0.124-0.009l0.056-0.177h2.169
		l-0.056,0.177c-0.229,0-0.394,0.023-0.505,0.069c-0.156,0.07-0.272,0.161-0.347,0.271c-0.107,0.155-0.217,0.428-0.326,0.818
		l-1.605,5.57h-0.132l-2.236-5.698l-1.212,4.204c-0.091,0.326-0.138,0.567-0.138,0.74c0,0.125,0.042,0.223,0.124,0.288
		c0.083,0.065,0.274,0.109,0.581,0.13l-0.054,0.18h-2.149l0.07-0.18c0.265-0.004,0.444-0.022,0.534-0.061
		c0.133-0.056,0.235-0.13,0.303-0.218c0.096-0.131,0.205-0.392,0.323-0.775l1.385-4.795c-0.131-0.2-0.271-0.34-0.419-0.414
		c-0.146-0.074-0.375-0.116-0.687-0.13l0.056-0.177H214.109z"/>
	<path style="fill:#FFE6A6;" d="M218.534,180.738h0.986l-0.098,0.357h-0.896l-0.158,0.363c0.235,0.037,0.419,0.111,0.552,0.219
		c0.202,0.17,0.302,0.409,0.302,0.712c0,0.2-0.039,0.386-0.111,0.549c-0.074,0.163-0.167,0.301-0.274,0.41
		c-0.109,0.111-0.224,0.195-0.347,0.26c-0.168,0.087-0.337,0.131-0.507,0.131c-0.146,0-0.266-0.032-0.352-0.098
		c-0.056-0.042-0.084-0.098-0.084-0.163c0-0.054,0.017-0.098,0.056-0.135c0.04-0.037,0.086-0.056,0.14-0.056
		c0.077,0,0.161,0.039,0.259,0.116c0.056,0.049,0.102,0.079,0.142,0.096c0.028,0.011,0.067,0.018,0.109,0.018
		c0.16,0,0.312-0.081,0.449-0.244c0.135-0.162,0.204-0.374,0.204-0.637c0-0.178-0.034-0.336-0.109-0.461
		c-0.071-0.128-0.165-0.217-0.278-0.27c-0.112-0.052-0.261-0.089-0.452-0.107L218.534,180.738z"/>
	<path style="fill:#FFE6A6;" d="M128.391,165.825l-1.059,3.718h0.861c0.623,0,1.077-0.098,1.358-0.289
		c0.279-0.19,0.52-0.547,0.722-1.062h0.244l-0.951,3.361h-0.242c0.081-0.284,0.123-0.523,0.123-0.726
		c0-0.195-0.042-0.354-0.121-0.475c-0.081-0.116-0.195-0.205-0.337-0.261c-0.143-0.059-0.447-0.084-0.905-0.084h-0.887l-0.926,3.209
		c-0.088,0.258-0.133,0.455-0.133,0.588c0,0.104,0.057,0.198,0.173,0.274c0.076,0.056,0.271,0.084,0.588,0.084h0.831
		c0.889,0,1.601-0.155,2.133-0.468c0.538-0.313,1.018-0.858,1.44-1.633h0.254l-0.884,2.566h-7.115l0.089-0.242
		c0.354-0.012,0.591-0.045,0.714-0.098c0.184-0.084,0.314-0.187,0.396-0.314c0.126-0.188,0.268-0.584,0.438-1.184l1.614-5.601
		c0.126-0.449,0.191-0.796,0.191-1.033c0-0.174-0.061-0.31-0.182-0.407c-0.123-0.098-0.356-0.146-0.705-0.146h-0.146l0.084-0.244
		h6.635l-0.577,2.191h-0.241c0.03-0.209,0.049-0.384,0.049-0.523c0-0.239-0.061-0.439-0.18-0.603
		c-0.155-0.212-0.379-0.37-0.677-0.479c-0.221-0.079-0.726-0.121-1.515-0.121H128.391z"/>
	<path style="fill:#FFE6A6;" d="M137.048,172.433l-0.118,0.06c-0.314-0.595-0.538-1.116-0.673-1.572
		c-0.106-0.358-0.158-0.719-0.158-1.079c0-0.843,0.195-1.601,0.587-2.267c0.481-0.818,1.258-1.614,2.333-2.392l0.091,0.14
		c-0.488,0.358-0.887,0.759-1.191,1.205c-0.386,0.554-0.7,1.227-0.944,2.013c-0.247,0.784-0.365,1.501-0.365,2.147
		C136.608,171.178,136.757,171.76,137.048,172.433z"/>
	<path style="fill:#FFE6A6;" d="M141.026,165.327c0.335,0,0.616,0.142,0.845,0.421c0.23,0.281,0.344,0.724,0.344,1.328
		c0,0.521-0.086,1.052-0.256,1.592c-0.172,0.542-0.409,1.01-0.716,1.405c-0.245,0.312-0.505,0.537-0.775,0.675
		c-0.153,0.079-0.335,0.121-0.542,0.121c-0.34,0-0.626-0.143-0.854-0.424c-0.229-0.279-0.342-0.721-0.342-1.331
		c0-0.6,0.113-1.205,0.344-1.81c0.271-0.71,0.612-1.247,1.033-1.615C140.38,165.448,140.687,165.327,141.026,165.327z
		 M141.033,165.536c-0.151,0-0.305,0.061-0.461,0.182c-0.158,0.116-0.318,0.368-0.483,0.745c-0.165,0.376-0.328,0.862-0.477,1.458
		c-0.2,0.777-0.296,1.44-0.296,1.989c0,0.27,0.059,0.475,0.177,0.612c0.116,0.135,0.261,0.202,0.431,0.202
		c0.16,0,0.293-0.054,0.407-0.158c0.3-0.284,0.561-0.768,0.774-1.449c0.349-1.119,0.521-2.031,0.521-2.731
		c0-0.289-0.059-0.505-0.175-0.643C141.334,165.606,141.194,165.536,141.033,165.536z"/>
	<path style="fill:#FFE6A6;" d="M143.439,165.257l0.12-0.074c0.312,0.594,0.533,1.117,0.668,1.573
		c0.107,0.355,0.161,0.714,0.161,1.077c0,0.847-0.193,1.603-0.584,2.266c-0.482,0.821-1.264,1.619-2.336,2.394l-0.089-0.12
		c0.488-0.363,0.884-0.764,1.191-1.205c0.382-0.557,0.695-1.229,0.942-2.015c0.244-0.789,0.367-1.504,0.367-2.15
		C143.881,166.509,143.734,165.93,143.439,165.257z"/>
	<line style="fill:#FFE6A6;" x1="45.3" y1="165.174" x2="45.3" y2="186.88"/>
	<path style="fill:#FFE6A6;" d="M52.263,173.821l-0.656,2.282c0.668-0.933,1.18-1.55,1.536-1.843
		c0.354-0.291,0.697-0.439,1.028-0.439c0.179,0,0.323,0.061,0.439,0.184c0.116,0.121,0.177,0.279,0.177,0.479
		c0,0.195-0.056,0.456-0.163,0.786l-0.684,2.075c-0.079,0.242-0.116,0.387-0.116,0.438c0,0.047,0.009,0.084,0.032,0.114
		s0.049,0.044,0.074,0.044c0.037,0,0.079-0.019,0.131-0.062c0.155-0.138,0.33-0.347,0.514-0.631l0.153,0.093
		c-0.295,0.438-0.574,0.745-0.835,0.929c-0.184,0.123-0.352,0.184-0.495,0.184c-0.119,0-0.21-0.037-0.282-0.111
		c-0.069-0.074-0.104-0.175-0.104-0.303c0-0.158,0.065-0.433,0.193-0.818l0.665-1.997c0.082-0.249,0.123-0.441,0.123-0.581
		c0-0.067-0.022-0.121-0.069-0.163s-0.107-0.061-0.177-0.061c-0.098,0-0.219,0.037-0.363,0.116c-0.268,0.151-0.547,0.396-0.837,0.74
		c-0.291,0.34-0.599,0.777-0.919,1.308c-0.173,0.283-0.312,0.591-0.426,0.926l-0.24,0.826h-0.732l0.9-3.132
		c0.106-0.375,0.158-0.598,0.158-0.672c0-0.075-0.028-0.136-0.084-0.191c-0.061-0.056-0.13-0.081-0.217-0.081
		c-0.037,0-0.108,0.007-0.207,0.021l-0.188,0.028l-0.046-0.177L52.263,173.821z"/>
	<path style="fill:#FFE6A6;" d="M63.581,171.588l2.048,5.223l1.126-3.895c0.093-0.325,0.14-0.577,0.14-0.756
		c0-0.123-0.045-0.217-0.133-0.286c-0.086-0.07-0.247-0.104-0.481-0.104c-0.04,0-0.079-0.003-0.124-0.008l0.057-0.174h2.168
		l-0.059,0.174c-0.226-0.002-0.393,0.023-0.502,0.07c-0.156,0.074-0.272,0.163-0.352,0.27c-0.104,0.158-0.212,0.429-0.323,0.819
		l-1.605,5.567h-0.13l-2.238-5.697l-1.21,4.206c-0.091,0.321-0.135,0.567-0.135,0.737c0,0.128,0.037,0.226,0.118,0.288
		c0.082,0.065,0.277,0.109,0.58,0.133l-0.049,0.18h-2.15l0.07-0.18c0.263-0.005,0.439-0.025,0.53-0.065
		c0.137-0.051,0.239-0.125,0.305-0.211c0.098-0.133,0.205-0.394,0.326-0.775l1.379-4.797c-0.125-0.2-0.265-0.34-0.414-0.414
		c-0.146-0.074-0.377-0.119-0.688-0.131l0.054-0.174H63.581z"/>
	<path style="fill:#FFE6A6;" d="M75.796,172.593l-0.403,1.35h0.685l-0.086,0.321H75.3l-0.905,2.934
		c-0.113,0.332-0.172,0.549-0.172,0.646c0,0.054,0.014,0.096,0.037,0.121c0.023,0.03,0.052,0.044,0.084,0.044
		c0.074,0,0.17-0.054,0.293-0.165c0.07-0.065,0.229-0.27,0.47-0.612l0.163,0.124c-0.286,0.438-0.559,0.744-0.814,0.919
		c-0.177,0.121-0.354,0.179-0.532,0.179c-0.138,0-0.249-0.044-0.34-0.135c-0.086-0.093-0.13-0.209-0.13-0.354
		c0-0.182,0.056-0.451,0.167-0.819l0.875-2.882h-0.761l0.051-0.198c0.363-0.103,0.675-0.251,0.929-0.446
		c0.253-0.198,0.544-0.54,0.865-1.026H75.796z"/>
	<path style="fill:#FFE6A6;" d="M57.039,176.312l-0.7,2.438c-0.042,0.146-0.062,0.251-0.062,0.316c0,0.052,0.019,0.093,0.058,0.121
		c0.032,0.028,0.121,0.051,0.256,0.061l-0.021,0.077H55.45l0.027-0.077c0.119-0.005,0.198-0.014,0.24-0.028
		c0.056-0.027,0.103-0.062,0.135-0.106c0.047-0.065,0.098-0.187,0.145-0.363l0.507-1.754c0.028-0.107,0.047-0.168,0.049-0.182
		c0.002-0.028,0.01-0.059,0.01-0.084c0-0.051-0.017-0.093-0.045-0.121c-0.025-0.027-0.064-0.042-0.111-0.042
		c-0.04,0-0.098,0.008-0.177,0.023l-0.03-0.076l0.735-0.203H57.039z"/>
	<path style="fill:#FFE6A6;" d="M68.718,176.312l-0.702,2.438c-0.042,0.146-0.062,0.251-0.062,0.316
		c0,0.052,0.019,0.093,0.058,0.121c0.037,0.028,0.123,0.051,0.259,0.061l-0.021,0.077h-1.119l0.03-0.077
		c0.119-0.005,0.195-0.014,0.235-0.028c0.058-0.027,0.106-0.062,0.135-0.106c0.051-0.065,0.098-0.187,0.146-0.363l0.505-1.754
		c0.032-0.107,0.049-0.168,0.054-0.182c0.005-0.028,0.005-0.059,0.005-0.084c0-0.051-0.015-0.093-0.042-0.121
		c-0.028-0.027-0.067-0.042-0.114-0.042c-0.035,0-0.096,0.008-0.177,0.023l-0.028-0.076l0.735-0.203H68.718z"/>
	<line style="fill:#FFE6A6;" x1="257.646" y1="165.174" x2="257.646" y2="186.88"/>
	<path style="fill:#FFE6A6;" d="M264.608,173.821l-0.655,2.282c0.67-0.933,1.179-1.55,1.535-1.843
		c0.355-0.291,0.698-0.439,1.028-0.439c0.179,0,0.325,0.061,0.441,0.184c0.114,0.121,0.175,0.279,0.175,0.479
		c0,0.195-0.056,0.456-0.163,0.786l-0.684,2.075c-0.081,0.242-0.116,0.387-0.116,0.438c0,0.047,0.009,0.084,0.032,0.114
		c0.026,0.03,0.049,0.044,0.075,0.044c0.037,0,0.079-0.019,0.13-0.062c0.158-0.138,0.328-0.347,0.512-0.631l0.155,0.093
		c-0.295,0.438-0.574,0.745-0.835,0.929c-0.186,0.123-0.351,0.184-0.495,0.184c-0.119,0-0.209-0.037-0.279-0.111
		c-0.074-0.074-0.106-0.175-0.106-0.303c0-0.158,0.064-0.433,0.192-0.818l0.666-1.997c0.081-0.249,0.123-0.441,0.123-0.581
		c0-0.067-0.021-0.121-0.07-0.163c-0.046-0.042-0.106-0.061-0.177-0.061c-0.098,0-0.219,0.037-0.362,0.116
		c-0.266,0.151-0.547,0.396-0.836,0.74c-0.29,0.34-0.6,0.777-0.921,1.308c-0.17,0.283-0.312,0.591-0.424,0.926l-0.239,0.826h-0.735
		l0.905-3.132c0.103-0.375,0.156-0.598,0.156-0.672c0-0.075-0.028-0.136-0.087-0.191c-0.058-0.056-0.13-0.081-0.214-0.081
		c-0.042,0-0.111,0.007-0.209,0.021l-0.187,0.028l-0.049-0.177L264.608,173.821z"/>
	<path style="fill:#FFE6A6;" d="M275.927,171.588l2.048,5.223l1.126-3.895c0.093-0.325,0.14-0.577,0.14-0.756
		c0-0.123-0.044-0.217-0.131-0.286c-0.086-0.07-0.249-0.104-0.483-0.104c-0.04,0-0.082-0.003-0.126-0.008l0.056-0.174h2.171
		l-0.058,0.174c-0.227-0.002-0.394,0.023-0.505,0.07c-0.154,0.074-0.272,0.163-0.347,0.27c-0.105,0.158-0.215,0.429-0.324,0.819
		l-1.604,5.567h-0.133l-2.236-5.697l-1.217,4.206c-0.09,0.321-0.13,0.567-0.13,0.737c0,0.128,0.04,0.226,0.121,0.288
		c0.077,0.065,0.274,0.109,0.577,0.133l-0.047,0.18h-2.152l0.07-0.18c0.268-0.005,0.442-0.025,0.532-0.065
		c0.136-0.051,0.237-0.125,0.305-0.211c0.096-0.133,0.203-0.394,0.321-0.775l1.385-4.797c-0.128-0.2-0.268-0.34-0.414-0.414
		c-0.149-0.074-0.377-0.119-0.691-0.131l0.054-0.174H275.927z"/>
	<path style="fill:#FFE6A6;" d="M269.388,176.312l-0.705,2.438c-0.042,0.146-0.061,0.251-0.061,0.316
		c0,0.052,0.019,0.093,0.056,0.121s0.123,0.051,0.261,0.061l-0.023,0.077h-1.119l0.028-0.077c0.12-0.005,0.197-0.014,0.234-0.028
		c0.063-0.027,0.107-0.062,0.142-0.106c0.047-0.065,0.096-0.187,0.143-0.363l0.507-1.754c0.028-0.107,0.047-0.168,0.049-0.182
		c0.007-0.028,0.01-0.059,0.01-0.084c0-0.051-0.017-0.093-0.042-0.121c-0.028-0.027-0.065-0.042-0.116-0.042
		c-0.037,0-0.094,0.008-0.175,0.023l-0.027-0.076l0.732-0.203H269.388z"/>
	<path style="fill:#FFE6A6;" d="M280.353,176.371h0.986l-0.103,0.36h-0.896l-0.158,0.363c0.239,0.037,0.421,0.109,0.551,0.219
		c0.203,0.17,0.305,0.407,0.305,0.712c0,0.2-0.034,0.384-0.111,0.549c-0.072,0.163-0.163,0.298-0.272,0.409
		c-0.109,0.112-0.223,0.198-0.347,0.261c-0.17,0.089-0.34,0.131-0.509,0.131c-0.147,0-0.261-0.033-0.35-0.098
		c-0.056-0.042-0.086-0.099-0.086-0.163c0-0.054,0.019-0.098,0.059-0.136c0.034-0.037,0.083-0.056,0.137-0.056
		c0.077,0,0.163,0.042,0.256,0.116c0.059,0.047,0.107,0.08,0.143,0.098c0.032,0.01,0.067,0.02,0.109,0.02
		c0.162,0,0.313-0.084,0.451-0.247c0.14-0.163,0.207-0.374,0.207-0.635c0-0.18-0.04-0.335-0.112-0.463
		c-0.071-0.126-0.165-0.215-0.276-0.271c-0.114-0.051-0.266-0.088-0.451-0.106L280.353,176.371z"/>
	<polyline style="fill:#FFE6A6;" points="78.447,164.229 83.403,176.262 77.74,186.88 	"/>
	<polyline style="fill:#FFE6A6;" points="282.771,164.229 287.728,176.262 282.066,186.88 	"/>
	<path style="fill:#FFE6A6;" d="M27.001,184.855c0,1.619,1.028,1.885,2.648,1.885v0.53h-8.355v-0.53
		c1.617,0,2.648-0.266,2.648-1.885v-14.973c0-1.62-1.031-1.883-2.648-1.883v-0.53h8.355V168c-1.62,0-2.648,0.263-2.648,1.883
		V184.855z"/>
	<path style="fill:#FFE6A6;" d="M36.798,184.855c0,1.619,1.029,1.885,2.648,1.885v0.53h-8.357v-0.53
		c1.617,0,2.646-0.266,2.646-1.885v-14.973c0-1.62-1.028-1.883-2.646-1.883v-0.53h8.357V168c-1.619,0-2.648,0.263-2.648,1.883
		V184.855z"/>
	<path style="fill:#FFE6A6;" d="M200.129,164.466h-17.761c0,0,8.748,10.148,9.146,10.609c-0.417,0.444-9.896,10.628-9.896,10.628
		h18.689l2.587-3.692l-0.268-0.082c0,0-3.285,2.787-3.476,3.066c-0.396,0-13.271,0-14.688,0c0.986-1.056,7.999-9.901,7.999-9.901
		s-5.044-8.869-5.94-9.906c1.392,0,11.293,0,11.649,0c0.193,0.291,4.946,3.769,4.946,3.769l0.135-0.086l-2.937-4.404H200.129z"/>
	<path style="fill:#FFE6A6;" d="M208.23,185.559l-0.244,0.125c-0.617-1.182-1.057-2.224-1.326-3.126
		c-0.207-0.708-0.312-1.422-0.312-2.141c0-1.671,0.387-3.174,1.164-4.5c0.951-1.624,2.498-3.206,4.634-4.743l0.175,0.271
		c-0.966,0.713-1.759,1.513-2.371,2.396c-0.763,1.101-1.391,2.434-1.875,3.992c-0.486,1.562-0.729,2.983-0.729,4.263
		C207.346,183.071,207.64,184.228,208.23,185.559z"/>
	<path style="fill:#FFE6A6;" d="M253.36,169.436l0.241-0.148c0.617,1.177,1.059,2.215,1.319,3.119
		c0.212,0.708,0.319,1.42,0.319,2.139c0,1.68-0.389,3.178-1.164,4.499c-0.958,1.629-2.503,3.211-4.629,4.751l-0.18-0.239
		c0.971-0.72,1.757-1.518,2.371-2.399c0.766-1.098,1.389-2.434,1.875-3.994c0.488-1.562,0.729-2.985,0.729-4.265
		C254.242,171.92,253.951,170.767,253.36,169.436z"/>
</g>
</svg>
