<?xml version="1.0" encoding="iso-8859-1"?>
<!-- Generator: Adobe Illustrator 15.0.2, SVG Export Plug-In . SVG Version: 6.00 Build 0)  -->
<!DOCTYPE svg PUBLIC "-//W3C//DTD SVG 1.1//EN" "http://www.w3.org/Graphics/SVG/1.1/DTD/svg11.dtd">
<svg version="1.1" xmlns="http://www.w3.org/2000/svg" xmlns:xlink="http://www.w3.org/1999/xlink" x="0px" y="0px" width="300px"
	 height="300px" viewBox="0 0 300 300" style="enable-background:new 0 0 300 300;" xml:space="preserve">
<g id="bg">
	<rect y="0.001" style="fill:#2BC0FF;" width="300" height="299.998"/>
</g>
<g id="patterns">
	<path style="fill:#25A5DB;" d="M38.337,22.352c0.722-0.256,1.46-0.444,2.2-0.608c-0.135-0.956-0.27-1.913-0.418-2.866
		c7.67-2.589,10.665,0.024,10.656,0.034c-0.313,1.543,0.847,2.718,1.781,3.413c0.942,0.316,1.859,0.705,2.76,1.154
		c-0.305,0.668-0.626,1.371-0.978,2.14c-1.608-0.812-3.31-1.392-5.051-1.742c-1.722-0.344-3.475-0.448-5.229-0.311
		c-1.642,0.111-3.293,0.448-4.894,1.006c-0.044,0.022-0.093,0.038-0.142,0.051c-0.292-0.778-0.578-1.521-0.827-2.219
		C38.24,22.379,38.285,22.369,38.337,22.352z"/>
	<path style="fill:#25A5DB;" d="M68.046,42.906c0.099,1.997-0.078,3.935-0.489,5.795c-0.696-0.193-1.466-0.398-2.265-0.607
		c0.356-1.669,0.49-3.417,0.413-5.191C66.529,42.897,67.315,42.906,68.046,42.906z"/>
	<path style="fill:#25A5DB;" d="M63.595,52.924c0.726,0.394,1.432,0.784,2.054,1.128c-0.854,1.686-1.916,3.238-3.146,4.65
		c-1.227,1.389-2.621,2.637-4.193,3.704c-0.415-0.609-0.861-1.261-1.315-1.954c1.409-0.955,2.681-2.076,3.771-3.334
		C61.877,55.838,62.835,54.434,63.595,52.924z"/>
	<path style="fill:#25A5DB;" d="M25.618,26.757c1.452,1.567,2.644,1.892,3.572,1.706c1.241-1.372,2.631-2.598,4.207-3.652
		c0.409,0.613,0.859,1.263,1.318,1.959c1.311-0.873,2.743-1.599,4.308-2.147c0.285,0.802,0.593,1.649,0.912,2.524
		c-1.35,0.474-2.593,1.092-3.72,1.837c-1.255,0.838-2.375,1.811-3.363,2.904c-0.993,1.119-1.848,2.344-2.53,3.671
		c-0.682,1.329-1.192,2.759-1.525,4.227c-0.895-0.22-1.759-0.425-2.577-0.622c-0.373,1.678-0.538,3.426-0.454,5.206
		c0.065,1.727,0.362,3.476,0.922,5.225c0.021,0.055,0.028,0.11,0.037,0.157c0.557,1.696,1.324,3.281,2.248,4.727
		c1.001,1.55,2.192,2.935,3.527,4.13c1.342,1.233,2.844,2.261,4.437,3.072c1.601,0.808,3.288,1.408,5.021,1.76
		c1.708,0.358,3.45,0.494,5.21,0.388c0.08,0.817,0.173,1.614,0.262,2.339c-1.944,0.131-3.897,0-5.809-0.387
		c-1.87-0.646-3.747-1.299-5.635-1.964c-1.797-0.907-3.488-2.067-5.017-3.441c-1.494-1.34-2.841-2.909-3.953-4.64
		c-1.059-1.642-1.905-3.414-2.525-5.326c-0.014-0.063-0.031-0.101-0.047-0.16c-0.047-0.156-0.075-0.312-0.115-0.469
		c-2.67-3.061-5.634-1.273-5.643-1.269C16.686,32.309,25.686,26.893,25.618,26.757z"/>
	<path style="fill:#25A5DB;" d="M32.114,48.435c-2.549-7.904,1.638-16.058,9.199-18.646c7.584-2.651,16.212,1.717,18.751,9.671
		c2.499,7.928-1.69,15.944-9.201,18.516C43.331,60.577,34.717,56.362,32.114,48.435z"/>
	<path style="fill:#25A5DB;" d="M40.566,87.493l-17.541,13.683c-1.953,1.524-2.302,4.345-0.778,6.299s4.344,2.303,6.298,0.777
		c0,0,10.834-8.449,14.768-11.517c3.907,3.08,14.59,11.505,14.59,11.505c1.949,1.534,4.77,1.198,6.304-0.748
		c1.533-1.947,1.201-4.766-0.746-6.303L46.104,87.509C44.483,86.23,42.196,86.223,40.566,87.493z"/>
	<path style="fill:#25A5DB;" d="M40.566,106.247l-17.541,13.685c-1.953,1.525-2.302,4.344-0.778,6.299
		c1.524,1.953,4.344,2.301,6.298,0.777c0,0,10.834-8.451,14.768-11.517c3.907,3.081,14.59,11.504,14.59,11.504
		c1.949,1.533,4.77,1.199,6.304-0.748c1.533-1.946,1.201-4.769-0.746-6.302l-17.357-13.682
		C44.483,104.984,42.196,104.979,40.566,106.247z"/>
	<rect x="24.049" y="236.021" style="fill:#25A5DB;" width="17.365" height="17.364"/>
	<rect x="45.055" y="236.021" style="fill:#25A5DB;" width="17.364" height="17.364"/>
	<rect x="24.049" y="256.436" style="fill:#25A5DB;" width="17.365" height="17.365"/>
	<rect x="45.082" y="256.467" style="fill:#25A5DB;" width="13.07" height="13.067"/>
	<path style="fill:#25A5DB;" d="M55.186,189.01c0,1.381-1.12,2.5-2.501,2.5h-18.9c-1.382,0-2.5-1.119-2.5-2.5l0,0
		c0-1.379,1.118-2.497,2.5-2.497h18.9C54.065,186.513,55.186,187.631,55.186,189.01L55.186,189.01z"/>
	<path style="fill:#25A5DB;" d="M55.186,197.446c0,1.38-1.12,2.497-2.501,2.497h-18.9c-1.382,0-2.5-1.117-2.5-2.497l0,0
		c0-1.383,1.118-2.498,2.5-2.498h18.9C54.065,194.948,55.186,196.063,55.186,197.446L55.186,197.446z"/>
	<path style="fill:#25A5DB;" d="M55.186,205.879c0,1.382-1.12,2.499-2.501,2.499h-18.9c-1.382,0-2.5-1.117-2.5-2.499l0,0
		c0-1.378,1.118-2.498,2.5-2.498h18.9C54.065,203.381,55.186,204.501,55.186,205.879L55.186,205.879z"/>
	<path style="fill:#25A5DB;" d="M32.365,154.586c-1.778,0-3.216,1.44-3.216,3.214v21.741c0,1.776,1.438,3.216,3.216,3.216h21.739
		c1.776,0,3.216-1.439,3.216-3.216v-11.04l-13.915-13.915H32.365z"/>
</g>
</svg>
