<?xml version="1.0" encoding="iso-8859-1"?>
<!-- Generator: Adobe Illustrator 15.0.2, SVG Export Plug-In . SVG Version: 6.00 Build 0)  -->
<!DOCTYPE svg PUBLIC "-//W3C//DTD SVG 1.1//EN" "http://www.w3.org/Graphics/SVG/1.1/DTD/svg11.dtd">
<svg version="1.1" xmlns="http://www.w3.org/2000/svg" xmlns:xlink="http://www.w3.org/1999/xlink" x="0px" y="0px" width="300px"
	 height="300px" viewBox="0 0 300 300" style="enable-background:new 0 0 300 300;" xml:space="preserve">
<g id="bg">
	<rect x="0.001" y="0.001" style="fill:#6B89B3;" width="299.998" height="299.998"/>
</g>
<g id="patterns">
	<g>
		<defs>
			<rect id="SVGID_1_" x="0.001" y="0.001" width="299.998" height="299.998"/>
		</defs>
		<clipPath id="SVGID_2_">
			<use xlink:href="#SVGID_1_"  style="overflow:visible;"/>
		</clipPath>
		<polygon style="clip-path:url(#SVGID_2_);fill:#4F6585;" points="41.171,-1.372 148.209,216.796 60.773,-1.372 		"/>
		<polygon style="clip-path:url(#SVGID_2_);fill:#4F6585;" points="146.966,-1.372 148.209,216.796 163.431,-1.372 		"/>
		<polygon style="clip-path:url(#SVGID_2_);fill:#4F6585;" points="-45.368,11.608 148.209,216.796 -28.633,-1.372 -45.368,-1.372 
					"/>
		<polygon style="clip-path:url(#SVGID_2_);fill:#4F6585;" points="79.239,-1.372 148.209,216.796 96.855,-1.372 		"/>
		<polygon style="clip-path:url(#SVGID_2_);fill:#4F6585;" points="113.867,-1.372 148.209,216.796 130.504,-1.372 		"/>
		<polygon style="clip-path:url(#SVGID_2_);fill:#4F6585;" points="-3.007,-1.372 148.209,216.796 20.061,-1.372 		"/>
		<polygon style="clip-path:url(#SVGID_2_);fill:#4F6585;" points="-45.368,206.143 148.209,216.796 -45.368,191.116 		"/>
		<polygon style="clip-path:url(#SVGID_2_);fill:#4F6585;" points="-45.368,65.334 148.209,216.796 -45.368,40.298 		"/>
		<polygon style="clip-path:url(#SVGID_2_);fill:#4F6585;" points="-45.368,143.688 148.209,216.796 -45.368,126.354 		"/>
		<polygon style="clip-path:url(#SVGID_2_);fill:#4F6585;" points="-45.368,107.792 148.209,216.796 -45.368,87.61 		"/>
		<polygon style="clip-path:url(#SVGID_2_);fill:#4F6585;" points="-45.368,175.833 148.209,216.796 -45.368,160.097 		"/>
		<polygon style="clip-path:url(#SVGID_2_);fill:#4F6585;" points="309.439,91.875 148.209,216.796 309.439,110.924 		"/>
		<polygon style="clip-path:url(#SVGID_2_);fill:#4F6585;" points="309.439,128.177 148.209,216.796 309.439,144.058 		"/>
		<polygon style="clip-path:url(#SVGID_2_);fill:#4F6585;" points="309.439,158.913 148.209,216.796 309.439,172.995 		"/>
		<polygon style="clip-path:url(#SVGID_2_);fill:#4F6585;" points="309.439,186.542 148.209,216.796 309.439,199.745 		"/>
		<polygon style="clip-path:url(#SVGID_2_);fill:#4F6585;" points="309.439,45.877 148.209,216.796 309.439,70.459 		"/>
		<polygon style="clip-path:url(#SVGID_2_);fill:#4F6585;" points="214.889,-1.372 148.209,216.796 233.486,-1.372 		"/>
		<polygon style="clip-path:url(#SVGID_2_);fill:#4F6585;" points="253.287,-1.372 148.209,216.796 274.668,-1.372 		"/>
		<polygon style="clip-path:url(#SVGID_2_);fill:#4F6585;" points="180.101,-1.372 148.209,216.796 197.177,-1.372 		"/>
		<polygon style="clip-path:url(#SVGID_2_);fill:#4F6585;" points="298.112,-1.372 148.209,216.796 309.439,17.003 309.439,-1.372 
					"/>
		<polygon style="clip-path:url(#SVGID_2_);fill:#4F6585;" points="145.877,317.957 148.209,216.796 137.46,317.957 		"/>
		<polygon style="clip-path:url(#SVGID_2_);fill:#4F6585;" points="196.153,317.957 148.209,216.796 186.198,317.957 		"/>
		<polygon style="clip-path:url(#SVGID_2_);fill:#4F6585;" points="159.329,317.957 148.209,216.796 150.884,317.957 		"/>
		<polygon style="clip-path:url(#SVGID_2_);fill:#4F6585;" points="-45.368,236.165 148.209,216.796 -45.368,221.103 		"/>
		<polygon style="clip-path:url(#SVGID_2_);fill:#4F6585;" points="247.41,317.957 148.209,216.796 232.121,317.957 		"/>
		<polygon style="clip-path:url(#SVGID_2_);fill:#4F6585;" points="218.795,317.957 148.209,216.796 206.93,317.957 		"/>
		<polygon style="clip-path:url(#SVGID_2_);fill:#4F6585;" points="309.439,266.679 148.209,216.796 309.439,281.568 		"/>
		<polygon style="clip-path:url(#SVGID_2_);fill:#4F6585;" points="309.439,239.023 148.209,216.796 309.439,252.576 		"/>
		<polygon style="clip-path:url(#SVGID_2_);fill:#4F6585;" points="309.439,297.523 148.209,216.796 309.439,314.902 		"/>
		<polygon style="clip-path:url(#SVGID_2_);fill:#4F6585;" points="287.156,317.957 148.209,216.796 265.39,317.957 		"/>
		<polygon style="clip-path:url(#SVGID_2_);fill:#4F6585;" points="176.853,317.957 148.209,216.796 167.946,317.957 		"/>
		<polygon style="clip-path:url(#SVGID_2_);fill:#4F6585;" points="35.359,317.957 148.209,216.796 15.354,317.957 		"/>
		<polygon style="clip-path:url(#SVGID_2_);fill:#4F6585;" points="-45.368,301.539 148.209,216.796 -45.368,283.953 		"/>
		<polygon style="clip-path:url(#SVGID_2_);fill:#4F6585;" points="-9.249,317.957 148.209,216.796 -40.68,317.957 		"/>
		<polygon style="clip-path:url(#SVGID_2_);fill:#4F6585;" points="-45.368,267.372 148.209,216.796 -45.368,251.519 		"/>
		<polygon style="clip-path:url(#SVGID_2_);fill:#4F6585;" points="128.912,317.957 148.209,216.796 120.118,317.957 		"/>
		<polygon style="clip-path:url(#SVGID_2_);fill:#4F6585;" points="110.938,317.957 148.209,216.796 101.213,317.957 		"/>
		<polygon style="clip-path:url(#SVGID_2_);fill:#4F6585;" points="66.595,317.957 148.209,216.796 52.143,317.957 		"/>
		<polygon style="clip-path:url(#SVGID_2_);fill:#4F6585;" points="309.439,212.783 148.209,216.796 309.439,225.818 		"/>
		<polygon style="clip-path:url(#SVGID_2_);fill:#4F6585;" points="90.753,317.957 148.209,216.796 79.32,317.957 		"/>
	</g>
</g>
</svg>
