<?xml version="1.0" encoding="iso-8859-1"?>
<!-- Generator: Adobe Illustrator 15.0.2, SVG Export Plug-In . SVG Version: 6.00 Build 0)  -->
<!DOCTYPE svg PUBLIC "-//W3C//DTD SVG 1.1//EN" "http://www.w3.org/Graphics/SVG/1.1/DTD/svg11.dtd">
<svg version="1.1" xmlns="http://www.w3.org/2000/svg" xmlns:xlink="http://www.w3.org/1999/xlink" x="0px" y="0px" width="300px"
	 height="300px" viewBox="0 0 300 300" style="enable-background:new 0 0 300 300;" xml:space="preserve">
<g id="bg">
	<rect y="0.001" style="fill:#FFF9A6;" width="300" height="299.998"/>
</g>
<g id="patterns">
	<g>
		<defs>
			<rect id="SVGID_1_" x="320" width="300" height="300"/>
		</defs>
		<clipPath id="SVGID_2_">
			<use xlink:href="#SVGID_1_"  style="overflow:visible;"/>
		</clipPath>
		<polygon style="clip-path:url(#SVGID_2_);fill:#F0A186;" points="361.171,-1.37 468.208,216.797 380.775,-1.37 		"/>
		<polygon style="clip-path:url(#SVGID_2_);fill:#F0A186;" points="466.965,-1.37 468.208,216.797 483.431,-1.37 		"/>
		<polygon style="clip-path:url(#SVGID_2_);fill:#F0A186;" points="274.632,11.609 468.208,216.797 291.368,-1.37 274.632,-1.37 		
			"/>
		<polygon style="clip-path:url(#SVGID_2_);fill:#F0A186;" points="399.239,-1.37 468.208,216.797 416.856,-1.37 		"/>
		<polygon style="clip-path:url(#SVGID_2_);fill:#F0A186;" points="433.867,-1.37 468.208,216.797 450.503,-1.37 		"/>
		<polygon style="clip-path:url(#SVGID_2_);fill:#F0A186;" points="316.993,-1.37 468.208,216.797 340.062,-1.37 		"/>
		<polygon style="clip-path:url(#SVGID_2_);fill:#F0A186;" points="274.632,206.145 468.208,216.797 274.632,191.117 		"/>
		<polygon style="clip-path:url(#SVGID_2_);fill:#F0A186;" points="274.632,65.335 468.208,216.797 274.632,40.3 		"/>
		<polygon style="clip-path:url(#SVGID_2_);fill:#F0A186;" points="274.632,143.687 468.208,216.797 274.632,126.354 		"/>
		<polygon style="clip-path:url(#SVGID_2_);fill:#F0A186;" points="274.632,107.794 468.208,216.797 274.632,87.611 		"/>
		<polygon style="clip-path:url(#SVGID_2_);fill:#F0A186;" points="274.632,175.834 468.208,216.797 274.632,160.098 		"/>
		<polygon style="clip-path:url(#SVGID_2_);fill:#F0A186;" points="629.44,91.876 468.208,216.797 629.44,110.925 		"/>
		<polygon style="clip-path:url(#SVGID_2_);fill:#F0A186;" points="629.44,128.179 468.208,216.797 629.44,144.059 		"/>
		<polygon style="clip-path:url(#SVGID_2_);fill:#F0A186;" points="629.44,158.914 468.208,216.797 629.44,172.996 		"/>
		<polygon style="clip-path:url(#SVGID_2_);fill:#F0A186;" points="629.44,186.543 468.208,216.797 629.44,199.747 		"/>
		<polygon style="clip-path:url(#SVGID_2_);fill:#F0A186;" points="629.44,45.878 468.208,216.797 629.44,70.46 		"/>
		<polygon style="clip-path:url(#SVGID_2_);fill:#F0A186;" points="534.888,-1.37 468.208,216.797 553.486,-1.37 		"/>
		<polygon style="clip-path:url(#SVGID_2_);fill:#F0A186;" points="573.289,-1.37 468.208,216.797 594.667,-1.37 		"/>
		<polygon style="clip-path:url(#SVGID_2_);fill:#F0A186;" points="500.102,-1.37 468.208,216.797 517.178,-1.37 		"/>
		<polygon style="clip-path:url(#SVGID_2_);fill:#F0A186;" points="618.112,-1.37 468.208,216.797 629.44,17.004 629.44,-1.37 		"/>
		<polygon style="clip-path:url(#SVGID_2_);fill:#F0A186;" points="465.877,317.956 468.208,216.797 457.46,317.956 		"/>
		<polygon style="clip-path:url(#SVGID_2_);fill:#F0A186;" points="516.154,317.956 468.208,216.797 506.198,317.956 		"/>
		<polygon style="clip-path:url(#SVGID_2_);fill:#F0A186;" points="479.329,317.956 468.208,216.797 470.883,317.956 		"/>
		<polygon style="clip-path:url(#SVGID_2_);fill:#F0A186;" points="274.632,236.166 468.208,216.797 274.632,221.104 		"/>
		<polygon style="clip-path:url(#SVGID_2_);fill:#F0A186;" points="567.411,317.956 468.208,216.797 552.121,317.956 		"/>
		<polygon style="clip-path:url(#SVGID_2_);fill:#F0A186;" points="538.796,317.956 468.208,216.797 526.929,317.956 		"/>
		<polygon style="clip-path:url(#SVGID_2_);fill:#F0A186;" points="629.44,266.68 468.208,216.797 629.44,281.569 		"/>
		<polygon style="clip-path:url(#SVGID_2_);fill:#F0A186;" points="629.44,239.025 468.208,216.797 629.44,252.577 		"/>
		<polygon style="clip-path:url(#SVGID_2_);fill:#F0A186;" points="629.44,297.524 468.208,216.797 629.44,314.903 		"/>
		<polygon style="clip-path:url(#SVGID_2_);fill:#F0A186;" points="607.158,317.956 468.208,216.797 585.39,317.956 		"/>
		<polygon style="clip-path:url(#SVGID_2_);fill:#F0A186;" points="496.854,317.956 468.208,216.797 487.947,317.956 		"/>
		<polygon style="clip-path:url(#SVGID_2_);fill:#F0A186;" points="355.359,317.956 468.208,216.797 335.354,317.956 		"/>
		<polygon style="clip-path:url(#SVGID_2_);fill:#F0A186;" points="274.632,301.54 468.208,216.797 274.632,283.954 		"/>
		<polygon style="clip-path:url(#SVGID_2_);fill:#F0A186;" points="310.751,317.956 468.208,216.797 279.32,317.956 		"/>
		<polygon style="clip-path:url(#SVGID_2_);fill:#F0A186;" points="274.632,267.373 468.208,216.797 274.632,251.521 		"/>
		<polygon style="clip-path:url(#SVGID_2_);fill:#F0A186;" points="448.913,317.956 468.208,216.797 440.117,317.956 		"/>
		<polygon style="clip-path:url(#SVGID_2_);fill:#F0A186;" points="430.938,317.956 468.208,216.797 421.213,317.956 		"/>
		<polygon style="clip-path:url(#SVGID_2_);fill:#F0A186;" points="386.595,317.956 468.208,216.797 372.142,317.956 		"/>
		<polygon style="clip-path:url(#SVGID_2_);fill:#F0A186;" points="629.44,212.784 468.208,216.797 629.44,225.819 		"/>
		<polygon style="clip-path:url(#SVGID_2_);fill:#F0A186;" points="410.754,317.956 468.208,216.797 399.322,317.956 		"/>
	</g>
	<g>
		<defs>
			<rect id="SVGID_3_" y="0.001" width="300" height="299.998"/>
		</defs>
		<clipPath id="SVGID_4_">
			<use xlink:href="#SVGID_3_"  style="overflow:visible;"/>
		</clipPath>
		<polygon style="clip-path:url(#SVGID_4_);fill:#FFE6A6;" points="41.171,-1.371 148.208,216.795 60.775,-1.371 		"/>
		<polygon style="clip-path:url(#SVGID_4_);fill:#FFE6A6;" points="146.965,-1.371 148.208,216.795 163.431,-1.371 		"/>
		<polygon style="clip-path:url(#SVGID_4_);fill:#FFE6A6;" points="-45.368,11.607 148.208,216.795 -28.632,-1.371 -45.368,-1.371 
					"/>
		<polygon style="clip-path:url(#SVGID_4_);fill:#FFE6A6;" points="79.239,-1.371 148.208,216.795 96.856,-1.371 		"/>
		<polygon style="clip-path:url(#SVGID_4_);fill:#FFE6A6;" points="113.867,-1.371 148.208,216.795 130.503,-1.371 		"/>
		<polygon style="clip-path:url(#SVGID_4_);fill:#FFE6A6;" points="-3.007,-1.371 148.208,216.795 20.062,-1.371 		"/>
		<polygon style="clip-path:url(#SVGID_4_);fill:#FFE6A6;" points="-45.368,206.144 148.208,216.795 -45.368,191.117 		"/>
		<polygon style="clip-path:url(#SVGID_4_);fill:#FFE6A6;" points="-45.368,65.333 148.208,216.795 -45.368,40.299 		"/>
		<polygon style="clip-path:url(#SVGID_4_);fill:#FFE6A6;" points="-45.368,143.688 148.208,216.795 -45.368,126.355 		"/>
		<polygon style="clip-path:url(#SVGID_4_);fill:#FFE6A6;" points="-45.368,107.791 148.208,216.795 -45.368,87.612 		"/>
		<polygon style="clip-path:url(#SVGID_4_);fill:#FFE6A6;" points="-45.368,175.834 148.208,216.795 -45.368,160.098 		"/>
		<polygon style="clip-path:url(#SVGID_4_);fill:#FFE6A6;" points="309.44,91.876 148.208,216.795 309.44,110.925 		"/>
		<polygon style="clip-path:url(#SVGID_4_);fill:#FFE6A6;" points="309.44,128.177 148.208,216.795 309.44,144.06 		"/>
		<polygon style="clip-path:url(#SVGID_4_);fill:#FFE6A6;" points="309.44,158.912 148.208,216.795 309.44,172.997 		"/>
		<polygon style="clip-path:url(#SVGID_4_);fill:#FFE6A6;" points="309.44,186.543 148.208,216.795 309.44,199.746 		"/>
		<polygon style="clip-path:url(#SVGID_4_);fill:#FFE6A6;" points="309.44,45.878 148.208,216.795 309.44,70.459 		"/>
		<polygon style="clip-path:url(#SVGID_4_);fill:#FFE6A6;" points="214.889,-1.371 148.208,216.795 233.486,-1.371 		"/>
		<polygon style="clip-path:url(#SVGID_4_);fill:#FFE6A6;" points="253.289,-1.371 148.208,216.795 274.667,-1.371 		"/>
		<polygon style="clip-path:url(#SVGID_4_);fill:#FFE6A6;" points="180.102,-1.371 148.208,216.795 197.178,-1.371 		"/>
		<polygon style="clip-path:url(#SVGID_4_);fill:#FFE6A6;" points="298.112,-1.371 148.208,216.795 309.44,17.004 309.44,-1.371 		
			"/>
		<polygon style="clip-path:url(#SVGID_4_);fill:#FFE6A6;" points="145.877,317.954 148.208,216.795 137.46,317.954 		"/>
		<polygon style="clip-path:url(#SVGID_4_);fill:#FFE6A6;" points="196.154,317.954 148.208,216.795 186.198,317.954 		"/>
		<polygon style="clip-path:url(#SVGID_4_);fill:#FFE6A6;" points="159.329,317.954 148.208,216.795 150.883,317.954 		"/>
		<polygon style="clip-path:url(#SVGID_4_);fill:#FFE6A6;" points="-45.368,236.166 148.208,216.795 -45.368,221.104 		"/>
		<polygon style="clip-path:url(#SVGID_4_);fill:#FFE6A6;" points="247.411,317.954 148.208,216.795 232.121,317.954 		"/>
		<polygon style="clip-path:url(#SVGID_4_);fill:#FFE6A6;" points="218.796,317.954 148.208,216.795 206.93,317.954 		"/>
		<polygon style="clip-path:url(#SVGID_4_);fill:#FFE6A6;" points="309.44,266.68 148.208,216.795 309.44,281.565 		"/>
		<polygon style="clip-path:url(#SVGID_4_);fill:#FFE6A6;" points="309.44,239.023 148.208,216.795 309.44,252.578 		"/>
		<polygon style="clip-path:url(#SVGID_4_);fill:#FFE6A6;" points="309.44,297.521 148.208,216.795 309.44,314.903 		"/>
		<polygon style="clip-path:url(#SVGID_4_);fill:#FFE6A6;" points="287.158,317.954 148.208,216.795 265.39,317.954 		"/>
		<polygon style="clip-path:url(#SVGID_4_);fill:#FFE6A6;" points="176.854,317.954 148.208,216.795 167.947,317.954 		"/>
		<polygon style="clip-path:url(#SVGID_4_);fill:#FFE6A6;" points="35.359,317.954 148.208,216.795 15.354,317.954 		"/>
		<polygon style="clip-path:url(#SVGID_4_);fill:#FFE6A6;" points="-45.368,301.538 148.208,216.795 -45.368,283.951 		"/>
		<polygon style="clip-path:url(#SVGID_4_);fill:#FFE6A6;" points="-9.249,317.954 148.208,216.795 -40.68,317.954 		"/>
		<polygon style="clip-path:url(#SVGID_4_);fill:#FFE6A6;" points="-45.368,267.373 148.208,216.795 -45.368,251.521 		"/>
		<polygon style="clip-path:url(#SVGID_4_);fill:#FFE6A6;" points="128.913,317.954 148.208,216.795 120.117,317.954 		"/>
		<polygon style="clip-path:url(#SVGID_4_);fill:#FFE6A6;" points="110.938,317.954 148.208,216.795 101.213,317.954 		"/>
		<polygon style="clip-path:url(#SVGID_4_);fill:#FFE6A6;" points="66.595,317.954 148.208,216.795 52.142,317.954 		"/>
		<polygon style="clip-path:url(#SVGID_4_);fill:#FFE6A6;" points="309.44,212.782 148.208,216.795 309.44,225.817 		"/>
		<polygon style="clip-path:url(#SVGID_4_);fill:#FFE6A6;" points="90.754,317.954 148.208,216.795 79.322,317.954 		"/>
	</g>
</g>
</svg>
