<?xml version="1.0" encoding="iso-8859-1"?>
<!-- Generator: Adobe Illustrator 15.0.2, SVG Export Plug-In . SVG Version: 6.00 Build 0)  -->
<!DOCTYPE svg PUBLIC "-//W3C//DTD SVG 1.1//EN" "http://www.w3.org/Graphics/SVG/1.1/DTD/svg11.dtd">
<svg version="1.1" xmlns="http://www.w3.org/2000/svg" xmlns:xlink="http://www.w3.org/1999/xlink" x="0px" y="0px" width="300px"
	 height="300px" viewBox="0 0 300 300" style="enable-background:new 0 0 300 300;" xml:space="preserve">
<g id="color__x28_change_this_x29_">
	<path style="fill:#A6A8AB;" d="M134.085,128.047c-9.9,0.76-33.7-1.39-44.5,5.93c-3.39,2.29-5.5,5.52-5.5,10.07
		c0,13,19.17,10.05,39,10.37c17.19,0.29,34.54,0.02,42.51-4.46c2.04-1.15,3.46-2.57,4.12-4.33l0.101,0.04
		C178.425,124.407,142.875,128.047,134.085,128.047z"/>
</g>
<g id="shadows">
	<path style="opacity:0.3;fill:#FFFFFF;" d="M169.715,145.627c-0.66,1.76-2.08,3.18-4.12,4.33
		c11.801-25.06-60.939-18.06-76.01-15.98c10.8-7.32,34.6-5.17,44.5-5.93c8.79,0,44.34-3.64,35.73,17.62L169.715,145.627z"/>
</g>
<g id="outline">
	<g>
		<g>
			<path style="fill:#361211;" d="M169.3,147.457c2.274-4.321,3.596-10.267-0.143-14.238c-4.238-4.501-11.074-5.373-16.923-5.873
				c-6.059-0.517-12.105-0.073-18.168-0.045c-7.649,0.035-15.364,0.023-23.006,0.433c-11.105,0.595-32.608,4.393-26.886,20.634
				c2.704,7.675,15.189,7.122,21.47,7.191c13.841,0.153,27.878,0.469,41.688-0.489c7.199-0.499,22.067-1.223,23.165-10.866
				c0.077-0.674-0.639-1.167-0.824-0.322c-2.059,9.356-20.217,9.02-27.268,9.354c-12.226,0.58-24.573,0.228-36.812,0.189
				c-8.21-0.026-24.096-0.421-20.224-12.969c2.311-7.486,12.837-9.382,19.383-10.324c12.23-1.759,25-1.299,37.353-1.568
				c6.441-0.141,13.044,0.004,19.29,1.728c2.881,0.795,5.735,2.115,7.702,4.425c3.044,3.576,1.343,8.519-0.149,12.347
				C168.863,147.279,169.121,147.795,169.3,147.457L169.3,147.457z"/>
		</g>
	</g>
	<g>
		<g>
			<path style="fill:#361211;" d="M89.098,134.55c11.622-0.339,87.337-9.557,75.967,15.892c-0.106,0.236,0.194,0.768,0.372,0.417
				c13.019-25.7-64.786-20.254-76.452-17.304C88.611,133.649,88.686,134.562,89.098,134.55L89.098,134.55z"/>
		</g>
	</g>
	<g>
		<g>
			<path style="fill:#FF0000;" d="M91.643,144.197c9.475,1.722,19.541,0.636,29.12,0.522c11.518-0.136,24.029,1.39,35.339-1.013
				c0.499-0.106,0.617-1.165,0.084-1.307c-10.695-2.851-22.777-1.752-33.75-1.57c-10.102,0.167-21.044-0.27-30.811,2.652
				C91.388,143.552,91.389,144.15,91.643,144.197L91.643,144.197z"/>
			<g>
				<path style="fill:#361211;" d="M91.643,144.822c11.38,1.856,22.904,0.368,34.362,0.555c5.962,0.097,11.91,0.396,17.874,0.273
					c2.858-0.058,11.062,0.535,12.791-2.044c0.17-0.255,0.197-0.707,0.055-0.981c-1.624-3.139-11.465-2.578-14.6-2.714
					c-7.75-0.334-15.535,0.264-23.286,0.334c-7.963,0.072-15.884,0.141-23.722,1.713c-1.408,0.283-4.908,0.443-3.669,2.68
					c0.331,0.597,0.56-0.576,0.389-0.884c0.207,0.374,12.8-1.86,14.147-1.955c5.469-0.384,10.973-0.272,16.451-0.346
					c10.735-0.145,21.446-1.045,32.05,1.152c0.144,1.073-0.46,1.434-1.811,1.083c-1.158,0.167-2.32,0.302-3.485,0.406
					c-2.948,0.303-5.926,0.333-8.886,0.352c-5.353,0.033-10.707-0.263-16.058-0.35c-10.901-0.177-21.766,1.242-32.604-0.526
					C91.297,143.516,91.229,144.754,91.643,144.822z"/>
			</g>
		</g>
	</g>
</g>
</svg>
