<?xml version="1.0" encoding="iso-8859-1"?>
<!-- Generator: Adobe Illustrator 15.0.2, SVG Export Plug-In . SVG Version: 6.00 Build 0)  -->
<!DOCTYPE svg PUBLIC "-//W3C//DTD SVG 1.1//EN" "http://www.w3.org/Graphics/SVG/1.1/DTD/svg11.dtd">
<svg version="1.1" xmlns="http://www.w3.org/2000/svg" xmlns:xlink="http://www.w3.org/1999/xlink" x="0px" y="0px" width="300px"
	 height="300px" viewBox="0 0 300 300" style="enable-background:new 0 0 300 300;" xml:space="preserve">
<g id="color__x28_change_this_x29_">
	<g>
		<path style="fill:#A6A8AB;" d="M159.988,122.876c-22.47-8.68-35.74,25.79-12.76,32.17
			C172.168,161.977,177.058,130.446,159.988,122.876z"/>
		<path style="fill:#A6A8AB;" d="M116.238,123.536h-0.01c-22.01-8.5-32.06,26.1-12.5,31.53
			C128.168,161.856,132.968,130.966,116.238,123.536z"/>
	</g>
</g>
<g id="shadows">
	<path style="opacity:0.6;" d="M154.058,126.386c0.1,0,0.2,0.01,0.3,0.02c0.17,0.01,0.35,0.03,0.53,0.05
		c0.12,0.01,0.25,0.03,0.37,0.05l-0.04,0.27c-18.43-2.14-13.71,28.93,4.72,19.5c5.31-2.72,7.44-9.83,3.15-15.08l0.02-0.02
		c5.42,6.54,3.02,14.61-3.12,17.75C138.308,160.016,133.058,124.816,154.058,126.386z"/>
	<path style="fill:#461917;" d="M163.088,131.196c4.29,5.25,2.16,12.36-3.15,15.08c-18.43,9.43-23.15-21.64-4.72-19.5l0.04-0.27
		c2.95,0.43,5.4,1.88,7.29,4.03c0.19,0.21,0.38,0.42,0.56,0.64L163.088,131.196z"/>
	<path style="opacity:0.45;" d="M159.988,122.876c17.07,7.57,12.18,39.1-12.76,32.17
		C124.248,148.667,137.518,114.196,159.988,122.876z M159.988,148.926c6.14-3.14,8.54-11.21,3.12-17.75
		c-0.18-0.22-0.37-0.43-0.56-0.64c-1.89-2.15-4.34-3.6-7.29-4.03c-0.12-0.02-0.25-0.04-0.37-0.05c-0.18-0.02-0.35-0.04-0.53-0.05
		c-0.1-0.01-0.2-0.02-0.3-0.02C133.058,124.816,138.308,160.016,159.988,148.926z"/>
	<path style="opacity:0.45;" d="M154.888,126.457c-0.18-0.02-0.36-0.04-0.53-0.05C154.538,126.417,154.708,126.437,154.888,126.457z
		"/>
	<path style="opacity:0.6;" d="M111.098,127.026c0.03,0,0.06,0.01,0.1,0.01c0.13,0.02,0.27,0.04,0.4,0.06l-0.04,0.26
		c-18.06-2.1-13.98,28.44,4.62,19.11c5.23-2.62,7.3-9.63,3.1-14.78l0.01-0.01c5.31,6.4,2.96,14.31-3.05,17.39
		C94.758,160.056,89.728,124.687,111.098,127.026z"/>
	<path style="fill:#461917;" d="M119.278,131.687c4.2,5.15,2.13,12.16-3.1,14.78c-18.6,9.33-22.68-21.21-4.62-19.11l0.04-0.26
		c2.89,0.42,5.29,1.84,7.14,3.95c0.19,0.21,0.37,0.42,0.55,0.63L119.278,131.687z"/>
	<path style="opacity:0.45;" d="M111.198,127.036c-0.04,0-0.07-0.01-0.1-0.01c-21.37-2.34-16.34,33.03,5.14,22.04
		c6.01-3.08,8.36-10.99,3.05-17.39c-0.18-0.21-0.36-0.42-0.55-0.63c-1.85-2.11-4.25-3.53-7.14-3.95
		C111.468,127.076,111.328,127.056,111.198,127.036z M116.238,123.536c16.73,7.43,11.93,38.32-12.51,31.53
		c-19.56-5.43-9.51-40.03,12.5-31.53H116.238z"/>
</g>
<g id="outline">
	<g>
		<g>
			<path style="fill:#FAAF40;" d="M154.704,139.297c2.288,0,2.182-5.154-0.127-5.154
				C152.289,134.143,152.395,139.297,154.704,139.297L154.704,139.297z"/>
		</g>
	</g>
	<g>
		<g>
			<path style="fill:#FAAF40;" d="M111.055,139.681c2.288,0,2.182-5.154-0.127-5.154
				C108.64,134.526,108.746,139.681,111.055,139.681L111.055,139.681z"/>
		</g>
	</g>
	<g>
		<g>
			<path style="fill:#361211;" d="M160.007,122.783c-11.02-4.295-21.764,1.721-24.66,13.07
				c-2.904,11.383,5.534,19.387,16.211,20.887c24.214,3.4,25.134-36.941,2.298-35.727c-0.271,0.015-0.286,0.587-0.042,0.653
				c8.829,2.386,15.387,7.821,15.58,17.536c0.184,9.26-6.855,15.892-15.888,15.975c-11.556,0.106-20.369-8.782-17.023-20.371
				c2.978-10.314,13.646-15.06,23.495-11.834C160.069,123.002,160.083,122.813,160.007,122.783L160.007,122.783z"/>
		</g>
	</g>
	<g>
		<g>
			<path style="fill:#361211;" d="M154.884,126.374c-6.831-0.827-12.535,2.243-14.102,9.167c-1.182,5.22,0.952,11.988,5.854,14.633
				c6.686,3.608,17.542-0.2,19.427-7.916c2.846-11.654-9.774-20.109-19.928-14.61c-0.253,0.137-0.206,0.759,0.14,0.675
				c5.258-1.289,9.741-2.209,14.408,1.213c5.967,4.376,6.559,12.771,1.076,17.658c-4.496,4.007-12.305,4.683-16.878,0.663
				c-3.794-3.335-4.635-9.239-3.177-13.851c1.821-5.759,7.64-7.837,13.185-7.475C154.957,126.535,154.953,126.382,154.884,126.374
				L154.884,126.374z"/>
		</g>
	</g>
	<g>
		<g>
			<path style="fill:#361211;" d="M155.212,126.696c-10.687-1.431-15.295,10.395-9.237,18.326c3.264,4.273,8.764,4.122,13.304,2.235
				c6.124-2.545,9.057-11.399,3.922-16.365c-0.25-0.242-0.393,0.32-0.304,0.488c2.054,3.871,2.839,7.377,0.324,11.265
				c-1.783,2.757-5.287,4.213-8.406,4.764c-3.814,0.674-7.308-1.257-9.324-4.419c-2.127-3.335-2.21-7.904-0.449-11.388
				c1.923-3.802,6.222-4.952,10.172-4.75C155.286,126.856,155.281,126.706,155.212,126.696L155.212,126.696z"/>
		</g>
	</g>
	<g>
		<g>
			<path style="fill:#361211;" d="M116.252,123.441c-10.18-3.977-20.179,1.427-22.722,12.106
				c-2.631,11.046,3.359,19.674,14.553,21.201c23.696,3.232,24.451-36.354,2.141-35.046c-0.271,0.016-0.286,0.586-0.042,0.653
				c8.605,2.385,15.026,7.597,15.254,17.107c0.217,9.021-6.583,15.563-15.397,15.723c-10.874,0.197-17.883-7.882-15.937-18.519
				c1.953-10.668,12.026-16.329,22.121-13.036C116.314,123.661,116.328,123.471,116.252,123.441L116.252,123.441z"/>
		</g>
	</g>
	<g>
		<g>
			<path style="fill:#361211;" d="M111.23,126.962c-6.698-0.814-12.289,2.196-13.826,8.984c-1.16,5.121,0.933,11.758,5.74,14.353
				c6.559,3.541,17.201-0.198,19.05-7.765c2.79-11.415-9.584-19.754-19.541-14.33c-0.253,0.138-0.206,0.759,0.14,0.675
				c5.156-1.25,9.54-2.162,14.115,1.194c5.842,4.285,6.423,12.501,1.055,17.286c-4.404,3.926-12.056,4.589-16.537,0.651
				c-3.716-3.265-4.54-9.047-3.112-13.564c1.784-5.643,7.486-7.681,12.919-7.328C111.303,127.123,111.299,126.97,111.23,126.962
				L111.23,126.962z"/>
		</g>
	</g>
	<g>
		<g>
			<path style="fill:#361211;" d="M111.552,127.278c-10.29-1.386-15.143,9.814-9.511,17.741c3.191,4.492,8.871,4.313,13.488,2.425
				c6.034-2.468,8.914-11.19,3.856-16.06c-0.25-0.241-0.393,0.32-0.304,0.488c2.003,3.796,2.792,7.236,0.324,11.048
				c-1.757,2.714-5.249,4.104-8.31,4.662c-3.709,0.676-7.176-1.055-9.202-4.128c-2.041-3.094-2.148-7.271-0.762-10.623
				c1.734-4.193,6.232-5.609,10.423-5.397C111.626,127.438,111.621,127.288,111.552,127.278L111.552,127.278z"/>
		</g>
	</g>
</g>
</svg>
