<?xml version="1.0" encoding="iso-8859-1"?>
<!-- Generator: Adobe Illustrator 15.0.2, SVG Export Plug-In . SVG Version: 6.00 Build 0)  -->
<!DOCTYPE svg PUBLIC "-//W3C//DTD SVG 1.1//EN" "http://www.w3.org/Graphics/SVG/1.1/DTD/svg11.dtd">
<svg version="1.1" xmlns="http://www.w3.org/2000/svg" xmlns:xlink="http://www.w3.org/1999/xlink" x="0px" y="0px" width="300px"
	 height="300px" viewBox="0 0 300 300" style="enable-background:new 0 0 300 300;" xml:space="preserve">
<g id="color__x28_change_this_x29_">
	<path style="fill:#A6A8AB;" d="M160.57,124.729c-4.279-2.94-13.33-2.65-21.31-1.83c-1.07,0.109-2.12,0.229-3.14,0.359
		c-2.07,0.13-4.2,0.301-6.36,0.521c-1.66,0.17-3.32,0.359-4.98,0.6c-1.63,0.23-3.239,0.49-4.83,0.8
		c-9.539,1.83-18.039,5.091-20.989,10.931c-0.641,1.22-1.021,2.56-1.11,4.02c-0.75,11.641,12.771,13.521,21.03,12.391
		c0.859-0.11,1.74-0.21,2.63-0.311c11.43-1.31,24.47-2.21,34.93-5.7c3.561-1.1,6.391-3.01,8.2-5.35
		C168.4,136.349,167.86,129.749,160.57,124.729z"/>
</g>
<g id="shadows">
	<path style="fill:#69D2FF;" d="M139.2,123.099l0.061-0.199c7.979-0.82,17.03-1.11,21.31,1.83c7.29,5.02,7.83,11.619,4.07,16.43
		c-5.24,3.78-22.729,5.729-33.16,6.9L139.2,123.099z"/>
	<path style="opacity:0.6;" d="M131.48,148.06c10.431-1.171,27.92-3.12,33.16-6.9c-1.81,2.34-4.64,4.25-8.2,5.35
		c-10.46,3.49-23.5,4.391-34.93,5.7l-0.14-1.29l0.52-1.67c1.4-0.15,2.65-0.32,3.67-0.479
		C126.98,148.569,129.041,148.339,131.48,148.06z"/>
	<path style="fill:#69D2FF;" d="M139.261,122.899l-0.061,0.199c-1,0.04-2.029,0.101-3.079,0.16
		C137.141,123.129,138.19,123.009,139.261,122.899z"/>
	<path style="fill:#9EE2FF;" d="M136.121,123.259c1.05-0.06,2.079-0.12,3.079-0.16l-7.72,24.961c-2.439,0.279-4.5,0.51-5.92,0.71
		c-1.02,0.159-2.27,0.329-3.67,0.479l7.87-25.47C131.921,123.56,134.051,123.389,136.121,123.259z"/>
	<path style="fill:#69D2FF;" d="M129.761,123.779l-7.87,25.47c-1.51,0.16-3.19,0.29-4.91,0.34l7.8-25.21
		C126.44,124.139,128.101,123.949,129.761,123.779z"/>
	<path style="fill:#9EE2FF;" d="M124.78,124.379l-7.8,25.21c-1.52,0.04-3.06,0.021-4.55-0.109l7.52-24.301
		C121.541,124.869,123.15,124.609,124.78,124.379z"/>
	<path style="opacity:0.6;" d="M116.98,149.589c1.72-0.05,3.4-0.18,4.91-0.34l-0.52,1.67l0.14,1.29
		c-0.89,0.101-1.771,0.2-2.63,0.311c-8.26,1.13-21.78-0.75-21.03-12.391c0.09-1.46,0.47-2.8,1.11-4.02
		c0.87,4.2,3.27,9.16,6.51,11.51c1.77,1.09,4.27,1.65,6.96,1.86C113.921,149.609,115.461,149.629,116.98,149.589z"/>
	<path style="fill:#69D2FF;" d="M119.95,125.179l-7.52,24.301c-2.69-0.21-5.19-0.771-6.96-1.86c-3.24-2.35-5.64-7.31-6.51-11.51
		C101.911,130.27,110.411,127.009,119.95,125.179z"/>
</g>
<g id="outline">
	<g>
		<g>
			<path style="fill:#361211;" d="M152.303,122.736c-14.596-0.379-30.14-0.481-43.895,5.082c-4.622,1.869-9.854,5.334-10.782,10.643
				c-1.27,7.251,3.033,12.207,9.754,14.16c3.399,0.988,7.084,1.023,10.579,0.717c6.387-0.561,12.79-1.379,19.153-2.163
				c9.344-1.152,22.756-2.063,28.667-10.507c4.433-6.332-0.196-13.794-5.885-17.225c-3.739-2.255-9.232-1.976-13.383-1.879
				c-5.418,0.125-10.718,0.917-15.996,2.084c-0.279,0.062-0.291,0.677,0.016,0.664c7.604-0.317,15.186-1.58,22.804-0.933
				c5.293,0.45,9.709,3.042,12.219,7.861c3,5.761-1.978,11.097-6.683,13.59c-8.228,4.358-19.461,4.726-28.557,5.72
				c-7.841,0.856-15.988,2.659-23.746,0.427c-8.079-2.324-10.916-11.376-5.014-17.47c4.195-4.331,10.996-6.073,16.671-7.334
				c11.099-2.466,22.75-2.906,34.083-3.203C152.413,122.968,152.407,122.739,152.303,122.736L152.303,122.736z"/>
		</g>
	</g>
	<g>
		<g>
			<path style="fill:#361211;" d="M99.223,134.995c0.12,5.812,2.799,12.643,8.826,14.449c6.608,1.981,14.683,0.471,21.354-0.541
				c6.637-1.007,13.327-1.617,19.957-2.696c5.21-0.848,12.553-1.63,16.453-5.605c0.426-0.435,0.021-1.836-0.523-1.27
				c-3.473,3.618-10.126,4.512-14.754,5.462c-5.978,1.227-12.037,1.937-18.088,2.677c-4.98,0.609-9.912,1.367-14.933,1.605
				c-3.419,0.162-6.927,0.122-10.235-0.834c-5.103-1.476-7.496-8.607-7.801-13.253C99.463,134.751,99.218,134.754,99.223,134.995
				L99.223,134.995z"/>
		</g>
	</g>
</g>
</svg>
