<?xml version="1.0" encoding="iso-8859-1"?>
<!-- Generator: Adobe Illustrator 15.0.2, SVG Export Plug-In . SVG Version: 6.00 Build 0)  -->
<!DOCTYPE svg PUBLIC "-//W3C//DTD SVG 1.1//EN" "http://www.w3.org/Graphics/SVG/1.1/DTD/svg11.dtd">
<svg version="1.1" xmlns="http://www.w3.org/2000/svg" xmlns:xlink="http://www.w3.org/1999/xlink" x="0px" y="0px" width="300px"
	 height="300px" viewBox="0 0 300 300" style="enable-background:new 0 0 300 300;" xml:space="preserve">
<g id="color__x28_change_this_x29_">
	<path style="fill:#A6A8AB;" d="M132.371,123.852c-8.35,0.64-26.59,0.449-38.58,5.26c-6.68,2.68-11.42,6.93-11.42,13.74
		c0,13,19.17,10.05,39,10.37c17.18,0.289,34.53,0.02,42.5-4.461c2.04-1.149,3.47-2.569,4.13-4.329l0.101,0.04
		C176.721,123.071,141.161,123.852,132.371,123.852z"/>
</g>
<g id="shadows">
	<path style="opacity:0.3;fill:#FFFFFF;" d="M168.001,144.432c-0.66,1.76-2.09,3.18-4.13,4.329
		c11.42-24.18-47.439-21.84-70.08-19.649c11.99-4.811,30.23-4.62,38.58-5.26c8.79,0,44.35-0.78,35.73,20.62L168.001,144.432z"/>
	<path style="fill:#461917;" d="M154.771,137.241c2.93,2.11,3.739,3.8,3.26,5.15l-0.32-0.061c-71.63,7.19-64.38-0.07-61-7.25
		c6.391-2.859,15.721-2.74,26.141-2.74C131.541,132.341,147.721,132.151,154.771,137.241z"/>
	<path style="opacity:0.45;" d="M92.182,138.142c1.26-1.28,2.789-2.28,4.529-3.061c-3.38,7.18-10.63,14.44,61,7.25l0.32,0.061
		c-1.3,3.58-11.83,4.75-16.38,5.029c-10.19,0.78-23.7,1.181-33.88,0.59c-4.311-0.199-11.75-0.39-15.28-2.939
		c-2.98-2.13-2.37-4.89-0.51-7.13L92.182,138.142z"/>
</g>
<g id="outline">
	<g>
		<g>
			<path style="fill:#361211;" d="M167.586,146.261c15.07-28.717-44.906-23.245-58.238-21.684
				c-11.299,1.323-32.537,6.56-26.887,22.595c2.704,7.675,15.189,7.122,21.47,7.191c13.841,0.153,27.878,0.469,41.688-0.489
				c7.2-0.499,22.062-1.224,23.164-10.866c0.077-0.674-0.639-1.167-0.824-0.322c-2.055,9.355-20.219,9.02-27.268,9.354
				c-12.226,0.58-24.573,0.229-36.812,0.189c-8.324-0.026-24.014-0.421-20.221-13.02c2.307-7.662,12.584-10.36,19.38-11.806
				c12.014-2.557,25.074-3.134,37.353-2.731c6.507,0.214,13.139,0.896,19.29,3.129c8.714,3.161,10.834,9.643,7.553,18.066
				C167.149,146.084,167.408,146.6,167.586,146.261L167.586,146.261z"/>
		</g>
	</g>
	<g>
		<g>
			<path style="fill:#361211;" d="M93.384,130.354c12.955-0.327,83.173-9.604,69.966,18.892c-0.108,0.236,0.189,0.767,0.373,0.417
				c14.903-28.297-57.561-23.617-70.452-20.304C92.897,129.455,92.972,130.365,93.384,130.354L93.384,130.354z"/>
		</g>
	</g>
	<g>
		<g>
			<path style="fill:#361211;" d="M97.971,134.069c-2.992,0.773-9.143,4.324-7.656,8.434c2.221,6.142,12.25,5.634,17.465,5.874
				c15.528,0.712,32.196,1.217,47.255-3.121c2.575-0.741,4.804-3.062,3.053-5.764c-3.606-5.562-11.219-6.719-17.296-7.204
				c-8.849-0.706-17.843-0.078-26.707-0.11c-7.318-0.026-16.682,0.086-22.057,5.856c-0.11,0.119-0.036,0.522,0.152,0.367
				c9.5-7.833,24.896-6.103,36.406-5.731c5.882,0.189,11.686,0.781,17.424,2.138c4.02,0.951,16.555,5.834,8.111,10.183
				c-3.306,1.702-8.113,1.706-11.795,1.995c-6.706,0.527-13.437,0.823-20.16,0.985c-6.061,0.146-12.064-0.174-18.112-0.506
				c-3.212-0.176-6.397-0.593-9.449-1.64c-8.034-2.754-0.925-10.219,3.382-11.682C98.018,134.134,98.008,134.06,97.971,134.069
				L97.971,134.069z"/>
		</g>
	</g>
	<g>
		<g>
			<path style="fill:#361211;" d="M96.76,134.852c-1.64,3.466-3.748,7.043,0.965,8.978c5.08,2.085,11.447,1.759,16.799,1.755
				c14.251-0.009,29.135-0.64,43.191-2.94c0.271-0.044,0.268-0.635-0.016-0.625c-12.707,0.449-25.354,2.334-38.076,2.836
				c-6.36,0.252-12.999,0.521-19.292-0.661c-6.429-1.209-5.685-4.449-3.481-9.266C96.881,134.861,96.803,134.759,96.76,134.852
				L96.76,134.852z"/>
		</g>
	</g>
	<g>
		<g>
			<path style="fill:#FFF100;" d="M111.835,142.262c3.068,0,2.927-6.912-0.17-6.912C108.597,135.35,108.738,142.262,111.835,142.262
				L111.835,142.262z"/>
		</g>
	</g>
	<g>
		<g>
			<path style="fill:#FFF100;" d="M138.271,142.262c3.068,0,2.926-6.912-0.17-6.912C135.033,135.35,135.176,142.262,138.271,142.262
				L138.271,142.262z"/>
		</g>
	</g>
</g>
</svg>
