<?xml version="1.0" encoding="iso-8859-1"?>
<!-- Generator: Adobe Illustrator 15.0.2, SVG Export Plug-In . SVG Version: 6.00 Build 0)  -->
<!DOCTYPE svg PUBLIC "-//W3C//DTD SVG 1.1//EN" "http://www.w3.org/Graphics/SVG/1.1/DTD/svg11.dtd">
<svg version="1.1" xmlns="http://www.w3.org/2000/svg" xmlns:xlink="http://www.w3.org/1999/xlink" x="0px" y="0px" width="300px"
	 height="300px" viewBox="0 0 300 300" style="enable-background:new 0 0 300 300;" xml:space="preserve">
<g id="color__x28_change_this_x29_">
	<g>
		<path style="fill:#A6A8AB;" d="M165.968,130.931l-0.15-0.53c-7.2,2-15.01,5.25-22.18,7.86l-0.27,0.14
			c1.38,2.75,4.64,9.2,7.27,9.86c3.33,0.67,14-7.33,16.66-9.33C165.968,136.261,167.968,133.591,165.968,130.931z"/>
		<path style="fill:#A6A8AB;" d="M99.638,138.261h-1c-3.34,8,8.66,10.67,14.66,12.67c1.97-3.29,2.65-7.23,4.59-10.53l-0.25-0.14
			C111.638,139.591,105.638,138.931,99.638,138.261z"/>
	</g>
</g>
<g id="shadows">
	<path style="opacity:0.45;" d="M165.968,130.931c2,2.66,0,5.33,1.33,8c-2.66,2-13.33,10-16.66,9.33c-2.63-0.66-5.89-7.11-7.27-9.86
		l0.27-0.14c7.17-2.61,14.98-5.86,22.18-7.86L165.968,130.931z"/>
	<path style="opacity:0.45;" d="M117.638,140.261l0.25,0.14c-1.94,3.3-2.62,7.24-4.59,10.53c-6-2-18-4.67-14.66-12.67h1
		C105.638,138.931,111.638,139.591,117.638,140.261z"/>
</g>
<g id="outline">
	<g>
		<g>
			<path style="fill:#361211;" d="M166.331,130.071c-3.626-1.116-7.517,0.601-11.01,1.653c-4.136,1.246-9.104,2.236-12.126,5.467
				c-0.441,0.471-0.651,2.097,0.252,2.279c3.928,0.792,7.628-1.604,11.187-3.083c3.958-1.644,8.635-2.914,11.737-5.96
				C166.451,130.349,166.464,130.112,166.331,130.071L166.331,130.071z"/>
		</g>
	</g>
	<g>
		<g>
			<path style="fill:#361211;" d="M99.449,139.452c2.761,0.922,5.662,1.128,8.537,1.507c3.207,0.422,6.765,1.426,9.932,0.669
				c1.081-0.258,0.725-2.375-0.068-2.749c-2.597-1.227-5.73-1.08-8.567-1.347c-3.196-0.301-6.476-0.849-9.678-0.503
				C98.597,137.139,98.546,139.15,99.449,139.452L99.449,139.452z"/>
		</g>
	</g>
	<g>
		<g>
			<path style="fill:#361211;" d="M98.624,138.25c-3.745,8.34,9.149,11.346,14.606,13.142c0.122,0.04,0.243-0.021,0.303-0.131
				c1.881-3.421,2.918-7.202,4.642-10.702c0.145-0.294-0.132-1.061-0.414-0.598c-1.373,2.258-2.168,4.753-3.088,7.219
				c-0.469,1.258-1.028,3.36-2.668,2.845c-1.035-0.325-2.072-0.643-3.105-0.974c-5.076-1.622-12.115-4.039-10.252-10.782
				C98.65,138.253,98.634,138.227,98.624,138.25L98.624,138.25z"/>
		</g>
	</g>
	<g>
		<g>
			<path style="fill:#361211;" d="M143.291,138.271c1.154,2.849,4.394,11.292,8.554,10.303c5.711-1.357,10.997-5.801,15.615-9.262
				c0.179-0.134,0.148-0.437,0.091-0.617c-0.915-2.886,0.254-5.371-1.479-7.936c-0.156-0.231-0.293,0.145-0.234,0.29
				c0.805,2,1.749,7.174-0.282,8.676c-2.56,1.894-5.172,3.712-7.881,5.387c-2.235,1.383-5.751,3.879-8.31,2.062
				c-2.822-2.004-4.299-6.072-6.054-8.928C143.298,138.227,143.286,138.258,143.291,138.271L143.291,138.271z"/>
		</g>
	</g>
	<g>
		<g>
			<path style="fill:#361211;" d="M104.506,138.93c-0.032,0.698,0.412,1.451,0.151,2.118c-0.215,0.549-0.059,1.601,0.671,1.657
				c1.774,0.138,3.56,0.137,5.337,0.249c1.717,0.108,3.898,0.905,5.491,0.225c0.612-0.261,0.549-1.378,0.107-1.752
				c-1.477-1.251-3.806-0.975-5.661-1.027c-1.288-0.037-2.578-0.012-3.865,0.011c-1.212,0.021-1.55-0.544-1.995-1.583
				C104.659,138.63,104.513,138.789,104.506,138.93L104.506,138.93z"/>
		</g>
	</g>
	<g>
		<g>
			<path style="fill:#361211;" d="M145.214,138.4c0.242,0.294,1.62,1.772,1.571,1.675c0.09,0.179,0.281,0.501,0.539,0.448
				c4.633-0.953,13.059-2.952,13.722-8.77c0.027-0.24-0.115-1.017-0.54-0.78c-1.265,0.708-1.854,2.075-2.884,3.099
				c-1.323,1.317-3.069,2.135-4.768,2.84c-2.629,1.092-4.825,1.487-7.558,1.151C145.151,138.047,145.156,138.33,145.214,138.4
				L145.214,138.4z"/>
		</g>
	</g>
</g>
</svg>
