<?xml version="1.0" encoding="iso-8859-1"?>
<!-- Generator: Adobe Illustrator 15.0.2, SVG Export Plug-In . SVG Version: 6.00 Build 0)  -->
<!DOCTYPE svg PUBLIC "-//W3C//DTD SVG 1.1//EN" "http://www.w3.org/Graphics/SVG/1.1/DTD/svg11.dtd">
<svg version="1.1" xmlns="http://www.w3.org/2000/svg" xmlns:xlink="http://www.w3.org/1999/xlink" x="0px" y="0px" width="300px"
	 height="300px" viewBox="0 0 300 300" style="enable-background:new 0 0 300 300;" xml:space="preserve">
<g id="color__x28_change_this_x29_">
	<path style="fill:#A6A8AB;" d="M146.556,133.758c-0.89-5.51-4.14-10.67-9.81-13.18c-13.32-5.15-23.41,4.88-24.62,15.22
		c-2.64-0.51-5.15,0.26-4.39,2.9c0.68,0,3-0.12,4.27-0.16c0.24,6.15,3.83,11.95,11.98,14.21c15.01,4.17,22.75-5.58,22.83-15.66
		C155.196,136.208,155.606,131.828,146.556,133.758z"/>
</g>
<g id="shadows">
	<path style="fill:#461917;" d="M146.556,133.758c9.051-1.93,8.641,2.45,0.261,3.33
		C146.826,135.978,146.736,134.858,146.556,133.758z"/>
	<path style="opacity:0.45;" d="M146.556,133.758c0.181,1.1,0.271,2.22,0.261,3.33c-0.08,10.08-7.82,19.83-22.83,15.66
		c-8.15-2.26-11.74-8.06-11.98-14.21c-0.03-0.91,0-1.82,0.12-2.74c1.21-10.34,11.3-20.37,24.62-15.22
		C142.416,123.088,145.666,128.248,146.556,133.758z M136.746,146.628c6.14-3.14,8.54-11.21,3.12-17.75
		c-0.18-0.22-0.37-0.43-0.561-0.64c-1.89-2.15-4.34-3.6-7.29-4.03c-0.119-0.02-0.25-0.04-0.369-0.05
		c-0.181-0.02-0.351-0.04-0.53-0.05c-0.101-0.01-0.2-0.02-0.3-0.02C109.816,122.518,115.066,157.718,136.746,146.628z"/>
	<path style="opacity:0.6;" d="M130.816,124.088c0.1,0,0.199,0.01,0.3,0.02c0.17,0.01,0.35,0.03,0.53,0.05
		c0.119,0.01,0.25,0.03,0.369,0.05l-0.04,0.27c-18.43-2.14-13.71,28.93,4.721,19.5c5.31-2.72,7.439-9.83,3.149-15.08l0.021-0.02
		c5.42,6.54,3.02,14.61-3.12,17.75C115.066,157.718,109.816,122.518,130.816,124.088z"/>
	<path style="fill:#461917;" d="M139.846,128.898c4.29,5.25,2.16,12.36-3.149,15.08c-18.431,9.43-23.15-21.64-4.721-19.5l0.04-0.27
		c2.95,0.43,5.4,1.88,7.29,4.03c0.19,0.21,0.381,0.42,0.561,0.64L139.846,128.898z"/>
	<path style="opacity:0.45;" d="M131.646,124.158c-0.181-0.02-0.36-0.04-0.53-0.05C131.296,124.118,131.466,124.138,131.646,124.158
		z"/>
	<path style="fill:#461917;" d="M112.126,135.798c-0.12,0.92-0.15,1.83-0.12,2.74c-1.27,0.04-3.59,0.16-4.27,0.16
		C106.976,136.058,109.486,135.288,112.126,135.798z"/>
</g>
<g id="outline">
	<g>
		<g>
			<path style="fill:#EC1C24;" d="M131.461,136.999c2.288,0,2.183-5.154-0.127-5.154
				C129.046,131.844,129.151,136.999,131.461,136.999L131.461,136.999z"/>
		</g>
	</g>
	<g>
		<g>
			<path style="fill:#361211;" d="M136.765,120.485c-11.021-4.295-21.764,1.721-24.659,13.07
				c-2.904,11.383,5.533,19.387,16.211,20.887c24.213,3.401,25.134-36.941,2.298-35.727c-0.271,0.015-0.287,0.587-0.042,0.653
				c8.828,2.386,15.387,7.821,15.579,17.536c0.184,9.26-6.855,15.893-15.888,15.975c-11.557,0.106-20.369-8.782-17.023-20.371
				c2.979-10.314,13.646-15.06,23.495-11.834C136.826,120.704,136.841,120.515,136.765,120.485L136.765,120.485z"/>
		</g>
	</g>
	<g>
		<g>
			<path style="fill:#361211;" d="M131.642,124.076c-6.831-0.827-12.534,2.243-14.102,9.167c-1.182,5.22,0.951,11.988,5.854,14.633
				c6.686,3.608,17.542-0.2,19.427-7.916c2.847-11.654-9.774-20.109-19.928-14.61c-0.254,0.137-0.206,0.759,0.139,0.675
				c5.259-1.289,9.742-2.209,14.408,1.213c5.968,4.377,6.559,12.771,1.076,17.658c-4.496,4.007-12.305,4.683-16.879,0.663
				c-3.794-3.335-4.635-9.239-3.176-13.851c1.82-5.759,7.64-7.837,13.185-7.475C131.715,124.236,131.711,124.084,131.642,124.076
				L131.642,124.076z"/>
		</g>
	</g>
	<g>
		<g>
			<path style="fill:#361211;" d="M131.97,124.398c-10.687-1.431-15.295,10.395-9.237,18.326c3.265,4.273,8.765,4.122,13.305,2.235
				c6.124-2.545,9.057-11.399,3.923-16.365c-0.25-0.242-0.394,0.32-0.305,0.488c2.054,3.871,2.839,7.377,0.325,11.265
				c-1.783,2.757-5.287,4.213-8.406,4.764c-3.814,0.674-7.308-1.257-9.324-4.419c-2.127-3.335-2.21-7.904-0.448-11.388
				c1.923-3.802,6.222-4.952,10.172-4.75C132.043,124.558,132.038,124.407,131.97,124.398L131.97,124.398z"/>
		</g>
	</g>
	<g>
		<g>
			<path style="fill:#361211;" d="M147.136,133.976c0.776-0.031,1.522-0.092,2.294-0.173c0.635-0.067,1.279-0.005,1.907-0.102
				c0.325-0.05,1.723,0.041,1.756,0.597c0.029,0.487-1.198,0.993-1.523,1.136c-0.632,0.277-1.308,0.455-1.981,0.595
				c-0.382,0.08-0.77,0.138-1.156,0.191c-0.473,0.065-1.006,0.015-1.414,0.276c-0.33,0.211-0.386,0.921,0.027,1.092
				c0.454,0.188,0.946,0.026,1.419-0.057c0.484-0.084,0.965-0.194,1.44-0.316c0.771-0.197,1.527-0.466,2.228-0.845
				c0.77-0.416,1.62-1.161,1.472-2.137c-0.124-0.82-0.92-1.181-1.646-1.341c-0.304-0.067-0.594-0.189-0.9-0.244
				c-0.374-0.066-0.784-0.005-1.16,0.031c-1.024,0.099-1.894,0.35-2.816,0.8C146.916,133.558,146.915,133.985,147.136,133.976
				L147.136,133.976z"/>
		</g>
	</g>
	<g>
		<g>
			<path style="fill:#361211;" d="M111.893,135.738c-1.113-0.537-2.624-0.959-3.746-0.168c-1.093,0.77-1.086,2.099-0.821,3.313
				c0.049,0.224,0.178,0.453,0.429,0.472c0.596,0.047,1.189,0.128,1.787,0.156c0.525,0.024,1.182,0.173,1.672-0.044
				c0.541-0.24,0.48-1.317-0.037-1.544c-0.488-0.213-1.154-0.062-1.675-0.038c-0.595,0.027-1.187,0.109-1.78,0.156
				c0.127,0.105,0.254,0.211,0.381,0.316c-0.271-0.87-0.236-1.805,0.648-2.263c0.879-0.455,2.184-0.309,3.135-0.241
				C111.938,135.857,111.929,135.755,111.893,135.738L111.893,135.738z"/>
		</g>
	</g>
</g>
</svg>
