<?xml version="1.0" encoding="iso-8859-1"?>
<!-- Generator: Adobe Illustrator 15.0.2, SVG Export Plug-In . SVG Version: 6.00 Build 0)  -->
<!DOCTYPE svg PUBLIC "-//W3C//DTD SVG 1.1//EN" "http://www.w3.org/Graphics/SVG/1.1/DTD/svg11.dtd">
<svg version="1.1" xmlns="http://www.w3.org/2000/svg" xmlns:xlink="http://www.w3.org/1999/xlink" x="0px" y="0px" width="300px"
	 height="300px" viewBox="0 0 300 300" style="enable-background:new 0 0 300 300;" xml:space="preserve">
<g id="color__x28_change_this_x29_">
	<path style="fill:#A6A8AB;" d="M155.091,134.655c-9.13-0.29-31.62,0.021-42.7,0.061c-0.87,0.01-1.68,0.01-2.4,0.01
		c0,2-0.64,5.32-0.64,6.32c0.11,0.029,0.22,0.05,0.34,0.08c8.45,1.869,36.78-0.08,45.66-0.08c0-1,0-2,0-3s0-2,0-3L155.091,134.655z"
		/>
</g>
<g id="shadows">
	<path style="fill:#461917;" d="M155.091,134.655c-9.13-0.29-31.62,0.021-42.7,0.061c-0.13,0.87-0.07,2.819-0.01,4.08
		c8.6,0.79,34.78-0.74,42.97-0.75c0-1,0-2,0-3L155.091,134.655z"/>
	<path style="opacity:0.6;" d="M112.111,138.766c0.09,0.01,0.18,0.02,0.27,0.03c-0.06-1.261-0.12-3.21,0.01-4.08
		c-0.87,0.01-1.68,0.01-2.4,0.01c0,2-0.64,5.32-0.64,6.32c0.11,0.029,0.22,0.05,0.34,0.08
		C110.421,140.416,111.801,139.075,112.111,138.766z"/>
	<path style="opacity:0.6;" d="M112.381,138.796c-0.09-0.011-0.18-0.021-0.27-0.03c-0.31,0.31-1.69,1.65-2.42,2.36
		c8.45,1.869,36.78-0.08,45.66-0.08c0-1,0-2,0-3C147.161,138.056,120.981,139.586,112.381,138.796z"/>
</g>
<g id="outline">
	<g>
		<g>
			<path style="fill:#461917;" d="M155.106,135.052c-0.103,2.244,0.815,5.297-1.883,5.246c-1.858-0.036-3.719,0.054-5.576,0.116
				c-4.379,0.147-8.758,0.314-13.138,0.443c-8,0.233-16.527,0.923-24.447-0.548c-0.096-0.019,0.353-3.228,0.455-4.262
				c0.083-0.843,3.293-0.427,3.985-0.431c4.446-0.021,8.892-0.061,13.338-0.092c9.077-0.062,18.205-0.323,27.275,0.104
				c0.854,0.04,0.835-1.944-0.049-1.953c-15.035-0.142-30.065,0.125-45.101,0.151c-0.444,0.001-0.556,0.586-0.569,0.916
				c-0.087,2.043-0.479,4.042-0.62,6.077c-0.022,0.322,0.01,0.996,0.438,1.092c6.913,1.553,14.484,0.968,21.504,0.79
				c8.219-0.208,16.434-0.613,24.648-0.962c0.33-0.015,0.445-0.441,0.438-0.706c-0.05-2-0.122-3.997-0.213-5.995
				C155.572,134.578,155.127,134.602,155.106,135.052L155.106,135.052z"/>
		</g>
	</g>
	<g>
		<g>
			<path style="fill:#461917;" d="M155.399,138.003c-7.516-0.015-15.036,0.374-22.548,0.571c-4.094,0.107-8.188,0.176-12.283,0.168
				c-2.606-0.005-6.337-1.065-8.793-0.309c-0.236,0.072-0.16,0.511,0.015,0.603c2.023,1.057,5.478,0.278,7.704,0.267
				c4.457-0.022,8.914-0.199,13.367-0.366c7.511-0.282,15.025-0.775,22.542-0.855C155.437,138.081,155.435,138.003,155.399,138.003
				L155.399,138.003z"/>
		</g>
	</g>
	<g>
		<g>
			<path style="fill:#461917;" d="M110.175,141.341c0.714-0.73,1.427-1.461,2.143-2.189c0.274-0.28,0.034-1.204-0.345-0.836
				c-0.724,0.707-1.446,1.416-2.17,2.123C109.491,140.744,109.785,141.739,110.175,141.341L110.175,141.341z"/>
		</g>
	</g>
	<g>
		<g>
			<path style="fill:#461917;" d="M112.166,138.475c0.387-0.473,0.359-1.264,0.41-1.835c0.042-0.471,0.636-2.51-0.075-2.678
				c-0.327-0.077-0.507,0.215-0.555,0.504c-0.14,0.85-0.14,1.725-0.14,2.583c0,0.438,0.029,1.055,0.313,1.418
				C112.129,138.48,112.151,138.492,112.166,138.475L112.166,138.475z"/>
		</g>
	</g>
</g>
</svg>
