<?xml version="1.0" encoding="iso-8859-1"?>
<!-- Generator: Adobe Illustrator 15.0.2, SVG Export Plug-In . SVG Version: 6.00 Build 0)  -->
<!DOCTYPE svg PUBLIC "-//W3C//DTD SVG 1.1//EN" "http://www.w3.org/Graphics/SVG/1.1/DTD/svg11.dtd">
<svg version="1.1" xmlns="http://www.w3.org/2000/svg" xmlns:xlink="http://www.w3.org/1999/xlink" x="0px" y="0px" width="300px"
	 height="300px" viewBox="0 0 300 300" style="enable-background:new 0 0 300 300;" xml:space="preserve">
<g id="color__x28_change_this_x29_">
	<g>
		<path style="fill:#A6A8AB;" d="M163.839,134.327c-0.18-0.221-0.37-0.431-0.56-0.641c-1.89-2.149-4.34-3.6-7.29-4.03
			c-0.12-0.02-0.25-0.039-0.37-0.05c-0.18-0.02-0.36-0.04-0.53-0.05c-0.1-0.01-0.2-0.02-0.3-0.02c-21-1.57-15.75,33.63,5.93,22.54
			C166.859,148.937,169.259,140.867,163.839,134.327z"/>
		<path style="fill:#A6A8AB;" d="M119.469,134.196c-1.85-2.109-4.25-3.529-7.14-3.949c-0.13-0.021-0.27-0.04-0.4-0.061
			c-0.04,0-0.07-0.01-0.1-0.01c-21.37-2.34-16.34,33.03,5.14,22.04c6.01-3.08,8.36-10.99,3.05-17.39
			C119.839,134.617,119.659,134.406,119.469,134.196z"/>
	</g>
</g>
<g id="shadows">
	<path style="opacity:0.6;" d="M154.789,129.537c0.1,0,0.2,0.01,0.3,0.02c0.17,0.01,0.35,0.03,0.53,0.05
		c0.12,0.011,0.25,0.03,0.37,0.05l-0.04,0.271c-18.43-2.14-13.71,28.93,4.72,19.5c5.31-2.72,7.44-9.83,3.15-15.08l0.02-0.02
		c5.42,6.54,3.02,14.609-3.12,17.75C139.039,163.167,133.789,127.967,154.789,129.537z"/>
	<path style="fill:#461917;" d="M163.819,134.347c4.29,5.25,2.16,12.36-3.15,15.08c-18.43,9.43-23.15-21.64-4.72-19.5l0.04-0.271
		c2.95,0.431,5.4,1.881,7.29,4.03c0.19,0.21,0.38,0.42,0.56,0.641L163.819,134.347z"/>
	<path style="opacity:0.45;" d="M155.619,129.606c-0.18-0.02-0.36-0.04-0.53-0.05C155.269,129.566,155.438,129.587,155.619,129.606z
		"/>
	<path style="opacity:0.6;" d="M111.829,130.177c0.03,0,0.06,0.01,0.1,0.01c0.13,0.021,0.27,0.04,0.4,0.061l-0.04,0.26
		c-18.06-2.101-13.98,28.439,4.62,19.11c5.23-2.62,7.3-9.631,3.1-14.78l0.01-0.01c5.31,6.399,2.96,14.31-3.05,17.39
		C95.489,163.207,90.458,127.837,111.829,130.177z"/>
	<path style="fill:#461917;" d="M120.009,134.837c4.2,5.149,2.13,12.16-3.1,14.78c-18.6,9.329-22.68-21.211-4.62-19.11l0.04-0.26
		c2.89,0.42,5.29,1.84,7.14,3.949c0.19,0.21,0.37,0.421,0.55,0.631L120.009,134.837z"/>
</g>
<g id="outline">
	<g>
		<g>
			<path style="fill:#EC1C24;" d="M155.434,142.447c2.288,0,2.182-5.154-0.127-5.154
				C153.019,137.293,153.125,142.447,155.434,142.447L155.434,142.447z"/>
		</g>
	</g>
	<g>
		<g>
			<path style="fill:#EC1C24;" d="M111.785,142.831c2.288,0,2.182-5.154-0.127-5.154
				C109.37,137.677,109.476,142.831,111.785,142.831L111.785,142.831z"/>
		</g>
	</g>
	<g>
		<g>
			<path style="fill:#361211;" d="M155.614,129.524c-6.831-0.826-12.534,2.243-14.102,9.166c-1.182,5.221,0.952,11.988,5.854,14.634
				c6.686,3.608,17.542-0.2,19.427-7.916c2.847-11.654-9.774-20.108-19.928-14.609c-0.253,0.137-0.206,0.759,0.14,0.674
				c5.258-1.288,9.741-2.209,14.408,1.214c5.967,4.376,6.559,12.771,1.076,17.657c-4.496,4.007-12.305,4.683-16.878,0.663
				c-3.794-3.335-4.635-9.239-3.177-13.852c1.821-5.759,7.64-7.838,13.185-7.475C155.687,129.686,155.683,129.533,155.614,129.524
				L155.614,129.524z"/>
		</g>
	</g>
	<g>
		<g>
			<path style="fill:#361211;" d="M155.942,129.847c-10.687-1.431-15.295,10.395-9.237,18.326c3.264,4.272,8.764,4.121,13.304,2.234
				c6.124-2.545,9.057-11.398,3.922-16.365c-0.25-0.241-0.393,0.321-0.304,0.489c2.054,3.871,2.839,7.377,0.324,11.265
				c-1.783,2.757-5.287,4.213-8.406,4.764c-3.814,0.675-7.308-1.256-9.324-4.419c-2.127-3.335-2.21-7.903-0.449-11.387
				c1.923-3.803,6.222-4.952,10.172-4.751C156.016,130.007,156.011,129.855,155.942,129.847L155.942,129.847z"/>
		</g>
	</g>
	<g>
		<g>
			<path style="fill:#361211;" d="M111.96,130.112c-6.698-0.814-12.289,2.195-13.826,8.984c-1.16,5.12,0.933,11.758,5.74,14.353
				c6.559,3.541,17.201-0.198,19.05-7.765c2.79-11.414-9.584-19.755-19.541-14.329c-0.253,0.138-0.206,0.758,0.14,0.674
				c5.156-1.249,9.54-2.161,14.115,1.194c5.842,4.285,6.423,12.501,1.055,17.286c-4.404,3.926-12.056,4.589-16.537,0.651
				c-3.716-3.266-4.54-9.048-3.112-13.564c1.784-5.643,7.486-7.681,12.919-7.328C112.033,130.273,112.029,130.121,111.96,130.112
				L111.96,130.112z"/>
		</g>
	</g>
	<g>
		<g>
			<path style="fill:#361211;" d="M112.282,130.429c-10.29-1.386-15.143,9.813-9.511,17.741c3.191,4.491,8.871,4.312,13.488,2.424
				c6.034-2.467,8.914-11.189,3.856-16.06c-0.25-0.241-0.393,0.321-0.304,0.489c2.003,3.795,2.792,7.236,0.324,11.048
				c-1.757,2.714-5.249,4.104-8.31,4.662c-3.709,0.676-7.176-1.056-9.203-4.129c-2.04-3.094-2.148-7.271-0.761-10.622
				c1.734-4.193,6.232-5.609,10.423-5.397C112.356,130.589,112.351,130.438,112.282,130.429L112.282,130.429z"/>
		</g>
	</g>
</g>
</svg>
