<?xml version="1.0" encoding="iso-8859-1"?>
<!-- Generator: Adobe Illustrator 15.0.2, SVG Export Plug-In . SVG Version: 6.00 Build 0)  -->
<!DOCTYPE svg PUBLIC "-//W3C//DTD SVG 1.1//EN" "http://www.w3.org/Graphics/SVG/1.1/DTD/svg11.dtd">
<svg version="1.1" xmlns="http://www.w3.org/2000/svg" xmlns:xlink="http://www.w3.org/1999/xlink" x="0px" y="0px" width="300px"
	 height="300px" viewBox="0 0 300 300" style="enable-background:new 0 0 300 300;" xml:space="preserve">
<g id="color__x28_change_this_x29_">
	<path style="fill:#A6A8AB;" d="M161.7,125.926c-1.32-0.91-3.09-1.511-5.15-1.881c-5.51-0.989-13.04-0.35-19.3,0.41
		c-4.34,0.271-8.99,0.721-13.51,1.45c-4.88,0.79-9.59,1.92-13.58,3.53c-1.91,0.77-3.66,1.649-5.17,2.67
		c-3.5,2.33-5.76,5.34-6.01,9.22c-0.75,11.641,12.77,13.521,21.03,12.391c12.02-1.5,26.29-2.25,37.56-6.011
		c5.77-1.79,9.62-5.699,10.35-10.1C168.589,133.705,166.79,129.426,161.7,125.926z"/>
</g>
<g id="shadows">
	<path style="fill:#461917;" d="M161.7,125.926c5.09,3.5,6.89,7.779,6.22,11.68l-0.21-0.04c-2.09,2.44-8.94,4.31-16.48,5.729
		l-0.04-0.189c9.53-1.75,13.7-14.39,5.36-19.061C158.609,124.415,160.379,125.016,161.7,125.926z"/>
	<path style="opacity:0.6;" d="M167.709,137.565l0.21,0.04c-0.73,4.4-4.58,8.31-10.35,10.1c-11.27,3.761-25.54,4.511-37.56,6.011
		c-8.26,1.13-21.78-0.75-21.03-12.391c0.25-3.88,2.51-6.89,6.01-9.22c-0.02,4.5-0.7,11.14,3.38,14.1
		c4.88,3.011,15.4,1.13,20.28,0.38c4.23-0.609,13.86-1.64,22.58-3.29C158.77,141.875,165.62,140.006,167.709,137.565z"/>
	<path style="fill:#F9EC31;" d="M140.709,124.275c-1.12,0.05-2.28,0.11-3.46,0.18c6.26-0.76,13.79-1.399,19.3-0.41
		c8.34,4.671,4.17,17.311-5.36,19.061c-0.2,0.03-0.39,0.06-0.59,0.09c-10.22,1.79-16.71-10.81-9.88-18.74L140.709,124.275z"/>
	<path style="fill:#461917;" d="M137.25,124.455c1.18-0.069,2.34-0.13,3.46-0.18l0.01,0.18c-6.83,7.931-0.34,20.53,9.88,18.74
		c0.2-0.03,0.39-0.06,0.59-0.09l0.04,0.189c-8.72,1.65-18.35,2.681-22.58,3.29c-4.88,0.75-15.4,2.631-20.28-0.38
		c-4.08-2.96-3.4-9.6-3.38-14.1c1.51-1.021,3.26-1.9,5.17-2.67c-5.14,7.76,0.3,17.8,9.94,16.109c9.81-1.31,14.19-15.369,3.72-19.159
		l-0.08-0.48C128.26,125.176,132.91,124.726,137.25,124.455z"/>
	<path style="fill:#F9EC31;" d="M123.819,126.386c10.47,3.79,6.09,17.85-3.72,19.159c-9.64,1.69-15.08-8.35-9.94-16.109
		c3.99-1.61,8.7-2.74,13.58-3.53L123.819,126.386z"/>
</g>
<g id="outline">
	<g>
		<g>
			<path style="fill:#361211;" d="M153.432,123.933c-14.596-0.379-30.139-0.481-43.895,5.082
				c-4.622,1.869-9.853,5.334-10.782,10.642c-1.269,7.252,3.033,12.208,9.754,14.161c3.4,0.988,7.084,1.023,10.58,0.717
				c6.386-0.561,12.789-1.379,19.152-2.163c9.344-1.152,22.755-2.064,28.667-10.507c4.433-6.332-0.196-13.794-5.885-17.224
				c-3.739-2.256-9.232-1.977-13.383-1.88c-5.417,0.125-10.717,0.917-15.996,2.084c-0.278,0.062-0.29,0.677,0.017,0.664
				c7.604-0.317,15.184-1.58,22.803-0.933c5.293,0.45,9.709,3.042,12.218,7.861c3,5.761-1.978,11.097-6.683,13.59
				c-8.227,4.357-19.46,4.726-28.556,5.72c-7.841,0.856-15.988,2.659-23.747,0.427c-8.079-2.324-10.916-11.376-5.013-17.47
				c4.195-4.331,10.996-6.073,16.671-7.334c11.098-2.465,22.75-2.906,34.082-3.203C153.542,124.164,153.536,123.936,153.432,123.933
				L153.432,123.933z"/>
		</g>
	</g>
	<g>
		<g>
			<path style="fill:#361211;" d="M104.859,131.939c-0.186,5.645-1.022,13.145,5.375,15.604c6.47,2.487,14.631,0.04,21.233-0.816
				c7.004-0.908,14.017-1.8,20.97-3.058c4.923-0.891,11.846-1.707,15.531-5.465c0.426-0.435,0.021-1.836-0.523-1.27
				c-3.266,3.403-9.502,4.311-13.87,5.286c-6.098,1.362-12.291,2.212-18.482,3.008c-4.854,0.624-9.697,1.44-14.567,1.909
				c-3.73,0.36-7.616,0.413-11.167-0.912c-5.082-1.897-4.191-9.955-4.242-14.293C105.113,131.69,104.867,131.703,104.859,131.939
				L104.859,131.939z"/>
		</g>
	</g>
	<g>
		<g>
			<path style="fill:#361211;" d="M110.359,129.079c-6.425,9.049,1.661,19.934,12.253,16.405
				c8.793-2.929,10.625-16.304,1.296-19.663c-0.544-0.196-0.615,0.938-0.177,1.135c8.121,3.662,6.734,13.366-0.604,17.131
				c-3.614,1.854-8.229,1.35-11.392-1.091c-4.342-3.35-3.845-9.641-1.339-13.862C110.413,129.106,110.387,129.039,110.359,129.079
				L110.359,129.079z"/>
		</g>
	</g>
	<g>
		<g>
			<path style="fill:#361211;" d="M119.161,137.922c0.245,0.056,0.48,0.081,0.724,0.112c0.489,0.063,0.973-0.437,1.197-0.797
				c0.463-0.745,0.554-1.713,0.379-2.559c-0.145-0.703-0.528-1.52-1.246-1.8c-0.712-0.277-1.259,0.18-1.656,0.715
				c-0.314,0.422-0.469,0.984-0.533,1.498c-0.076,0.605-0.038,1.216,0.197,1.785C118.377,137.249,118.72,137.822,119.161,137.922
				L119.161,137.922z"/>
		</g>
	</g>
	<g>
		<g>
			<path style="fill:#361211;" d="M140.704,124.426c-7.31,8.453-0.123,21.048,10.828,19.179c9.545-1.629,14.134-16,4.309-20.532
				c-0.521-0.24-0.587,0.906-0.177,1.135c9.278,5.169,3.812,16.871-5.075,18.431c-10.369,1.82-15.482-10.471-9.853-18.151
				C140.752,124.465,140.73,124.396,140.704,124.426L140.704,124.426z"/>
		</g>
	</g>
	<g>
		<g>
			<path style="fill:#361211;" d="M149.096,135.347c0.131,0.017,0.259,0.005,0.389,0.021c0.493,0.058,0.972-0.433,1.2-0.799
				c0.465-0.748,0.555-1.718,0.38-2.566c-0.118-0.571-0.375-1.163-0.831-1.55c-0.489-0.414-1.285-0.479-1.741,0.043
				c-0.539,0.617-0.751,1.189-0.921,1.984C147.333,133.597,147.829,135.184,149.096,135.347L149.096,135.347z"/>
		</g>
	</g>
</g>
</svg>
