<?xml version="1.0" encoding="iso-8859-1"?>
<!-- Generator: Adobe Illustrator 15.0.2, SVG Export Plug-In . SVG Version: 6.00 Build 0)  -->
<!DOCTYPE svg PUBLIC "-//W3C//DTD SVG 1.1//EN" "http://www.w3.org/Graphics/SVG/1.1/DTD/svg11.dtd">
<svg version="1.1" xmlns="http://www.w3.org/2000/svg" xmlns:xlink="http://www.w3.org/1999/xlink" x="0px" y="0px" width="300px"
	 height="300px" viewBox="0 0 300 300" style="enable-background:new 0 0 300 300;" xml:space="preserve">
<g id="color__x28_change_this_x29_">
	<path style="fill:#A6A8AB;" d="M162.668,125.245c-3.61-2.48-10.59-2.66-17.47-2.17c-2.39,0.18-4.77,0.43-6.98,0.7
		c-1.97,0.13-4.01,0.28-6.07,0.49c-9.72,0.97-19.93,2.98-26.19,7.16c-3.5,2.33-5.76,5.34-6.01,9.22
		c-0.75,11.64,12.77,13.52,21.03,12.39c12.02-1.5,26.29-2.25,37.56-6.01c5.77-1.79,9.62-5.7,10.35-10.1
		C169.558,133.025,167.758,128.745,162.668,125.245z"/>
</g>
<g id="shadows">
	<path style="fill:#461917;" d="M145.968,123.455c-0.24-0.14-0.5-0.26-0.77-0.38c6.88-0.49,13.86-0.31,17.47,2.17
		c5.09,3.5,6.89,7.78,6.22,11.68l-0.21-0.04c-4.51,5.26-31.17,7.89-39.06,9.02c-4.88,0.75-15.4,2.63-20.28-0.38
		c-4.08-2.96-3.4-9.6-3.38-14.1c6.26-4.18,16.47-6.19,26.19-7.16c-5.48,7.13-0.97,17.87,8.36,16.76
		C149.578,140.295,154.438,128.015,145.968,123.455z"/>
	<path style="opacity:0.6;" d="M168.678,136.885l0.21,0.04c-0.729,4.4-4.58,8.31-10.35,10.1c-11.27,3.76-25.54,4.51-37.56,6.01
		c-8.26,1.13-21.78-0.75-21.03-12.39c0.25-3.88,2.51-6.89,6.01-9.22c-0.02,4.5-0.7,11.14,3.38,14.1c4.88,3.01,15.4,1.13,20.28,0.38
		C137.508,144.775,164.168,142.145,168.678,136.885z"/>
	<path style="fill:#EC1C24;" d="M138.218,123.775c2.74-0.17,5.36-0.27,7.75-0.32c8.47,4.56,3.61,16.84-5.46,17.57
		c-9.33,1.11-13.84-9.63-8.36-16.76C134.208,124.055,136.248,123.905,138.218,123.775z"/>
	<path style="opacity:0.6;" d="M145.198,123.075c0.27,0.12,0.53,0.24,0.77,0.38c-2.39,0.05-5.01,0.15-7.75,0.32
		C140.428,123.505,142.808,123.255,145.198,123.075z"/>
</g>
<g id="outline">
	<g>
		<g>
			<path style="fill:#361211;" d="M154.399,123.252c-14.596-0.379-30.139-0.481-43.894,5.082c-4.622,1.87-9.853,5.334-10.782,10.642
				c-1.269,7.251,3.033,12.207,9.754,14.161c3.4,0.988,7.084,1.024,10.58,0.717c6.386-0.561,12.789-1.379,19.152-2.164
				c9.344-1.152,22.756-2.063,28.666-10.506c4.434-6.332-0.195-13.794-5.884-17.224c-3.739-2.255-9.232-1.976-13.383-1.88
				c-5.417,0.125-10.717,0.917-15.996,2.084c-0.278,0.062-0.29,0.677,0.017,0.664c7.604-0.317,15.184-1.58,22.803-0.933
				c5.293,0.45,9.709,3.042,12.219,7.861c3,5.762-1.979,11.098-6.684,13.59c-8.227,4.358-19.46,4.727-28.556,5.72
				c-7.841,0.857-15.988,2.659-23.746,0.427c-8.079-2.325-10.916-11.376-5.014-17.47c4.195-4.331,10.996-6.073,16.671-7.333
				c11.098-2.466,22.749-2.907,34.082-3.204C154.51,123.484,154.504,123.255,154.399,123.252L154.399,123.252z"/>
		</g>
	</g>
	<g>
		<g>
			<path style="fill:#361211;" d="M105.827,131.259c-0.186,5.645-1.022,13.145,5.375,15.604c6.47,2.488,14.631,0.041,21.233-0.815
				c7.004-0.909,14.017-1.8,20.97-3.058c4.923-0.89,11.845-1.707,15.53-5.465c0.426-0.435,0.021-1.836-0.523-1.27
				c-3.266,3.403-9.502,4.31-13.869,5.286c-6.098,1.362-12.291,2.212-18.482,3.008c-4.854,0.624-9.697,1.44-14.567,1.91
				c-3.73,0.359-7.616,0.413-11.167-0.913c-5.082-1.896-4.191-9.955-4.242-14.292C106.081,131.01,105.835,131.022,105.827,131.259
				L105.827,131.259z"/>
		</g>
	</g>
	<g>
		<g>
			<path style="fill:#361211;" d="M132.226,124.093c-5.994,7.494-0.526,20.101,9.958,17.223c8.555-2.349,12.402-14.908,2.919-18.89
				c-0.532-0.224-0.597,0.917-0.177,1.135c7.859,4.076,5.348,13.722-2.221,16.464c-3.748,1.358-7.998,0.219-10.566-2.762
				c-3.213-3.729-2.405-9.32,0.125-13.116C132.281,124.121,132.256,124.056,132.226,124.093L132.226,124.093z"/>
		</g>
	</g>
	<g>
		<g>
			<path style="fill:#361211;" d="M139.334,133.011c0.223,0.062,0.955,0.168,0.278,0.047c0.523,0.094,0.901,0.094,1.318-0.297
				c0.605-0.567,0.816-1.483,0.796-2.282c-0.02-0.799-0.274-1.704-0.907-2.241c-0.474-0.402-1.299-0.492-1.736,0.043
				c-0.491,0.601-0.753,1.135-0.884,1.899C138.051,131.043,138.289,132.721,139.334,133.011L139.334,133.011z"/>
		</g>
	</g>
</g>
</svg>
