<?xml version="1.0" encoding="iso-8859-1"?>
<!-- Generator: Adobe Illustrator 15.0.2, SVG Export Plug-In . SVG Version: 6.00 Build 0)  -->
<!DOCTYPE svg PUBLIC "-//W3C//DTD SVG 1.1//EN" "http://www.w3.org/Graphics/SVG/1.1/DTD/svg11.dtd">
<svg version="1.1" xmlns="http://www.w3.org/2000/svg" xmlns:xlink="http://www.w3.org/1999/xlink" x="0px" y="0px" width="300px"
	 height="300px" viewBox="0 0 300 300" style="enable-background:new 0 0 300 300;" xml:space="preserve">
<g id="color__x28_change_this_x29_">
	<path style="fill:#A6A8AB;" d="M164.048,92.907c0.685-5.41-0.667-12.174-4.743-14.211l-0.649,0.126c0-0.036,0-0.09-0.018-0.126
		v-1.353c-4.365,0-7.214,0-11.344,0.522c0.09-0.145,0.162-0.307,0.252-0.469V77.38c0-2.183,0.072-4.365,0.018-6.529
		c-0.054-2.741-0.289-5.428-1.028-8.025l-0.487-0.234c0,0,0.018-0.018,0.018-0.036c1.677-4.237-8.494-5.104-11.001-4.778
		c-0.072,0-0.126,0.018-0.198,0.018c-4.689,0.36-10.316,1.695-14.644,3.697c-2.308,1.425-5.591,4.094-3.373,5.05
		c2.2,2.687,3.679,6.456,4.725,9.973c0.397,1.353,0.722,2.651,1.01,3.859l0.018,0.055c-3.246,0.721-7.953,2.092-10.875,3.643
		c-1.172,0.613-2.038,1.263-2.453,1.911c0.703,3.95,1.948,8.459,1.948,12.354c11.885,7.431,26.691,6.168,39.874,1.209
		c4.653-1.714,9.089-3.914,13.129-6.33L164.048,92.907z"/>
</g>
<g id="shadows">
	<g id="XMLID_43_">
		<path style="opacity:0.3;" d="M164.048,92.907l0.18,0.307c-4.04,2.416-8.476,4.616-13.129,6.33
			c-0.325-3.95-0.613-11.182-0.631-12.732c5.411-2.183,8.927-5.014,8.188-7.989l0.649-0.126
			C163.381,80.733,164.733,87.497,164.048,92.907z"/>
		<path style="opacity:0.3;fill:#FFFFFF;" d="M150.468,86.722c0,0.036,0,0.054,0,0.09c-13.526,5.5-38.828,7.033-38.738-2.741
			c2.921-1.551,7.628-2.922,10.875-3.643c0.126-0.019,0.253-0.055,0.379-0.091c2.886,3.373,11.488,4.076,17.818,2.038v0.018
			C145.292,84.269,150.468,85.044,150.468,86.722z"/>
		<path style="fill:#BE1E2D;" d="M147.294,77.866c-1.19,2.074-3.607,3.571-6.493,4.509l-2.038-6.06
			c3.823-1.389,7.16-3.391,8.765-5.465h0.036c0.054,2.164-0.018,4.347-0.018,6.529v0.018
			C147.457,77.56,147.384,77.722,147.294,77.866z"/>
		<path style="opacity:0.3;" d="M146.05,62.591l0.487,0.234c0.739,2.598,0.974,5.284,1.028,8.025h-0.036
			c-1.605,2.074-4.941,4.076-8.765,5.465l-3.03-9.09c0,0,0.018-0.144,0.036-0.414c4.328-1.028,8.188-2.562,10.297-4.257
			C146.068,62.573,146.05,62.591,146.05,62.591z"/>
		<path style="fill:#EC1C24;" d="M122.984,80.337c-0.126,0.036-0.252,0.072-0.379,0.091l-0.018-0.055
			c-0.289-1.208-0.613-2.524-1.01-3.859c3.499,2.85,10.983,2.092,17.187-0.198l2.038,6.06
			C134.472,84.413,125.87,83.71,122.984,80.337z"/>
		<path style="opacity:0.3;fill:#FFFFFF;" d="M117.88,66.829c-0.433-0.072-0.758-0.162-1.028-0.288
			c-2.218-0.956,1.064-3.625,3.373-5.05c4.328-2.002,9.955-3.337,14.644-3.697c1.208,3.102,0.992,7.629,0.902,9.018
			c-6.258,1.461-13.508,1.839-17.854,0.018C117.917,66.812,117.898,66.812,117.88,66.829z"/>
	</g>
</g>
<g id="outline">
	<g>
		<g>
			<path style="fill:#361211;" d="M109.135,85.467c0.258,4.332,1.47,8.522,1.672,12.876c0.037,0.792,0.843,0.771,0.846-0.021
				c0.017-4.322-1.162-8.771-2.393-12.884C109.229,85.335,109.129,85.364,109.135,85.467L109.135,85.467z"/>
		</g>
	</g>
	<g>
		<g>
			<path style="fill:#361211;" d="M111.152,98.554c8.249,5.238,17.546,6.308,27.102,5.061c8.594-1.121,20.17-4.337,26.628-10.348
				c0.205-0.19,0.154-0.861-0.226-0.744c-3.863,1.188-7.493,3.726-11.229,5.353c-4.863,2.117-9.987,3.575-15.204,4.491
				c-9.268,1.627-18.701,0.26-26.955-4.28C111.071,97.978,110.999,98.456,111.152,98.554L111.152,98.554z"/>
		</g>
	</g>
	<g>
		<g>
			<path style="fill:#361211;" d="M164.26,92.994c0.672-2.965,0.455-6.318-0.499-9.212c-0.648-1.967-2.021-5.501-4.457-5.657
				c-0.423-0.027-0.418,0.756-0.239,0.974c1.532,1.862,3.013,3.037,3.882,5.444c0.964,2.668,0.885,5.586,0.908,8.378
				C163.858,93.241,164.184,93.333,164.26,92.994L164.26,92.994z"/>
		</g>
	</g>
	<g>
		<g>
			<path style="fill:#361211;" d="M109.228,86.183c1.359-1.886,4.494-2.786,6.595-3.54c2.172-0.779,5.38-0.842,7.203-2.218
				c0.247-0.187,0.211-0.818-0.103-0.927c-2.243-0.769-6.021,1.344-8.038,2.219c-2.149,0.933-4.609,2.192-5.714,4.384
				C109.151,86.141,109.184,86.243,109.228,86.183L109.228,86.183z"/>
		</g>
	</g>
	<g>
		<g>
			<path style="fill:#361211;" d="M111.871,82.742c-2.449,10.795,17.743,9.091,23.297,8.41c5.386-0.66,25.808-3.6,23.804-12.609
				c-0.151-0.682-0.783-0.255-0.66,0.297c1.705,7.666-18.857,10.676-23.169,11.259c-5.635,0.761-24.506,2.714-23.196-7.327
				C111.954,82.71,111.888,82.666,111.871,82.742L111.871,82.742z"/>
		</g>
	</g>
	<g>
		<g>
			<path style="fill:#361211;" d="M158.639,77.24c-3.834-0.25-7.721-0.504-11.467,0.531c-0.187,0.052-0.149,0.499,0.057,0.498
				c3.784-0.015,7.631-0.585,11.415-0.834C158.731,77.43,158.726,77.246,158.639,77.24L158.639,77.24z"/>
		</g>
	</g>
	<g>
		<g>
			<path style="fill:#361211;" d="M122.828,79.646c4.496,7.14,21.58,5.805,25.227-1.613c0.339-0.688-0.333-2.462-0.959-1.385
				c-2.554,4.387-7.146,5.75-11.945,6.261c-3.838,0.409-9.83,0.154-12.288-3.319C122.835,79.55,122.812,79.619,122.828,79.646
				L122.828,79.646z"/>
		</g>
	</g>
	<g>
		<g>
			<path style="fill:#231F20;" d="M154.446,84.918c0.017,0,0.017-0.039-0.001-0.039C154.428,84.879,154.428,84.918,154.446,84.918
				L154.446,84.918z"/>
		</g>
	</g>
	<g>
		<g>
			<path style="fill:#361211;" d="M122.69,80.372c-0.177-2.63-0.921-5.077-1.789-7.561c-0.737-2.11-1.884-5.538-3.86-6.795
				c-0.506-0.322-0.662,0.505-0.523,0.841c0.958,2.331,2.563,4.369,3.54,6.744c0.927,2.254,1.471,4.621,2.444,6.854
				C122.565,80.603,122.699,80.495,122.69,80.372L122.69,80.372z"/>
		</g>
	</g>
	<g>
		<g>
			<path style="fill:#361211;" d="M116.112,66.057c7.046,6.466,24.13,2.146,30.585-3.514c0.274-0.24,0.063-1.082-0.316-0.769
				c-7.101,5.85-21.821,7.354-30.17,3.888C116.013,65.58,116.015,65.968,116.112,66.057L116.112,66.057z"/>
		</g>
	</g>
	<g>
		<g>
			<path style="fill:#361211;" d="M147.925,77.822c0.985-4.68,0.792-10.987-0.812-15.525c-0.426-1.205-1.36,0.034-1.222,0.828
				c0.471,2.707,0.892,5.333,0.982,8.09c0.073,2.214-0.124,4.444,0.311,6.626C147.294,78.394,147.817,78.336,147.925,77.822
				L147.925,77.822z"/>
		</g>
	</g>
	<g>
		<g>
			<path style="fill:#361211;" d="M118.558,66.768c-4.885-1.745,3.572-5.436,4.566-5.818c3.812-1.471,7.907-2.206,11.96-2.584
				c2.658-0.248,13.023-0.07,10.048,4.572c-0.383,0.597,0.309,1.984,0.79,1.141c3.909-6.85-10.301-7.02-13.804-6.582
				c-4.984,0.623-12.083,1.905-15.384,6.121c-1.681,2.147-0.864,3.525,1.809,3.381C118.642,66.992,118.64,66.797,118.558,66.768
				L118.558,66.768z"/>
		</g>
	</g>
	<g>
		<g>
			<path style="fill:#361211;" d="M121.57,76.558c3.678,3.22,9.249,1.84,13.549,1.019c4.533-0.866,9.475-2.805,12.577-6.354
				c0.233-0.266-0.019-1.073-0.303-0.734c-5.465,6.518-18.147,10.125-25.797,5.962C121.547,76.423,121.542,76.533,121.57,76.558
				L121.57,76.558z"/>
		</g>
	</g>
</g>
</svg>
