<?xml version="1.0" encoding="iso-8859-1"?>
<!-- Generator: Adobe Illustrator 15.0.2, SVG Export Plug-In . SVG Version: 6.00 Build 0)  -->
<!DOCTYPE svg PUBLIC "-//W3C//DTD SVG 1.1//EN" "http://www.w3.org/Graphics/SVG/1.1/DTD/svg11.dtd">
<svg version="1.1" xmlns="http://www.w3.org/2000/svg" xmlns:xlink="http://www.w3.org/1999/xlink" x="0px" y="0px" width="300px"
	 height="300px" viewBox="0 0 300 300" style="enable-background:new 0 0 300 300;" xml:space="preserve">
<g id="color__x28_change_this_x29_">
	<path style="fill:#A6A8AB;" d="M160.843,69.068c-2.78-13.14-15.171-24.68-31.57-15.46c-18.5,9.18-28.061,38.08-17.101,50.64
		c4.33,4.96,11.87,7.37,23.33,5C150.422,106.168,164.832,87.898,160.843,69.068z"/>
</g>
<g id="shadows">
	<g id="XMLID_28_">
		<path style="opacity:0.3;fill:#FFFFFF;" d="M134.223,77.098c0.239,1.21,0.31,2.15,0.229,2.88c-1.72,0-3.25-0.43-4.83-0.83
			c0.33-0.73,0.49-1.55,0.431-2.41c0-0.05-0.011-0.09-0.011-0.14l0.061-0.01c1.29,0.25,2.569,0.51,3.859,0.51H134.223z"/>
		<path style="opacity:0.5;fill:#FFFFFF;" d="M128.303,58.318c5.14-2.05,4.89,2.58,0.26,3.6c-5.96,1.55-3.59-2.21-0.36-3.79
			L128.303,58.318z"/>
		<path style="fill:#BA161C;" d="M129.622,79.148c-0.29,0.69-0.74,1.31-1.279,1.83c-0.841,0.82-1.931,1.4-3.08,1.63l0.05,0.28
			c-2.46,0.47-5.12-0.22-7.13-1.5c5.6-0.01,11.029-3.3,7.92-9.06c2.08,0.82,3.75,2.26,3.939,4.27c0,0.05,0.011,0.09,0.011,0.14
			C130.112,77.598,129.952,78.418,129.622,79.148z"/>
		<path style="fill:#EC1C24;" d="M118.732,72.228c0.08-0.04,0.17-0.08,0.26-0.12c1.89-0.81,4.76-0.7,7.11,0.22
			c3.109,5.76-2.32,9.05-7.92,9.06C114.502,79.058,112.992,74.808,118.732,72.228z M117.522,75.388c0.32,1.7,2.57,1.43,3.84,0.42
			C124.183,73.248,117.853,72.828,117.522,75.388z"/>
		<path style="opacity:0.5;fill:#FFFFFF;" d="M116.592,80.667c0.09,2.56,0.04,7.251-0.64,9.032c-2.31,6.18-4.37-1.28-4.37-4.37
			c-0.25-7.29,2.49-16.17,8.65-20.82c0.83-0.9,2.06-1.77,2.93-1.56c2.57,0.52,0.25,2.06-0.52,3.35c-0.92,2.06-2.641,3.91-3.91,5.93
			c-5.74,2.58-4.23,6.83-0.55,9.16C117.532,81.388,117.231,80.756,116.592,80.667z"/>
		<path style="fill:#FFA6A9;" d="M117.522,75.388c0.33-2.56,6.66-2.14,3.84,0.42C120.093,76.818,117.843,77.088,117.522,75.388z"/>
	</g>
</g>
<g id="outline">
	<g>
		<g>
			<path style="fill:#361211;" d="M136.787,50.943c-13.301,1.684-22.68,13.364-27.147,25.245c-3.705,9.85-4.545,23.875,4.587,31.136
				c5.281,4.198,12.714,4.386,19.051,3.314c10.088-1.705,18.183-8.377,23.479-16.907c9.19-14.8,6.319-41.892-14.552-44.373
				c-6.77-0.805-13.42,2.768-18.217,7.192c-0.269,0.247-0.146,1.306,0.312,1.028c9.122-5.532,18.924-9.421,28.19-1.914
				c9.392,7.609,10.06,21.561,6.108,32.062c-5.865,15.584-26.281,27.471-42.182,18.888c-10.869-5.867-9.248-20.807-5.639-30.497
				c4.331-11.626,13.792-21.754,26.048-24.83C136.953,51.256,136.929,50.925,136.787,50.943L136.787,50.943z"/>
		</g>
	</g>
	<g>
		<g>
			<path style="fill:#361211;" d="M113.376,103.639c8.088,4.479,16.491,4.457,24.681,0.198c8.005-4.162,11.707-11.158,14.094-19.487
				c2.205-7.694,2.965-15.569-0.247-23.062c-2.904-6.773-9.423-11.399-16.924-10.4c-0.439,0.059-0.409,0.926,0.023,0.977
				c7.744,0.901,13.155,4.034,16.28,11.366c3.424,8.031,1.149,17.015-1.311,24.969c-4.562,14.749-22.898,23.352-36.581,15.342
				C113.353,103.519,113.339,103.618,113.376,103.639L113.376,103.639z"/>
		</g>
	</g>
	<g>
		<g>
			<path style="fill:#361211;" d="M123.338,82.827c4.632,0.852,8.725-3.688,6.692-8.172c-1.946-4.295-8.069-4.332-11.682-2.582
				c-3.425,1.66-4.614,4.917-2.303,8.038c2.059,2.779,8.828,5.562,11.605,2.45c0.193-0.217,0.238-0.903-0.184-0.906
				c-1.355-0.01-2.683,0.648-4.083,0.678c-1.505,0.031-2.98-0.419-4.333-1.041c-3.547-1.63-5.551-5.566-1.599-8.087
				c2.867-1.828,6.438-1.055,9.328,0.326c5.423,2.591,1.521,9.016-3.421,8.95C123.217,82.479,123.208,82.803,123.338,82.827
				L123.338,82.827z"/>
		</g>
	</g>
	<g>
		<g>
			<path style="fill:#361211;" d="M130.077,76.753c0.7,0.287,1.367,0.492,2.114,0.623c0.646,0.113,1.344,0.378,1.812-0.178
				c0.04-0.047,0.054-0.134,0.012-0.185c-0.417-0.499-0.931-0.4-1.548-0.445c-0.799-0.059-1.563-0.165-2.367-0.161
				C129.947,76.409,129.96,76.706,130.077,76.753L130.077,76.753z"/>
		</g>
	</g>
	<g>
		<g>
			<path style="fill:#361211;" d="M134.142,77.1c0.077,1.19,0.688,5.157-1.715,4.501c-0.661-0.181-1.331-0.32-1.983-0.548
				c-0.603-0.209-1.674-1.002-2.249-0.621c-0.251,0.166-0.323,0.537-0.194,0.808c0.422,0.892,1.77,1.071,2.664,1.295
				c0.992,0.248,1.634,0.138,2.579-0.178c1.984-0.661,1.511-3.875,1.041-5.319C134.245,76.92,134.137,77.013,134.142,77.1
				L134.142,77.1z"/>
		</g>
	</g>
</g>
</svg>
