<?xml version="1.0" encoding="iso-8859-1"?>
<!-- Generator: Adobe Illustrator 15.0.2, SVG Export Plug-In . SVG Version: 6.00 Build 0)  -->
<!DOCTYPE svg PUBLIC "-//W3C//DTD SVG 1.1//EN" "http://www.w3.org/Graphics/SVG/1.1/DTD/svg11.dtd">
<svg version="1.1" xmlns="http://www.w3.org/2000/svg" xmlns:xlink="http://www.w3.org/1999/xlink" x="0px" y="0px" width="300px"
	 height="300px" viewBox="0 0 300 300" style="enable-background:new 0 0 300 300;" xml:space="preserve">
<g id="color__x28_change_this_x29_">
	<path style="fill:#A6A8AB;" d="M174.104,155.809c-14.98,12.98-33.82-9.68-48.81,2.2c-13.98-12.88-27.82,19.67-41.8,2.69h-0.16
		c-0.42,22.08,29.11,8.34,40.01,7.35c17-2,43,11,51-12L174.104,155.809z"/>
</g>
<g id="shadows">
	<g id="XMLID_32_" style="opacity:0.3;">
		<path style="fill:#FFFFFF;" d="M125.294,158.009c14.99-11.88,33.83,10.78,48.81-2.2l0.24,0.24c-8,23-34,10-51,12
			c-10.9,0.99-40.43,14.73-40.01-7.35h0.16C97.474,177.679,111.314,145.129,125.294,158.009z"/>
	</g>
</g>
<g id="outline">
	<g>
		<g>
			<path style="fill:#361211;" d="M91.795,170.314c1.196,0,1.141-2.695-0.066-2.695C90.533,167.619,90.588,170.314,91.795,170.314
				L91.795,170.314z"/>
		</g>
	</g>
	<g>
		<g>
			<path style="fill:#361211;" d="M99.691,169.938c1.196,0,1.141-2.695-0.066-2.695C98.429,167.242,98.484,169.938,99.691,169.938
				L99.691,169.938z"/>
		</g>
	</g>
	<g>
		<g>
			<path style="fill:#361211;" d="M107.211,166.93c1.196,0,1.141-2.695-0.066-2.695C105.949,164.234,106.004,166.93,107.211,166.93
				L107.211,166.93z"/>
		</g>
	</g>
	<g>
		<g>
			<path style="fill:#361211;" d="M115.482,165.05c1.196,0,1.141-2.695-0.066-2.695C114.22,162.354,114.275,165.05,115.482,165.05
				L115.482,165.05z"/>
		</g>
	</g>
	<g>
		<g>
			<path style="fill:#361211;" d="M134.658,163.922c1.196,0,1.141-2.695-0.066-2.695
				C133.396,161.227,133.451,163.922,134.658,163.922L134.658,163.922z"/>
		</g>
	</g>
	<g>
		<g>
			<path style="fill:#361211;" d="M145.562,165.05c1.196,0,1.141-2.695-0.066-2.695C144.3,162.354,144.355,165.05,145.562,165.05
				L145.562,165.05z"/>
		</g>
	</g>
	<g>
		<g>
			<path style="fill:#361211;" d="M154.586,165.426c1.196,0,1.141-2.695-0.066-2.695
				C153.324,162.73,153.379,165.426,154.586,165.426L154.586,165.426z"/>
		</g>
	</g>
	<g>
		<g>
			<path style="fill:#361211;" d="M161.73,165.05c1.196,0,1.141-2.695-0.066-2.695C160.468,162.354,160.523,165.05,161.73,165.05
				L161.73,165.05z"/>
		</g>
	</g>
	<g>
		<g>
			<path style="fill:#361211;" d="M125.607,160.28c-0.81-0.375-1.851-0.59-2.667-0.122c-0.719,0.411-1.054,1.22-1.073,2.021
				c-0.056,2.262,2.231,3.304,4.229,2.827c1.915-0.457,2.095-2.709,1.248-4.188c-0.965-1.684-3.481-2.207-4.477-0.273
				c-0.049,0.095-0.062,0.372,0.109,0.364c1.256-0.061,2.409-0.689,3.398,0.468c0.682,0.798,0.844,1.867-0.278,2.317
				c-1.101,0.443-3.351,0.184-3.506-1.301c-0.062-0.588,0.249-1.209,0.655-1.614c0.653-0.649,1.508-0.666,2.352-0.423
				C125.633,160.367,125.636,160.294,125.607,160.28L125.607,160.28z"/>
		</g>
	</g>
	<g>
		<g>
			<path style="fill:#361211;" d="M123.863,163.906c0.268-0.36,0.58-0.679,0.905-0.986c0.431-0.408,1-0.541,1.443-0.906
				c0.333-0.273,0.275-1.214-0.25-1.231c-0.65-0.021-1.211,0.682-1.58,1.14c-0.386,0.478-0.635,1.06-0.83,1.637
				C123.487,163.75,123.655,164.186,123.863,163.906L123.863,163.906z"/>
		</g>
	</g>
	<g>
		<g>
			<path style="fill:#361211;" d="M125.484,157.653c-5.777-5.971-12.88-2.708-18.896,1.018c-3.267,2.022-6.438,4.195-10.067,5.528
				c-5.364,1.97-8.872-0.679-12.88-3.926c-0.418-0.34-0.52,0.524-0.366,0.769c4.446,7.025,11.856,6.056,18.202,2.466
				c7.742-4.379,14.963-11.358,23.727-5.063C125.629,158.751,125.717,157.894,125.484,157.653L125.484,157.653z"/>
		</g>
	</g>
	<g>
		<g>
			<path style="fill:#361211;" d="M83.231,160.005c-1.652,21.898,25.468,11.812,37.558,9.454c17.519-3.415,46.59,11.489,54.038-13
				c0.215-0.707-0.504-1.85-0.967-0.82c-4.818,10.721-13.251,13.597-24.421,13.031c-8.92-0.451-17.761-2.604-26.717-1.592
				c-12.054,1.363-38.535,14.345-39.263-7.032C83.453,159.877,83.247,159.802,83.231,160.005L83.231,160.005z"/>
		</g>
	</g>
	<g>
		<g>
			<path style="fill:#361211;" d="M125.307,158.456c4.256-1.909,7.871-3.255,12.624-2.908c4.91,0.357,9.712,2.239,14.398,3.62
				c7.528,2.219,15.895,3.273,22.123-2.522c0.569-0.529,0.211-2.309-0.691-1.678c-8.758,6.109-17.307,3.269-26.76,0.491
				c-7.133-2.096-16.253-3.956-21.919,2.253C124.916,157.894,124.926,158.627,125.307,158.456L125.307,158.456z"/>
		</g>
	</g>
</g>
</svg>
