<?xml version="1.0" encoding="iso-8859-1"?>
<!-- Generator: Adobe Illustrator 15.0.2, SVG Export Plug-In . SVG Version: 6.00 Build 0)  -->
<!DOCTYPE svg PUBLIC "-//W3C//DTD SVG 1.1//EN" "http://www.w3.org/Graphics/SVG/1.1/DTD/svg11.dtd">
<svg version="1.1" xmlns="http://www.w3.org/2000/svg" xmlns:xlink="http://www.w3.org/1999/xlink" x="0px" y="0px" width="300px"
	 height="300px" viewBox="0 0 300 300" style="enable-background:new 0 0 300 300;" xml:space="preserve">
<g id="color__x28_change_this_x29_">
	<path style="fill:#A6A8AB;" d="M152.116,92.303c0.38-3-0.37-6.75-2.63-7.88l-0.36,0.07c0-0.02,0-0.05-0.01-0.07v-0.75
		c-2.42,0-4,0-6.29,0.29c-0.021-6.01-2.97-9.21-6.14-9.86c-1.271-0.26-2.561-0.12-3.721,0.42c-2.58,1.17-4.479,4.25-3.819,9.05
		c0.05,0.37,0.119,0.76,0.199,1.15l-0.29,0.21c0.08,0.14,0.171,0.27,0.29,0.4c-1.8,0.39-4.56,1.17-6.239,2.07
		c-0.65,0.34-1.13,0.7-1.36,1.06c0.39,2.19,1.08,4.69,1.08,6.85c6.59,4.12,14.8,3.42,22.11,0.67c2.579-0.95,5.04-2.17,7.279-3.51
		L152.116,92.303z"/>
</g>
<g id="shadows">
	<g id="XMLID_20_">
		<path style="opacity:0.3;" d="M152.116,92.303l0.1,0.17c-2.239,1.34-4.7,2.56-7.279,3.51c-0.181-2.19-0.341-6.2-0.351-7.06
			c3-1.21,4.95-2.78,4.54-4.43l0.36-0.07C151.746,85.553,152.496,89.303,152.116,92.303z"/>
		<path style="opacity:0.3;fill:#FFFFFF;" d="M144.586,88.873c0,0.02,0,0.03,0,0.05c-7.5,3.05-21.53,3.9-21.479-1.52
			c1.68-0.9,4.439-1.68,6.239-2.07c1.601,1.87,6.351,2.26,9.86,1.13C141.656,87.453,144.586,87.973,144.586,88.873z"/>
		<path style="fill:#BA161C;" d="M142.826,83.963c-0.66,1.16-2.01,1.99-3.62,2.5c-0.07-0.02-0.14-0.05-0.21-0.08
			c0.89-3,1.02-9.93-2.31-12.28C139.856,74.753,142.806,77.953,142.826,83.963z"/>
		<path style="fill:#EC1C24;" d="M129.346,85.333c-0.119-0.13-0.21-0.26-0.29-0.4l0.29-0.21c-0.08-0.39-0.149-0.78-0.199-1.15
			c3.72,0.31,6.88-6.67,3.819-9.05c1.16-0.54,2.45-0.68,3.721-0.42c3.329,2.35,3.199,9.28,2.31,12.28c0.07,0.03,0.14,0.06,0.21,0.08
			C135.696,87.593,130.946,87.203,129.346,85.333z"/>
		<path style="fill:#FFA6A9;" d="M132.966,74.523c3.061,2.38-0.1,9.36-3.819,9.05C128.486,78.773,130.386,75.693,132.966,74.523z"/>
	</g>
</g>
<g id="outline">
	<g>
		<g>
			<path style="fill:#361211;" d="M121.633,88.179c-0.076,2.375,0.61,4.768,0.769,7.144c0.053,0.792,0.827,0.77,0.846-0.021
				c0.057-2.352-0.591-5.017-1.496-7.175C121.711,88.028,121.636,88.107,121.633,88.179L121.633,88.179z"/>
		</g>
	</g>
	<g>
		<g>
			<path style="fill:#361211;" d="M122.745,95.533c8.381,5.392,22.508,3.899,29.894-2.875c0.208-0.19,0.153-0.857-0.226-0.744
				c-5.051,1.513-9.307,4.327-14.629,5.356c-5.139,0.993-10.264,0.087-14.922-2.205C122.655,94.964,122.597,95.437,122.745,95.533
				L122.745,95.533z"/>
		</g>
	</g>
	<g>
		<g>
			<path style="fill:#361211;" d="M152.299,92.461c0.572-1.683,0.367-3.708-0.165-5.387c-0.313-0.987-1.346-3.731-2.757-3.197
				c-0.29,0.11-0.311,0.605-0.201,0.838c0.49,1.05,1.503,1.597,1.997,2.726c0.675,1.54,0.577,3.24,0.74,4.872
				C151.935,92.531,152.188,92.787,152.299,92.461L152.299,92.461z"/>
		</g>
	</g>
	<g>
		<g>
			<path style="fill:#361211;" d="M121.718,88.602c0.777-0.932,2.588-1.349,3.709-1.717c1.133-0.373,3.385-0.354,4.082-1.39
				c0.151-0.224,0.119-0.615-0.087-0.796c-0.996-0.875-3.633,0.676-4.625,1.137c-1.255,0.583-2.56,1.36-3.134,2.688
				C121.651,88.551,121.681,88.646,121.718,88.602L121.718,88.602z"/>
		</g>
	</g>
	<g>
		<g>
			<path style="fill:#361211;" d="M123.163,86.66c-1.407,6.004,9.284,5.301,12.498,4.96c3.438-0.365,14.737-1.893,13.782-7.348
				c-0.121-0.689-0.757-0.254-0.66,0.297c1.015,5.795-26.061,10.276-25.545,2.104C123.242,86.612,123.178,86.599,123.163,86.66
				L123.163,86.66z"/>
		</g>
	</g>
	<g>
		<g>
			<path style="fill:#361211;" d="M149.111,83.572c-2.279-0.247-4.734-0.581-6.936,0.229c-0.188,0.07-0.147,0.48,0.057,0.498
				c2.244,0.194,4.646-0.288,6.883-0.532C149.204,83.758,149.197,83.582,149.111,83.572L149.111,83.572z"/>
		</g>
	</g>
	<g>
		<g>
			<path style="fill:#361211;" d="M129.247,84.963c2.512,4.18,12.303,3.569,14.308-0.804c0.301-0.656-0.454-2.149-1.057-1.181
				c-1.495,2.402-3.678,3.206-6.416,3.535c-2.03,0.245-5.454,0.207-6.8-1.607C129.253,84.867,129.231,84.937,129.247,84.963
				L129.247,84.963z"/>
		</g>
	</g>
	<g>
		<g>
			<path style="fill:#231F20;" d="M146.787,87.882c0.018,0,0.017-0.039,0-0.039C146.77,87.843,146.771,87.882,146.787,87.882
				L146.787,87.882z"/>
		</g>
	</g>
	<g>
		<g>
			<path style="fill:#361211;" d="M129.591,84.722c-0.157-3.97,0.473-8.992,5.277-9.619c5.035-0.656,7.149,4.89,7.219,8.934
				c0.023,1.394,1.516,1.354,1.486-0.037c-0.105-5.093-2.639-11.536-8.759-11.082c-5.814,0.432-7.304,7.476-5.673,12.003
				C129.275,85.289,129.602,84.995,129.591,84.722L129.591,84.722z"/>
		</g>
	</g>
</g>
</svg>
