<?xml version="1.0" encoding="iso-8859-1"?>
<!-- Generator: Adobe Illustrator 15.0.2, SVG Export Plug-In . SVG Version: 6.00 Build 0)  -->
<!DOCTYPE svg PUBLIC "-//W3C//DTD SVG 1.1//EN" "http://www.w3.org/Graphics/SVG/1.1/DTD/svg11.dtd">
<svg version="1.1" xmlns="http://www.w3.org/2000/svg" xmlns:xlink="http://www.w3.org/1999/xlink" x="0px" y="0px" width="300px"
	 height="300px" viewBox="0 0 300 300" style="enable-background:new 0 0 300 300;" xml:space="preserve">
<g id="color__x28_change_this_x29_">
	<path style="fill:#A6A8AB;" d="M151.624,91.513c0.38-3-0.37-6.75-2.63-7.88l-0.36,0.07c0-0.021,0-0.051-0.01-0.07v-0.75
		c-2.42,0-4,0-6.29,0.29c0.06-0.09,0.11-0.19,0.15-0.29l0.38-0.51c-1.301-4.19-9.36-26.78-11.94-30
		c-0.01,0.119-0.02,0.229-0.03,0.35c-0.989,10.83-3.189,20.74-2.55,31.91l0.01,0.03c-1.779,0.409-4.199,1.13-5.739,1.949
		c-0.65,0.341-1.13,0.7-1.36,1.061c0.39,2.189,1.08,4.689,1.08,6.85c6.59,4.12,14.8,3.42,22.11,0.67
		c2.579-0.95,5.04-2.17,7.279-3.51L151.624,91.513z"/>
</g>
<g id="shadows">
	<g id="XMLID_59_">
		<path style="opacity:0.3;" d="M151.624,91.513l0.1,0.17c-2.239,1.34-4.7,2.56-7.279,3.51c-0.181-2.189-0.341-6.2-0.351-7.06
			c3-1.21,4.95-2.78,4.54-4.43l0.36-0.07C151.254,84.763,152.004,88.513,151.624,91.513z"/>
		<path style="opacity:0.3;fill:#FFFFFF;" d="M144.094,88.083c0,0.02,0,0.029,0,0.05c-7.5,3.05-21.53,3.899-21.479-1.521
			c1.54-0.819,3.96-1.54,5.739-1.949c0.181-0.04,0.341-0.08,0.5-0.12c1.601,1.87,6.351,2.26,9.86,1.13
			C141.164,86.663,144.094,87.183,144.094,88.083z"/>
		<path style="fill:#D0D2D3;" d="M142.334,83.173c-0.66,1.16-2.01,1.99-3.62,2.5c-0.07-0.021-0.14-0.05-0.21-0.08l-7.61-32.87
			c0.011-0.12,0.021-0.23,0.03-0.35c2.58,3.22,10.64,25.81,11.94,30l-0.38,0.51C142.444,82.982,142.394,83.083,142.334,83.173z"/>
		<path style="fill:#F1F1F2;" d="M128.854,84.543c-0.159,0.04-0.319,0.08-0.5,0.12l-0.01-0.03c-0.64-11.17,1.561-21.08,2.55-31.91
			l7.61,32.87c0.07,0.03,0.14,0.06,0.21,0.08C135.204,86.803,130.454,86.413,128.854,84.543z"/>
	</g>
</g>
<g id="outline">
	<g>
		<g>
			<path style="fill:#361211;" d="M121.141,87.388c-0.076,2.375,0.609,4.768,0.769,7.144c0.053,0.792,0.827,0.77,0.846-0.021
				c0.057-2.353-0.591-5.017-1.495-7.175C121.219,87.237,121.143,87.316,121.141,87.388L121.141,87.388z"/>
		</g>
	</g>
	<g>
		<g>
			<path style="fill:#361211;" d="M122.254,94.742c8.379,5.392,22.506,3.899,29.892-2.875c0.208-0.19,0.153-0.857-0.226-0.744
				c-5.051,1.513-9.306,4.327-14.628,5.356c-5.139,0.993-10.265,0.087-14.922-2.205C122.164,94.173,122.104,94.646,122.254,94.742
				L122.254,94.742z"/>
		</g>
	</g>
	<g>
		<g>
			<path style="fill:#361211;" d="M151.807,91.67c0.571-1.683,0.367-3.708-0.166-5.387c-0.312-0.987-1.346-3.731-2.756-3.197
				c-0.29,0.11-0.311,0.605-0.202,0.838c0.491,1.05,1.503,1.597,1.997,2.726c0.675,1.54,0.577,3.24,0.74,4.872
				C151.442,91.74,151.695,91.996,151.807,91.67L151.807,91.67z"/>
		</g>
	</g>
	<g>
		<g>
			<path style="fill:#361211;" d="M121.226,87.811c0.776-0.932,2.588-1.349,3.708-1.718c1.133-0.372,3.385-0.353,4.083-1.389
				c0.15-0.224,0.118-0.615-0.087-0.796c-0.997-0.875-3.633,0.676-4.625,1.137c-1.255,0.583-2.56,1.36-3.133,2.688
				C121.159,87.76,121.188,87.855,121.226,87.811L121.226,87.811z"/>
		</g>
	</g>
	<g>
		<g>
			<path style="fill:#361211;" d="M122.67,85.869c-1.407,6.004,9.285,5.301,12.499,4.96c3.438-0.365,14.737-1.893,13.782-7.348
				c-0.121-0.689-0.757-0.254-0.66,0.297c1.015,5.795-26.062,10.276-25.545,2.104C122.75,85.821,122.685,85.808,122.67,85.869
				L122.67,85.869z"/>
		</g>
	</g>
	<g>
		<g>
			<path style="fill:#361211;" d="M148.619,82.781c-2.279-0.247-4.734-0.581-6.936,0.229c-0.188,0.07-0.148,0.48,0.057,0.498
				c2.244,0.194,4.646-0.288,6.883-0.532C148.711,82.967,148.705,82.791,148.619,82.781L148.619,82.781z"/>
		</g>
	</g>
	<g>
		<g>
			<path style="fill:#361211;" d="M128.754,84.172c2.513,4.18,12.303,3.57,14.308-0.804c0.302-0.656-0.454-2.149-1.056-1.181
				c-1.496,2.402-3.678,3.206-6.416,3.535c-2.031,0.245-5.455,0.207-6.801-1.607C128.76,84.076,128.738,84.146,128.754,84.172
				L128.754,84.172z"/>
		</g>
	</g>
	<g>
		<g>
			<path style="fill:#231F20;" d="M146.295,87.091c0.018,0,0.017-0.039-0.001-0.039C146.277,87.052,146.277,87.091,146.295,87.091
				L146.295,87.091z"/>
		</g>
	</g>
	<g>
		<g>
			<path style="fill:#361211;" d="M128.711,84.625c0.15-10.806,1.841-21.272,2.864-32.002c-0.37,0.159-0.741,0.318-1.111,0.479
				c3.065,4.215,4.555,9.981,6.468,14.769c2.046,5.119,3.688,10.389,5.889,15.438c0.209,0.479,0.578-0.002,0.508-0.344
				c-1.145-5.531-3.42-10.799-5.312-16.108c-1.771-4.968-3.488-10.906-6.638-15.224c-0.429-0.589-1.056-0.115-1.111,0.479
				c-1.013,10.742-3.393,21.708-2.298,32.531C128.037,85.328,128.701,85.329,128.711,84.625L128.711,84.625z"/>
		</g>
	</g>
</g>
</svg>
