<?xml version="1.0" encoding="iso-8859-1"?>
<!-- Generator: Adobe Illustrator 15.0.2, SVG Export Plug-In . SVG Version: 6.00 Build 0)  -->
<!DOCTYPE svg PUBLIC "-//W3C//DTD SVG 1.1//EN" "http://www.w3.org/Graphics/SVG/1.1/DTD/svg11.dtd">
<svg version="1.1" xmlns="http://www.w3.org/2000/svg" xmlns:xlink="http://www.w3.org/1999/xlink" x="0px" y="0px" width="300px"
	 height="300px" viewBox="0 0 300 300" style="enable-background:new 0 0 300 300;" xml:space="preserve">
<g id="color__x28_change_this_x29_">
	<path style="fill:#A6A8AB;" d="M152.172,91.59c0.37-3-0.38-6.75-2.63-7.88l-0.37,0.07c0-0.02,0-0.05-0.01-0.07v-0.75
		c-2.39,0-4.78,0-7.17,0.28c-0.01-0.04-0.03-0.08-0.04-0.12c-5.94-14.72-10.87-35.25-8.74-51.61h0.55c4.53,0.22,6.05-3.38,5.06-6.52
		c-0.64-2.07-2.38-3.93-5.06-4.38c-0.12-0.02-0.24-0.05-0.36-0.05c-2.69-0.42-5.01,0.71-6.45,2.36c0,0.01,0,0.02-0.01,0.02
		c-2.45,2.86-2.29,7.26,3.07,8.19l0.18,0.01c0.07-0.17,0.14-0.34,0.22-0.51c-5.88,16.82-4.15,36.7-1.27,53.85
		c-1.63,0.29-4.3,1.12-5.97,2.1c-0.64,0.38-1.13,0.77-1.37,1.17c0.38,2.19,1.07,4.69,1.07,6.85c7.57,4.73,17.25,3.1,25.28-0.66
		c1.43-0.66,2.82-1.4,4.121-2.19L152.172,91.59z"/>
</g>
<g id="shadows">
	<g id="XMLID_15_">
		<path style="opacity:0.3;" d="M152.172,91.59l0.101,0.16c-1.3,0.79-2.69,1.53-4.121,2.19c-0.4-2.21-0.19-4.96-1.38-6.77
			c1.73-1.01,2.7-2.18,2.4-3.39l0.37-0.07C151.792,84.84,152.542,88.59,152.172,91.59z"/>
		<path style="opacity:0.3;fill:#FFFFFF;" d="M138.852,85.89c2.42,0.6,5.43,0.3,7.66,1.26l0.07,0.13
			c-6.68,3.78-23.68,5.37-23.41-0.7c1.67-0.98,4.34-1.81,5.97-2.1c0.04-0.01,0.08-0.01,0.12-0.02c1.27,2.27,6.12,2.65,9.55,1.24
			c0.02,0.05,0.03,0.1,0.05,0.15L138.852,85.89z"/>
		<path style="fill:#D0D2D3;" d="M133.302,28.42c0.14-0.04,0.28-0.06,0.42-0.08c-0.2,1.04-0.37,2.09-0.51,3.17
			c-2.13,16.36,2.8,36.89,8.74,51.61c-0.02,0.05-0.05,0.1-0.08,0.14c-0.6,1.08-1.72,1.9-3.06,2.44
			c-11.07-34.41-7.75-50.23-5.93-57.14C133.022,28.5,133.162,28.45,133.302,28.42z"/>
		<path style="fill:#80141F;" d="M138.822,24.99c0.99,3.14-0.53,6.74-5.06,6.52h-0.55c0.14-1.08,0.31-2.13,0.51-3.17
			c0.96-0.14,1.95,0.05,2.87-0.41C137.882,27.331,138.492,26.23,138.822,24.99z"/>
		<path style="fill:#BE1E2D;" d="M133.722,28.34c-0.14,0.02-0.28,0.04-0.42,0.08c-0.11-0.1-0.21-0.17-0.32-0.21
			c-0.94-0.42-1.86,0.89-2.57,2.42c-0.08,0.17-0.15,0.34-0.22,0.51l-0.18-0.01c-5.36-0.93-5.52-5.33-3.07-8.19
			c-0.7,1.75-0.64,3.33,1.6,2.77c3.91-0.97,5.99-3.73,4.86-5.15c0.12,0,0.24,0.03,0.36,0.05c2.68,0.45,4.42,2.31,5.06,4.38
			c-0.33,1.24-0.94,2.34-2.23,2.94C135.672,28.39,134.682,28.2,133.722,28.34z"/>
		<path style="fill:#E6E7E8;" d="M132.882,28.561c-1.82,6.91-5.14,22.73,5.93,57.14c-3.43,1.41-8.28,1.03-9.55-1.24
			c-0.04,0.01-0.08,0.01-0.12,0.02c-2.88-17.15-4.61-37.03,1.27-53.85c0.71-1.53,1.63-2.84,2.57-2.42
			C132.952,28.32,132.922,28.44,132.882,28.561z"/>
		<path style="fill:#ED293B;" d="M133.402,20.561c1.13,1.42-0.95,4.18-4.86,5.15c-2.24,0.56-2.3-1.02-1.6-2.77
			c0.01,0,0.01-0.01,0.01-0.02C128.392,21.271,130.712,20.14,133.402,20.561z"/>
		<path style="fill:#E6E7E8;" d="M133.302,28.42c-0.14,0.03-0.28,0.08-0.42,0.14c0.04-0.12,0.07-0.24,0.1-0.35
			C133.092,28.25,133.192,28.32,133.302,28.42z"/>
	</g>
</g>
<g id="outline">
	<g>
		<g>
			<path style="fill:#361211;" d="M121.683,87.466c-0.076,2.375,0.61,4.768,0.769,7.144c0.053,0.792,0.827,0.77,0.846-0.021
				c0.057-2.352-0.591-5.017-1.496-7.175C121.761,87.315,121.686,87.395,121.683,87.466L121.683,87.466z"/>
		</g>
	</g>
	<g>
		<g>
			<path style="fill:#361211;" d="M122.795,94.82c8.381,5.392,22.508,3.899,29.895-2.875c0.207-0.19,0.152-0.857-0.227-0.744
				c-5.051,1.513-9.307,4.327-14.629,5.356c-5.139,0.993-10.264,0.087-14.922-2.205C122.705,94.251,122.646,94.724,122.795,94.82
				L122.795,94.82z"/>
		</g>
	</g>
	<g>
		<g>
			<path style="fill:#361211;" d="M152.349,91.748c0.573-1.683,0.368-3.708-0.165-5.387c-0.313-0.987-1.346-3.731-2.757-3.197
				c-0.29,0.11-0.311,0.605-0.201,0.838c0.49,1.05,1.503,1.597,1.997,2.726c0.675,1.54,0.577,3.24,0.74,4.872
				C151.984,91.818,152.238,92.074,152.349,91.748L152.349,91.748z"/>
		</g>
	</g>
	<g>
		<g>
			<path style="fill:#361211;" d="M121.768,87.889c0.771-0.924,2.565-1.336,3.678-1.7c1.127-0.368,3.364-0.343,4.058-1.375
				c0.15-0.225,0.119-0.615-0.087-0.796c-0.989-0.873-3.609,0.663-4.598,1.122c-1.249,0.578-2.536,1.351-3.105,2.671
				C121.701,87.838,121.73,87.934,121.768,87.889L121.768,87.889z"/>
		</g>
	</g>
	<g>
		<g>
			<path style="fill:#361211;" d="M123.213,85.947c-1.407,6.004,9.284,5.301,12.498,4.96c3.438-0.365,14.737-1.893,13.782-7.348
				c-0.121-0.689-0.757-0.254-0.66,0.297c1.015,5.795-26.061,10.276-25.545,2.104C123.292,85.899,123.228,85.886,123.213,85.947
				L123.213,85.947z"/>
		</g>
	</g>
	<g>
		<g>
			<path style="fill:#361211;" d="M149.161,82.859c-2.604-0.246-5.405-0.613-7.936,0.229c-0.188,0.063-0.147,0.485,0.057,0.498
				c2.598,0.164,5.296-0.285,7.883-0.532C149.253,83.046,149.247,82.867,149.161,82.859L149.161,82.859z"/>
		</g>
	</g>
	<g>
		<g>
			<path style="fill:#361211;" d="M129.241,84.488c2.455,4.164,11.456,3.197,13.363-1.042c0.295-0.655-0.46-2.154-1.057-1.181
				c-1.422,2.318-3.282,3.253-5.943,3.656c-1.927,0.293-5.057,0.234-6.328-1.49C129.247,84.393,129.226,84.462,129.241,84.488
				L129.241,84.488z"/>
		</g>
	</g>
	<g>
		<g>
			<path style="fill:#361211;" d="M129.336,85.209c-0.906-8.461-2.193-16.814-2.44-25.34c-0.299-10.311,1.174-20.212,4.035-30.097
				c0.071-0.246-0.185-0.654-0.34-0.287c-7.088,16.769-5.41,38.394-1.405,55.759C129.215,85.371,129.349,85.328,129.336,85.209
				L129.336,85.209z"/>
		</g>
	</g>
	<g>
		<g>
			<path style="fill:#361211;" d="M142.07,83.293c-3.077-8.96-5.799-17.998-7.346-27.361c-0.781-4.726-1.257-9.496-1.416-14.282
				c-0.153-4.563,0.743-9.01,0.802-13.532c0.006-0.415-0.457-0.754-0.651-0.25c-3.042,7.915-1.376,18.767-0.009,26.895
				c1.644,9.779,4.408,19.583,8.534,28.611C142.028,83.47,142.093,83.357,142.07,83.293L142.07,83.293z"/>
		</g>
	</g>
	<g>
		<g>
			<path style="fill:#361211;" d="M133.529,28.277c-0.3-0.399-0.537-0.73-1.074-0.69c-0.544,0.042-0.993,0.518-1.315,0.909
				c-0.959,1.168-1.58,2.64-1.673,4.141c-0.01,0.17,0.159,0.343,0.289,0.173c0.678-0.883,0.988-1.921,1.535-2.883
				c0.403-0.707,1.146-1.633,2.052-1.122C133.594,28.946,133.621,28.399,133.529,28.277L133.529,28.277z"/>
		</g>
	</g>
	<g>
		<g>
			<path style="fill:#361211;" d="M130.038,30.941c-2.987-0.944-5.394-3.001-3.713-6.315c1.231-2.428,3.873-3.659,6.511-3.536
				c2.893,0.134,5.274,2.166,5.793,5.001c0.565,3.09-2.145,4.805-4.883,4.652c-0.665-0.037-0.653,1.535,0.037,1.523
				c3.441-0.06,5.808-2.131,5.774-5.654c-0.034-3.63-2.908-6.144-6.283-6.685c-3.567-0.573-7.146,1.989-8.01,5.418
				c-0.824,3.274,1.614,5.693,4.749,5.979C130.176,31.34,130.174,30.984,130.038,30.941L130.038,30.941z"/>
		</g>
	</g>
	<g>
		<g>
			<path style="fill:#361211;" d="M126.645,46.059c-3.907-0.967-10.456,2.629-9.755,7.126c0.712,4.571,9.053,4.196,12.24,4.163
				c4.157-0.043,11.998-0.5,13.43-5.562c1.401-4.953-6.298-6.823-9.565-7.204c-0.657-0.076-0.707,1.501-0.104,1.615
				c2.182,0.408,10.616,1.796,8.409,5.795c-1.963,3.555-8.285,3.914-11.732,4.027c-3.305,0.108-6.836,0.166-9.937-1.129
				c-1.668-0.696-2.724-2.255-1.614-4.186c0.679-1.18,2.182-1.949,3.312-2.575c1.677-0.928,3.535-1.252,5.32-1.882
				C126.712,46.226,126.712,46.076,126.645,46.059L126.645,46.059z"/>
		</g>
	</g>
	<g>
		<g>
			<path style="fill:#231F20;" d="M146.837,87.169c0.018,0,0.017-0.039,0-0.039C146.819,87.13,146.82,87.169,146.837,87.169
				L146.837,87.169z"/>
		</g>
	</g>
</g>
</svg>
