<?xml version="1.0" encoding="iso-8859-1"?>
<!-- Generator: Adobe Illustrator 15.0.2, SVG Export Plug-In . SVG Version: 6.00 Build 0)  -->
<!DOCTYPE svg PUBLIC "-//W3C//DTD SVG 1.1//EN" "http://www.w3.org/Graphics/SVG/1.1/DTD/svg11.dtd">
<svg version="1.1" xmlns="http://www.w3.org/2000/svg" xmlns:xlink="http://www.w3.org/1999/xlink" x="0px" y="0px" width="300px"
	 height="300px" viewBox="0 0 300 300" style="enable-background:new 0 0 300 300;" xml:space="preserve">
<g id="color__x28_change_this_x29_">
	<path style="fill:#A6A8AB;" d="M155.625,38.842l-1.34-0.09c-6.58,2.61-13.16,13.93-16.699,24.38l-0.141-0.05
		c1.58-7.51,0.45-16.93,5.69-23.01l-0.03-0.021c-0.41-3.63-3.24-5.25-6.47-4.439l0.41,0.399c-4.45,5.25-7.28,17.78-5.66,24.24
		l-0.181,0.05c-2.21-8.42-3.569-16.75-3.84-25.71c-3.229-1.62-6.479-2.21-7.7,1.83c0.24,6.73,1.49,13.601,3.57,20.101
		c-2.399-3.67-4.32-7.53-7.2-10.41v-0.061c-2.939-0.12-5.66,1.17-5.66,4.511l-0.09,0.17c3.03,1.649,4.62,4.76,6.96,7.5l-0.109,0.149
		c-6.09-4.31-12.8-7-18.88-6.67v0.061c-1.61,1.21-2.021,3.229-1.21,4.85v0.4c12.079,4.029,27.79,14.89,31.079,27.359l0.29-0.09
		c0.08,0.14,0.171,0.271,0.29,0.4c-1.8,0.39-4.56,1.17-6.239,2.069c-0.65,0.341-1.13,0.7-1.36,1.061
		c0.39,2.189,1.08,4.689,1.08,6.85c6.59,4.12,14.8,3.42,22.11,0.67c2.579-0.95,5.04-2.17,7.279-3.51l-0.1-0.17
		c0.38-3-0.37-6.75-2.63-7.88l-0.36,0.07c0-0.021,0-0.051-0.01-0.07v-0.75c-2.42,0-4,0-6.29,0.29c0.06-0.09,0.11-0.19,0.15-0.29
		l-0.04-0.15c-0.4-8.89,5.649-34.34,17.369-35.56v-0.8C159.665,45.302,160.476,39.242,155.625,38.842z"/>
</g>
<g id="shadows">
	<g id="XMLID_50_">
		<path style="fill:#C1B49A;" d="M142.186,83.322c-0.66,1.16-2.01,1.99-3.62,2.5c-0.61,0.2-1.25,0.35-1.91,0.45l-0.02-0.16
			c-0.33-2.54-1.19-5.221-2.45-7.931l0.84-0.149c-0.17-1.48-0.1-3.271,0.17-5.26c0.4-2.9,1.23-6.221,2.391-9.641
			c3.539-10.45,10.119-21.77,16.699-24.38l1.34,0.09c4.851,0.4,4.04,6.46,4.04,7.681v0.8c-11.72,1.22-17.77,26.67-17.369,35.56
			l0.04,0.15C142.296,83.132,142.245,83.232,142.186,83.322z"/>
		<path style="opacity:0.3;" d="M151.476,91.662l0.1,0.17c-2.239,1.34-4.7,2.56-7.279,3.51c-0.181-2.189-0.341-6.2-0.351-7.06
			c3-1.21,4.95-2.78,4.54-4.43l0.36-0.07C151.105,84.912,151.855,88.662,151.476,91.662z"/>
		<path style="opacity:0.3;fill:#FFFFFF;" d="M143.945,88.232c0,0.02,0,0.029,0,0.05c-7.5,3.05-21.53,3.899-21.479-1.521
			c1.68-0.899,4.439-1.68,6.239-2.069c1.32,1.54,4.801,2.08,7.95,1.58c0.66-0.101,1.3-0.25,1.91-0.45
			C141.016,86.812,143.945,87.332,143.945,88.232z"/>
		<path style="fill:#716558;" d="M143.105,40.052l0.03,0.021c-5.24,6.08-4.11,15.5-5.69,23.01l0.141,0.05
			c-1.16,3.42-1.99,6.74-2.391,9.641l-0.17,0.01c-1.46-4.24-2.74-8.37-3.82-12.48l0.181-0.05c-1.62-6.46,1.21-18.99,5.66-24.24
			l-0.41-0.399C139.865,34.802,142.695,36.422,143.105,40.052z"/>
		<path style="fill:#C1B49A;" d="M128.705,84.692c-0.119-0.13-0.21-0.261-0.29-0.4l-0.29,0.09c-3.289-12.47-19-23.33-31.079-27.359
			v-0.4c-0.811-1.62-0.4-3.64,1.21-4.85v-0.061c6.08-0.33,12.79,2.36,18.88,6.67c4.229,2.98,8.16,6.74,11.37,10.8
			c2.31,2.91,4.26,5.971,5.68,9c1.26,2.71,2.12,5.391,2.45,7.931l0.02,0.16C133.506,86.772,130.025,86.232,128.705,84.692z"/>
		<path style="fill:#9A8479;" d="M123.235,56.522c-2.08-6.5-3.33-13.37-3.57-20.101c1.221-4.04,4.471-3.45,7.7-1.83
			c0.271,8.96,1.63,17.29,3.84,25.71c1.08,4.11,2.36,8.24,3.82,12.48l0.17-0.01c-0.27,1.989-0.34,3.779-0.17,5.26l-0.84,0.149
			c-1.42-3.029-3.37-6.09-5.68-9l0.05-0.04C126.436,65.212,124.636,60.952,123.235,56.522z"/>
		<path style="fill:#716558;" d="M128.556,69.142l-0.05,0.04c-3.21-4.06-7.141-7.819-11.37-10.8l0.109-0.149
			c-2.34-2.74-3.93-5.851-6.96-7.5l0.09-0.17c0-3.341,2.721-4.631,5.66-4.511v0.061c2.88,2.88,4.801,6.74,7.2,10.41
			C124.636,60.952,126.436,65.212,128.556,69.142z"/>
	</g>
</g>
<g id="outline">
	<g>
		<g>
			<path style="fill:#361211;" d="M120.993,87.538c-0.077,2.375,0.609,4.768,0.768,7.144c0.053,0.792,0.826,0.77,0.846-0.021
				c0.057-2.352-0.591-5.017-1.496-7.175C121.069,87.388,120.995,87.467,120.993,87.538L120.993,87.538z"/>
		</g>
	</g>
	<g>
		<g>
			<path style="fill:#361211;" d="M122.104,94.893c8.381,5.392,22.508,3.899,29.894-2.875c0.208-0.19,0.153-0.857-0.226-0.744
				c-5.051,1.513-9.307,4.327-14.629,5.356c-5.139,0.993-10.264,0.087-14.922-2.205C122.015,94.323,121.956,94.796,122.104,94.893
				L122.104,94.893z"/>
		</g>
	</g>
	<g>
		<g>
			<path style="fill:#361211;" d="M151.659,91.82c0.571-1.683,0.367-3.708-0.166-5.387c-0.313-0.987-1.346-3.731-2.757-3.197
				c-0.29,0.11-0.31,0.605-0.202,0.838c0.49,1.05,1.504,1.597,1.998,2.726c0.674,1.54,0.576,3.24,0.74,4.872
				C151.294,91.891,151.548,92.146,151.659,91.82L151.659,91.82z"/>
		</g>
	</g>
	<g>
		<g>
			<path style="fill:#361211;" d="M121.077,87.961c0.777-0.932,2.588-1.349,3.709-1.717c1.133-0.373,3.385-0.354,4.082-1.39
				c0.15-0.224,0.119-0.615-0.087-0.796c-0.996-0.875-3.633,0.676-4.625,1.137c-1.255,0.583-2.56,1.36-3.134,2.688
				C121.011,87.91,121.04,88.006,121.077,87.961L121.077,87.961z"/>
		</g>
	</g>
	<g>
		<g>
			<path style="fill:#361211;" d="M122.522,86.02c-1.408,6.004,9.284,5.301,12.498,4.96c3.438-0.365,14.738-1.893,13.782-7.348
				c-0.12-0.689-0.757-0.254-0.66,0.297c1.015,5.795-26.062,10.276-25.544,2.104C122.603,85.972,122.536,85.958,122.522,86.02
				L122.522,86.02z"/>
		</g>
	</g>
	<g>
		<g>
			<path style="fill:#361211;" d="M148.47,82.932c-2.278-0.247-4.733-0.581-6.934,0.229c-0.188,0.07-0.148,0.48,0.057,0.498
				c2.243,0.194,4.646-0.288,6.883-0.532C148.563,83.117,148.557,82.941,148.47,82.932L148.47,82.932z"/>
		</g>
	</g>
	<g>
		<g>
			<path style="fill:#361211;" d="M128.606,84.322c2.512,4.18,12.303,3.569,14.307-0.804c0.302-0.656-0.453-2.149-1.056-1.181
				c-1.495,2.402-3.677,3.206-6.416,3.535c-2.03,0.245-5.454,0.207-6.8-1.607C128.612,84.227,128.591,84.296,128.606,84.322
				L128.606,84.322z"/>
		</g>
	</g>
	<g>
		<g>
			<path style="fill:#231F20;" d="M146.147,87.241c0.017,0,0.016-0.039-0.002-0.039C146.129,87.202,146.13,87.241,146.147,87.241
				L146.147,87.241z"/>
		</g>
	</g>
	<g>
		<g>
			<path style="fill:#361211;" d="M128.231,84.493c-0.713-6.472-5.678-11.972-10.451-16.001
				c-5.731-4.838-13.389-9.815-20.697-11.716c-0.246-0.064-0.267,0.408-0.076,0.491c6.512,2.856,12.752,5.527,18.225,10.216
				c5.719,4.899,9.443,10.473,12.857,17.072C128.142,84.657,128.242,84.592,128.231,84.493L128.231,84.493z"/>
		</g>
	</g>
	<g>
		<g>
			<path style="fill:#361211;" d="M97.196,56.477c-0.658-1.766,0.035-3.136,1.144-4.507c0.083-0.102,0.095-0.525-0.129-0.425
				c-1.962,0.882-2.238,3.562-1.288,5.27C97.079,57.097,97.259,56.644,97.196,56.477L97.196,56.477z"/>
		</g>
	</g>
	<g>
		<g>
			<path style="fill:#361211;" d="M97.45,51.829c9.26-0.551,17.606,4.668,24.291,10.577c7.66,6.774,11.35,14.607,14.561,24.018
				c0.213,0.624,0.73,0.103,0.733-0.323c0.06-8.475-7.483-16.881-13.1-22.43c-6.853-6.771-16.515-12.749-26.487-11.959
				C97.396,51.716,97.399,51.831,97.45,51.829L97.45,51.829z"/>
		</g>
	</g>
	<g>
		<g>
			<path style="fill:#361211;" d="M142.46,82.874c-0.034-6.729,1.754-13.617,4.041-19.891c1.229-3.374,2.852-6.592,4.939-9.514
				c2.268-3.17,4.934-4.29,8.295-5.807c0.256-0.115,0.209-0.651-0.078-0.689c-6.326-0.828-10.909,8.916-12.858,13.439
				c-2.943,6.832-5.042,14.981-4.671,22.469C142.143,83.193,142.462,83.187,142.46,82.874L142.46,82.874z"/>
		</g>
	</g>
	<g>
		<g>
			<path style="fill:#361211;" d="M159.825,46.749c0.699-1.348,0.437-3.441,0.057-4.861c-0.434-1.613-2.326-4.424-4.353-3.515
				c-0.292,0.131-0.305,0.718-0.055,0.894c0.8,0.564,1.741,0.597,2.503,1.312c0.693,0.65,0.936,1.664,1.115,2.558
				c0.23,1.153-0.104,2.479,0.389,3.554C159.546,46.83,159.731,46.931,159.825,46.749L159.825,46.749z"/>
		</g>
	</g>
	<g>
		<g>
			<path style="fill:#361211;" d="M155.217,38.203c-6.972,0.997-11.929,10.72-14.55,16.296c-3.33,7.087-6.771,15.58-5.768,23.586
				c0.027,0.223,0.26,0.133,0.25-0.058c-0.346-7.424,2.629-15.169,5.643-21.813c3.15-6.948,7.498-14.01,14.477-17.551
				C155.413,38.59,155.421,38.174,155.217,38.203L155.217,38.203z"/>
		</g>
	</g>
	<g>
		<g>
			<path style="fill:#361211;" d="M128.612,69.091c-5.33-10.363-7.746-21.145-8.789-32.678c-0.025-0.283-0.309-0.283-0.307,0.008
				c0.066,11.359,3.645,22.834,8.986,32.771C128.563,69.305,128.653,69.172,128.612,69.091L128.612,69.091z"/>
		</g>
	</g>
	<g>
		<g>
			<path style="fill:#361211;" d="M119.765,36.554c0.785-1.453,1.531-2.628,3.327-2.723c1.561-0.081,2.823,1.066,4.282,1.09
				c0.293,0.006,0.22-0.488,0.094-0.621c-1.115-1.173-3.475-1.602-5.03-1.328c-1.677,0.294-2.631,1.842-2.893,3.396
				C119.526,36.48,119.663,36.739,119.765,36.554L119.765,36.554z"/>
		</g>
	</g>
	<g>
		<g>
			<path style="fill:#361211;" d="M127.275,34.592c-0.283,12.74,2.603,26.678,7.476,38.439c0.223,0.538,0.684,0.005,0.576-0.391
				c-1.563-5.782-3.539-11.421-4.904-17.267c-1.6-6.852-2.271-13.801-2.968-20.787C127.438,34.421,127.279,34.422,127.275,34.592
				L127.275,34.592z"/>
		</g>
	</g>
	<g>
		<g>
			<path style="fill:#361211;" d="M131.446,60.227c-1.258-8.62,1.551-16.662,5.728-24.022c0.08-0.142-0.003-0.629-0.228-0.424
				c-5.539,5.054-7.537,17.524-5.621,24.501C131.359,60.408,131.462,60.327,131.446,60.227L131.446,60.227z"/>
		</g>
	</g>
	<g>
		<g>
			<path style="fill:#361211;" d="M136.644,35.824c1.341-0.254,2.638-0.171,3.861,0.468c1.541,0.803,1.941,2.387,2.456,3.894
				c0.091,0.267,0.3,0.036,0.308-0.136c0.174-3.707-3.479-5.48-6.674-4.646C136.438,35.444,136.474,35.856,136.644,35.824
				L136.644,35.824z"/>
		</g>
	</g>
	<g>
		<g>
			<path style="fill:#361211;" d="M143.45,39.517c-6.15,5.143-5.555,16.211-6.342,23.434c-0.044,0.402,0.469,1.021,0.643,0.391
				c2.262-8.248,1.129-15.912,5.83-23.582C143.632,39.675,143.583,39.406,143.45,39.517L143.45,39.517z"/>
		</g>
	</g>
	<g>
		<g>
			<path style="fill:#361211;" d="M117.386,58.009c-1.006-1.605-2.201-3.139-3.387-4.617c-1.043-1.301-2.353-2.585-4-3.004
				c-0.164-0.042-0.172,0.246-0.08,0.324c1.409,1.191,2.723,2.348,3.908,3.777c1.105,1.334,2.005,2.877,3.322,4.018
				C117.412,58.733,117.482,58.165,117.386,58.009L117.386,58.009z"/>
		</g>
	</g>
	<g>
		<g>
			<path style="fill:#361211;" d="M110.577,50.636c0.285-1.592,0.801-2.748,2.324-3.461c1.289-0.603,2.773-0.191,4.002-0.762
				c0.185-0.085,0.197-0.459,0.035-0.572c-1.322-0.923-3.516-0.27-4.776,0.515c-1.419,0.883-2.172,2.57-1.989,4.208
				C110.205,50.856,110.512,51.003,110.577,50.636L110.577,50.636z"/>
		</g>
	</g>
	<g>
		<g>
			<path style="fill:#361211;" d="M115.946,46.254c1.563,1.771,2.834,3.741,4.072,5.746c1.249,2.019,2.275,4.473,3.986,6.136
				c0.255,0.249,0.379-0.324,0.303-0.488c-1.018-2.208-2.574-4.253-3.877-6.31c-1.25-1.974-2.646-3.78-4.336-5.395
				C115.95,45.806,115.856,46.153,115.946,46.254L115.946,46.254z"/>
		</g>
	</g>
</g>
</svg>
