<?xml version="1.0" encoding="iso-8859-1"?>
<!-- Generator: Adobe Illustrator 15.0.2, SVG Export Plug-In . SVG Version: 6.00 Build 0)  -->
<!DOCTYPE svg PUBLIC "-//W3C//DTD SVG 1.1//EN" "http://www.w3.org/Graphics/SVG/1.1/DTD/svg11.dtd">
<svg version="1.1" xmlns="http://www.w3.org/2000/svg" xmlns:xlink="http://www.w3.org/1999/xlink" x="0px" y="0px" width="300px"
	 height="300px" viewBox="0 0 300 300" style="enable-background:new 0 0 300 300;" xml:space="preserve">
<g id="color__x28_change_this_x29_">
	<path style="fill:#A6A8AB;" d="M141.15,78.764c-5.3-0.02-22.21-0.41-25.38,3.28c-1.08,1.23-1.63,3.39-1.85,5.97
		c-0.49,5.56,0.56,13.1,1.11,17.52c0.08,0.68,0.15,1.29,0.2,1.81c8.1,0.54,18.36,0,25.38-3.24c-0.08-0.58-0.16-1.17-0.24-1.78
		c-0.91-7.26-1.21-16.08,0.78-23.06V78.764z"/>
</g>
<g id="shadows">
	<g id="XMLID_11_">
		<path style="opacity:0.3;" d="M140.37,102.324c0.08,0.61,0.16,1.2,0.24,1.78c-7.02,3.24-17.28,3.78-25.38,3.24
			c-0.05-0.52-0.12-1.13-0.2-1.81l0.09-0.01c0.84,0.13,3.19,0.09,6.19-0.11c6.05-0.41,14.74-1.45,18.91-3.07L140.37,102.324z"/>
		<path style="opacity:0.3;" d="M136.26,81.234c0.5,0.5,1.62,2.39,1.62,3.4c-7.58,4.55-9.1,9.09-9.1,17.18
			c-2.52,0.5-5.02,1.45-7.55,1.95h-0.03c0.03-6.56,3.56-14.59,9.1-17.62c-2.28,0-4.8,0.13-7.33,0.45c-2.53,0.31-5.05,0.82-7.32,1.58
			c0.5-1.52,1.01-3.54,2.02-5.06c6.02,0.51,12.54-0.99,18.57-2L136.26,81.234z"/>
	</g>
</g>
<g id="outline">
	<g>
		<g>
			<path style="fill:#361211;" d="M141.495,78.647c-4.495-0.122-8.982-0.273-13.477-0.086c-3.911,0.163-8.735,0.187-12.079,2.522
				c-2.781,1.941-2.593,7.288-2.64,10.189c-0.087,5.391,0.833,10.741,1.404,16.084c0.035,0.329,0.146,0.771,0.551,0.795
				c8.545,0.499,17.517,0.081,25.534-3.203c0.404-0.166,0.424-0.738,0.377-1.094c-1.117-8.399-0.684-16.081,0.389-24.436
				c0.064-0.5-0.473-1.173-0.762-0.463c-1.52,3.728-1.629,7.895-1.726,11.877c-0.069,2.844,0.145,5.693,0.392,8.523
				c0.206,2.357,1.029,3.938-1.61,4.997c-5.141,2.061-11.146,2.263-16.628,2.357c-0.685,0.012-5.498,0.186-5.554-0.29
				c-0.183-1.552-0.381-3.103-0.57-4.654c-0.553-4.544-1.008-9.156-0.697-13.735c0.3-4.433,2.062-6.45,6.203-7.491
				c6.761-1.7,13.971-1.512,20.899-1.659C141.605,78.879,141.599,78.65,141.495,78.647L141.495,78.647z"/>
		</g>
	</g>
	<g>
		<g>
			<path style="fill:#361211;" d="M115.119,105.55c8.101,0.324,17.465-0.352,25.11-3.182c0.023-0.009,0.016-0.066-0.012-0.057
				c-4.657,1.604-9.676,2.178-14.552,2.704c-3.325,0.358-7.209,1.047-10.547,0.485C115.098,105.497,115.096,105.549,115.119,105.55
				L115.119,105.55z"/>
		</g>
	</g>
	<g>
		<g>
			<path style="fill:#361211;" d="M117.655,83.1c-0.909,1.6-1.487,3.273-2.074,5.015c-0.02,0.059-0.001,0.186,0.086,0.162
				c3.987-1.085,7.949-1.65,12.068-1.844c3.443-0.162-0.63,1.768-1.671,3.123c-3.078,4.006-5.188,9.162-4.989,14.279
				c0.007,0.188,0.231,0.272,0.253,0.046c0.668-6.793,2.815-13.789,9.014-17.515c0.134-0.081,0.155-0.443-0.05-0.442
				c-3.158,0.017-6.269,0.279-9.388,0.775c-1.368,0.218-2.696,0.561-4.026,0.933c-2.11,0.591,0.815-4.522,0.801-4.496
				C117.69,83.117,117.67,83.074,117.655,83.1L117.655,83.1z"/>
		</g>
	</g>
	<g>
		<g>
			<path style="fill:#361211;" d="M121.236,103.883c2.564-0.381,5.017-1.23,7.555-1.757c0.152-0.032,0.196-0.18,0.199-0.32
				c0.064-3.07,0.3-6.065,1.397-8.957c1.354-3.569,4.534-5.822,7.562-7.869c0.237-0.16,0.163-0.868-0.144-0.693
				c-3.687,2.102-6.665,4.922-8.188,8.936c-0.651,1.718-0.903,3.656-0.982,5.476c-0.09,2.063-0.219,2.851-2.426,3.468
				c-1.673,0.467-3.338,0.98-5,1.488C121.126,103.679,121.141,103.897,121.236,103.883L121.236,103.883z"/>
		</g>
	</g>
	<g>
		<g>
			<path style="fill:#361211;" d="M137.992,84.63c0.039-1.293-0.675-2.764-1.544-3.69c-0.285-0.304-0.484,0.435-0.311,0.653
				c0.664,0.836,1.507,2.008,1.63,3.089C137.79,84.889,137.987,84.794,137.992,84.63L137.992,84.63z"/>
		</g>
	</g>
	<g>
		<g>
			<path style="fill:#361211;" d="M117.669,83.186c6.128,0.753,12.713-0.622,18.696-1.914c0.15-0.032,0.147-0.371-0.009-0.352
				c-6.303,0.794-12.296,2.105-18.69,2.129C117.604,83.049,117.61,83.178,117.669,83.186L117.669,83.186z"/>
		</g>
	</g>
	<g>
		<g>
			<path style="fill:#361211;" d="M137.123,101.155c0.555,0,0.529-1.25-0.03-1.25C136.538,99.905,136.563,101.155,137.123,101.155
				L137.123,101.155z"/>
		</g>
	</g>
	<g>
		<g>
			<path style="fill:#361211;" d="M116.801,103.47c0.659,0,0.628-1.484-0.036-1.484C116.106,101.985,116.136,103.47,116.801,103.47
				L116.801,103.47z"/>
		</g>
	</g>
	<g>
		<g>
			<path style="fill:#361211;" d="M117.9,82.615c0.676,0,0.645-1.523-0.037-1.523C117.187,81.092,117.218,82.615,117.9,82.615
				L117.9,82.615z"/>
		</g>
	</g>
	<g>
		<g>
			<path style="fill:#361211;" d="M138.385,81.104c0.057,0.018,0.113,0.036,0.169,0.053c0.757,0.238,0.764-1.601-0.033-1.349
				c-0.056,0.018-0.111,0.035-0.167,0.053C137.918,79.999,137.966,80.972,138.385,81.104L138.385,81.104z"/>
		</g>
	</g>
</g>
</svg>
