<?xml version="1.0" encoding="iso-8859-1"?>
<!-- Generator: Adobe Illustrator 15.0.2, SVG Export Plug-In . SVG Version: 6.00 Build 0)  -->
<!DOCTYPE svg PUBLIC "-//W3C//DTD SVG 1.1//EN" "http://www.w3.org/Graphics/SVG/1.1/DTD/svg11.dtd">
<svg version="1.1" xmlns="http://www.w3.org/2000/svg" xmlns:xlink="http://www.w3.org/1999/xlink" x="0px" y="0px" width="300px"
	 height="300px" viewBox="0 0 300 300" style="enable-background:new 0 0 300 300;" xml:space="preserve">
<g id="color__x28_change_this_x29_">
	<path style="fill:#A6A8AB;" d="M119.051,159.061l0.02,0.03c-3.17,1.99-6.58,3.41-10.03,4.77c-2.51,0.99-5.05,1.94-7.54,3.04h-0.02
		c-0.01,0.12-0.01,0.25,0,0.38c0.11,2.93,2.52,7.64,5.61,6.69l0.01,0.03c2.45-0.58,4.86-1.31,7.27-2.12
		c5.03-1.69,10-3.73,15.13-5.46v-0.01C136.312,163.831,128.221,150.631,119.051,159.061z"/>
</g>
<g id="shadows">
	<g id="XMLID_12_">
		<path style="opacity:0.3;fill:#FFFFFF;" d="M101.501,167.281c4.11-2.24,11.2,3.73,6.35,6.34c-0.26,0.16-0.51,0.27-0.76,0.35
			c-3.09,0.95-5.5-3.76-5.61-6.69H101.501z"/>
	</g>
</g>
<g id="outline">
	<g>
		<g>
			<path style="fill:#361211;" d="M121.245,157.365c-6.135,4.118-13.741,5.214-19.812,9.202c-0.182,0.12-0.237,0.761,0.078,0.689
				c6.877-1.562,14.254-5.241,19.854-9.502C121.485,157.662,121.402,157.26,121.245,157.365L121.245,157.365z"/>
		</g>
	</g>
	<g>
		<g>
			<path style="fill:#361211;" d="M101.426,166.503c-0.651,3.925,4.084,11.542,7.943,6.438c1.266-1.675-0.066-3.84-1.363-4.991
				c-1.719-1.523-4.659-2.508-6.649-1.021c-0.239,0.179-0.138,0.844,0.226,0.744c1.733-0.475,3.396-0.29,4.987,0.539
				c1.422,0.74,3.446,2.653,2.03,4.264c-3.53,4.015-7.095-2.909-7.021-5.944C101.582,166.412,101.448,166.373,101.426,166.503
				L101.426,166.503z"/>
		</g>
	</g>
	<g>
		<g>
			<path style="fill:#361211;" d="M107.104,174.096c3.492-0.131,6.783-1.333,10.078-2.43c4.33-1.442,9.2-2.838,13.146-5.114
				c0.236-0.136,0.277-0.848-0.091-0.804c-3.498,0.421-6.788,2.049-10.072,3.282c-4.331,1.626-8.913,2.881-13.083,4.874
				C107.019,173.935,107.02,174.099,107.104,174.096L107.104,174.096z"/>
		</g>
	</g>
	<g>
		<g>
			<path style="fill:#361211;" d="M129.131,166.688c4.215-0.379,3.734-5.448,1.875-8.055c-2.908-4.076-9.33-3.962-12.109,0.214
				c-0.094,0.142-0.052,0.631,0.212,0.518c1.894-0.812,3.345-2.089,5.463-2.355c1.735-0.219,3.429,0.425,4.765,1.499
				c1.217,0.977,2.118,2.51,2.269,4.071c0.165,1.705-1.158,2.992-2.509,3.802C129.007,166.436,128.989,166.701,129.131,166.688
				L129.131,166.688z"/>
		</g>
	</g>
	<g>
		<g>
			<path style="fill:#361211;" d="M108.595,163.958c1.772-0.152,3.381,0.257,4.778,1.373c1.934,1.544,1.431,3.589,0.742,5.613
				c-0.021,0.064,0.027,0.285,0.127,0.185c1.339-1.34,1.273-3.479,0.421-5.058c-1.153-2.135-3.9-2.604-6.07-2.191
				C108.56,163.887,108.56,163.961,108.595,163.958L108.595,163.958z"/>
		</g>
	</g>
	<g>
		<g>
			<path style="fill:#361211;" d="M127.481,161.915c0.313,0.076,0.518,0.064,0.771-0.155c0.438-0.38,0.389-1.308-0.041-1.672
				c-0.26-0.22-0.469-0.207-0.778-0.131C126.749,160.125,126.819,161.753,127.481,161.915L127.481,161.915z"/>
		</g>
	</g>
</g>
</svg>
