<?xml version="1.0" encoding="iso-8859-1"?>
<!-- Generator: Adobe Illustrator 15.0.2, SVG Export Plug-In . SVG Version: 6.00 Build 0)  -->
<!DOCTYPE svg PUBLIC "-//W3C//DTD SVG 1.1//EN" "http://www.w3.org/Graphics/SVG/1.1/DTD/svg11.dtd">
<svg version="1.1" xmlns="http://www.w3.org/2000/svg" xmlns:xlink="http://www.w3.org/1999/xlink" x="0px" y="0px" width="300px"
	 height="300px" viewBox="0 0 300 300" style="enable-background:new 0 0 300 300;" xml:space="preserve">
<g id="extra">
	<g>
		<g>
			<g>
				<path style="fill:#361211;" d="M56.275,45.691c29.199,9.512,58.398,19.023,87.598,28.535c0.68,0.222,0.78-1.75,0.234-1.928
					c-29.199-9.512-58.398-19.023-87.598-28.535C55.83,43.542,55.729,45.514,56.275,45.691L56.275,45.691z"/>
			</g>
		</g>
		<g>
			<g>
				<path style="fill:#361211;" d="M100.738,27.442c25.605,10.01,51.21,20.02,76.814,30.028c0.649,0.254,0.783-1.714,0.234-1.928
					c-25.605-10.01-51.21-20.02-76.814-30.028C100.323,25.261,100.189,27.229,100.738,27.442L100.738,27.442z"/>
			</g>
		</g>
		<g>
			<g>
				<path style="fill:#361211;" d="M114.674,19.976c24.941,10.563,49.883,21.126,74.824,31.688c0.634,0.269,0.783-1.695,0.234-1.928
					c-24.941-10.563-49.883-21.126-74.824-31.688C114.274,17.779,114.125,19.743,114.674,19.976L114.674,19.976z"/>
			</g>
		</g>
		<g>
			<g>
				<path style="fill:#361211;" d="M137.404,7.201c25.162,11.891,50.324,23.78,75.486,35.67c0.609,0.288,0.781-1.67,0.234-1.928
					c-25.162-11.891-50.324-23.78-75.486-35.67C137.03,4.985,136.857,6.943,137.404,7.201L137.404,7.201z"/>
			</g>
		</g>
		<g>
			<g>
				<path style="fill:#361211;" d="M160.903,64.958c-2.267,3.186-8.956-0.859-11.386-1.747c-6.657-2.433-13.314-4.865-19.972-7.298
					c-13.539-4.947-27.078-9.895-40.617-14.842c-1.357-0.496-2.714-0.992-4.072-1.488c-1.68-0.613,0.163-3.227,1.691-2.668
					c4.193,1.532,8.387,3.064,12.58,4.598c14.67,5.36,29.34,10.721,44.01,16.082c3.926,1.435,7.853,2.869,11.778,4.304
					c1.368,0.5,5.999,1.318,5.786,3.657c-0.081,0.879,0.725,1.887,0.848,0.531c0.373-4.079-2.29-4.615-5.476-5.779
					c-5.606-2.049-11.214-4.098-16.821-6.146c-14.468-5.287-28.936-10.574-43.404-15.861c-3.251-1.188-6.502-2.375-9.753-3.563
					c-4.193-1.532-5.358,5.356-1.64,6.715c10.914,3.987,21.827,7.976,32.741,11.964c9.814,3.586,19.628,7.172,29.442,10.758
					c3.378,1.234,11.922,6.428,14.708,2.512C161.676,66.224,161.36,64.315,160.903,64.958z"/>
			</g>
		</g>
		<g>
			<g>
				<path style="fill:#361211;" d="M82.986,38.06c25.882,9.567,51.763,19.135,77.645,28.702c0.66,0.244,0.782-1.726,0.234-1.928
					c-25.882-9.567-51.763-19.135-77.645-28.702C82.561,35.888,82.438,37.857,82.986,38.06L82.986,38.06z"/>
			</g>
		</g>
	</g>
</g>
<g id="color__x28_change_this_x29_">
	<path style="fill:#A6A8AB;" d="M173.438,23.515l-0.119,0.042c-0.26-0.7,0.104-1.695,0.806-2.494
		c-13.62,5.675-31.359,15.771-34.659,16.443c-0.203,0.042-0.351,0.049-0.441,0.014c-0.981,0.519-2.291,0.925-3.531,1.395
		c-1.415,0.525-2.725,1.12-3.334,2.038l-0.063-0.014c-0.056,0.203-0.105,0.406-0.154,0.616l-0.077-0.014
		c-0.883,0.883-35.009,16.394-35.892,17.276l-0.287-0.112c-1.618,3.076,2.844,3.23,4.82,2.277
		c5.983-2.838,30.251-14.229,31.863-14.993c0.399,0.351,0.995,0.554,1.85,0.554l0.477,0.267c0.014-0.015,0.021-0.021,0.028-0.035
		l0.084,0.062c0,3.531-1.177,34.708-1.765,37.951l0.098,0.582c-0.161,0.028-0.343,0.063-0.546,0.105
		c-1.261,0.272-3.195,0.819-4.372,1.45c-0.456,0.238-0.792,0.49-0.953,0.742c0.273,1.527,0.756,3.286,0.756,4.799
		c4.617,2.88,10.369,2.39,15.49,0.47c1.808-0.666,3.531-1.521,5.101-2.459l-0.07-0.119c0.266-2.102-0.259-4.729-1.842-5.521
		l-0.252,0.049c0-0.014,0-0.035-0.007-0.049v-0.525c-1.416,0-2.41,0-3.636,0.111l-0.049-0.518
		c-2.066-4.716-2.536-36.48-2.536-39.717l-0.007-0.028c1.289-0.302,1.864-1.303,1.941-2.578l-0.575-0.042l-0.294-0.295
		c2.522-1.407,29.446-14.103,34.511-16.31l-0.069-0.567C179.385,23.865,173.438,18.029,173.438,23.515z"/>
</g>
<g id="shadows">
	<g id="XMLID_45_">
		<path style="opacity:0.3;fill:#FFFFFF;" d="M175.729,24.369l0.069,0.567c-5.065,2.207-31.989,14.902-34.511,16.31l0.294,0.295
			c-2.361,2.354-4.715-1.772-2.067-3.832l-0.049-0.203c3.3-0.673,21.039-10.769,34.659-16.443c-0.701,0.799-1.065,1.794-0.806,2.494
			c0.224,0.589,0.89,0.967,2.179,0.841C175.574,24.391,175.651,24.383,175.729,24.369z"/>
		<path style="opacity:0.3;" d="M148.545,90.358l0.07,0.119c-1.569,0.938-3.293,1.793-5.101,2.459
			c-0.126-1.534-0.238-4.344-0.245-4.946c2.102-0.848,3.468-1.947,3.181-3.104l0.252-0.049
			C148.286,85.629,148.811,88.257,148.545,90.358z"/>
		<path style="opacity:0.3;fill:#FFFFFF;" d="M143.27,87.955c0,0.015,0,0.021,0,0.035c-5.254,2.137-15.084,2.732-15.049-1.064
			c1.177-0.631,3.111-1.178,4.372-1.45c1.121,1.31,4.449,1.583,6.908,0.791C141.217,86.96,143.27,87.325,143.27,87.955z"/>
		<path style="opacity:0.3;" d="M142.037,84.516c-0.462,0.812-1.408,1.394-2.536,1.751c-0.049-0.014-0.098-0.035-0.147-0.056
			l-1.31-41.139c0,0-0.133-0.105-0.343-0.302c0.799-0.28,1.64-0.47,2.403-0.581c0.042-0.008,0.077-0.015,0.112-0.028l0.007,0.028
			c0,3.236,0.47,35.001,2.536,39.717l0.049,0.518c-0.245,0.021-0.498,0.05-0.771,0.085V84.516z"/>
		<path style="opacity:0.3;" d="M141.581,41.541l0.575,0.042c-0.077,1.275-0.652,2.276-1.941,2.578
			c-0.035,0.014-0.07,0.021-0.112,0.028c-0.764,0.111-1.604,0.301-2.403,0.581c-0.792-0.75-2.662-2.872-2.207-5.856
			c1.24-0.47,2.55-0.876,3.531-1.395c0.091,0.035,0.238,0.028,0.441-0.014l0.049,0.203C136.866,39.769,139.22,43.895,141.581,41.541
			z"/>
		<path style="opacity:0.3;fill:#FFFFFF;" d="M131.864,41.541l0.077,0.014c-0.378,1.64-0.645,3.524,0.427,4.435
			c-1.611,0.764-25.88,12.155-31.863,14.993c-1.976,0.953-6.438,0.799-4.82-2.277l0.287,0.112
			C96.855,57.935,130.981,42.424,131.864,41.541z"/>
	</g>
</g>
<g id="outline">
	<g>
		<g>
			<path style="fill:#361211;" d="M127.174,87.439c-0.209,1.627,0.288,3.402,0.429,5.034c0.068,0.791,0.812,0.77,0.846-0.021
				c0.07-1.608-0.386-3.653-1.168-5.059C127.244,87.328,127.18,87.391,127.174,87.439L127.174,87.439z"/>
		</g>
	</g>
	<g>
		<g>
			<path style="fill:#361211;" d="M127.947,92.685c5.783,3.854,15.996,2.995,21.009-1.976c0.206-0.203,0.16-0.837-0.226-0.744
				c-2.886,0.691-5.52,2.444-8.418,3.289c-4.156,1.21-8.348,0.723-12.249-1.037C127.85,92.12,127.801,92.587,127.947,92.685
				L127.947,92.685z"/>
		</g>
	</g>
	<g>
		<g>
			<path style="fill:#361211;" d="M148.729,90.512c0.842-1.8,0.123-5.331-1.676-6.38c-0.132-0.077-0.333-0.002-0.429,0.097
				c-0.795,0.813,0.183,1.449,0.673,2.029c0.992,1.173,0.777,2.794,1.055,4.188C148.4,90.687,148.622,90.74,148.729,90.512
				L148.729,90.512z"/>
		</g>
	</g>
	<g>
		<g>
			<path style="fill:#361211;" d="M127.257,87.776c0.358-0.371,0.872-0.417,1.339-0.582c0.755-0.267,1.488-0.526,2.272-0.703
				c0.724-0.164,2.544-0.3,1.896-1.521c-0.087-0.164-0.224-0.398-0.451-0.375c-1.124,0.12-2.21,0.674-3.2,1.188
				c-0.823,0.428-1.579,1.016-1.911,1.916C127.192,87.726,127.215,87.82,127.257,87.776L127.257,87.776z"/>
		</g>
	</g>
	<g>
		<g>
			<path style="fill:#361211;" d="M128.254,86.383c-1.163,4.287,6.466,3.894,8.755,3.653c2.57-0.271,10.446-1.351,9.765-5.352
				c-0.117-0.69-0.754-0.254-0.66,0.297c0.628,3.688-17.924,7.031-17.787,1.429C128.328,86.366,128.27,86.323,128.254,86.383
				L128.254,86.383z"/>
		</g>
	</g>
	<g>
		<g>
			<path style="fill:#361211;" d="M146.441,84.209c-1.575-0.243-3.374-0.594-4.872,0.116c-0.144,0.068-0.177,0.455,0.012,0.49
				c1.555,0.283,3.314-0.169,4.865-0.411C146.534,84.391,146.527,84.223,146.441,84.209L146.441,84.209z"/>
		</g>
	</g>
	<g>
		<g>
			<path style="fill:#361211;" d="M132.52,85.221c1.732,3.016,8.826,2.791,10.202-0.425c0.28-0.654-0.418-2.142-1.056-1.181
				c-1.097,1.652-2.395,2.258-4.356,2.52c-1.361,0.182-3.833,0.217-4.754-0.971C132.524,85.125,132.505,85.194,132.52,85.221
				L132.52,85.221z"/>
		</g>
	</g>
	<g>
		<g>
			<path style="fill:#231F20;" d="M144.814,87.263c0.017,0,0.017-0.039-0.001-0.039C144.796,87.224,144.796,87.263,144.814,87.263
				L144.814,87.263z"/>
		</g>
	</g>
	<g>
		<g>
			<path style="fill:#361211;" d="M134.603,46.84c-0.5,12.584-0.666,25.316-1.774,37.86c-0.03,0.345,0.324,0.604,0.425,0.166
				c1.349-5.873,1.064-12.427,1.287-18.406c0.243-6.526,0.653-13.099,0.472-19.63C135.002,46.44,134.618,46.461,134.603,46.84
				L134.603,46.84z"/>
		</g>
	</g>
	<g>
		<g>
			<path style="fill:#361211;" d="M140.125,44.146c-0.675,6.36-0.125,12.983,0.072,19.357c0.193,6.255-0.651,14.908,2.226,20.71
				c0.315,0.637,0.86,0.02,0.715-0.483c-1.821-6.31-1.551-13.745-1.897-20.252c-0.341-6.409-0.21-12.915-0.913-19.296
				C140.312,44.039,140.145,43.958,140.125,44.146L140.125,44.146z"/>
		</g>
	</g>
	<g>
		<g>
			<path style="fill:#361211;" d="M131.921,40.45c-1.166,2.601-1.757,6.729,2.008,7.231c0.961,0.128,1.007-2.227-0.057-2.303
				c-2.408-0.173-1.594-2.971-1.452-4.625C132.449,40.427,132.128,39.986,131.921,40.45L131.921,40.45z"/>
		</g>
	</g>
	<g>
		<g>
			<path style="fill:#361211;" d="M134.56,47.354c0.863-0.505,1.488-1.235,2.43-1.662c1.043-0.472,2.161-0.568,3.249-0.869
				c0.484-0.135,0.393-1.319-0.148-1.302c-1.92,0.063-5.429,1.339-5.728,3.55C134.352,47.156,134.408,47.443,134.56,47.354
				L134.56,47.354z"/>
		</g>
	</g>
	<g>
		<g>
			<path style="fill:#361211;" d="M140.031,44.676c1.755,0.396,2.795-1.848,2.736-3.288c-0.013-0.319-0.13-0.742-0.463-0.872
				c-0.408-0.159-0.679,0.328-0.724,0.658c-0.07,0.519-0.052,1.001-0.319,1.471c-0.301,0.529-0.861,0.763-1.333,1.105
				C139.698,43.918,139.703,44.603,140.031,44.676L140.031,44.676z"/>
		</g>
	</g>
	<g>
		<g>
			<path style="fill:#361211;" d="M141.549,41.385c-0.779,0.381-2,0.068-2.458-0.665c-0.204-0.327-0.204-0.775-0.099-1.131
				c0.189-0.638,0.618-1.114,0.75-1.794c0.029-0.147-0.02-0.363-0.171-0.428c-0.921-0.399-1.451,0.795-1.65,1.509
				c-0.246,0.88-0.178,1.82,0.178,2.66c0.288,0.679,0.848,1.283,1.572,1.481c0.987,0.27,1.533-0.668,1.983-1.374
				C141.698,41.576,141.681,41.32,141.549,41.385L141.549,41.385z"/>
		</g>
	</g>
	<g>
		<g>
			<path style="fill:#361211;" d="M132.176,40.988c0.375-0.447,1.251-0.652,1.775-0.865c0.685-0.277,1.365-0.537,2.07-0.765
				c1.095-0.354,3.083-0.501,3.521-1.677c0.103-0.278,0.034-0.646-0.234-0.799c-0.572-0.322-0.916,0.141-1.437,0.415
				c-0.774,0.407-1.644,0.678-2.453,1.011c-1.549,0.636-2.376,1.255-3.283,2.603C132.116,40.938,132.143,41.027,132.176,40.988
				L132.176,40.988z"/>
		</g>
	</g>
	<g>
		<g>
			<path style="fill:#361211;" d="M138.86,37.525c0.979,1.413,9.258-3.326,10.246-3.807c8.531-4.157,17.019-8.4,25.591-12.467
				c0.307-0.146,0.221-0.926-0.162-0.787c-7.691,2.789-14.986,6.541-22.227,10.323c-1.037,0.542-12.523,7.442-13.309,6.513
				C138.874,37.151,138.788,37.42,138.86,37.525L138.86,37.525z"/>
		</g>
	</g>
	<g>
		<g>
			<path style="fill:#361211;" d="M141.301,41.315c11.83-5.089,23.715-10.36,35.16-16.255c0.283-0.146,0.221-0.867-0.154-0.75
				c-5.969,1.871-11.58,5.06-17.201,7.763c-5.951,2.862-12.294,5.468-17.836,9.092C141.22,41.198,141.227,41.348,141.301,41.315
				L141.301,41.315z"/>
		</g>
	</g>
	<g>
		<g>
			<path style="fill:#361211;" d="M174.299,20.823c-0.48,0.733-1.092,1.193-1.203,2.13c-0.086,0.74,0.189,1.366,0.844,1.721
				c1.285,0.695,3.461,0.263,3.393-1.464c-0.045-1.163-1.08-2.338-2.199-2.613c-0.543-0.134-1.086,0.013-1.447,0.448
				c-0.611,0.733-0.648,1.668-0.443,2.551c0.047,0.199,0.307,0.337,0.377,0.065c0.125-0.474,0.234-1.083,0.482-1.509
				c0.174-0.301,0.48-0.371,0.803-0.334c0.65,0.073,1.287,0.743,1.525,1.313c0.088,0.21,0.141,0.21-0.023,0.38
				c-0.387,0.401-1.186,0.405-1.689,0.404c-0.557,0-1.291-0.281-1.332-0.911c-0.043-0.649,0.389-1.729,0.947-2.099
				C174.385,20.872,174.332,20.772,174.299,20.823L174.299,20.823z"/>
		</g>
	</g>
	<g>
		<g>
			<path style="fill:#361211;" d="M131.801,41.385c-1.83,1.326-4.376,2.016-6.409,2.967c-4.002,1.873-8.03,3.691-12.03,5.57
				c-5.474,2.57-12.795,4.701-17.504,8.605c-0.207,0.172-0.062,0.784,0.234,0.567c1.811-1.323,4.354-2.076,6.368-3.033
				c3.996-1.899,8.008-3.765,12.017-5.637c5.479-2.558,12.753-4.817,17.449-8.739C132.034,41.594,131.958,41.271,131.801,41.385
				L131.801,41.385z"/>
		</g>
	</g>
	<g>
		<g>
			<path style="fill:#361211;" d="M95.824,58.005c-1.198,2.269-0.561,3.601,2.073,3.934c3.538,0.447,8.498-2.933,11.532-4.335
				c7.497-3.465,16.526-6.28,23.181-11.268c0.203-0.152,0.183-0.91-0.169-0.834c-4.943,1.078-9.803,4.109-14.318,6.271
				c-3.91,1.874-7.819,3.748-11.727,5.626c-1.509,0.726-2.969,1.495-4.438,2.298c-0.844,0.461-7.9,3.038-5.834-1.258
				C96.231,58.219,96.003,57.666,95.824,58.005L95.824,58.005z"/>
		</g>
	</g>
</g>
</svg>
